<?xml version="1.0" standalone="no"?>
<!DOCTYPE svg PUBLIC "-//W3C//DTD SVG 1.1//EN"
  "http://www.w3.org/Graphics/SVG/1.1/DTD/svg11.dtd">
<svg width="57.76300048828125mm" height="130.99999999999997mm" viewBox="-410.76300048828125 -18.999999999999996 57.76300048828125 130.99999999999997" xmlns="http://www.w3.org/2000/svg" version="1.1">
	<title>svgOutput</title>
	<desc>made with tinkercad</desc>
<path d="M -354 12.12800025939941 L -356.8630065917969 12.12800025939941 L -356.8630065917969 31.002000808715813 L -356.8630065917969 38.44800186157226 L -356.8630065917969 63.45299911499022 L -356.8630065917969 65.99999999999999 L -354 65.99999999999999 L -354 105.99999999999997 L -356.8630065917969 105.99999999999997 L -356.8630065917969 110.99999999999997 L -393.00299072265625 110.99999999999997 L -406.8630065917969 110.99999999999997 L -406.8630065917969 105.90000152587888 L -409.76300048828125 105.90000152587888 L -409.76300048828125 95.90000152587889 L -406.8630065917969 95.90000152587889 L -406.8630065917969 70.8980026245117 L -406.8630065917969 63.45299911499022 L -406.8630065917969 56.45100021362303 L -406.8630065917969 55.90000152587889 L -409.76300048828125 55.90000152587889 L -409.76300048828125 45.9000015258789 L -406.8630065917969 45.9000015258789 L -406.8630065917969 38.44800186157226 L -406.8630065917969 35.9000015258789 L -409.76300048828125 35.9000015258789 L -409.76300048828125 25.899999618530266 L -406.8630065917969 25.899999618530266 L -406.8630065917969 -3.0999999046325675 L -409.76300048828125 -3.0999999046325675 L -409.76300048828125 -13.100000381469723 L -406.8630065917969 -13.100000381469723 L -406.8630065917969 -17.999999999999996 L -390.00299072265625 -17.999999999999996 L -356.8630065917969 -17.999999999999996 L -356.8630065917969 -3.871999979019164 L -354 -3.871999979019164 L -354 12.12800025939941 M -382.9809875488281 42.23199844360351 L -382.97601318359375 42.23339843749999 L -382.9309997558594 42.24599838256835 L -382.8810119628906 42.25799942016601 L -382.83099365234375 42.26900100708007 L -382.781005859375 42.27799987792968 L -382.7300109863281 42.2849998474121 L -382.6789855957031 42.29100036621093 L -382.62799072265625 42.294998168945305 L -382.5769958496094 42.29700088500976 L -382.5249938964844 42.29800033569335 L -382.4739990234375 42.29700088500976 L -382.4639892578125 42.2966079711914 L -382.4230041503906 42.294998168945305 L -382.37200927734375 42.29100036621093 L -382.3210144042969 42.2849998474121 L -382.2699890136719 42.27799987792968 L -382.2200012207031 42.26900100708007 L -382.17498779296875 42.259292602539055 L -382.16900634765625 42.25799942016601 L -382.1189880371094 42.24599838256835 L -382.07000732421875 42.23199844360351 L -382.0199890136719 42.21699905395507 L -381.97100830078125 42.200000762939446 L -381.9519958496094 42.19247817993163 L -381.9230041503906 42.18099975585937 L -381.875 42.160999298095696 L -381.8280029296875 42.13899993896484 L -381.781005859375 42.11500167846679 L -381.7349853515625 42.09000015258788 L -381.6889953613281 42.06299972534179 L -381.6449890136719 42.0349998474121 L -381.60101318359375 42.00500106811523 L -381.5721130371094 41.98400115966796 L -381.5570068359375 41.9729995727539 L -381.5150146484375 41.93899917602538 L -381.4739990234375 41.903999328613274 L -381.4330139160156 41.86800003051757 L -381.39300537109375 41.83000183105468 L -381.3550109863281 41.79000091552734 L -381.3190002441406 41.7490005493164 L -381.28399658203125 41.70800018310546 L -381.25 41.66600036621093 L -381.2179870605469 41.62200164794921 L -381.18798828125 41.57899856567382 L -381.1600036621094 41.53400039672851 L -381.13299560546875 41.48799896240234 L -381.1242980957031 41.472000122070305 L -381.1080017089844 41.44200134277343 L -381.0840148925781 41.395000457763665 L -381.06201171875 41.3479995727539 L -381.0419921875 41.29999923706054 L -381.02301025390625 41.25199890136718 L -381.0060119628906 41.20299911499023 L -380.9909973144531 41.153999328613274 L -380.97698974609375 41.10400009155273 L -380.9639892578125 41.05400085449218 L -380.9540100097656 41.00400161743163 L -380.94622802734375 40.95999908447265 L -380.94500732421875 40.95299911499023 L -380.93798828125 40.90200042724609 L -380.9320068359375 40.851001739501946 L -380.9280090332031 40.79999923706054 L -380.92498779296875 40.7490005493164 L -380.92498779296875 40.64699935913085 L -380.9280090332031 40.59600067138671 L -380.9320068359375 40.544998168945305 L -380.93798828125 40.493999481201165 L -380.9443054199219 40.44800186157226 L -380.94500732421875 40.443000793457024 L -380.9540100097656 40.39199829101562 L -380.9639892578125 40.34199905395507 L -380.97698974609375 40.291999816894524 L -380.9909973144531 40.24200057983398 L -381.0060119628906 40.193000793457024 L -381.02301025390625 40.14400100708007 L -381.0419921875 40.09600067138671 L -381.06201171875 40.04800033569335 L -381.0840148925781 39.99999999999999 L -381.1080017089844 39.95399856567382 L -381.1177978515625 39.9360008239746 L -381.13299560546875 39.908000946044915 L -381.1600036621094 39.86199951171874 L -381.18798828125 39.81700134277343 L -381.2179870605469 39.772998809814446 L -381.25 39.72999954223632 L -381.28399658203125 39.68799972534179 L -381.3190002441406 39.64599990844726 L -381.3550109863281 39.605998992919915 L -381.39300537109375 39.56600189208984 L -381.4330139160156 39.52799987792968 L -381.44000244140625 39.521682739257805 L -381.4739990234375 39.49100112915038 L -381.5150146484375 39.456001281738274 L -381.5570068359375 39.42300033569335 L -381.60101318359375 39.390998840332024 L -381.6449890136719 39.36100006103515 L -381.6889953613281 39.33300018310546 L -381.7349853515625 39.30599975585937 L -381.781005859375 39.28099822998046 L -381.8280029296875 39.256999969482415 L -381.875 39.235000610351555 L -381.9230041503906 39.21500015258788 L -381.9519958496094 39.20352172851562 L -381.97100830078125 39.195999145507805 L -382.0199890136719 39.17900085449218 L -382.07000732421875 39.16400146484374 L -382.1189880371094 39.1500015258789 L -382.16900634765625 39.13700103759765 L -382.17498779296875 39.13582229614257 L -382.2200012207031 39.12699890136718 L -382.2699890136719 39.11800003051757 L -382.3210144042969 39.11100006103515 L -382.37200927734375 39.10499954223632 L -382.4230041503906 39.101001739501946 L -382.4639892578125 39.098587036132805 L -382.4739990234375 39.0979995727539 L -382.5769958496094 39.0979995727539 L -382.62799072265625 39.101001739501946 L -382.6789855957031 39.10499954223632 L -382.7300109863281 39.11100006103515 L -382.781005859375 39.11800003051757 L -382.83099365234375 39.12699890136718 L -382.8810119628906 39.13700103759765 L -382.9309997558594 39.1500015258789 L -382.97601318359375 39.16260147094726 L -382.9809875488281 39.16400146484374 L -383.0299987792969 39.17900085449218 L -383.0790100097656 39.195999145507805 L -383.12799072265625 39.21500015258788 L -383.1759948730469 39.235000610351555 L -383.2229919433594 39.256999969482415 L -383.2699890136719 39.28099822998046 L -383.3160095214844 39.30599975585937 L -383.3609924316406 39.33300018310546 L -383.406005859375 39.36100006103515 L -383.45001220703125 39.390998840332024 L -383.4880065917969 39.4192771911621 L -383.4930114746094 39.42300033569335 L -383.5360107421875 39.456001281738274 L -383.5769958496094 39.49100112915038 L -383.6180114746094 39.52799987792968 L -383.6570129394531 39.56600189208984 L -383.6960144042969 39.605998992919915 L -383.73199462890625 39.64599990844726 L -383.7669982910156 39.68799972534179 L -383.8009948730469 39.72999954223632 L -383.8320007324219 39.772998809814446 L -383.86199951171875 39.81700134277343 L -383.8909912109375 39.86199951171874 L -383.9179992675781 39.908000946044915 L -383.9332275390625 39.9360008239746 L -383.9429931640625 39.95399856567382 L -383.9670104980469 39.99999999999999 L -383.989013671875 40.04800033569335 L -384 40.07440185546874 L -384.0090026855469 40.09600067138671 L -384.02801513671875 40.14400100708007 L -384.0450134277344 40.193000793457024 L -384.05999755859375 40.24200057983398 L -384.0740051269531 40.291999816894524 L -384.08599853515625 40.34199905395507 L -384.09698486328125 40.39199829101562 L -384.1059875488281 40.443000793457024 L -384.106689453125 40.44800186157226 L -384.1130065917969 40.493999481201165 L -384.1189880371094 40.544998168945305 L -384.12298583984375 40.59600067138671 L -384.125 40.64699935913085 L -384.1260070800781 40.69800186157226 L -384.125 40.7490005493164 L -384.12298583984375 40.79999923706054 L -384.1189880371094 40.851001739501946 L -384.1130065917969 40.90200042724609 L -384.1059875488281 40.95299911499023 L -384.1047668457031 40.95999908447265 L -384.09698486328125 41.00400161743163 L -384.08599853515625 41.05400085449218 L -384.0740051269531 41.10400009155273 L -384.05999755859375 41.153999328613274 L -384.0450134277344 41.20299911499023 L -384.02801513671875 41.25199890136718 L -384.0090026855469 41.29999923706054 L -384 41.321601867675774 L -383.989013671875 41.3479995727539 L -383.9670104980469 41.395000457763665 L -383.9429931640625 41.44200134277343 L -383.92669677734375 41.472000122070305 L -383.9179992675781 41.48799896240234 L -383.8909912109375 41.53400039672851 L -383.86199951171875 41.57899856567382 L -383.8320007324219 41.62200164794921 L -383.8009948730469 41.66600036621093 L -383.7669982910156 41.70800018310546 L -383.73199462890625 41.7490005493164 L -383.6960144042969 41.79000091552734 L -383.6570129394531 41.83000183105468 L -383.6180114746094 41.86800003051757 L -383.5769958496094 41.903999328613274 L -383.5360107421875 41.93899917602538 L -383.4930114746094 41.9729995727539 L -383.47821044921875 41.98400115966796 L -383.45001220703125 42.00500106811523 L -383.406005859375 42.0349998474121 L -383.3609924316406 42.06299972534179 L -383.3160095214844 42.09000015258788 L -383.2699890136719 42.11500167846679 L -383.2229919433594 42.13899993896484 L -383.1759948730469 42.160999298095696 L -383.12799072265625 42.18099975585937 L -383.0790100097656 42.200000762939446 L -383.0299987792969 42.21699905395507 L -382.9809875488281 42.23199844360351 M -383.6570129394531 62.33399963378905 L -383.6180114746094 62.372001647949205 L -383.5769958496094 62.4090003967285 L -383.5360107421875 62.44400024414061 L -383.50994873046875 62.46400070190428 L -383.4930114746094 62.47700119018553 L -383.45001220703125 62.508998870849595 L -383.406005859375 62.539001464843736 L -383.3609924316406 62.56700134277342 L -383.3160095214844 62.59400177001952 L -383.2699890136719 62.61899948120116 L -383.2229919433594 62.64300155639647 L -383.1759948730469 62.66500091552733 L -383.12799072265625 62.685001373291 L -383.0790100097656 62.703998565673814 L -383.0299987792969 62.721000671386705 L -382.9809875488281 62.73600006103514 L -382.97601318359375 62.737400054931626 L -382.9309997558594 62.749999999999986 L -382.8810119628906 62.763000488281236 L -382.83099365234375 62.77299880981444 L -382.781005859375 62.782001495361314 L -382.7300109863281 62.789001464843736 L -382.6789855957031 62.7949981689453 L -382.62799072265625 62.79899978637694 L -382.5769958496094 62.80199813842772 L -382.4739990234375 62.80199813842772 L -382.4639892578125 62.801410675048814 L -382.4230041503906 62.79899978637694 L -382.37200927734375 62.7949981689453 L -382.3210144042969 62.789001464843736 L -382.2699890136719 62.782001495361314 L -382.2200012207031 62.77299880981444 L -382.17498779296875 62.76417541503905 L -382.16900634765625 62.763000488281236 L -382.1189880371094 62.749999999999986 L -382.07000732421875 62.73600006103514 L -382.0199890136719 62.721000671386705 L -381.97100830078125 62.703998565673814 L -381.9519958496094 62.69647979736327 L -381.9230041503906 62.685001373291 L -381.875 62.66500091552733 L -381.8280029296875 62.64300155639647 L -381.781005859375 62.61899948120116 L -381.7349853515625 62.59400177001952 L -381.6889953613281 62.56700134277342 L -381.6449890136719 62.539001464843736 L -381.60101318359375 62.508998870849595 L -381.5570068359375 62.47700119018553 L -381.54046630859375 62.46400070190428 L -381.5150146484375 62.44400024414061 L -381.4739990234375 62.4090003967285 L -381.4330139160156 62.372001647949205 L -381.39300537109375 62.33399963378905 L -381.3550109863281 62.293998718261705 L -381.3190002441406 62.254001617431626 L -381.28399658203125 62.212001800537095 L -381.25 62.1699981689453 L -381.2179870605469 62.12699890136717 L -381.18798828125 62.083000183105455 L -381.1600036621094 62.037998199462876 L -381.13299560546875 61.99200057983397 L -381.11126708984375 61.951999664306626 L -381.1080017089844 61.9459991455078 L -381.0840148925781 61.90000152587889 L -381.06201171875 61.85200119018553 L -381.0419921875 61.80400085449217 L -381.02301025390625 61.756000518798814 L -381.0060119628906 61.70700073242186 L -380.9909973144531 61.65800094604491 L -380.97698974609375 61.60800170898436 L -380.9639892578125 61.55799865722655 L -380.9540100097656 61.507999420166 L -380.94500732421875 61.45700073242186 L -380.9426574707031 61.43999862670897 L -380.93798828125 61.405998229980455 L -380.9320068359375 61.354999542236314 L -380.9280090332031 61.30400085449217 L -380.92498779296875 61.25299835205077 L -380.92498779296875 61.151000976562486 L -380.9280090332031 61.09999847412108 L -380.9320068359375 61.04899978637694 L -380.93798828125 60.9980010986328 L -380.94500732421875 60.94699859619139 L -380.9483642578125 60.92800140380858 L -380.9540100097656 60.89599990844725 L -380.9639892578125 60.846000671386705 L -380.97698974609375 60.79600143432616 L -380.9909973144531 60.745998382568345 L -381.0060119628906 60.69699859619139 L -381.02301025390625 60.64799880981444 L -381.0419921875 60.59999847412108 L -381.06201171875 60.55199813842772 L -381.0840148925781 60.50500106811522 L -381.1080017089844 60.458000183105455 L -381.1308288574219 60.41600036621092 L -381.13299560546875 60.41199874877928 L -381.1600036621094 60.366001129150376 L -381.18798828125 60.3209991455078 L -381.2179870605469 60.27799987792967 L -381.25 60.234001159667955 L -381.28399658203125 60.19200134277342 L -381.3190002441406 60.151000976562486 L -381.3550109863281 60.11000061035155 L -381.39300537109375 60.069999694824205 L -381.4330139160156 60.032001495361314 L -381.44000244140625 60.025852203369126 L -381.4739990234375 59.995998382568345 L -381.5150146484375 59.960998535156236 L -381.5570068359375 59.92699813842772 L -381.60101318359375 59.89500045776366 L -381.6449890136719 59.86500167846678 L -381.6889953613281 59.837001800537095 L -381.7349853515625 59.810001373291 L -381.781005859375 59.784999847412095 L -381.8280029296875 59.76100158691405 L -381.875 59.73899841308592 L -381.9230041503906 59.71900177001952 L -381.9519958496094 59.707519531249986 L -381.97100830078125 59.70000076293944 L -382.0199890136719 59.68299865722655 L -382.07000732421875 59.66799926757811 L -382.1189880371094 59.65399932861327 L -382.16900634765625 59.64199829101561 L -382.17498779296875 59.640705108642564 L -382.2200012207031 59.631000518798814 L -382.2699890136719 59.622001647949205 L -382.3210144042969 59.61500167846678 L -382.37200927734375 59.609001159667955 L -382.4230041503906 59.604999542236314 L -382.4639892578125 59.603393554687486 L -382.4739990234375 59.603000640869126 L -382.5249938964844 59.60200119018553 L -382.5769958496094 59.603000640869126 L -382.62799072265625 59.604999542236314 L -382.6789855957031 59.609001159667955 L -382.7300109863281 59.61500167846678 L -382.781005859375 59.622001647949205 L -382.83099365234375 59.631000518798814 L -382.8810119628906 59.64199829101561 L -382.9309997558594 59.65399932861327 L -382.97601318359375 59.666599273681626 L -382.9809875488281 59.66799926757811 L -383.0299987792969 59.68299865722655 L -383.0790100097656 59.70000076293944 L -383.12799072265625 59.71900177001952 L -383.1759948730469 59.73899841308592 L -383.2229919433594 59.76100158691405 L -383.2699890136719 59.784999847412095 L -383.3160095214844 59.810001373291 L -383.3609924316406 59.837001800537095 L -383.406005859375 59.86500167846678 L -383.45001220703125 59.89500045776366 L -383.4880065917969 59.923278808593736 L -383.4930114746094 59.92699813842772 L -383.5360107421875 59.960998535156236 L -383.5769958496094 59.995998382568345 L -383.6180114746094 60.032001495361314 L -383.6570129394531 60.069999694824205 L -383.6960144042969 60.11000061035155 L -383.73199462890625 60.151000976562486 L -383.7669982910156 60.19200134277342 L -383.8009948730469 60.234001159667955 L -383.8320007324219 60.27799987792967 L -383.86199951171875 60.3209991455078 L -383.8909912109375 60.366001129150376 L -383.9179992675781 60.41199874877928 L -383.920166015625 60.41600036621092 L -383.9429931640625 60.458000183105455 L -383.9670104980469 60.50500106811522 L -383.989013671875 60.55199813842772 L -384 60.57839965820311 L -384.0090026855469 60.59999847412108 L -384.02801513671875 60.64799880981444 L -384.0450134277344 60.69699859619139 L -384.05999755859375 60.745998382568345 L -384.0740051269531 60.79600143432616 L -384.08599853515625 60.846000671386705 L -384.09698486328125 60.89599990844725 L -384.1026611328125 60.92800140380858 L -384.1059875488281 60.94699859619139 L -384.1130065917969 60.9980010986328 L -384.1189880371094 61.04899978637694 L -384.12298583984375 61.09999847412108 L -384.125 61.151000976562486 L -384.1260070800781 61.201999664306626 L -384.125 61.25299835205077 L -384.12298583984375 61.30400085449217 L -384.1189880371094 61.354999542236314 L -384.1130065917969 61.405998229980455 L -384.10833740234375 61.43999862670897 L -384.1059875488281 61.45700073242186 L -384.09698486328125 61.507999420166 L -384.08599853515625 61.55799865722655 L -384.0740051269531 61.60800170898436 L -384.05999755859375 61.65800094604491 L -384.0450134277344 61.70700073242186 L -384.02801513671875 61.756000518798814 L -384.0090026855469 61.80400085449217 L -384 61.82559967041014 L -383.989013671875 61.85200119018553 L -383.9670104980469 61.90000152587889 L -383.9429931640625 61.9459991455078 L -383.9397277832031 61.951999664306626 L -383.9179992675781 61.99200057983397 L -383.8909912109375 62.037998199462876 L -383.86199951171875 62.083000183105455 L -383.8320007324219 62.12699890136717 L -383.8009948730469 62.1699981689453 L -383.7669982910156 62.212001800537095 L -383.73199462890625 62.254001617431626 L -383.6960144042969 62.293998718261705 L -383.6570129394531 62.33399963378905 M -382.17498779296875 45.44900131225585 L -384.1260070800781 45.44900131225585 L -388.1780090332031 45.44900131225585 L -388.1780090332031 56.45100021362303 L -384.1260070800781 56.45100021362303 L -382.17498779296875 56.45100021362303 L -382.17498779296875 45.44900131225585 M -380.04901123046875 62.80199813842772 L -380.04901123046875 63.45299911499022 L -377.5480041503906 63.45299911499022 L -377.5480041503906 38.44800186157226 L -380.04901123046875 38.44800186157226 L -380.04901123046875 62.80199813842772 M -364.99700927734375 0.9980000257492064 L -390.00299072265625 0.9980000257492064 L -390.00299072265625 31.002000808715813 L -364.99700927734375 31.002000808715813 L -364.99700927734375 0.9980000257492064 M -362.8789978027344 70.8980026245117 L -393.00299072265625 70.8980026245117 L -393.00299072265625 101.00299835205075 L -362.8789978027344 101.00299835205075 L -362.8789978027344 70.8980026245117 z" fill="none" stroke="rgb(255,0,0)" stroke-width="0.001mm" />
</svg>