<?xml version="1.0" standalone="no"?>
<!DOCTYPE svg PUBLIC "-//W3C//DTD SVG 1.1//EN"
  "http://www.w3.org/Graphics/SVG/1.1/DTD/svg11.dtd">
<svg width="95.95500183105469mm" height="132.97799682617185mm" viewBox="-136.9550018310547 -239.99999999999994 95.95500183105469 132.97799682617185" xmlns="http://www.w3.org/2000/svg" version="1.1">
	<title>svgOutput</title>
	<desc>made with tinkercad</desc>
<path d="M -42 -204.01699829101557 L -42 -192.02299499511713 L -44.749000549316406 -192.02299499511713 L -132.95599365234375 -192.02299499511713 L -135.9550018310547 -192.02299499511713 L -135.9550018310547 -205.990005493164 L -135.9550018310547 -208.990005493164 L -135.9550018310547 -232.97573852539057 L -135.9550018310547 -232.99999999999994 L -135.9550018310547 -236.00100708007807 L -135.9550018310547 -238.99999999999994 L -126.95500183105469 -238.99999999999994 L -101.95500183105469 -238.99999999999994 L -95.95500183105469 -238.99999999999994 L -72.9990005493164 -238.99999999999994 L -72.95500183105469 -238.99999999999994 L -44.749000549316406 -238.99999999999994 L -44.749000549316406 -236.00100708007807 L -72.95500183105469 -236.00100708007807 L -72.9990005493164 -236.00100708007807 L -95.95500183105469 -236.00100708007807 L -101.95500183105469 -236.00100708007807 L -126.95500183105469 -236.00100708007807 L -132.95599365234375 -236.00100708007807 L -132.95599365234375 -232.99999999999994 L -132.95599365234375 -232.97689819335932 L -132.95599365234375 -208.990005493164 L -132.95599365234375 -205.990005493164 L -132.95599365234375 -195.02099609374994 L -44.999000549316406 -195.02099609374994 L -44.999000549316406 -204.01699829101557 L -44.749000549316406 -204.01699829101557 L -42 -204.01699829101557 M -79.95500183105469 -108.0220031738281 L -79.95500183105469 -186.0220031738281 L -132.9550018310547 -186.0220031738281 L -132.9550018310547 -108.0220031738281 L -135.9550018310547 -108.0220031738281 L -135.9550018310547 -189.02299499511716 L -132.9550018310547 -189.02299499511716 L -76.95500183105469 -189.02299499511716 L -76.95500183105469 -186.0220031738281 L -76.95500183105469 -108.0220031738281 L -79.95500183105469 -108.0220031738281 M -72.9990005493164 -230.00100708007807 L -95.95500183105469 -229.990005493164 L -95.95500183105469 -208.990005493164 L -72.95500183105469 -208.990005493164 L -72.95500183105469 -205.990005493164 L -98.95500183105469 -205.990005493164 L -98.95500183105469 -208.990005493164 L -98.95500183105469 -213.99999999999994 L -98.95500183105469 -229.99999999999994 L -98.95500183105469 -232.990005493164 L -95.95500183105469 -232.9911499023437 L -72.9990005493164 -232.99999999999994 L -72.9990005493164 -230.00100708007807 M -104.95500183105469 -213.99999999999994 L -104.95500183105469 -229.99999999999994 L -126.95500183105469 -229.99999999999994 L -126.95500183105469 -213.99999999999994 L -129.9550018310547 -213.99999999999994 L -129.9550018310547 -232.97805786132807 L -129.9550018310547 -232.99999999999994 L -126.95500183105469 -232.99999999999994 L -101.95500183105469 -232.99999999999994 L -101.95500183105469 -232.98884582519526 L -101.95500183105469 -229.99999999999994 L -101.95500183105469 -213.99999999999994 L -104.95500183105469 -213.99999999999994 z" fill="none" stroke="rgb(255,0,0)" stroke-width="0.001mm" />
</svg>