<?xml version="1.0" standalone="no"?>
<!DOCTYPE svg PUBLIC "-//W3C//DTD SVG 1.1//EN"
  "http://www.w3.org/Graphics/SVG/1.1/DTD/svg11.dtd">
<svg width="243mm" height="151.99999999999997mm" viewBox="-237 -128.99999999999997 243 151.99999999999997" xmlns="http://www.w3.org/2000/svg" version="1.1">
	<title>svgOutput</title>
	<desc>made with tinkercad</desc>
<path d="M -236 -67.9970016479492 L -232.9980010986328 -67.9970016479492 L -232.9980010986328 -73.9980010986328 L -232.9980010986328 -79.9970016479492 L -232.9980010986328 -93.9970016479492 L -232.9980010986328 -108.00199890136716 L -233.0019989013672 -108.00199890136716 L -236 -108.00199890136716 L -236 -118.00099945068357 L -233.0019989013672 -120.99900054931638 L -232.9980010986328 -121.00299835205075 L -231.0030059814453 -122.99800109863278 L -230.9969940185547 -123.00399780273435 L -228.9980010986328 -125.00299835205075 L -226.00100708007812 -127.99999999999997 L -193.0030059814453 -127.99999999999997 L -161.9969940185547 -127.99999999999997 L -126.0009994506836 -127.99999999999997 L -125.99700164794922 -127.9960021972656 L -123.00299835205078 -125.00199890136716 L -123.00199890136719 -125.00099945068357 L -121.00299835205078 -123.00199890136716 L -118.99800109863281 -120.99700164794919 L -116 -117.99900054931638 L -116 -108.00199890136716 L -118.99800109863281 -108.00199890136716 L -119.00299835205078 -108.00199890136716 L -119.00299835205078 -96.00199890136716 L -119.00299835205078 -67.9970016479492 L -118.99800109863281 -67.9970016479492 L -116 -67.9970016479492 L -116 11.999999999999996 L -118.99800109863281 14.998000144958493 L -120.00299835205078 16.00300025939941 L -126 21.999999999999996 L -161.9969940185547 21.999999999999996 L -186.97300720214844 21.999999999999996 L -193.0030059814453 21.999999999999996 L -226.00100708007812 21.999999999999996 L -230.9969940185547 17.003999710083004 L -233.0019989013672 14.998999595642086 L -236 12.001000404357907 L -236 2.0030000209808345 L -236 -28.003000259399407 L -236 -67.9970016479492 M -155.6479949951172 -106.00399780273435 L -161.9969940185547 -106.00399780273435 L -163.83999633789062 -106.00399780273435 L -165.50100708007812 -106.00399780273435 L -165.50100708007812 -100.99999999999997 L -163.83999633789062 -100.99999999999997 L -161.9969940185547 -100.99999999999997 L -155.6479949951172 -100.99999999999997 L -152.50399780273438 -100.99999999999997 L -152.50399780273438 -106.00399780273435 L -155.6479949951172 -106.00399780273435 M -115 -118.00099945068357 L -112.00199890136719 -120.99900054931638 L -110.00299835205078 -122.99800109863278 L -109.99700164794922 -123.00399780273435 L -106.99800109863281 -126.00299835205075 L -105.0009994506836 -127.99999999999997 L -95.09500122070312 -127.99999999999997 L -95.00299835205078 -127.99999999999997 L -88.99800109863281 -127.99999999999997 L -82.83999633789062 -127.99999999999997 L -70.50199890136719 -127.99999999999997 L -65.49700164794922 -127.99999999999997 L -60.00299835205078 -127.99999999999997 L -60.00299835205078 -70.9970016479492 L -49.99800109863281 -70.9970016479492 L -49.99800109863281 -127.99999999999997 L -4.999000072479248 -127.99999999999997 L -0.003000000026077032 -123.00399780273435 L 2.003000020980835 -120.99800109863278 L 5 -118.00099945068357 L 5 11.999999999999996 L 2.003000020980835 14.996999740600582 L -0.003000000026077032 17.00300025939941 L -5 21.999999999999996 L -88.99800109863281 21.999999999999996 L -91.16799926757812 21.999999999999996 L -91.84300231933594 21.999999999999996 L -94.79399871826172 21.999999999999996 L -95.00299835205078 21.999999999999996 L -95.09500122070312 21.999999999999996 L -105.0009994506836 21.999999999999996 L -106.99800109863281 20.00300025939941 L -109.99700164794922 17.003999710083004 L -110.00299835205078 16.997999191284176 L -112.00199890136719 14.998999595642086 L -115 12.001000404357907 L -115 -118.00099945068357 M -227.9980010986328 -0.6480000019073484 L -227.9980010986328 -3.6480000019073477 L -231.0030059814453 -3.6480000019073477 L -231.0030059814453 -0.6480000019073484 L -231.0030059814453 1.8530000448226924 L -227.9980010986328 1.8530000448226924 L -227.9980010986328 -0.6480000019073484 M -181.2169952392578 -100.19000244140622 L -181.17100524902344 -100.17400360107419 L -181.125 -100.15899658203122 L -181.0780029296875 -100.1460037231445 L -181.031005859375 -100.13500213623044 L -180.98399353027344 -100.12499999999997 L -180.93699645996094 -100.11699676513669 L -180.88900756835938 -100.11000061035153 L -180.8419952392578 -100.10399627685544 L -180.76199340820312 -100.09899902343747 L -180.74600219726562 -100.09799957275388 L -180.73599243164062 -100.09799957275388 L -180.64999389648438 -100.09799957275388 L -180.63400268554688 -100.09899902343747 L -180.5540008544922 -100.10399627685544 L -180.50599670410156 -100.11000061035153 L -180.45899963378906 -100.11699676513669 L -180.41099548339844 -100.12499999999997 L -180.36399841308594 -100.13500213623044 L -180.31700134277344 -100.1460037231445 L -180.27099609375 -100.15899658203122 L -180.2239990234375 -100.17400360107419 L -180.1790008544922 -100.19000244140622 L -180.13299560546875 -100.20700073242185 L -180.08799743652344 -100.22699737548825 L -180.04400634765625 -100.24700164794919 L -180 -100.26899719238278 L -179.95700073242188 -100.2929992675781 L -179.91400146484375 -100.318000793457 L -179.8719940185547 -100.3450012207031 L -179.86175537109375 -100.35199737548825 L -179.83099365234375 -100.37300109863278 L -179.7899932861328 -100.40299987792966 L -179.75100708007812 -100.43399810791013 L -179.71200561523438 -100.46700286865232 L -179.6739959716797 -100.50099945068357 L -179.63699340820312 -100.53700256347653 L -179.6009979248047 -100.57399749755857 L -179.56700134277344 -100.61199951171872 L -179.53399658203125 -100.65100097656247 L -179.5030059814453 -100.69100189208982 L -179.47300720214844 -100.73200225830075 L -179.44500732421875 -100.77300262451169 L -179.41799926757812 -100.81500244140622 L -179.39300537109375 -100.85700225830075 L -179.38917541503906 -100.86399841308591 L -179.36900329589844 -100.90100097656247 L -179.3470001220703 -100.94499969482419 L -179.3260040283203 -100.98899841308591 L -179.3070068359375 -101.03399658203122 L -179.2899932861328 -101.07900238037107 L -179.2740020751953 -101.12499999999997 L -179.25900268554688 -101.17099761962888 L -179.24600219726562 -101.21800231933591 L -179.23500061035156 -101.26499938964841 L -179.22500610351562 -101.31199645996091 L -179.21600341796875 -101.36000061035153 L -179.21395874023438 -101.37599945068357 L -179.2100067138672 -101.40699768066403 L -179.20399475097656 -101.45500183105466 L -179.1999969482422 -101.50299835205075 L -179.197998046875 -101.55100250244138 L -179.19700622558594 -101.59899902343747 L -179.197998046875 -101.6470031738281 L -179.1999969482422 -101.69499969482419 L -179.20399475097656 -101.74299621582028 L -179.2100067138672 -101.79100036621091 L -179.21600341796875 -101.83799743652341 L -179.22500610351562 -101.88600158691403 L -179.2254180908203 -101.88800048828122 L -179.23500061035156 -101.93299865722653 L -179.24600219726562 -101.98000335693357 L -179.25900268554688 -102.02600097656247 L -179.2740020751953 -102.07299804687497 L -179.2899932861328 -102.11799621582028 L -179.3070068359375 -102.16400146484372 L -179.3260040283203 -102.20899963378903 L -179.3470001220703 -102.25299835205075 L -179.36900329589844 -102.29699707031247 L -179.39300537109375 -102.3399963378906 L -179.41799926757812 -102.38300323486325 L -179.42892456054688 -102.40000152587888 L -179.44500732421875 -102.42500305175778 L -179.47300720214844 -102.46600341796872 L -179.5030059814453 -102.50700378417966 L -179.53399658203125 -102.54599761962888 L -179.56700134277344 -102.58499908447263 L -179.6009979248047 -102.62300109863278 L -179.63699340820312 -102.66000366210935 L -179.6739959716797 -102.69599914550778 L -179.71200561523438 -102.73100280761716 L -179.7899932861328 -102.79499816894528 L -179.83099365234375 -102.82499694824216 L -179.8719940185547 -102.85299682617185 L -179.91400146484375 -102.87999725341794 L -179.95700073242188 -102.90499877929685 L -180 -102.92800140380857 L -180.04400634765625 -102.95099639892575 L -180.08799743652344 -102.97100067138669 L -180.13299560546875 -102.9899978637695 L -180.1790008544922 -103.00800323486325 L -180.2239990234375 -103.02400207519528 L -180.27099609375 -103.03800201416013 L -180.31700134277344 -103.05100250244138 L -180.36399841308594 -103.06300354003903 L -180.41099548339844 -103.07299804687497 L -180.45899963378906 -103.08100128173825 L -180.50599670410156 -103.08799743652341 L -180.5540008544922 -103.09300231933591 L -180.6020050048828 -103.09700012207028 L -180.64999389648438 -103.09899902343747 L -180.697998046875 -103.09999847412107 L -180.73599243164062 -103.09920501708982 L -180.74600219726562 -103.09899902343747 L -180.79400634765625 -103.09700012207028 L -180.8419952392578 -103.09300231933591 L -180.88900756835938 -103.08799743652341 L -180.93699645996094 -103.08100128173825 L -180.98399353027344 -103.07299804687497 L -181.031005859375 -103.06300354003903 L -181.0780029296875 -103.05100250244138 L -181.125 -103.03800201416013 L -181.17100524902344 -103.02400207519528 L -181.2169952392578 -103.00800323486325 L -181.2480010986328 -102.99559783935544 L -181.26199340820312 -102.9899978637695 L -181.3070068359375 -102.97100067138669 L -181.34532165527344 -102.95396423339841 L -181.3520050048828 -102.95099639892575 L -181.39500427246094 -102.92800140380857 L -181.43899536132812 -102.90499877929685 L -181.4810028076172 -102.87999725341794 L -181.5229949951172 -102.85299682617185 L -181.56399536132812 -102.82499694824216 L -181.60499572753906 -102.79499816894528 L -181.64500427246094 -102.76300048828122 L -181.6840057373047 -102.73100280761716 L -181.7220001220703 -102.69599914550778 L -181.75900268554688 -102.66000366210935 L -181.75999450683594 -102.6589431762695 L -181.79400634765625 -102.62300109863278 L -181.82899475097656 -102.58499908447263 L -181.86199951171875 -102.54599761962888 L -181.89300537109375 -102.50700378417966 L -181.92300415039062 -102.46600341796872 L -181.9510040283203 -102.42500305175778 L -181.96707153320312 -102.40000152587888 L -181.97799682617188 -102.38300323486325 L -182.0030059814453 -102.3399963378906 L -182.0260009765625 -102.29699707031247 L -182.0489959716797 -102.25299835205075 L -182.06900024414062 -102.20899963378903 L -182.08799743652344 -102.16400146484372 L -182.1060028076172 -102.11799621582028 L -182.1219940185547 -102.07299804687497 L -182.13600158691406 -102.02600097656247 L -182.1490020751953 -101.98000335693357 L -182.16099548339844 -101.93299865722653 L -182.1705780029297 -101.88800048828122 L -182.17100524902344 -101.88600158691403 L -182.1790008544922 -101.83799743652341 L -182.18600463867188 -101.79100036621091 L -182.1909942626953 -101.74299621582028 L -182.19500732421875 -101.69499969482419 L -182.19700622558594 -101.6470031738281 L -182.197998046875 -101.59899902343747 L -182.19700622558594 -101.55100250244138 L -182.19500732421875 -101.50299835205075 L -182.1909942626953 -101.45500183105466 L -182.18600463867188 -101.40699768066403 L -182.18138122558594 -101.37599945068357 L -182.1790008544922 -101.36000061035153 L -182.17100524902344 -101.31199645996091 L -182.16099548339844 -101.26499938964841 L -182.1490020751953 -101.21800231933591 L -182.13600158691406 -101.17099761962888 L -182.1219940185547 -101.12499999999997 L -182.1060028076172 -101.07900238037107 L -182.08799743652344 -101.03399658203122 L -182.06900024414062 -100.98899841308591 L -182.0489959716797 -100.94499969482419 L -182.00665283203125 -100.86399841308591 L -182.0030059814453 -100.85700225830075 L -181.97799682617188 -100.81500244140622 L -181.9510040283203 -100.77300262451169 L -181.92300415039062 -100.73200225830075 L -181.89300537109375 -100.69100189208982 L -181.86199951171875 -100.65100097656247 L -181.82899475097656 -100.61199951171872 L -181.79400634765625 -100.57399749755857 L -181.75999450683594 -100.53805541992185 L -181.75900268554688 -100.53700256347653 L -181.7220001220703 -100.50099945068357 L -181.6840057373047 -100.46700286865232 L -181.64500427246094 -100.43399810791013 L -181.60499572753906 -100.40299987792966 L -181.56399536132812 -100.37300109863278 L -181.5332489013672 -100.35199737548825 L -181.5229949951172 -100.3450012207031 L -181.4810028076172 -100.318000793457 L -181.43899536132812 -100.2929992675781 L -181.39500427246094 -100.26899719238278 L -181.3520050048828 -100.24700164794919 L -181.26199340820312 -100.20700073242185 L -181.2480010986328 -100.20171356201169 L -181.2169952392578 -100.19000244140622 M -172.04200744628906 -100.2929992675781 L -172.03199768066406 -100.28742218017575 L -171.99899291992188 -100.26899719238278 L -171.9550018310547 -100.24700164794919 L -171.91000366210938 -100.22699737548825 L -171.86500549316406 -100.20800018310544 L -171.82000732421875 -100.19000244140622 L -171.7740020751953 -100.17400360107419 L -171.72799682617188 -100.15899658203122 L -171.68099975585938 -100.1460037231445 L -171.63400268554688 -100.13500213623044 L -171.58700561523438 -100.12499999999997 L -171.5399932861328 -100.11699676513669 L -171.52000427246094 -100.11408233642575 L -171.49200439453125 -100.11000061035153 L -171.44400024414062 -100.10399627685544 L -171.36399841308594 -100.09899902343747 L -171.34800720214844 -100.09799957275388 L -171.2519989013672 -100.09799957275388 L -171.23599243164062 -100.09899902343747 L -171.156005859375 -100.10399627685544 L -171.10800170898438 -100.11000061035153 L -171.06100463867188 -100.11699676513669 L -171.01300048828125 -100.12499999999997 L -171.00799560546875 -100.12606048583982 L -170.96600341796875 -100.13500213623044 L -170.91900634765625 -100.1460037231445 L -170.8719940185547 -100.15899658203122 L -170.8260040283203 -100.17400360107419 L -170.77999877929688 -100.19000244140622 L -170.73500061035156 -100.20800018310544 L -170.69000244140625 -100.22699737548825 L -170.64500427246094 -100.24700164794919 L -170.6009979248047 -100.26899719238278 L -170.55799865722656 -100.2929992675781 L -170.51499938964844 -100.318000793457 L -170.47300720214844 -100.3450012207031 L -170.46275329589844 -100.35199737548825 L -170.4320068359375 -100.37300109863278 L -170.39100646972656 -100.40299987792966 L -170.3520050048828 -100.43399810791013 L -170.31300354003906 -100.46700286865232 L -170.27499389648438 -100.50199890136716 L -170.23800659179688 -100.53800201416013 L -170.20199584960938 -100.57499694824216 L -170.17160034179688 -100.60800170898435 L -170.16700744628906 -100.61299896240232 L -170.13400268554688 -100.65200042724607 L -170.10299682617188 -100.69100189208982 L -170.072998046875 -100.73200225830075 L -170.0449981689453 -100.77300262451169 L -170.01800537109375 -100.81500244140622 L -169.9929962158203 -100.85800170898435 L -169.98965454101562 -100.86399841308591 L -169.98399353027344 -100.87412261962888 L -169.968994140625 -100.90100097656247 L -169.94700622558594 -100.94499969482419 L -169.927001953125 -100.9899978637695 L -169.9080047607422 -101.03500366210935 L -169.88999938964844 -101.08000183105466 L -169.87399291992188 -101.12599945068357 L -169.85899353027344 -101.17199707031247 L -169.8459930419922 -101.2190017700195 L -169.8350067138672 -101.265998840332 L -169.8249969482422 -101.31300354003903 L -169.81700134277344 -101.36100006103513 L -169.8147735595703 -101.37599945068357 L -169.80999755859375 -101.40799713134763 L -169.8040008544922 -101.45600128173825 L -169.79800415039062 -101.55200195312497 L -169.79800415039062 -101.64800262451169 L -169.8040008544922 -101.74400329589841 L -169.80999755859375 -101.7919998168945 L -169.81700134277344 -101.8399963378906 L -169.8249969482422 -101.88700103759763 L -169.82521057128906 -101.88800048828122 L -169.8350067138672 -101.93399810791013 L -169.8459930419922 -101.98100280761716 L -169.85899353027344 -102.02799987792966 L -169.87399291992188 -102.07399749755857 L -169.88999938964844 -102.120002746582 L -169.9080047607422 -102.16500091552732 L -169.927001953125 -102.20999908447263 L -169.94700622558594 -102.25499725341794 L -169.968994140625 -102.29900360107419 L -169.98399353027344 -102.32587432861325 L -169.9929962158203 -102.34200286865232 L -170.01800537109375 -102.38500213623044 L -170.02764892578125 -102.40000152587888 L -170.0449981689453 -102.42700195312497 L -170.072998046875 -102.46800231933591 L -170.10299682617188 -102.50900268554685 L -170.13400268554688 -102.54799652099607 L -170.16700744628906 -102.58699798583982 L -170.20199584960938 -102.62499999999997 L -170.23800659179688 -102.66300201416013 L -170.27499389648438 -102.69799804687497 L -170.31300354003906 -102.73300170898435 L -170.3520050048828 -102.765998840332 L -170.39100646972656 -102.79699707031247 L -170.4320068359375 -102.82700347900388 L -170.47300720214844 -102.85500335693357 L -170.49600219726562 -102.86978912353513 L -170.51499938964844 -102.88200378417966 L -170.55799865722656 -102.90699768066403 L -170.6009979248047 -102.93099975585935 L -170.64500427246094 -102.95300292968747 L -170.73500061035156 -102.99299621582028 L -170.77999877929688 -103.01000213623044 L -170.8260040283203 -103.02600097656247 L -170.8719940185547 -103.04100036621091 L -170.91900634765625 -103.05400085449216 L -170.96600341796875 -103.06500244140622 L -171.00799560546875 -103.07393646240232 L -171.01300048828125 -103.07499694824216 L -171.06100463867188 -103.08399963378903 L -171.10800170898438 -103.0899963378906 L -171.156005859375 -103.09600067138669 L -171.20399475097656 -103.09999847412107 L -171.2519989013672 -103.10199737548825 L -171.3000030517578 -103.10299682617185 L -171.34800720214844 -103.10199737548825 L -171.39599609375 -103.09999847412107 L -171.44400024414062 -103.09600067138669 L -171.52000427246094 -103.08650207519528 L -171.5399932861328 -103.08399963378903 L -171.58700561523438 -103.07499694824216 L -171.63400268554688 -103.06500244140622 L -171.68099975585938 -103.05400085449216 L -171.72799682617188 -103.04100036621091 L -171.7740020751953 -103.02600097656247 L -171.82000732421875 -103.01000213623044 L -171.86500549316406 -102.99299621582028 L -171.9550018310547 -102.95300292968747 L -171.99899291992188 -102.93099975585935 L -172.03199768066406 -102.91258239746091 L -172.0330352783203 -102.91200256347653 L -172.04200744628906 -102.90699768066403 L -172.0850067138672 -102.88200378417966 L -172.1269989013672 -102.85500335693357 L -172.16799926757812 -102.82700347900388 L -172.20899963378906 -102.79699707031247 L -172.2480010986328 -102.765998840332 L -172.28700256347656 -102.73300170898435 L -172.36300659179688 -102.66300201416013 L -172.36944580078125 -102.65599822998044 L -172.43299865722656 -102.58699798583982 L -172.46600341796875 -102.54799652099607 L -172.4969940185547 -102.50900268554685 L -172.52699279785156 -102.46800231933591 L -172.54400634765625 -102.44310760498044 L -172.55499267578125 -102.42700195312497 L -172.57235717773438 -102.40000152587888 L -172.58200073242188 -102.38500213623044 L -172.60699462890625 -102.34200286865232 L -172.63099670410156 -102.29900360107419 L -172.6529998779297 -102.25499725341794 L -172.6929931640625 -102.16500091552732 L -172.7100067138672 -102.120002746582 L -172.7259979248047 -102.07399749755857 L -172.74099731445312 -102.02799987792966 L -172.75399780273438 -101.98100280761716 L -172.76499938964844 -101.93399810791013 L -172.7747802734375 -101.88800048828122 L -172.77499389648438 -101.88700103759763 L -172.78399658203125 -101.8399963378906 L -172.79600524902344 -101.74400329589841 L -172.8000030517578 -101.69599914550778 L -172.802001953125 -101.64800262451169 L -172.80299377441406 -101.59999847412107 L -172.802001953125 -101.55200195312497 L -172.8000030517578 -101.50399780273435 L -172.79600524902344 -101.45600128173825 L -172.7899932861328 -101.40799713134763 L -172.78591918945312 -101.37599945068357 L -172.78399658203125 -101.36100006103513 L -172.77499389648438 -101.31300354003903 L -172.76499938964844 -101.265998840332 L -172.75399780273438 -101.2190017700195 L -172.74099731445312 -101.17199707031247 L -172.7259979248047 -101.12599945068357 L -172.7100067138672 -101.08000183105466 L -172.6929931640625 -101.03500366210935 L -172.6529998779297 -100.94499969482419 L -172.63099670410156 -100.90100097656247 L -172.6103515625 -100.86399841308591 L -172.60699462890625 -100.85800170898435 L -172.58200073242188 -100.81500244140622 L -172.55499267578125 -100.77300262451169 L -172.54400634765625 -100.75688934326169 L -172.52699279785156 -100.73200225830075 L -172.4969940185547 -100.69100189208982 L -172.46600341796875 -100.65200042724607 L -172.43299865722656 -100.61299896240232 L -172.3979949951172 -100.57499694824216 L -172.36300659179688 -100.53800201416013 L -172.3249969482422 -100.50199890136716 L -172.28700256347656 -100.46700286865232 L -172.2480010986328 -100.43399810791013 L -172.20899963378906 -100.40299987792966 L -172.16799926757812 -100.37300109863278 L -172.1372528076172 -100.35199737548825 L -172.1269989013672 -100.3450012207031 L -172.0850067138672 -100.318000793457 L -172.04200744628906 -100.2929992675781 M -193.0030059814453 -92.00299835205077 L -193.0030059814453 -89.00199890136717 L -161.9969940185547 -89.00199890136717 L -161.9969940185547 -92.00299835205077 L -182.197998046875 -92.00299835205077 L -193.0030059814453 -92.00299835205077 M -186.2519989013672 -119.99800109863278 L -185.5019989013672 -119.99800109863278 L -185.5019989013672 -123.00299835205075 L -186.2519989013672 -123.00299835205075 L -191.0030059814453 -123.00299835205075 L -191.0030059814453 -119.99800109863278 L -186.2519989013672 -119.99800109863278 M -161.9969940185547 -115.00199890136716 L -193.0030059814453 -115.00199890136716 L -202 -115.00199890136716 L -216.0030059814453 -115.00199890136716 L -216.0030059814453 -110.99700164794919 L -206.80099487304688 -110.99700164794919 L -193.0030059814453 -110.99700164794919 L -186.5 -110.99700164794919 L -182.197998046875 -110.99700164794919 L -179.19700622558594 -110.99700164794919 L -172.80299377441406 -110.99700164794919 L -169.79800415039062 -110.99700164794919 L -165.50100708007812 -110.99700164794919 L -161.9969940185547 -110.99700164794919 L -145.1999969482422 -110.99700164794919 L -135.9980010986328 -110.99700164794919 L -135.9980010986328 -115.00199890136716 L -156 -115.00199890136716 L -161.9969940185547 -115.00199890136716 M -233.0019989013672 -112.99700164794919 L -232.9980010986328 -112.99700164794919 L -231.0030059814453 -112.99700164794919 L -230.9969940185547 -112.99700164794919 L -230.9969940185547 -115.00199890136716 L -231.0030059814453 -115.00199890136716 L -232.9980010986328 -115.00199890136716 L -233.0019989013672 -115.00199890136716 L -233.0019989013672 -112.99700164794919 M -205.86500549316406 -100.20899963378903 L -205.82400512695312 -100.19295501708982 L -205.81900024414062 -100.19100189208982 L -205.7740020751953 -100.17500305175778 L -205.7270050048828 -100.16100311279294 L -205.68099975585938 -100.14800262451169 L -205.63400268554688 -100.13600158691403 L -205.58700561523438 -100.12599945068357 L -205.53900146484375 -100.11799621582028 L -205.49200439453125 -100.11100006103513 L -205.44400024414062 -100.10600280761716 L -205.39599609375 -100.10199737548825 L -205.34800720214844 -100.09999847412107 L -205.31199645996094 -100.099250793457 L -205.3000030517578 -100.09899902343747 L -205.2519989013672 -100.09999847412107 L -205.20399475097656 -100.10199737548825 L -205.156005859375 -100.10600280761716 L -205.10899353027344 -100.11100006103513 L -205.06100463867188 -100.11799621582028 L -205.01400756835938 -100.12599945068357 L -204.96600341796875 -100.13600158691403 L -204.9199981689453 -100.14800262451169 L -204.8730010986328 -100.16100311279294 L -204.82699584960938 -100.17500305175778 L -204.8000030517578 -100.18439483642575 L -204.781005859375 -100.19100189208982 L -204.73599243164062 -100.20899963378903 L -204.6909942626953 -100.22799682617185 L -204.64599609375 -100.24800109863278 L -204.60299682617188 -100.2710037231445 L -204.5590057373047 -100.29399871826169 L -204.55014038085938 -100.29927825927732 L -204.51699829101562 -100.3190002441406 L -204.47500610351562 -100.34600067138669 L -204.46600341796875 -100.35199737548825 L -204.43299865722656 -100.37400054931638 L -204.39300537109375 -100.40399932861325 L -204.35299682617188 -100.43499755859372 L -204.31399536132812 -100.46800231933591 L -204.28799438476562 -100.4919509887695 L -204.2760009765625 -100.50299835205075 L -204.23899841308594 -100.53800201416013 L -204.2030029296875 -100.57599639892575 L -204.16900634765625 -100.61399841308591 L -204.13600158691406 -100.65299987792966 L -204.10499572753906 -100.69200134277341 L -204.0749969482422 -100.73300170898435 L -204.0469970703125 -100.77400207519528 L -204.02000427246094 -100.81600189208982 L -203.9949951171875 -100.85900115966794 L -203.99232482910156 -100.86399841308591 L -203.9720001220703 -100.90200042724607 L -203.94900512695312 -100.94599914550778 L -203.9290008544922 -100.9899978637695 L -203.91000366210938 -101.03500366210935 L -203.89199829101562 -101.08100128173825 L -203.87600708007812 -101.12599945068357 L -203.86199951171875 -101.17299652099607 L -203.8489990234375 -101.2190017700195 L -203.83700561523438 -101.265998840332 L -203.82699584960938 -101.31300354003903 L -203.81900024414062 -101.36100006103513 L -203.8167724609375 -101.37599945068357 L -203.81199645996094 -101.40799713134763 L -203.8070068359375 -101.45600128173825 L -203.80299377441406 -101.50399780273435 L -203.80099487304688 -101.55200195312497 L -203.8000030517578 -101.59999847412107 L -203.80099487304688 -101.64800262451169 L -203.80299377441406 -101.69599914550778 L -203.8070068359375 -101.74400329589841 L -203.81199645996094 -101.7919998168945 L -203.81900024414062 -101.838996887207 L -203.82699584960938 -101.88700103759763 L -203.82720947265625 -101.88800048828122 L -203.83700561523438 -101.93399810791013 L -203.8489990234375 -101.98100280761716 L -203.86199951171875 -102.02799987792966 L -203.87600708007812 -102.07399749755857 L -203.89199829101562 -102.120002746582 L -203.91000366210938 -102.16500091552732 L -203.9290008544922 -102.20999908447263 L -203.94900512695312 -102.25399780273435 L -203.9949951171875 -102.34200286865232 L -204.02000427246094 -102.38400268554685 L -204.03028869628906 -102.40000152587888 L -204.0469970703125 -102.42600250244138 L -204.0749969482422 -102.46700286865232 L -204.10499572753906 -102.50800323486325 L -204.13600158691406 -102.54799652099607 L -204.16900634765625 -102.58699798583982 L -204.2030029296875 -102.62499999999997 L -204.23899841308594 -102.66200256347653 L -204.2760009765625 -102.69799804687497 L -204.28799438476562 -102.70874023437497 L -204.31399536132812 -102.73200225830075 L -204.35299682617188 -102.76499938964841 L -204.39300537109375 -102.79599761962888 L -204.43299865722656 -102.82599639892575 L -204.47500610351562 -102.85399627685544 L -204.51699829101562 -102.88099670410153 L -204.5590057373047 -102.90599822998044 L -204.57000732421875 -102.91200256347653 L -204.60299682617188 -102.93000030517575 L -204.64599609375 -102.95200347900388 L -204.6909942626953 -102.97200012207028 L -204.73599243164062 -102.9909973144531 L -204.781005859375 -103.00900268554685 L -204.8000030517578 -103.01560974121091 L -204.82699584960938 -103.02500152587888 L -204.8730010986328 -103.04000091552732 L -204.9199981689453 -103.05300140380857 L -204.96600341796875 -103.06400299072263 L -205.01400756835938 -103.07399749755857 L -205.06100463867188 -103.08200073242185 L -205.10899353027344 -103.088996887207 L -205.156005859375 -103.0940017700195 L -205.20399475097656 -103.09799957275388 L -205.2519989013672 -103.10099792480466 L -205.31199645996094 -103.10099792480466 L -205.34800720214844 -103.10099792480466 L -205.39599609375 -103.09799957275388 L -205.44400024414062 -103.0940017700195 L -205.49200439453125 -103.088996887207 L -205.53900146484375 -103.08200073242185 L -205.58700561523438 -103.07399749755857 L -205.63400268554688 -103.06400299072263 L -205.68099975585938 -103.05300140380857 L -205.7270050048828 -103.04000091552732 L -205.7740020751953 -103.02500152587888 L -205.81900024414062 -103.00900268554685 L -205.82400512695312 -103.00704193115232 L -205.86500549316406 -102.9909973144531 L -205.91000366210938 -102.97200012207028 L -205.95399475097656 -102.95200347900388 L -205.9980010986328 -102.93000030517575 L -206.03024291992188 -102.91200256347653 L -206.04100036621094 -102.90599822998044 L -206.08399963378906 -102.88099670410153 L -206.12600708007812 -102.85399627685544 L -206.16700744628906 -102.82599639892575 L -206.20700073242188 -102.79599761962888 L -206.2469940185547 -102.76499938964841 L -206.28599548339844 -102.73200225830075 L -206.32400512695312 -102.69799804687497 L -206.33599853515625 -102.68632507324216 L -206.36099243164062 -102.66200256347653 L -206.39700317382812 -102.62499999999997 L -206.43099975585938 -102.58699798583982 L -206.46400451660156 -102.54799652099607 L -206.4949951171875 -102.50800323486325 L -206.52499389648438 -102.46700286865232 L -206.55299377441406 -102.42600250244138 L -206.56971740722656 -102.40000152587888 L -206.5800018310547 -102.38400268554685 L -206.60499572753906 -102.34200286865232 L -206.62899780273438 -102.29799652099607 L -206.6510009765625 -102.25399780273435 L -206.6719970703125 -102.20999908447263 L -206.6909942626953 -102.16500091552732 L -206.70799255371094 -102.120002746582 L -206.7239990234375 -102.07399749755857 L -206.73899841308594 -102.02799987792966 L -206.7519989013672 -101.98100280761716 L -206.76300048828125 -101.93399810791013 L -206.7727813720703 -101.88800048828122 L -206.7729949951172 -101.88700103759763 L -206.781005859375 -101.838996887207 L -206.78799438476562 -101.7919998168945 L -206.79400634765625 -101.74400329589841 L -206.8000030517578 -101.64800262451169 L -206.80099487304688 -101.59999847412107 L -206.8000030517578 -101.55200195312497 L -206.79400634765625 -101.45600128173825 L -206.78799438476562 -101.40799713134763 L -206.78323364257812 -101.37599945068357 L -206.781005859375 -101.36100006103513 L -206.7729949951172 -101.31300354003903 L -206.76300048828125 -101.265998840332 L -206.7519989013672 -101.2190017700195 L -206.73899841308594 -101.17299652099607 L -206.7239990234375 -101.12599945068357 L -206.70799255371094 -101.08100128173825 L -206.6909942626953 -101.03500366210935 L -206.6719970703125 -100.9899978637695 L -206.6510009765625 -100.94599914550778 L -206.62899780273438 -100.90200042724607 L -206.6077880859375 -100.86399841308591 L -206.60499572753906 -100.85900115966794 L -206.5800018310547 -100.81600189208982 L -206.55299377441406 -100.77400207519528 L -206.52499389648438 -100.73300170898435 L -206.4949951171875 -100.69200134277341 L -206.46400451660156 -100.65299987792966 L -206.43099975585938 -100.61399841308591 L -206.39700317382812 -100.57599639892575 L -206.36099243164062 -100.53800201416013 L -206.33599853515625 -100.51435089111325 L -206.32400512695312 -100.50299835205075 L -206.28599548339844 -100.46800231933591 L -206.2469940185547 -100.43499755859372 L -206.20700073242188 -100.40399932861325 L -206.16700744628906 -100.37400054931638 L -206.13478088378906 -100.35199737548825 L -206.12600708007812 -100.34600067138669 L -206.08399963378906 -100.3190002441406 L -206.04100036621094 -100.29399871826169 L -205.9980010986328 -100.2710037231445 L -205.95399475097656 -100.24800109863278 L -205.91000366210938 -100.22799682617185 L -205.86500549316406 -100.20899963378903 M -196.60800170898438 -100.99999999999997 L -193.0030059814453 -100.99999999999997 L -186.5 -100.99999999999997 L -186.5 -106.00399780273435 L -193.0030059814453 -106.00399780273435 L -196.60800170898438 -106.00399780273435 L -199.49600219726562 -106.00399780273435 L -199.49600219726562 -100.99999999999997 L -196.60800170898438 -100.99999999999997 M -147.52499389648438 -100.34600067138669 L -147.48399353027344 -100.3190002441406 L -147.45599365234375 -100.30271911621091 L -147.4409942626953 -100.29399871826169 L -147.3979949951172 -100.2710037231445 L -147.35400390625 -100.24800109863278 L -147.3090057373047 -100.22799682617185 L -147.26499938964844 -100.20899963378903 L -147.218994140625 -100.19100189208982 L -147.17300415039062 -100.17500305175778 L -147.1269989013672 -100.16100311279294 L -147.08099365234375 -100.14800262451169 L -147.03399658203125 -100.13600158691403 L -146.98599243164062 -100.12599945068357 L -146.94400024414062 -100.11885070800778 L -146.93899536132812 -100.11799621582028 L -146.89100646972656 -100.11100006103513 L -146.843994140625 -100.10600280761716 L -146.79600524902344 -100.10199737548825 L -146.7480010986328 -100.09999847412107 L -146.6999969482422 -100.09899902343747 L -146.65199279785156 -100.09999847412107 L -146.60400390625 -100.10199737548825 L -146.55599975585938 -100.10600280761716 L -146.50799560546875 -100.11100006103513 L -146.46099853515625 -100.11799621582028 L -146.4320068359375 -100.1228332519531 L -146.41299438476562 -100.12599945068357 L -146.36599731445312 -100.13600158691403 L -146.31900024414062 -100.14800262451169 L -146.2729949951172 -100.16100311279294 L -146.2270050048828 -100.17500305175778 L -146.18099975585938 -100.19100189208982 L -146.13499450683594 -100.20899963378903 L -146.08999633789062 -100.22799682617185 L -146.04600524902344 -100.24800109863278 L -146.0019989013672 -100.2710037231445 L -145.95899963378906 -100.29399871826169 L -145.91600036621094 -100.3190002441406 L -145.87399291992188 -100.34600067138669 L -145.86521911621094 -100.35199737548825 L -145.83299255371094 -100.37400054931638 L -145.79299926757812 -100.40399932861325 L -145.7530059814453 -100.43499755859372 L -145.71400451660156 -100.46800231933591 L -145.67599487304688 -100.50299835205075 L -145.63900756835938 -100.53800201416013 L -145.60299682617188 -100.57599639892575 L -145.56900024414062 -100.61399841308591 L -145.53599548339844 -100.65299987792966 L -145.5050048828125 -100.69200134277341 L -145.47500610351562 -100.73300170898435 L -145.44700622558594 -100.77400207519528 L -145.4199981689453 -100.81600189208982 L -145.4080047607422 -100.83663940429685 L -145.39500427246094 -100.85900115966794 L -145.37100219726562 -100.90200042724607 L -145.3489990234375 -100.94599914550778 L -145.3280029296875 -100.9899978637695 L -145.3090057373047 -101.03500366210935 L -145.29200744628906 -101.08100128173825 L -145.2760009765625 -101.12599945068357 L -145.26100158691406 -101.17299652099607 L -145.2480010986328 -101.2190017700195 L -145.23699951171875 -101.265998840332 L -145.2270050048828 -101.31300354003903 L -145.218994140625 -101.36100006103513 L -145.21676635742188 -101.37599945068357 L -145.21200561523438 -101.40799713134763 L -145.20599365234375 -101.45600128173825 L -145.1999969482422 -101.55200195312497 L -145.1999969482422 -101.64800262451169 L -145.20599365234375 -101.74400329589841 L -145.21200561523438 -101.7919998168945 L -145.218994140625 -101.838996887207 L -145.2270050048828 -101.88700103759763 L -145.2272186279297 -101.88800048828122 L -145.23699951171875 -101.93399810791013 L -145.2480010986328 -101.98100280761716 L -145.26100158691406 -102.02799987792966 L -145.2760009765625 -102.07399749755857 L -145.29200744628906 -102.120002746582 L -145.3090057373047 -102.16500091552732 L -145.3280029296875 -102.20999908447263 L -145.3489990234375 -102.25399780273435 L -145.37100219726562 -102.29799652099607 L -145.39500427246094 -102.34200286865232 L -145.4080047607422 -102.36383819580075 L -145.4199981689453 -102.38400268554685 L -145.43028259277344 -102.40000152587888 L -145.44700622558594 -102.42600250244138 L -145.47500610351562 -102.46700286865232 L -145.5050048828125 -102.50800323486325 L -145.53599548339844 -102.54799652099607 L -145.56900024414062 -102.58699798583982 L -145.60299682617188 -102.62499999999997 L -145.63316345214844 -102.65599822998044 L -145.63900756835938 -102.66200256347653 L -145.67599487304688 -102.69799804687497 L -145.71400451660156 -102.73200225830075 L -145.7530059814453 -102.76499938964841 L -145.79299926757812 -102.79599761962888 L -145.83299255371094 -102.82599639892575 L -145.87399291992188 -102.85399627685544 L -145.91600036621094 -102.88099670410153 L -145.9199981689453 -102.88332366943357 L -145.95899963378906 -102.90599822998044 L -145.96975708007812 -102.91200256347653 L -146.0019989013672 -102.93000030517575 L -146.04600524902344 -102.95200347900388 L -146.08999633789062 -102.97200012207028 L -146.13499450683594 -102.9909973144531 L -146.18099975585938 -103.00900268554685 L -146.2270050048828 -103.02500152587888 L -146.2729949951172 -103.04000091552732 L -146.31900024414062 -103.05300140380857 L -146.36599731445312 -103.06400299072263 L -146.41299438476562 -103.07399749755857 L -146.4320068359375 -103.07716369628903 L -146.46099853515625 -103.08200073242185 L -146.50799560546875 -103.088996887207 L -146.55599975585938 -103.0940017700195 L -146.60400390625 -103.09799957275388 L -146.65199279785156 -103.10099792480466 L -146.7480010986328 -103.10099792480466 L -146.79600524902344 -103.09799957275388 L -146.843994140625 -103.0940017700195 L -146.89100646972656 -103.088996887207 L -146.93899536132812 -103.08200073242185 L -146.94400024414062 -103.08114624023435 L -146.98599243164062 -103.07399749755857 L -147.03399658203125 -103.06400299072263 L -147.08099365234375 -103.05300140380857 L -147.1269989013672 -103.04000091552732 L -147.17300415039062 -103.02500152587888 L -147.218994140625 -103.00900268554685 L -147.26499938964844 -102.9909973144531 L -147.3090057373047 -102.97200012207028 L -147.35400390625 -102.95200347900388 L -147.3979949951172 -102.93000030517575 L -147.4302520751953 -102.91200256347653 L -147.4409942626953 -102.90599822998044 L -147.45599365234375 -102.89727783203122 L -147.48399353027344 -102.88099670410153 L -147.52499389648438 -102.85399627685544 L -147.56700134277344 -102.82599639892575 L -147.60699462890625 -102.79599761962888 L -147.64700317382812 -102.76499938964841 L -147.68600463867188 -102.73200225830075 L -147.7239990234375 -102.69799804687497 L -147.76100158691406 -102.66200256347653 L -147.7969970703125 -102.62499999999997 L -147.83099365234375 -102.58699798583982 L -147.86399841308594 -102.54799652099607 L -147.89500427246094 -102.50800323486325 L -147.9250030517578 -102.46700286865232 L -147.9530029296875 -102.42600250244138 L -147.96971130371094 -102.40000152587888 L -147.97999572753906 -102.38400268554685 L -148.0050048828125 -102.34200286865232 L -148.0290069580078 -102.29799652099607 L -148.05099487304688 -102.25399780273435 L -148.0709991455078 -102.20999908447263 L -148.08999633789062 -102.16500091552732 L -148.10800170898438 -102.120002746582 L -148.12399291992188 -102.07399749755857 L -148.13900756835938 -102.02799987792966 L -148.16299438476562 -101.93399810791013 L -148.17279052734375 -101.88800048828122 L -148.17300415039062 -101.88700103759763 L -148.18099975585938 -101.838996887207 L -148.18800354003906 -101.7919998168945 L -148.1929931640625 -101.74400329589841 L -148.19700622558594 -101.69599914550778 L -148.1999969482422 -101.64800262451169 L -148.1999969482422 -101.55200195312497 L -148.19700622558594 -101.50399780273435 L -148.1929931640625 -101.45600128173825 L -148.18800354003906 -101.40799713134763 L -148.1832275390625 -101.37599945068357 L -148.18099975585938 -101.36100006103513 L -148.17300415039062 -101.31300354003903 L -148.16299438476562 -101.265998840332 L -148.1510009765625 -101.2190017700195 L -148.13900756835938 -101.17299652099607 L -148.12399291992188 -101.12599945068357 L -148.10800170898438 -101.08100128173825 L -148.08999633789062 -101.03500366210935 L -148.0709991455078 -100.9899978637695 L -148.05099487304688 -100.94599914550778 L -148.0290069580078 -100.90200042724607 L -148.00779724121094 -100.86399841308591 L -148.0050048828125 -100.85900115966794 L -147.97999572753906 -100.81600189208982 L -147.96800231933594 -100.79733276367185 L -147.9530029296875 -100.77400207519528 L -147.9250030517578 -100.73300170898435 L -147.89500427246094 -100.69200134277341 L -147.86399841308594 -100.65299987792966 L -147.83099365234375 -100.61399841308591 L -147.7969970703125 -100.57599639892575 L -147.76100158691406 -100.53800201416013 L -147.7239990234375 -100.50299835205075 L -147.68600463867188 -100.46800231933591 L -147.64700317382812 -100.43499755859372 L -147.60699462890625 -100.40399932861325 L -147.56700134277344 -100.37400054931638 L -147.53399658203125 -100.35199737548825 L -147.52499389648438 -100.34600067138669 M -121.00299835205078 6.998000144958494 L -121.00299835205078 9.003000259399412 L -118.99800109863281 9.003000259399412 L -118.99800109863281 6.998000144958494 L -119.00299835205078 6.998000144958494 L -120.99700164794922 6.998000144958494 L -120.99800109863281 6.998000144958494 L -121.00299835205078 6.998000144958494 M -164.97900390625 -62.466999053955064 L -186.97300720214844 -62.466999053955064 L -186.97300720214844 -59.46300125122069 L -164.97900390625 -59.46300125122069 L -164.97900390625 -62.466999053955064 M -164.97900390625 -70.9980010986328 L -161.9969940185547 -70.9980010986328 L -161.9969940185547 -73.9980010986328 L -193.0030059814453 -73.9980010986328 L -193.0030059814453 -70.9980010986328 L -186.97300720214844 -70.9980010986328 L -164.97900390625 -70.9980010986328 M -227.9980010986328 -23.15200042724609 L -227.9980010986328 -28.003000259399407 L -227.9980010986328 -28.152000427246087 L -231.0030059814453 -28.152000427246087 L -231.0030059814453 -28.003000259399407 L -231.0030059814453 -23.15200042724609 L -227.9980010986328 -23.15200042724609 M -227.9980010986328 -18.150999069213864 L -231.0030059814453 -18.150999069213864 L -231.0030059814453 -8.149000167846678 L -227.9980010986328 -8.149000167846678 L -227.9980010986328 -18.150999069213864 M -223.0030059814453 -28.003000259399407 L -223.0030059814453 1.8530000448226924 L -223.0030059814453 2.0030000209808345 L -219.9969940185547 2.0030000209808345 L -219.9969940185547 -28.003000259399407 L -223.0030059814453 -28.003000259399407 M -233.0019989013672 9.003000259399412 L -230.9969940185547 9.003000259399412 L -230.9969940185547 6.998000144958494 L -233.0019989013672 6.998000144958494 L -233.0019989013672 9.003000259399412 M -165.9980010986328 -119.99800109863278 L -161.9969940185547 -119.99800109863278 L -160.9980010986328 -119.99800109863278 L -160.9980010986328 -123.00299835205075 L -161.9969940185547 -123.00299835205075 L -165.9980010986328 -123.00299835205075 L -165.9980010986328 -119.99800109863278 M -170.99899291992188 -119.99800109863278 L -170.99899291992188 -123.00299835205075 L -181.00100708007812 -123.00299835205075 L -181.00100708007812 -119.99800109863278 L -170.99899291992188 -119.99800109863278 M -230.9969940185547 -96.00199890136716 L -231.0030059814453 -96.00199890136716 L -231.0030059814453 -93.9970016479492 L -228.9980010986328 -93.9970016479492 L -228.9980010986328 -96.00199890136716 L -230.9969940185547 -96.00199890136716 M -231.0030059814453 -82.00199890136717 L -231.0030059814453 -79.9970016479492 L -228.9980010986328 -79.9970016479492 L -228.9980010986328 -82.00199890136717 L -231.0030059814453 -82.00199890136717 M -206.0050048828125 -90.00199890136717 L -200.0030059814453 -90.00199890136717 L -200.0030059814453 -96.00399780273435 L -206.0050048828125 -96.00399780273435 L -206.0050048828125 -90.00199890136717 M -195.9980010986328 -123.99999999999997 L -202 -123.99999999999997 L -202 -117.99800109863278 L -195.9980010986328 -117.99800109863278 L -195.9980010986328 -123.99999999999997 M -129.0030059814453 -40.002998352050774 L -129.0030059814453 16.00300025939941 L -125.99700164794922 16.00300025939941 L -125.99700164794922 -40.002998352050774 L -129.0030059814453 -40.002998352050774 M -145.9949951171875 -90.00199890136717 L -145.9949951171875 -96.00399780273435 L -151.9969940185547 -96.00399780273435 L -151.9969940185547 -90.00199890136717 L -145.9949951171875 -90.00199890136717 M -149.9980010986328 -123.00299835205075 L -149.9980010986328 -123.99999999999997 L -156 -123.99999999999997 L -156 -123.00299835205075 L -156 -119.99800109863278 L -156 -117.99800109863278 L -149.9980010986328 -117.99800109863278 L -149.9980010986328 -119.99800109863278 L -149.9980010986328 -123.00299835205075 M -121.00299835205078 -115.00199890136716 L -121.00299835205078 -112.99700164794919 L -119.00299835205078 -112.99700164794919 L -118.99800109863281 -112.99700164794919 L -118.99800109863281 -115.00199890136716 L -121.00299835205078 -115.00199890136716 M -120.99800109863281 -79.9970016479492 L -120.99800109863281 -82.00199890136717 L -121.00299835205078 -82.00199890136717 L -123.00199890136719 -82.00199890136717 L -123.00299835205078 -82.00199890136717 L -123.00299835205078 -79.9970016479492 L -123.00199890136719 -79.9970016479492 L -121.00299835205078 -79.9970016479492 L -120.99800109863281 -79.9970016479492 M -121.00299835205078 -93.9970016479492 L -120.99700164794922 -93.9970016479492 L -120.99700164794922 -96.00199890136716 L -121.00299835205078 -96.00199890136716 L -123.00199890136719 -96.00199890136716 L -123.00199890136719 -93.9970016479492 L -121.00299835205078 -93.9970016479492 M -110.00299835205078 -115.00199890136716 L -112.00199890136719 -115.00199890136716 L -112.00199890136719 -112.99700164794919 L -110.00299835205078 -112.99700164794919 L -109.99700164794922 -112.99700164794919 L -109.99700164794922 -115.00199890136716 L -110.00299835205078 -115.00199890136716 M -110.00299835205078 9.003000259399412 L -109.99700164794922 9.003000259399412 L -109.99700164794922 6.998000144958494 L -110.00299835205078 6.998000144958494 L -112.00199890136719 6.998000144958494 L -112.00199890136719 9.003000259399412 L -110.00299835205078 9.003000259399412 M -0.003000000026077032 -115.00199890136716 L -0.003000000026077032 -112.99700164794919 L 2.003000020980835 -112.99700164794919 L 2.003000020980835 -115.00199890136716 L -0.003000000026077032 -115.00199890136716 M -0.003000000026077032 9.003000259399412 L 2.003000020980835 9.003000259399412 L 2.003000020980835 6.998000144958494 L -0.003000000026077032 6.998000144958494 L -0.003000000026077032 9.003000259399412 M -95.00299835205078 -32.00199890136718 L -95.00299835205078 -29.997999191284173 L -94.79399871826172 -29.997999191284173 L -91.84300231933594 -29.997999191284173 L -91.16799926757812 -29.997999191284173 L -88.99800109863281 -29.997999191284173 L -88.99800109863281 -32.00199890136718 L -95.00299835205078 -32.00199890136718 M -91.16799926757812 -10.399999618530272 L -91.84300231933594 -10.399999618530272 L -94.79399871826172 -10.399999618530272 L -95.00299835205078 -10.399999618530272 L -95.09500122070312 -10.399999618530272 L -95.09500122070312 -7.949999809265135 L -95.00299835205078 -7.949999809265135 L -94.79399871826172 -7.949999809265135 L -91.84300231933594 -7.949999809265135 L -91.16799926757812 -7.949999809265135 L -88.99800109863281 -7.949999809265135 L -82.83999633789062 -7.949999809265135 L -82.83999633789062 -10.399999618530272 L -88.99800109863281 -10.399999618530272 L -91.16799926757812 -10.399999618530272 M -70.50199890136719 -124.40299987792966 L -70.50199890136719 -119.39800262451169 L -65.49700164794922 -119.39800262451169 L -65.49700164794922 -124.40299987792966 L -70.50199890136719 -124.40299987792966 M -65.49700164794922 -84.40299987792967 L -70.50199890136719 -84.40299987792967 L -70.50199890136719 -79.3980026245117 L -65.49700164794922 -79.3980026245117 L -65.49700164794922 -84.40299987792967 z" fill="none" stroke="rgb(255,0,0)" stroke-width="0.001mm" />
</svg>