<?xml version="1.0" standalone="no"?>
<!DOCTYPE svg PUBLIC "-//W3C//DTD SVG 1.1//EN"
  "http://www.w3.org/Graphics/SVG/1.1/DTD/svg11.dtd">
<svg width="57.76300048828125mm" height="130.99999999999997mm" viewBox="-410.76300048828125 -18.999999999999996 57.76300048828125 130.99999999999997" xmlns="http://www.w3.org/2000/svg" version="1.1">
	<title>svgOutput</title>
	<desc>made with tinkercad</desc>
<path d="M -354 12.12800025939941 L -356.8630065917969 12.12800025939941 L -356.8630065917969 16.629999160766598 L -356.8630065917969 25.99699974060058 L -356.8630065917969 65.99999999999999 L -354 65.99999999999999 L -354 105.99999999999997 L -356.8630065917969 105.99999999999997 L -356.8630065917969 110.99999999999997 L -393.00299072265625 110.99999999999997 L -406.8630065917969 110.99999999999997 L -406.8630065917969 105.90000152587888 L -409.76300048828125 105.90000152587888 L -409.76300048828125 95.90000152587889 L -406.8630065917969 95.90000152587889 L -406.8630065917969 55.90000152587889 L -409.76300048828125 55.90000152587889 L -409.76300048828125 45.9000015258789 L -406.8630065917969 45.9000015258789 L -406.8630065917969 35.9000015258789 L -409.76300048828125 35.9000015258789 L -409.76300048828125 25.899999618530266 L -406.8630065917969 25.899999618530266 L -406.8630065917969 16.629999160766598 L -406.8630065917969 9.628999710083006 L -406.8630065917969 -3.0999999046325675 L -409.76300048828125 -3.0999999046325675 L -409.76300048828125 -13.100000381469723 L -406.8630065917969 -13.100000381469723 L -406.8630065917969 -17.999999999999996 L -356.8630065917969 -17.999999999999996 L -356.8630065917969 -8.374999999999998 L -356.8630065917969 -3.871999979019164 L -354 -3.871999979019164 L -354 12.12800025939941 M -393.2229919433594 -4.683000087738036 L -393.21600341796875 -4.679723262786864 L -393.1759948730469 -4.66099977493286 L -393.12799072265625 -4.640999794006347 L -393.0790100097656 -4.622000217437743 L -393.0299987792969 -4.605000019073485 L -392.9809875488281 -4.59000015258789 L -392.9309997558594 -4.576000213623046 L -392.8810119628906 -4.564000129699706 L -392.83099365234375 -4.552999973297118 L -392.781005859375 -4.5440001487731925 L -392.7300109863281 -4.537000179290771 L -392.7040100097656 -4.5339412689208975 L -392.6789855957031 -4.531000137329101 L -392.62799072265625 -4.526999950408935 L -392.5769958496094 -4.525000095367431 L -392.5249938964844 -4.524000167846679 L -392.4739990234375 -4.525000095367431 L -392.4230041503906 -4.526999950408935 L -392.37200927734375 -4.531000137329101 L -392.3210144042969 -4.537000179290771 L -392.2699890136719 -4.5440001487731925 L -392.2200012207031 -4.552999973297118 L -392.1919860839844 -4.559039115905761 L -392.17498779296875 -4.562705993652343 L -392.16900634765625 -4.564000129699706 L -392.1189880371094 -4.576000213623046 L -392.07000732421875 -4.59000015258789 L -392.0199890136719 -4.605000019073485 L -391.97100830078125 -4.622000217437743 L -391.9230041503906 -4.640999794006347 L -391.875 -4.66099977493286 L -391.8280029296875 -4.683000087738036 L -391.781005859375 -4.706999778747558 L -391.7349853515625 -4.731999874114989 L -391.6889953613281 -4.758999824523925 L -391.67999267578125 -4.764727115631103 L -391.6449890136719 -4.787000179290771 L -391.5570068359375 -4.8489999771118155 L -391.5150146484375 -4.882999897003173 L -391.4739990234375 -4.9180002212524405 L -391.4330139160156 -4.953999996185302 L -391.39300537109375 -4.993000030517577 L -391.3550109863281 -5.032000064849853 L -391.3190002441406 -5.072999954223632 L -391.28399658203125 -5.113999843597411 L -391.2791442871094 -5.119999885559081 L -391.25 -5.156000137329101 L -391.2179870605469 -5.199999809265136 L -391.18798828125 -5.243999958038329 L -391.1679992675781 -5.275428771972655 L -391.1600036621094 -5.2880001068115225 L -391.13299560546875 -5.33400011062622 L -391.1080017089844 -5.380000114440917 L -391.0840148925781 -5.427000045776366 L -391.06201171875 -5.4739999771118155 L -391.0419921875 -5.521999835968017 L -391.02301025390625 -5.570000171661376 L -391.0060119628906 -5.618999958038329 L -391.0021057128906 -5.631999969482421 L -390.9909973144531 -5.6690001487731925 L -390.97698974609375 -5.717999935150146 L -390.9639892578125 -5.768000125885009 L -390.9540100097656 -5.818999767303466 L -390.94500732421875 -5.868999958038329 L -390.93798828125 -5.920000076293944 L -390.9320068359375 -5.97100019454956 L -390.9280090332031 -6.021999835968016 L -390.92498779296875 -6.072999954223631 L -390.92498779296875 -6.14400005340576 L -390.92498779296875 -6.1750001907348615 L -390.9280090332031 -6.2259998321533185 L -390.9320068359375 -6.277999877929686 L -390.93798828125 -6.328000068664549 L -390.94500732421875 -6.379000186920164 L -390.9540100097656 -6.429999828338621 L -390.9639892578125 -6.4800000190734846 L -390.97698974609375 -6.530000209808348 L -390.9909973144531 -6.579999923706053 L -391.0060119628906 -6.629000186920164 L -391.015380859375 -6.6560001373291 L -391.02301025390625 -6.677999973297117 L -391.0419921875 -6.7259998321533185 L -391.06201171875 -6.774000167846678 L -391.0840148925781 -6.822000026702879 L -391.1080017089844 -6.868000030517576 L -391.13299560546875 -6.914999961853026 L -391.1600036621094 -6.960000038146971 L -391.1679992675781 -6.972856998443602 L -391.18798828125 -7.005000114440916 L -391.2179870605469 -7.048999786376951 L -391.25 -7.092000007629393 L -391.28399658203125 -7.133999824523924 L -391.3123474121094 -7.16800022125244 L -391.3190002441406 -7.1760001182556135 L -391.3550109863281 -7.216000080108641 L -391.39300537109375 -7.256000041961668 L -391.4330139160156 -7.294000148773192 L -391.4739990234375 -7.330999851226805 L -391.5150146484375 -7.366000175476072 L -391.5570068359375 -7.399000167846678 L -391.60101318359375 -7.431000232696531 L -391.6449890136719 -7.460999965667723 L -391.67999267578125 -7.483272552490233 L -391.6889953613281 -7.48899984359741 L -391.7349853515625 -7.515999794006346 L -391.781005859375 -7.5409998893737775 L -391.8280029296875 -7.565000057220457 L -391.875 -7.586999893188475 L -391.9230041503906 -7.6069998741149885 L -391.97100830078125 -7.62599992752075 L -392.0199890136719 -7.643000125885008 L -392.07000732421875 -7.658999919891356 L -392.1189880371094 -7.671999931335447 L -392.16900634765625 -7.684999942779539 L -392.17498779296875 -7.686176300048826 L -392.1919860839844 -7.689509868621824 L -392.2200012207031 -7.695000171661375 L -392.2699890136719 -7.703999996185301 L -392.3210144042969 -7.710999965667723 L -392.37200927734375 -7.717000007629393 L -392.4230041503906 -7.721000194549559 L -392.4739990234375 -7.723999977111815 L -392.5769958496094 -7.723999977111815 L -392.62799072265625 -7.721000194549559 L -392.6789855957031 -7.717000007629393 L -392.7040100097656 -7.714058876037596 L -392.7300109863281 -7.710999965667723 L -392.781005859375 -7.703999996185301 L -392.83099365234375 -7.695000171661375 L -392.8810119628906 -7.684999942779539 L -392.9809875488281 -7.658999919891356 L -393.0299987792969 -7.643000125885008 L -393.0790100097656 -7.62599992752075 L -393.12799072265625 -7.6069998741149885 L -393.1759948730469 -7.586999893188475 L -393.21600341796875 -7.568276405334471 L -393.2229919433594 -7.565000057220457 L -393.2699890136719 -7.5409998893737775 L -393.3160095214844 -7.515999794006346 L -393.3609924316406 -7.48899984359741 L -393.406005859375 -7.460999965667723 L -393.45001220703125 -7.431000232696531 L -393.4930114746094 -7.399000167846678 L -393.5360107421875 -7.366000175476072 L -393.5769958496094 -7.330999851226805 L -393.6180114746094 -7.294000148773192 L -393.6570129394531 -7.256000041961668 L -393.6960144042969 -7.216000080108641 L -393.73199462890625 -7.1760001182556135 L -393.7386779785156 -7.16800022125244 L -393.7669982910156 -7.133999824523924 L -393.8009948730469 -7.092000007629393 L -393.8320007324219 -7.048999786376951 L -393.86199951171875 -7.005000114440916 L -393.8909912109375 -6.960000038146971 L -393.9179992675781 -6.914999961853026 L -393.9429931640625 -6.868000030517576 L -393.9670104980469 -6.822000026702879 L -393.989013671875 -6.774000167846678 L -394.0090026855469 -6.7259998321533185 L -394.02801513671875 -6.677999973297117 L -394.03564453125 -6.6560001373291 L -394.0450134277344 -6.629000186920164 L -394.05999755859375 -6.579999923706053 L -394.0740051269531 -6.530000209808348 L -394.08599853515625 -6.4800000190734846 L -394.09698486328125 -6.429999828338621 L -394.1059875488281 -6.379000186920164 L -394.1130065917969 -6.328000068664549 L -394.1189880371094 -6.277999877929686 L -394.12298583984375 -6.2259998321533185 L -394.125 -6.1750001907348615 L -394.1256103515625 -6.14400005340576 L -394.1260070800781 -6.124000072479246 L -394.125 -6.072999954223631 L -394.12298583984375 -6.021999835968016 L -394.1189880371094 -5.97100019454956 L -394.1130065917969 -5.920000076293944 L -394.1059875488281 -5.868999958038329 L -394.09698486328125 -5.818999767303466 L -394.08599853515625 -5.768000125885009 L -394.0740051269531 -5.717999935150146 L -394.05999755859375 -5.6690001487731925 L -394.04888916015625 -5.631999969482421 L -394.0450134277344 -5.618999958038329 L -394.02801513671875 -5.570000171661376 L -394.0090026855469 -5.521999835968017 L -393.989013671875 -5.4739999771118155 L -393.9670104980469 -5.427000045776366 L -393.9429931640625 -5.380000114440917 L -393.9179992675781 -5.33400011062622 L -393.8909912109375 -5.2880001068115225 L -393.86199951171875 -5.243999958038329 L -393.8320007324219 -5.199999809265136 L -393.8009948730469 -5.156000137329101 L -393.7718505859375 -5.119999885559081 L -393.7669982910156 -5.113999843597411 L -393.73199462890625 -5.072999954223632 L -393.6960144042969 -5.032000064849853 L -393.6180114746094 -4.953999996185302 L -393.5769958496094 -4.9180002212524405 L -393.5360107421875 -4.882999897003173 L -393.4930114746094 -4.8489999771118155 L -393.45001220703125 -4.817999839782714 L -393.406005859375 -4.787000179290771 L -393.3609924316406 -4.758999824523925 L -393.3160095214844 -4.731999874114989 L -393.2699890136719 -4.706999778747558 L -393.2229919433594 -4.683000087738036 M -393.6570129394531 15.512000083923336 L -393.6180114746094 15.55000019073486 L -393.5769958496094 15.58600044250488 L -393.5360107421875 15.621000289916989 L -393.4930114746094 15.654999732971188 L -393.45001220703125 15.6870002746582 L -393.406005859375 15.717000007629391 L -393.3609924316406 15.744999885559078 L -393.3160095214844 15.772000312805172 L -393.2699890136719 15.796999931335446 L -393.2229919433594 15.821000099182125 L -393.21600341796875 15.824276924133297 L -393.1759948730469 15.843000411987301 L -393.12799072265625 15.862999916076657 L -393.0790100097656 15.881999969482418 L -393.0299987792969 15.899000167846676 L -392.9809875488281 15.913999557495114 L -392.9309997558594 15.928000450134274 L -392.8810119628906 15.939999580383297 L -392.83099365234375 15.951000213623043 L -392.781005859375 15.960000038146969 L -392.7300109863281 15.967000007629391 L -392.7040100097656 15.970058441162106 L -392.6789855957031 15.972999572753903 L -392.62799072265625 15.977000236511227 L -392.5769958496094 15.97900009155273 L -392.5249938964844 15.979999542236325 L -392.4739990234375 15.97900009155273 L -392.4230041503906 15.977000236511227 L -392.37200927734375 15.972999572753903 L -392.3210144042969 15.967000007629391 L -392.2699890136719 15.960000038146969 L -392.2200012207031 15.951000213623043 L -392.1919860839844 15.944960594177243 L -392.17498779296875 15.94129371643066 L -392.16900634765625 15.939999580383297 L -392.1189880371094 15.928000450134274 L -392.07000732421875 15.913999557495114 L -392.0199890136719 15.899000167846676 L -391.97100830078125 15.881999969482418 L -391.9230041503906 15.862999916076657 L -391.875 15.843000411987301 L -391.8280029296875 15.821000099182125 L -391.781005859375 15.796999931335446 L -391.7349853515625 15.772000312805172 L -391.6889953613281 15.744999885559078 L -391.67999267578125 15.739273071289059 L -391.6449890136719 15.717000007629391 L -391.60101318359375 15.6870002746582 L -391.5570068359375 15.654999732971188 L -391.5150146484375 15.621000289916989 L -391.4739990234375 15.58600044250488 L -391.4330139160156 15.55000019073486 L -391.39300537109375 15.512000083923336 L -391.3550109863281 15.472000122070309 L -391.3190002441406 15.430999755859371 L -391.28399658203125 15.39000034332275 L -391.25970458984375 15.359999656677243 L -391.25 15.347999572753903 L -391.2179870605469 15.303999900817868 L -391.18798828125 15.260000228881832 L -391.1679992675781 15.228571891784664 L -391.1600036621094 15.21599960327148 L -391.13299560546875 15.170000076293942 L -391.1080017089844 15.123999595642086 L -391.0840148925781 15.076999664306637 L -391.06201171875 15.029999732971188 L -391.0419921875 14.982000350952145 L -391.02301025390625 14.934000015258786 L -391.0060119628906 14.885000228881832 L -390.9946594238281 14.847999572753903 L -390.9909973144531 14.83600044250488 L -390.97698974609375 14.786000251770016 L -390.9639892578125 14.736000061035153 L -390.9540100097656 14.68599987030029 L -390.94500732421875 14.635000228881832 L -390.93798828125 14.583999633789059 L -390.9320068359375 14.532999992370602 L -390.9280090332031 14.482000350952145 L -390.92498779296875 14.430999755859371 L -390.92498779296875 14.33600044250488 L -390.92498779296875 14.329000473022457 L -390.9280090332031 14.277999877929684 L -390.9320068359375 14.227000236511227 L -390.93798828125 14.175999641418453 L -390.94500732421875 14.124999999999996 L -390.9540100097656 14.07400035858154 L -390.9639892578125 14.024000167846676 L -390.97698974609375 13.973999977111813 L -390.9909973144531 13.92399978637695 L -391.0060119628906 13.874999999999996 L -391.02301025390625 13.826000213623043 L -391.0238037109375 13.82400035858154 L -391.0419921875 13.777999877929684 L -391.06201171875 13.729999542236325 L -391.0840148925781 13.682000160217282 L -391.1080017089844 13.635999679565426 L -391.13299560546875 13.590000152587887 L -391.1600036621094 13.543999671936032 L -391.1679992675781 13.531143188476559 L -391.18798828125 13.498999595642086 L -391.2179870605469 13.454999923706051 L -391.25 13.41199970245361 L -391.28399658203125 13.369999885559078 L -391.3190002441406 13.328000068664547 L -391.3334045410156 13.3120002746582 L -391.3550109863281 13.28800010681152 L -391.39300537109375 13.248000144958493 L -391.4330139160156 13.210000038146969 L -391.4739990234375 13.173000335693356 L -391.5150146484375 13.13799953460693 L -391.5570068359375 13.104999542236325 L -391.60101318359375 13.07299995422363 L -391.6449890136719 13.043000221252438 L -391.67999267578125 13.02072715759277 L -391.6889953613281 13.01500034332275 L -391.7349853515625 12.987999916076657 L -391.781005859375 12.963000297546383 L -391.8280029296875 12.939000129699703 L -391.875 12.916999816894528 L -391.9230041503906 12.897000312805172 L -391.97100830078125 12.87800025939941 L -392.0199890136719 12.861000061035153 L -392.07000732421875 12.845999717712399 L -392.1189880371094 12.831999778747555 L -392.16900634765625 12.819000244140621 L -392.17498779296875 12.817823410034176 L -392.1919860839844 12.814490318298336 L -392.2200012207031 12.809000015258786 L -392.2699890136719 12.80000019073486 L -392.3210144042969 12.793000221252438 L -392.37200927734375 12.78699970245361 L -392.4230041503906 12.782999992370602 L -392.4739990234375 12.779999732971188 L -392.5769958496094 12.779999732971188 L -392.62799072265625 12.782999992370602 L -392.6789855957031 12.78699970245361 L -392.7040100097656 12.789940834045407 L -392.7300109863281 12.793000221252438 L -392.781005859375 12.80000019073486 L -392.83099365234375 12.809000015258786 L -392.8810119628906 12.819000244140621 L -392.9309997558594 12.831999778747555 L -392.9809875488281 12.845999717712399 L -393.0299987792969 12.861000061035153 L -393.0790100097656 12.87800025939941 L -393.12799072265625 12.897000312805172 L -393.1759948730469 12.916999816894528 L -393.21600341796875 12.935723304748532 L -393.2229919433594 12.939000129699703 L -393.2699890136719 12.963000297546383 L -393.3160095214844 12.987999916076657 L -393.3609924316406 13.01500034332275 L -393.406005859375 13.043000221252438 L -393.45001220703125 13.07299995422363 L -393.4930114746094 13.104999542236325 L -393.5360107421875 13.13799953460693 L -393.5769958496094 13.173000335693356 L -393.6180114746094 13.210000038146969 L -393.6570129394531 13.248000144958493 L -393.6960144042969 13.28800010681152 L -393.71759033203125 13.3120002746582 L -393.73199462890625 13.328000068664547 L -393.7669982910156 13.369999885559078 L -393.8009948730469 13.41199970245361 L -393.8320007324219 13.454999923706051 L -393.86199951171875 13.498999595642086 L -393.8909912109375 13.543999671936032 L -393.9179992675781 13.590000152587887 L -393.9429931640625 13.635999679565426 L -393.9670104980469 13.682000160217282 L -393.989013671875 13.729999542236325 L -394.0090026855469 13.777999877929684 L -394.0272216796875 13.82400035858154 L -394.02801513671875 13.826000213623043 L -394.0450134277344 13.874999999999996 L -394.05999755859375 13.92399978637695 L -394.0740051269531 13.973999977111813 L -394.08599853515625 14.024000167846676 L -394.09698486328125 14.07400035858154 L -394.1059875488281 14.124999999999996 L -394.1130065917969 14.175999641418453 L -394.1189880371094 14.227000236511227 L -394.12298583984375 14.277999877929684 L -394.125 14.329000473022457 L -394.1251220703125 14.33600044250488 L -394.1260070800781 14.380000114440914 L -394.125 14.430999755859371 L -394.12298583984375 14.482000350952145 L -394.1189880371094 14.532999992370602 L -394.1130065917969 14.583999633789059 L -394.1059875488281 14.635000228881832 L -394.09698486328125 14.68599987030029 L -394.08599853515625 14.736000061035153 L -394.0740051269531 14.786000251770016 L -394.05999755859375 14.83600044250488 L -394.05633544921875 14.847999572753903 L -394.0450134277344 14.885000228881832 L -394.02801513671875 14.934000015258786 L -394.0090026855469 14.982000350952145 L -393.989013671875 15.029999732971188 L -393.9670104980469 15.076999664306637 L -393.9429931640625 15.123999595642086 L -393.9179992675781 15.170000076293942 L -393.8909912109375 15.21599960327148 L -393.86199951171875 15.260000228881832 L -393.8320007324219 15.303999900817868 L -393.8009948730469 15.347999572753903 L -393.7912902832031 15.359999656677243 L -393.7669982910156 15.39000034332275 L -393.73199462890625 15.430999755859371 L -393.7279968261719 15.435555458068844 L -393.6960144042969 15.472000122070309 L -393.6570129394531 15.512000083923336 M -392.17498779296875 -1.373000025749206 L -394.1260070800781 -1.373000025749206 L -398.1780090332031 -1.373000025749206 L -398.1780090332031 9.628999710083006 L -394.1260070800781 9.628999710083006 L -392.17498779296875 9.628999710083006 L -392.17498779296875 -1.373000025749206 M -390.04901123046875 15.979999542236325 L -390.04901123046875 16.629999160766598 L -387.5480041503906 16.629999160766598 L -387.5480041503906 -8.374999999999998 L -390.04901123046875 -8.374999999999998 L -390.04901123046875 15.979999542236325 M -362.8789978027344 25.99699974060058 L -393.00299072265625 25.99699974060058 L -393.00299072265625 101.00299835205075 L -362.8789978027344 101.00299835205075 L -362.8789978027344 25.99699974060058 z" fill="none" stroke="rgb(255,0,0)" stroke-width="0.001mm" />
</svg>