<?xml version="1.0" encoding="UTF-8" standalone="no"?>
<svg
   width="184.75046mm"
   height="139.68427mm"
   viewBox="-224.763 -96 184.75046 139.68427"
   version="1.1"
   id="svg26"
   sodipodi:docname="OBR 2026- ver 22.svg"
   inkscape:version="1.2-alpha1 (unknown)"
   xmlns:inkscape="http://www.inkscape.org/namespaces/inkscape"
   xmlns:sodipodi="http://sodipodi.sourceforge.net/DTD/sodipodi-0.dtd"
   xmlns="http://www.w3.org/2000/svg"
   xmlns:svg="http://www.w3.org/2000/svg"
   xmlns:rdf="http://www.w3.org/1999/02/22-rdf-syntax-ns#"
   xmlns:cc="http://creativecommons.org/ns#"
   xmlns:dc="http://purl.org/dc/elements/1.1/">
  <defs
     id="defs30" />
  <sodipodi:namedview
     id="namedview28"
     pagecolor="#ffffff"
     bordercolor="#000000"
     borderopacity="0.25"
     inkscape:pageshadow="2"
     inkscape:pageopacity="0.0"
     inkscape:pagecheckerboard="0"
     inkscape:deskcolor="#d1d1d1"
     inkscape:document-units="mm"
     showgrid="false"
     inkscape:zoom="0.51316815"
     inkscape:cx="-23.384148"
     inkscape:cy="289.37883"
     inkscape:window-width="1920"
     inkscape:window-height="991"
     inkscape:window-x="-9"
     inkscape:window-y="-9"
     inkscape:window-maximized="1"
     inkscape:current-layer="layer1" />
  <title
     id="title20">svgOutput</title>
  <desc
     id="desc22">made with tinkercad</desc>
  <g
     inkscape:groupmode="layer"
     id="layer1"
     inkscape:power="100"
     inkscape:feed="12"
     inkscape:engrave="0"
     inkscape:label="CORTE"
     transform="translate(-53.17736,-75.979139)">
    <path
       d="m -51.333642,-9.5906019 h -3.002 V 0.41440812 h 3.002 V 29.409398 h -3.002 v 10.00501 h 3.002 v 9.99499 h -3.002 v 10.00501 h 3.002 v 10.49899 29.49599 h -3.002 v 10.005002 h 3.002 v 9.99701 h -3.002 -6.996 v -3.00299 h -8.999 -1.005 v 3.00299 h -8.632 -0.275 -2.951 -0.3 -54.836988 -13.00101 v -3.00299 h -4.004 -6 v 3.00299 h -7.23199 -2.76601 v -19.09698 h 2.76601 V 90.308398 h -2.76601 v -65.89399 h 2.76601 V 8.5363981 h -2.76601 V -19.588602 h 2.76601 7.23199 v 3.00301 h 6 3 1.004 v -3.00301 h 13.00101 6.99499 v 3.00301 h 10.004 v -3.00301 h 4.996 v 52.498 4.50501 h 10.004 v -4.50501 -21.797 -30.701 h 0.496 24.499998 v 3.00301 h 11.005 3 5.999 v -3.00301 h 6.996 3.002 v 9.9980001 m -18.985,77.8079999 -0.012,0.196 0.012,0.196 0.039,0.19301 0.063,0.18499 0.086,0.176 0.109,0.164 0.13,0.147 0.147,0.129 0.164,0.10899 0.176,0.087 0.185,0.063 0.193,0.039 0.196,0.012 0.195,-0.012 0.193,-0.039 0.186,-0.063 0.176,-0.087 0.107,-0.0715 0.056,-0.0375 0.147,-0.129 0.13,-0.147 0.109,-0.164 0.086,-0.176 0.064,-0.18499 0.038,-0.19301 0.013,-0.196 -0.013,-0.196 -0.0376,-0.19 -3.9e-4,-0.002 -0.064,-0.18601 -0.086,-0.17599 -0.109,-0.163 -0.13,-0.14801 -0.147,-0.12899 -0.056,-0.0375 -0.107,-0.0716 -0.176,-0.087 -0.186,-0.063 -0.193,-0.038 -0.195,-0.013 -0.196,0.013 -0.193,0.038 -0.185,0.063 -0.176,0.087 -0.164,0.109 -0.147,0.12899 -0.13,0.14801 -0.109,0.163 -0.086,0.17599 -0.063,0.18601 -4e-4,0.002 -0.0386,0.19 m 0,-37.004 -0.012,0.196 0.012,0.19499 0.039,0.19301 0.063,0.18601 0.086,0.17599 0.109,0.163 0.13,0.147 0.147,0.13 0.164,0.109 0.176,0.087 0.185,0.063 0.193,0.038 0.196,0.013 0.195,-0.013 0.193,-0.038 0.186,-0.063 0.176,-0.087 0.107,-0.0716 0.056,-0.0375 0.147,-0.13 0.13,-0.147 0.109,-0.163 0.086,-0.17599 0.064,-0.18601 0.038,-0.19301 0.013,-0.19499 -0.013,-0.196 -0.01,-0.05 -0.0282,-0.14301 -0.064,-0.18499 -0.086,-0.176 -0.109,-0.164 -0.13,-0.147 -0.147,-0.12999 -0.056,-0.0375 -0.107,-0.0716 -0.176,-0.086 -0.186,-0.063 -0.193,-0.039 -0.195,-0.013 -0.196,0.013 -0.193,0.039 -0.185,0.063 -0.176,0.086 -0.164,0.10901 -0.147,0.12999 -0.13,0.147 -0.109,0.164 -0.086,0.176 -0.063,0.18499 -0.0289,0.14301 -0.0101,0.05 m -83.671008,1.68579 0.15401,0.0102 0.196,-0.013 0.192,-0.038 0.18601,-0.063 0.17599,-0.087 0.163,-0.109 0.147,-0.13 0.13,-0.147 0.0903,-0.135 0.0187,-0.028 0.087,-0.17599 0.063,-0.18601 0.038,-0.19301 0.013,-0.19499 -0.013,-0.196 -0.01,-0.05 -0.0281,-0.14301 -0.063,-0.18499 -0.087,-0.176 -0.109,-0.164 -0.13,-0.147 -0.147,-0.12999 -0.163,-0.10901 -0.17599,-0.086 -0.18601,-0.063 -0.192,-0.039 -0.196,-0.013 -0.15401,0.0102 -0.042,0.003 -0.192,0.039 -0.186,0.063 -0.176,0.086 -0.16299,0.10901 -0.14801,0.12999 -0.129,0.147 -0.10899,0.164 -0.087,0.176 -0.063,0.18499 -0.0282,0.14301 -0.01,0.05 -0.013,0.196 0.013,0.19499 0.038,0.19301 0.063,0.18601 0.087,0.17599 0.10899,0.163 0.129,0.147 0.14801,0.13 0.16299,0.109 0.176,0.087 0.186,0.063 0.192,0.038 0.042,0.003 m 0,37.00478 0.15401,0.009 0.196,-0.012 0.192,-0.039 0.18601,-0.063 0.17599,-0.087 0.163,-0.10899 0.147,-0.129 0.13,-0.147 0.109,-0.164 0.0554,-0.112 0.0316,-0.064 0.063,-0.18499 0.038,-0.19301 0.013,-0.196 -0.013,-0.196 -0.0376,-0.19 -3.9e-4,-0.002 -0.063,-0.18601 -0.087,-0.17599 -0.109,-0.163 -0.13,-0.14801 -0.147,-0.12899 -0.163,-0.109 -0.17599,-0.087 -0.18601,-0.063 -0.192,-0.038 -0.196,-0.013 -0.15401,0.0102 -0.042,0.003 -0.192,0.038 -0.186,0.063 -0.176,0.087 -0.16299,0.109 -0.14801,0.12899 -0.129,0.14801 -0.10899,0.163 -0.087,0.17599 -0.063,0.18601 -4e-4,0.002 -0.0376,0.19 -0.013,0.196 0.013,0.196 0.038,0.19301 0.063,0.18499 0.087,0.176 0.10899,0.164 0.129,0.147 0.14801,0.129 0.16299,0.10899 0.176,0.087 0.186,0.063 0.192,0.039 0.042,0.003 m 82.658008,6.50543 h -0.004 -6 v 2.00501 h 6 0.004 v -2.00531 m 1.001,-69.7009999 h -11.005 -3.00101 v 4.4039999 0.67501 2.95099 0.30101 11.67399 h 3.00101 11.005 3 3 V 6.7083981 h -3 -3 m -82.004998,0 h -3 -3 V 26.713398 h 3 3 1.004 13.00101 V 6.7083981 h -13.00101 -1.004 m 59.102008,4.4039999 V 2.7843981 h -2.45002 v 8.3279999 0.67501 2.95099 0.30101 h 2.45002 v -0.30101 -2.95099 -0.67501 M -155.33612,104.1134 h 4.004 13.00101 V 84.108408 h -13.00101 -4.004 -3 V 104.1134 h 3 m 84.096998,-6.101992 h -0.097 -8.632 -0.275 -2.951 -0.3 v 2.449982 h 0.3 2.951 0.275 8.632 0.097 z"
       fill="none"
       stroke="#ff0000"
       stroke-width="0.001mm"
       id="path2563"
       inkscape:power="50"
       inkscape:feed="50"
       inkscape:engrave="0"
       style="stroke-width:0.504;stroke-miterlimit:4;stroke-dasharray:none" />
    <path
       d="m -43.83136,-14.818861 h 2.86301 v -5 h 3.13699 2.89999 0.10001 43.8630103 V -4.9188707 H 11.93164 v 10 H 9.0316503 v 0.10001 h -43.8630103 -0.10001 -2.89999 -3.13699 V 0.30912927 h -2.86301 V -14.818861"
       style="fill:none;stroke:#ff0000;stroke-width:0.404;stroke-miterlimit:4;stroke-dasharray:none"
       id="path6059"
       inkscape:power="50"
       inkscape:feed="50"
       inkscape:engrave="0" />
    <path
       d="m 12.962811,38.744359 h -2.999999 -3 -2.89999 -43.863008 -0.10001 v -15.10001 h -2.89999 v -10 h 3 v 0.10001 h 49.762998 0.13699 v 9.12801 h 2.863009 z"
       style="fill:none;stroke:#ff0000;stroke-width:0.404;stroke-miterlimit:4;stroke-dasharray:none"
       id="path7339"
       inkscape:power="50"
       inkscape:feed="50"
       inkscape:engrave="0" />
  </g>
  <metadata
     id="metadata10548">
    <rdf:RDF>
      <cc:Work
         rdf:about="">
        <dc:title>svgOutput</dc:title>
      </cc:Work>
    </rdf:RDF>
  </metadata>
</svg>
