<?xml version="1.0" standalone="no"?>
<!DOCTYPE svg PUBLIC "-//W3C//DTD SVG 1.1//EN"
  "http://www.w3.org/Graphics/SVG/1.1/DTD/svg11.dtd">
<svg width="339.9550018310547mm" height="151.99999999999997mm" viewBox="-237 -279.99999999999994 339.9550018310547 151.99999999999997" xmlns="http://www.w3.org/2000/svg" version="1.1">
	<title>svgOutput</title>
	<desc>made with tinkercad</desc>
<path d="M 101.95500183105469 -236.99400329589838 L 101.95500183105469 -224.99999999999994 L 99.20600128173828 -224.99999999999994 L 10.99899959564209 -224.99999999999994 L 8 -224.99999999999994 L 8 -268.97900390624994 L 8 -271.9769897460937 L 99.20600128173828 -271.9769897460937 L 99.20600128173828 -268.97900390624994 L 98.95600128173828 -268.97900390624994 L 71 -268.97900390624994 L 70.95600128173828 -268.97900390624994 L 48 -268.97900390624994 L 42 -268.97900390624994 L 17 -268.97900390624994 L 10.99899959564209 -268.97900390624994 L 10.99899959564209 -265.9769897460937 L 10.99899959564209 -227.99899291992182 L 14 -227.99899291992182 L 17 -227.99899291992182 L 39 -227.99899291992182 L 98.95600128173828 -227.99899291992182 L 98.95600128173828 -236.99400329589838 L 99.20600128173828 -236.99400329589838 L 101.95500183105469 -236.99400329589838 M 71 -241.96699523925776 L 71 -238.96699523925776 L 45 -238.96699523925776 L 45 -241.96699523925776 L 45 -246.97700500488276 L 45 -262.9769897460937 L 45 -265.9670104980468 L 48 -265.96817016601557 L 70.95600128173828 -265.9769897460937 L 70.95600128173828 -262.97900390624994 L 67.12999725341797 -262.9769897460937 L 48 -262.9670104980468 L 48 -246.97700500488276 L 48 -241.96699523925776 L 71 -241.96699523925776 M 39 -246.97700500488276 L 39 -262.9769897460937 L 17 -262.9769897460937 L 17 -246.97700500488276 L 14 -246.97700500488276 L 14 -265.9769897460937 L 17 -265.9769897460937 L 42 -265.9769897460937 L 42 -265.96585083007807 L 42 -262.9769897460937 L 42 -246.97700500488276 L 39 -246.97700500488276 M 64 -140.99999999999997 L 64 -218.99999999999994 L 11 -218.99999999999994 L 11 -140.99999999999997 L 8 -140.99999999999997 L 8 -221.99999999999994 L 11 -221.99999999999994 L 67 -221.99999999999994 L 67 -218.99999999999994 L 67 -140.99999999999997 L 64 -140.99999999999997 M -115 -269.00100708007807 L -112.00199890136719 -271.9989929199218 L -110.00299835205078 -273.9979858398437 L -109.99700164794922 -274.0039978027343 L -106.99800109863281 -277.0029907226562 L -105.0009994506836 -278.99999999999994 L -95.09500122070312 -278.99999999999994 L -95.00299835205078 -278.99999999999994 L -88.99800109863281 -278.99999999999994 L -82.83999633789062 -278.99999999999994 L -70.50199890136719 -278.99999999999994 L -65.49700164794922 -278.99999999999994 L -60.00299835205078 -278.99999999999994 L -60.00299835205078 -221.99699401855463 L -49.99800109863281 -221.99699401855463 L -49.99800109863281 -278.99999999999994 L -4.999000072479248 -278.99999999999994 L -0.003000000026077032 -274.0039978027343 L 2.003000020980835 -271.9979858398437 L 5 -269.00100708007807 L 5 -221.99999999999994 L 5 -139.0010070800781 L 2.003000020980835 -136.00399780273435 L -0.003000000026077032 -133.99800109863278 L -5.000999927520752 -128.99999999999997 L -88.99800109863281 -128.99999999999997 L -91.16799926757812 -128.99999999999997 L -91.84300231933594 -128.99999999999997 L -94.79399871826172 -128.99999999999997 L -95.00299835205078 -128.99999999999997 L -95.09500122070312 -128.99999999999997 L -105 -128.99999999999997 L -106.99800109863281 -130.99800109863278 L -109.99700164794922 -133.99699401855466 L -110.00299835205078 -134.00300598144528 L -112.00199890136719 -136.00199890136716 L -115 -138.99999999999997 L -115 -269.00100708007807 M -188.5019989013672 -274.0029907226562 L -191.0030059814453 -274.0029907226562 L -191.0030059814453 -270.9979858398437 L -188.5019989013672 -270.9979858398437 L -185.5019989013672 -270.9979858398437 L -185.5019989013672 -274.0029907226562 L -188.5019989013672 -274.0029907226562 M -116 -138.99999999999997 L -118.99800109863281 -136.00199890136716 L -119.00299835205078 -135.99699401855466 L -120.99800109863281 -134.00199890136716 L -121.00299835205078 -133.99699401855466 L -123.00299835205078 -131.99699401855466 L -126 -128.99999999999997 L -151.9969940185547 -128.99999999999997 L -186.97300720214844 -128.99999999999997 L -193.0030059814453 -128.99999999999997 L -200.0030059814453 -128.99999999999997 L -202 -128.99999999999997 L -226 -128.99999999999997 L -227.9980010986328 -130.99800109863278 L -230.9969940185547 -133.99699401855466 L -231.0030059814453 -134.00300598144528 L -233.0019989013672 -136.00199890136716 L -236 -138.99999999999997 L -236 -218.99699401855463 L -233.0019989013672 -218.99699401855463 L -232.9980010986328 -218.99699401855463 L -232.9980010986328 -241.00199890136713 L -232.9980010986328 -244.99699401855463 L -232.9980010986328 -247.00399780273432 L -232.9980010986328 -259.0020141601562 L -236 -259.0020141601562 L -236 -261.9970092773437 L -236 -266.0020141601562 L -236 -269.00100708007807 L -230.00100708007812 -274.99999999999994 L -226.00100708007812 -278.99999999999994 L -126.0009994506836 -278.99999999999994 L -122.0009994506836 -274.99999999999994 L -116 -268.9989929199218 L -116 -268.9979858398437 L -116 -259.0020141601562 L -118.99800109863281 -259.0020141601562 L -119.00299835205078 -259.0020141601562 L -119.00299835205078 -251.09899902343744 L -119.00299835205078 -251.09800720214838 L -119.00299835205078 -247.00399780273432 L -119.00299835205078 -247.00199890136713 L -119.00299835205078 -241.00199890136713 L -119.00299835205078 -233.00199890136713 L -119.00299835205078 -218.99699401855463 L -118.99800109863281 -218.99699401855463 L -116 -218.99699401855463 L -116 -138.99999999999997 M -163.83999633789062 -257.0039978027343 L -165.50100708007812 -257.0039978027343 L -165.50100708007812 -251.99999999999994 L -163.83999633789062 -251.99999999999994 L -155.6479949951172 -251.99999999999994 L -152.50399780273438 -251.99999999999994 L -152.50399780273438 -257.0039978027343 L -155.6479949951172 -257.0039978027343 L -163.83999633789062 -257.0039978027343 M -164.97900390625 -243.00300598144526 L -186.97300720214844 -243.00300598144526 L -193.0030059814453 -243.00300598144526 L -193.0030059814453 -240.00199890136713 L -186.97300720214844 -240.00199890136713 L -164.97900390625 -240.00199890136713 L -161.9969940185547 -240.00199890136713 L -161.9969940185547 -243.00300598144526 L -164.97900390625 -243.00300598144526 M -172.04200744628906 -251.29299926757807 L -172.03199768066406 -251.2874145507812 L -171.99899291992188 -251.26899719238276 L -171.9550018310547 -251.24699401855463 L -171.91000366210938 -251.22700500488276 L -171.86500549316406 -251.20799255371088 L -171.82000732421875 -251.1900024414062 L -171.7740020751953 -251.17399597167963 L -171.72799682617188 -251.1589965820312 L -171.68099975585938 -251.14599609374994 L -171.63400268554688 -251.13499450683588 L -171.58700561523438 -251.12499999999994 L -171.5399932861328 -251.1170043945312 L -171.52000427246094 -251.11408996582026 L -171.49200439453125 -251.1100006103515 L -171.44400024414062 -251.10400390624994 L -171.34800720214844 -251.09800720214838 L -171.2519989013672 -251.09800720214838 L -171.156005859375 -251.10400390624994 L -171.10800170898438 -251.1100006103515 L -171.06100463867188 -251.1170043945312 L -171.01300048828125 -251.12499999999994 L -171.00799560546875 -251.12606811523432 L -170.96600341796875 -251.13499450683588 L -170.91900634765625 -251.14599609374994 L -170.8719940185547 -251.1589965820312 L -170.8260040283203 -251.17399597167963 L -170.77999877929688 -251.1900024414062 L -170.73500061035156 -251.20799255371088 L -170.69000244140625 -251.22700500488276 L -170.64500427246094 -251.24699401855463 L -170.6009979248047 -251.26899719238276 L -170.55799865722656 -251.29299926757807 L -170.51499938964844 -251.31799316406244 L -170.49600219726562 -251.3302154541015 L -170.47300720214844 -251.34500122070307 L -170.4320068359375 -251.37300109863276 L -170.40603637695312 -251.39199829101557 L -170.39100646972656 -251.40299987792963 L -170.3520050048828 -251.43400573730463 L -170.31300354003906 -251.46699523925776 L -170.27499389648438 -251.50199890136713 L -170.23800659179688 -251.53799438476557 L -170.20199584960938 -251.57499694824213 L -170.16700744628906 -251.61300659179682 L -170.13400268554688 -251.6519927978515 L -170.10299682617188 -251.69099426269526 L -170.072998046875 -251.7319946289062 L -170.0449981689453 -251.77299499511713 L -170.01800537109375 -251.8150024414062 L -169.9929962158203 -251.85800170898432 L -169.98399353027344 -251.87413024902338 L -169.968994140625 -251.90100097656244 L -169.96749877929688 -251.90400695800776 L -169.94700622558594 -251.9450073242187 L -169.927001953125 -251.990005493164 L -169.9080047607422 -252.03500366210932 L -169.88999938964844 -252.08000183105463 L -169.87399291992188 -252.12600708007807 L -169.85899353027344 -252.17199707031244 L -169.8459930419922 -252.21899414062494 L -169.8350067138672 -252.2660064697265 L -169.8249969482422 -252.313003540039 L -169.81700134277344 -252.36099243164057 L -169.80999755859375 -252.40800476074213 L -169.8090057373047 -252.41600036621088 L -169.8040008544922 -252.4559936523437 L -169.79800415039062 -252.55200195312494 L -169.79800415039062 -252.64799499511713 L -169.8040008544922 -252.74400329589838 L -169.80999755859375 -252.792007446289 L -169.81700134277344 -252.83999633789057 L -169.8249969482422 -252.88699340820307 L -169.83372497558594 -252.927993774414 L -169.8350067138672 -252.93400573730463 L -169.8459930419922 -252.98100280761713 L -169.85899353027344 -253.02799987792963 L -169.87399291992188 -253.07400512695307 L -169.88999938964844 -253.11999511718744 L -169.9080047607422 -253.16499328613276 L -169.927001953125 -253.21000671386713 L -169.94700622558594 -253.25500488281244 L -169.968994140625 -253.29899597167963 L -169.98399353027344 -253.32588195800776 L -169.9929962158203 -253.34199523925776 L -170.01800537109375 -253.38499450683588 L -170.0449981689453 -253.42700195312494 L -170.0538787841797 -253.4400024414062 L -170.072998046875 -253.46800231933588 L -170.10299682617188 -253.50900268554682 L -170.13400268554688 -253.54800415039057 L -170.16700744628906 -253.58700561523432 L -170.20199584960938 -253.62499999999994 L -170.23800659179688 -253.66299438476557 L -170.27499389648438 -253.69799804687494 L -170.31300354003906 -253.73300170898432 L -170.3520050048828 -253.7660064697265 L -170.39100646972656 -253.79699707031244 L -170.4320068359375 -253.82699584960932 L -170.47300720214844 -253.854995727539 L -170.49600219726562 -253.86978149414057 L -170.51499938964844 -253.88200378417963 L -170.55799865722656 -253.906997680664 L -170.6009979248047 -253.93099975585932 L -170.64300537109375 -253.95199584960932 L -170.64500427246094 -253.95300292968744 L -170.73500061035156 -253.99299621582026 L -170.77999877929688 -254.00999450683588 L -170.8260040283203 -254.02600097656244 L -170.8719940185547 -254.04100036621088 L -170.91900634765625 -254.05400085449213 L -170.96600341796875 -254.0650024414062 L -171.00799560546875 -254.07392883300776 L -171.01300048828125 -254.07499694824213 L -171.06100463867188 -254.083999633789 L -171.10800170898438 -254.08999633789057 L -171.156005859375 -254.09599304199213 L -171.20399475097656 -254.10000610351557 L -171.2519989013672 -254.10200500488276 L -171.3000030517578 -254.10299682617182 L -171.34800720214844 -254.10200500488276 L -171.39599609375 -254.10000610351557 L -171.44400024414062 -254.09599304199213 L -171.52000427246094 -254.08650207519526 L -171.5399932861328 -254.083999633789 L -171.58700561523438 -254.07499694824213 L -171.63400268554688 -254.0650024414062 L -171.68099975585938 -254.05400085449213 L -171.72799682617188 -254.04100036621088 L -171.7740020751953 -254.02600097656244 L -171.82000732421875 -254.00999450683588 L -171.86500549316406 -253.99299621582026 L -171.9550018310547 -253.95300292968744 L -171.95700073242188 -253.95199584960932 L -171.99899291992188 -253.93099975585932 L -172.03199768066406 -253.91258239746088 L -172.04200744628906 -253.906997680664 L -172.0850067138672 -253.88200378417963 L -172.1269989013672 -253.854995727539 L -172.16799926757812 -253.82699584960932 L -172.20899963378906 -253.79699707031244 L -172.2480010986328 -253.7660064697265 L -172.28700256347656 -253.73300170898432 L -172.32717895507812 -253.69599914550776 L -172.36300659179688 -253.66299438476557 L -172.43299865722656 -253.58700561523432 L -172.46600341796875 -253.54800415039057 L -172.4969940185547 -253.50900268554682 L -172.52699279785156 -253.46800231933588 L -172.54400634765625 -253.44309997558588 L -172.54612731933594 -253.4400024414062 L -172.55499267578125 -253.42700195312494 L -172.58200073242188 -253.38499450683588 L -172.60699462890625 -253.34199523925776 L -172.63099670410156 -253.29899597167963 L -172.6529998779297 -253.25500488281244 L -172.6929931640625 -253.16499328613276 L -172.7100067138672 -253.11999511718744 L -172.7259979248047 -253.07400512695307 L -172.74099731445312 -253.02799987792963 L -172.75399780273438 -252.98100280761713 L -172.76499938964844 -252.93400573730463 L -172.7662811279297 -252.927993774414 L -172.77499389648438 -252.88699340820307 L -172.78399658203125 -252.83999633789057 L -172.79600524902344 -252.74400329589838 L -172.8000030517578 -252.69599914550776 L -172.802001953125 -252.64799499511713 L -172.80299377441406 -252.60000610351557 L -172.802001953125 -252.55200195312494 L -172.8000030517578 -252.50399780273432 L -172.79600524902344 -252.4559936523437 L -172.79100036621094 -252.41600036621088 L -172.7899932861328 -252.40800476074213 L -172.78399658203125 -252.36099243164057 L -172.77499389648438 -252.313003540039 L -172.76499938964844 -252.2660064697265 L -172.75399780273438 -252.21899414062494 L -172.74099731445312 -252.17199707031244 L -172.7259979248047 -252.12600708007807 L -172.7100067138672 -252.08000183105463 L -172.6929931640625 -252.03500366210932 L -172.6529998779297 -251.9450073242187 L -172.63250732421875 -251.90400695800776 L -172.63099670410156 -251.90100097656244 L -172.60699462890625 -251.85800170898432 L -172.58200073242188 -251.8150024414062 L -172.55499267578125 -251.77299499511713 L -172.54400634765625 -251.7568969726562 L -172.52699279785156 -251.7319946289062 L -172.4969940185547 -251.69099426269526 L -172.46600341796875 -251.6519927978515 L -172.43299865722656 -251.61300659179682 L -172.3979949951172 -251.57499694824213 L -172.36300659179688 -251.53799438476557 L -172.3249969482422 -251.50199890136713 L -172.28700256347656 -251.46699523925776 L -172.2480010986328 -251.43400573730463 L -172.20899963378906 -251.40299987792963 L -172.1939697265625 -251.39199829101557 L -172.16799926757812 -251.37300109863276 L -172.1269989013672 -251.34500122070307 L -172.0850067138672 -251.31799316406244 L -172.04200744628906 -251.29299926757807 M -148.18800354003906 -252.40800476074213 L -148.18099975585938 -252.36099243164057 L -148.17300415039062 -252.313003540039 L -148.16299438476562 -252.2660064697265 L -148.1510009765625 -252.21899414062494 L -148.13900756835938 -252.17300415039057 L -148.12399291992188 -252.12600708007807 L -148.10800170898438 -252.0809936523437 L -148.08999633789062 -252.03500366210932 L -148.0709991455078 -251.990005493164 L -148.05099487304688 -251.94599914550776 L -148.02999877929688 -251.90400695800776 L -148.0290069580078 -251.9019927978515 L -148.0050048828125 -251.85899353027338 L -147.97999572753906 -251.81599426269526 L -147.96800231933594 -251.79733276367182 L -147.9530029296875 -251.77400207519526 L -147.9250030517578 -251.73300170898432 L -147.89500427246094 -251.69200134277338 L -147.86399841308594 -251.65299987792963 L -147.83099365234375 -251.61399841308588 L -147.7969970703125 -251.57600402832026 L -147.76100158691406 -251.53799438476557 L -147.7239990234375 -251.50300598144526 L -147.68600463867188 -251.46800231933588 L -147.64700317382812 -251.4349975585937 L -147.60699462890625 -251.40400695800776 L -147.59100341796875 -251.39199829101557 L -147.56700134277344 -251.37399291992182 L -147.52499389648438 -251.34599304199213 L -147.48399353027344 -251.31900024414057 L -147.45599365234375 -251.30271911621088 L -147.4409942626953 -251.2940063476562 L -147.3979949951172 -251.27099609374994 L -147.35400390625 -251.24800109863276 L -147.3090057373047 -251.22799682617182 L -147.26499938964844 -251.208999633789 L -147.218994140625 -251.19099426269526 L -147.17300415039062 -251.17500305175776 L -147.1269989013672 -251.16099548339838 L -147.08099365234375 -251.14799499511713 L -147.03399658203125 -251.136001586914 L -146.98599243164062 -251.12600708007807 L -146.94400024414062 -251.11885070800776 L -146.93899536132812 -251.11799621582026 L -146.89100646972656 -251.11099243164057 L -146.843994140625 -251.10600280761713 L -146.79600524902344 -251.10200500488276 L -146.7480010986328 -251.10000610351557 L -146.6999969482422 -251.09899902343744 L -146.65199279785156 -251.10000610351557 L -146.60400390625 -251.10200500488276 L -146.55599975585938 -251.10600280761713 L -146.50799560546875 -251.11099243164057 L -146.46099853515625 -251.11799621582026 L -146.4320068359375 -251.12283325195307 L -146.41299438476562 -251.12600708007807 L -146.36599731445312 -251.136001586914 L -146.31900024414062 -251.14799499511713 L -146.2729949951172 -251.16099548339838 L -146.2270050048828 -251.17500305175776 L -146.18099975585938 -251.19099426269526 L -146.13499450683594 -251.208999633789 L -146.08999633789062 -251.22799682617182 L -146.04600524902344 -251.24800109863276 L -146.0019989013672 -251.27099609374994 L -145.95899963378906 -251.2940063476562 L -145.9199981689453 -251.31668090820307 L -145.91600036621094 -251.31900024414057 L -145.87399291992188 -251.34599304199213 L -145.83299255371094 -251.37399291992182 L -145.8090057373047 -251.39199829101557 L -145.79299926757812 -251.40400695800776 L -145.7530059814453 -251.4349975585937 L -145.71400451660156 -251.46800231933588 L -145.67599487304688 -251.50300598144526 L -145.63900756835938 -251.53799438476557 L -145.60299682617188 -251.57600402832026 L -145.56900024414062 -251.61399841308588 L -145.53599548339844 -251.65299987792963 L -145.5050048828125 -251.69200134277338 L -145.47500610351562 -251.73300170898432 L -145.44700622558594 -251.77400207519526 L -145.4199981689453 -251.81599426269526 L -145.4080047607422 -251.83663940429682 L -145.39500427246094 -251.85899353027338 L -145.37100219726562 -251.9019927978515 L -145.3699951171875 -251.90400695800776 L -145.3489990234375 -251.94599914550776 L -145.3280029296875 -251.990005493164 L -145.3090057373047 -252.03500366210932 L -145.29200744628906 -252.0809936523437 L -145.2760009765625 -252.12600708007807 L -145.26100158691406 -252.17300415039057 L -145.2480010986328 -252.21899414062494 L -145.23699951171875 -252.2660064697265 L -145.2270050048828 -252.313003540039 L -145.218994140625 -252.36099243164057 L -145.21200561523438 -252.40800476074213 L -145.21099853515625 -252.41600036621088 L -145.20599365234375 -252.4559936523437 L -145.1999969482422 -252.55200195312494 L -145.1999969482422 -252.64799499511713 L -145.20599365234375 -252.74400329589838 L -145.21200561523438 -252.792007446289 L -145.218994140625 -252.8390045166015 L -145.2270050048828 -252.88699340820307 L -145.2357177734375 -252.927993774414 L -145.23699951171875 -252.93400573730463 L -145.2480010986328 -252.98100280761713 L -145.26100158691406 -253.02799987792963 L -145.2760009765625 -253.07400512695307 L -145.29200744628906 -253.11999511718744 L -145.3090057373047 -253.16499328613276 L -145.3280029296875 -253.21000671386713 L -145.3489990234375 -253.25399780273432 L -145.37100219726562 -253.29800415039057 L -145.39500427246094 -253.34199523925776 L -145.4080047607422 -253.36384582519526 L -145.4199981689453 -253.38400268554682 L -145.44700622558594 -253.42599487304682 L -145.45655822753906 -253.4400024414062 L -145.47500610351562 -253.46699523925776 L -145.5050048828125 -253.5079956054687 L -145.53599548339844 -253.54800415039057 L -145.56900024414062 -253.58700561523432 L -145.60299682617188 -253.62499999999994 L -145.63900756835938 -253.6620025634765 L -145.67599487304688 -253.69799804687494 L -145.71400451660156 -253.7319946289062 L -145.7530059814453 -253.76499938964838 L -145.79299926757812 -253.79600524902338 L -145.83299255371094 -253.82600402832026 L -145.87399291992188 -253.85400390624994 L -145.91600036621094 -253.8809967041015 L -145.9199981689453 -253.88333129882807 L -145.95899963378906 -253.90600585937494 L -146.0019989013672 -253.9299926757812 L -146.04600524902344 -253.95199584960932 L -146.08999633789062 -253.97200012207026 L -146.13499450683594 -253.99099731445307 L -146.18099975585938 -254.00900268554682 L -146.2270050048828 -254.02499389648432 L -146.2729949951172 -254.03999328613276 L -146.31900024414062 -254.052993774414 L -146.36599731445312 -254.06399536132807 L -146.41299438476562 -254.07400512695307 L -146.4320068359375 -254.077163696289 L -146.46099853515625 -254.08200073242182 L -146.50799560546875 -254.0890045166015 L -146.55599975585938 -254.09500122070307 L -146.65199279785156 -254.10099792480463 L -146.7480010986328 -254.10099792480463 L -146.843994140625 -254.09500122070307 L -146.89100646972656 -254.0890045166015 L -146.93899536132812 -254.08200073242182 L -146.94400024414062 -254.08114624023432 L -146.98599243164062 -254.07400512695307 L -147.03399658203125 -254.06399536132807 L -147.08099365234375 -254.052993774414 L -147.1269989013672 -254.03999328613276 L -147.17300415039062 -254.02499389648432 L -147.218994140625 -254.00900268554682 L -147.26499938964844 -253.99099731445307 L -147.3090057373047 -253.97200012207026 L -147.35400390625 -253.95199584960932 L -147.3979949951172 -253.9299926757812 L -147.4409942626953 -253.90600585937494 L -147.45599365234375 -253.8972778320312 L -147.48399353027344 -253.8809967041015 L -147.52499389648438 -253.85400390624994 L -147.56700134277344 -253.82600402832026 L -147.60699462890625 -253.79600524902338 L -147.64700317382812 -253.76499938964838 L -147.68600463867188 -253.7319946289062 L -147.7239990234375 -253.69799804687494 L -147.76100158691406 -253.6620025634765 L -147.7969970703125 -253.62499999999994 L -147.83099365234375 -253.58700561523432 L -147.86399841308594 -253.54800415039057 L -147.89500427246094 -253.5079956054687 L -147.9250030517578 -253.46699523925776 L -147.9434356689453 -253.4400024414062 L -147.9530029296875 -253.42599487304682 L -147.97999572753906 -253.38400268554682 L -148.0050048828125 -253.34199523925776 L -148.0290069580078 -253.29800415039057 L -148.05099487304688 -253.25399780273432 L -148.0709991455078 -253.21000671386713 L -148.08999633789062 -253.16499328613276 L -148.10800170898438 -253.11999511718744 L -148.12399291992188 -253.07400512695307 L -148.13900756835938 -253.02799987792963 L -148.16299438476562 -252.93400573730463 L -148.16427612304688 -252.927993774414 L -148.17300415039062 -252.88699340820307 L -148.18099975585938 -252.8390045166015 L -148.18800354003906 -252.792007446289 L -148.1929931640625 -252.74400329589838 L -148.19700622558594 -252.69599914550776 L -148.1999969482422 -252.64799499511713 L -148.1999969482422 -252.55200195312494 L -148.19700622558594 -252.50399780273432 L -148.1929931640625 -252.4559936523437 L -148.18882751464844 -252.41600036621088 L -148.18800354003906 -252.40800476074213 M -181.75900268554688 -251.5370025634765 L -181.7220001220703 -251.50100708007807 L -181.6840057373047 -251.46699523925776 L -181.64500427246094 -251.43400573730463 L -181.60499572753906 -251.40299987792963 L -181.56399536132812 -251.37300109863276 L -181.5229949951172 -251.34500122070307 L -181.4810028076172 -251.31799316406244 L -181.43899536132812 -251.29299926757807 L -181.39500427246094 -251.26899719238276 L -181.3520050048828 -251.24699401855463 L -181.26199340820312 -251.20700073242182 L -181.2480010986328 -251.20170593261713 L -181.2169952392578 -251.1900024414062 L -181.17100524902344 -251.17399597167963 L -181.125 -251.1589965820312 L -181.0780029296875 -251.14599609374994 L -181.031005859375 -251.13499450683588 L -180.98399353027344 -251.12499999999994 L -180.93699645996094 -251.1170043945312 L -180.88900756835938 -251.1100006103515 L -180.8419952392578 -251.10400390624994 L -180.74600219726562 -251.09800720214838 L -180.73599243164062 -251.09800720214838 L -180.64999389648438 -251.09800720214838 L -180.5540008544922 -251.10400390624994 L -180.50599670410156 -251.1100006103515 L -180.45899963378906 -251.1170043945312 L -180.41099548339844 -251.12499999999994 L -180.36399841308594 -251.13499450683588 L -180.31700134277344 -251.14599609374994 L -180.27099609375 -251.1589965820312 L -180.2239990234375 -251.17399597167963 L -180.1790008544922 -251.1900024414062 L -180.13299560546875 -251.20700073242182 L -180.08799743652344 -251.22700500488276 L -180.04400634765625 -251.24699401855463 L -180 -251.26899719238276 L -179.95700073242188 -251.29299926757807 L -179.91400146484375 -251.31799316406244 L -179.8719940185547 -251.34500122070307 L -179.83099365234375 -251.37300109863276 L -179.7899932861328 -251.40299987792963 L -179.75100708007812 -251.43400573730463 L -179.71200561523438 -251.46699523925776 L -179.6739959716797 -251.50100708007807 L -179.63699340820312 -251.5370025634765 L -179.6009979248047 -251.57400512695307 L -179.56700134277344 -251.6119995117187 L -179.53399658203125 -251.65100097656244 L -179.5030059814453 -251.69099426269526 L -179.47300720214844 -251.7319946289062 L -179.44500732421875 -251.77299499511713 L -179.41799926757812 -251.8150024414062 L -179.39300537109375 -251.8569946289062 L -179.36900329589844 -251.90100097656244 L -179.36749267578125 -251.90400695800776 L -179.3470001220703 -251.9450073242187 L -179.3260040283203 -251.98899841308588 L -179.3070068359375 -252.0339965820312 L -179.2899932861328 -252.0789947509765 L -179.2740020751953 -252.12499999999994 L -179.25900268554688 -252.17100524902338 L -179.24600219726562 -252.21800231933588 L -179.23500061035156 -252.26499938964838 L -179.22500610351562 -252.31199645996088 L -179.21600341796875 -252.3600006103515 L -179.2100067138672 -252.406997680664 L -179.20887756347656 -252.41600036621088 L -179.20399475097656 -252.45500183105463 L -179.1999969482422 -252.50300598144526 L -179.197998046875 -252.55099487304682 L -179.19700622558594 -252.59899902343744 L -179.197998046875 -252.64700317382807 L -179.1999969482422 -252.6950073242187 L -179.20399475097656 -252.74299621582026 L -179.2100067138672 -252.79100036621088 L -179.21600341796875 -252.83799743652338 L -179.22500610351562 -252.886001586914 L -179.2339324951172 -252.927993774414 L -179.23500061035156 -252.9329986572265 L -179.24600219726562 -252.979995727539 L -179.25900268554688 -253.02600097656244 L -179.2740020751953 -253.07299804687494 L -179.2899932861328 -253.11799621582026 L -179.3070068359375 -253.1640014648437 L -179.3260040283203 -253.208999633789 L -179.3470001220703 -253.25300598144526 L -179.36900329589844 -253.29699707031244 L -179.39300537109375 -253.33999633789057 L -179.41799926757812 -253.3829956054687 L -179.44500732421875 -253.42500305175776 L -179.4552459716797 -253.4400024414062 L -179.47300720214844 -253.4660034179687 L -179.5030059814453 -253.50700378417963 L -179.53399658203125 -253.54600524902338 L -179.56700134277344 -253.58500671386713 L -179.6009979248047 -253.62300109863276 L -179.63699340820312 -253.66000366210932 L -179.6739959716797 -253.69599914550776 L -179.71200561523438 -253.73100280761713 L -179.7899932861328 -253.79499816894526 L -179.83099365234375 -253.82499694824213 L -179.8719940185547 -253.85299682617182 L -179.91400146484375 -253.88000488281244 L -179.95700073242188 -253.90499877929682 L -180 -253.927993774414 L -180.04400634765625 -253.95100402832026 L -180.04620361328125 -253.95199584960932 L -180.08799743652344 -253.97099304199213 L -180.13299560546875 -253.990005493164 L -180.1790008544922 -254.0079956054687 L -180.2239990234375 -254.02400207519526 L -180.27099609375 -254.03799438476557 L -180.31700134277344 -254.05099487304682 L -180.36399841308594 -254.063003540039 L -180.41099548339844 -254.07299804687494 L -180.45899963378906 -254.0809936523437 L -180.50599670410156 -254.08799743652338 L -180.5540008544922 -254.09300231933588 L -180.6020050048828 -254.09700012207026 L -180.64999389648438 -254.09899902343744 L -180.697998046875 -254.10000610351557 L -180.73599243164062 -254.09921264648432 L -180.74600219726562 -254.09899902343744 L -180.79400634765625 -254.09700012207026 L -180.8419952392578 -254.09300231933588 L -180.88900756835938 -254.08799743652338 L -180.93699645996094 -254.0809936523437 L -180.98399353027344 -254.07299804687494 L -181.031005859375 -254.063003540039 L -181.0780029296875 -254.05099487304682 L -181.125 -254.03799438476557 L -181.17100524902344 -254.02400207519526 L -181.2169952392578 -254.0079956054687 L -181.2480010986328 -253.99560546874994 L -181.26199340820312 -253.990005493164 L -181.3070068359375 -253.97099304199213 L -181.34974670410156 -253.95199584960932 L -181.3520050048828 -253.95100402832026 L -181.39500427246094 -253.927993774414 L -181.43899536132812 -253.90499877929682 L -181.4810028076172 -253.88000488281244 L -181.5229949951172 -253.85299682617182 L -181.56399536132812 -253.82499694824213 L -181.60499572753906 -253.79499816894526 L -181.64500427246094 -253.7630004882812 L -181.6840057373047 -253.73100280761713 L -181.7220001220703 -253.69599914550776 L -181.75900268554688 -253.66000366210932 L -181.75999450683594 -253.65893554687494 L -181.79400634765625 -253.62300109863276 L -181.82899475097656 -253.58500671386713 L -181.86199951171875 -253.54600524902338 L -181.89300537109375 -253.50700378417963 L -181.92300415039062 -253.4660034179687 L -181.9407501220703 -253.4400024414062 L -181.9510040283203 -253.42500305175776 L -181.97799682617188 -253.3829956054687 L -182.0030059814453 -253.33999633789057 L -182.0260009765625 -253.29699707031244 L -182.0489959716797 -253.25300598144526 L -182.06900024414062 -253.208999633789 L -182.08799743652344 -253.1640014648437 L -182.1060028076172 -253.11799621582026 L -182.1219940185547 -253.07299804687494 L -182.13600158691406 -253.02600097656244 L -182.1490020751953 -252.979995727539 L -182.16099548339844 -252.9329986572265 L -182.1620635986328 -252.927993774414 L -182.17100524902344 -252.886001586914 L -182.1790008544922 -252.83799743652338 L -182.18600463867188 -252.79100036621088 L -182.1909942626953 -252.74299621582026 L -182.19500732421875 -252.6950073242187 L -182.19700622558594 -252.64700317382807 L -182.197998046875 -252.59899902343744 L -182.19700622558594 -252.55099487304682 L -182.19500732421875 -252.50300598144526 L -182.1909942626953 -252.45500183105463 L -182.1869354248047 -252.41600036621088 L -182.18600463867188 -252.406997680664 L -182.1790008544922 -252.3600006103515 L -182.17100524902344 -252.31199645996088 L -182.16099548339844 -252.26499938964838 L -182.1490020751953 -252.21800231933588 L -182.13600158691406 -252.17100524902338 L -182.1219940185547 -252.12499999999994 L -182.1060028076172 -252.0789947509765 L -182.08799743652344 -252.0339965820312 L -182.06900024414062 -251.98899841308588 L -182.0489959716797 -251.9450073242187 L -182.02757263183594 -251.90400695800776 L -182.0030059814453 -251.8569946289062 L -181.97799682617188 -251.8150024414062 L -181.9510040283203 -251.77299499511713 L -181.92300415039062 -251.7319946289062 L -181.89300537109375 -251.69099426269526 L -181.86199951171875 -251.65100097656244 L -181.82899475097656 -251.6119995117187 L -181.79400634765625 -251.57400512695307 L -181.75999450683594 -251.53805541992182 L -181.75900268554688 -251.5370025634765 M -179.19700622558594 -266.0020141601562 L -182.197998046875 -266.0020141601562 L -186.5 -266.0020141601562 L -202 -266.0020141601562 L -206.80099487304688 -266.0020141601562 L -216.0030059814453 -266.0020141601562 L -216.0030059814453 -261.9970092773437 L -206.80099487304688 -261.9970092773437 L -202 -261.9970092773437 L -186.5 -261.9970092773437 L -182.197998046875 -261.9970092773437 L -179.19700622558594 -261.9970092773437 L -172.80299377441406 -261.9970092773437 L -169.79800415039062 -261.9970092773437 L -165.50100708007812 -261.9970092773437 L -145.1999969482422 -261.9970092773437 L -135.9980010986328 -261.9970092773437 L -135.9980010986328 -266.0020141601562 L -145.1999969482422 -266.0020141601562 L -165.50100708007812 -266.0020141601562 L -169.79800415039062 -266.0020141601562 L -172.80299377441406 -266.0020141601562 L -179.19700622558594 -266.0020141601562 M -196.60800170898438 -257.0039978027343 L -199.49600219726562 -257.0039978027343 L -199.49600219726562 -251.99999999999994 L -196.60800170898438 -251.99999999999994 L -186.5 -251.99999999999994 L -186.5 -257.0039978027343 L -196.60800170898438 -257.0039978027343 M -228.9980010986328 -233.00199890136713 L -231.0030059814453 -233.00199890136713 L -231.0030059814453 -230.99699401855463 L -228.9980010986328 -230.99699401855463 L -228.9980010986328 -233.00199890136713 M -230.9969940185547 -144.00300598144528 L -231.0030059814453 -144.00300598144528 L -232.9980010986328 -144.00300598144528 L -233.0019989013672 -144.00300598144528 L -233.0019989013672 -141.99800109863278 L -231.0030059814453 -141.99800109863278 L -230.9969940185547 -141.99800109863278 L -230.9969940185547 -144.00300598144528 M -231.0030059814453 -153.89799499511716 L -231.0030059814453 -149.1470031738281 L -227.9980010986328 -149.1470031738281 L -227.9980010986328 -153.89799499511716 L -227.9980010986328 -154.64799499511716 L -231.0030059814453 -154.64799499511716 L -231.0030059814453 -153.89799499511716 M -206.36099243164062 -251.53799438476557 L -206.33599853515625 -251.51435852050776 L -206.32400512695312 -251.50300598144526 L -206.28599548339844 -251.46800231933588 L -206.2469940185547 -251.4349975585937 L -206.20700073242188 -251.40400695800776 L -206.16700744628906 -251.37399291992182 L -206.12600708007812 -251.34599304199213 L -206.08399963378906 -251.31900024414057 L -206.04100036621094 -251.2940063476562 L -205.9980010986328 -251.27099609374994 L -205.95399475097656 -251.24800109863276 L -205.91000366210938 -251.22799682617182 L -205.86500549316406 -251.208999633789 L -205.82400512695312 -251.19296264648432 L -205.81900024414062 -251.19099426269526 L -205.7740020751953 -251.17500305175776 L -205.7270050048828 -251.16099548339838 L -205.68099975585938 -251.14799499511713 L -205.63400268554688 -251.136001586914 L -205.58700561523438 -251.12600708007807 L -205.53900146484375 -251.11799621582026 L -205.49200439453125 -251.11099243164057 L -205.44400024414062 -251.10600280761713 L -205.39599609375 -251.10200500488276 L -205.34800720214844 -251.10000610351557 L -205.31199645996094 -251.09924316406244 L -205.3000030517578 -251.09899902343744 L -205.2519989013672 -251.10000610351557 L -205.20399475097656 -251.10200500488276 L -205.156005859375 -251.10600280761713 L -205.10899353027344 -251.11099243164057 L -205.06100463867188 -251.11799621582026 L -205.01400756835938 -251.12600708007807 L -204.96600341796875 -251.136001586914 L -204.9199981689453 -251.14799499511713 L -204.8730010986328 -251.16099548339838 L -204.82699584960938 -251.17500305175776 L -204.8000030517578 -251.1843872070312 L -204.781005859375 -251.19099426269526 L -204.73599243164062 -251.208999633789 L -204.6909942626953 -251.22799682617182 L -204.64599609375 -251.24800109863276 L -204.60299682617188 -251.27099609374994 L -204.5590057373047 -251.2940063476562 L -204.55014038085938 -251.29927062988276 L -204.51699829101562 -251.31900024414057 L -204.47500610351562 -251.34599304199213 L -204.43299865722656 -251.37399291992182 L -204.39300537109375 -251.40400695800776 L -204.35299682617188 -251.4349975585937 L -204.31399536132812 -251.46800231933588 L -204.28799438476562 -251.49194335937494 L -204.2760009765625 -251.50300598144526 L -204.23899841308594 -251.53799438476557 L -204.2030029296875 -251.57600402832026 L -204.16900634765625 -251.61399841308588 L -204.13600158691406 -251.65299987792963 L -204.10499572753906 -251.69200134277338 L -204.0749969482422 -251.73300170898432 L -204.0469970703125 -251.77400207519526 L -204.02000427246094 -251.81599426269526 L -203.9949951171875 -251.85899353027338 L -203.9720001220703 -251.9019927978515 L -203.970947265625 -251.90400695800776 L -203.94900512695312 -251.94599914550776 L -203.9290008544922 -251.990005493164 L -203.91000366210938 -252.03500366210932 L -203.89199829101562 -252.0809936523437 L -203.87600708007812 -252.12600708007807 L -203.86199951171875 -252.17300415039057 L -203.8489990234375 -252.21899414062494 L -203.83700561523438 -252.2660064697265 L -203.82699584960938 -252.313003540039 L -203.81900024414062 -252.36099243164057 L -203.81199645996094 -252.40800476074213 L -203.81117248535156 -252.41600036621088 L -203.8070068359375 -252.4559936523437 L -203.80299377441406 -252.50399780273432 L -203.80099487304688 -252.55200195312494 L -203.8000030517578 -252.60000610351557 L -203.80099487304688 -252.64799499511713 L -203.80299377441406 -252.69599914550776 L -203.8070068359375 -252.74400329589838 L -203.81199645996094 -252.792007446289 L -203.81900024414062 -252.8390045166015 L -203.82699584960938 -252.88699340820307 L -203.83572387695312 -252.927993774414 L -203.83700561523438 -252.93400573730463 L -203.8489990234375 -252.98100280761713 L -203.86199951171875 -253.02799987792963 L -203.87600708007812 -253.07400512695307 L -203.89199829101562 -253.11999511718744 L -203.91000366210938 -253.16499328613276 L -203.9290008544922 -253.21000671386713 L -203.94900512695312 -253.25399780273432 L -203.9949951171875 -253.34199523925776 L -204.02000427246094 -253.38400268554682 L -204.0469970703125 -253.42599487304682 L -204.0565643310547 -253.4400024414062 L -204.0749969482422 -253.46699523925776 L -204.10499572753906 -253.5079956054687 L -204.13600158691406 -253.54800415039057 L -204.16900634765625 -253.58700561523432 L -204.2030029296875 -253.62499999999994 L -204.23899841308594 -253.6620025634765 L -204.2760009765625 -253.69799804687494 L -204.28799438476562 -253.70874023437494 L -204.31399536132812 -253.7319946289062 L -204.35299682617188 -253.76499938964838 L -204.39300537109375 -253.79600524902338 L -204.43299865722656 -253.82600402832026 L -204.47500610351562 -253.85400390624994 L -204.51699829101562 -253.8809967041015 L -204.5590057373047 -253.90600585937494 L -204.60299682617188 -253.9299926757812 L -204.64599609375 -253.95199584960932 L -204.6909942626953 -253.97200012207026 L -204.73599243164062 -253.99099731445307 L -204.781005859375 -254.00900268554682 L -204.8000030517578 -254.01560974121088 L -204.82699584960938 -254.02499389648432 L -204.8730010986328 -254.03999328613276 L -204.9199981689453 -254.052993774414 L -204.96600341796875 -254.06399536132807 L -205.01400756835938 -254.07400512695307 L -205.06100463867188 -254.08200073242182 L -205.10899353027344 -254.0890045166015 L -205.156005859375 -254.09500122070307 L -205.2519989013672 -254.10099792480463 L -205.31199645996094 -254.10099792480463 L -205.34800720214844 -254.10099792480463 L -205.44400024414062 -254.09500122070307 L -205.49200439453125 -254.0890045166015 L -205.53900146484375 -254.08200073242182 L -205.58700561523438 -254.07400512695307 L -205.63400268554688 -254.06399536132807 L -205.68099975585938 -254.052993774414 L -205.7270050048828 -254.03999328613276 L -205.7740020751953 -254.02499389648432 L -205.81900024414062 -254.00900268554682 L -205.82400512695312 -254.00704956054682 L -205.86500549316406 -253.99099731445307 L -205.91000366210938 -253.97200012207026 L -205.95399475097656 -253.95199584960932 L -205.9980010986328 -253.9299926757812 L -206.04100036621094 -253.90600585937494 L -206.08399963378906 -253.8809967041015 L -206.12600708007812 -253.85400390624994 L -206.16700744628906 -253.82600402832026 L -206.20700073242188 -253.79600524902338 L -206.2469940185547 -253.76499938964838 L -206.28599548339844 -253.7319946289062 L -206.32400512695312 -253.69799804687494 L -206.33599853515625 -253.68632507324213 L -206.36099243164062 -253.6620025634765 L -206.39700317382812 -253.62499999999994 L -206.43099975585938 -253.58700561523432 L -206.46400451660156 -253.54800415039057 L -206.4949951171875 -253.5079956054687 L -206.52499389648438 -253.46699523925776 L -206.54344177246094 -253.4400024414062 L -206.55299377441406 -253.42599487304682 L -206.5800018310547 -253.38400268554682 L -206.60499572753906 -253.34199523925776 L -206.62899780273438 -253.29800415039057 L -206.6510009765625 -253.25399780273432 L -206.6719970703125 -253.21000671386713 L -206.6909942626953 -253.16499328613276 L -206.70799255371094 -253.11999511718744 L -206.7239990234375 -253.07400512695307 L -206.73899841308594 -253.02799987792963 L -206.7519989013672 -252.98100280761713 L -206.76300048828125 -252.93400573730463 L -206.7642822265625 -252.927993774414 L -206.7729949951172 -252.88699340820307 L -206.781005859375 -252.8390045166015 L -206.78799438476562 -252.792007446289 L -206.79400634765625 -252.74400329589838 L -206.8000030517578 -252.64799499511713 L -206.80099487304688 -252.60000610351557 L -206.8000030517578 -252.55200195312494 L -206.79400634765625 -252.4559936523437 L -206.78900146484375 -252.41600036621088 L -206.78799438476562 -252.40800476074213 L -206.781005859375 -252.36099243164057 L -206.7729949951172 -252.313003540039 L -206.76300048828125 -252.2660064697265 L -206.7519989013672 -252.21899414062494 L -206.73899841308594 -252.17300415039057 L -206.7239990234375 -252.12600708007807 L -206.70799255371094 -252.0809936523437 L -206.6909942626953 -252.03500366210932 L -206.6719970703125 -251.990005493164 L -206.6510009765625 -251.94599914550776 L -206.6300048828125 -251.90400695800776 L -206.62899780273438 -251.9019927978515 L -206.60499572753906 -251.85899353027338 L -206.5800018310547 -251.81599426269526 L -206.55299377441406 -251.77400207519526 L -206.52499389648438 -251.73300170898432 L -206.4949951171875 -251.69200134277338 L -206.46400451660156 -251.65299987792963 L -206.43099975585938 -251.61399841308588 L -206.39700317382812 -251.57600402832026 L -206.36099243164062 -251.53799438476557 M -110.00299835205078 -266.0020141601562 L -112.00199890136719 -266.0020141601562 L -112.00199890136719 -263.9970092773437 L -110.00299835205078 -263.9970092773437 L -109.99700164794922 -263.9970092773437 L -109.99700164794922 -266.0020141601562 L -110.00299835205078 -266.0020141601562 M -109.99700164794922 -141.99800109863278 L -109.99700164794922 -144.00300598144528 L -110.00299835205078 -144.00300598144528 L -112.00199890136719 -144.00300598144528 L -112.00199890136719 -141.99800109863278 L -110.00299835205078 -141.99800109863278 L -109.99700164794922 -141.99800109863278 M 2.003000020980835 -266.0020141601562 L -0.003000000026077032 -266.0020141601562 L -0.003000000026077032 -263.9970092773437 L 2.003000020980835 -263.9970092773437 L 2.003000020980835 -266.0020141601562 M 2.003000020980835 -141.99800109863278 L 2.003000020980835 -144.00300598144528 L -0.003000000026077032 -144.00300598144528 L -0.003000000026077032 -141.99800109863278 L 2.003000020980835 -141.99800109863278 M -88.99800109863281 -183.00300598144528 L -95.00299835205078 -183.00300598144528 L -95.00299835205078 -180.99800109863278 L -94.79399871826172 -180.99800109863278 L -91.84300231933594 -180.99800109863278 L -91.16799926757812 -180.99800109863278 L -88.99800109863281 -180.99800109863278 L -88.99800109863281 -183.00300598144528 M -91.16799926757812 -161.39999389648435 L -91.84300231933594 -161.39999389648435 L -94.79399871826172 -161.39999389648435 L -95.00299835205078 -161.39999389648435 L -95.09500122070312 -161.39999389648435 L -95.09500122070312 -158.94999694824216 L -95.00299835205078 -158.94999694824216 L -94.79399871826172 -158.94999694824216 L -91.84300231933594 -158.94999694824216 L -91.16799926757812 -158.94999694824216 L -88.99800109863281 -158.94999694824216 L -82.83999633789062 -158.94999694824216 L -82.83999633789062 -161.39999389648435 L -88.99800109863281 -161.39999389648435 L -91.16799926757812 -161.39999389648435 M -70.50199890136719 -275.4030151367187 L -70.50199890136719 -270.3980102539062 L -65.49700164794922 -270.3980102539062 L -65.49700164794922 -275.4030151367187 L -70.50199890136719 -275.4030151367187 M -65.49700164794922 -235.40299987792963 L -70.50199890136719 -235.40299987792963 L -70.50199890136719 -230.39799499511713 L -65.49700164794922 -230.39799499511713 L -65.49700164794922 -235.40299987792963 M -149.9980010986328 -274.99999999999994 L -156 -274.99999999999994 L -156 -270.9979858398437 L -156 -268.9979858398437 L -149.9980010986328 -268.9979858398437 L -149.9980010986328 -274.99999999999994 M -170.99899291992188 -270.9979858398437 L -170.99899291992188 -274.0029907226562 L -181.00100708007812 -274.0029907226562 L -181.00100708007812 -270.9979858398437 L -170.99899291992188 -270.9979858398437 M -165.9980010986328 -274.0029907226562 L -165.9980010986328 -270.9979858398437 L -160.9980010986328 -270.9979858398437 L -160.9980010986328 -274.0029907226562 L -165.9980010986328 -274.0029907226562 M -195.9980010986328 -268.9979858398437 L -195.9980010986328 -274.99999999999994 L -202 -274.99999999999994 L -202 -268.9979858398437 L -195.9980010986328 -268.9979858398437 M -120.99700164794922 -244.99699401855463 L -120.99700164794922 -247.00199890136713 L -123.00199890136719 -247.00199890136713 L -123.00199890136719 -244.99699401855463 L -120.99700164794922 -244.99699401855463 M -118.99800109863281 -141.99800109863278 L -118.99800109863281 -144.00300598144528 L -119.00299835205078 -144.00300598144528 L -120.99800109863281 -144.00300598144528 L -121.00299835205078 -144.00300598144528 L -121.00299835205078 -141.99800109863278 L -120.99800109863281 -141.99800109863278 L -119.00299835205078 -141.99800109863278 L -118.99800109863281 -141.99800109863278 M -120.99800109863281 -230.99699401855463 L -120.99800109863281 -233.00199890136713 L -123.00299835205078 -233.00199890136713 L -123.00299835205078 -230.99699401855463 L -121.00299835205078 -230.99699401855463 L -120.99800109863281 -230.99699401855463 M -129.0030059814453 -134.99699401855466 L -125.99700164794922 -134.99699401855466 L -125.99700164794922 -191.00300598144528 L -129.0030059814453 -191.00300598144528 L -129.0030059814453 -134.99699401855466 M -200.0030059814453 -241.00199890136713 L -200.0030059814453 -247.00399780273432 L -202 -247.00399780273432 L -206.0050048828125 -247.00399780273432 L -206.0050048828125 -241.00199890136713 L -202 -241.00199890136713 L -200.0030059814453 -241.00199890136713 M -164.97900390625 -213.46699523925776 L -186.97300720214844 -213.46699523925776 L -186.97300720214844 -210.46299743652338 L -164.97900390625 -210.46299743652338 L -164.97900390625 -213.46699523925776 M -164.97900390625 -221.99800109863276 L -161.9969940185547 -221.99800109863276 L -161.9969940185547 -224.99800109863276 L -164.97900390625 -224.99800109863276 L -186.97300720214844 -224.99800109863276 L -193.0030059814453 -224.99800109863276 L -193.0030059814453 -221.99800109863276 L -186.97300720214844 -221.99800109863276 L -164.97900390625 -221.99800109863276 M -151.9969940185547 -247.00399780273432 L -151.9969940185547 -241.00199890136713 L -145.9949951171875 -241.00199890136713 L -145.9949951171875 -247.00399780273432 L -151.9969940185547 -247.00399780273432 M -118.99800109863281 -266.0020141601562 L -119.00299835205078 -266.0020141601562 L -121.00299835205078 -266.0020141601562 L -121.00299835205078 -263.9970092773437 L -119.00299835205078 -263.9970092773437 L -118.99800109863281 -263.9970092773437 L -118.99800109863281 -266.0020141601562 M -231.0030059814453 -247.00199890136713 L -231.0030059814453 -244.99699401855463 L -228.9980010986328 -244.99699401855463 L -228.9980010986328 -247.00199890136713 L -231.0030059814453 -247.00199890136713 M -228.9980010986328 -179.15199279785153 L -231.0030059814453 -179.15199279785153 L -231.0030059814453 -174.15199279785153 L -227.9980010986328 -174.15199279785153 L -227.9980010986328 -179.00300598144528 L -227.9980010986328 -179.15199279785153 L -228.9980010986328 -179.15199279785153 M -227.9980010986328 -169.15100097656247 L -231.0030059814453 -169.15100097656247 L -231.0030059814453 -159.14900207519528 L -227.9980010986328 -159.14900207519528 L -227.9980010986328 -169.15100097656247 M -223.0030059814453 -148.99699401855466 L -219.9969940185547 -148.99699401855466 L -219.9969940185547 -179.00300598144528 L -223.0030059814453 -179.00300598144528 L -223.0030059814453 -148.99699401855466 M -233.0019989013672 -263.9970092773437 L -230.9969940185547 -263.9970092773437 L -230.9969940185547 -266.0020141601562 L -233.0019989013672 -266.0020141601562 L -233.0019989013672 -263.9970092773437 z" fill="none" stroke="rgb(255,0,0)" stroke-width="0.001mm" />
</svg>