<?xml version="1.0" standalone="no"?>
<!DOCTYPE svg PUBLIC "-//W3C//DTD SVG 1.1//EN"
  "http://www.w3.org/Graphics/SVG/1.1/DTD/svg11.dtd">
<svg width="122mm" height="141.00000381469724mm" viewBox="-294.0350036621094 -96.0230026245117 122 141.00000381469724" xmlns="http://www.w3.org/2000/svg" version="1.1">
	<title>svgOutput</title>
	<desc>made with tinkercad</desc>
<path d="M -256.5320129394531 -83.00199890136717 L -262.5350036621094 -83.00199890136717 L -262.5350036621094 -79.9970016479492 L -259.0369873046875 -79.9970016479492 L -256.5320129394531 -79.9970016479492 L -256.0369873046875 -79.9970016479492 L -251.03700256347656 -79.9970016479492 L -251.0330047607422 -79.9970016479492 L -244.03199768066406 -79.9970016479492 L -243.5330047607422 -79.9970016479492 L -243.53199768066406 -79.9970016479492 L -240.53700256347656 -79.9970016479492 L -239.23699951171875 -79.9970016479492 L -237.52999877929688 -79.9970016479492 L -237.52999877929688 -83.00199890136717 L -239.23699951171875 -83.00199890136717 L -243.5330047607422 -83.00199890136717 L -243.5330047607422 -88.00299835205077 L -256.5320129394531 -88.00299835205077 L -256.5320129394531 -83.9980010986328 L -256.5320129394531 -83.00199890136717 M -263.00201416015625 43.97700119018554 L -263.00201416015625 40.97399902343749 L -263.5369873046875 40.97399902343749 L -264.3349914550781 40.97399902343749 L -272.5159912109375 40.97399902343749 L -272.5360107421875 40.97399902343749 L -272.5369873046875 40.97399902343749 L -273.00201416015625 40.97399902343749 L -273.00201416015625 43.97700119018554 L -279.5369873046875 43.97700119018554 L -283.03399658203125 43.97700119018554 L -290.0320129394531 36.97900009155273 L -293.0090026855469 34.00199890136718 L -290.0320129394531 34.00199890136718 L -290.0320129394531 -6.002999782562254 L -293.0350036621094 -6.002999782562254 L -293.0350036621094 -59.9980010986328 L -290.0320129394531 -59.9980010986328 L -290.0320129394531 -76.00299835205077 L -293.0350036621094 -76.00299835205077 L -293.0350036621094 -85.0230026245117 L -290.05499267578125 -88.00299835205077 L -286.0369873046875 -92.02100372314452 L -283.0350036621094 -95.0230026245117 L -273.00201416015625 -95.0230026245117 L -273.00201416015625 -92.02100372314452 L -253.00100708007812 -92.02100372314452 L -253.00100708007812 -95.0230026245117 L -243.5330047607422 -95.0230026245117 L -243 -95.0230026245117 L -243 -92.02100372314452 L -239.23699951171875 -92.02100372314452 L -236.23199462890625 -92.02100372314452 L -229.83700561523438 -92.02100372314452 L -226.83200073242188 -92.02100372314452 L -222.99899291992188 -92.02100372314452 L -222.99899291992188 -95.0230026245117 L -222.53599548339844 -95.0230026245117 L -212.9980010986328 -95.0230026245117 L -212.9980010986328 -92.02100372314452 L -192.9969940185547 -92.02100372314452 L -192.9969940185547 -95.0230026245117 L -183.03399658203125 -95.0230026245117 L -180.03199768066406 -92.02100372314452 L -176.01400756835938 -88.00299835205077 L -174.01100158691406 -85.99999999999999 L -173.03500366210938 -85.0240020751953 L -173.03500366210938 -83.9980010986328 L -173.03500366210938 -83.9970016479492 L -173.03500366210938 -79.9980010986328 L -173.03500366210938 -76.00299835205077 L -176.03700256347656 -76.00299835205077 L -176.03700256347656 -66.00199890136717 L -173.03500366210938 -66.00199890136717 L -173.03500366210938 -25.999999999999993 L -176.03700256347656 -25.999999999999993 L -176.03700256347656 -15.998999595642086 L -173.03500366210938 -15.998999595642086 L -173.03500366210938 5.001999855041503 L -176.03700256347656 5.001999855041503 L -176.03700256347656 20.00300025939941 L -173.03500366210938 20.00300025939941 L -173.03500366210938 33.97700119018554 L -176.03700256347656 36.97900009155273 L -183.03500366210938 43.97700119018554 L -186.53199768066406 43.97700119018554 L -192.9969940185547 43.97700119018554 L -192.9969940185547 40.97399902343749 L -193.5330047607422 40.97399902343749 L -196.55299377441406 40.97399902343749 L -202.53199768066406 40.97399902343749 L -202.9980010986328 40.97399902343749 L -202.9980010986328 43.97700119018554 L -203.5330047607422 43.97700119018554 L -209.53700256347656 43.97700119018554 L -210.03199768066406 43.97700119018554 L -212.5330047607422 43.97700119018554 L -215.03599548339844 43.97700119018554 L -217.53199768066406 43.97700119018554 L -222.03700256347656 43.97700119018554 L -222.53599548339844 43.97700119018554 L -228.53799438476562 43.97700119018554 L -229.53199768066406 43.97700119018554 L -236.53700256347656 43.97700119018554 L -237.52999877929688 43.97700119018554 L -239.23699951171875 43.97700119018554 L -240.53700256347656 43.97700119018554 L -243.53199768066406 43.97700119018554 L -243.5330047607422 43.97700119018554 L -244.03199768066406 43.97700119018554 L -248.53700256347656 43.97700119018554 L -251.0330047607422 43.97700119018554 L -253.53599548339844 43.97700119018554 L -256.5320129394531 43.97700119018554 L -259.0360107421875 43.97700119018554 L -259.0369873046875 43.97700119018554 L -262.5350036621094 43.97700119018554 L -263.00201416015625 43.97700119018554 M -201.76199340820312 -85.21399688720702 L -201.7530059814453 -85.26100158691405 L -201.74600219726562 -85.30899810791014 L -201.74099731445312 -85.35700225830077 L -201.73699951171875 -85.40499877929686 L -201.73500061035156 -85.45300292968749 L -201.73399353027344 -85.50099945068358 L -201.73406982421875 -85.50399780273436 L -201.73500061035156 -85.5490036010742 L -201.73699951171875 -85.5970001220703 L -201.74099731445312 -85.64499664306639 L -201.74600219726562 -85.69200134277342 L -201.7530059814453 -85.73999786376952 L -201.76199340820312 -85.78800201416014 L -201.77099609375 -85.83499908447264 L -201.7830047607422 -85.88200378417967 L -201.79600524902344 -85.92800140380858 L -201.80999755859375 -85.97499847412108 L -201.8242645263672 -86.01599884033202 L -201.8260040283203 -86.02100372314452 L -201.843994140625 -86.06600189208983 L -201.86300659179688 -86.11100006103514 L -201.88400268554688 -86.15499877929686 L -201.906005859375 -86.19899749755858 L -201.92999267578125 -86.2429962158203 L -201.9550018310547 -86.28500366210936 L -201.98199462890625 -86.32700347900389 L -202.00999450683594 -86.36900329589842 L -202.0399932861328 -86.40899658203124 L -202.0709991455078 -86.44899749755858 L -202.10400390625 -86.48799896240233 L -202.13800048828125 -86.52600097656249 L -202.1399383544922 -86.52799987792967 L -202.1739959716797 -86.56300354003905 L -202.21099853515625 -86.59899902343749 L -202.24000549316406 -86.62494659423827 L -202.24899291992188 -86.63300323486327 L -202.28799438476562 -86.66600036621092 L -202.3280029296875 -86.69799804687499 L -202.41000366210938 -86.75599670410155 L -202.45199584960938 -86.78199768066405 L -202.4949951171875 -86.80799865722655 L -202.53799438476562 -86.83100128173827 L -202.58200073242188 -86.85299682617186 L -202.62600708007812 -86.87400054931639 L -202.67100524902344 -86.8929977416992 L -202.7169952392578 -86.91100311279295 L -202.7519989013672 -86.92344665527342 L -202.76199340820312 -86.92700195312499 L -202.8090057373047 -86.94100189208983 L -202.85499572753906 -86.95400238037108 L -202.90199279785156 -86.96600341796874 L -202.9499969482422 -86.97599792480467 L -202.9969940185547 -86.98400115966795 L -203.0449981689453 -86.99099731445311 L -203.09300231933594 -86.99600219726561 L -203.13999938964844 -86.99999999999999 L -203.18899536132812 -87.00199890136717 L -203.23699951171875 -87.00299835205077 L -203.26400756835938 -87.00243377685545 L -203.28500366210938 -87.00199890136717 L -203.33299255371094 -86.99999999999999 L -203.38099670410156 -86.99600219726561 L -203.42799377441406 -86.99099731445311 L -203.4759979248047 -86.98400115966795 L -203.5240020751953 -86.97599792480467 L -203.5709991455078 -86.96600341796874 L -203.6179962158203 -86.95400238037108 L -203.66400146484375 -86.94100189208983 L -203.71099853515625 -86.92700195312499 L -203.7570037841797 -86.91100311279295 L -203.7760009765625 -86.9033966064453 L -203.802001953125 -86.8929977416992 L -203.8470001220703 -86.87400054931639 L -203.89100646972656 -86.85299682617186 L -203.93499755859375 -86.83100128173827 L -203.97900390625 -86.80799865722655 L -204.06300354003906 -86.75599670410155 L -204.10499572753906 -86.72699737548827 L -204.14500427246094 -86.69799804687499 L -204.18499755859375 -86.66600036621092 L -204.2239990234375 -86.63300323486327 L -204.26199340820312 -86.59899902343749 L -204.2989959716797 -86.56300354003905 L -204.3330535888672 -86.52799987792967 L -204.3350067138672 -86.52600097656249 L -204.36900329589844 -86.48799896240233 L -204.40199279785156 -86.44899749755858 L -204.43299865722656 -86.40899658203124 L -204.46299743652344 -86.36900329589842 L -204.49200439453125 -86.32700347900389 L -204.54400634765625 -86.2429962158203 L -204.56700134277344 -86.19899749755858 L -204.58900451660156 -86.15499877929686 L -204.61000061035156 -86.11100006103514 L -204.62899780273438 -86.06600189208983 L -204.64700317382812 -86.02100372314452 L -204.64874267578125 -86.01599884033202 L -204.66299438476562 -85.97499847412108 L -204.677001953125 -85.92800140380858 L -204.69000244140625 -85.88200378417967 L -204.70199584960938 -85.83499908447264 L -204.71200561523438 -85.78800201416014 L -204.72000122070312 -85.73999786376952 L -204.7270050048828 -85.69200134277342 L -204.73199462890625 -85.64499664306639 L -204.73599243164062 -85.5970001220703 L -204.73800659179688 -85.5490036010742 L -204.7389373779297 -85.50399780273436 L -204.73899841308594 -85.50099945068358 L -204.73800659179688 -85.45300292968749 L -204.73599243164062 -85.40499877929686 L -204.73199462890625 -85.35700225830077 L -204.7270050048828 -85.30899810791014 L -204.72000122070312 -85.26100158691405 L -204.71200561523438 -85.21399688720702 L -204.70199584960938 -85.16600036621092 L -204.69000244140625 -85.11900329589842 L -204.677001953125 -85.07299804687499 L -204.66299438476562 -85.02700042724608 L -204.6508331298828 -84.9919967651367 L -204.64700317382812 -84.98100280761717 L -204.62899780273438 -84.93499755859374 L -204.61000061035156 -84.88999938964842 L -204.58900451660156 -84.8460006713867 L -204.56700134277344 -84.80200195312499 L -204.54400634765625 -84.75900268554686 L -204.51800537109375 -84.71600341796874 L -204.49200439453125 -84.6740036010742 L -204.46299743652344 -84.63300323486327 L -204.43299865722656 -84.59200286865233 L -204.40199279785156 -84.55200195312499 L -204.36900329589844 -84.51300048828124 L -204.3394775390625 -84.48000335693358 L -204.3350067138672 -84.47499847412108 L -204.2989959716797 -84.43800354003905 L -204.28799438476562 -84.4272994995117 L -204.26199340820312 -84.40200042724608 L -204.2239990234375 -84.3679962158203 L -204.18499755859375 -84.33499908447264 L -204.14500427246094 -84.30400085449217 L -204.10499572753906 -84.2740020751953 L -204.06300354003906 -84.24600219726561 L -204.02099609375 -84.21900177001952 L -203.97900390625 -84.19400024414061 L -203.93499755859375 -84.1699981689453 L -203.89100646972656 -84.1480026245117 L -203.8470001220703 -84.12699890136717 L -203.802001953125 -84.10800170898436 L -203.7760009765625 -84.09817504882811 L -203.7570037841797 -84.09100341796874 L -203.71099853515625 -84.07399749755858 L -203.66400146484375 -84.05999755859374 L -203.6179962158203 -84.04699707031249 L -203.5709991455078 -84.03600311279295 L -203.5240020751953 -84.02600097656249 L -203.4759979248047 -84.01699829101561 L -203.42799377441406 -84.01000213623045 L -203.38099670410156 -84.00499725341795 L -203.33299255371094 -84.00099945068358 L -203.28500366210938 -83.99900054931639 L -203.26400756835938 -83.99856567382811 L -203.23699951171875 -83.9980010986328 L -203.18899536132812 -83.99900054931639 L -203.13999938964844 -84.00099945068358 L -203.09300231933594 -84.00499725341795 L -203.0449981689453 -84.01000213623045 L -202.9969940185547 -84.01699829101561 L -202.9499969482422 -84.02600097656249 L -202.90199279785156 -84.03600311279295 L -202.85499572753906 -84.04699707031249 L -202.8090057373047 -84.05999755859374 L -202.76199340820312 -84.07399749755858 L -202.7519989013672 -84.07777404785155 L -202.7169952392578 -84.09100341796874 L -202.67100524902344 -84.10800170898436 L -202.62600708007812 -84.12699890136717 L -202.58200073242188 -84.1480026245117 L -202.53799438476562 -84.1699981689453 L -202.4949951171875 -84.19400024414061 L -202.45199584960938 -84.21900177001952 L -202.41000366210938 -84.24600219726561 L -202.36900329589844 -84.2740020751953 L -202.3280029296875 -84.30400085449217 L -202.28799438476562 -84.33499908447264 L -202.24899291992188 -84.3679962158203 L -202.24000549316406 -84.3760528564453 L -202.21099853515625 -84.40200042724608 L -202.1739959716797 -84.43800354003905 L -202.13800048828125 -84.47499847412108 L -202.13352966308594 -84.48000335693358 L -202.10400390625 -84.51300048828124 L -202.0709991455078 -84.55200195312499 L -202.0399932861328 -84.59200286865233 L -202.00999450683594 -84.63300323486327 L -201.98199462890625 -84.6740036010742 L -201.9550018310547 -84.71600341796874 L -201.92999267578125 -84.75900268554686 L -201.906005859375 -84.80200195312499 L -201.88400268554688 -84.8460006713867 L -201.86300659179688 -84.88999938964842 L -201.843994140625 -84.93499755859374 L -201.8260040283203 -84.98100280761717 L -201.82217407226562 -84.9919967651367 L -201.80999755859375 -85.02700042724608 L -201.79600524902344 -85.07299804687499 L -201.7830047607422 -85.11900329589842 L -201.77175903320312 -85.16300201416014 L -201.77099609375 -85.16600036621092 L -201.76199340820312 -85.21399688720702 M -222.53599548339844 -83.00199890136717 L -228.53799438476562 -83.00199890136717 L -228.53799438476562 -79.9970016479492 L -225.53199768066406 -79.9970016479492 L -222.53599548339844 -79.9970016479492 L -222.03700256347656 -79.9970016479492 L -215.03599548339844 -79.9970016479492 L -215.03199768066406 -79.9970016479492 L -211.0330047607422 -79.9970016479492 L -210.03199768066406 -79.9970016479492 L -209.53700256347656 -79.9970016479492 L -207.03199768066406 -79.9970016479492 L -203.5330047607422 -79.9970016479492 L -203.5330047607422 -83.00199890136717 L -209.53700256347656 -83.00199890136717 L -209.53700256347656 -83.9970016479492 L -209.53700256347656 -88.00299835205077 L -222.53599548339844 -88.00299835205077 L -222.53599548339844 -83.9970016479492 L -222.53599548339844 -83.00199890136717 M -236.53700256347656 -76.00299835205077 L -237.52999877929688 -76.00299835205077 L -239.23699951171875 -76.00299835205077 L -240.53700256347656 -76.00299835205077 L -243.53199768066406 -76.00299835205077 L -243.5330047607422 -76.00299835205077 L -244.03199768066406 -76.00299835205077 L -251.0330047607422 -76.00299835205077 L -251.03700256347656 -76.00299835205077 L -251.03700256347656 -71.9980010986328 L -251.0330047607422 -71.9980010986328 L -251.0330047607422 -63.9980010986328 L -248.53700256347656 -63.9980010986328 L -244.03199768066406 -63.9980010986328 L -244.03199768066406 -71.9980010986328 L -243.5330047607422 -71.9980010986328 L -243.53199768066406 -71.9980010986328 L -240.53700256347656 -71.9980010986328 L -239.23699951171875 -71.9980010986328 L -237.52999877929688 -71.9980010986328 L -236.53700256347656 -71.9980010986328 L -236.53700256347656 -68.9980010986328 L -229.53199768066406 -68.9980010986328 L -229.53199768066406 -71.9980010986328 L -228.53799438476562 -71.9980010986328 L -225.53199768066406 -71.9980010986328 L -222.53599548339844 -71.9980010986328 L -222.03700256347656 -71.9980010986328 L -222.03700256347656 -63.9980010986328 L -217.53199768066406 -63.9980010986328 L -215.03599548339844 -63.9980010986328 L -215.03599548339844 -71.9980010986328 L -215.03199768066406 -71.9980010986328 L -215.03199768066406 -76.00299835205077 L -215.03599548339844 -76.00299835205077 L -222.03700256347656 -76.00299835205077 L -222.53599548339844 -76.00299835205077 L -225.53199768066406 -76.00299835205077 L -228.53799438476562 -76.00299835205077 L -229.53199768066406 -76.00299835205077 L -229.53199768066406 -81.00299835205077 L -236.53700256347656 -81.00299835205077 L -236.53700256347656 -76.00299835205077 M -256.0432434082031 -57.34400177001952 L -256.04998779296875 -57.4459991455078 L -256.0880126953125 -57.63899993896483 L -256.1510009765625 -57.82500076293944 L -256.2380065917969 -58.00099945068358 L -256.34698486328125 -58.16500091552733 L -256.47601318359375 -58.31200027465819 L -256.5320129394531 -58.36119079589842 L -256.6239929199219 -58.44200134277342 L -256.7869873046875 -58.550998687744126 L -256.9630126953125 -58.638000488281236 L -257.02398681640625 -58.65866088867186 L -257.14898681640625 -58.70100021362303 L -257.34100341796875 -58.74000167846678 L -257.5369873046875 -58.75299835205077 L -257.7330017089844 -58.74000167846678 L -257.92498779296875 -58.70100021362303 L -258.0480041503906 -58.65933990478514 L -258.1109924316406 -58.638000488281236 L -258.2869873046875 -58.550998687744126 L -258.45001220703125 -58.44200134277342 L -258.5979919433594 -58.31200027465819 L -258.72698974609375 -58.16500091552733 L -258.83599853515625 -58.00099945068358 L -258.9230041503906 -57.82500076293944 L -258.9859924316406 -57.63899993896483 L -259.02398681640625 -57.4459991455078 L -259.03076171875 -57.34400177001952 L -259.0369873046875 -57.249999999999986 L -259.02398681640625 -57.05400085449217 L -258.9859924316406 -56.86100006103514 L -258.9230041503906 -56.67499923706053 L -258.83599853515625 -56.49900054931639 L -258.72698974609375 -56.33499908447264 L -258.5979919433594 -56.18799972534178 L -258.45001220703125 -56.05799865722655 L -258.2869873046875 -55.949001312255845 L -258.1109924316406 -55.861999511718736 L -258.0480041503906 -55.84066009521483 L -257.92498779296875 -55.79899978637694 L -257.7330017089844 -55.75999832153319 L -257.5369873046875 -55.7480010986328 L -257.34100341796875 -55.75999832153319 L -257.14898681640625 -55.79899978637694 L -257.02398681640625 -55.84133911132811 L -256.9630126953125 -55.861999511718736 L -256.7869873046875 -55.949001312255845 L -256.6239929199219 -56.05799865722655 L -256.5320129394531 -56.13880920410155 L -256.47601318359375 -56.18799972534178 L -256.34698486328125 -56.33499908447264 L -256.2380065917969 -56.49900054931639 L -256.1510009765625 -56.67499923706053 L -256.0880126953125 -56.86100006103514 L -256.04998779296875 -57.05400085449217 L -256.0369873046875 -57.249999999999986 L -256.0432434082031 -57.34400177001952 M -256.23699951171875 4.248000144958495 L -256.161865234375 4.09600019454956 L -256.1499938964844 4.07200002670288 L -256.0870056152344 3.885999917984008 L -256.04901123046875 3.694000005722045 L -256.0360107421875 3.497999906539916 L -256.04901123046875 3.3020000457763663 L -256.0870056152344 3.1099998950958243 L -256.0998840332031 3.07200002670288 L -256.1499938964844 2.924000024795532 L -256.23699951171875 2.7479999065399165 L -256.34600830078125 2.585000038146972 L -256.47601318359375 2.4370000362396236 L -256.5320129394531 2.3878571987152095 L -256.62298583984375 2.3080000877380367 L -256.7860107421875 2.1989998817443843 L -256.9620056152344 2.1119999885559078 L -257.14801025390625 2.049000024795532 L -257.1529541015625 2.04800009727478 L -257.34100341796875 2.0099999904632564 L -257.5360107421875 1.998000025749206 L -257.73199462890625 2.0099999904632564 L -257.9200439453125 2.04800009727478 L -257.92498779296875 2.049000024795532 L -258.0480041503906 2.09088659286499 L -258.1099853515625 2.1119999885559078 L -258.2860107421875 2.1989998817443843 L -258.45001220703125 2.3080000877380367 L -258.59698486328125 2.4370000362396236 L -258.72601318359375 2.585000038146972 L -258.8349914550781 2.7479999065399165 L -258.9219970703125 2.924000024795532 L -258.9849853515625 3.1099998950958243 L -259.02398681640625 3.3020000457763663 L -259.0360107421875 3.497999906539916 L -259.02398681640625 3.694000005722045 L -258.9849853515625 3.885999917984008 L -258.9219970703125 4.07200002670288 L -258.9101257324219 4.09600019454956 L -258.8349914550781 4.248000144958495 L -258.72601318359375 4.41099977493286 L -258.59698486328125 4.559000015258788 L -258.45001220703125 4.688000202178954 L -258.2860107421875 4.796999931335448 L -258.1099853515625 4.883999824523925 L -258.0480041503906 4.905113697052001 L -257.92498779296875 4.94700002670288 L -257.73199462890625 4.985000133514403 L -257.5360107421875 4.998000144958495 L -257.34100341796875 4.985000133514403 L -257.14801025390625 4.94700002670288 L -256.9620056152344 4.883999824523925 L -256.7860107421875 4.796999931335448 L -256.62298583984375 4.688000202178954 L -256.5320129394531 4.608142852783202 L -256.47601318359375 4.559000015258788 L -256.34600830078125 4.41099977493286 L -256.23699951171875 4.248000144958495 M -256.04901123046875 20.777999877929684 L -256.0870056152344 20.584999084472653 L -256.12255859375 20.479999542236325 L -256.1499938964844 20.399000167846676 L -256.23699951171875 20.222999572753903 L -256.34600830078125 20.05999946594238 L -256.47601318359375 19.912000656127926 L -256.5320129394531 19.862857818603512 L -256.62298583984375 19.78300094604492 L -256.7860107421875 19.67399978637695 L -256.9620056152344 19.586999893188473 L -257.14801025390625 19.524000167846676 L -257.34100341796875 19.486000061035153 L -257.5360107421875 19.472999572753903 L -257.73199462890625 19.486000061035153 L -257.92498779296875 19.524000167846676 L -258.0480041503906 19.56588554382324 L -258.1099853515625 19.586999893188473 L -258.2860107421875 19.67399978637695 L -258.45001220703125 19.78300094604492 L -258.59698486328125 19.912000656127926 L -258.72601318359375 20.05999946594238 L -258.8349914550781 20.222999572753903 L -258.9219970703125 20.399000167846676 L -258.9494323730469 20.479999542236325 L -258.9849853515625 20.584999084472653 L -259.02398681640625 20.777999877929684 L -259.0360107421875 20.972999572753903 L -259.02398681640625 21.169000625610348 L -258.9849853515625 21.361999511718746 L -258.9219970703125 21.548000335693356 L -258.8349914550781 21.72400093078613 L -258.72601318359375 21.88699913024902 L -258.59698486328125 22.034000396728512 L -258.45001220703125 22.163999557495114 L -258.2860107421875 22.273000717163082 L -258.1099853515625 22.36000061035156 L -258.0480041503906 22.38111305236816 L -257.92498779296875 22.423000335693356 L -257.73199462890625 22.46100044250488 L -257.5360107421875 22.47400093078613 L -257.34100341796875 22.46100044250488 L -257.14801025390625 22.423000335693356 L -257.02398681640625 22.381000518798825 L -256.9620056152344 22.36000061035156 L -256.7860107421875 22.273000717163082 L -256.62298583984375 22.163999557495114 L -256.5320129394531 22.08352470397949 L -256.47601318359375 22.034000396728512 L -256.34600830078125 21.88699913024902 L -256.23699951171875 21.72400093078613 L -256.1499938964844 21.548000335693356 L -256.0870056152344 21.361999511718746 L -256.04901123046875 21.169000625610348 L -256.0360107421875 20.972999572753903 L -256.04901123046875 20.777999877929684 M -255.03599548339844 -38.50199890136718 L -256.5320129394531 -38.50199890136718 L -259.0369873046875 -38.50199890136718 L -262.5350036621094 -38.50199890136718 L -264.3349914550781 -38.50199890136718 L -269.5159912109375 -38.50199890136718 L -270.0369873046875 -38.50199890136718 L -270.0369873046875 -23.496999740600582 L -269.5159912109375 -23.496999740600582 L -264.3349914550781 -23.496999740600582 L -262.5350036621094 -23.496999740600582 L -259.0369873046875 -23.496999740600582 L -256.5320129394531 -23.496999740600582 L -255.03599548339844 -23.496999740600582 L -255.03599548339844 -38.50199890136718 M -264.2250061035156 -84.93499755859374 L -264.20599365234375 -84.88999938964842 L -264.1919860839844 -84.86066436767577 L -264.18499755859375 -84.8460006713867 L -264.1629943847656 -84.80200195312499 L -264.1390075683594 -84.75900268554686 L -264.114013671875 -84.71600341796874 L -264.0880126953125 -84.6740036010742 L -264.0589904785156 -84.63300323486327 L -264.02899169921875 -84.59200286865233 L -263.99798583984375 -84.55200195312499 L -263.9649963378906 -84.51300048828124 L -263.93548583984375 -84.48000335693358 L -263.9309997558594 -84.47499847412108 L -263.8949890136719 -84.43800354003905 L -263.8580017089844 -84.40200042724608 L -263.82000732421875 -84.3679962158203 L -263.781005859375 -84.33499908447264 L -263.7409973144531 -84.30400085449217 L -263.70098876953125 -84.2740020751953 L -263.67999267578125 -84.26000213623045 L -263.65899658203125 -84.24600219726561 L -263.61700439453125 -84.21900177001952 L -263.57501220703125 -84.19400024414061 L -263.531005859375 -84.1699981689453 L -263.48699951171875 -84.1480026245117 L -263.4429931640625 -84.12699890136717 L -263.39801025390625 -84.10800170898436 L -263.35198974609375 -84.09100341796874 L -263.3070068359375 -84.07399749755858 L -263.3018493652344 -84.0724639892578 L -263.260009765625 -84.05999755859374 L -263.2139892578125 -84.04699707031249 L -263.1679992675781 -84.03623199462889 L -263.1669921875 -84.03600311279295 L -263.1189880371094 -84.02600097656249 L -263.0719909667969 -84.01699829101561 L -263.02398681640625 -84.01000213623045 L -262.97698974609375 -84.00499725341795 L -262.9289855957031 -84.00099945068358 L -262.8810119628906 -83.99900054931639 L -262.8330078125 -83.9980010986328 L -262.78399658203125 -83.99900054931639 L -262.7359924316406 -84.00099945068358 L -262.68798828125 -84.00499725341795 L -262.656005859375 -84.00840759277342 L -262.6409912109375 -84.01000213623045 L -262.5929870605469 -84.01699829101561 L -262.5459899902344 -84.02600097656249 L -262.49798583984375 -84.03600311279295 L -262.45098876953125 -84.04699707031249 L -262.4049987792969 -84.05999755859374 L -262.3580017089844 -84.07399749755858 L -262.31298828125 -84.09100341796874 L -262.2669982910156 -84.10800170898436 L -262.2585144042969 -84.11158752441405 L -262.22198486328125 -84.12699890136717 L -262.1780090332031 -84.1480026245117 L -262.1440124511719 -84.16500091552733 L -262.1340026855469 -84.1699981689453 L -262.0899963378906 -84.19400024414061 L -262.0480041503906 -84.21900177001952 L -262.0060119628906 -84.24600219726561 L -261.9639892578125 -84.2740020751953 L -261.92401123046875 -84.30400085449217 L -261.8840026855469 -84.33499908447264 L -261.8450012207031 -84.3679962158203 L -261.8070068359375 -84.40200042724608 L -261.7699890136719 -84.43800354003905 L -261.7340087890625 -84.47499847412108 L -261.7295227050781 -84.48000335693358 L -261.70001220703125 -84.51300048828124 L -261.6669921875 -84.55200195312499 L -261.635986328125 -84.59200286865233 L -261.6059875488281 -84.63300323486327 L -261.5780029296875 -84.6740036010742 L -261.5509948730469 -84.71600341796874 L -261.5260009765625 -84.75900268554686 L -261.50201416015625 -84.80200195312499 L -261.4800109863281 -84.8460006713867 L -261.4590148925781 -84.88999938964842 L -261.44000244140625 -84.93499755859374 L -261.4219970703125 -84.98100280761717 L -261.4181823730469 -84.9919967651367 L -261.406005859375 -85.02700042724608 L -261.3919982910156 -85.07299804687499 L -261.3789978027344 -85.11900329589842 L -261.36700439453125 -85.16600036621092 L -261.35699462890625 -85.21399688720702 L -261.3489990234375 -85.26100158691405 L -261.3420104980469 -85.30899810791014 L -261.3370056152344 -85.35700225830077 L -261.3330078125 -85.40499877929686 L -261.33099365234375 -85.45300292968749 L -261.3299865722656 -85.50099945068358 L -261.3300476074219 -85.50399780273436 L -261.33099365234375 -85.5490036010742 L -261.3330078125 -85.5970001220703 L -261.3370056152344 -85.64499664306639 L -261.3420104980469 -85.69200134277342 L -261.3489990234375 -85.73999786376952 L -261.35699462890625 -85.78800201416014 L -261.36700439453125 -85.83499908447264 L -261.3789978027344 -85.88200378417967 L -261.3919982910156 -85.92800140380858 L -261.406005859375 -85.97499847412108 L -261.4202575683594 -86.01599884033202 L -261.4219970703125 -86.02100372314452 L -261.44000244140625 -86.06600189208983 L -261.4590148925781 -86.11100006103514 L -261.4800109863281 -86.15499877929686 L -261.50201416015625 -86.19899749755858 L -261.5260009765625 -86.2429962158203 L -261.5509948730469 -86.28500366210936 L -261.5780029296875 -86.32700347900389 L -261.6059875488281 -86.36900329589842 L -261.635986328125 -86.40899658203124 L -261.6669921875 -86.44899749755858 L -261.70001220703125 -86.48799896240233 L -261.7340087890625 -86.52600097656249 L -261.7359313964844 -86.52799987792967 L -261.7699890136719 -86.56300354003905 L -261.8070068359375 -86.59899902343749 L -261.8450012207031 -86.63300323486327 L -261.8840026855469 -86.66600036621092 L -261.92401123046875 -86.69799804687499 L -261.9639892578125 -86.72699737548827 L -262.0060119628906 -86.75599670410155 L -262.0899963378906 -86.80799865722655 L -262.1340026855469 -86.83100128173827 L -262.1440124511719 -86.83599853515624 L -262.1780090332031 -86.85299682617186 L -262.22198486328125 -86.87400054931639 L -262.2669982910156 -86.8929977416992 L -262.31298828125 -86.91100311279295 L -262.3580017089844 -86.92700195312499 L -262.4049987792969 -86.94100189208983 L -262.45098876953125 -86.95400238037108 L -262.49798583984375 -86.96600341796874 L -262.5459899902344 -86.97599792480467 L -262.5929870605469 -86.98400115966795 L -262.6409912109375 -86.99099731445311 L -262.656005859375 -86.99259948730467 L -262.68798828125 -86.99600219726561 L -262.7359924316406 -86.99999999999999 L -262.78399658203125 -87.00199890136717 L -262.8330078125 -87.00299835205077 L -262.8810119628906 -87.00199890136717 L -262.9289855957031 -86.99999999999999 L -262.97698974609375 -86.99600219726561 L -263.02398681640625 -86.99099731445311 L -263.0719909667969 -86.98400115966795 L -263.1189880371094 -86.97599792480467 L -263.1669921875 -86.96600341796874 L -263.1679992675781 -86.96574401855467 L -263.2139892578125 -86.95400238037108 L -263.260009765625 -86.94100189208983 L -263.3070068359375 -86.92700195312499 L -263.35198974609375 -86.91100311279295 L -263.39801025390625 -86.8929977416992 L -263.4429931640625 -86.87400054931639 L -263.48699951171875 -86.85299682617186 L -263.531005859375 -86.83100128173827 L -263.57501220703125 -86.80799865722655 L -263.65899658203125 -86.75599670410155 L -263.67999267578125 -86.74150085449217 L -263.70098876953125 -86.72699737548827 L -263.7409973144531 -86.69799804687499 L -263.781005859375 -86.66600036621092 L -263.82000732421875 -86.63300323486327 L -263.8580017089844 -86.59899902343749 L -263.8949890136719 -86.56300354003905 L -263.9290466308594 -86.52799987792967 L -263.9309997558594 -86.52600097656249 L -263.9649963378906 -86.48799896240233 L -263.99798583984375 -86.44899749755858 L -264.02899169921875 -86.40899658203124 L -264.0589904785156 -86.36900329589842 L -264.0880126953125 -86.32700347900389 L -264.114013671875 -86.28500366210936 L -264.1390075683594 -86.2429962158203 L -264.1629943847656 -86.19899749755858 L -264.18499755859375 -86.15499877929686 L -264.1919860839844 -86.1403350830078 L -264.20599365234375 -86.11100006103514 L -264.2250061035156 -86.06600189208983 L -264.2430114746094 -86.02100372314452 L -264.2447509765625 -86.01599884033202 L -264.2590026855469 -85.97499847412108 L -264.27301025390625 -85.92800140380858 L -264.2860107421875 -85.88200378417967 L -264.2980041503906 -85.83499908447264 L -264.3080139160156 -85.78800201416014 L -264.3160095214844 -85.73999786376952 L -264.322998046875 -85.69200134277342 L -264.3280029296875 -85.64499664306639 L -264.3320007324219 -85.5970001220703 L -264.3340148925781 -85.5490036010742 L -264.3349304199219 -85.50399780273436 L -264.3349914550781 -85.50099945068358 L -264.3340148925781 -85.45300292968749 L -264.3320007324219 -85.40499877929686 L -264.3280029296875 -85.35700225830077 L -264.322998046875 -85.30899810791014 L -264.3160095214844 -85.26100158691405 L -264.3080139160156 -85.21399688720702 L -264.2980041503906 -85.16600036621092 L -264.2860107421875 -85.11900329589842 L -264.27301025390625 -85.07299804687499 L -264.2590026855469 -85.02700042724608 L -264.246826171875 -84.9919967651367 L -264.2430114746094 -84.98100280761717 L -264.2250061035156 -84.93499755859374 M -269.71099853515625 -44.020000457763665 L -269.3900146484375 -44.083999633789055 L -269.0799865722656 -44.18899917602538 L -268.7869873046875 -44.333999633789055 L -268.5150146484375 -44.515998840332024 L -268.2690124511719 -44.730998992919915 L -268.0530090332031 -44.97800064086913 L -268.0010986328125 -45.05599975585937 L -267.87200927734375 -45.24999999999999 L -267.72698974609375 -45.54299926757812 L -267.62200927734375 -45.85300064086913 L -267.5580139160156 -46.173999786376946 L -267.5369873046875 -46.50099945068359 L -267.5580139160156 -46.82799911499023 L -267.613037109375 -47.10400009155273 L -267.62200927734375 -47.14899826049804 L -267.72698974609375 -47.458999633789055 L -267.87200927734375 -47.75199890136718 L -268.0530090332031 -48.02399826049803 L -268.2690124511719 -48.27099990844725 L -268.5150146484375 -48.48600006103514 L -268.7869873046875 -48.66799926757811 L -269.0799865722656 -48.81299972534178 L -269.3900146484375 -48.91799926757811 L -269.71099853515625 -48.9819984436035 L -270.0369873046875 -49.004001617431626 L -270.33599853515625 -48.98382186889647 L -270.3630065917969 -48.9819984436035 L -270.6839904785156 -48.91799926757811 L -270.9939880371094 -48.81299972534178 L -271.2869873046875 -48.66799926757811 L -271.5589904785156 -48.48600006103514 L -271.80499267578125 -48.27099990844725 L -272.0199890136719 -48.02399826049803 L -272.2019958496094 -47.75199890136718 L -272.34698486328125 -47.458999633789055 L -272.4519958496094 -47.14899826049804 L -272.4609680175781 -47.10400009155273 L -272.5159912109375 -46.82799911499023 L -272.5360107421875 -46.51657104492187 L -272.5369873046875 -46.50099945068359 L -272.5360107421875 -46.485427856445305 L -272.5159912109375 -46.173999786376946 L -272.4519958496094 -45.85300064086913 L -272.34698486328125 -45.54299926757812 L -272.2019958496094 -45.24999999999999 L -272.07220458984375 -45.05599975585937 L -272.0199890136719 -44.97800064086913 L -271.80499267578125 -44.730998992919915 L -271.5589904785156 -44.515998840332024 L -271.2869873046875 -44.333999633789055 L -270.9939880371094 -44.18899917602538 L -270.6839904785156 -44.083999633789055 L -270.3630065917969 -44.020000457763665 L -270.33599853515625 -44.01826095581054 L -270.0369873046875 -43.9990005493164 L -269.71099853515625 -44.020000457763665 M -270.1029968261719 -16.2859992980957 L -269.9913330078125 -16.38400077819824 L -269.95599365234375 -16.41500091552734 L -269.82598876953125 -16.562999725341793 L -269.7170104980469 -16.725999832153317 L -269.6300048828125 -16.90200042724609 L -269.5669860839844 -17.087999343872067 L -269.52899169921875 -17.280000686645504 L -269.5159912109375 -17.475999832153317 L -269.52899169921875 -17.672000885009762 L -269.5669860839844 -17.864000320434567 L -269.6300048828125 -18.049999237060543 L -269.7170104980469 -18.225999832153317 L -269.82598876953125 -18.38899993896484 L -269.86376953125 -18.431999206542965 L -269.95599365234375 -18.537000656127926 L -270.1029968261719 -18.666000366210934 L -270.2659912109375 -18.77499961853027 L -270.33599853515625 -18.809602737426754 L -270.4419860839844 -18.861999511718746 L -270.62799072265625 -18.924999237060543 L -270.8210144042969 -18.962999343872067 L -271.0159912109375 -18.975999832153317 L -271.2120056152344 -18.962999343872067 L -271.4049987792969 -18.924999237060543 L -271.5899963378906 -18.861999511718746 L -271.7659912109375 -18.77499961853027 L -271.92999267578125 -18.666000366210934 L -272.0769958496094 -18.537000656127926 L -272.16851806640625 -18.431999206542965 L -272.20599365234375 -18.38899993896484 L -272.31500244140625 -18.225999832153317 L -272.4020080566406 -18.049999237060543 L -272.4649963378906 -17.864000320434567 L -272.5039978027344 -17.672000885009762 L -272.5159912109375 -17.475999832153317 L -272.5039978027344 -17.280000686645504 L -272.4649963378906 -17.087999343872067 L -272.4020080566406 -16.90200042724609 L -272.31500244140625 -16.725999832153317 L -272.20599365234375 -16.562999725341793 L -272.0769958496094 -16.41500091552734 L -272.04168701171875 -16.38400077819824 L -271.92999267578125 -16.2859992980957 L -271.7659912109375 -16.177000045776364 L -271.5899963378906 -16.090000152587887 L -271.4049987792969 -16.02700042724609 L -271.2120056152344 -15.989000320434567 L -271.0159912109375 -15.975999832153317 L -270.8210144042969 -15.989000320434567 L -270.62799072265625 -16.02700042724609 L -270.4419860839844 -16.090000152587887 L -270.2659912109375 -16.177000045776364 L -270.1029968261719 -16.2859992980957 M -272.31500244140625 31.225999832153313 L -272.20599365234375 31.388999938964837 L -272.0769958496094 31.537000656127923 L -271.92999267578125 31.66600036621093 L -271.7659912109375 31.774999618530266 L -271.5899963378906 31.861999511718743 L -271.4049987792969 31.92499923706054 L -271.2120056152344 31.962999343872063 L -271.0159912109375 31.975999832153313 L -270.8210144042969 31.962999343872063 L -270.62799072265625 31.92499923706054 L -270.4419860839844 31.861999511718743 L -270.33599853515625 31.80960273742675 L -270.2659912109375 31.774999618530266 L -270.1029968261719 31.66600036621093 L -269.95599365234375 31.537000656127923 L -269.82598876953125 31.388999938964837 L -269.7170104980469 31.225999832153313 L -269.6300048828125 31.04999923706054 L -269.5669860839844 30.864000320434563 L -269.53851318359375 30.719999313354485 L -269.52899169921875 30.67200088500976 L -269.5159912109375 30.475999832153313 L -269.52899169921875 30.2800006866455 L -269.5669860839844 30.087999343872063 L -269.6300048828125 29.902000427246087 L -269.7170104980469 29.725999832153313 L -269.82598876953125 29.56299972534179 L -269.95599365234375 29.415000915527337 L -270.1029968261719 29.285999298095696 L -270.2659912109375 29.17700004577636 L -270.33599853515625 29.142396926879876 L -270.4419860839844 29.090000152587884 L -270.62799072265625 29.027000427246087 L -270.8210144042969 28.989000320434563 L -271.0159912109375 28.975999832153313 L -271.2120056152344 28.989000320434563 L -271.4049987792969 29.027000427246087 L -271.5899963378906 29.090000152587884 L -271.7659912109375 29.17700004577636 L -271.92999267578125 29.285999298095696 L -272.0769958496094 29.415000915527337 L -272.20599365234375 29.56299972534179 L -272.31500244140625 29.725999832153313 L -272.3840026855469 29.86558532714843 L -272.4020080566406 29.902000427246087 L -272.4649963378906 30.087999343872063 L -272.5039978027344 30.2800006866455 L -272.5159912109375 30.475999832153313 L -272.5039978027344 30.67200088500976 L -272.4942626953125 30.719999313354485 L -272.4649963378906 30.864000320434563 L -272.4020080566406 31.04999923706054 L -272.3840026855469 31.086414337158196 L -272.31500244140625 31.225999832153313 M -266.0350036621094 4.985000133514403 L -265.86199951171875 4.998000144958495 L -265.6889953613281 4.985000133514403 L -265.5190124511719 4.94700002670288 L -265.3550109863281 4.883999824523925 L -265.1990051269531 4.796999931335448 L -265.05499267578125 4.688000202178954 L -264.92498779296875 4.559000015258788 L -264.8110046386719 4.41099977493286 L -264.7139892578125 4.248000144958495 L -264.64837646484375 4.09600019454956 L -264.63800048828125 4.07200002670288 L -264.5820007324219 3.885999917984008 L -264.5480041503906 3.694000005722045 L -264.5369873046875 3.497999906539916 L -264.5480041503906 3.3020000457763663 L -264.5820007324219 3.1099998950958243 L -264.59344482421875 3.07200002670288 L -264.63800048828125 2.924000024795532 L -264.7139892578125 2.7479999065399165 L -264.8110046386719 2.585000038146972 L -264.92498779296875 2.4370000362396236 L -265.05499267578125 2.3080000877380367 L -265.1990051269531 2.1989998817443843 L -265.3550109863281 2.1119999885559078 L -265.5190124511719 2.049000024795532 L -265.5233459472656 2.04800009727478 L -265.6889953613281 2.0099999904632564 L -265.86199951171875 1.998000025749206 L -266.0350036621094 2.0099999904632564 L -266.2006530761719 2.04800009727478 L -266.2049865722656 2.049000024795532 L -266.239990234375 2.062445163726806 L -266.3689880371094 2.1119999885559078 L -266.52398681640625 2.1989998817443843 L -266.66900634765625 2.3080000877380367 L -266.79901123046875 2.4370000362396236 L -266.9129943847656 2.585000038146972 L -267.010009765625 2.7479999065399165 L -267.08599853515625 2.924000024795532 L -267.1419982910156 3.1099998950958243 L -267.1759948730469 3.3020000457763663 L -267.18701171875 3.497999906539916 L -267.1759948730469 3.694000005722045 L -267.1419982910156 3.885999917984008 L -267.08599853515625 4.07200002670288 L -267.07562255859375 4.09600019454956 L -267.010009765625 4.248000144958495 L -266.9129943847656 4.41099977493286 L -266.79901123046875 4.559000015258788 L -266.66900634765625 4.688000202178954 L -266.52398681640625 4.796999931335448 L -266.3689880371094 4.883999824523925 L -266.239990234375 4.9335546493530265 L -266.2049865722656 4.94700002670288 L -266.0350036621094 4.985000133514403 M -267.1759948730469 20.777999877929684 L -267.18701171875 20.972999572753903 L -267.1759948730469 21.169000625610348 L -267.1419982910156 21.361999511718746 L -267.08599853515625 21.548000335693356 L -267.010009765625 21.72400093078613 L -266.9129943847656 21.88699913024902 L -266.79901123046875 22.034000396728512 L -266.66900634765625 22.163999557495114 L -266.52398681640625 22.273000717163082 L -266.3689880371094 22.36000061035156 L -266.239990234375 22.40955543518066 L -266.2049865722656 22.423000335693356 L -266.0350036621094 22.46100044250488 L -265.86199951171875 22.47400093078613 L -265.6889953613281 22.46100044250488 L -265.5190124511719 22.423000335693356 L -265.3550109863281 22.36000061035156 L -265.1990051269531 22.273000717163082 L -265.05499267578125 22.163999557495114 L -264.92498779296875 22.034000396728512 L -264.8110046386719 21.88699913024902 L -264.7139892578125 21.72400093078613 L -264.63800048828125 21.548000335693356 L -264.624755859375 21.503999710083004 L -264.5820007324219 21.361999511718746 L -264.5480041503906 21.169000625610348 L -264.5369873046875 20.972999572753903 L -264.5480041503906 20.777999877929684 L -264.5820007324219 20.584999084472653 L -264.6136169433594 20.479999542236325 L -264.63800048828125 20.399000167846676 L -264.7139892578125 20.222999572753903 L -264.8110046386719 20.05999946594238 L -264.92498779296875 19.912000656127926 L -265.05499267578125 19.78300094604492 L -265.1990051269531 19.67399978637695 L -265.3550109863281 19.586999893188473 L -265.5190124511719 19.524000167846676 L -265.6889953613281 19.486000061035153 L -265.86199951171875 19.472999572753903 L -266.0350036621094 19.486000061035153 L -266.2049865722656 19.524000167846676 L -266.239990234375 19.53744506835937 L -266.3689880371094 19.586999893188473 L -266.52398681640625 19.67399978637695 L -266.66900634765625 19.78300094604492 L -266.79901123046875 19.912000656127926 L -266.9129943847656 20.05999946594238 L -267.010009765625 20.222999572753903 L -267.08599853515625 20.399000167846676 L -267.1103820800781 20.479999542236325 L -267.1419982910156 20.584999084472653 L -267.1759948730469 20.777999877929684 M -237.7830047607422 -83.9980010986328 L -237.73399353027344 -83.9970016479492 L -237.68600463867188 -83.9980010986328 L -237.63800048828125 -83.99999999999999 L -237.58999633789062 -84.00399780273436 L -237.5679931640625 -84.00634002685545 L -237.54299926757812 -84.00900268554686 L -237.4949951171875 -84.01599884033202 L -237.447998046875 -84.0240020751953 L -237.39999389648438 -84.03399658203124 L -237.35299682617188 -84.04599761962889 L -237.3070068359375 -84.05899810791014 L -237.25999450683594 -84.07299804687499 L -237.21499633789062 -84.08899688720702 L -237.16900634765625 -84.10700225830077 L -237.12399291992188 -84.12599945068358 L -237.0800018310547 -84.14700317382811 L -237.05599975585938 -84.15899658203124 L -237.03599548339844 -84.1689987182617 L -236.99200439453125 -84.19200134277342 L -236.9080047607422 -84.24400329589842 L -236.86599731445312 -84.2730026245117 L -236.8260040283203 -84.30200195312499 L -236.78599548339844 -84.33399963378905 L -236.7469940185547 -84.3669967651367 L -236.70899963378906 -84.40100097656249 L -236.6719970703125 -84.43699645996092 L -236.63600158691406 -84.47399902343749 L -236.6020050048828 -84.51200103759764 L -236.56900024414062 -84.55100250244139 L -236.54400634765625 -84.58325958251952 L -236.53799438476562 -84.59100341796874 L -236.50799560546875 -84.63099670410155 L -236.47900390625 -84.67299652099608 L -236.4530029296875 -84.71499633789061 L -236.42799377441406 -84.75700378417967 L -236.4040069580078 -84.80100250244139 L -236.3820037841797 -84.84500122070311 L -236.36099243164062 -84.88899993896483 L -236.3419952392578 -84.93399810791014 L -236.32400512695312 -84.97899627685545 L -236.31947326660156 -84.9919967651367 L -236.30799865722656 -85.02500152587889 L -236.29400634765625 -85.07199859619139 L -236.281005859375 -85.1179962158203 L -236.2689971923828 -85.16500091552733 L -236.25900268554688 -85.21199798583983 L -236.25100708007812 -85.26000213623045 L -236.24400329589844 -85.30799865722655 L -236.23899841308594 -85.35500335693358 L -236.23500061035156 -85.40299987792967 L -236.23300170898438 -85.45099639892577 L -236.23199462890625 -85.49900054931639 L -236.2321014404297 -85.50399780273436 L -236.23300170898438 -85.54699707031249 L -236.23500061035156 -85.59500122070311 L -236.23899841308594 -85.6429977416992 L -236.24400329589844 -85.69100189208983 L -236.25100708007812 -85.73899841308592 L -236.25900268554688 -85.78600311279295 L -236.2689971923828 -85.83399963378905 L -236.281005859375 -85.88099670410155 L -236.29400634765625 -85.92700195312499 L -236.30799865722656 -85.97299957275389 L -236.3229522705078 -86.01599884033202 L -236.32400512695312 -86.0189971923828 L -236.3419952392578 -86.06500244140624 L -236.36099243164062 -86.11000061035155 L -236.3820037841797 -86.15399932861327 L -236.4040069580078 -86.19799804687499 L -236.42799377441406 -86.24099731445311 L -236.4530029296875 -86.28399658203124 L -236.47900390625 -86.32599639892577 L -236.50799560546875 -86.3669967651367 L -236.53799438476562 -86.40799713134764 L -236.54400634765625 -86.41574096679686 L -236.56900024414062 -86.44799804687499 L -236.6020050048828 -86.48699951171874 L -236.63600158691406 -86.52500152587889 L -236.6719970703125 -86.56199645996092 L -236.70899963378906 -86.59799957275389 L -236.7469940185547 -86.63200378417967 L -236.78599548339844 -86.66500091552733 L -236.8260040283203 -86.6959991455078 L -236.86599731445312 -86.72599792480467 L -236.9080047607422 -86.75399780273436 L -236.9499969482422 -86.78099822998045 L -236.99200439453125 -86.80599975585936 L -237.03599548339844 -86.83000183105467 L -237.05599975585938 -86.83999633789061 L -237.0800018310547 -86.85199737548827 L -237.12399291992188 -86.8730010986328 L -237.16050720214844 -86.88841247558592 L -237.16900634765625 -86.89199829101561 L -237.21499633789062 -86.90899658203124 L -237.25999450683594 -86.92600250244139 L -237.3070068359375 -86.94000244140624 L -237.35299682617188 -86.95300292968749 L -237.39999389648438 -86.96399688720702 L -237.447998046875 -86.97399902343749 L -237.4949951171875 -86.98300170898436 L -237.54299926757812 -86.98999786376952 L -237.5679931640625 -86.99266052246092 L -237.58999633789062 -86.99500274658202 L -237.63800048828125 -86.99900054931639 L -237.68600463867188 -87.00099945068358 L -237.73399353027344 -87.00199890136717 L -237.7830047607422 -87.00099945068358 L -237.83099365234375 -86.99900054931639 L -237.87899780273438 -86.99500274658202 L -237.92599487304688 -86.98999786376952 L -237.9739990234375 -86.98300170898436 L -238.02099609375 -86.97399902343749 L -238.06900024414062 -86.96399688720702 L -238.0800018310547 -86.96142578124999 L -238.11599731445312 -86.95300292968749 L -238.16200256347656 -86.94000244140624 L -238.20384216308594 -86.92753601074217 L -238.20899963378906 -86.92600250244139 L -238.25399780273438 -86.90899658203124 L -238.3000030517578 -86.89199829101561 L -238.34500122070312 -86.8730010986328 L -238.38900756835938 -86.85199737548827 L -238.43299865722656 -86.83000183105467 L -238.4770050048828 -86.80599975585936 L -238.5189971923828 -86.78099822998045 L -238.56100463867188 -86.75399780273436 L -238.5919952392578 -86.7333297729492 L -238.60299682617188 -86.72599792480467 L -238.64300537109375 -86.6959991455078 L -238.68299865722656 -86.66500091552733 L -238.7220001220703 -86.63200378417967 L -238.75999450683594 -86.59799957275389 L -238.7969970703125 -86.56199645996092 L -238.830078125 -86.52799987792967 L -238.83299255371094 -86.52500152587889 L -238.86700439453125 -86.48699951171874 L -238.89999389648438 -86.44799804687499 L -238.93099975585938 -86.40799713134764 L -238.96099853515625 -86.3669967651367 L -238.98899841308594 -86.32599639892577 L -239.01600646972656 -86.28399658203124 L -239.04100036621094 -86.24099731445311 L -239.06500244140625 -86.19799804687499 L -239.08700561523438 -86.15399932861327 L -239.10800170898438 -86.11000061035155 L -239.1269989013672 -86.06500244140624 L -239.14500427246094 -86.0189971923828 L -239.1460418701172 -86.01599884033202 L -239.16099548339844 -85.97299957275389 L -239.1750030517578 -85.92700195312499 L -239.18800354003906 -85.88099670410155 L -239.1999969482422 -85.83399963378905 L -239.2100067138672 -85.78600311279295 L -239.21800231933594 -85.73899841308592 L -239.22500610351562 -85.69100189208983 L -239.22999572753906 -85.6429977416992 L -239.23399353027344 -85.59500122070311 L -239.23599243164062 -85.54699707031249 L -239.2368927001953 -85.50399780273436 L -239.23699951171875 -85.49900054931639 L -239.23599243164062 -85.45099639892577 L -239.23399353027344 -85.40299987792967 L -239.22999572753906 -85.35500335693358 L -239.22500610351562 -85.30799865722655 L -239.21800231933594 -85.26000213623045 L -239.2100067138672 -85.21199798583983 L -239.1999969482422 -85.16500091552733 L -239.18800354003906 -85.1179962158203 L -239.1750030517578 -85.07199859619139 L -239.16099548339844 -85.02500152587889 L -239.14952087402344 -84.9919967651367 L -239.14500427246094 -84.97899627685545 L -239.1269989013672 -84.93399810791014 L -239.10800170898438 -84.88899993896483 L -239.08700561523438 -84.84500122070311 L -239.06500244140625 -84.80100250244139 L -239.04100036621094 -84.75700378417967 L -239.01600646972656 -84.71499633789061 L -238.98899841308594 -84.67299652099608 L -238.96099853515625 -84.63099670410155 L -238.93099975585938 -84.59100341796874 L -238.89999389648438 -84.55100250244139 L -238.86700439453125 -84.51200103759764 L -238.83836364746094 -84.48000335693358 L -238.83299255371094 -84.47399902343749 L -238.7969970703125 -84.43699645996092 L -238.75999450683594 -84.40100097656249 L -238.7220001220703 -84.3669967651367 L -238.68299865722656 -84.33399963378905 L -238.64300537109375 -84.30200195312499 L -238.60299682617188 -84.2730026245117 L -238.5919952392578 -84.26540374755858 L -238.56100463867188 -84.24400329589842 L -238.4770050048828 -84.19200134277342 L -238.43299865722656 -84.1689987182617 L -238.38900756835938 -84.14700317382811 L -238.34500122070312 -84.12599945068358 L -238.3000030517578 -84.10700225830077 L -238.25399780273438 -84.08899688720702 L -238.20899963378906 -84.07299804687499 L -238.16200256347656 -84.05899810791014 L -238.11599731445312 -84.04599761962889 L -238.0800018310547 -84.03681182861327 L -238.06900024414062 -84.03399658203124 L -238.02099609375 -84.0240020751953 L -237.9739990234375 -84.01599884033202 L -237.92599487304688 -84.00900268554686 L -237.87899780273438 -84.00399780273436 L -237.83099365234375 -83.99999999999999 L -237.7830047607422 -83.9980010986328 M -229.39700317382812 -84.43699645996092 L -229.37600708007812 -84.41656494140624 L -229.36000061035156 -84.40100097656249 L -229.32200622558594 -84.3669967651367 L -229.2830047607422 -84.33399963378905 L -229.2429962158203 -84.30200195312499 L -229.2030029296875 -84.2730026245117 L -229.16099548339844 -84.24400329589842 L -229.07699584960938 -84.19200134277342 L -229.0330047607422 -84.1689987182617 L -228.98899841308594 -84.14700317382811 L -228.94500732421875 -84.12599945068358 L -228.89999389648438 -84.10700225830077 L -228.86399841308594 -84.09259796142577 L -228.85499572753906 -84.08899688720702 L -228.8090057373047 -84.07299804687499 L -228.76199340820312 -84.05899810791014 L -228.71600341796875 -84.04599761962889 L -228.66900634765625 -84.03399658203124 L -228.6219940185547 -84.0240020751953 L -228.57400512695312 -84.01599884033202 L -228.5260009765625 -84.00900268554686 L -228.47900390625 -84.00399780273436 L -228.43099975585938 -83.99999999999999 L -228.38299560546875 -83.9980010986328 L -228.3520050048828 -83.99735260009764 L -228.3350067138672 -83.9970016479492 L -228.28700256347656 -83.9980010986328 L -228.23899841308594 -83.99999999999999 L -228.1909942626953 -84.00399780273436 L -228.14300537109375 -84.00900268554686 L -228.09500122070312 -84.01599884033202 L -228.04800415039062 -84.0240020751953 L -228 -84.03399658203124 L -227.9530029296875 -84.04599761962889 L -227.90699768066406 -84.05899810791014 L -227.86099243164062 -84.07299804687499 L -227.83999633789062 -84.08030700683592 L -227.81500244140625 -84.08899688720702 L -227.7689971923828 -84.10700225830077 L -227.7239990234375 -84.12599945068358 L -227.67999267578125 -84.14700317382811 L -227.63600158691406 -84.1689987182617 L -227.59300231933594 -84.19200134277342 L -227.5500030517578 -84.21800231933592 L -227.50799560546875 -84.24400329589842 L -227.42599487304688 -84.30200195312499 L -227.38600158691406 -84.33399963378905 L -227.3470001220703 -84.3669967651367 L -227.3280029296875 -84.38400268554686 L -227.3090057373047 -84.40100097656249 L -227.27200317382812 -84.43699645996092 L -227.23599243164062 -84.47399902343749 L -227.2306365966797 -84.48000335693358 L -227.20199584960938 -84.51200103759764 L -227.16900634765625 -84.55100250244139 L -227.13800048828125 -84.59100341796874 L -227.10800170898438 -84.63099670410155 L -227.0800018310547 -84.67299652099608 L -227.05299377441406 -84.71499633789061 L -227.0279998779297 -84.75700378417967 L -227.00399780273438 -84.80100250244139 L -226.98199462890625 -84.84500122070311 L -226.96099853515625 -84.88899993896483 L -226.94200134277344 -84.93399810791014 L -226.9250030517578 -84.97899627685545 L -226.92019653320312 -84.9919967651367 L -226.9080047607422 -85.02500152587889 L -226.8939971923828 -85.07199859619139 L -226.88099670410156 -85.1179962158203 L -226.86900329589844 -85.16500091552733 L -226.86000061035156 -85.21199798583983 L -226.8509979248047 -85.26000213623045 L -226.843994140625 -85.30799865722655 L -226.83900451660156 -85.35500335693358 L -226.8350067138672 -85.40299987792967 L -226.83299255371094 -85.45099639892577 L -226.83200073242188 -85.49900054931639 L -226.8321075439453 -85.50399780273436 L -226.83299255371094 -85.54699707031249 L -226.8350067138672 -85.59500122070311 L -226.83900451660156 -85.6429977416992 L -226.843994140625 -85.69100189208983 L -226.8509979248047 -85.73899841308592 L -226.86000061035156 -85.78600311279295 L -226.86900329589844 -85.83399963378905 L -226.86976623535156 -85.83699798583983 L -226.88099670410156 -85.88099670410155 L -226.8939971923828 -85.92700195312499 L -226.9080047607422 -85.97299957275389 L -226.92388916015625 -86.01599884033202 L -226.94200134277344 -86.06500244140624 L -226.96099853515625 -86.11000061035155 L -226.98199462890625 -86.15399932861327 L -227.00399780273438 -86.19799804687499 L -227.0279998779297 -86.24099731445311 L -227.05299377441406 -86.28399658203124 L -227.0800018310547 -86.32599639892577 L -227.10800170898438 -86.3669967651367 L -227.13800048828125 -86.40799713134764 L -227.16900634765625 -86.44799804687499 L -227.20199584960938 -86.48699951171874 L -227.23599243164062 -86.52500152587889 L -227.23892211914062 -86.52799987792967 L -227.27200317382812 -86.56199645996092 L -227.3090057373047 -86.59799957275389 L -227.3280029296875 -86.61499786376952 L -227.3470001220703 -86.63200378417967 L -227.38600158691406 -86.66500091552733 L -227.42599487304688 -86.6959991455078 L -227.4669952392578 -86.72599792480467 L -227.50799560546875 -86.75399780273436 L -227.5500030517578 -86.78099822998045 L -227.59300231933594 -86.80599975585936 L -227.63600158691406 -86.83000183105467 L -227.67999267578125 -86.85199737548827 L -227.7239990234375 -86.8730010986328 L -227.7689971923828 -86.89199829101561 L -227.83999633789062 -86.91823577880858 L -227.86099243164062 -86.92600250244139 L -227.90699768066406 -86.94000244140624 L -227.9530029296875 -86.95300292968749 L -228 -86.96399688720702 L -228.04800415039062 -86.97399902343749 L -228.09500122070312 -86.98300170898436 L -228.14300537109375 -86.98999786376952 L -228.1909942626953 -86.99500274658202 L -228.23899841308594 -86.99900054931639 L -228.28700256347656 -87.00099945068358 L -228.3350067138672 -87.00199890136717 L -228.3520050048828 -87.00164794921874 L -228.38299560546875 -87.00099945068358 L -228.43099975585938 -86.99900054931639 L -228.47900390625 -86.99500274658202 L -228.5260009765625 -86.98999786376952 L -228.57400512695312 -86.98300170898436 L -228.6219940185547 -86.97399902343749 L -228.66900634765625 -86.96399688720702 L -228.71600341796875 -86.95300292968749 L -228.76199340820312 -86.94000244140624 L -228.8090057373047 -86.92600250244139 L -228.85499572753906 -86.90899658203124 L -228.86399841308594 -86.90560150146483 L -228.89999389648438 -86.89199829101561 L -228.94500732421875 -86.8730010986328 L -228.98899841308594 -86.85199737548827 L -229.0330047607422 -86.83000183105467 L -229.07699584960938 -86.80599975585936 L -229.11900329589844 -86.78099822998045 L -229.16099548339844 -86.75399780273436 L -229.2030029296875 -86.72599792480467 L -229.2429962158203 -86.6959991455078 L -229.2830047607422 -86.66500091552733 L -229.32200622558594 -86.63200378417967 L -229.36000061035156 -86.59799957275389 L -229.37600708007812 -86.58243560791014 L -229.39700317382812 -86.56199645996092 L -229.43008422851562 -86.52799987792967 L -229.43299865722656 -86.52500152587889 L -229.4669952392578 -86.48699951171874 L -229.5 -86.44799804687499 L -229.53199768066406 -86.40799713134764 L -229.58999633789062 -86.32599639892577 L -229.61599731445312 -86.28399658203124 L -229.64199829101562 -86.24099731445311 L -229.6649932861328 -86.19799804687499 L -229.68699645996094 -86.15399932861327 L -229.70799255371094 -86.11000061035155 L -229.7270050048828 -86.06500244140624 L -229.7449951171875 -86.0189971923828 L -229.7460479736328 -86.01599884033202 L -229.76100158691406 -85.97299957275389 L -229.77499389648438 -85.92700195312499 L -229.78799438476562 -85.88099670410155 L -229.8000030517578 -85.83399963378905 L -229.80999755859375 -85.78600311279295 L -229.8179931640625 -85.73899841308592 L -229.8249969482422 -85.69100189208983 L -229.8300018310547 -85.6429977416992 L -229.83399963378906 -85.59500122070311 L -229.83599853515625 -85.54699707031249 L -229.83689880371094 -85.50399780273436 L -229.83700561523438 -85.49900054931639 L -229.83599853515625 -85.45099639892577 L -229.83399963378906 -85.40299987792967 L -229.8300018310547 -85.35500335693358 L -229.8249969482422 -85.30799865722655 L -229.8179931640625 -85.26000213623045 L -229.80999755859375 -85.21199798583983 L -229.8000030517578 -85.16500091552733 L -229.78799438476562 -85.1179962158203 L -229.77499389648438 -85.07199859619139 L -229.76100158691406 -85.02500152587889 L -229.74952697753906 -84.9919967651367 L -229.7449951171875 -84.97899627685545 L -229.7270050048828 -84.93399810791014 L -229.70799255371094 -84.88899993896483 L -229.68699645996094 -84.84500122070311 L -229.6649932861328 -84.80100250244139 L -229.64199829101562 -84.75700378417967 L -229.58999633789062 -84.67299652099608 L -229.56100463867188 -84.63099670410155 L -229.53199768066406 -84.59100341796874 L -229.5 -84.55100250244139 L -229.4669952392578 -84.51200103759764 L -229.43836975097656 -84.48000335693358 L -229.43299865722656 -84.47399902343749 L -229.39700317382812 -84.43699645996092 M -237.52999877929688 -46.37491226196288 L -236.78599548339844 -45.877998352050774 L -236.53700256347656 -45.75519943237304 L -235.906005859375 -45.44400024414062 L -234.9759979248047 -45.12900161743163 L -234.01400756835938 -44.937000274658196 L -233.03500366210938 -44.873001098632805 L -232.05499267578125 -44.937000274658196 L -231.09300231933594 -45.12900161743163 L -230.16299438476562 -45.44400024414062 L -229.53199768066406 -45.75519943237304 L -229.37600708007812 -45.832134246826165 L -229.2830047607422 -45.877998352050774 L -228.53799438476562 -46.37557983398437 L -228.4669952392578 -46.42300033569335 L -227.72900390625 -47.06999969482421 L -227.08200073242188 -47.807998657226555 L -226.53700256347656 -48.62400054931639 L -226.27659606933594 -49.15200042724608 L -226.10299682617188 -49.504001617431626 L -225.78799438476562 -50.43399810791014 L -225.5959930419922 -51.39599990844725 L -225.53199768066406 -52.37599945068358 L -225.5959930419922 -53.354999542236314 L -225.78799438476562 -54.31700134277342 L -226.10299682617188 -55.247001647949205 L -226.53700256347656 -56.12699890136717 L -227.08200073242188 -56.94300079345702 L -227.72900390625 -57.68099975585936 L -228.4669952392578 -58.32799911499022 L -228.53799438476562 -58.375419616699205 L -229.2830047607422 -58.8730010986328 L -229.37600708007812 -58.91886520385741 L -229.53199768066406 -58.9958038330078 L -230.16299438476562 -59.306999206542955 L -231.09300231933594 -59.622001647949205 L -232.05499267578125 -59.813999176025376 L -233.03500366210938 -59.87799835205077 L -234.01400756835938 -59.813999176025376 L -234.9759979248047 -59.622001647949205 L -235.906005859375 -59.306999206542955 L -236.53700256347656 -58.9958038330078 L -236.78599548339844 -58.8730010986328 L -237.52999877929688 -58.37608718872069 L -237.5679931640625 -58.350708007812486 L -237.6020050048828 -58.32799911499022 L -238.33999633789062 -57.68099975585936 L -238.98699951171875 -56.94300079345702 L -239.23699951171875 -56.56868743896483 L -239.53199768066406 -56.12699890136717 L -239.96600341796875 -55.247001647949205 L -240.281005859375 -54.31700134277342 L -240.47300720214844 -53.354999542236314 L -240.53700256347656 -52.37599945068358 L -240.47300720214844 -51.39599990844725 L -240.281005859375 -50.43399810791014 L -239.96600341796875 -49.504001617431626 L -239.7924041748047 -49.15200042724608 L -239.53199768066406 -48.62400054931639 L -239.23699951171875 -48.182312011718736 L -238.98699951171875 -47.807998657226555 L -238.33999633789062 -47.06999969482421 L -237.6020050048828 -46.42300033569335 L -237.52999877929688 -46.37491226196288 M -210.02577209472656 -57.34400177001952 L -210.03199768066406 -57.249999999999986 L -210.0189971923828 -57.05400085449217 L -209.9810028076172 -56.86100006103514 L -209.91799926757812 -56.67499923706053 L -209.83099365234375 -56.49900054931639 L -209.7220001220703 -56.33499908447264 L -209.59300231933594 -56.18799972534178 L -209.53700256347656 -56.13880920410155 L -209.44500732421875 -56.05799865722655 L -209.28199768066406 -55.949001312255845 L -209.1060028076172 -55.861999511718736 L -208.9199981689453 -55.79899978637694 L -208.89599609375 -55.79412460327147 L -208.72799682617188 -55.75999832153319 L -208.53199768066406 -55.7480010986328 L -208.33599853515625 -55.75999832153319 L -208.1439971923828 -55.79899978637694 L -207.95799255371094 -55.861999511718736 L -207.8719940185547 -55.90451049804686 L -207.78199768066406 -55.949001312255845 L -207.61900329589844 -56.05799865722655 L -207.4709930419922 -56.18799972534178 L -207.3419952392578 -56.33499908447264 L -207.23300170898438 -56.49900054931639 L -207.14599609375 -56.67499923706053 L -207.08299255371094 -56.86100006103514 L -207.0449981689453 -57.05400085449217 L -207.03199768066406 -57.249999999999986 L -207.03823852539062 -57.34400177001952 L -207.0449981689453 -57.4459991455078 L -207.08299255371094 -57.63899993896483 L -207.14599609375 -57.82500076293944 L -207.23300170898438 -58.00099945068358 L -207.3419952392578 -58.16500091552733 L -207.4709930419922 -58.31200027465819 L -207.61900329589844 -58.44200134277342 L -207.78199768066406 -58.550998687744126 L -207.95799255371094 -58.638000488281236 L -208.1439971923828 -58.70100021362303 L -208.33599853515625 -58.74000167846678 L -208.53199768066406 -58.75299835205077 L -208.72799682617188 -58.74000167846678 L -208.89599609375 -58.7058753967285 L -208.9199981689453 -58.70100021362303 L -209.1060028076172 -58.638000488281236 L -209.28199768066406 -58.550998687744126 L -209.44500732421875 -58.44200134277342 L -209.53700256347656 -58.36119079589842 L -209.59300231933594 -58.31200027465819 L -209.7220001220703 -58.16500091552733 L -209.83099365234375 -58.00099945068358 L -209.91799926757812 -57.82500076293944 L -209.9810028076172 -57.63899993896483 L -210.0189971923828 -57.4459991455078 L -210.02577209472656 -57.34400177001952 M -209.59300231933594 2.4370000362396236 L -209.72300720214844 2.585000038146972 L -209.83200073242188 2.7479999065399165 L -209.91900634765625 2.924000024795532 L -209.98199462890625 3.1099998950958243 L -210.02000427246094 3.3020000457763663 L -210.03199768066406 3.4829230308532706 L -210.0330047607422 3.497999906539916 L -210.03199768066406 3.5130770206451407 L -210.02000427246094 3.694000005722045 L -209.98199462890625 3.885999917984008 L -209.91900634765625 4.07200002670288 L -209.90713500976562 4.09600019454956 L -209.83200073242188 4.248000144958495 L -209.72300720214844 4.41099977493286 L -209.59300231933594 4.559000015258788 L -209.53700256347656 4.608142852783202 L -209.4459991455078 4.688000202178954 L -209.2830047607422 4.796999931335448 L -209.10699462890625 4.883999824523925 L -208.92100524902344 4.94700002670288 L -208.89599609375 4.951947689056396 L -208.72900390625 4.985000133514403 L -208.5330047607422 4.998000144958495 L -208.33700561523438 4.985000133514403 L -208.1439971923828 4.94700002670288 L -207.95899963378906 4.883999824523925 L -207.7830047607422 4.796999931335448 L -207.6199951171875 4.688000202178954 L -207.4720001220703 4.559000015258788 L -207.34300231933594 4.41099977493286 L -207.23399353027344 4.248000144958495 L -207.1588592529297 4.09600019454956 L -207.14700317382812 4.07200002670288 L -207.08399963378906 3.885999917984008 L -207.0449981689453 3.694000005722045 L -207.0330047607422 3.497999906539916 L -207.0449981689453 3.3020000457763663 L -207.08399963378906 3.1099998950958243 L -207.14700317382812 2.924000024795532 L -207.23399353027344 2.7479999065399165 L -207.34300231933594 2.585000038146972 L -207.4720001220703 2.4370000362396236 L -207.6199951171875 2.3080000877380367 L -207.7830047607422 2.1989998817443843 L -207.95899963378906 2.1119999885559078 L -208.1439971923828 2.049000024795532 L -208.14895629882812 2.04800009727478 L -208.33700561523438 2.0099999904632564 L -208.5330047607422 1.998000025749206 L -208.72900390625 2.0099999904632564 L -208.89599609375 2.0439219474792476 L -208.92100524902344 2.049000024795532 L -209.10699462890625 2.1119999885559078 L -209.2830047607422 2.1989998817443843 L -209.4459991455078 2.3080000877380367 L -209.53700256347656 2.3878571987152095 L -209.59300231933594 2.4370000362396236 M -210.03199768066406 -3.496999979019164 L -209.53700256347656 -3.496999979019164 L -207.0330047607422 -3.496999979019164 L -203.5330047607422 -3.496999979019164 L -202.53199768066406 -3.496999979019164 L -202.53199768066406 -13.5019998550415 L -203.5330047607422 -13.5019998550415 L -209.53700256347656 -13.5019998550415 L -210.03199768066406 -13.5019998550415 L -211.0330047607422 -13.5019998550415 L -212.5330047607422 -13.5019998550415 L -212.5330047607422 -3.496999979019164 L -210.0330047607422 -3.496999979019164 L -210.03199768066406 -3.496999979019164 M -209.53700256347656 22.08352470397949 L -209.4459991455078 22.163999557495114 L -209.2830047607422 22.273000717163082 L -209.10699462890625 22.36000061035156 L -208.92100524902344 22.423000335693356 L -208.89599609375 22.42794799804687 L -208.72900390625 22.46100044250488 L -208.5330047607422 22.47400093078613 L -208.33700561523438 22.46100044250488 L -208.1439971923828 22.423000335693356 L -207.95899963378906 22.36000061035156 L -207.7830047607422 22.273000717163082 L -207.6199951171875 22.163999557495114 L -207.4720001220703 22.034000396728512 L -207.34300231933594 21.88699913024902 L -207.23399353027344 21.72400093078613 L -207.14700317382812 21.548000335693356 L -207.13209533691406 21.503999710083004 L -207.08399963378906 21.361999511718746 L -207.0449981689453 21.169000625610348 L -207.0330047607422 20.972999572753903 L -207.0449981689453 20.777999877929684 L -207.08399963378906 20.584999084472653 L -207.11956787109375 20.479999542236325 L -207.14700317382812 20.399000167846676 L -207.23399353027344 20.222999572753903 L -207.34300231933594 20.05999946594238 L -207.4720001220703 19.912000656127926 L -207.6199951171875 19.78300094604492 L -207.7830047607422 19.67399978637695 L -207.95899963378906 19.586999893188473 L -208.1439971923828 19.524000167846676 L -208.33700561523438 19.486000061035153 L -208.5330047607422 19.472999572753903 L -208.72900390625 19.486000061035153 L -208.89599609375 19.51905250549316 L -208.92100524902344 19.524000167846676 L -209.10699462890625 19.586999893188473 L -209.2830047607422 19.67399978637695 L -209.4459991455078 19.78300094604492 L -209.53700256347656 19.862857818603512 L -209.59300231933594 19.912000656127926 L -209.72300720214844 20.05999946594238 L -209.83200073242188 20.222999572753903 L -209.91900634765625 20.399000167846676 L -209.94644165039062 20.479999542236325 L -209.98199462890625 20.584999084472653 L -210.02000427246094 20.777999877929684 L -210.03199768066406 20.958000183105465 L -210.0330047607422 20.972999572753903 L -210.03199768066406 20.988077163696286 L -210.02000427246094 21.169000625610348 L -209.98199462890625 21.361999511718746 L -209.91900634765625 21.548000335693356 L -209.83200073242188 21.72400093078613 L -209.72300720214844 21.88699913024902 L -209.59300231933594 22.034000396728512 L -209.53700256347656 22.08352470397949 M -193.5330047607422 -46.485427856445305 L -193.53199768066406 -46.50099945068359 L -193.5330047607422 -46.51657104492187 L -193.55299377441406 -46.82799911499023 L -193.6080322265625 -47.10400009155273 L -193.61700439453125 -47.14899826049804 L -193.7220001220703 -47.458999633789055 L -193.86700439453125 -47.75199890136718 L -194.0489959716797 -48.02399826049803 L -194.26400756835938 -48.27099990844725 L -194.50999450683594 -48.48600006103514 L -194.78199768066406 -48.66799926757811 L -195.0749969482422 -48.81299972534178 L -195.38499450683594 -48.91799926757811 L -195.70599365234375 -48.9819984436035 L -196.03199768066406 -49.004001617431626 L -196.35899353027344 -48.9819984436035 L -196.60800170898438 -48.93220138549803 L -196.6790008544922 -48.91799926757811 L -196.98899841308594 -48.81299972534178 L -197.28199768066406 -48.66799926757811 L -197.5540008544922 -48.48600006103514 L -197.8000030517578 -48.27099990844725 L -198.01600646972656 -48.02399826049803 L -198.19700622558594 -47.75199890136718 L -198.3419952392578 -47.458999633789055 L -198.44700622558594 -47.14899826049804 L -198.4559783935547 -47.10400009155273 L -198.51100158691406 -46.82799911499023 L -198.53199768066406 -46.50099945068359 L -198.51100158691406 -46.173999786376946 L -198.44700622558594 -45.85300064086913 L -198.3419952392578 -45.54299926757812 L -198.19700622558594 -45.24999999999999 L -198.06790161132812 -45.05599975585937 L -198.01600646972656 -44.97800064086913 L -197.8000030517578 -44.730998992919915 L -197.5540008544922 -44.515998840332024 L -197.28199768066406 -44.333999633789055 L -196.98899841308594 -44.18899917602538 L -196.6790008544922 -44.083999633789055 L -196.60800170898438 -44.0698013305664 L -196.35899353027344 -44.020000457763665 L -196.03199768066406 -43.9990005493164 L -195.70599365234375 -44.020000457763665 L -195.38499450683594 -44.083999633789055 L -195.0749969482422 -44.18899917602538 L -194.78199768066406 -44.333999633789055 L -194.50999450683594 -44.515998840332024 L -194.26400756835938 -44.730998992919915 L -194.0489959716797 -44.97800064086913 L -193.99681091308594 -45.05599975585937 L -193.86700439453125 -45.24999999999999 L -193.7220001220703 -45.54299926757812 L -193.61700439453125 -45.85300064086913 L -193.55299377441406 -46.173999786376946 L -193.5330047607422 -46.485427856445305 M -202.53199768066406 -38.50199890136718 L -203.5330047607422 -38.50199890136718 L -209.53700256347656 -38.50199890136718 L -210.03199768066406 -38.50199890136718 L -211.0330047607422 -38.50199890136718 L -211.0330047607422 -23.496999740600582 L -210.03199768066406 -23.496999740600582 L -209.53700256347656 -23.496999740600582 L -203.5330047607422 -23.496999740600582 L -202.53199768066406 -23.496999740600582 L -196.55299377441406 -23.496999740600582 L -196.03199768066406 -23.496999740600582 L -196.03199768066406 -38.50199890136718 L -196.55299377441406 -38.50199890136718 L -202.53199768066406 -38.50199890136718 M -195.24899291992188 -15.989000320434567 L -195.05299377441406 -15.975999832153317 L -194.85699462890625 -15.989000320434567 L -194.66400146484375 -16.02700042724609 L -194.47900390625 -16.090000152587887 L -194.30299377441406 -16.177000045776364 L -194.13999938964844 -16.2859992980957 L -194.02757263183594 -16.38400077819824 L -193.99200439453125 -16.41500091552734 L -193.86300659179688 -16.562999725341793 L -193.75399780273438 -16.725999832153317 L -193.66700744628906 -16.90200042724609 L -193.60400390625 -17.087999343872067 L -193.56500244140625 -17.280000686645504 L -193.55299377441406 -17.475999832153317 L -193.56500244140625 -17.672000885009762 L -193.60400390625 -17.864000320434567 L -193.66700744628906 -18.049999237060543 L -193.75399780273438 -18.225999832153317 L -193.86300659179688 -18.38899993896484 L -193.90048217773438 -18.431999206542965 L -193.99200439453125 -18.537000656127926 L -194.13999938964844 -18.666000366210934 L -194.30299377441406 -18.77499961853027 L -194.47900390625 -18.861999511718746 L -194.55999755859375 -18.88958358764648 L -194.66400146484375 -18.924999237060543 L -194.85699462890625 -18.962999343872067 L -195.05299377441406 -18.975999832153317 L -195.24899291992188 -18.962999343872067 L -195.4409942626953 -18.924999237060543 L -195.6269989013672 -18.861999511718746 L -195.80299377441406 -18.77499961853027 L -195.96600341796875 -18.666000366210934 L -196.11300659179688 -18.537000656127926 L -196.20523071289062 -18.431999206542965 L -196.2429962158203 -18.38899993896484 L -196.3520050048828 -18.225999832153317 L -196.43899536132812 -18.049999237060543 L -196.5019989013672 -17.864000320434567 L -196.5399932861328 -17.672000885009762 L -196.55299377441406 -17.475999832153317 L -196.5399932861328 -17.280000686645504 L -196.5019989013672 -17.087999343872067 L -196.43899536132812 -16.90200042724609 L -196.3520050048828 -16.725999832153317 L -196.2429962158203 -16.562999725341793 L -196.11300659179688 -16.41500091552734 L -196.07766723632812 -16.38400077819824 L -195.96600341796875 -16.2859992980957 L -195.80299377441406 -16.177000045776364 L -195.6269989013672 -16.090000152587887 L -195.4409942626953 -16.02700042724609 L -195.24899291992188 -15.989000320434567 M -195.24899291992188 31.962999343872063 L -195.05299377441406 31.975999832153313 L -194.85699462890625 31.962999343872063 L -194.66400146484375 31.92499923706054 L -194.55999755859375 31.889583587646477 L -194.47900390625 31.861999511718743 L -194.30299377441406 31.774999618530266 L -194.13999938964844 31.66600036621093 L -193.99200439453125 31.537000656127923 L -193.86300659179688 31.388999938964837 L -193.75399780273438 31.225999832153313 L -193.66700744628906 31.04999923706054 L -193.60400390625 30.864000320434563 L -193.5747528076172 30.719999313354485 L -193.56500244140625 30.67200088500976 L -193.55299377441406 30.475999832153313 L -193.56500244140625 30.2800006866455 L -193.60400390625 30.087999343872063 L -193.66700744628906 29.902000427246087 L -193.75399780273438 29.725999832153313 L -193.86300659179688 29.56299972534179 L -193.99200439453125 29.415000915527337 L -194.13999938964844 29.285999298095696 L -194.30299377441406 29.17700004577636 L -194.47900390625 29.090000152587884 L -194.55999755859375 29.06241607666015 L -194.66400146484375 29.027000427246087 L -194.85699462890625 28.989000320434563 L -195.05299377441406 28.975999832153313 L -195.24899291992188 28.989000320434563 L -195.4409942626953 29.027000427246087 L -195.58399963378906 29.075435638427727 L -195.6269989013672 29.090000152587884 L -195.80299377441406 29.17700004577636 L -195.96600341796875 29.285999298095696 L -196.11300659179688 29.415000915527337 L -196.2429962158203 29.56299972534179 L -196.3520050048828 29.725999832153313 L -196.43899536132812 29.902000427246087 L -196.5019989013672 30.087999343872063 L -196.5399932861328 30.2800006866455 L -196.55299377441406 30.475999832153313 L -196.5399932861328 30.67200088500976 L -196.53050231933594 30.719999313354485 L -196.5019989013672 30.864000320434563 L -196.43899536132812 31.04999923706054 L -196.3520050048828 31.225999832153313 L -196.2429962158203 31.388999938964837 L -196.11300659179688 31.537000656127923 L -195.96600341796875 31.66600036621093 L -195.80299377441406 31.774999618530266 L -195.6269989013672 31.861999511718743 L -195.4409942626953 31.92499923706054 L -195.24899291992188 31.962999343872063 M -200.5500030517578 4.94700002670288 L -200.3800048828125 4.985000133514403 L -200.20700073242188 4.998000144958495 L -200.03399658203125 4.985000133514403 L -199.86399841308594 4.94700002670288 L -199.6999969482422 4.883999824523925 L -199.5449981689453 4.796999931335448 L -199.39999389648438 4.688000202178954 L -199.27000427246094 4.559000015258788 L -199.156005859375 4.41099977493286 L -199.05999755859375 4.248000144958495 L -198.99349975585938 4.09600019454956 L -198.98300170898438 4.07200002670288 L -198.927001953125 3.885999917984008 L -198.89300537109375 3.694000005722045 L -198.8820037841797 3.497999906539916 L -198.89300537109375 3.3020000457763663 L -198.927001953125 3.1099998950958243 L -198.93844604492188 3.07200002670288 L -198.98300170898438 2.924000024795532 L -199.05999755859375 2.7479999065399165 L -199.156005859375 2.585000038146972 L -199.27000427246094 2.4370000362396236 L -199.39999389648438 2.3080000877380367 L -199.5449981689453 2.1989998817443843 L -199.6999969482422 2.1119999885559078 L -199.86399841308594 2.049000024795532 L -199.8683624267578 2.04800009727478 L -200.03399658203125 2.0099999904632564 L -200.20700073242188 1.998000025749206 L -200.3800048828125 2.0099999904632564 L -200.54563903808594 2.04800009727478 L -200.5500030517578 2.049000024795532 L -200.70399475097656 2.1081585884094234 L -200.71400451660156 2.1119999885559078 L -200.8699951171875 2.1989998817443843 L -201.01400756835938 2.3080000877380367 L -201.1439971923828 2.4370000362396236 L -201.25799560546875 2.585000038146972 L -201.35499572753906 2.7479999065399165 L -201.43099975585938 2.924000024795532 L -201.48699951171875 3.1099998950958243 L -201.52099609375 3.3020000457763663 L -201.53199768066406 3.497999906539916 L -201.52099609375 3.694000005722045 L -201.48699951171875 3.885999917984008 L -201.43099975585938 4.07200002670288 L -201.42063903808594 4.09600019454956 L -201.35499572753906 4.248000144958495 L -201.25799560546875 4.41099977493286 L -201.1439971923828 4.559000015258788 L -201.01400756835938 4.688000202178954 L -200.8699951171875 4.796999931335448 L -200.71400451660156 4.883999824523925 L -200.70399475097656 4.8878417015075675 L -200.5500030517578 4.94700002670288 M -200.71400451660156 22.36000061035156 L -200.70399475097656 22.363842010498043 L -200.5500030517578 22.423000335693356 L -200.3800048828125 22.46100044250488 L -200.20700073242188 22.47400093078613 L -200.03399658203125 22.46100044250488 L -199.86399841308594 22.423000335693356 L -199.6999969482422 22.36000061035156 L -199.5449981689453 22.273000717163082 L -199.39999389648438 22.163999557495114 L -199.27000427246094 22.034000396728512 L -199.156005859375 21.88699913024902 L -199.05999755859375 21.72400093078613 L -198.98300170898438 21.548000335693356 L -198.96975708007812 21.503999710083004 L -198.927001953125 21.361999511718746 L -198.89300537109375 21.169000625610348 L -198.8820037841797 20.972999572753903 L -198.89300537109375 20.777999877929684 L -198.927001953125 20.584999084472653 L -198.9586181640625 20.479999542236325 L -198.98300170898438 20.399000167846676 L -199.05999755859375 20.222999572753903 L -199.156005859375 20.05999946594238 L -199.27000427246094 19.912000656127926 L -199.39999389648438 19.78300094604492 L -199.5449981689453 19.67399978637695 L -199.6999969482422 19.586999893188473 L -199.86399841308594 19.524000167846676 L -200.03399658203125 19.486000061035153 L -200.20700073242188 19.472999572753903 L -200.3800048828125 19.486000061035153 L -200.5500030517578 19.524000167846676 L -200.70399475097656 19.58315849304199 L -200.71400451660156 19.586999893188473 L -200.8699951171875 19.67399978637695 L -201.01400756835938 19.78300094604492 L -201.1439971923828 19.912000656127926 L -201.25799560546875 20.05999946594238 L -201.35499572753906 20.222999572753903 L -201.43099975585938 20.399000167846676 L -201.45538330078125 20.479999542236325 L -201.48699951171875 20.584999084472653 L -201.52099609375 20.777999877929684 L -201.53199768066406 20.972999572753903 L -201.52099609375 21.169000625610348 L -201.48699951171875 21.361999511718746 L -201.43099975585938 21.548000335693356 L -201.35499572753906 21.72400093078613 L -201.25799560546875 21.88699913024902 L -201.1439971923828 22.034000396728512 L -201.01400756835938 22.163999557495114 L -200.8699951171875 22.273000717163082 L -200.71400451660156 22.36000061035156 M -222.53700256347656 -20.499999999999996 L -228.53799438476562 -20.499999999999996 L -229.53199768066406 -20.499999999999996 L -236.53700256347656 -20.499999999999996 L -237.52999877929688 -20.499999999999996 L -239.23699951171875 -20.499999999999996 L -240.53700256347656 -20.499999999999996 L -243.53199768066406 -20.499999999999996 L -243.53199768066406 -17.49600028991699 L -240.53700256347656 -17.49600028991699 L -239.23699951171875 -17.49600028991699 L -237.52999877929688 -17.49600028991699 L -236.53700256347656 -17.49600028991699 L -229.53199768066406 -17.49600028991699 L -228.53799438476562 -17.49600028991699 L -222.53700256347656 -17.49600028991699 L -222.53700256347656 -20.499999999999996 M -244.03199768066406 7.502999782562254 L -243.5330047607422 7.502999782562254 L -243.53199768066406 7.502999782562254 L -240.53700256347656 7.502999782562254 L -239.23699951171875 7.502999782562254 L -237.52999877929688 7.502999782562254 L -236.53700256347656 7.502999782562254 L -229.53199768066406 7.502999782562254 L -228.53799438476562 7.502999782562254 L -222.53599548339844 7.502999782562254 L -222.03700256347656 7.502999782562254 L -217.53199768066406 7.502999782562254 L -217.53199768066406 4.501999855041503 L -222.03700256347656 4.501999855041503 L -222.53599548339844 4.501999855041503 L -228.53799438476562 4.501999855041503 L -229.53199768066406 4.501999855041503 L -236.53700256347656 4.501999855041503 L -237.52999877929688 4.501999855041503 L -239.23699951171875 4.501999855041503 L -240.53700256347656 4.501999855041503 L -243.53199768066406 4.501999855041503 L -243.5330047607422 4.501999855041503 L -244.03199768066406 4.501999855041503 L -248.53700256347656 4.501999855041503 L -248.53700256347656 7.502999782562254 L -244.03199768066406 7.502999782562254 M -248.53700256347656 -13.5019998550415 L -248.53700256347656 -10.501999855041502 L -244.03199768066406 -10.501999855041502 L -243.5330047607422 -10.501999855041502 L -243.53199768066406 -10.501999855041502 L -240.53700256347656 -10.501999855041502 L -239.23699951171875 -10.501999855041502 L -237.52999877929688 -10.501999855041502 L -236.53700256347656 -10.501999855041502 L -229.53199768066406 -10.501999855041502 L -228.53799438476562 -10.501999855041502 L -222.53599548339844 -10.501999855041502 L -222.03700256347656 -10.501999855041502 L -217.53199768066406 -10.501999855041502 L -217.53199768066406 -13.5019998550415 L -222.03700256347656 -13.5019998550415 L -222.53599548339844 -13.5019998550415 L -228.53799438476562 -13.5019998550415 L -229.53199768066406 -13.5019998550415 L -236.53700256347656 -13.5019998550415 L -237.52999877929688 -13.5019998550415 L -239.23699951171875 -13.5019998550415 L -240.53700256347656 -13.5019998550415 L -243.53199768066406 -13.5019998550415 L -243.5330047607422 -13.5019998550415 L -244.03199768066406 -13.5019998550415 L -248.53700256347656 -13.5019998550415 M -256.5320129394531 -3.496999979019164 L -256.0360107421875 -3.496999979019164 L -253.53599548339844 -3.496999979019164 L -253.53599548339844 -13.5019998550415 L -255.03599548339844 -13.5019998550415 L -256.5320129394531 -13.5019998550415 L -259.0369873046875 -13.5019998550415 L -262.5350036621094 -13.5019998550415 L -263.5369873046875 -13.5019998550415 L -263.5369873046875 -3.496999979019164 L -262.5350036621094 -3.496999979019164 L -259.0369873046875 -3.496999979019164 L -259.0360107421875 -3.496999979019164 L -256.5320129394531 -3.496999979019164 M -278 -76.00299835205077 L -279.5369873046875 -76.00299835205077 L -279.5369873046875 -63.9980010986328 L -272.5369873046875 -63.9980010986328 L -272.5360107421875 -63.9980010986328 L -272.5360107421875 -76.00299835205077 L -278 -76.00299835205077 M -278 -79.9980010986328 L -278 -85.99999999999999 L -279.5369873046875 -85.99999999999999 L -284.00201416015625 -85.99999999999999 L -284.00201416015625 -79.9980010986328 L -279.5369873046875 -79.9980010986328 L -278 -79.9980010986328 M -181.9969940185547 -85.99999999999999 L -187.99899291992188 -85.99999999999999 L -187.99899291992188 -83.9980010986328 L -187.99899291992188 -83.9970016479492 L -187.99899291992188 -79.9980010986328 L -186.53199768066406 -79.9980010986328 L -181.9969940185547 -79.9980010986328 L -181.9969940185547 -83.9970016479492 L -181.9969940185547 -83.9980010986328 L -181.9969940185547 -85.99999999999999 M -187.99899291992188 -76.00299835205077 L -193.5330047607422 -76.00299835205077 L -193.5330047607422 -63.9980010986328 L -193.53199768066406 -63.9980010986328 L -186.53199768066406 -63.9980010986328 L -186.53199768066406 -76.00299835205077 L -187.99899291992188 -76.00299835205077 z" fill="none" stroke="rgb(255,0,0)" stroke-width="0.001mm" />
</svg>