<?xml version="1.0" standalone="no"?>
<!DOCTYPE svg PUBLIC "-//W3C//DTD SVG 1.1//EN"
  "http://www.w3.org/Graphics/SVG/1.1/DTD/svg11.dtd">
<svg width="102mm" height="131.99999999999997mm" viewBox="-101 -64.99999999999999 102 131.99999999999997" xmlns="http://www.w3.org/2000/svg" version="1.1">
	<title>svgOutput</title>
	<desc>made with tinkercad</desc>
<path d="M -8.192000389099121 -42.10300064086913 L -13.503000259399414 -42.10300064086913 L -16.384000778198242 -42.10300064086913 L -16.99799919128418 -42.10300064086913 L -27.503000259399414 -42.10300064086913 L -28.152999877929688 -42.10300064086913 L -28.152999877929688 -37.0979995727539 L -27.503000259399414 -37.0979995727539 L -16.384000778198242 -37.0979995727539 L -13.503000259399414 -37.0979995727539 L -8.192000389099121 -37.0979995727539 L -8.14799976348877 -37.0979995727539 L -8.14799976348877 -37.37599945068359 L -8.14799976348877 -37.88800048828124 L -8.14799976348877 -38.91199874877929 L -8.14799976348877 -40.95999908447265 L -8.14799976348877 -42.10300064086913 L -8.192000389099121 -42.10300064086913 M -9.99899959564209 -6.001999855041502 L 0 -6.001999855041502 L 0 8.001999855041502 L -9.99899959564209 8.001999855041502 L -9.99899959564209 7.00099992752075 L -13.503000259399414 7.00099992752075 L -23.000999450683594 7.00099992752075 L -24.996999740600586 7.00099992752075 L -27.00200080871582 7.00099992752075 L -27.00200080871582 11.003000259399412 L -24.996999740600586 11.003000259399412 L -18.999000549316406 11.003000259399412 L -13.503000259399414 11.003000259399412 L 0 11.003000259399412 L 0 55.999999999999986 L -10 65.99999999999999 L -13.503000259399414 65.99999999999999 L -27.503000259399414 65.99999999999999 L -28.152999877929688 65.99999999999999 L -31.952999114990234 65.99999999999999 L -32.49700164794922 65.99999999999999 L -72.49700164794922 65.99999999999999 L -75.00299835205078 65.99999999999999 L -90 65.99999999999999 L -94.99800109863281 61.00199890136717 L -95.6520004272461 60.34799957275389 L -98.00299835205078 57.997001647949205 L -100 55.999999999999986 L -100 11.003000259399412 L -98.00299835205078 11.003000259399412 L -95.6520004272461 11.003000259399412 L -94.99800109863281 11.003000259399412 L -90.0009994506836 11.003000259399412 L -81.0009994506836 11.003000259399412 L -75.00299835205078 11.003000259399412 L -72.99800109863281 11.003000259399412 L -72.99800109863281 7.00099992752075 L -75.00299835205078 7.00099992752075 L -76.9990005493164 7.00099992752075 L -90.0009994506836 7.00099992752075 L -90.0009994506836 8.001999855041502 L -95.6520004272461 8.001999855041502 L -100 8.001999855041502 L -100 -6.001999855041502 L -95.6520004272461 -6.001999855041502 L -90.0009994506836 -6.001999855041502 L -90.0009994506836 -5.000999927520751 L -76.9990005493164 -5.000999927520751 L -75.00299835205078 -5.000999927520751 L -72.99800109863281 -5.000999927520751 L -72.99800109863281 -9.003000259399412 L -75.00299835205078 -9.003000259399412 L -81.0009994506836 -9.003000259399412 L -95.6520004272461 -9.003000259399412 L -100 -9.003000259399412 L -100 -44.998001098632805 L -100 -48.00299835205077 L -100 -49.497001647949205 L -100 -53.999999999999986 L -98.49700164794922 -55.50299835205077 L -98.00199890136719 -55.9980010986328 L -92.99700164794922 -61.00299835205077 L -90 -63.999999999999986 L -10 -63.999999999999986 L -7.002999782562256 -61.00299835205077 L -1.503000020980835 -55.50299835205077 L 0 -53.999999999999986 L 0 -49.497001647949205 L 0 -36.19800186157226 L 0 -15.496999740600582 L 0 -9.003000259399412 L -9.99899959564209 -9.003000259399412 L -13.503000259399414 -9.003000259399412 L -18.999000549316406 -9.003000259399412 L -24.996999740600586 -9.003000259399412 L -27.00200080871582 -9.003000259399412 L -27.00200080871582 -5.000999927520751 L -24.996999740600586 -5.000999927520751 L -23.000999450683594 -5.000999927520751 L -13.503000259399414 -5.000999927520751 L -9.99899959564209 -5.000999927520751 L -9.99899959564209 -6.001999855041502 M -27.99799919128418 52.00199890136717 L -28.152999877929688 52.00199890136717 L -31.952999114990234 52.00199890136717 L -32.49700164794922 52.00199890136717 L -72.00199890136719 52.00199890136717 L -72.00199890136719 33.998001098632805 L -32.49700164794922 33.998001098632805 L -31.952999114990234 33.998001098632805 L -28.152999877929688 33.998001098632805 L -27.99799919128418 33.998001098632805 L -27.99799919128418 37.9990005493164 L -27.503000259399414 37.9990005493164 L -24.996999740600586 37.9990005493164 L -24.996999740600586 30.99699974060058 L -27.503000259399414 30.99699974060058 L -27.99799919128418 30.99699974060058 L -28.152999877929688 30.99699974060058 L -30.003000259399414 30.99699974060058 L -31.952999114990234 30.99699974060058 L -32.49700164794922 30.99699974060058 L -72.00199890136719 30.99699974060058 L -72.49700164794922 30.99699974060058 L -75.00299835205078 30.99699974060058 L -75.00299835205078 55.00299835205077 L -72.49700164794922 55.00299835205077 L -32.49700164794922 55.00299835205077 L -31.952999114990234 55.00299835205077 L -28.152999877929688 55.00299835205077 L -27.99799919128418 55.00299835205077 L -27.503000259399414 55.00299835205077 L -24.996999740600586 55.00299835205077 L -24.996999740600586 48.00099945068358 L -27.503000259399414 48.00099945068358 L -27.99799919128418 48.00099945068358 L -27.99799919128418 52.00199890136717 M -28.00200080871582 1.1102230246251565e-16 L -27.99799919128418 -0.004000000189989693 L -27.503000259399414 -0.49900001287460305 L -27.00200080871582 -0.9999999999999997 L -27.00200080871582 -2.0009999275207515 L -27.503000259399414 -2.0009999275207515 L -27.99799919128418 -2.0009999275207515 L -28.00200080871582 -2.0009999275207515 L -28.152999877929688 -2.0009999275207515 L -30.003000259399414 -2.0009999275207515 L -30.003000259399414 -0.00100000004749734 L -30.003000259399414 4.000999927520751 L -28.152999877929688 4.000999927520751 L -27.99799919128418 4.000999927520751 L -27.503000259399414 4.000999927520751 L -27.00200080871582 4.000999927520751 L -27.00200080871582 2.999999999999999 L -27.503000259399414 2.4990000724792476 L -27.99799919128418 2.0039999485015865 L -28.00200080871582 1.9999999999999996 L -28.00200080871582 1.1102230246251565e-16 M -94.76100158691406 -36.32699966430663 L -94.72000122070312 -36.308364868164055 L -94.71700286865234 -36.30699920654296 L -94.6709976196289 -36.29000091552734 L -94.625 -36.27399826049804 L -94.5790023803711 -36.2589988708496 L -94.53299713134766 -36.24599838256835 L -94.48600006103516 -36.235000610351555 L -94.43900299072266 -36.22499847412109 L -94.39099884033203 -36.21699905395507 L -94.34400177001953 -36.20999908447265 L -94.2959976196289 -36.20399856567382 L -94.20800018310547 -36.198501586914055 L -94.19999694824219 -36.19800186157226 L -94.10399627685547 -36.19800186157226 L -94.00800323486328 -36.20399856567382 L -93.95999908447266 -36.20999908447265 L -93.91300201416016 -36.21699905395507 L -93.86499786376953 -36.22499847412109 L -93.81800079345703 -36.235000610351555 L -93.77100372314453 -36.24599838256835 L -93.7249984741211 -36.2589988708496 L -93.69599914550781 -36.26845550537109 L -93.67900085449219 -36.27399826049804 L -93.63300323486328 -36.29000091552734 L -93.58699798583984 -36.30699920654296 L -93.54299926757812 -36.32699966430663 L -93.49800109863281 -36.347000122070305 L -93.48799896240234 -36.35200119018554 L -93.4540023803711 -36.368999481201165 L -93.41100311279297 -36.39300155639648 L -93.36799621582031 -36.41799926757812 L -93.32599639892578 -36.44499969482421 L -93.28500366210938 -36.4729995727539 L -93.24500274658203 -36.502998352050774 L -93.20500183105469 -36.53400039672851 L -93.18399810791016 -36.55176925659179 L -93.16600036621094 -36.56700134277343 L -93.12799835205078 -36.601001739501946 L -93.09100341796875 -36.63700103759765 L -93.05500030517578 -36.673999786376946 L -93.02100372314453 -36.7120018005371 L -92.98799896240234 -36.75099945068359 L -92.95700073242188 -36.79100036621093 L -92.927001953125 -36.83200073242187 L -92.90514373779297 -36.86399841308593 L -92.89900207519531 -36.873001098632805 L -92.87200164794922 -36.91500091552734 L -92.84700012207031 -36.95700073242187 L -92.822998046875 -37.00099945068359 L -92.8010025024414 -37.044998168945305 L -92.78099822998047 -37.08900070190429 L -92.76200103759766 -37.1339988708496 L -92.74400329589844 -37.17900085449218 L -92.72799682617188 -37.22499847412109 L -92.71299743652344 -37.27099990844726 L -92.69999694824219 -37.318000793457024 L -92.68900299072266 -37.36500167846679 L -92.68666076660156 -37.37599945068359 L -92.67900085449219 -37.41199874877929 L -92.6709976196289 -37.45999908447265 L -92.66400146484375 -37.506999969482415 L -92.65899658203125 -37.555000305175774 L -92.65499877929688 -37.60300064086913 L -92.6520004272461 -37.65100097656249 L -92.6520004272461 -37.74700164794921 L -92.65499877929688 -37.794998168945305 L -92.65899658203125 -37.842998504638665 L -92.66368865966797 -37.88800048828124 L -92.66400146484375 -37.890998840332024 L -92.6709976196289 -37.93799972534179 L -92.67900085449219 -37.98600006103515 L -92.68900299072266 -38.033000946044915 L -92.69999694824219 -38.08000183105468 L -92.71299743652344 -38.12599945068359 L -92.72799682617188 -38.17300033569335 L -92.74400329589844 -38.217998504638665 L -92.76200103759766 -38.26399993896484 L -92.78099822998047 -38.30899810791015 L -92.8010025024414 -38.35300064086913 L -92.822998046875 -38.39699935913085 L -92.82467651367188 -38.4000015258789 L -92.84700012207031 -38.43999862670898 L -92.87200164794922 -38.48300170898437 L -92.89900207519531 -38.5250015258789 L -92.927001953125 -38.56600189208984 L -92.95700073242188 -38.60699844360351 L -92.98799896240234 -38.64599990844726 L -93.02100372314453 -38.68500137329101 L -93.05500030517578 -38.7229995727539 L -93.09100341796875 -38.759998321533196 L -93.12799835205078 -38.796001434326165 L -93.16600036621094 -38.831001281738274 L -93.18399810791016 -38.84576797485351 L -93.20500183105469 -38.86299896240234 L -93.24500274658203 -38.895000457763665 L -93.26766967773438 -38.91199874877929 L -93.28500366210938 -38.92499923706054 L -93.32599639892578 -38.95299911499023 L -93.36799621582031 -38.97999954223632 L -93.41100311279297 -39.00500106811523 L -93.4540023803711 -39.02799987792968 L -93.49800109863281 -39.05099868774413 L -93.54299926757812 -39.070999145507805 L -93.58699798583984 -39.09000015258788 L -93.63300323486328 -39.10800170898437 L -93.67900085449219 -39.1240005493164 L -93.69599914550781 -39.12917327880859 L -93.7249984741211 -39.13800048828124 L -93.77100372314453 -39.15100097656249 L -93.81800079345703 -39.16299819946288 L -93.86499786376953 -39.17300033569335 L -93.91300201416016 -39.18099975585937 L -93.95999908447266 -39.18799972534179 L -94.00800323486328 -39.193000793457024 L -94.05599975585938 -39.1969985961914 L -94.10399627685547 -39.19900131225585 L -94.1520004272461 -39.200000762939446 L -94.19999694824219 -39.19900131225585 L -94.20800018310547 -39.19866561889648 L -94.24800109863281 -39.1969985961914 L -94.2959976196289 -39.193000793457024 L -94.34400177001953 -39.18799972534179 L -94.39099884033203 -39.18099975585937 L -94.43900299072266 -39.17300033569335 L -94.48600006103516 -39.16299819946288 L -94.53299713134766 -39.15100097656249 L -94.5790023803711 -39.13800048828124 L -94.625 -39.1240005493164 L -94.6709976196289 -39.10800170898437 L -94.71700286865234 -39.09000015258788 L -94.72000122070312 -39.08870315551757 L -94.76100158691406 -39.070999145507805 L -94.80599975585938 -39.05099868774413 L -94.8499984741211 -39.02799987792968 L -94.89299774169922 -39.00500106811523 L -94.93599700927734 -38.97999954223632 L -94.97799682617188 -38.95299911499023 L -95.01899719238281 -38.92499923706054 L -95.03633117675781 -38.91199874877929 L -95.05899810791016 -38.895000457763665 L -95.0989990234375 -38.86299896240234 L -95.13800048828125 -38.831001281738274 L -95.1760025024414 -38.796001434326165 L -95.21299743652344 -38.759998321533196 L -95.23200225830078 -38.74047088623046 L -95.2490005493164 -38.7229995727539 L -95.28299713134766 -38.68500137329101 L -95.31600189208984 -38.64599990844726 L -95.34700012207031 -38.60699844360351 L -95.37699890136719 -38.56600189208984 L -95.40499877929688 -38.5250015258789 L -95.43199920654297 -38.48300170898437 L -95.45700073242188 -38.43999862670898 L -95.47932434082031 -38.4000015258789 L -95.48100280761719 -38.39699935913085 L -95.50299835205078 -38.35300064086913 L -95.52300262451172 -38.30899810791015 L -95.54199981689453 -38.26399993896484 L -95.55999755859375 -38.217998504638665 L -95.57599639892578 -38.17300033569335 L -95.59100341796875 -38.12599945068359 L -95.60399627685547 -38.08000183105468 L -95.61499786376953 -38.033000946044915 L -95.625 -37.98600006103515 L -95.63300323486328 -37.93799972534179 L -95.63999938964844 -37.890998840332024 L -95.64031219482422 -37.88800048828124 L -95.6449966430664 -37.842998504638665 L -95.64900207519531 -37.794998168945305 L -95.6520004272461 -37.74700164794921 L -95.6520004272461 -37.65100097656249 L -95.64900207519531 -37.60300064086913 L -95.6449966430664 -37.555000305175774 L -95.63999938964844 -37.506999969482415 L -95.63300323486328 -37.45999908447265 L -95.625 -37.41199874877929 L -95.61734008789062 -37.37599945068359 L -95.61499786376953 -37.36500167846679 L -95.60399627685547 -37.318000793457024 L -95.59100341796875 -37.27099990844726 L -95.57599639892578 -37.22499847412109 L -95.55999755859375 -37.17900085449218 L -95.54199981689453 -37.1339988708496 L -95.52300262451172 -37.08900070190429 L -95.50299835205078 -37.044998168945305 L -95.48100280761719 -37.00099945068359 L -95.45700073242188 -36.95700073242187 L -95.43199920654297 -36.91500091552734 L -95.40499877929688 -36.873001098632805 L -95.39885711669922 -36.86399841308593 L -95.37699890136719 -36.83200073242187 L -95.34700012207031 -36.79100036621093 L -95.31600189208984 -36.75099945068359 L -95.28299713134766 -36.7120018005371 L -95.2490005493164 -36.673999786376946 L -95.23200225830078 -36.65652847290038 L -95.21299743652344 -36.63700103759765 L -95.1760025024414 -36.601001739501946 L -95.13800048828125 -36.56700134277343 L -95.0989990234375 -36.53400039672851 L -95.05899810791016 -36.502998352050774 L -95.01899719238281 -36.4729995727539 L -94.97799682617188 -36.44499969482421 L -94.93599700927734 -36.41799926757812 L -94.89299774169922 -36.39300155639648 L -94.8499984741211 -36.368999481201165 L -94.80599975585938 -36.347000122070305 L -94.76100158691406 -36.32699966430663 M -62.50199890136719 -18.997999191284176 L -62.50199890136719 -36.19800186157226 L -62.50199890136719 -40.002998352050774 L -65.50299835205078 -40.002998352050774 L -65.50299835205078 -36.19800186157226 L -65.50299835205078 -18.997999191284176 L -65.50299835205078 -15.996999740600582 L -62.50299835205078 -15.996999740600582 L -61.00199890136719 -15.996999740600582 L -38.99800109863281 -15.996999740600582 L -35.99700164794922 -15.996999740600582 L -34.99700164794922 -15.996999740600582 L -34.99700164794922 -18.997999191284176 L -34.99700164794922 -36.19800186157226 L -34.99700164794922 -40.002998352050774 L -37.49800109863281 -40.002998352050774 L -37.49800109863281 -36.19800186157226 L -37.49800109863281 -18.997999191284176 L -38.99800109863281 -18.997999191284176 L -61.00199890136719 -18.997999191284176 L -62.50199890136719 -18.997999191284176 M -71.99800109863281 1.9999999999999996 L -72.49700164794922 2.4990000724792476 L -72.99800109863281 2.999999999999999 L -72.99800109863281 4.000999927520751 L -72.49700164794922 4.000999927520751 L -71.99800109863281 4.000999927520751 L -69.99700164794922 4.000999927520751 L -69.99700164794922 2.0009999275207515 L -69.99700164794922 -2.0009999275207515 L -72.49700164794922 -2.0009999275207515 L -72.99800109863281 -2.0009999275207515 L -72.99800109863281 -0.9999999999999997 L -72.49700164794922 -0.49900001287460305 L -71.99800109863281 1.1102230246251565e-16 L -71.99800109863281 1.9999999999999996 M -6.456999778747559 -36.32699966430663 L -6.413000106811523 -36.30699920654296 L -6.367000102996826 -36.29000091552734 L -6.321000099182129 -36.27399826049804 L -6.275000095367432 -36.2589988708496 L -6.229000091552734 -36.24599838256835 L -6.182000160217285 -36.235000610351555 L -6.144000053405762 -36.22691345214843 L -6.135000228881836 -36.22499847412109 L -6.086999893188477 -36.21699905395507 L -6.039999961853027 -36.20999908447265 L -5.992000102996826 -36.20399856567382 L -5.895999908447266 -36.19800186157226 L -5.800000190734863 -36.19800186157226 L -5.703999996185303 -36.20399856567382 L -5.656000137329102 -36.20999908447265 L -5.631999969482422 -36.21357345581054 L -5.609000205993652 -36.21699905395507 L -5.560999870300293 -36.22499847412109 L -5.513999938964844 -36.235000610351555 L -5.4670000076293945 -36.24599838256835 L -5.421000003814697 -36.2589988708496 L -5.375 -36.27399826049804 L -5.328999996185303 -36.29000091552734 L -5.288935661315918 -36.30480575561523 L -5.2829999923706055 -36.30699920654296 L -5.238999843597412 -36.32699966430663 L -5.193999767303467 -36.347000122070305 L -5.150000095367432 -36.368999481201165 L -5.119999885559082 -36.38574600219726 L -5.10699987411499 -36.39300155639648 L -5.064000129699707 -36.41799926757812 L -5.021999835968018 -36.44499969482421 L -4.980999946594238 -36.4729995727539 L -4.940999984741211 -36.502998352050774 L -4.901000022888184 -36.53400039672851 L -4.861999988555908 -36.56700134277343 L -4.823999881744385 -36.601001739501946 L -4.816805362701416 -36.60800170898437 L -4.7870001792907715 -36.63700103759765 L -4.750999927520752 -36.673999786376946 L -4.7170000076293945 -36.7120018005371 L -4.684000015258789 -36.75099945068359 L -4.6529998779296875 -36.79100036621093 L -4.623000144958496 -36.83200073242187 L -4.607999801635742 -36.85396575927734 L -4.601146221160889 -36.86399841308593 L -4.59499979019165 -36.873001098632805 L -4.567999839782715 -36.91500091552734 L -4.543000221252441 -36.95700073242187 L -4.519000053405762 -37.00099945068359 L -4.497000217437744 -37.044998168945305 L -4.4770002365112305 -37.08900070190429 L -4.458000183105469 -37.1339988708496 L -4.440000057220459 -37.17900085449218 L -4.423999786376953 -37.22499847412109 L -4.408999919891357 -37.27099990844726 L -4.395999908447266 -37.318000793457024 L -4.385000228881836 -37.36500167846679 L -4.382659435272217 -37.37599945068359 L -4.375 -37.41199874877929 L -4.367000102996826 -37.45999908447265 L -4.360000133514404 -37.506999969482415 L -4.355000019073486 -37.555000305175774 L -4.35099983215332 -37.60300064086913 L -4.3480000495910645 -37.65100097656249 L -4.3480000495910645 -37.74700164794921 L -4.35099983215332 -37.794998168945305 L -4.355000019073486 -37.842998504638665 L -4.359687328338623 -37.88800048828124 L -4.360000133514404 -37.890998840332024 L -4.367000102996826 -37.93799972534179 L -4.375 -37.98600006103515 L -4.385000228881836 -38.033000946044915 L -4.395999908447266 -38.08000183105468 L -4.408999919891357 -38.12599945068359 L -4.423999786376953 -38.17300033569335 L -4.440000057220459 -38.217998504638665 L -4.458000183105469 -38.26399993896484 L -4.4770002365112305 -38.30899810791015 L -4.497000217437744 -38.35300064086913 L -4.519000053405762 -38.39699935913085 L -4.520674228668213 -38.4000015258789 L -4.543000221252441 -38.43999862670898 L -4.567999839782715 -38.48300170898437 L -4.59499979019165 -38.5250015258789 L -4.623000144958496 -38.56600189208984 L -4.6529998779296875 -38.60699844360351 L -4.684000015258789 -38.64599990844726 L -4.7170000076293945 -38.68500137329101 L -4.750999927520752 -38.7229995727539 L -4.7870001792907715 -38.759998321533196 L -4.823999881744385 -38.796001434326165 L -4.861999988555908 -38.831001281738274 L -4.901000022888184 -38.86299896240234 L -4.940999984741211 -38.895000457763665 L -4.9636664390563965 -38.91199874877929 L -4.980999946594238 -38.92499923706054 L -5.021999835968018 -38.95299911499023 L -5.064000129699707 -38.97999954223632 L -5.10699987411499 -39.00500106811523 L -5.119999885559082 -39.01195526123046 L -5.150000095367432 -39.02799987792968 L -5.193999767303467 -39.05099868774413 L -5.238999843597412 -39.070999145507805 L -5.2829999923706055 -39.09000015258788 L -5.328999996185303 -39.10800170898437 L -5.375 -39.1240005493164 L -5.421000003814697 -39.13800048828124 L -5.4670000076293945 -39.15100097656249 L -5.513999938964844 -39.16299819946288 L -5.560999870300293 -39.17300033569335 L -5.609000205993652 -39.18099975585937 L -5.631999969482422 -39.1844253540039 L -5.656000137329102 -39.18799972534179 L -5.703999996185303 -39.193000793457024 L -5.751999855041504 -39.1969985961914 L -5.800000190734863 -39.19900131225585 L -5.8480000495910645 -39.200000762939446 L -5.895999908447266 -39.19900131225585 L -5.943999767303467 -39.1969985961914 L -5.992000102996826 -39.193000793457024 L -6.039999961853027 -39.18799972534179 L -6.086999893188477 -39.18099975585937 L -6.135000228881836 -39.17300033569335 L -6.144000053405762 -39.17108535766601 L -6.182000160217285 -39.16299819946288 L -6.229000091552734 -39.15100097656249 L -6.275000095367432 -39.13800048828124 L -6.321000099182129 -39.1240005493164 L -6.367000102996826 -39.10800170898437 L -6.413000106811523 -39.09000015258788 L -6.456999778747559 -39.070999145507805 L -6.501999855041504 -39.05099868774413 L -6.546000003814697 -39.02799987792968 L -6.589000225067139 -39.00500106811523 L -6.631999969482422 -38.97999954223632 L -6.673999786376953 -38.95299911499023 L -6.715000152587891 -38.92499923706054 L -6.732333183288574 -38.91199874877929 L -6.755000114440918 -38.895000457763665 L -6.795000076293945 -38.86299896240234 L -6.834000110626221 -38.831001281738274 L -6.872000217437744 -38.796001434326165 L -6.908999919891357 -38.759998321533196 L -6.945000171661377 -38.7229995727539 L -6.979000091552734 -38.68500137329101 L -7.01200008392334 -38.64599990844726 L -7.043000221252441 -38.60699844360351 L -7.072999954223633 -38.56600189208984 L -7.10099983215332 -38.5250015258789 L -7.127999782562256 -38.48300170898437 L -7.1529998779296875 -38.43999862670898 L -7.168000221252441 -38.41312408447265 L -7.177000045776367 -38.39699935913085 L -7.198999881744385 -38.35300064086913 L -7.218999862670898 -38.30899810791015 L -7.23799991607666 -38.26399993896484 L -7.25600004196167 -38.217998504638665 L -7.271999835968018 -38.17300033569335 L -7.2870001792907715 -38.12599945068359 L -7.300000190734863 -38.08000183105468 L -7.310999870300293 -38.033000946044915 L -7.321000099182129 -37.98600006103515 L -7.328999996185303 -37.93799972534179 L -7.335999965667725 -37.890998840332024 L -7.336312294006348 -37.88800048828124 L -7.341000080108643 -37.842998504638665 L -7.34499979019165 -37.794998168945305 L -7.3480000495910645 -37.74700164794921 L -7.3480000495910645 -37.65100097656249 L -7.34499979019165 -37.60300064086913 L -7.341000080108643 -37.555000305175774 L -7.335999965667725 -37.506999969482415 L -7.328999996185303 -37.45999908447265 L -7.321000099182129 -37.41199874877929 L -7.313340663909912 -37.37599945068359 L -7.310999870300293 -37.36500167846679 L -7.300000190734863 -37.318000793457024 L -7.2870001792907715 -37.27099990844726 L -7.271999835968018 -37.22499847412109 L -7.25600004196167 -37.17900085449218 L -7.23799991607666 -37.1339988708496 L -7.218999862670898 -37.08900070190429 L -7.198999881744385 -37.044998168945305 L -7.177000045776367 -37.00099945068359 L -7.168000221252441 -36.98450088500976 L -7.1529998779296875 -36.95700073242187 L -7.127999782562256 -36.91500091552734 L -7.10099983215332 -36.873001098632805 L -7.09485387802124 -36.86399841308593 L -7.072999954223633 -36.83200073242187 L -7.043000221252441 -36.79100036621093 L -7.01200008392334 -36.75099945068359 L -6.979000091552734 -36.7120018005371 L -6.945000171661377 -36.673999786376946 L -6.908999919891357 -36.63700103759765 L -6.872000217437744 -36.601001739501946 L -6.834000110626221 -36.56700134277343 L -6.795000076293945 -36.53400039672851 L -6.755000114440918 -36.502998352050774 L -6.715000152587891 -36.4729995727539 L -6.673999786376953 -36.44499969482421 L -6.656000137329102 -36.43342971801757 L -6.631999969482422 -36.41799926757812 L -6.589000225067139 -36.39300155639648 L -6.546000003814697 -36.368999481201165 L -6.51200008392334 -36.35200119018554 L -6.501999855041504 -36.347000122070305 L -6.456999778747559 -36.32699966430663 M -31.235000610351562 -36.41799926757812 L -31.23200035095215 -36.41625595092773 L -31.191999435424805 -36.39300155639648 L -31.14900016784668 -36.368999481201165 L -31.104999542236328 -36.347000122070305 L -31.059999465942383 -36.32699966430663 L -31.014999389648438 -36.307998657226555 L -30.969999313354492 -36.29000091552734 L -30.923999786376953 -36.27399826049804 L -30.878000259399414 -36.2589988708496 L -30.83099937438965 -36.24599838256835 L -30.784000396728516 -36.235000610351555 L -30.73699951171875 -36.22499847412109 L -30.719999313354492 -36.22210693359374 L -30.690000534057617 -36.21699905395507 L -30.642000198364258 -36.20999908447265 L -30.5939998626709 -36.20399856567382 L -30.49799919128418 -36.19800186157226 L -30.402000427246094 -36.19800186157226 L -30.305999755859375 -36.20399856567382 L -30.257999420166016 -36.20999908447265 L -30.211000442504883 -36.21699905395507 L -30.20800018310547 -36.21749877929687 L -30.163000106811523 -36.22499847412109 L -30.115999221801758 -36.235000610351555 L -30.069000244140625 -36.24599838256835 L -30.02199935913086 -36.2589988708496 L -29.97599983215332 -36.27399826049804 L -29.93000030517578 -36.29000091552734 L -29.885000228881836 -36.307998657226555 L -29.84000015258789 -36.32699966430663 L -29.795000076293945 -36.347000122070305 L -29.750999450683594 -36.368999481201165 L -29.70800018310547 -36.39300155639648 L -29.695999145507812 -36.399978637695305 L -29.665000915527344 -36.41799926757812 L -29.62299919128418 -36.44499969482421 L -29.582000732421875 -36.4729995727539 L -29.541000366210938 -36.502998352050774 L -29.50200080871582 -36.53400039672851 L -29.46299934387207 -36.56700134277343 L -29.424999237060547 -36.60200119018554 L -29.38800048828125 -36.63800048828124 L -29.351999282836914 -36.67499923706054 L -29.316999435424805 -36.713001251220696 L -29.284000396728516 -36.75199890136718 L -29.253000259399414 -36.79100036621093 L -29.222999572753906 -36.83200073242187 L -29.201147079467773 -36.86399841308593 L -29.19499969482422 -36.873001098632805 L -29.167999267578125 -36.91500091552734 L -29.14299964904785 -36.95800018310546 L -29.118999481201172 -37.00099945068359 L -29.097000122070312 -37.044998168945305 L -29.07699966430664 -37.09000015258788 L -29.058000564575195 -37.134998321533196 L -29.040000915527344 -37.180000305175774 L -29.02400016784668 -37.226001739501946 L -29.009000778198242 -37.27199935913085 L -28.996000289916992 -37.31900024414062 L -28.985000610351562 -37.36600112915038 L -28.982872009277344 -37.37599945068359 L -28.975000381469727 -37.41299819946288 L -28.966999053955078 -37.46099853515624 L -28.959999084472656 -37.50799942016601 L -28.95400047302246 -37.55599975585937 L -28.947999954223633 -37.65200042724609 L -28.947999954223633 -37.748001098632805 L -28.95400047302246 -37.844001770019524 L -28.95949935913086 -37.88800048828124 L -28.959999084472656 -37.89199829101562 L -28.966999053955078 -37.93999862670898 L -28.975000381469727 -37.98699951171874 L -28.985000610351562 -38.03400039672851 L -28.996000289916992 -38.081001281738274 L -29.009000778198242 -38.127998352050774 L -29.02400016784668 -38.173999786376946 L -29.040000915527344 -38.22000122070312 L -29.058000564575195 -38.26499938964843 L -29.07699966430664 -38.31000137329101 L -29.097000122070312 -38.35499954223632 L -29.118999481201172 -38.39899826049804 L -29.119558334350586 -38.4000015258789 L -29.14299964904785 -38.44200134277343 L -29.167999267578125 -38.485000610351555 L -29.19499969482422 -38.52700042724609 L -29.222999572753906 -38.568000793457024 L -29.253000259399414 -38.60900115966796 L -29.284000396728516 -38.647998809814446 L -29.316999435424805 -38.687000274658196 L -29.351999282836914 -38.72499847412109 L -29.38800048828125 -38.76300048828124 L -29.424999237060547 -38.79800033569335 L -29.46299934387207 -38.83300018310546 L -29.50200080871582 -38.86600112915038 L -29.541000366210938 -38.89699935913085 L -29.561500549316406 -38.91199874877929 L -29.582000732421875 -38.92699813842773 L -29.62299919128418 -38.95500183105468 L -29.665000915527344 -38.98199844360351 L -29.695999145507812 -39.00002288818359 L -29.70800018310547 -39.006999969482415 L -29.750999450683594 -39.03099822998046 L -29.795000076293945 -39.05300140380859 L -29.885000228881836 -39.092998504638665 L -29.93000030517578 -39.110000610351555 L -29.97599983215332 -39.12599945068359 L -30.02199935913086 -39.140998840332024 L -30.069000244140625 -39.153999328613274 L -30.115999221801758 -39.16500091552734 L -30.163000106811523 -39.17499923706054 L -30.20800018310547 -39.18249893188476 L -30.211000442504883 -39.182998657226555 L -30.257999420166016 -39.18999862670898 L -30.305999755859375 -39.195999145507805 L -30.354000091552734 -39.200000762939446 L -30.402000427246094 -39.20199966430663 L -30.450000762939453 -39.20299911499023 L -30.49799919128418 -39.20199966430663 L -30.54599952697754 -39.200000762939446 L -30.5939998626709 -39.195999145507805 L -30.642000198364258 -39.18999862670898 L -30.690000534057617 -39.182998657226555 L -30.719999313354492 -39.17789459228515 L -30.73699951171875 -39.17499923706054 L -30.784000396728516 -39.16500091552734 L -30.83099937438965 -39.153999328613274 L -30.878000259399414 -39.140998840332024 L -30.923999786376953 -39.12599945068359 L -30.969999313354492 -39.110000610351555 L -31.014999389648438 -39.092998504638665 L -31.104999542236328 -39.05300140380859 L -31.14900016784668 -39.03099822998046 L -31.191999435424805 -39.006999969482415 L -31.23200035095215 -38.983745574951165 L -31.235000610351562 -38.98199844360351 L -31.277000427246094 -38.95500183105468 L -31.31800079345703 -38.92699813842773 L -31.338499069213867 -38.91199874877929 L -31.358999252319336 -38.89699935913085 L -31.398000717163086 -38.86600112915038 L -31.437000274658203 -38.83300018310546 L -31.51300048828125 -38.76300048828124 L -31.58300018310547 -38.687000274658196 L -31.615999221801758 -38.647998809814446 L -31.64699935913086 -38.60900115966796 L -31.677000045776367 -38.568000793457024 L -31.704999923706055 -38.52700042724609 L -31.73200035095215 -38.485000610351555 L -31.743999481201172 -38.46435928344726 L -31.756999969482422 -38.44200134277343 L -31.7810001373291 -38.39899826049804 L -31.80299949645996 -38.35499954223632 L -31.843000411987305 -38.26499938964843 L -31.860000610351562 -38.22000122070312 L -31.875999450683594 -38.173999786376946 L -31.891000747680664 -38.127998352050774 L -31.90399932861328 -38.081001281738274 L -31.915000915527344 -38.03400039672851 L -31.924999237060547 -37.98699951171874 L -31.933000564575195 -37.93999862670898 L -31.940000534057617 -37.89199829101562 L -31.940500259399414 -37.88800048828124 L -31.945999145507812 -37.844001770019524 L -31.950000762939453 -37.796001434326165 L -31.95199966430664 -37.748001098632805 L -31.952999114990234 -37.700000762939446 L -31.95199966430664 -37.65200042724609 L -31.950000762939453 -37.60400009155273 L -31.945999145507812 -37.55599975585937 L -31.940000534057617 -37.50799942016601 L -31.933000564575195 -37.46099853515624 L -31.924999237060547 -37.41299819946288 L -31.91712760925293 -37.37599945068359 L -31.915000915527344 -37.36600112915038 L -31.90399932861328 -37.31900024414062 L -31.891000747680664 -37.27199935913085 L -31.875999450683594 -37.226001739501946 L -31.860000610351562 -37.180000305175774 L -31.843000411987305 -37.134998321533196 L -31.80299949645996 -37.044998168945305 L -31.7810001373291 -37.00099945068359 L -31.756999969482422 -36.95800018310546 L -31.743999481201172 -36.93563842773437 L -31.73200035095215 -36.91500091552734 L -31.704999923706055 -36.873001098632805 L -31.698854446411133 -36.86399841308593 L -31.677000045776367 -36.83200073242187 L -31.64699935913086 -36.79100036621093 L -31.615999221801758 -36.75199890136718 L -31.58300018310547 -36.713001251220696 L -31.54800033569336 -36.67499923706054 L -31.51300048828125 -36.63800048828124 L -31.475000381469727 -36.60200119018554 L -31.437000274658203 -36.56700134277343 L -31.398000717163086 -36.53400039672851 L -31.358999252319336 -36.502998352050774 L -31.31800079345703 -36.4729995727539 L -31.277000427246094 -36.44499969482421 L -31.235000610351562 -36.41799926757812 M -31.952999114990234 -44.998001098632805 L -28.947999954223633 -44.998001098632805 L -28.152999877929688 -44.998001098632805 L -27.503000259399414 -44.998001098632805 L -16.99799919128418 -44.998001098632805 L -16.99799919128418 -48.00299835205077 L -27.503000259399414 -48.00299835205077 L -28.152999877929688 -48.00299835205077 L -28.947999954223633 -48.00299835205077 L -31.952999114990234 -48.00299835205077 L -83.00199890136719 -48.00299835205077 L -83.00199890136719 -44.998001098632805 L -71.84700012207031 -44.998001098632805 L -71.052001953125 -44.998001098632805 L -68.0469970703125 -44.998001098632805 L -62.50199890136719 -44.998001098632805 L -34.99700164794922 -44.998001098632805 L -31.952999114990234 -44.998001098632805 M -91.85199737548828 -37.0979995727539 L -90.11199951171875 -37.0979995727539 L -81.91999816894531 -37.0979995727539 L -71.84700012207031 -37.0979995727539 L -71.84700012207031 -42.10300064086913 L -81.91999816894531 -42.10300064086913 L -90.11199951171875 -42.10300064086913 L -91.85199737548828 -42.10300064086913 L -91.85199737548828 -40.95999908447265 L -91.85199737548828 -38.91199874877929 L -91.85199737548828 -37.0979995727539 M -69.63200378417969 -36.20012664794921 L -69.5979995727539 -36.19800186157226 L -69.50199890136719 -36.19800186157226 L -69.40599822998047 -36.20399856567382 L -69.35800170898438 -36.20999908447265 L -69.30999755859375 -36.21699905395507 L -69.26300048828125 -36.22499847412109 L -69.21600341796875 -36.235000610351555 L -69.16899871826172 -36.24599838256835 L -69.12200164794922 -36.2589988708496 L -69.12000274658203 -36.259651184082024 L -69.07599639892578 -36.27399826049804 L -69.02999877929688 -36.29000091552734 L -68.98500061035156 -36.307998657226555 L -68.94000244140625 -36.32699966430663 L -68.8949966430664 -36.347000122070305 L -68.85099792480469 -36.368999481201165 L -68.80799865722656 -36.39300155639648 L -68.76499938964844 -36.41799926757812 L -68.7229995727539 -36.44499969482421 L -68.68199920654297 -36.4729995727539 L -68.64099884033203 -36.502998352050774 L -68.60800170898438 -36.52923202514648 L -68.60199737548828 -36.53400039672851 L -68.56300354003906 -36.56700134277343 L -68.5250015258789 -36.60200119018554 L -68.48699951171875 -36.63800048828124 L -68.4520034790039 -36.67499923706054 L -68.41699981689453 -36.713001251220696 L -68.38400268554688 -36.75199890136718 L -68.35299682617188 -36.79100036621093 L -68.322998046875 -36.83200073242187 L -68.3011474609375 -36.86399841308593 L -68.29499816894531 -36.873001098632805 L -68.26799774169922 -36.91500091552734 L -68.24299621582031 -36.95800018310546 L -68.21900177001953 -37.00099945068359 L -68.1969985961914 -37.044998168945305 L -68.15699768066406 -37.134998321533196 L -68.13999938964844 -37.180000305175774 L -68.1240005493164 -37.226001739501946 L -68.10900115966797 -37.27199935913085 L -68.09600067138672 -37.31900024414062 L -68.08499908447266 -37.36600112915038 L -68.08287048339844 -37.37599945068359 L -68.07499694824219 -37.41299819946288 L -68.06700134277344 -37.46099853515624 L -68.05999755859375 -37.50799942016601 L -68.05400085449219 -37.55599975585937 L -68.05000305175781 -37.60400009155273 L -68.0479965209961 -37.65200042724609 L -68.0469970703125 -37.700000762939446 L -68.0479965209961 -37.748001098632805 L -68.05000305175781 -37.796001434326165 L -68.05400085449219 -37.844001770019524 L -68.05950164794922 -37.88800048828124 L -68.05999755859375 -37.89199829101562 L -68.06700134277344 -37.93999862670898 L -68.07499694824219 -37.98699951171874 L -68.08499908447266 -38.03400039672851 L -68.09600067138672 -38.081001281738274 L -68.10900115966797 -38.127998352050774 L -68.1240005493164 -38.173999786376946 L -68.13999938964844 -38.22000122070312 L -68.15699768066406 -38.26499938964843 L -68.1969985961914 -38.35499954223632 L -68.21900177001953 -38.39899826049804 L -68.21955871582031 -38.4000015258789 L -68.24299621582031 -38.44200134277343 L -68.26799774169922 -38.485000610351555 L -68.29499816894531 -38.52700042724609 L -68.322998046875 -38.568000793457024 L -68.35299682617188 -38.60900115966796 L -68.38400268554688 -38.647998809814446 L -68.41699981689453 -38.687000274658196 L -68.48699951171875 -38.76300048828124 L -68.56300354003906 -38.83300018310546 L -68.60199737548828 -38.86600112915038 L -68.60800170898438 -38.870769500732415 L -68.64099884033203 -38.89699935913085 L -68.6614990234375 -38.91199874877929 L -68.68199920654297 -38.92699813842773 L -68.7229995727539 -38.95500183105468 L -68.76499938964844 -38.98199844360351 L -68.80799865722656 -39.006999969482415 L -68.85099792480469 -39.03099822998046 L -68.8949966430664 -39.05300140380859 L -68.98500061035156 -39.092998504638665 L -69.02999877929688 -39.110000610351555 L -69.07599639892578 -39.12599945068359 L -69.12000274658203 -39.1403465270996 L -69.12200164794922 -39.140998840332024 L -69.16899871826172 -39.153999328613274 L -69.21600341796875 -39.16500091552734 L -69.26300048828125 -39.17499923706054 L -69.30999755859375 -39.182998657226555 L -69.35800170898438 -39.18999862670898 L -69.40599822998047 -39.195999145507805 L -69.4540023803711 -39.200000762939446 L -69.50199890136719 -39.20199966430663 L -69.55000305175781 -39.20299911499023 L -69.5979995727539 -39.20199966430663 L -69.63200378417969 -39.20058441162109 L -69.64600372314453 -39.200000762939446 L -69.69400024414062 -39.195999145507805 L -69.74199676513672 -39.18999862670898 L -69.78900146484375 -39.182998657226555 L -69.83699798583984 -39.17499923706054 L -69.88400268554688 -39.16500091552734 L -69.93099975585938 -39.153999328613274 L -69.97799682617188 -39.140998840332024 L -70.02400207519531 -39.12599945068359 L -70.06999969482422 -39.110000610351555 L -70.11499786376953 -39.092998504638665 L -70.14399719238281 -39.08011245727538 L -70.20500183105469 -39.05300140380859 L -70.2490005493164 -39.03099822998046 L -70.29199981689453 -39.006999969482415 L -70.33499908447266 -38.98199844360351 L -70.37699890136719 -38.95500183105468 L -70.41799926757812 -38.92699813842773 L -70.4384994506836 -38.91199874877929 L -70.45899963378906 -38.89699935913085 L -70.49800109863281 -38.86600112915038 L -70.53700256347656 -38.83300018310546 L -70.57499694824219 -38.79800033569335 L -70.61199951171875 -38.76300048828124 L -70.64800262451172 -38.72499847412109 L -70.65599822998047 -38.71631240844726 L -70.68299865722656 -38.687000274658196 L -70.71600341796875 -38.647998809814446 L -70.74700164794922 -38.60900115966796 L -70.7770004272461 -38.568000793457024 L -70.80500030517578 -38.52700042724609 L -70.83200073242188 -38.485000610351555 L -70.85700225830078 -38.44200134277343 L -70.88043975830078 -38.4000015258789 L -70.88099670410156 -38.39899826049804 L -70.90299987792969 -38.35499954223632 L -70.9229965209961 -38.31000137329101 L -70.94200134277344 -38.26499938964843 L -70.95999908447266 -38.22000122070312 L -70.97599792480469 -38.173999786376946 L -70.99099731445312 -38.127998352050774 L -71.00399780273438 -38.081001281738274 L -71.01499938964844 -38.03400039672851 L -71.0250015258789 -37.98699951171874 L -71.03299713134766 -37.93999862670898 L -71.04000091552734 -37.89199829101562 L -71.04049682617188 -37.88800048828124 L -71.0459976196289 -37.844001770019524 L -71.052001953125 -37.748001098632805 L -71.052001953125 -37.65200042724609 L -71.0459976196289 -37.55599975585937 L -71.04000091552734 -37.50799942016601 L -71.03299713134766 -37.46099853515624 L -71.0250015258789 -37.41299819946288 L -71.01712799072266 -37.37599945068359 L -71.01499938964844 -37.36600112915038 L -71.00399780273438 -37.31900024414062 L -70.99099731445312 -37.27199935913085 L -70.97599792480469 -37.226001739501946 L -70.95999908447266 -37.180000305175774 L -70.94200134277344 -37.134998321533196 L -70.9229965209961 -37.09000015258788 L -70.90299987792969 -37.044998168945305 L -70.88099670410156 -37.00099945068359 L -70.85700225830078 -36.95800018310546 L -70.83200073242188 -36.91500091552734 L -70.80500030517578 -36.873001098632805 L -70.7988510131836 -36.86399841308593 L -70.7770004272461 -36.83200073242187 L -70.74700164794922 -36.79100036621093 L -70.71600341796875 -36.75199890136718 L -70.68299865722656 -36.713001251220696 L -70.65599822998047 -36.68368530273437 L -70.64800262451172 -36.67499923706054 L -70.61199951171875 -36.63800048828124 L -70.57499694824219 -36.60200119018554 L -70.53700256347656 -36.56700134277343 L -70.49800109863281 -36.53400039672851 L -70.45899963378906 -36.502998352050774 L -70.41799926757812 -36.4729995727539 L -70.37699890136719 -36.44499969482421 L -70.33499908447266 -36.41799926757812 L -70.29199981689453 -36.39300155639648 L -70.2490005493164 -36.368999481201165 L -70.20500183105469 -36.347000122070305 L -70.16000366210938 -36.32699966430663 L -70.14399719238281 -36.32024383544921 L -70.11499786376953 -36.307998657226555 L -70.06999969482422 -36.29000091552734 L -70.02400207519531 -36.27399826049804 L -69.97799682617188 -36.2589988708496 L -69.93099975585938 -36.24599838256835 L -69.88400268554688 -36.235000610351555 L -69.83699798583984 -36.22499847412109 L -69.78900146484375 -36.21699905395507 L -69.74199676513672 -36.20999908447265 L -69.69400024414062 -36.20399856567382 L -69.63200378417969 -36.20012664794921 M -94.99800109863281 38.10200119018554 L -94.99800109863281 37.35200119018554 L -95.6520004272461 37.35200119018554 L -98.00299835205078 37.35200119018554 L -98.00299835205078 38.10200119018554 L -98.00299835205078 42.85300064086913 L -95.6520004272461 42.85300064086913 L -94.99800109863281 42.85300064086913 L -94.99800109863281 38.10200119018554 M -61.00199890136719 7.001999855041502 L -61.00199890136719 -9.003000259399412 L -62.50299835205078 -9.003000259399412 L -64.00299835205078 -9.003000259399412 L -64.00299835205078 7.001999855041502 L -64.00299835205078 10.003000259399412 L -62.50299835205078 10.003000259399412 L -38.99800109863281 10.003000259399412 L -35.99700164794922 10.003000259399412 L -35.99700164794922 -9.003000259399412 L -38.99800109863281 -9.003000259399412 L -38.99800109863281 7.001999855041502 L -61.00199890136719 7.001999855041502 M -7.497000217437744 -25.503000259399407 L -13.503000259399414 -25.503000259399407 L -27.503000259399414 -25.503000259399407 L -27.503000259399414 -15.496999740600582 L -24.996999740600586 -15.496999740600582 L -13.503000259399414 -15.496999740600582 L -7.497000217437744 -15.496999740600582 L -7.497000217437744 -25.503000259399407 M -92.50299835205078 -25.503000259399407 L -92.50299835205078 -15.496999740600582 L -75.00299835205078 -15.496999740600582 L -72.49700164794922 -15.496999740600582 L -72.49700164794922 -25.503000259399407 L -92.50299835205078 -25.503000259399407 M -95.6520004272461 12.847999572753903 L -98.00299835205078 12.847999572753903 L -98.00299835205078 17.847999572753903 L -95.6520004272461 17.847999572753903 L -94.99800109863281 17.847999572753903 L -94.99800109863281 12.847999572753903 L -95.6520004272461 12.847999572753903 M -95.6520004272461 22.84900093078613 L -98.00299835205078 22.84900093078613 L -98.00299835205078 32.851001739501946 L -95.6520004272461 32.851001739501946 L -94.99800109863281 32.851001739501946 L -94.99800109863281 22.84900093078613 L -95.6520004272461 22.84900093078613 M -38.99800109863281 14.496999740600582 L -62.50299835205078 14.496999740600582 L -62.50299835205078 24.503000259399407 L -32.49700164794922 24.503000259399407 L -32.49700164794922 14.496999740600582 L -38.99800109863281 14.496999740600582 M -92.50299835205078 -49.497001647949205 L -86.49700164794922 -49.497001647949205 L -86.49700164794922 -55.50299835205077 L -92.50299835205078 -55.50299835205077 L -92.50299835205078 -49.497001647949205 M -83.00199890136719 -55.9980010986328 L -16.99799919128418 -55.9980010986328 L -16.99799919128418 -61.00299835205077 L -83.00199890136719 -61.00299835205077 L -83.00199890136719 -55.9980010986328 M -7.497000217437744 -55.50299835205077 L -13.503000259399414 -55.50299835205077 L -13.503000259399414 -49.497001647949205 L -7.497000217437744 -49.497001647949205 L -7.497000217437744 -55.50299835205077 z" fill="none" stroke="rgb(255,0,0)" stroke-width="0.001mm" />
</svg>