<?xml version="1.0" standalone="no"?>
<!DOCTYPE svg PUBLIC "-//W3C//DTD SVG 1.1//EN"
  "http://www.w3.org/Graphics/SVG/1.1/DTD/svg11.dtd">
<svg width="122mm" height="140.99999999999997mm" viewBox="-294 -95.99999999999999 122 140.99999999999997" xmlns="http://www.w3.org/2000/svg" version="1.1">
	<title>svgOutput</title>
	<desc>made with tinkercad</desc>
<path d="M -173 -76.00299835205077 L -176.0030059814453 -76.00299835205077 L -176.0030059814453 -68.59799957275389 L -176.0030059814453 -65.9980010986328 L -176.0019989013672 -65.9980010986328 L -173 -65.9980010986328 L -173 -26.003000259399407 L -176.0019989013672 -26.003000259399407 L -176.0019989013672 -15.998000144958493 L -173 -15.998000144958493 L -173 4.526999950408935 L -173 4.998000144958495 L -176.0019989013672 4.998000144958495 L -176.0019989013672 11.102999687194822 L -176.0019989013672 20.00300025939941 L -173 20.00300025939941 L -173 22.002000808715817 L -173 31.975999832153313 L -173 33.99999999999999 L -179.9969940185547 40.99700164794921 L -183 43.99999999999999 L -192.9969940185547 43.99999999999999 L -192.9969940185547 40.99700164794921 L -198.0229949951172 40.99700164794921 L -203.0030059814453 40.99700164794921 L -203.0030059814453 43.99999999999999 L -249.9029998779297 43.99999999999999 L -262.99798583984375 43.99999999999999 L -262.99798583984375 40.99700164794921 L -273.00201416015625 40.99700164794921 L -273.00201416015625 43.99999999999999 L -273.98199462890625 43.99999999999999 L -282.9989929199219 43.99999999999999 L -284.00299072265625 42.99599838256835 L -289.99700927734375 37.00199890136718 L -292.99700927734375 34.00199890136718 L -289.99700927734375 34.00199890136718 L -289.99700927734375 -6.002999782562254 L -293 -6.002999782562254 L -293 -59.9980010986328 L -289.99700927734375 -59.9980010986328 L -289.99700927734375 -76.00299835205077 L -293 -76.00299835205077 L -293 -84.99999999999999 L -289.99700927734375 -88.00299835205077 L -284.00299072265625 -93.9970016479492 L -283 -94.99999999999999 L -279.49798583984375 -94.99999999999999 L -273.00201416015625 -94.99999999999999 L -273.00201416015625 -91.9980010986328 L -263.79998779296875 -91.9980010986328 L -252.9969940185547 -91.9980010986328 L -252.9969940185547 -94.99999999999999 L -249.9029998779297 -94.99999999999999 L -247.2519989013672 -94.99999999999999 L -243.0019989013672 -94.99999999999999 L -243.0019989013672 -91.9980010986328 L -241.75100708007812 -91.9980010986328 L -239.20199584960938 -91.9980010986328 L -238.75100708007812 -91.9980010986328 L -236.19700622558594 -91.9980010986328 L -229.802001953125 -91.9980010986328 L -227.24899291992188 -91.9980010986328 L -226.7969970703125 -91.9980010986328 L -224.24899291992188 -91.9980010986328 L -222.9969940185547 -91.9980010986328 L -222.9969940185547 -94.99999999999999 L -218.7480010986328 -94.99999999999999 L -216.09800720214844 -94.99999999999999 L -213.0019989013672 -94.99999999999999 L -213.0019989013672 -91.9980010986328 L -202.19900512695312 -91.9980010986328 L -192.9969940185547 -91.9980010986328 L -192.9969940185547 -94.99999999999999 L -182.99899291992188 -94.99999999999999 L -179.9969940185547 -91.9980010986328 L -176.0030059814453 -88.00399780273436 L -173 -85.00099945068358 L -173 -76.00299835205077 M -212.99200439453125 -86.00299835205077 L -216.09800720214844 -86.00299835205077 L -218.7480010986328 -86.00299835205077 L -222.50100708007812 -86.00299835205077 L -222.50100708007812 -80.9980010986328 L -218.7480010986328 -80.9980010986328 L -216.09800720214844 -80.9980010986328 L -212.99200439453125 -80.9980010986328 L -209.50399780273438 -80.9980010986328 L -209.50399780273438 -85.99999999999999 L -209.50399780273438 -86.00299835205077 L -212.99200439453125 -86.00299835205077 M -245.75999450683594 -86.00299835205077 L -247.2519989013672 -86.00299835205077 L -249.9029998779297 -86.00299835205077 L -253.95199584960938 -86.00299835205077 L -256.4949951171875 -86.00299835205077 L -256.4949951171875 -85.99999999999999 L -256.4949951171875 -80.9980010986328 L -253.95199584960938 -80.9980010986328 L -249.9029998779297 -80.9980010986328 L -247.2519989013672 -80.9980010986328 L -245.75999450683594 -80.9980010986328 L -243.4980010986328 -80.9980010986328 L -243.4980010986328 -86.00299835205077 L -245.75999450683594 -86.00299835205077 M -263.62799072265625 -80.90100097656249 L -263.6253967285156 -80.89600372314452 L -263.6050109863281 -80.85700225830077 L -263.5799865722656 -80.81500244140624 L -263.5530090332031 -80.7730026245117 L -263.5249938964844 -80.73100280761717 L -263.4949951171875 -80.69100189208983 L -263.4639892578125 -80.65100097656249 L -263.4309997558594 -80.61199951171874 L -263.3970031738281 -80.57399749755858 L -263.3609924316406 -80.53700256347655 L -263.3240051269531 -80.50099945068358 L -263.2860107421875 -80.46700286865233 L -263.24700927734375 -80.43399810791014 L -263.2070007324219 -80.40299987792967 L -263.1679992675781 -80.37374877929686 L -263.1669921875 -80.3730010986328 L -263.125 -80.34500122070311 L -263.0830078125 -80.31800079345702 L -263.0409851074219 -80.29299926757811 L -262.99700927734375 -80.2689971923828 L -262.9540100097656 -80.2470016479492 L -262.90899658203125 -80.22599792480467 L -262.864013671875 -80.20700073242186 L -262.8190002441406 -80.19000244140624 L -262.77301025390625 -80.1740036010742 L -262.72698974609375 -80.15899658203124 L -262.67999267578125 -80.14600372314452 L -262.656005859375 -80.14038085937499 L -262.63299560546875 -80.13500213623045 L -262.58599853515625 -80.12499999999999 L -262.53900146484375 -80.1169967651367 L -262.4909973144531 -80.11000061035155 L -262.4440002441406 -80.10399627685545 L -262.3479919433594 -80.09799957275389 L -262.29998779296875 -80.0970001220703 L -262.25201416015625 -80.09799957275389 L -262.156005859375 -80.10399627685545 L -262.1440124511719 -80.10549926757811 L -262.1080017089844 -80.11000061035155 L -262.0610046386719 -80.1169967651367 L -262.01300048828125 -80.12499999999999 L -261.96600341796875 -80.13500213623045 L -261.91900634765625 -80.14600372314452 L -261.87298583984375 -80.15899658203124 L -261.82598876953125 -80.1740036010742 L -261.7799987792969 -80.19000244140624 L -261.7349853515625 -80.20700073242186 L -261.69000244140625 -80.22599792480467 L -261.64599609375 -80.2470016479492 L -261.6319885253906 -80.25399780273436 L -261.60198974609375 -80.2689971923828 L -261.5589904785156 -80.29299926757811 L -261.5159912109375 -80.31800079345702 L -261.4739990234375 -80.34500122070311 L -261.4330139160156 -80.3730010986328 L -261.3919982910156 -80.40299987792967 L -261.3529968261719 -80.43399810791014 L -261.3139953613281 -80.46700286865233 L -261.2760009765625 -80.50099945068358 L -261.239013671875 -80.53700256347655 L -261.2030029296875 -80.57399749755858 L -261.16900634765625 -80.61199951171874 L -261.135986328125 -80.65100097656249 L -261.1199951171875 -80.67164611816405 L -261.1050109863281 -80.69100189208983 L -261.07501220703125 -80.73100280761717 L -261.0469970703125 -80.7730026245117 L -261.0199890136719 -80.81500244140624 L -260.9949951171875 -80.85700225830077 L -260.9737243652344 -80.89600372314452 L -260.97100830078125 -80.90100097656249 L -260.9490051269531 -80.94400024414061 L -260.9280090332031 -80.98899841308592 L -260.90899658203125 -81.03399658203124 L -260.8919982910156 -81.07900238037108 L -260.8760070800781 -81.12499999999999 L -260.8609924316406 -81.17099761962889 L -260.8479919433594 -81.21800231933592 L -260.8370056152344 -81.26499938964842 L -260.8269958496094 -81.31199645996092 L -260.8179931640625 -81.35900115966795 L -260.8118896484375 -81.40799713134764 L -260.8059997558594 -81.45500183105467 L -260.802001953125 -81.50299835205077 L -260.79998779296875 -81.55100250244139 L -260.79901123046875 -81.59899902343749 L -260.79998779296875 -81.64700317382811 L -260.802001953125 -81.6949996948242 L -260.8059997558594 -81.7429962158203 L -260.81201171875 -81.79000091552733 L -260.8179931640625 -81.83799743652342 L -260.8183898925781 -81.84013366699217 L -260.8269958496094 -81.88600158691405 L -260.834228515625 -81.9199981689453 L -260.8370056152344 -81.93299865722655 L -260.8479919433594 -81.98000335693358 L -260.8609924316406 -82.02600097656249 L -260.8760070800781 -82.07199859619139 L -260.8919982910156 -82.1179962158203 L -260.90899658203125 -82.16400146484374 L -260.9280090332031 -82.20899963378905 L -260.9490051269531 -82.25299835205077 L -260.97100830078125 -82.29699707031249 L -260.9949951171875 -82.33999633789061 L -261.0199890136719 -82.38300323486327 L -261.0469970703125 -82.4250030517578 L -261.07501220703125 -82.46600341796874 L -261.1050109863281 -82.50700378417967 L -261.1199951171875 -82.52587127685545 L -261.135986328125 -82.54599761962889 L -261.16900634765625 -82.58499908447264 L -261.2030029296875 -82.6230010986328 L -261.239013671875 -82.66000366210936 L -261.2760009765625 -82.6959991455078 L -261.3139953613281 -82.73100280761717 L -261.3919982910156 -82.7949981689453 L -261.4739990234375 -82.85299682617186 L -261.5159912109375 -82.87899780273436 L -261.5589904785156 -82.90499877929686 L -261.60198974609375 -82.92800140380858 L -261.6340026855469 -82.94400024414061 L -261.64599609375 -82.94999694824217 L -261.69000244140625 -82.9710006713867 L -261.7349853515625 -82.98999786376952 L -261.7799987792969 -83.00800323486327 L -261.82598876953125 -83.0240020751953 L -261.87298583984375 -83.03800201416014 L -261.91900634765625 -83.05100250244139 L -261.96600341796875 -83.06300354003905 L -262.01300048828125 -83.07299804687499 L -262.0610046386719 -83.08100128173827 L -262.1080017089844 -83.08799743652342 L -262.1440124511719 -83.0917510986328 L -262.156005859375 -83.09300231933592 L -262.2040100097656 -83.0970001220703 L -262.25201416015625 -83.09899902343749 L -262.29998779296875 -83.09999847412108 L -262.3479919433594 -83.09899902343749 L -262.39599609375 -83.0970001220703 L -262.4440002441406 -83.09300231933592 L -262.4909973144531 -83.08799743652342 L -262.53900146484375 -83.08100128173827 L -262.58599853515625 -83.07299804687499 L -262.63299560546875 -83.06300354003905 L -262.656005859375 -83.05712890624999 L -262.67999267578125 -83.05100250244139 L -262.72698974609375 -83.03800201416014 L -262.77301025390625 -83.0240020751953 L -262.8190002441406 -83.00800323486327 L -262.864013671875 -82.98999786376952 L -262.90899658203125 -82.9710006713867 L -262.9540100097656 -82.94999694824217 L -262.9657287597656 -82.94400024414061 L -262.99700927734375 -82.92800140380858 L -263.0409851074219 -82.90499877929686 L -263.125 -82.85299682617186 L -263.1669921875 -82.82399749755858 L -263.1679992675781 -82.82327270507811 L -263.2070007324219 -82.7949981689453 L -263.24700927734375 -82.76300048828124 L -263.2860107421875 -82.73100280761717 L -263.3240051269531 -82.6959991455078 L -263.3609924316406 -82.66000366210936 L -263.3970031738281 -82.6230010986328 L -263.4309997558594 -82.58499908447264 L -263.4639892578125 -82.54599761962889 L -263.4949951171875 -82.50700378417967 L -263.5249938964844 -82.46600341796874 L -263.5482177734375 -82.43199920654295 L -263.5530090332031 -82.4250030517578 L -263.5799865722656 -82.38300323486327 L -263.6050109863281 -82.33999633789061 L -263.62799072265625 -82.29699707031249 L -263.6510009765625 -82.25299835205077 L -263.6709899902344 -82.20899963378905 L -263.69000244140625 -82.16400146484374 L -263.7080078125 -82.1179962158203 L -263.7239990234375 -82.07199859619139 L -263.7380065917969 -82.02600097656249 L -263.7510070800781 -81.98000335693358 L -263.76300048828125 -81.93299865722655 L -263.7657775878906 -81.9199981689453 L -263.77301025390625 -81.88600158691405 L -263.781005859375 -81.83799743652342 L -263.7879943847656 -81.79000091552733 L -263.7929992675781 -81.7429962158203 L -263.7969970703125 -81.6949996948242 L -263.79901123046875 -81.64700317382811 L -263.79998779296875 -81.59899902343749 L -263.79901123046875 -81.55100250244139 L -263.7969970703125 -81.50299835205077 L -263.7929992675781 -81.45500183105467 L -263.7881164550781 -81.40799713134764 L -263.7879943847656 -81.40699768066405 L -263.781005859375 -81.35900115966795 L -263.77301025390625 -81.31199645996092 L -263.76300048828125 -81.26499938964842 L -263.7510070800781 -81.21800231933592 L -263.7380065917969 -81.17099761962889 L -263.7239990234375 -81.12499999999999 L -263.7080078125 -81.07900238037108 L -263.69000244140625 -81.03399658203124 L -263.6709899902344 -80.98899841308592 L -263.6510009765625 -80.94400024414061 L -263.62799072265625 -80.90100097656249 M -248.75 4.513999938964843 L -248.57699584960938 4.526999950408935 L -248.4040069580078 4.513999938964843 L -248.23399353027344 4.475999832153319 L -248.07000732421875 4.4130001068115225 L -247.9149932861328 4.326000213623046 L -247.77099609375 4.217000007629394 L -247.64906311035156 4.09600019454956 L -247.63999938964844 4.086999893188476 L -247.5260009765625 3.940000057220458 L -247.42999267578125 3.7769999504089347 L -247.35299682617188 3.6010000705718985 L -247.2969970703125 3.4149999618530265 L -247.26300048828125 3.2219998836517325 L -247.2519989013672 3.0269999504089347 L -247.26300048828125 2.8310000896453853 L -247.2969970703125 2.6380000114440914 L -247.35299682617188 2.4519999027252193 L -247.42999267578125 2.276000022888183 L -247.5260009765625 2.1129999160766597 L -247.63999938964844 1.9659999608993526 L -247.77099609375 1.8359999656677242 L -247.80799865722656 1.8079930543899532 L -247.9149932861328 1.726999998092651 L -248.07000732421875 1.6399999856948848 L -248.23399353027344 1.5770000219345088 L -248.4040069580078 1.539000034332275 L -248.57699584960938 1.5260000228881831 L -248.75 1.539000034332275 L -248.9199981689453 1.5770000219345088 L -249.08399963378906 1.6399999856948848 L -249.24000549316406 1.726999998092651 L -249.38400268554688 1.8359999656677242 L -249.51400756835938 1.9659999608993526 L -249.57815551757812 2.04800009727478 L -249.62899780273438 2.1129999160766597 L -249.72500610351562 2.276000022888183 L -249.802001953125 2.4519999027252193 L -249.8560028076172 2.634618282318115 L -249.85699462890625 2.6380000114440914 L -249.89100646972656 2.8310000896453853 L -249.9029998779297 3.0269999504089347 L -249.89100646972656 3.2219998836517325 L -249.85699462890625 3.4149999618530265 L -249.8560028076172 3.418381929397582 L -249.802001953125 3.6010000705718985 L -249.72500610351562 3.7769999504089347 L -249.62899780273438 3.940000057220458 L -249.51400756835938 4.086999893188476 L -249.5050048828125 4.09600019454956 L -249.38400268554688 4.217000007629394 L -249.24000549316406 4.326000213623046 L -249.08399963378906 4.4130001068115225 L -248.9199981689453 4.475999832153319 L -248.75 4.513999938964843 M -248.5030059814453 -38.998001098632805 L -247.2519989013672 -38.998001098632805 L -243.97300720214844 -38.998001098632805 L -241.75100708007812 -38.998001098632805 L -239.20199584960938 -38.998001098632805 L -238.75100708007812 -38.998001098632805 L -229.802001953125 -38.998001098632805 L -227.24899291992188 -38.998001098632805 L -224.24899291992188 -38.998001098632805 L -222.50100708007812 -38.998001098632805 L -221.97799682617188 -38.998001098632805 L -218.7480010986328 -38.998001098632805 L -217.4969940185547 -38.998001098632805 L -217.4969940185547 -41.9990005493164 L -218.7480010986328 -41.9990005493164 L -222.50100708007812 -41.9990005493164 L -224.24899291992188 -41.9990005493164 L -227.24899291992188 -41.9990005493164 L -229.802001953125 -41.9990005493164 L -238.75100708007812 -41.9990005493164 L -239.20199584960938 -41.9990005493164 L -241.75100708007812 -41.9990005493164 L -247.2519989013672 -41.9990005493164 L -248.5030059814453 -41.9990005493164 L -248.5030059814453 -38.998001098632805 M -248.5030059814453 -57.00199890136717 L -247.2519989013672 -57.00199890136717 L -241.75100708007812 -57.00199890136717 L -239.20199584960938 -57.00199890136717 L -238.75100708007812 -57.00199890136717 L -229.802001953125 -57.00199890136717 L -227.24899291992188 -57.00199890136717 L -224.24899291992188 -57.00199890136717 L -222.50100708007812 -57.00199890136717 L -218.7480010986328 -57.00199890136717 L -217.4969940185547 -57.00199890136717 L -217.4969940185547 -60.00299835205077 L -218.7480010986328 -60.00299835205077 L -222.50100708007812 -60.00299835205077 L -224.24899291992188 -60.00299835205077 L -227.24899291992188 -60.00299835205077 L -229.802001953125 -60.00299835205077 L -238.75100708007812 -60.00299835205077 L -239.20199584960938 -60.00299835205077 L -241.75100708007812 -60.00299835205077 L -247.2519989013672 -60.00299835205077 L -248.5030059814453 -60.00299835205077 L -248.5030059814453 -57.00199890136717 M -240.44700622558594 4.513999938964843 L -240.25100708007812 4.526999950408935 L -240.05499267578125 4.513999938964843 L -239.86300659179688 4.475999832153319 L -239.677001953125 4.4130001068115225 L -239.50100708007812 4.326000213623046 L -239.33799743652344 4.217000007629394 L -239.2002410888672 4.09600019454956 L -239.19000244140625 4.086999893188476 L -239.06100463867188 3.940000057220458 L -238.95199584960938 3.7769999504089347 L -238.86500549316406 3.6010000705718985 L -238.802001953125 3.4149999618530265 L -238.76400756835938 3.2219998836517325 L -238.75100708007812 3.0269999504089347 L -238.76400756835938 2.8310000896453853 L -238.802001953125 2.6380000114440914 L -238.86500549316406 2.4519999027252193 L -238.95199584960938 2.276000022888183 L -239.06100463867188 2.1129999160766597 L -239.1180419921875 2.04800009727478 L -239.19000244140625 1.9659999608993526 L -239.33799743652344 1.8359999656677242 L -239.50100708007812 1.726999998092651 L -239.61599731445312 1.6701533794403072 L -239.677001953125 1.6399999856948848 L -239.86300659179688 1.5770000219345088 L -240.05499267578125 1.539000034332275 L -240.25100708007812 1.5260000228881831 L -240.44700622558594 1.539000034332275 L -240.63900756835938 1.5770000219345088 L -240.8249969482422 1.6399999856948848 L -241.00100708007812 1.726999998092651 L -241.16400146484375 1.8359999656677242 L -241.31199645996094 1.9659999608993526 L -241.3839569091797 2.04800009727478 L -241.4409942626953 2.1129999160766597 L -241.5500030517578 2.276000022888183 L -241.63699340820312 2.4519999027252193 L -241.66400146484375 2.5317142009735103 L -241.6999969482422 2.6380000114440914 L -241.73800659179688 2.8310000896453853 L -241.75100708007812 3.0269999504089347 L -241.73800659179688 3.2219998836517325 L -241.6999969482422 3.4149999618530265 L -241.66400146484375 3.5212857723236075 L -241.63699340820312 3.6010000705718985 L -241.5500030517578 3.7769999504089347 L -241.4409942626953 3.940000057220458 L -241.31199645996094 4.086999893188476 L -241.3017578125 4.09600019454956 L -241.16400146484375 4.217000007629394 L -241.00100708007812 4.326000213623046 L -240.8249969482422 4.4130001068115225 L -240.63900756835938 4.475999832153319 L -240.44700622558594 4.513999938964843 M -239.00599670410156 -80.85700225830077 L -238.9810028076172 -80.81400299072264 L -238.9550018310547 -80.77200317382811 L -238.92599487304688 -80.73100280761717 L -238.89599609375 -80.69000244140624 L -238.86500549316406 -80.65000152587889 L -238.83200073242188 -80.61199951171874 L -238.79800415039062 -80.57299804687499 L -238.76199340820312 -80.53600311279295 L -238.75100708007812 -80.52529907226561 L -238.72500610351562 -80.49999999999999 L -238.68699645996094 -80.46600341796874 L -238.6479949951172 -80.43299865722655 L -238.60800170898438 -80.40200042724608 L -238.5919952392578 -80.38999938964842 L -238.5679931640625 -80.3720016479492 L -238.5260009765625 -80.34400177001952 L -238.48399353027344 -80.31700134277342 L -238.44200134277344 -80.29199981689452 L -238.3979949951172 -80.2679977416992 L -238.35400390625 -80.24600219726561 L -238.30999755859375 -80.22499847412108 L -238.26499938964844 -80.20600128173827 L -238.218994140625 -80.18900299072264 L -238.1739959716797 -80.17299652099608 L -238.1269989013672 -80.15799713134764 L -238.08099365234375 -80.14499664306639 L -238.0800018310547 -80.14476776123045 L -238.03399658203125 -80.13400268554686 L -237.98699951171875 -80.12400054931639 L -237.93899536132812 -80.11499786376952 L -237.89100646972656 -80.10800170898436 L -237.843994140625 -80.10299682617186 L -237.79600524902344 -80.09899902343749 L -237.7480010986328 -80.0970001220703 L -237.6999969482422 -80.0960006713867 L -237.6510009765625 -80.0970001220703 L -237.60299682617188 -80.09899902343749 L -237.5679931640625 -80.1019821166992 L -237.55599975585938 -80.10299682617186 L -237.50799560546875 -80.10800170898436 L -237.4600067138672 -80.11499786376952 L -237.41299438476562 -80.12400054931639 L -237.36500549316406 -80.13400268554686 L -237.3179931640625 -80.14499664306639 L -237.27200317382812 -80.15799713134764 L -237.22500610351562 -80.17299652099608 L -237.17999267578125 -80.18900299072264 L -237.13400268554688 -80.20600128173827 L -237.08900451660156 -80.22499847412108 L -237.05599975585938 -80.24075317382811 L -237.0449981689453 -80.24600219726561 L -237.00100708007812 -80.2679977416992 L -236.95700073242188 -80.29199981689452 L -236.9149932861328 -80.31700134277342 L -236.8730010986328 -80.34400177001952 L -236.83200073242188 -80.3720016479492 L -236.79100036621094 -80.40200042724608 L -236.75100708007812 -80.43299865722655 L -236.71200561523438 -80.46600341796874 L -236.6739959716797 -80.49999999999999 L -236.63699340820312 -80.53600311279295 L -236.6009979248047 -80.57299804687499 L -236.56700134277344 -80.61199951171874 L -236.54400634765625 -80.6384811401367 L -236.53399658203125 -80.65000152587889 L -236.5030059814453 -80.69000244140624 L -236.47300720214844 -80.73100280761717 L -236.44500732421875 -80.77200317382811 L -236.41799926757812 -80.81400299072264 L -236.39300537109375 -80.85700225830077 L -236.37123107910156 -80.89600372314452 L -236.36900329589844 -80.90000152587889 L -236.3470001220703 -80.94400024414061 L -236.3260040283203 -80.98799896240233 L -236.3070068359375 -81.03299713134764 L -236.28900146484375 -81.07900238037108 L -236.2729949951172 -81.12499999999999 L -236.25900268554688 -81.17099761962889 L -236.24600219726562 -81.21800231933592 L -236.23399353027344 -81.26499938964842 L -236.21600341796875 -81.35900115966795 L -236.20899963378906 -81.40699768066405 L -236.20889282226562 -81.40799713134764 L -236.20399475097656 -81.45500183105467 L -236.1999969482422 -81.50299835205077 L -236.197998046875 -81.55100250244139 L -236.19700622558594 -81.59899902343749 L -236.197998046875 -81.64700317382811 L -236.1999969482422 -81.6949996948242 L -236.20399475097656 -81.7429962158203 L -236.20899963378906 -81.79100036621092 L -236.21600341796875 -81.83799743652342 L -236.22500610351562 -81.88600158691405 L -236.23150634765625 -81.9199981689453 L -236.23399353027344 -81.93299865722655 L -236.24600219726562 -81.98000335693358 L -236.25900268554688 -82.02700042724608 L -236.2729949951172 -82.07299804687499 L -236.28900146484375 -82.11900329589842 L -236.3070068359375 -82.16400146484374 L -236.3260040283203 -82.20899963378905 L -236.3470001220703 -82.25399780273436 L -236.36900329589844 -82.29799652099608 L -236.39300537109375 -82.34100341796874 L -236.41799926757812 -82.38400268554686 L -236.44500732421875 -82.42600250244139 L -236.4490966796875 -82.43199920654295 L -236.47300720214844 -82.46700286865233 L -236.5030059814453 -82.50700378417967 L -236.53399658203125 -82.54699707031249 L -236.54400634765625 -82.55881500244139 L -236.56700134277344 -82.58599853515624 L -236.6009979248047 -82.62400054931639 L -236.63699340820312 -82.66100311279295 L -236.6739959716797 -82.69699859619139 L -236.71200561523438 -82.73200225830077 L -236.75100708007812 -82.76399993896483 L -236.79100036621094 -82.79599761962889 L -236.8730010986328 -82.85399627685545 L -236.95700073242188 -82.90599822998045 L -237.02969360351562 -82.94400024414061 L -237.0449981689453 -82.95200347900389 L -237.08900451660156 -82.9720001220703 L -237.13400268554688 -82.99099731445311 L -237.17999267578125 -83.00900268554686 L -237.22500610351562 -83.02500152587889 L -237.27200317382812 -83.03900146484374 L -237.3179931640625 -83.05200195312499 L -237.36500549316406 -83.06400299072264 L -237.41299438476562 -83.07399749755858 L -237.4600067138672 -83.08200073242186 L -237.50799560546875 -83.08899688720702 L -237.55599975585938 -83.09400177001952 L -237.5679931640625 -83.0950241088867 L -237.60299682617188 -83.09799957275389 L -237.6510009765625 -83.10099792480467 L -237.7480010986328 -83.10099792480467 L -237.79600524902344 -83.09799957275389 L -237.843994140625 -83.09400177001952 L -237.89100646972656 -83.08899688720702 L -237.93899536132812 -83.08200073242186 L -237.98699951171875 -83.07399749755858 L -238.03399658203125 -83.06400299072264 L -238.0800018310547 -83.05225372314452 L -238.08099365234375 -83.05200195312499 L -238.1269989013672 -83.03900146484374 L -238.1739959716797 -83.02500152587889 L -238.218994140625 -83.00900268554686 L -238.26499938964844 -82.99099731445311 L -238.30999755859375 -82.9720001220703 L -238.35400390625 -82.95200347900389 L -238.3693084716797 -82.94400024414061 L -238.44200134277344 -82.90599822998045 L -238.5260009765625 -82.85399627685545 L -238.5679931640625 -82.82499694824217 L -238.5919952392578 -82.80760192871092 L -238.60800170898438 -82.79599761962889 L -238.6479949951172 -82.76399993896483 L -238.68699645996094 -82.73200225830077 L -238.72500610351562 -82.69699859619139 L -238.75100708007812 -82.67169952392577 L -238.76199340820312 -82.66100311279295 L -238.79800415039062 -82.62400054931639 L -238.83200073242188 -82.58599853515624 L -238.86500549316406 -82.54699707031249 L -238.89599609375 -82.50700378417967 L -238.92599487304688 -82.46700286865233 L -238.9507598876953 -82.43199920654295 L -238.9550018310547 -82.42600250244139 L -238.9810028076172 -82.38400268554686 L -239.00599670410156 -82.34100341796874 L -239.02999877929688 -82.29799652099608 L -239.052001953125 -82.25399780273436 L -239.072998046875 -82.20899963378905 L -239.0919952392578 -82.16400146484374 L -239.11000061035156 -82.11900329589842 L -239.12600708007812 -82.07299804687499 L -239.13999938964844 -82.02700042724608 L -239.1529998779297 -81.98000335693358 L -239.1649932861328 -81.93299865722655 L -239.1677703857422 -81.9199981689453 L -239.1750030517578 -81.88600158691405 L -239.18299865722656 -81.83799743652342 L -239.19000244140625 -81.79100036621092 L -239.19500732421875 -81.7429962158203 L -239.19900512695312 -81.6949996948242 L -239.2010040283203 -81.64700317382811 L -239.20199584960938 -81.59899902343749 L -239.2010040283203 -81.55100250244139 L -239.19900512695312 -81.50299835205077 L -239.19500732421875 -81.45500183105467 L -239.1901092529297 -81.40799713134764 L -239.19000244140625 -81.40699768066405 L -239.18299865722656 -81.35900115966795 L -239.1750030517578 -81.31199645996092 L -239.1649932861328 -81.26499938964842 L -239.1529998779297 -81.21800231933592 L -239.13999938964844 -81.17099761962889 L -239.12600708007812 -81.12499999999999 L -239.11000061035156 -81.07900238037108 L -239.0919952392578 -81.03299713134764 L -239.072998046875 -80.98799896240233 L -239.052001953125 -80.94400024414061 L -239.02999877929688 -80.90000152587889 L -239.02777099609375 -80.89600372314452 L -239.00599670410156 -80.85700225830077 M -239.20199584960938 -14.463000297546383 L -238.75100708007812 -14.463000297546383 L -229.802001953125 -14.463000297546383 L -227.24899291992188 -14.463000297546383 L -224.24899291992188 -14.463000297546383 L -222.50100708007812 -14.463000297546383 L -221.97799682617188 -14.463000297546383 L -221.97799682617188 -17.466999053955075 L -222.50100708007812 -17.466999053955075 L -224.24899291992188 -17.466999053955075 L -227.24899291992188 -17.466999053955075 L -229.802001953125 -17.466999053955075 L -238.75100708007812 -17.466999053955075 L -239.20199584960938 -17.466999053955075 L -241.75100708007812 -17.466999053955075 L -243.97300720214844 -17.466999053955075 L -243.97300720214844 -14.463000297546383 L -241.75100708007812 -14.463000297546383 L -239.20199584960938 -14.463000297546383 M -226.66200256347656 4.217000007629394 L -226.49899291992188 4.326000213623046 L -226.322998046875 4.4130001068115225 L -226.13699340820312 4.475999832153319 L -225.94500732421875 4.513999938964843 L -225.74899291992188 4.526999950408935 L -225.55299377441406 4.513999938964843 L -225.36099243164062 4.475999832153319 L -225.1750030517578 4.4130001068115225 L -224.99899291992188 4.326000213623046 L -224.83599853515625 4.217000007629394 L -224.6982421875 4.09600019454956 L -224.68800354003906 4.086999893188476 L -224.5590057373047 3.940000057220458 L -224.4499969482422 3.7769999504089347 L -224.36300659179688 3.6010000705718985 L -224.3000030517578 3.4149999618530265 L -224.26199340820312 3.2219998836517325 L -224.24899291992188 3.0269999504089347 L -224.26199340820312 2.8310000896453853 L -224.3000030517578 2.6380000114440914 L -224.36300659179688 2.4519999027252193 L -224.4499969482422 2.276000022888183 L -224.5590057373047 2.1129999160766597 L -224.6160430908203 2.04800009727478 L -224.68800354003906 1.9659999608993526 L -224.83599853515625 1.8359999656677242 L -224.99899291992188 1.726999998092651 L -225.1750030517578 1.6399999856948848 L -225.27999877929688 1.6044354438781734 L -225.36099243164062 1.5770000219345088 L -225.55299377441406 1.539000034332275 L -225.74899291992188 1.5260000228881831 L -225.94500732421875 1.539000034332275 L -226.13699340820312 1.5770000219345088 L -226.322998046875 1.6399999856948848 L -226.49899291992188 1.726999998092651 L -226.66200256347656 1.8359999656677242 L -226.80999755859375 1.9659999608993526 L -226.8819580078125 2.04800009727478 L -226.93899536132812 2.1129999160766597 L -227.04800415039062 2.276000022888183 L -227.13499450683594 2.4519999027252193 L -227.197998046875 2.6380000114440914 L -227.23599243164062 2.8310000896453853 L -227.24899291992188 3.0269999504089347 L -227.23599243164062 3.2219998836517325 L -227.197998046875 3.4149999618530265 L -227.13499450683594 3.6010000705718985 L -227.04800415039062 3.7769999504089347 L -226.93899536132812 3.940000057220458 L -226.80999755859375 4.086999893188476 L -226.7997589111328 4.09600019454956 L -226.66200256347656 4.217000007629394 M -226.9929962158203 -80.85700225830077 L -226.9712371826172 -80.89600372314452 L -226.968994140625 -80.90000152587889 L -226.94700622558594 -80.94400024414061 L -226.92599487304688 -80.98799896240233 L -226.90699768066406 -81.03299713134764 L -226.88999938964844 -81.07900238037108 L -226.87399291992188 -81.12499999999999 L -226.85899353027344 -81.17099761962889 L -226.8459930419922 -81.21800231933592 L -226.8350067138672 -81.26499938964842 L -226.8249969482422 -81.31199645996092 L -226.8159942626953 -81.35900115966795 L -226.8090057373047 -81.40699768066405 L -226.80889892578125 -81.40799713134764 L -226.8040008544922 -81.45500183105467 L -226.8000030517578 -81.50299835205077 L -226.79800415039062 -81.55100250244139 L -226.7969970703125 -81.59899902343749 L -226.79800415039062 -81.64700317382811 L -226.8000030517578 -81.6949996948242 L -226.8040008544922 -81.7429962158203 L -226.8090057373047 -81.79100036621092 L -226.8159942626953 -81.83799743652342 L -226.8249969482422 -81.88600158691405 L -226.8322296142578 -81.9199981689453 L -226.8350067138672 -81.93299865722655 L -226.8459930419922 -81.98000335693358 L -226.85899353027344 -82.02700042724608 L -226.87399291992188 -82.07299804687499 L -226.88999938964844 -82.11900329589842 L -226.90699768066406 -82.16400146484374 L -226.92599487304688 -82.20899963378905 L -226.94700622558594 -82.25399780273436 L -226.968994140625 -82.29799652099608 L -226.9929962158203 -82.34100341796874 L -227.01800537109375 -82.38400268554686 L -227.0449981689453 -82.42600250244139 L -227.04910278320312 -82.43199920654295 L -227.072998046875 -82.46700286865233 L -227.10299682617188 -82.50700378417967 L -227.13400268554688 -82.54699707031249 L -227.16700744628906 -82.58599853515624 L -227.2010040283203 -82.62400054931639 L -227.23699951171875 -82.66100311279295 L -227.24899291992188 -82.67267608642577 L -227.2740020751953 -82.69699859619139 L -227.31199645996094 -82.73200225830077 L -227.3280029296875 -82.74512481689452 L -227.3509979248047 -82.76399993896483 L -227.39100646972656 -82.79599761962889 L -227.47300720214844 -82.85399627685545 L -227.51499938964844 -82.87999725341795 L -227.55799865722656 -82.90599822998045 L -227.6009979248047 -82.92900085449217 L -227.62969970703125 -82.94400024414061 L -227.64500427246094 -82.95200347900389 L -227.68899536132812 -82.9720001220703 L -227.73399353027344 -82.99099731445311 L -227.77999877929688 -83.00900268554686 L -227.8260040283203 -83.02500152587889 L -227.8719940185547 -83.03900146484374 L -227.91900634765625 -83.05200195312499 L -227.96499633789062 -83.06400299072264 L -228.01300048828125 -83.07399749755858 L -228.05999755859375 -83.08200073242186 L -228.10800170898438 -83.08899688720702 L -228.156005859375 -83.09400177001952 L -228.20399475097656 -83.09799957275389 L -228.2519989013672 -83.10099792480467 L -228.34800720214844 -83.10099792480467 L -228.3520050048828 -83.10075378417967 L -228.39599609375 -83.09799957275389 L -228.44400024414062 -83.09400177001952 L -228.49200439453125 -83.08899688720702 L -228.53900146484375 -83.08200073242186 L -228.58700561523438 -83.07399749755858 L -228.63400268554688 -83.06400299072264 L -228.68099975585938 -83.05200195312499 L -228.7270050048828 -83.03900146484374 L -228.7740020751953 -83.02500152587889 L -228.82000732421875 -83.00900268554686 L -228.86500549316406 -82.99099731445311 L -228.91000366210938 -82.9720001220703 L -228.9550018310547 -82.95200347900389 L -228.96995544433594 -82.94400024414061 L -228.9980010986328 -82.92900085449217 L -229.04200744628906 -82.90599822998045 L -229.04835510253906 -82.90206909179686 L -229.12600708007812 -82.85399627685545 L -229.16799926757812 -82.82499694824217 L -229.20799255371094 -82.79599761962889 L -229.2480010986328 -82.76399993896483 L -229.28700256347656 -82.73200225830077 L -229.3249969482422 -82.69699859619139 L -229.36199951171875 -82.66100311279295 L -229.37600708007812 -82.64661407470702 L -229.3979949951172 -82.62400054931639 L -229.4320068359375 -82.58599853515624 L -229.46499633789062 -82.54699707031249 L -229.4969940185547 -82.50700378417967 L -229.5260009765625 -82.46700286865233 L -229.55075073242188 -82.43199920654295 L -229.55499267578125 -82.42600250244139 L -229.58099365234375 -82.38400268554686 L -229.60699462890625 -82.34100341796874 L -229.6300048828125 -82.29799652099608 L -229.65199279785156 -82.25399780273436 L -229.67300415039062 -82.20899963378905 L -229.69200134277344 -82.16400146484374 L -229.7100067138672 -82.11900329589842 L -229.7259979248047 -82.07299804687499 L -229.74000549316406 -82.02700042724608 L -229.7530059814453 -81.98000335693358 L -229.76499938964844 -81.93299865722655 L -229.76776123046875 -81.9199981689453 L -229.77499389648438 -81.88600158691405 L -229.7830047607422 -81.83799743652342 L -229.7899932861328 -81.79100036621092 L -229.7949981689453 -81.7429962158203 L -229.7989959716797 -81.6949996948242 L -229.80099487304688 -81.64700317382811 L -229.802001953125 -81.59899902343749 L -229.80099487304688 -81.55100250244139 L -229.7989959716797 -81.50299835205077 L -229.7949981689453 -81.45500183105467 L -229.79010009765625 -81.40799713134764 L -229.7899932861328 -81.40699768066405 L -229.7830047607422 -81.35900115966795 L -229.77499389648438 -81.31199645996092 L -229.76499938964844 -81.26499938964842 L -229.7530059814453 -81.21800231933592 L -229.74000549316406 -81.17099761962889 L -229.7259979248047 -81.12499999999999 L -229.7100067138672 -81.07900238037108 L -229.69200134277344 -81.03299713134764 L -229.67300415039062 -80.98799896240233 L -229.65199279785156 -80.94400024414061 L -229.6300048828125 -80.90000152587889 L -229.6278533935547 -80.89600372314452 L -229.60699462890625 -80.85700225830077 L -229.58099365234375 -80.81400299072264 L -229.55499267578125 -80.77200317382811 L -229.4969940185547 -80.69000244140624 L -229.46499633789062 -80.65000152587889 L -229.4320068359375 -80.61199951171874 L -229.3979949951172 -80.57299804687499 L -229.37600708007812 -80.55039215087889 L -229.36199951171875 -80.53600311279295 L -229.3249969482422 -80.49999999999999 L -229.28700256347656 -80.46600341796874 L -229.2480010986328 -80.43299865722655 L -229.20799255371094 -80.40200042724608 L -229.16799926757812 -80.3720016479492 L -229.12600708007812 -80.34400177001952 L -229.08399963378906 -80.31700134277342 L -229.04200744628906 -80.29199981689452 L -228.9980010986328 -80.2679977416992 L -228.9550018310547 -80.24600219726561 L -228.91000366210938 -80.22499847412108 L -228.86500549316406 -80.20600128173827 L -228.86399841308594 -80.2056198120117 L -228.82000732421875 -80.18900299072264 L -228.7740020751953 -80.17299652099608 L -228.7270050048828 -80.15799713134764 L -228.68099975585938 -80.14499664306639 L -228.63400268554688 -80.13400268554686 L -228.58700561523438 -80.12400054931639 L -228.53900146484375 -80.11499786376952 L -228.49200439453125 -80.10800170898436 L -228.44400024414062 -80.10299682617186 L -228.39599609375 -80.09899902343749 L -228.3520050048828 -80.09716796874999 L -228.34800720214844 -80.0970001220703 L -228.3000030517578 -80.0960006713867 L -228.2519989013672 -80.0970001220703 L -228.20399475097656 -80.09899902343749 L -228.156005859375 -80.10299682617186 L -228.10800170898438 -80.10800170898436 L -228.05999755859375 -80.11499786376952 L -228.01300048828125 -80.12400054931639 L -227.96499633789062 -80.13400268554686 L -227.91900634765625 -80.14499664306639 L -227.8719940185547 -80.15799713134764 L -227.83999633789062 -80.16843414306639 L -227.8260040283203 -80.17299652099608 L -227.77999877929688 -80.18900299072264 L -227.73399353027344 -80.20600128173827 L -227.68899536132812 -80.22499847412108 L -227.64500427246094 -80.24600219726561 L -227.6009979248047 -80.2679977416992 L -227.55799865722656 -80.29199981689452 L -227.51499938964844 -80.31700134277342 L -227.47300720214844 -80.34400177001952 L -227.4320068359375 -80.3720016479492 L -227.39100646972656 -80.40200042724608 L -227.3509979248047 -80.43299865722655 L -227.3280029296875 -80.45246124267577 L -227.31199645996094 -80.46600341796874 L -227.2740020751953 -80.49999999999999 L -227.24899291992188 -80.52432250976561 L -227.23699951171875 -80.53600311279295 L -227.2010040283203 -80.57299804687499 L -227.16700744628906 -80.61199951171874 L -227.13400268554688 -80.65000152587889 L -227.10299682617188 -80.69000244140624 L -227.072998046875 -80.73100280761717 L -227.0449981689453 -80.77200317382811 L -227.01800537109375 -80.81400299072264 L -226.9929962158203 -80.85700225830077 M -218.22900390625 4.217000007629394 L -218.0850067138672 4.326000213623046 L -217.92999267578125 4.4130001068115225 L -217.76600646972656 4.475999832153319 L -217.5959930419922 4.513999938964843 L -217.42300415039062 4.526999950408935 L -217.25 4.513999938964843 L -217.0800018310547 4.475999832153319 L -216.91600036621094 4.4130001068115225 L -216.75999450683594 4.326000213623046 L -216.61599731445312 4.217000007629394 L -216.4949951171875 4.09600019454956 L -216.48599243164062 4.086999893188476 L -216.37100219726562 3.940000057220458 L -216.27499389648438 3.7769999504089347 L -216.197998046875 3.6010000705718985 L -216.14300537109375 3.4149999618530265 L -216.10899353027344 3.2219998836517325 L -216.09800720214844 3.0269999504089347 L -216.10899353027344 2.8310000896453853 L -216.14300537109375 2.6380000114440914 L -216.197998046875 2.4519999027252193 L -216.27499389648438 2.276000022888183 L -216.37100219726562 2.1129999160766597 L -216.42184448242188 2.04800009727478 L -216.48599243164062 1.9659999608993526 L -216.61599731445312 1.8359999656677242 L -216.75999450683594 1.726999998092651 L -216.91600036621094 1.6399999856948848 L -217.0800018310547 1.5770000219345088 L -217.08799743652344 1.5752117633819576 L -217.25 1.539000034332275 L -217.42300415039062 1.5260000228881831 L -217.5959930419922 1.539000034332275 L -217.76600646972656 1.5770000219345088 L -217.92999267578125 1.6399999856948848 L -218.0850067138672 1.726999998092651 L -218.22900390625 1.8359999656677242 L -218.36000061035156 1.9659999608993526 L -218.42359924316406 2.04800009727478 L -218.4739990234375 2.1129999160766597 L -218.57000732421875 2.276000022888183 L -218.64700317382812 2.4519999027252193 L -218.7030029296875 2.6380000114440914 L -218.73699951171875 2.8310000896453853 L -218.7480010986328 3.0269999504089347 L -218.73699951171875 3.2219998836517325 L -218.7030029296875 3.4149999618530265 L -218.64700317382812 3.6010000705718985 L -218.57000732421875 3.7769999504089347 L -218.4739990234375 3.940000057220458 L -218.36000061035156 4.086999893188476 L -218.35093688964844 4.09600019454956 L -218.22900390625 4.217000007629394 M -184.32000732421875 -68.60252380371092 L -184.25 -68.59799957275389 L -183.95599365234375 -68.6169967651367 L -183.66700744628906 -68.6740036010742 L -183.38800048828125 -68.7689971923828 L -183.12399291992188 -68.90000152587889 L -182.87899780273438 -69.06300354003905 L -182.65699768066406 -69.25700378417967 L -182.46299743652344 -69.47899627685545 L -182.36058044433594 -69.63200378417967 L -182.2989959716797 -69.72399902343749 L -182.16900634765625 -69.98799896240233 L -182.07400512695312 -70.26699829101561 L -182.01699829101562 -70.55599975585936 L -181.9980010986328 -70.84999847412108 L -182.01699829101562 -71.1439971923828 L -182.07400512695312 -71.43299865722655 L -182.15809631347656 -71.68000030517577 L -182.16900634765625 -71.71199798583983 L -182.2989959716797 -71.97599792480467 L -182.46299743652344 -72.2210006713867 L -182.65699768066406 -72.44300079345702 L -182.87899780273438 -72.63700103759764 L -183.12399291992188 -72.80100250244139 L -183.38800048828125 -72.93099975585936 L -183.66700744628906 -73.02600097656249 L -183.95599365234375 -73.08300018310545 L -184.25 -73.10299682617186 L -184.32000732421875 -73.09823608398436 L -184.54400634765625 -73.08300018310545 L -184.83299255371094 -73.02600097656249 L -185.11199951171875 -72.93099975585936 L -185.37600708007812 -72.80100250244139 L -185.62100219726562 -72.63700103759764 L -185.84300231933594 -72.44300079345702 L -186.03700256347656 -72.2210006713867 L -186.2010040283203 -71.97599792480467 L -186.33099365234375 -71.71199798583983 L -186.34190368652344 -71.68000030517577 L -186.42599487304688 -71.43299865722655 L -186.48300170898438 -71.1439971923828 L -186.5030059814453 -70.84999847412108 L -186.48300170898438 -70.55599975585936 L -186.42599487304688 -70.26699829101561 L -186.33099365234375 -69.98799896240233 L -186.2010040283203 -69.72399902343749 L -186.13941955566406 -69.63200378417967 L -186.03700256347656 -69.47899627685545 L -185.84300231933594 -69.25700378417967 L -185.62100219726562 -69.06300354003905 L -185.37600708007812 -68.90000152587889 L -185.11199951171875 -68.7689971923828 L -184.83299255371094 -68.6740036010742 L -184.54400634765625 -68.6169967651367 L -184.32000732421875 -68.60252380371092 M -205.0050048828125 -80.85700225830077 L -204.9530029296875 -80.7730026245117 L -204.9239959716797 -80.73100280761717 L -204.89500427246094 -80.69100189208983 L -204.86300659179688 -80.65100097656249 L -204.83099365234375 -80.61199951171874 L -204.8000030517578 -80.57834625244139 L -204.79600524902344 -80.57399749755858 L -204.75999450683594 -80.53700256347655 L -204.72300720214844 -80.50099945068358 L -204.68499755859375 -80.46700286865233 L -204.64599609375 -80.43399810791014 L -204.60699462890625 -80.40299987792967 L -204.5659942626953 -80.3730010986328 L -204.52499389648438 -80.34500122070311 L -204.48300170898438 -80.31800079345702 L -204.44000244140625 -80.29299926757811 L -204.39700317382812 -80.2689971923828 L -204.35299682617188 -80.2470016479492 L -204.3090057373047 -80.22599792480467 L -204.28799438476562 -80.21713256835936 L -204.26400756835938 -80.20700073242186 L -204.218994140625 -80.19000244140624 L -204.17300415039062 -80.1740036010742 L -204.1269989013672 -80.15899658203124 L -204.0800018310547 -80.14600372314452 L -204.0330047607422 -80.13500213623045 L -203.98599243164062 -80.12499999999999 L -203.93899536132812 -80.1169967651367 L -203.89100646972656 -80.11000061035155 L -203.84300231933594 -80.10399627685545 L -203.7760009765625 -80.09981536865233 L -203.7469940185547 -80.09799957275389 L -203.6999969482422 -80.0970001220703 L -203.65199279785156 -80.09799957275389 L -203.55599975585938 -80.10399627685545 L -203.50799560546875 -80.11000061035155 L -203.4600067138672 -80.1169967651367 L -203.41299438476562 -80.12499999999999 L -203.36599731445312 -80.13500213623045 L -203.31900024414062 -80.14600372314452 L -203.27200317382812 -80.15899658203124 L -203.26400756835938 -80.16160583496092 L -203.2259979248047 -80.1740036010742 L -203.17999267578125 -80.19000244140624 L -203.13499450683594 -80.20700073242186 L -203.08999633789062 -80.22599792480467 L -203.04600524902344 -80.2470016479492 L -203.0019989013672 -80.2689971923828 L -202.95899963378906 -80.29299926757811 L -202.91600036621094 -80.31800079345702 L -202.87399291992188 -80.34500122070311 L -202.83299255371094 -80.3730010986328 L -202.79200744628906 -80.40299987792967 L -202.7530059814453 -80.43399810791014 L -202.7519989013672 -80.43484497070311 L -202.71400451660156 -80.46700286865233 L -202.67599487304688 -80.50099945068358 L -202.63900756835938 -80.53700256347655 L -202.60299682617188 -80.57399749755858 L -202.5679931640625 -80.61199951171874 L -202.53599548339844 -80.65100097656249 L -202.50399780273438 -80.69100189208983 L -202.47500610351562 -80.73100280761717 L -202.4459991455078 -80.7730026245117 L -202.3939971923828 -80.85700225830077 L -202.3736114501953 -80.89600372314452 L -202.37100219726562 -80.90100097656249 L -202.3489990234375 -80.94400024414061 L -202.3280029296875 -80.98899841308592 L -202.3090057373047 -81.03399658203124 L -202.29100036621094 -81.07900238037108 L -202.27499389648438 -81.12499999999999 L -202.26100158691406 -81.17099761962889 L -202.2480010986328 -81.21800231933592 L -202.23599243164062 -81.26499938964842 L -202.21800231933594 -81.35900115966795 L -202.21099853515625 -81.40699768066405 L -202.2108917236328 -81.40799713134764 L -202.20599365234375 -81.45500183105467 L -202.20199584960938 -81.50299835205077 L -202.1999969482422 -81.55100250244139 L -202.19900512695312 -81.59899902343749 L -202.1999969482422 -81.64700317382811 L -202.20199584960938 -81.6949996948242 L -202.20599365234375 -81.7429962158203 L -202.21099853515625 -81.79000091552733 L -202.21800231933594 -81.83799743652342 L -202.2270050048828 -81.88600158691405 L -202.23350524902344 -81.9199981689453 L -202.23599243164062 -81.93299865722655 L -202.2480010986328 -81.98000335693358 L -202.26100158691406 -82.02600097656249 L -202.27499389648438 -82.07199859619139 L -202.29100036621094 -82.1179962158203 L -202.3090057373047 -82.16400146484374 L -202.3280029296875 -82.20899963378905 L -202.3489990234375 -82.25299835205077 L -202.37100219726562 -82.29699707031249 L -202.3939971923828 -82.33999633789061 L -202.4199981689453 -82.38300323486327 L -202.4459991455078 -82.4250030517578 L -202.45095825195312 -82.43199920654295 L -202.50399780273438 -82.50700378417967 L -202.5679931640625 -82.58499908447264 L -202.60299682617188 -82.6230010986328 L -202.63900756835938 -82.66000366210936 L -202.67599487304688 -82.6959991455078 L -202.71400451660156 -82.73100280761717 L -202.7519989013672 -82.76217651367186 L -202.79200744628906 -82.7949981689453 L -202.87399291992188 -82.85299682617186 L -202.91600036621094 -82.87899780273436 L -202.95899963378906 -82.90499877929686 L -203.0019989013672 -82.92800140380858 L -203.03399658203125 -82.94400024414061 L -203.04600524902344 -82.94999694824217 L -203.08999633789062 -82.9710006713867 L -203.13499450683594 -82.98999786376952 L -203.17999267578125 -83.00800323486327 L -203.2259979248047 -83.0240020751953 L -203.26400756835938 -83.03556823730467 L -203.27200317382812 -83.03800201416014 L -203.31900024414062 -83.05100250244139 L -203.36599731445312 -83.06300354003905 L -203.41299438476562 -83.07299804687499 L -203.4600067138672 -83.08100128173827 L -203.50799560546875 -83.08799743652342 L -203.55599975585938 -83.09300231933592 L -203.60400390625 -83.0970001220703 L -203.65199279785156 -83.09899902343749 L -203.6999969482422 -83.09999847412108 L -203.7469940185547 -83.09899902343749 L -203.7760009765625 -83.09779357910155 L -203.7949981689453 -83.0970001220703 L -203.84300231933594 -83.09300231933592 L -203.89100646972656 -83.08799743652342 L -203.93899536132812 -83.08100128173827 L -203.98599243164062 -83.07299804687499 L -204.0330047607422 -83.06300354003905 L -204.0800018310547 -83.05100250244139 L -204.1269989013672 -83.03800201416014 L -204.17300415039062 -83.0240020751953 L -204.218994140625 -83.00800323486327 L -204.26400756835938 -82.98999786376952 L -204.3090057373047 -82.9710006713867 L -204.35299682617188 -82.94999694824217 L -204.36500549316406 -82.94400024414061 L -204.39700317382812 -82.92800140380858 L -204.44000244140625 -82.90499877929686 L -204.48300170898438 -82.87899780273436 L -204.52499389648438 -82.85299682617186 L -204.60699462890625 -82.7949981689453 L -204.68499755859375 -82.73100280761717 L -204.72300720214844 -82.6959991455078 L -204.75999450683594 -82.66000366210936 L -204.79600524902344 -82.6230010986328 L -204.8000030517578 -82.61865997314452 L -204.83099365234375 -82.58499908447264 L -204.89500427246094 -82.50700378417967 L -204.9480438232422 -82.43199920654295 L -204.9530029296875 -82.4250030517578 L -204.97900390625 -82.38300323486327 L -205.0050048828125 -82.33999633789061 L -205.0279998779297 -82.29699707031249 L -205.0500030517578 -82.25299835205077 L -205.0709991455078 -82.20899963378905 L -205.08999633789062 -82.16400146484374 L -205.10800170898438 -82.1179962158203 L -205.12399291992188 -82.07199859619139 L -205.13800048828125 -82.02600097656249 L -205.1510009765625 -81.98000335693358 L -205.16299438476562 -81.93299865722655 L -205.16549682617188 -81.9199981689453 L -205.1719970703125 -81.88600158691405 L -205.18099975585938 -81.83799743652342 L -205.18800354003906 -81.79000091552733 L -205.1929931640625 -81.7429962158203 L -205.19700622558594 -81.6949996948242 L -205.19900512695312 -81.64700317382811 L -205.1999969482422 -81.59899902343749 L -205.19900512695312 -81.55100250244139 L -205.19700622558594 -81.50299835205077 L -205.1929931640625 -81.45500183105467 L -205.1881103515625 -81.40799713134764 L -205.18800354003906 -81.40699768066405 L -205.18099975585938 -81.35900115966795 L -205.16299438476562 -81.26499938964842 L -205.1510009765625 -81.21800231933592 L -205.13800048828125 -81.17099761962889 L -205.12399291992188 -81.12499999999999 L -205.10800170898438 -81.07900238037108 L -205.08999633789062 -81.03399658203124 L -205.0709991455078 -80.98899841308592 L -205.0500030517578 -80.94400024414061 L -205.0279998779297 -80.90100097656249 L -205.025390625 -80.89600372314452 L -205.0050048828125 -80.85700225830077 M -196.3249969482422 -15.984000205993649 L -196.1320037841797 -16.021999359130856 L -195.9459991455078 -16.084999084472653 L -195.7689971923828 -16.172000885009762 L -195.6060028076172 -16.28199958801269 L -195.48898315429688 -16.38400077819824 L -195.45799255371094 -16.4109992980957 L -195.32899475097656 -16.559000015258786 L -195.218994140625 -16.72200012207031 L -195.1320037841797 -16.899000167846676 L -195.06900024414062 -17.084999084472653 L -195.031005859375 -17.27700042724609 L -195.01800537109375 -17.47400093078613 L -195.031005859375 -17.67000007629394 L -195.06900024414062 -17.861999511718746 L -195.1320037841797 -18.04899978637695 L -195.218994140625 -18.225000381469723 L -195.32899475097656 -18.388000488281246 L -195.3673553466797 -18.431999206542965 L -195.45799255371094 -18.5359992980957 L -195.6060028076172 -18.666000366210934 L -195.7689971923828 -18.77499961853027 L -195.9459991455078 -18.861999511718746 L -196.1320037841797 -18.924999237060543 L -196.3249969482422 -18.962999343872067 L -196.52099609375 -18.975999832153317 L -196.60800170898438 -18.97023010253906 L -196.7169952392578 -18.962999343872067 L -196.90899658203125 -18.924999237060543 L -197.0959930419922 -18.861999511718746 L -197.27200317382812 -18.77499961853027 L -197.43499755859375 -18.666000366210934 L -197.58299255371094 -18.5359992980957 L -197.67434692382812 -18.431999206542965 L -197.71299743652344 -18.388000488281246 L -197.82200622558594 -18.225000381469723 L -197.90899658203125 -18.04899978637695 L -197.9720001220703 -17.861999511718746 L -198.00999450683594 -17.67000007629394 L -198.0229949951172 -17.47400093078613 L -198.00999450683594 -17.27700042724609 L -197.9720001220703 -17.084999084472653 L -197.90899658203125 -16.899000167846676 L -197.82200622558594 -16.72200012207031 L -197.71299743652344 -16.559000015258786 L -197.58299255371094 -16.4109992980957 L -197.55201721191406 -16.38400077819824 L -197.43499755859375 -16.28199958801269 L -197.27200317382812 -16.172000885009762 L -197.0959930419922 -16.084999084472653 L -196.90899658203125 -16.021999359130856 L -196.7169952392578 -15.984000205993649 L -196.52099609375 -15.970999717712399 L -196.3249969482422 -15.984000205993649 M -202.9949951171875 -42.99700164794921 L -202.9949951171875 -64.00499725341795 L -208.99200439453125 -64.00499725341795 L -208.99200439453125 -42.99700164794921 L -202.9949951171875 -42.99700164794921 M -249.9016571044922 20.479999542236325 L -249.9029998779297 20.502000808715817 L -249.89100646972656 20.69799995422363 L -249.85699462890625 20.889999389648434 L -249.8560028076172 20.89338111877441 L -249.802001953125 21.076000213623043 L -249.72500610351562 21.252000808715817 L -249.62899780273438 21.41500091552734 L -249.51400756835938 21.562999725341793 L -249.38400268554688 21.6919994354248 L -249.24000549316406 21.80100059509277 L -249.08399963378906 21.888000488281246 L -248.9199981689453 21.951000213623043 L -248.83200073242188 21.97118759155273 L -248.75 21.98999977111816 L -248.57699584960938 22.002000808715817 L -248.4040069580078 21.98999977111816 L -248.23399353027344 21.951000213623043 L -248.07000732421875 21.888000488281246 L -247.9149932861328 21.80100059509277 L -247.80799865722656 21.72000694274902 L -247.77099609375 21.6919994354248 L -247.63999938964844 21.562999725341793 L -247.5260009765625 21.41500091552734 L -247.42999267578125 21.252000808715817 L -247.35299682617188 21.076000213623043 L -247.2969970703125 20.889999389648434 L -247.26300048828125 20.69799995422363 L -247.2519989013672 20.502000808715817 L -247.25323486328125 20.479999542236325 L -247.26300048828125 20.30599975585937 L -247.2969970703125 20.114000320434567 L -247.35299682617188 19.927999496459957 L -247.42999267578125 19.752000808715817 L -247.5260009765625 19.589000701904293 L -247.63999938964844 19.440999984741207 L -247.77099609375 19.3120002746582 L -247.80799865722656 19.28399276733398 L -247.9149932861328 19.20299911499023 L -248.07000732421875 19.115999221801754 L -248.23399353027344 19.052999496459957 L -248.4040069580078 19.01399993896484 L -248.57699584960938 19.002000808715817 L -248.75 19.01399993896484 L -248.83200073242188 19.03281211853027 L -248.9199981689453 19.052999496459957 L -249.08399963378906 19.115999221801754 L -249.24000549316406 19.20299911499023 L -249.38400268554688 19.3120002746582 L -249.51400756835938 19.440999984741207 L -249.62899780273438 19.589000701904293 L -249.72500610351562 19.752000808715817 L -249.802001953125 19.927999496459957 L -249.8560028076172 20.11061859130859 L -249.85699462890625 20.114000320434567 L -249.89100646972656 20.30599975585937 L -249.9016571044922 20.479999542236325 M -226.322998046875 21.888000488281246 L -226.3040008544922 21.894435882568356 L -226.13699340820312 21.951000213623043 L -225.94500732421875 21.98999977111816 L -225.74899291992188 22.002000808715817 L -225.55299377441406 21.98999977111816 L -225.36099243164062 21.951000213623043 L -225.27999877929688 21.92356491088867 L -225.1750030517578 21.888000488281246 L -224.99899291992188 21.80100059509277 L -224.83599853515625 21.6919994354248 L -224.68800354003906 21.562999725341793 L -224.5590057373047 21.41500091552734 L -224.4499969482422 21.252000808715817 L -224.36300659179688 21.076000213623043 L -224.3000030517578 20.889999389648434 L -224.26199340820312 20.69799995422363 L -224.24899291992188 20.502000808715817 L -224.25045776367188 20.479999542236325 L -224.26199340820312 20.30599975585937 L -224.3000030517578 20.114000320434567 L -224.36300659179688 19.927999496459957 L -224.4499969482422 19.752000808715817 L -224.5590057373047 19.589000701904293 L -224.68800354003906 19.440999984741207 L -224.83599853515625 19.3120002746582 L -224.99899291992188 19.20299911499023 L -225.1750030517578 19.115999221801754 L -225.27999877929688 19.080434799194332 L -225.36099243164062 19.052999496459957 L -225.55299377441406 19.01399993896484 L -225.74899291992188 19.002000808715817 L -225.94500732421875 19.01399993896484 L -226.13699340820312 19.052999496459957 L -226.3040008544922 19.109563827514645 L -226.322998046875 19.115999221801754 L -226.49899291992188 19.20299911499023 L -226.66200256347656 19.3120002746582 L -226.80999755859375 19.440999984741207 L -226.93899536132812 19.589000701904293 L -227.04800415039062 19.752000808715817 L -227.13499450683594 19.927999496459957 L -227.197998046875 20.114000320434567 L -227.23599243164062 20.30599975585937 L -227.24754333496094 20.479999542236325 L -227.24899291992188 20.502000808715817 L -227.23599243164062 20.69799995422363 L -227.197998046875 20.889999389648434 L -227.13499450683594 21.076000213623043 L -227.04800415039062 21.252000808715817 L -226.93899536132812 21.41500091552734 L -226.80999755859375 21.562999725341793 L -226.66200256347656 21.6919994354248 L -226.49899291992188 21.80100059509277 L -226.322998046875 21.888000488281246 M -218.22900390625 21.6919994354248 L -218.11199951171875 21.780563354492184 L -218.0850067138672 21.80100059509277 L -217.92999267578125 21.888000488281246 L -217.76600646972656 21.951000213623043 L -217.5959930419922 21.98999977111816 L -217.42300415039062 22.002000808715817 L -217.25 21.98999977111816 L -217.08799743652344 21.95283508300781 L -217.0800018310547 21.951000213623043 L -216.91600036621094 21.888000488281246 L -216.75999450683594 21.80100059509277 L -216.61599731445312 21.6919994354248 L -216.48599243164062 21.562999725341793 L -216.37100219726562 21.41500091552734 L -216.27499389648438 21.252000808715817 L -216.197998046875 21.076000213623043 L -216.14300537109375 20.889999389648434 L -216.10899353027344 20.69799995422363 L -216.09800720214844 20.502000808715817 L -216.09922790527344 20.479999542236325 L -216.10899353027344 20.30599975585937 L -216.14300537109375 20.114000320434567 L -216.197998046875 19.927999496459957 L -216.27499389648438 19.752000808715817 L -216.37100219726562 19.589000701904293 L -216.48599243164062 19.440999984741207 L -216.61599731445312 19.3120002746582 L -216.75999450683594 19.20299911499023 L -216.91600036621094 19.115999221801754 L -217.0800018310547 19.052999496459957 L -217.08799743652344 19.05116462707519 L -217.25 19.01399993896484 L -217.42300415039062 19.002000808715817 L -217.5959930419922 19.01399993896484 L -217.76600646972656 19.052999496459957 L -217.92999267578125 19.115999221801754 L -218.0850067138672 19.20299911499023 L -218.22900390625 19.3120002746582 L -218.36000061035156 19.440999984741207 L -218.4739990234375 19.589000701904293 L -218.57000732421875 19.752000808715817 L -218.64700317382812 19.927999496459957 L -218.7030029296875 20.114000320434567 L -218.73699951171875 20.30599975585937 L -218.74676513671875 20.479999542236325 L -218.7480010986328 20.502000808715817 L -218.73699951171875 20.69799995422363 L -218.7030029296875 20.889999389648434 L -218.64700317382812 21.076000213623043 L -218.57000732421875 21.252000808715817 L -218.4739990234375 21.41500091552734 L -218.36000061035156 21.562999725341793 L -218.22900390625 21.6919994354248 M -186.48300170898438 8.555999755859373 L -186.5030059814453 8.850000381469725 L -186.48300170898438 9.14400005340576 L -186.42599487304688 9.432999610900877 L -186.33099365234375 9.711999893188475 L -186.2010040283203 9.977000236511229 L -186.03700256347656 10.2209997177124 L -185.84300231933594 10.442999839782713 L -185.62100219726562 10.637000083923338 L -185.37600708007812 10.800999641418455 L -185.11199951171875 10.930999755859373 L -184.83299255371094 11.026000022888182 L -184.54400634765625 11.083000183105467 L -184.32000732421875 11.098237991333006 L -184.25 11.102999687194822 L -183.95599365234375 11.083000183105467 L -183.66700744628906 11.026000022888182 L -183.38800048828125 10.930999755859373 L -183.12399291992188 10.800999641418455 L -182.87899780273438 10.637000083923338 L -182.65699768066406 10.442999839782713 L -182.47959899902344 10.239999771118162 L -182.46299743652344 10.2209997177124 L -182.2989959716797 9.977000236511229 L -182.16900634765625 9.711999893188475 L -182.07400512695312 9.432999610900877 L -182.01699829101562 9.14400005340576 L -181.9980010986328 8.850000381469725 L -182.01699829101562 8.555999755859373 L -182.07400512695312 8.267000198364256 L -182.0995330810547 8.19200038909912 L -182.16900634765625 7.987999916076658 L -182.2989959716797 7.723999977111815 L -182.46299743652344 7.479000091552733 L -182.65699768066406 7.25699996948242 L -182.87899780273438 7.063000202178953 L -183.12399291992188 6.90000009536743 L -183.38800048828125 6.76900005340576 L -183.66700744628906 6.6750001907348615 L -183.95599365234375 6.617000102996824 L -184.25 6.598000049591063 L -184.32000732421875 6.602523803710936 L -184.54400634765625 6.617000102996824 L -184.83299255371094 6.6750001907348615 L -185.11199951171875 6.76900005340576 L -185.37600708007812 6.90000009536743 L -185.62100219726562 7.063000202178953 L -185.84300231933594 7.25699996948242 L -186.03700256347656 7.479000091552733 L -186.2010040283203 7.723999977111815 L -186.33099365234375 7.987999916076658 L -186.4004669189453 8.19200038909912 L -186.42599487304688 8.267000198364256 L -186.48300170898438 8.555999755859373 M -241.74954223632812 20.479999542236325 L -241.75100708007812 20.502000808715817 L -241.73800659179688 20.69799995422363 L -241.6999969482422 20.889999389648434 L -241.66400146484375 20.99628639221191 L -241.63699340820312 21.076000213623043 L -241.5500030517578 21.252000808715817 L -241.4409942626953 21.41500091552734 L -241.31199645996094 21.562999725341793 L -241.16400146484375 21.6919994354248 L -241.00100708007812 21.80100059509277 L -240.8249969482422 21.888000488281246 L -240.63900756835938 21.951000213623043 L -240.44700622558594 21.98999977111816 L -240.25100708007812 22.002000808715817 L -240.05499267578125 21.98999977111816 L -239.86300659179688 21.951000213623043 L -239.677001953125 21.888000488281246 L -239.61599731445312 21.857847213745114 L -239.50100708007812 21.80100059509277 L -239.33799743652344 21.6919994354248 L -239.19000244140625 21.562999725341793 L -239.06100463867188 21.41500091552734 L -238.95199584960938 21.252000808715817 L -238.86500549316406 21.076000213623043 L -238.802001953125 20.889999389648434 L -238.76400756835938 20.69799995422363 L -238.75100708007812 20.502000808715817 L -238.75245666503906 20.479999542236325 L -238.76400756835938 20.30599975585937 L -238.802001953125 20.114000320434567 L -238.86500549316406 19.927999496459957 L -238.95199584960938 19.752000808715817 L -239.06100463867188 19.589000701904293 L -239.19000244140625 19.440999984741207 L -239.33799743652344 19.3120002746582 L -239.50100708007812 19.20299911499023 L -239.61599731445312 19.146152496337887 L -239.677001953125 19.115999221801754 L -239.86300659179688 19.052999496459957 L -240.05499267578125 19.01399993896484 L -240.25100708007812 19.002000808715817 L -240.44700622558594 19.01399993896484 L -240.63900756835938 19.052999496459957 L -240.8249969482422 19.115999221801754 L -241.00100708007812 19.20299911499023 L -241.16400146484375 19.3120002746582 L -241.31199645996094 19.440999984741207 L -241.4409942626953 19.589000701904293 L -241.5500030517578 19.752000808715817 L -241.63699340820312 19.927999496459957 L -241.66400146484375 20.007715225219723 L -241.6999969482422 20.114000320434567 L -241.73800659179688 20.30599975585937 L -241.74954223632812 20.479999542236325 M -196.60800170898438 31.970230102539055 L -196.52099609375 31.975999832153313 L -196.3249969482422 31.962999343872063 L -196.1320037841797 31.92499923706054 L -195.9459991455078 31.861999511718743 L -195.7689971923828 31.774999618530266 L -195.6060028076172 31.66600036621093 L -195.45799255371094 31.535999298095696 L -195.32899475097656 31.388000488281243 L -195.218994140625 31.22500038146972 L -195.1320037841797 31.048000335693352 L -195.06900024414062 30.861999511718743 L -195.0408935546875 30.719999313354485 L -195.031005859375 30.670000076293938 L -195.01800537109375 30.474000930786126 L -195.031005859375 30.277000427246087 L -195.06900024414062 30.08499908447265 L -195.1320037841797 29.899000167846673 L -195.218994140625 29.722000122070305 L -195.23654174804688 29.695999145507805 L -195.32899475097656 29.559000015258782 L -195.45799255371094 29.410999298095696 L -195.6060028076172 29.281000137329094 L -195.7689971923828 29.17200088500976 L -195.9459991455078 29.08499908447265 L -196.1320037841797 29.021999359130852 L -196.3249969482422 28.98399925231933 L -196.52099609375 28.97100067138671 L -196.60800170898438 28.97677040100097 L -196.7169952392578 28.98399925231933 L -196.90899658203125 29.021999359130852 L -197.0959930419922 29.08499908447265 L -197.27200317382812 29.17200088500976 L -197.43499755859375 29.281000137329094 L -197.58299255371094 29.410999298095696 L -197.71299743652344 29.559000015258782 L -197.82200622558594 29.722000122070305 L -197.90899658203125 29.899000167846673 L -197.9720001220703 30.08499908447265 L -198.00999450683594 30.277000427246087 L -198.0229949951172 30.474000930786126 L -198.00999450683594 30.670000076293938 L -198.00010681152344 30.719999313354485 L -197.9720001220703 30.861999511718743 L -197.90899658203125 31.048000335693352 L -197.82200622558594 31.22500038146972 L -197.71299743652344 31.388000488281243 L -197.58299255371094 31.535999298095696 L -197.43499755859375 31.66600036621093 L -197.27200317382812 31.774999618530266 L -197.0959930419922 31.861999511718743 L -196.90899658203125 31.92499923706054 L -196.7169952392578 31.962999343872063 L -196.60800170898438 31.970230102539055 M -282.61199951171875 -68.7689971923828 L -282.3330078125 -68.6740036010742 L -282.04400634765625 -68.6169967651367 L -281.75 -68.59799957275389 L -281.45599365234375 -68.6169967651367 L -281.1669921875 -68.6740036010742 L -280.88800048828125 -68.7689971923828 L -280.6239929199219 -68.90000152587889 L -280.3789978027344 -69.06300354003905 L -280.1570129394531 -69.25700378417967 L -279.9630126953125 -69.47899627685545 L -279.860595703125 -69.63200378417967 L -279.79901123046875 -69.72399902343749 L -279.66900634765625 -69.98799896240233 L -279.5740051269531 -70.26699829101561 L -279.5169982910156 -70.55599975585936 L -279.49798583984375 -70.84999847412108 L -279.5169982910156 -71.1439971923828 L -279.5740051269531 -71.43299865722655 L -279.6581115722656 -71.68000030517577 L -279.66900634765625 -71.71199798583983 L -279.79901123046875 -71.97599792480467 L -279.9630126953125 -72.2210006713867 L -280.1570129394531 -72.44300079345702 L -280.3789978027344 -72.63700103759764 L -280.6239929199219 -72.80100250244139 L -280.88800048828125 -72.93099975585936 L -281.1669921875 -73.02600097656249 L -281.45599365234375 -73.08300018310545 L -281.75 -73.10299682617186 L -282.04400634765625 -73.08300018310545 L -282.3330078125 -73.02600097656249 L -282.61199951171875 -72.93099975585936 L -282.6239929199219 -72.92509460449217 L -282.8760070800781 -72.80100250244139 L -283.1210021972656 -72.63700103759764 L -283.3429870605469 -72.44300079345702 L -283.5369873046875 -72.2210006713867 L -283.70098876953125 -71.97599792480467 L -283.83099365234375 -71.71199798583983 L -283.9259948730469 -71.43299865722655 L -283.9830017089844 -71.1439971923828 L -284.00299072265625 -70.84999847412108 L -283.9830017089844 -70.55599975585936 L -283.9259948730469 -70.26699829101561 L -283.83099365234375 -69.98799896240233 L -283.70098876953125 -69.72399902343749 L -283.639404296875 -69.63200378417967 L -283.5369873046875 -69.47899627685545 L -283.3429870605469 -69.25700378417967 L -283.1210021972656 -69.06300354003905 L -282.8760070800781 -68.90000152587889 L -282.6239929199219 -68.7749557495117 L -282.61199951171875 -68.7689971923828 M -271.56500244140625 -16.28199958801269 L -271.4479675292969 -16.38400077819824 L -271.4169921875 -16.4109992980957 L -271.2869873046875 -16.559000015258786 L -271.1780090332031 -16.72200012207031 L -271.09100341796875 -16.899000167846676 L -271.02801513671875 -17.084999084472653 L -270.989990234375 -17.27700042724609 L -270.97698974609375 -17.47400093078613 L -270.989990234375 -17.67000007629394 L -271.02801513671875 -17.861999511718746 L -271.09100341796875 -18.04899978637695 L -271.1780090332031 -18.225000381469723 L -271.2869873046875 -18.388000488281246 L -271.3256530761719 -18.431999206542965 L -271.4169921875 -18.5359992980957 L -271.56500244140625 -18.666000366210934 L -271.7279968261719 -18.77499961853027 L -271.90399169921875 -18.861999511718746 L -272.09100341796875 -18.924999237060543 L -272.2829895019531 -18.962999343872067 L -272.3840026855469 -18.969699859619137 L -272.47900390625 -18.975999832153317 L -272.6759948730469 -18.962999343872067 L -272.8680114746094 -18.924999237060543 L -273.0539855957031 -18.861999511718746 L -273.2309875488281 -18.77499961853027 L -273.3940124511719 -18.666000366210934 L -273.5419921875 -18.5359992980957 L -273.6326599121094 -18.431999206542965 L -273.6709899902344 -18.388000488281246 L -273.781005859375 -18.225000381469723 L -273.8680114746094 -18.04899978637695 L -273.9309997558594 -17.861999511718746 L -273.968994140625 -17.67000007629394 L -273.98199462890625 -17.47400093078613 L -273.968994140625 -17.27700042724609 L -273.9309997558594 -17.084999084472653 L -273.8680114746094 -16.899000167846676 L -273.781005859375 -16.72200012207031 L -273.6709899902344 -16.559000015258786 L -273.5419921875 -16.4109992980957 L -273.5110168457031 -16.38400077819824 L -273.3940124511719 -16.28199958801269 L -273.2309875488281 -16.172000885009762 L -273.0539855957031 -16.084999084472653 L -272.8680114746094 -16.021999359130856 L -272.6759948730469 -15.984000205993649 L -272.47900390625 -15.970999717712399 L -272.2829895019531 -15.984000205993649 L -272.09100341796875 -16.021999359130856 L -271.90399169921875 -16.084999084472653 L -271.7279968261719 -16.172000885009762 L -271.56500244140625 -16.28199958801269 M -273.9309997558594 30.861999511718743 L -273.8680114746094 31.048000335693352 L -273.781005859375 31.22500038146972 L -273.6709899902344 31.388000488281243 L -273.5419921875 31.535999298095696 L -273.3940124511719 31.66600036621093 L -273.2309875488281 31.774999618530266 L -273.0539855957031 31.861999511718743 L -272.8680114746094 31.92499923706054 L -272.6759948730469 31.962999343872063 L -272.47900390625 31.975999832153313 L -272.3840026855469 31.969699859619134 L -272.2829895019531 31.962999343872063 L -272.09100341796875 31.92499923706054 L -271.90399169921875 31.861999511718743 L -271.7279968261719 31.774999618530266 L -271.56500244140625 31.66600036621093 L -271.4169921875 31.535999298095696 L -271.2869873046875 31.388000488281243 L -271.1780090332031 31.22500038146972 L -271.09100341796875 31.048000335693352 L -271.02801513671875 30.861999511718743 L -270.9999084472656 30.719999313354485 L -270.989990234375 30.670000076293938 L -270.97698974609375 30.474000930786126 L -270.989990234375 30.277000427246087 L -271.02801513671875 30.08499908447265 L -271.09100341796875 29.899000167846673 L -271.1780090332031 29.722000122070305 L -271.2869873046875 29.559000015258782 L -271.4169921875 29.410999298095696 L -271.56500244140625 29.281000137329094 L -271.7279968261719 29.17200088500976 L -271.90399169921875 29.08499908447265 L -272.09100341796875 29.021999359130852 L -272.2829895019531 28.98399925231933 L -272.3840026855469 28.97730064392089 L -272.47900390625 28.97100067138671 L -272.6759948730469 28.98399925231933 L -272.8680114746094 29.021999359130852 L -273.0539855957031 29.08499908447265 L -273.2309875488281 29.17200088500976 L -273.3940124511719 29.281000137329094 L -273.5419921875 29.410999298095696 L -273.6709899902344 29.559000015258782 L -273.7634582519531 29.695999145507805 L -273.781005859375 29.722000122070305 L -273.8680114746094 29.899000167846673 L -273.9309997558594 30.08499908447265 L -273.968994140625 30.277000427246087 L -273.98199462890625 30.474000930786126 L -273.968994140625 30.670000076293938 L -273.9591064453125 30.719999313354485 L -273.9309997558594 30.861999511718743 M -282.8760070800781 10.800999641418455 L -282.6239929199219 10.92509078979492 L -282.61199951171875 10.930999755859373 L -282.3330078125 11.026000022888182 L -282.04400634765625 11.083000183105467 L -281.75 11.102999687194822 L -281.45599365234375 11.083000183105467 L -281.1669921875 11.026000022888182 L -280.88800048828125 10.930999755859373 L -280.6239929199219 10.800999641418455 L -280.57598876953125 10.768869400024412 L -280.3789978027344 10.637000083923338 L -280.1570129394531 10.442999839782713 L -279.9630126953125 10.2209997177124 L -279.79901123046875 9.977000236511229 L -279.66900634765625 9.711999893188475 L -279.5740051269531 9.432999610900877 L -279.5169982910156 9.14400005340576 L -279.49798583984375 8.850000381469725 L -279.5169982910156 8.555999755859373 L -279.5740051269531 8.267000198364256 L -279.59954833984375 8.19200038909912 L -279.66900634765625 7.987999916076658 L -279.79901123046875 7.723999977111815 L -279.9630126953125 7.479000091552733 L -280.1570129394531 7.25699996948242 L -280.3789978027344 7.063000202178953 L -280.6239929199219 6.90000009536743 L -280.88800048828125 6.76900005340576 L -281.1669921875 6.6750001907348615 L -281.45599365234375 6.617000102996824 L -281.75 6.598000049591063 L -282.04400634765625 6.617000102996824 L -282.3330078125 6.6750001907348615 L -282.61199951171875 6.76900005340576 L -282.6239929199219 6.774954319000242 L -282.8760070800781 6.90000009536743 L -283.1210021972656 7.063000202178953 L -283.3429870605469 7.25699996948242 L -283.5369873046875 7.479000091552733 L -283.70098876953125 7.723999977111815 L -283.83099365234375 7.987999916076658 L -283.90045166015625 8.19200038909912 L -283.9259948730469 8.267000198364256 L -283.9830017089844 8.555999755859373 L -284.00299072265625 8.850000381469725 L -283.9830017089844 9.14400005340576 L -283.9259948730469 9.432999610900877 L -283.83099365234375 9.711999893188475 L -283.70098876953125 9.977000236511229 L -283.5369873046875 10.2209997177124 L -283.3429870605469 10.442999839782713 L -283.1210021972656 10.637000083923338 L -282.8760070800781 10.800999641418455 M -247.2519989013672 -77.10299682617186 L -248.5030059814453 -77.10299682617186 L -249.0030059814453 -77.10299682617186 L -249.0030059814453 -73.59799957275389 L -248.5030059814453 -73.59799957275389 L -247.2519989013672 -73.59799957275389 L -241.75100708007812 -73.59799957275389 L -239.20199584960938 -73.59799957275389 L -238.75100708007812 -73.59799957275389 L -229.802001953125 -73.59799957275389 L -227.24899291992188 -73.59799957275389 L -224.24899291992188 -73.59799957275389 L -222.50100708007812 -73.59799957275389 L -218.7480010986328 -73.59799957275389 L -217.4969940185547 -73.59799957275389 L -216.9980010986328 -73.59799957275389 L -216.9980010986328 -77.10299682617186 L -217.4969940185547 -77.10299682617186 L -218.7480010986328 -77.10299682617186 L -222.50100708007812 -77.10299682617186 L -224.24899291992188 -77.10299682617186 L -227.24899291992188 -77.10299682617186 L -229.802001953125 -77.10299682617186 L -238.75100708007812 -77.10299682617186 L -239.20199584960938 -77.10299682617186 L -241.75100708007812 -77.10299682617186 L -247.2519989013672 -77.10299682617186 M -181.9969940185547 -85.99999999999999 L -187.99899291992188 -85.99999999999999 L -187.99899291992188 -80.0970001220703 L -187.99899291992188 -79.9980010986328 L -186.5030059814453 -79.9980010986328 L -181.9980010986328 -79.9980010986328 L -181.9969940185547 -79.9980010986328 L -181.9969940185547 -85.99999999999999 M -195.9980010986328 -23.496999740600582 L -195.9980010986328 -38.50199890136718 L -198.0229949951172 -38.50199890136718 L -208.99200439453125 -38.50199890136718 L -211.0030059814453 -38.50199890136718 L -211.0030059814453 -23.496999740600582 L -198.0229949951172 -23.496999740600582 L -195.9980010986328 -23.496999740600582 M -284.00201416015625 -79.9980010986328 L -279.49798583984375 -79.9980010986328 L -278 -79.9980010986328 L -278 -85.99999999999999 L -279.49798583984375 -85.99999999999999 L -284.00201416015625 -85.99999999999999 L -284.00201416015625 -79.9980010986328 M -254.9980010986328 -23.496999740600582 L -254.9980010986328 -38.50199890136718 L -257.00799560546875 -38.50199890136718 L -270.00299072265625 -38.50199890136718 L -270.00299072265625 -23.496999740600582 L -254.9980010986328 -23.496999740600582 M -263.0050048828125 -42.99700164794921 L -257.00799560546875 -42.99700164794921 L -257.00799560546875 -64.00499725341795 L -263.0050048828125 -64.00499725341795 L -263.0050048828125 -42.99700164794921 z" fill="none" stroke="rgb(255,0,0)" stroke-width="0.001mm" />
</svg>