<?xml version="1.0" standalone="no"?>
<!DOCTYPE svg PUBLIC "-//W3C//DTD SVG 1.1//EN"
  "http://www.w3.org/Graphics/SVG/1.1/DTD/svg11.dtd">
<svg width="182.5mm" height="131.99999999999994mm" viewBox="-101 -194.99999999999994 182.5 131.99999999999994" xmlns="http://www.w3.org/2000/svg" version="1.1">
	<title>svgOutput</title>
	<desc>made with tinkercad</desc>
<path d="M 64.5 -121.49999999999997 L 64.5 -110.49999999999997 L 64.5 -108.49999999999997 L 64.5 -107.49999999999997 L 64.5 -104.49999999999997 L 60.5 -104.49999999999997 L 56.5 -104.49999999999997 L 56.5 -107.49999999999997 L 56.5 -108.49999999999997 L 56.5 -110.49999999999997 L 56.5 -121.49999999999997 L 57.5 -121.49999999999997 L 57.5 -131.49999999999997 L 43.5 -131.49999999999997 L 43.5 -121.49999999999997 L 44.5 -121.49999999999997 L 44.5 -110.49999999999997 L 44.5 -108.49999999999997 L 44.5 -107.49999999999997 L 44.5 -104.49999999999997 L 40.5 -104.49999999999997 L 40.5 -103.49999999999997 L 40.5 -101.49999999999997 L 40.5 -88.49999999999999 L 37.5 -88.49999999999999 L 37.5 -104.49999999999997 L 15.5 -104.49999999999997 L 15.5 -88.49999999999999 L 12.5 -88.49999999999999 L 12.5 -107.49999999999997 L 10 -107.49999999999997 L 10 -110.49999999999997 L 10 -131.49999999999997 L 10.350000381469727 -131.49999999999997 L 10.350000381469727 -131.99999999999997 L 10.350000381469727 -135.42799377441403 L 5.349999904632568 -135.42799377441403 L 5.349999904632568 -131.99999999999997 L 0.3499999940395355 -131.99999999999997 L 0.3499999940395355 -135.42799377441403 L 0.3499999940395355 -140.42500305175778 L 0.3499999940395355 -146.43099975585935 L 0.3499999940395355 -147.99999999999997 L 2.8499999046325684 -147.99999999999997 L 2.8499999046325684 -148.12800598144528 L 1.5470000505447388 -148.12800598144528 L 0.3499999940395355 -148.12800598144528 L 0.20000000298023224 -148.12800598144528 L 0.20000000298023224 -159.32800292968747 L 0.3499999940395355 -159.32800292968747 L 1.5470000505447388 -159.32800292968747 L 4.552000045776367 -159.32800292968747 L 5.3470001220703125 -159.32800292968747 L 13 -159.32800292968747 L 29.152000427246094 -159.32800292968747 L 30.350000381469727 -159.32800292968747 L 30.5 -159.32800292968747 L 30.5 -155.49999999999997 L 33.5 -155.49999999999997 L 40.5 -155.49999999999997 L 60.5 -155.49999999999997 L 80.5 -155.49999999999997 L 80.5 -152.49999999999997 L 80.5 -131.49999999999997 L 80.5 -112.49999999999997 L 80.5 -110.49999999999997 L 80.5 -107.49999999999997 L 80.5 -104.49999999999997 L 76.5 -104.49999999999997 L 76.5 -107.49999999999997 L 76.5 -108.49999999999997 L 76.5 -110.49999999999997 L 76.5 -121.49999999999997 L 77.5 -121.49999999999997 L 77.5 -131.49999999999997 L 63.5 -131.49999999999997 L 63.5 -121.49999999999997 L 64.5 -121.49999999999997 M 16.384000778198242 -158.23100280761716 L 13 -158.23100280761716 L 5.3470001220703125 -158.23100280761716 L 5.3470001220703125 -153.22599792480466 L 13 -153.22599792480466 L 16.384000778198242 -153.22599792480466 L 24.576000213623047 -153.22599792480466 L 25.351999282836914 -153.22599792480466 L 25.351999282836914 -153.6000061035156 L 25.351999282836914 -154.62399291992185 L 25.351999282836914 -155.64799499511716 L 25.351999282836914 -158.23100280761716 L 24.576000213623047 -158.23100280761716 L 16.384000778198242 -158.23100280761716 M 30.350000381469727 -131.99999999999997 L 27.850000381469727 -131.99999999999997 L 24.850000381469727 -131.99999999999997 L 24.850000381469727 -135.42799377441403 L 23.996999740600586 -135.42799377441403 L 20.350000381469727 -135.42799377441403 L 20.350000381469727 -131.99999999999997 L 20.350000381469727 -131.49999999999997 L 13 -131.49999999999997 L 13 -110.49999999999997 L 38 -110.49999999999997 L 38 -131.49999999999997 L 33.5 -131.49999999999997 L 30.5 -131.49999999999997 L 30.5 -138.49999999999997 L 33.5 -138.49999999999997 L 33.5 -134.49999999999997 L 40.5 -134.49999999999997 L 60.5 -134.49999999999997 L 77.5 -134.49999999999997 L 77.5 -152.49999999999997 L 60.5 -152.49999999999997 L 40.5 -152.49999999999997 L 33.5 -152.49999999999997 L 33.5 -148.49999999999997 L 30.5 -148.49999999999997 L 30.5 -148.12800598144528 L 30.350000381469727 -148.12800598144528 L 27.850000381469727 -148.12800598144528 L 27.850000381469727 -147.99999999999997 L 30.350000381469727 -147.99999999999997 L 30.350000381469727 -131.99999999999997 M 0 -148.12800598144528 L 0 -145.49699401855466 L 0 -131.49999999999997 L 0 -110.49999999999997 L 0 -73.99999999999999 L -10 -63.999999999999986 L -28.152999877929688 -63.999999999999986 L -31.952999114990234 -63.999999999999986 L -90 -63.999999999999986 L -95.6520004272461 -69.65200042724608 L -98.00299835205078 -72.00299835205077 L -100 -73.99999999999999 L -100 -110.49999999999997 L -100 -131.49999999999997 L -100 -174.99800109863278 L -100 -178.00300598144528 L -100 -179.49699401855466 L -100 -183.99999999999997 L -98.49700164794922 -185.50300598144528 L -98.00199890136719 -185.99800109863278 L -92.99700164794922 -191.00300598144528 L -90 -193.99999999999994 L -31.952999114990234 -193.99999999999994 L -28.947999954223633 -193.99999999999994 L -28.152999877929688 -193.99999999999994 L -10 -193.99999999999994 L -7.002999782562256 -191.00300598144528 L -4.3480000495910645 -188.3480072021484 L 0 -183.99999999999997 L 0 -166.19799804687497 L 0 -148.12800598144528 M -94.76100158691406 -166.32699584960935 L -94.72000122070312 -166.30836486816403 L -94.71700286865234 -166.30700683593747 L -94.6709976196289 -166.28999328613278 L -94.625 -166.27400207519528 L -94.5790023803711 -166.25900268554685 L -94.53299713134766 -166.2460021972656 L -94.48600006103516 -166.23500061035153 L -94.43900299072266 -166.2250061035156 L -94.39099884033203 -166.21699523925778 L -94.34400177001953 -166.21000671386716 L -94.2959976196289 -166.20399475097653 L -94.20800018310547 -166.19850158691403 L -94.19999694824219 -166.19799804687497 L -94.10399627685547 -166.19799804687497 L -94.00800323486328 -166.20399475097653 L -93.95999908447266 -166.21000671386716 L -93.91300201416016 -166.21699523925778 L -93.86499786376953 -166.2250061035156 L -93.81800079345703 -166.23500061035153 L -93.77100372314453 -166.2460021972656 L -93.7249984741211 -166.25900268554685 L -93.69599914550781 -166.2684631347656 L -93.67900085449219 -166.27400207519528 L -93.63300323486328 -166.28999328613278 L -93.58699798583984 -166.30700683593747 L -93.54299926757812 -166.32699584960935 L -93.49800109863281 -166.34700012207028 L -93.48799896240234 -166.35200500488278 L -93.4540023803711 -166.3690032958984 L -93.41100311279297 -166.39300537109372 L -93.36799621582031 -166.4179992675781 L -93.32599639892578 -166.44500732421872 L -93.28500366210938 -166.4730072021484 L -93.24500274658203 -166.50300598144528 L -93.20500183105469 -166.53399658203122 L -93.18399810791016 -166.55177307128903 L -93.16600036621094 -166.5670013427734 L -93.12799835205078 -166.60099792480466 L -93.09100341796875 -166.6369934082031 L -93.05500030517578 -166.67399597167966 L -93.02100372314453 -166.71200561523435 L -92.98799896240234 -166.7510070800781 L -92.95700073242188 -166.7910003662109 L -92.927001953125 -166.83200073242185 L -92.89900207519531 -166.87300109863278 L -92.87393188476562 -166.91200256347653 L -92.87200164794922 -166.91499328613278 L -92.84700012207031 -166.95700073242185 L -92.822998046875 -167.0010070800781 L -92.8010025024414 -167.04499816894528 L -92.78099822998047 -167.08900451660153 L -92.76200103759766 -167.13400268554685 L -92.74400329589844 -167.17900085449216 L -92.72799682617188 -167.2250061035156 L -92.71299743652344 -167.27099609374997 L -92.69999694824219 -167.31799316406247 L -92.68900299072266 -167.36500549316403 L -92.67900085449219 -167.41200256347653 L -92.677001953125 -167.42399597167966 L -92.6709976196289 -167.46000671386716 L -92.66400146484375 -167.50700378417966 L -92.65899658203125 -167.55499267578122 L -92.65499877929688 -167.60299682617185 L -92.6520004272461 -167.65100097656247 L -92.6520004272461 -167.74699401855466 L -92.65499877929688 -167.79499816894528 L -92.65899658203125 -167.8430023193359 L -92.66400146484375 -167.89100646972653 L -92.67070007324219 -167.93600463867185 L -92.6709976196289 -167.93800354003903 L -92.67900085449219 -167.9859924316406 L -92.68900299072266 -168.03300476074216 L -92.69999694824219 -168.08000183105466 L -92.71299743652344 -168.1260070800781 L -92.72799682617188 -168.1730041503906 L -92.74400329589844 -168.2180023193359 L -92.76200103759766 -168.26400756835935 L -92.78099822998047 -168.30900573730466 L -92.8010025024414 -168.35299682617185 L -92.822998046875 -168.3970031738281 L -92.84700012207031 -168.44000244140622 L -92.85165405273438 -168.44799804687497 L -92.87200164794922 -168.48300170898435 L -92.89900207519531 -168.52499389648435 L -92.927001953125 -168.56599426269528 L -92.95700073242188 -168.60699462890622 L -92.98799896240234 -168.64599609374997 L -93.02100372314453 -168.68499755859372 L -93.05500030517578 -168.7230072021484 L -93.09100341796875 -168.7599945068359 L -93.12799835205078 -168.7960052490234 L -93.16600036621094 -168.83099365234372 L -93.18399810791016 -168.84576416015622 L -93.20500183105469 -168.86300659179685 L -93.24500274658203 -168.8950042724609 L -93.28500366210938 -168.92500305175778 L -93.32599639892578 -168.95300292968747 L -93.3368911743164 -168.96000671386716 L -93.36799621582031 -168.97999572753903 L -93.41100311279297 -169.00500488281247 L -93.4540023803711 -169.02799987792966 L -93.49800109863281 -169.05099487304685 L -93.54299926757812 -169.07099914550778 L -93.58699798583984 -169.0899963378906 L -93.63300323486328 -169.10800170898435 L -93.67900085449219 -169.12399291992185 L -93.69599914550781 -169.1291809082031 L -93.7249984741211 -169.13800048828122 L -93.77100372314453 -169.15100097656247 L -93.81800079345703 -169.1629943847656 L -93.86499786376953 -169.1730041503906 L -93.91300201416016 -169.18099975585935 L -93.95999908447266 -169.18800354003903 L -94.00800323486328 -169.19299316406247 L -94.05599975585938 -169.1970062255859 L -94.10399627685547 -169.1990051269531 L -94.1520004272461 -169.19999694824216 L -94.19999694824219 -169.1990051269531 L -94.20800018310547 -169.19866943359372 L -94.24800109863281 -169.1970062255859 L -94.2959976196289 -169.19299316406247 L -94.34400177001953 -169.18800354003903 L -94.39099884033203 -169.18099975585935 L -94.43900299072266 -169.1730041503906 L -94.48600006103516 -169.1629943847656 L -94.53299713134766 -169.15100097656247 L -94.5790023803711 -169.13800048828122 L -94.625 -169.12399291992185 L -94.6709976196289 -169.10800170898435 L -94.71700286865234 -169.0899963378906 L -94.72000122070312 -169.08869934082028 L -94.76100158691406 -169.07099914550778 L -94.80599975585938 -169.05099487304685 L -94.8499984741211 -169.02799987792966 L -94.89299774169922 -169.00500488281247 L -94.93599700927734 -168.97999572753903 L -94.96710968017578 -168.96000671386716 L -94.97799682617188 -168.95300292968747 L -95.01899719238281 -168.92500305175778 L -95.05899810791016 -168.8950042724609 L -95.0989990234375 -168.86300659179685 L -95.13800048828125 -168.83099365234372 L -95.1760025024414 -168.7960052490234 L -95.21299743652344 -168.7599945068359 L -95.23200225830078 -168.74047851562497 L -95.2490005493164 -168.7230072021484 L -95.28299713134766 -168.68499755859372 L -95.31600189208984 -168.64599609374997 L -95.34700012207031 -168.60699462890622 L -95.37699890136719 -168.56599426269528 L -95.40499877929688 -168.52499389648435 L -95.43199920654297 -168.48300170898435 L -95.45234680175781 -168.44799804687497 L -95.45700073242188 -168.44000244140622 L -95.48100280761719 -168.3970031738281 L -95.50299835205078 -168.35299682617185 L -95.52300262451172 -168.30900573730466 L -95.54199981689453 -168.26400756835935 L -95.55999755859375 -168.2180023193359 L -95.57599639892578 -168.1730041503906 L -95.59100341796875 -168.1260070800781 L -95.60399627685547 -168.08000183105466 L -95.61499786376953 -168.03300476074216 L -95.625 -167.9859924316406 L -95.63300323486328 -167.93800354003903 L -95.63330078125 -167.93600463867185 L -95.63999938964844 -167.89100646972653 L -95.6449966430664 -167.8430023193359 L -95.64900207519531 -167.79499816894528 L -95.6520004272461 -167.74699401855466 L -95.6520004272461 -167.65100097656247 L -95.64900207519531 -167.60299682617185 L -95.6449966430664 -167.55499267578122 L -95.63999938964844 -167.50700378417966 L -95.63300323486328 -167.46000671386716 L -95.62699890136719 -167.42399597167966 L -95.625 -167.41200256347653 L -95.61499786376953 -167.36500549316403 L -95.60399627685547 -167.31799316406247 L -95.59100341796875 -167.27099609374997 L -95.57599639892578 -167.2250061035156 L -95.55999755859375 -167.17900085449216 L -95.54199981689453 -167.13400268554685 L -95.52300262451172 -167.08900451660153 L -95.50299835205078 -167.04499816894528 L -95.48100280761719 -167.0010070800781 L -95.45700073242188 -166.95700073242185 L -95.43199920654297 -166.91499328613278 L -95.43006896972656 -166.91200256347653 L -95.40499877929688 -166.87300109863278 L -95.37699890136719 -166.83200073242185 L -95.34700012207031 -166.7910003662109 L -95.31600189208984 -166.7510070800781 L -95.28299713134766 -166.71200561523435 L -95.2490005493164 -166.67399597167966 L -95.23200225830078 -166.6565246582031 L -95.21299743652344 -166.6369934082031 L -95.1760025024414 -166.60099792480466 L -95.13800048828125 -166.5670013427734 L -95.0989990234375 -166.53399658203122 L -95.05899810791016 -166.50300598144528 L -95.01899719238281 -166.4730072021484 L -94.97799682617188 -166.44500732421872 L -94.93599700927734 -166.4179992675781 L -94.89299774169922 -166.39300537109372 L -94.8499984741211 -166.3690032958984 L -94.80599975585938 -166.34700012207028 L -94.76100158691406 -166.32699584960935 M 68.5 -104.49999999999997 L 69.5 -103.49999999999997 L 71.5 -103.49999999999997 L 72.5 -104.49999999999997 L 73.5 -104.49999999999997 L 73.5 -101.49999999999997 L 69.5 -101.49999999999997 L 67.5 -101.49999999999997 L 67.5 -103.49999999999997 L 67.5 -104.49999999999997 L 68.5 -104.49999999999997 M 48.5 -104.49999999999997 L 49.5 -103.49999999999997 L 51.5 -103.49999999999997 L 52.5 -104.49999999999997 L 53.5 -104.49999999999997 L 53.5 -101.49999999999997 L 49.5 -101.49999999999997 L 47.5 -101.49999999999997 L 47.5 -103.49999999999997 L 47.5 -104.49999999999997 L 48.5 -104.49999999999997 M 26.17099952697754 -154.06599426269528 L 26.163999557495117 -154.01899719238278 L 26.159000396728516 -153.97099304199216 L 26.155000686645508 -153.9230041503906 L 26.152000427246094 -153.87499999999997 L 26.152000427246094 -153.77900695800778 L 26.155000686645508 -153.73100280761716 L 26.159000396728516 -153.68299865722653 L 26.163999557495117 -153.6349945068359 L 26.169212341308594 -153.6000061035156 L 26.17099952697754 -153.5879974365234 L 26.179000854492188 -153.53999328613278 L 26.18899917602539 -153.49299621582028 L 26.200000762939453 -153.44599914550778 L 26.21299934387207 -153.39900207519528 L 26.22800064086914 -153.35299682617185 L 26.243999481201172 -153.30700683593747 L 26.261999130249023 -153.2619934082031 L 26.2810001373291 -153.21699523925778 L 26.301000595092773 -153.1730041503906 L 26.322999954223633 -153.12899780273435 L 26.34536361694336 -153.0879974365234 L 26.347000122070312 -153.08500671386716 L 26.371999740600586 -153.0429992675781 L 26.39900016784668 -153.0010070800781 L 26.427000045776367 -152.96000671386716 L 26.457000732421875 -152.91900634765622 L 26.488000869750977 -152.87899780273435 L 26.520999908447266 -152.8399963378906 L 26.55500030517578 -152.80200195312497 L 26.590999603271484 -152.7649993896484 L 26.624000549316406 -152.7328948974609 L 26.628000259399414 -152.72900390624997 L 26.666000366210938 -152.69500732421872 L 26.704999923706055 -152.66200256347653 L 26.7450008392334 -152.63099670410153 L 26.78499984741211 -152.60099792480466 L 26.82160758972168 -152.57600402832028 L 26.826000213623047 -152.57299804687497 L 26.868000030517578 -152.5460052490234 L 26.910999298095703 -152.52099609374997 L 26.95400047302246 -152.49699401855466 L 26.988000869750977 -152.47999572753903 L 26.99799919128418 -152.4750061035156 L 27.042999267578125 -152.45500183105466 L 27.086999893188477 -152.43499755859372 L 27.132999420166016 -152.4179992675781 L 27.13599967956543 -152.41696166992185 L 27.179000854492188 -152.40199279785153 L 27.225000381469727 -152.3869934082031 L 27.270999908447266 -152.37399291992185 L 27.31800079345703 -152.36300659179685 L 27.364999771118164 -152.35299682617185 L 27.413000106811523 -152.3450012207031 L 27.459999084472656 -152.3379974365234 L 27.507999420166016 -152.33200073242185 L 27.604000091552734 -152.32600402832028 L 27.648000717163086 -152.32600402832028 L 27.700000762939453 -152.32600402832028 L 27.79599952697754 -152.33200073242185 L 27.8439998626709 -152.3379974365234 L 27.891000747680664 -152.3450012207031 L 27.93899917602539 -152.35299682617185 L 27.986000061035156 -152.36300659179685 L 28.033000946044922 -152.37399291992185 L 28.07900047302246 -152.3869934082031 L 28.125 -152.40199279785153 L 28.15999984741211 -152.4141693115234 L 28.17099952697754 -152.4179992675781 L 28.2110652923584 -152.43280029296872 L 28.216999053955078 -152.43499755859372 L 28.26099967956543 -152.45500183105466 L 28.305999755859375 -152.4750061035156 L 28.350000381469727 -152.49699401855466 L 28.39299964904785 -152.52099609374997 L 28.43600082397461 -152.5460052490234 L 28.47800064086914 -152.57299804687497 L 28.482393264770508 -152.57600402832028 L 28.518999099731445 -152.60099792480466 L 28.55900001525879 -152.63099670410153 L 28.599000930786133 -152.66200256347653 L 28.63800048828125 -152.69500732421872 L 28.672000885009766 -152.72541809082028 L 28.676000595092773 -152.72900390624997 L 28.71299934387207 -152.7649993896484 L 28.749000549316406 -152.80200195312497 L 28.783000946044922 -152.8399963378906 L 28.81599998474121 -152.87899780273435 L 28.847000122070312 -152.91900634765622 L 28.87700080871582 -152.96000671386716 L 28.905000686645508 -153.0010070800781 L 28.93199920654297 -153.0429992675781 L 28.957000732421875 -153.08500671386716 L 28.958637237548828 -153.0879974365234 L 28.981000900268555 -153.12899780273435 L 29.003000259399414 -153.1730041503906 L 29.023000717163086 -153.21699523925778 L 29.04199981689453 -153.2619934082031 L 29.059999465942383 -153.30700683593747 L 29.076000213623047 -153.35299682617185 L 29.090999603271484 -153.39900207519528 L 29.104000091552734 -153.44599914550778 L 29.114999771118164 -153.49299621582028 L 29.125 -153.53999328613278 L 29.132999420166016 -153.5879974365234 L 29.13478660583496 -153.6000061035156 L 29.139999389648438 -153.6349945068359 L 29.145000457763672 -153.68299865722653 L 29.14900016784668 -153.73100280761716 L 29.152000427246094 -153.77900695800778 L 29.152000427246094 -153.87499999999997 L 29.14900016784668 -153.9230041503906 L 29.145000457763672 -153.97099304199216 L 29.139999389648438 -154.01899719238278 L 29.132999420166016 -154.06599426269528 L 29.125333786010742 -154.11199951171872 L 29.125 -154.1139984130859 L 29.114999771118164 -154.1609954833984 L 29.104000091552734 -154.2079925537109 L 29.090999603271484 -154.25399780273435 L 29.076000213623047 -154.30099487304685 L 29.059999465942383 -154.34599304199216 L 29.04199981689453 -154.3919982910156 L 29.023000717163086 -154.4369964599609 L 29.003000259399414 -154.48100280761716 L 28.981000900268555 -154.52499389648435 L 28.957000732421875 -154.56799316406247 L 28.93199920654297 -154.6109924316406 L 28.923643112182617 -154.62399291992185 L 28.905000686645508 -154.65299987792966 L 28.87700080871582 -154.6940002441406 L 28.847000122070312 -154.73500061035153 L 28.81599998474121 -154.77400207519528 L 28.783000946044922 -154.81300354003903 L 28.749000549316406 -154.85099792480466 L 28.71299934387207 -154.88800048828122 L 28.676000595092773 -154.92399597167966 L 28.672000885009766 -154.92768859863278 L 28.63800048828125 -154.95899963378903 L 28.599000930786133 -154.9909973144531 L 28.55900001525879 -155.02299499511716 L 28.518999099731445 -155.05299377441403 L 28.47800064086914 -155.08099365234372 L 28.43600082397461 -155.10800170898435 L 28.39299964904785 -155.13299560546872 L 28.387392044067383 -155.13600158691403 L 28.350000381469727 -155.15600585937497 L 28.305999755859375 -155.17900085449216 L 28.26099967956543 -155.1990051269531 L 28.216999053955078 -155.2180023193359 L 28.17099952697754 -155.2359924316406 L 28.15999984741211 -155.23982238769528 L 28.125 -155.25199890136716 L 28.07900047302246 -155.26600646972653 L 28.033000946044922 -155.27900695800778 L 27.986000061035156 -155.2910003662109 L 27.93899917602539 -155.30099487304685 L 27.891000747680664 -155.30900573730466 L 27.8439998626709 -155.31599426269528 L 27.79599952697754 -155.32099914550778 L 27.74799919128418 -155.32499694824216 L 27.700000762939453 -155.32699584960935 L 27.652000427246094 -155.32800292968747 L 27.648000717163086 -155.3279113769531 L 27.604000091552734 -155.32699584960935 L 27.555999755859375 -155.32499694824216 L 27.507999420166016 -155.32099914550778 L 27.459999084472656 -155.31599426269528 L 27.413000106811523 -155.30900573730466 L 27.364999771118164 -155.30099487304685 L 27.31800079345703 -155.2910003662109 L 27.270999908447266 -155.27900695800778 L 27.225000381469727 -155.26600646972653 L 27.179000854492188 -155.25199890136716 L 27.13599967956543 -155.2370452880859 L 27.132999420166016 -155.2359924316406 L 27.086999893188477 -155.2180023193359 L 27.042999267578125 -155.1990051269531 L 26.99799919128418 -155.17900085449216 L 26.95400047302246 -155.15600585937497 L 26.916608810424805 -155.13600158691403 L 26.910999298095703 -155.13299560546872 L 26.868000030517578 -155.10800170898435 L 26.826000213623047 -155.08099365234372 L 26.78499984741211 -155.05299377441403 L 26.7450008392334 -155.02299499511716 L 26.704999923706055 -154.9909973144531 L 26.666000366210938 -154.95899963378903 L 26.628000259399414 -154.92399597167966 L 26.624000549316406 -154.92010498046872 L 26.590999603271484 -154.88800048828122 L 26.55500030517578 -154.85099792480466 L 26.520999908447266 -154.81300354003903 L 26.488000869750977 -154.77400207519528 L 26.457000732421875 -154.73500061035153 L 26.427000045776367 -154.6940002441406 L 26.39900016784668 -154.65299987792966 L 26.38035774230957 -154.62399291992185 L 26.371999740600586 -154.6109924316406 L 26.347000122070312 -154.56799316406247 L 26.322999954223633 -154.52499389648435 L 26.301000595092773 -154.48100280761716 L 26.2810001373291 -154.4369964599609 L 26.261999130249023 -154.3919982910156 L 26.243999481201172 -154.34599304199216 L 26.22800064086914 -154.30099487304685 L 26.21299934387207 -154.25399780273435 L 26.200000762939453 -154.2079925537109 L 26.18899917602539 -154.1609954833984 L 26.179000854492188 -154.1139984130859 L 26.178667068481445 -154.11199951171872 L 26.17099952697754 -154.06599426269528 M 24.547000885009766 -140.57000732421872 L 24.576000213623047 -140.54583740234372 L 24.589000701904297 -140.53500366210935 L 24.631000518798828 -140.5010070800781 L 24.673999786376953 -140.4700012207031 L 24.718000411987305 -140.44000244140622 L 24.76300048828125 -140.4109954833984 L 24.80900001525879 -140.38400268554685 L 24.850000381469727 -140.3617248535156 L 24.854999542236328 -140.3589935302734 L 24.902000427246094 -140.33500671386716 L 24.948999404907227 -140.31300354003903 L 24.996999740600586 -140.2929992675781 L 25.009632110595703 -140.2879943847656 L 25.045000076293945 -140.27400207519528 L 25.0939998626709 -140.25700378417966 L 25.143999099731445 -140.2409973144531 L 25.19300079345703 -140.22799682617185 L 25.243999481201172 -140.2149963378906 L 25.29400062561035 -140.20500183105466 L 25.344999313354492 -140.19599914550778 L 25.395000457763672 -140.1889953613281 L 25.445999145507812 -140.18299865722653 L 25.49799919128418 -140.17900085449216 L 25.548999786376953 -140.17599487304685 L 25.600000381469727 -140.17500305175778 L 25.650999069213867 -140.17599487304685 L 25.70199966430664 -140.17900085449216 L 25.753999710083008 -140.18299865722653 L 25.80500030517578 -140.1889953613281 L 25.854999542236328 -140.19599914550778 L 25.9060001373291 -140.20500183105466 L 25.95599937438965 -140.2149963378906 L 26.006999969482422 -140.22799682617185 L 26.055999755859375 -140.2409973144531 L 26.106000900268555 -140.25700378417966 L 26.155000686645508 -140.27400207519528 L 26.19036865234375 -140.2879943847656 L 26.202999114990234 -140.2929992675781 L 26.250999450683594 -140.31300354003903 L 26.29800033569336 -140.33500671386716 L 26.344999313354492 -140.3589935302734 L 26.391000747680664 -140.38400268554685 L 26.437000274658203 -140.4109954833984 L 26.48200035095215 -140.44000244140622 L 26.525999069213867 -140.4700012207031 L 26.569000244140625 -140.5010070800781 L 26.611000061035156 -140.53500366210935 L 26.624000549316406 -140.54583740234372 L 26.652999877929688 -140.57000732421872 L 26.694000244140625 -140.60699462890622 L 26.732999801635742 -140.6450042724609 L 26.770999908447266 -140.68400573730466 L 26.808000564575195 -140.7250061035156 L 26.843000411987305 -140.7669982910156 L 26.869714736938477 -140.80000305175778 L 26.87700080871582 -140.80900573730466 L 26.908000946044922 -140.85200500488278 L 26.937999725341797 -140.89599609374997 L 26.966999053955078 -140.94099426269528 L 26.993999481201172 -140.98699951171872 L 27.018999099731445 -141.03300476074216 L 27.042999267578125 -141.08000183105466 L 27.065000534057617 -141.12699890136716 L 27.084999084472656 -141.17500305175778 L 27.104000091552734 -141.2230072021484 L 27.121000289916992 -141.2720031738281 L 27.133800506591797 -141.3119964599609 L 27.136999130249023 -141.3220062255859 L 27.149999618530273 -141.3710021972656 L 27.163000106811523 -141.42199707031247 L 27.17300033569336 -141.47200012207028 L 27.18199920654297 -141.52299499511716 L 27.18899917602539 -141.57299804687497 L 27.19499969482422 -141.62399291992185 L 27.198999404907227 -141.67599487304685 L 27.20199966430664 -141.72700500488278 L 27.202999114990234 -141.77799987792966 L 27.202098846435547 -141.8240051269531 L 27.20199966430664 -141.82899475097653 L 27.198999404907227 -141.88000488281247 L 27.19499969482422 -141.93200683593747 L 27.18899917602539 -141.98300170898435 L 27.18199920654297 -142.03300476074216 L 27.17300033569336 -142.08399963378903 L 27.163000106811523 -142.13400268554685 L 27.149999618530273 -142.18499755859372 L 27.136999130249023 -142.2339935302734 L 27.121000289916992 -142.28399658203122 L 27.104000091552734 -142.3329925537109 L 27.102811813354492 -142.33599853515622 L 27.084999084472656 -142.38099670410153 L 27.065000534057617 -142.42900085449216 L 27.042999267578125 -142.47599792480466 L 27.018999099731445 -142.52299499511716 L 26.993999481201172 -142.5690002441406 L 26.966999053955078 -142.61500549316403 L 26.937999725341797 -142.66000366210935 L 26.908000946044922 -142.70399475097653 L 26.87700080871582 -142.74699401855466 L 26.843000411987305 -142.78900146484372 L 26.808000564575195 -142.83099365234372 L 26.79265785217285 -142.8480072021484 L 26.770999908447266 -142.87199401855466 L 26.732999801635742 -142.9109954833984 L 26.694000244140625 -142.9490051269531 L 26.652999877929688 -142.9859924316406 L 26.624000549316406 -143.0101623535156 L 26.611000061035156 -143.02099609374997 L 26.569000244140625 -143.05499267578122 L 26.525999069213867 -143.08599853515622 L 26.48200035095215 -143.1159973144531 L 26.437000274658203 -143.1450042724609 L 26.391000747680664 -143.17199707031247 L 26.344999313354492 -143.1970062255859 L 26.29800033569336 -143.22099304199216 L 26.250999450683594 -143.24299621582028 L 26.202999114990234 -143.26300048828122 L 26.155000686645508 -143.28199768066403 L 26.11199951171875 -143.29692077636716 L 26.106000900268555 -143.29899597167966 L 26.055999755859375 -143.31500244140622 L 26.006999969482422 -143.32800292968747 L 25.95599937438965 -143.34100341796872 L 25.9060001373291 -143.35099792480466 L 25.854999542236328 -143.36000061035153 L 25.80500030517578 -143.36700439453122 L 25.753999710083008 -143.37300109863278 L 25.70199966430664 -143.37699890136716 L 25.650999069213867 -143.38000488281247 L 25.600000381469727 -143.38099670410153 L 25.548999786376953 -143.38000488281247 L 25.49799919128418 -143.37699890136716 L 25.445999145507812 -143.37300109863278 L 25.395000457763672 -143.36700439453122 L 25.344999313354492 -143.36000061035153 L 25.29400062561035 -143.35099792480466 L 25.243999481201172 -143.34100341796872 L 25.19300079345703 -143.32800292968747 L 25.143999099731445 -143.31500244140622 L 25.0939998626709 -143.29899597167966 L 25.08799934387207 -143.29692077636716 L 25.045000076293945 -143.28199768066403 L 24.996999740600586 -143.26300048828122 L 24.948999404907227 -143.24299621582028 L 24.902000427246094 -143.22099304199216 L 24.854999542236328 -143.1970062255859 L 24.850000381469727 -143.19429016113278 L 24.80900001525879 -143.17199707031247 L 24.76300048828125 -143.1450042724609 L 24.718000411987305 -143.1159973144531 L 24.673999786376953 -143.08599853515622 L 24.631000518798828 -143.05499267578122 L 24.589000701904297 -143.02099609374997 L 24.576000213623047 -143.0101623535156 L 24.547000885009766 -142.9859924316406 L 24.506000518798828 -142.9490051269531 L 24.466999053955078 -142.9109954833984 L 24.429000854492188 -142.87199401855466 L 24.40734100341797 -142.8480072021484 L 24.392000198364258 -142.83099365234372 L 24.35700035095215 -142.78900146484372 L 24.322999954223633 -142.74699401855466 L 24.29199981689453 -142.70399475097653 L 24.261999130249023 -142.66000366210935 L 24.232999801635742 -142.61500549316403 L 24.20599937438965 -142.5690002441406 L 24.180999755859375 -142.52299499511716 L 24.156999588012695 -142.47599792480466 L 24.135000228881836 -142.42900085449216 L 24.114999771118164 -142.38099670410153 L 24.097187042236328 -142.33599853515622 L 24.09600067138672 -142.3329925537109 L 24.07900047302246 -142.28399658203122 L 24.062999725341797 -142.2339935302734 L 24.049999237060547 -142.18499755859372 L 24.03700065612793 -142.13400268554685 L 24.027000427246094 -142.08399963378903 L 24.01799964904785 -142.03300476074216 L 24.01099967956543 -141.98300170898435 L 24.0049991607666 -141.93200683593747 L 24.000999450683594 -141.88000488281247 L 23.99799919128418 -141.82899475097653 L 23.997901916503906 -141.8240051269531 L 23.996999740600586 -141.77799987792966 L 23.99799919128418 -141.72700500488278 L 24.000999450683594 -141.67599487304685 L 24.0049991607666 -141.62399291992185 L 24.01099967956543 -141.57299804687497 L 24.01799964904785 -141.52299499511716 L 24.027000427246094 -141.47200012207028 L 24.03700065612793 -141.42199707031247 L 24.049999237060547 -141.3710021972656 L 24.062999725341797 -141.3220062255859 L 24.066200256347656 -141.3119964599609 L 24.07900047302246 -141.2720031738281 L 24.09600067138672 -141.2230072021484 L 24.114999771118164 -141.17500305175778 L 24.135000228881836 -141.12699890136716 L 24.156999588012695 -141.08000183105466 L 24.180999755859375 -141.03300476074216 L 24.20599937438965 -140.98699951171872 L 24.232999801635742 -140.94099426269528 L 24.261999130249023 -140.89599609374997 L 24.29199981689453 -140.85200500488278 L 24.322999954223633 -140.80900573730466 L 24.330286026000977 -140.80000305175778 L 24.35700035095215 -140.7669982910156 L 24.392000198364258 -140.7250061035156 L 24.429000854492188 -140.68400573730466 L 24.466999053955078 -140.6450042724609 L 24.506000518798828 -140.60699462890622 L 24.547000885009766 -140.57000732421872 M 20.85300064086914 -146.43099975585935 L 13 -146.43099975585935 L 9.847000122070312 -146.43099975585935 L 9.847000122070312 -140.42500305175778 L 13 -140.42500305175778 L 20.85300064086914 -140.42500305175778 L 20.85300064086914 -146.43099975585935 M 2.0250000953674316 -152.72999572753903 L 2.0480000972747803 -152.70881652832028 L 2.062999963760376 -152.69500732421872 L 2.1019999980926514 -152.66200256347653 L 2.1410000324249268 -152.63099670410153 L 2.181999921798706 -152.60099792480466 L 2.218607187271118 -152.57600402832028 L 2.2230000495910645 -152.57299804687497 L 2.265000104904175 -152.5460052490234 L 2.308000087738037 -152.52099609374997 L 2.3510000705718994 -152.49699401855466 L 2.3949999809265137 -152.4750061035156 L 2.440000057220459 -152.45500183105466 L 2.484999895095825 -152.43600463867185 L 2.5299999713897705 -152.4179992675781 L 2.559999942779541 -152.40756225585935 L 2.5759999752044678 -152.40199279785153 L 2.621999979019165 -152.3869934082031 L 2.6689999103546143 -152.37399291992185 L 2.7160000801086426 -152.36300659179685 L 2.763000011444092 -152.35299682617185 L 2.809999942779541 -152.3450012207031 L 2.8580000400543213 -152.3379974365234 L 2.9059998989105225 -152.33200073242185 L 3.002000093460083 -152.32600402832028 L 3.072000026702881 -152.32600402832028 L 3.0980000495910645 -152.32600402832028 L 3.194000005722046 -152.33200073242185 L 3.242000102996826 -152.3379974365234 L 3.2890000343322754 -152.3450012207031 L 3.3369998931884766 -152.35299682617185 L 3.384000062942505 -152.36300659179685 L 3.430999994277954 -152.37399291992185 L 3.4779999256134033 -152.3869934082031 L 3.5239999294281006 -152.40199279785153 L 3.569999933242798 -152.4179992675781 L 3.5840001106262207 -152.42359924316403 L 3.615000009536743 -152.43600463867185 L 3.6600000858306885 -152.45500183105466 L 3.7049999237060547 -152.4750061035156 L 3.749000072479248 -152.49699401855466 L 3.7920000553131104 -152.52099609374997 L 3.8350000381469727 -152.5460052490234 L 3.877000093460083 -152.57299804687497 L 3.8813929557800293 -152.57600402832028 L 3.9179999828338623 -152.60099792480466 L 3.9590001106262207 -152.63099670410153 L 3.997999906539917 -152.66200256347653 L 4.0370001792907715 -152.69500732421872 L 4.074999809265137 -152.72999572753903 L 4.0960001945495605 -152.75042724609372 L 4.111999988555908 -152.76600646972653 L 4.1479997634887695 -152.80299377441403 L 4.183000087738037 -152.84100341796872 L 4.216000080108643 -152.88000488281247 L 4.247000217437744 -152.91900634765622 L 4.2769999504089355 -152.96000671386716 L 4.304999828338623 -153.0010070800781 L 4.331999778747559 -153.0429992675781 L 4.35699987411499 -153.08599853515622 L 4.358116149902344 -153.0879974365234 L 4.38100004196167 -153.12899780273435 L 4.4029998779296875 -153.1730041503906 L 4.422999858856201 -153.2180023193359 L 4.441999912261963 -153.26300048828122 L 4.460000038146973 -153.30799865722653 L 4.47599983215332 -153.35400390624997 L 4.491000175476074 -153.39999389648435 L 4.504000186920166 -153.4470062255859 L 4.514999866485596 -153.4940032958984 L 4.525000095367432 -153.5410003662109 L 4.5329999923706055 -153.58900451660153 L 4.534638404846191 -153.6000061035156 L 4.539999961853027 -153.63600158691403 L 4.546000003814697 -153.68400573730466 L 4.552000045776367 -153.77999877929685 L 4.552000045776367 -153.8760070800781 L 4.546000003814697 -153.97200012207028 L 4.539999961853027 -154.0200042724609 L 4.5329999923706055 -154.06799316406247 L 4.525510787963867 -154.11199951171872 L 4.525000095367432 -154.11500549316403 L 4.514999866485596 -154.16200256347653 L 4.504000186920166 -154.20899963378903 L 4.491000175476074 -154.25599670410153 L 4.47599983215332 -154.30200195312497 L 4.460000038146973 -154.3480072021484 L 4.441999912261963 -154.39300537109372 L 4.422999858856201 -154.43800354003903 L 4.4029998779296875 -154.48300170898435 L 4.38100004196167 -154.52699279785153 L 4.35699987411499 -154.57000732421872 L 4.331999778747559 -154.61300659179685 L 4.3249287605285645 -154.62399291992185 L 4.304999828338623 -154.65499877929685 L 4.2769999504089355 -154.69599914550778 L 4.247000217437744 -154.73699951171872 L 4.216000080108643 -154.77600097656247 L 4.183000087738037 -154.81500244140622 L 4.1479997634887695 -154.85299682617185 L 4.111999988555908 -154.89100646972653 L 4.0960001945495605 -154.90612792968747 L 4.074999809265137 -154.92599487304685 L 4.0370001792907715 -154.96099853515622 L 3.997999906539917 -154.9940032958984 L 3.9590001106262207 -155.02499389648435 L 3.9179999828338623 -155.05499267578122 L 3.877000093460083 -155.0829925537109 L 3.8350000381469727 -155.11000061035153 L 3.7920000553131104 -155.1349945068359 L 3.749000072479248 -155.15899658203122 L 3.7049999237060547 -155.18099975585935 L 3.615000009536743 -155.22099304199216 L 3.5840001106262207 -155.23271179199216 L 3.569999933242798 -155.23800659179685 L 3.5239999294281006 -155.25399780273435 L 3.4779999256134033 -155.26899719238278 L 3.430999994277954 -155.28199768066403 L 3.384000062942505 -155.2929992675781 L 3.3369998931884766 -155.30299377441403 L 3.2890000343322754 -155.3119964599609 L 3.242000102996826 -155.31799316406247 L 3.194000005722046 -155.3240051269531 L 3.1459999084472656 -155.32800292968747 L 3.0980000495910645 -155.33000183105466 L 3.072000026702881 -155.33053588867185 L 3.049999952316284 -155.33099365234372 L 3.002000093460083 -155.33000183105466 L 2.9539999961853027 -155.32800292968747 L 2.9059998989105225 -155.3240051269531 L 2.809999942779541 -155.3119964599609 L 2.763000011444092 -155.30299377441403 L 2.7160000801086426 -155.2929992675781 L 2.6689999103546143 -155.28199768066403 L 2.621999979019165 -155.26899719238278 L 2.5759999752044678 -155.25399780273435 L 2.559999942779541 -155.24842834472653 L 2.5299999713897705 -155.23800659179685 L 2.484999895095825 -155.22099304199216 L 2.3949999809265137 -155.18099975585935 L 2.3510000705718994 -155.15899658203122 L 2.308000087738037 -155.1349945068359 L 2.265000104904175 -155.11000061035153 L 2.2230000495910645 -155.0829925537109 L 2.181999921798706 -155.05499267578122 L 2.1410000324249268 -155.02499389648435 L 2.1019999980926514 -154.9940032958984 L 2.062999963760376 -154.96099853515622 L 2.0480000972747803 -154.94718933105466 L 1.9869999885559082 -154.89100646972653 L 1.9170000553131104 -154.81500244140622 L 1.8839999437332153 -154.77600097656247 L 1.8530000448226929 -154.73699951171872 L 1.8229999542236328 -154.69599914550778 L 1.7949999570846558 -154.65499877929685 L 1.775071382522583 -154.62399291992185 L 1.7680000066757202 -154.61300659179685 L 1.7430000305175781 -154.57000732421872 L 1.718999981880188 -154.52699279785153 L 1.6970000267028809 -154.48300170898435 L 1.656999945640564 -154.39300537109372 L 1.6399999856948853 -154.3480072021484 L 1.6239999532699585 -154.30200195312497 L 1.6089999675750732 -154.25599670410153 L 1.5959999561309814 -154.20899963378903 L 1.5850000381469727 -154.16200256347653 L 1.5750000476837158 -154.11500549316403 L 1.5744893550872803 -154.11199951171872 L 1.5670000314712524 -154.06799316406247 L 1.559999942779541 -154.0200042724609 L 1.5540000200271606 -153.97200012207028 L 1.5499999523162842 -153.92399597167966 L 1.5479999780654907 -153.8760070800781 L 1.5470000505447388 -153.82800292968747 L 1.5479999780654907 -153.77999877929685 L 1.5499999523162842 -153.73199462890622 L 1.5540000200271606 -153.68400573730466 L 1.559999942779541 -153.63600158691403 L 1.565361738204956 -153.6000061035156 L 1.5670000314712524 -153.58900451660153 L 1.5750000476837158 -153.5410003662109 L 1.5850000381469727 -153.4940032958984 L 1.5959999561309814 -153.4470062255859 L 1.6089999675750732 -153.39999389648435 L 1.6239999532699585 -153.35400390624997 L 1.6399999856948853 -153.30799865722653 L 1.656999945640564 -153.26300048828122 L 1.6970000267028809 -153.1730041503906 L 1.718999981880188 -153.12899780273435 L 1.7418837547302246 -153.0879974365234 L 1.7430000305175781 -153.08599853515622 L 1.7680000066757202 -153.0429992675781 L 1.7949999570846558 -153.0010070800781 L 1.8229999542236328 -152.96000671386716 L 1.8530000448226929 -152.91900634765622 L 1.8839999437332153 -152.88000488281247 L 1.9170000553131104 -152.84100341796872 L 1.9520000219345093 -152.80299377441403 L 1.9869999885559082 -152.76600646972653 L 2.0250000953674316 -152.72999572753903 M 3.4979019165039062 -141.8240051269531 L 3.496999979019165 -141.77799987792966 L 3.497999906539917 -141.72700500488278 L 3.500999927520752 -141.67599487304685 L 3.505000114440918 -141.62399291992185 L 3.510999917984009 -141.57299804687497 L 3.5179998874664307 -141.52299499511716 L 3.5269999504089355 -141.47200012207028 L 3.5369999408721924 -141.42199707031247 L 3.549999952316284 -141.3710021972656 L 3.562999963760376 -141.3220062255859 L 3.566200017929077 -141.3119964599609 L 3.5789999961853027 -141.2720031738281 L 3.5959999561309814 -141.2230072021484 L 3.615000009536743 -141.17500305175778 L 3.634999990463257 -141.12699890136716 L 3.6570000648498535 -141.08000183105466 L 3.680999994277954 -141.03300476074216 L 3.7060000896453857 -140.98699951171872 L 3.7330000400543213 -140.94099426269528 L 3.76200008392334 -140.89599609374997 L 3.7920000553131104 -140.85200500488278 L 3.822999954223633 -140.80900573730466 L 3.8302857875823975 -140.80000305175778 L 3.8570001125335693 -140.7669982910156 L 3.8919999599456787 -140.7250061035156 L 3.928999900817871 -140.68400573730466 L 3.9670000076293945 -140.6450042724609 L 4.00600004196167 -140.60699462890622 L 4.046999931335449 -140.57000732421872 L 4.089000225067139 -140.53500366210935 L 4.0960001945495605 -140.5293273925781 L 4.13100004196167 -140.5010070800781 L 4.173999786376953 -140.4700012207031 L 4.2179999351501465 -140.44000244140622 L 4.241275787353516 -140.42500305175778 L 4.263000011444092 -140.4109954833984 L 4.309000015258789 -140.38400268554685 L 4.355000019073486 -140.3589935302734 L 4.4019999504089355 -140.33500671386716 L 4.448999881744385 -140.31300354003903 L 4.497000217437744 -140.2929992675781 L 4.509631633758545 -140.2879943847656 L 4.545000076293945 -140.27400207519528 L 4.593999862670898 -140.25700378417966 L 4.644000053405762 -140.2409973144531 L 4.692999839782715 -140.22799682617185 L 4.74399995803833 -140.2149963378906 L 4.794000148773193 -140.20500183105466 L 4.84499979019165 -140.19599914550778 L 4.894999980926514 -140.1889953613281 L 4.946000099182129 -140.18299865722653 L 4.998000144958496 -140.17900085449216 L 5.048999786376953 -140.17599487304685 L 5.099999904632568 -140.17500305175778 L 5.119999885559082 -140.1753997802734 L 5.151000022888184 -140.17599487304685 L 5.202000141143799 -140.17900085449216 L 5.254000186920166 -140.18299865722653 L 5.304999828338623 -140.1889953613281 L 5.355000019073486 -140.19599914550778 L 5.406000137329102 -140.20500183105466 L 5.455999851226807 -140.2149963378906 L 5.506999969482422 -140.22799682617185 L 5.556000232696533 -140.2409973144531 L 5.605999946594238 -140.25700378417966 L 5.65500020980835 -140.27400207519528 L 5.69036865234375 -140.2879943847656 L 5.703000068664551 -140.2929992675781 L 5.750999927520752 -140.31300354003903 L 5.797999858856201 -140.33500671386716 L 5.84499979019165 -140.3589935302734 L 5.890999794006348 -140.38400268554685 L 5.936999797821045 -140.4109954833984 L 5.958724021911621 -140.42500305175778 L 5.98199987411499 -140.44000244140622 L 6.026000022888184 -140.4700012207031 L 6.068999767303467 -140.5010070800781 L 6.111000061035156 -140.53500366210935 L 6.144000053405762 -140.56249999999997 L 6.1529998779296875 -140.57000732421872 L 6.193999767303467 -140.60699462890622 L 6.232999801635742 -140.6450042724609 L 6.270999908447266 -140.68400573730466 L 6.308000087738037 -140.7250061035156 L 6.3429999351501465 -140.7669982910156 L 6.369714260101318 -140.80000305175778 L 6.376999855041504 -140.80900573730466 L 6.4079999923706055 -140.85200500488278 L 6.438000202178955 -140.89599609374997 L 6.4670000076293945 -140.94099426269528 L 6.49399995803833 -140.98699951171872 L 6.519000053405762 -141.03300476074216 L 6.543000221252441 -141.08000183105466 L 6.565000057220459 -141.12699890136716 L 6.585000038146973 -141.17500305175778 L 6.604000091552734 -141.2230072021484 L 6.620999813079834 -141.2720031738281 L 6.633800029754639 -141.3119964599609 L 6.63700008392334 -141.3220062255859 L 6.650000095367432 -141.3710021972656 L 6.663000106811523 -141.42199707031247 L 6.672999858856201 -141.47200012207028 L 6.682000160217285 -141.52299499511716 L 6.689000129699707 -141.57299804687497 L 6.695000171661377 -141.62399291992185 L 6.698999881744385 -141.67599487304685 L 6.702000141143799 -141.72700500488278 L 6.703000068664551 -141.77799987792966 L 6.7020978927612305 -141.8240051269531 L 6.702000141143799 -141.82899475097653 L 6.698999881744385 -141.88000488281247 L 6.695000171661377 -141.93200683593747 L 6.689000129699707 -141.98300170898435 L 6.682000160217285 -142.03300476074216 L 6.672999858856201 -142.08399963378903 L 6.663000106811523 -142.13400268554685 L 6.650000095367432 -142.18499755859372 L 6.63700008392334 -142.2339935302734 L 6.620999813079834 -142.28399658203122 L 6.604000091552734 -142.3329925537109 L 6.60281229019165 -142.33599853515622 L 6.585000038146973 -142.38099670410153 L 6.565000057220459 -142.42900085449216 L 6.543000221252441 -142.47599792480466 L 6.519000053405762 -142.52299499511716 L 6.49399995803833 -142.5690002441406 L 6.4670000076293945 -142.61500549316403 L 6.438000202178955 -142.66000366210935 L 6.4079999923706055 -142.70399475097653 L 6.376999855041504 -142.74699401855466 L 6.3429999351501465 -142.78900146484372 L 6.308000087738037 -142.83099365234372 L 6.29265832901001 -142.8480072021484 L 6.270999908447266 -142.87199401855466 L 6.232999801635742 -142.9109954833984 L 6.193999767303467 -142.9490051269531 L 6.1529998779296875 -142.9859924316406 L 6.144000053405762 -142.99349975585935 L 6.111000061035156 -143.02099609374997 L 6.068999767303467 -143.05499267578122 L 6.026000022888184 -143.08599853515622 L 5.98199987411499 -143.1159973144531 L 5.936999797821045 -143.1450042724609 L 5.890999794006348 -143.17199707031247 L 5.84499979019165 -143.1970062255859 L 5.797999858856201 -143.22099304199216 L 5.750999927520752 -143.24299621582028 L 5.703000068664551 -143.26300048828122 L 5.65500020980835 -143.28199768066403 L 5.631999969482422 -143.28997802734372 L 5.605999946594238 -143.29899597167966 L 5.556000232696533 -143.31500244140622 L 5.506999969482422 -143.32800292968747 L 5.455999851226807 -143.34100341796872 L 5.406000137329102 -143.35099792480466 L 5.355000019073486 -143.36000061035153 L 5.304999828338623 -143.36700439453122 L 5.254000186920166 -143.37300109863278 L 5.202000141143799 -143.37699890136716 L 5.151000022888184 -143.38000488281247 L 5.099999904632568 -143.38099670410153 L 5.048999786376953 -143.38000488281247 L 4.998000144958496 -143.37699890136716 L 4.946000099182129 -143.37300109863278 L 4.894999980926514 -143.36700439453122 L 4.84499979019165 -143.36000061035153 L 4.794000148773193 -143.35099792480466 L 4.74399995803833 -143.34100341796872 L 4.692999839782715 -143.32800292968747 L 4.644000053405762 -143.31500244140622 L 4.607999801635742 -143.30348205566403 L 4.593999862670898 -143.29899597167966 L 4.545000076293945 -143.28199768066403 L 4.497000217437744 -143.26300048828122 L 4.448999881744385 -143.24299621582028 L 4.4019999504089355 -143.22099304199216 L 4.355000019073486 -143.1970062255859 L 4.309000015258789 -143.17199707031247 L 4.263000011444092 -143.1450042724609 L 4.2179999351501465 -143.1159973144531 L 4.173999786376953 -143.08599853515622 L 4.13100004196167 -143.05499267578122 L 4.0960001945495605 -143.02667236328122 L 4.089000225067139 -143.02099609374997 L 4.046999931335449 -142.9859924316406 L 4.00600004196167 -142.9490051269531 L 3.9670000076293945 -142.9109954833984 L 3.928999900817871 -142.87199401855466 L 3.907341480255127 -142.8480072021484 L 3.8919999599456787 -142.83099365234372 L 3.8570001125335693 -142.78900146484372 L 3.822999954223633 -142.74699401855466 L 3.7920000553131104 -142.70399475097653 L 3.76200008392334 -142.66000366210935 L 3.7330000400543213 -142.61500549316403 L 3.7060000896453857 -142.5690002441406 L 3.680999994277954 -142.52299499511716 L 3.6570000648498535 -142.47599792480466 L 3.634999990463257 -142.42900085449216 L 3.615000009536743 -142.38099670410153 L 3.5971875190734863 -142.33599853515622 L 3.5959999561309814 -142.3329925537109 L 3.5789999961853027 -142.28399658203122 L 3.562999963760376 -142.2339935302734 L 3.549999952316284 -142.18499755859372 L 3.5369999408721924 -142.13400268554685 L 3.5269999504089355 -142.08399963378903 L 3.5179998874664307 -142.03300476074216 L 3.510999917984009 -141.98300170898435 L 3.505000114440918 -141.93200683593747 L 3.500999927520752 -141.88000488281247 L 3.497999906539917 -141.82899475097653 L 3.4979019165039062 -141.8240051269531 M -6.456999778747559 -166.32699584960935 L -6.413000106811523 -166.30700683593747 L -6.367000102996826 -166.28999328613278 L -6.321000099182129 -166.27400207519528 L -6.275000095367432 -166.25900268554685 L -6.229000091552734 -166.2460021972656 L -6.182000160217285 -166.23500061035153 L -6.144000053405762 -166.2269134521484 L -6.135000228881836 -166.2250061035156 L -6.086999893188477 -166.21699523925778 L -6.039999961853027 -166.21000671386716 L -5.992000102996826 -166.20399475097653 L -5.895999908447266 -166.19799804687497 L -5.800000190734863 -166.19799804687497 L -5.703999996185303 -166.20399475097653 L -5.656000137329102 -166.21000671386716 L -5.631999969482422 -166.21357727050778 L -5.609000205993652 -166.21699523925778 L -5.560999870300293 -166.2250061035156 L -5.513999938964844 -166.23500061035153 L -5.4670000076293945 -166.2460021972656 L -5.421000003814697 -166.25900268554685 L -5.375 -166.27400207519528 L -5.328999996185303 -166.28999328613278 L -5.288935661315918 -166.30480957031247 L -5.2829999923706055 -166.30700683593747 L -5.238999843597412 -166.32699584960935 L -5.193999767303467 -166.34700012207028 L -5.150000095367432 -166.3690032958984 L -5.119999885559082 -166.38574218749997 L -5.10699987411499 -166.39300537109372 L -5.0949602127075195 -166.39999389648435 L -5.064000129699707 -166.4179992675781 L -5.021999835968018 -166.44500732421872 L -4.980999946594238 -166.4730072021484 L -4.940999984741211 -166.50300598144528 L -4.901000022888184 -166.53399658203122 L -4.861999988555908 -166.5670013427734 L -4.823999881744385 -166.60099792480466 L -4.7870001792907715 -166.6369934082031 L -4.750999927520752 -166.67399597167966 L -4.7170000076293945 -166.71200561523435 L -4.684000015258789 -166.7510070800781 L -4.6529998779296875 -166.7910003662109 L -4.623000144958496 -166.83200073242185 L -4.607999801635742 -166.85395812988278 L -4.59499979019165 -166.87300109863278 L -4.5699286460876465 -166.91200256347653 L -4.567999839782715 -166.91499328613278 L -4.543000221252441 -166.95700073242185 L -4.519000053405762 -167.0010070800781 L -4.497000217437744 -167.04499816894528 L -4.4770002365112305 -167.08900451660153 L -4.458000183105469 -167.13400268554685 L -4.440000057220459 -167.17900085449216 L -4.423999786376953 -167.2250061035156 L -4.408999919891357 -167.27099609374997 L -4.395999908447266 -167.31799316406247 L -4.385000228881836 -167.36500549316403 L -4.375 -167.41200256347653 L -4.373000144958496 -167.42399597167966 L -4.367000102996826 -167.46000671386716 L -4.360000133514404 -167.50700378417966 L -4.355000019073486 -167.55499267578122 L -4.35099983215332 -167.60299682617185 L -4.3480000495910645 -167.65100097656247 L -4.3480000495910645 -167.74699401855466 L -4.35099983215332 -167.79499816894528 L -4.355000019073486 -167.8430023193359 L -4.360000133514404 -167.89100646972653 L -4.366702079772949 -167.93600463867185 L -4.367000102996826 -167.93800354003903 L -4.375 -167.9859924316406 L -4.385000228881836 -168.03300476074216 L -4.395999908447266 -168.08000183105466 L -4.408999919891357 -168.1260070800781 L -4.423999786376953 -168.1730041503906 L -4.440000057220459 -168.2180023193359 L -4.458000183105469 -168.26400756835935 L -4.4770002365112305 -168.30900573730466 L -4.497000217437744 -168.35299682617185 L -4.519000053405762 -168.3970031738281 L -4.543000221252441 -168.44000244140622 L -4.547651290893555 -168.44799804687497 L -4.567999839782715 -168.48300170898435 L -4.59499979019165 -168.52499389648435 L -4.607999801635742 -168.54403686523435 L -4.623000144958496 -168.56599426269528 L -4.6529998779296875 -168.60699462890622 L -4.684000015258789 -168.64599609374997 L -4.7170000076293945 -168.68499755859372 L -4.750999927520752 -168.7230072021484 L -4.7870001792907715 -168.7599945068359 L -4.823999881744385 -168.7960052490234 L -4.861999988555908 -168.83099365234372 L -4.901000022888184 -168.86300659179685 L -4.940999984741211 -168.8950042724609 L -4.980999946594238 -168.92500305175778 L -5.021999835968018 -168.95300292968747 L -5.032888889312744 -168.96000671386716 L -5.064000129699707 -168.97999572753903 L -5.10699987411499 -169.00500488281247 L -5.119999885559082 -169.0119476318359 L -5.150000095367432 -169.02799987792966 L -5.193999767303467 -169.05099487304685 L -5.238999843597412 -169.07099914550778 L -5.2829999923706055 -169.0899963378906 L -5.328999996185303 -169.10800170898435 L -5.375 -169.12399291992185 L -5.421000003814697 -169.13800048828122 L -5.4670000076293945 -169.15100097656247 L -5.513999938964844 -169.1629943847656 L -5.560999870300293 -169.1730041503906 L -5.609000205993652 -169.18099975585935 L -5.631999969482422 -169.1844329833984 L -5.656000137329102 -169.18800354003903 L -5.703999996185303 -169.19299316406247 L -5.751999855041504 -169.1970062255859 L -5.800000190734863 -169.1990051269531 L -5.8480000495910645 -169.19999694824216 L -5.895999908447266 -169.1990051269531 L -5.943999767303467 -169.1970062255859 L -5.992000102996826 -169.19299316406247 L -6.039999961853027 -169.18800354003903 L -6.086999893188477 -169.18099975585935 L -6.135000228881836 -169.1730041503906 L -6.144000053405762 -169.17108154296872 L -6.182000160217285 -169.1629943847656 L -6.229000091552734 -169.15100097656247 L -6.275000095367432 -169.13800048828122 L -6.321000099182129 -169.12399291992185 L -6.367000102996826 -169.10800170898435 L -6.413000106811523 -169.0899963378906 L -6.456999778747559 -169.07099914550778 L -6.501999855041504 -169.05099487304685 L -6.546000003814697 -169.02799987792966 L -6.589000225067139 -169.00500488281247 L -6.631999969482422 -168.97999572753903 L -6.663111209869385 -168.96000671386716 L -6.673999786376953 -168.95300292968747 L -6.715000152587891 -168.92500305175778 L -6.755000114440918 -168.8950042724609 L -6.795000076293945 -168.86300659179685 L -6.834000110626221 -168.83099365234372 L -6.872000217437744 -168.7960052490234 L -6.908999919891357 -168.7599945068359 L -6.945000171661377 -168.7230072021484 L -6.961999893188477 -168.70399475097653 L -6.979000091552734 -168.68499755859372 L -7.01200008392334 -168.64599609374997 L -7.043000221252441 -168.60699462890622 L -7.072999954223633 -168.56599426269528 L -7.10099983215332 -168.52499389648435 L -7.127999782562256 -168.48300170898435 L -7.148348808288574 -168.44799804687497 L -7.1529998779296875 -168.44000244140622 L -7.168000221252441 -168.41313171386716 L -7.177000045776367 -168.3970031738281 L -7.198999881744385 -168.35299682617185 L -7.218999862670898 -168.30900573730466 L -7.23799991607666 -168.26400756835935 L -7.25600004196167 -168.2180023193359 L -7.271999835968018 -168.1730041503906 L -7.2870001792907715 -168.1260070800781 L -7.300000190734863 -168.08000183105466 L -7.310999870300293 -168.03300476074216 L -7.321000099182129 -167.9859924316406 L -7.328999996185303 -167.93800354003903 L -7.32929801940918 -167.93600463867185 L -7.335999965667725 -167.89100646972653 L -7.341000080108643 -167.8430023193359 L -7.34499979019165 -167.79499816894528 L -7.3480000495910645 -167.74699401855466 L -7.3480000495910645 -167.65100097656247 L -7.34499979019165 -167.60299682617185 L -7.341000080108643 -167.55499267578122 L -7.335999965667725 -167.50700378417966 L -7.328999996185303 -167.46000671386716 L -7.322999954223633 -167.42399597167966 L -7.321000099182129 -167.41200256347653 L -7.310999870300293 -167.36500549316403 L -7.300000190734863 -167.31799316406247 L -7.2870001792907715 -167.27099609374997 L -7.271999835968018 -167.2250061035156 L -7.25600004196167 -167.17900085449216 L -7.23799991607666 -167.13400268554685 L -7.218999862670898 -167.08900451660153 L -7.198999881744385 -167.04499816894528 L -7.177000045776367 -167.0010070800781 L -7.168000221252441 -166.98449707031247 L -7.1529998779296875 -166.95700073242185 L -7.127999782562256 -166.91499328613278 L -7.126071453094482 -166.91200256347653 L -7.10099983215332 -166.87300109863278 L -7.072999954223633 -166.83200073242185 L -7.043000221252441 -166.7910003662109 L -7.01200008392334 -166.7510070800781 L -6.979000091552734 -166.71200561523435 L -6.945000171661377 -166.67399597167966 L -6.908999919891357 -166.6369934082031 L -6.872000217437744 -166.60099792480466 L -6.834000110626221 -166.5670013427734 L -6.795000076293945 -166.53399658203122 L -6.755000114440918 -166.50300598144528 L -6.715000152587891 -166.4730072021484 L -6.673999786376953 -166.44500732421872 L -6.656000137329102 -166.43342590332028 L -6.631999969482422 -166.4179992675781 L -6.589000225067139 -166.39300537109372 L -6.546000003814697 -166.3690032958984 L -6.51200008392334 -166.35200500488278 L -6.501999855041504 -166.34700012207028 L -6.456999778747559 -166.32699584960935 M -7.497000217437744 -179.49699401855466 L -7.497000217437744 -185.50300598144528 L -13.503000259399414 -185.50300598144528 L -13.503000259399414 -179.49699401855466 L -7.497000217437744 -179.49699401855466 M -8.192000389099121 -172.10299682617185 L -13.503000259399414 -172.10299682617185 L -16.384000778198242 -172.10299682617185 L -16.99799919128418 -172.10299682617185 L -28.152999877929688 -172.10299682617185 L -28.152999877929688 -167.0980072021484 L -16.384000778198242 -167.0980072021484 L -8.192000389099121 -167.0980072021484 L -8.14799976348877 -167.0980072021484 L -8.14799976348877 -167.42399597167966 L -8.14799976348877 -167.93600463867185 L -8.14799976348877 -168.96000671386716 L -8.14799976348877 -169.9839935302734 L -8.14799976348877 -172.03199768066403 L -8.14799976348877 -172.10299682617185 L -8.192000389099121 -172.10299682617185 M -31.235000610351562 -166.4179992675781 L -31.23200035095215 -166.41625976562497 L -31.191999435424805 -166.39300537109372 L -31.14900016784668 -166.3690032958984 L -31.104999542236328 -166.34700012207028 L -31.059999465942383 -166.32699584960935 L -31.014999389648438 -166.30799865722653 L -30.969999313354492 -166.28999328613278 L -30.923999786376953 -166.27400207519528 L -30.878000259399414 -166.25900268554685 L -30.83099937438965 -166.2460021972656 L -30.784000396728516 -166.23500061035153 L -30.73699951171875 -166.2250061035156 L -30.719999313354492 -166.22210693359372 L -30.690000534057617 -166.21699523925778 L -30.642000198364258 -166.21000671386716 L -30.5939998626709 -166.20399475097653 L -30.49799919128418 -166.19799804687497 L -30.402000427246094 -166.19799804687497 L -30.305999755859375 -166.20399475097653 L -30.257999420166016 -166.21000671386716 L -30.211000442504883 -166.21699523925778 L -30.20800018310547 -166.21749877929685 L -30.163000106811523 -166.2250061035156 L -30.115999221801758 -166.23500061035153 L -30.069000244140625 -166.2460021972656 L -30.02199935913086 -166.25900268554685 L -29.97599983215332 -166.27400207519528 L -29.93000030517578 -166.28999328613278 L -29.885000228881836 -166.30799865722653 L -29.84000015258789 -166.32699584960935 L -29.795000076293945 -166.34700012207028 L -29.750999450683594 -166.3690032958984 L -29.70800018310547 -166.39300537109372 L -29.695999145507812 -166.39997863769528 L -29.695959091186523 -166.39999389648435 L -29.665000915527344 -166.4179992675781 L -29.62299919128418 -166.44500732421872 L -29.582000732421875 -166.4730072021484 L -29.541000366210938 -166.50300598144528 L -29.50200080871582 -166.53399658203122 L -29.46299934387207 -166.5670013427734 L -29.424999237060547 -166.60200500488278 L -29.38800048828125 -166.63800048828122 L -29.370487213134766 -166.65600585937497 L -29.351999282836914 -166.67500305175778 L -29.316999435424805 -166.7129974365234 L -29.284000396728516 -166.75199890136716 L -29.253000259399414 -166.7910003662109 L -29.222999572753906 -166.83200073242185 L -29.19499969482422 -166.87300109863278 L -29.18400001525879 -166.89010620117185 L -29.16992950439453 -166.91200256347653 L -29.167999267578125 -166.91499328613278 L -29.14299964904785 -166.9579925537109 L -29.118999481201172 -167.0010070800781 L -29.097000122070312 -167.04499816894528 L -29.07699966430664 -167.0899963378906 L -29.058000564575195 -167.1349945068359 L -29.040000915527344 -167.17999267578122 L -29.02400016784668 -167.22599792480466 L -29.009000778198242 -167.2720031738281 L -28.996000289916992 -167.3190002441406 L -28.985000610351562 -167.3659973144531 L -28.975000381469727 -167.4129943847656 L -28.973167419433594 -167.42399597167966 L -28.966999053955078 -167.46099853515622 L -28.959999084472656 -167.50799560546872 L -28.95400047302246 -167.55599975585935 L -28.947999954223633 -167.65199279785153 L -28.947999954223633 -167.74800109863278 L -28.95400047302246 -167.84399414062497 L -28.959999084472656 -167.8919982910156 L -28.96641731262207 -167.93600463867185 L -28.966999053955078 -167.94000244140622 L -28.975000381469727 -167.98699951171872 L -28.985000610351562 -168.03399658203122 L -28.996000289916992 -168.08099365234372 L -29.009000778198242 -168.12800598144528 L -29.02400016784668 -168.17399597167966 L -29.040000915527344 -168.2200012207031 L -29.058000564575195 -168.2649993896484 L -29.07699966430664 -168.30999755859372 L -29.097000122070312 -168.35499572753903 L -29.118999481201172 -168.39900207519528 L -29.14299964904785 -168.4420013427734 L -29.146488189697266 -168.44799804687497 L -29.167999267578125 -168.48500061035153 L -29.18400001525879 -168.50988769531247 L -29.19499969482422 -168.52699279785153 L -29.222999572753906 -168.56799316406247 L -29.253000259399414 -168.6089935302734 L -29.284000396728516 -168.64799499511716 L -29.316999435424805 -168.6869964599609 L -29.351999282836914 -168.7250061035156 L -29.38800048828125 -168.76300048828122 L -29.424999237060547 -168.7980041503906 L -29.46299934387207 -168.8329925537109 L -29.50200080871582 -168.8659973144531 L -29.541000366210938 -168.8970031738281 L -29.582000732421875 -168.92700195312497 L -29.62299919128418 -168.95500183105466 L -29.63077735900879 -168.96000671386716 L -29.665000915527344 -168.98199462890622 L -29.695999145507812 -169.0000305175781 L -29.70800018310547 -169.00700378417966 L -29.750999450683594 -169.03100585937497 L -29.795000076293945 -169.05299377441403 L -29.885000228881836 -169.0930023193359 L -29.93000030517578 -169.11000061035153 L -29.97599983215332 -169.1260070800781 L -30.02199935913086 -169.14100646972653 L -30.069000244140625 -169.15400695800778 L -30.115999221801758 -169.16499328613278 L -30.163000106811523 -169.17500305175778 L -30.20800018310547 -169.18344116210935 L -30.211000442504883 -169.18400573730466 L -30.257999420166016 -169.19000244140622 L -30.305999755859375 -169.19599914550778 L -30.354000091552734 -169.19999694824216 L -30.402000427246094 -169.20199584960935 L -30.450000762939453 -169.20300292968747 L -30.49799919128418 -169.20199584960935 L -30.54599952697754 -169.19999694824216 L -30.5939998626709 -169.19599914550778 L -30.690000534057617 -169.18400573730466 L -30.719999313354492 -169.1782531738281 L -30.73699951171875 -169.17500305175778 L -30.784000396728516 -169.16499328613278 L -30.83099937438965 -169.15400695800778 L -30.878000259399414 -169.14100646972653 L -30.923999786376953 -169.1260070800781 L -30.969999313354492 -169.11000061035153 L -31.014999389648438 -169.0930023193359 L -31.104999542236328 -169.05299377441403 L -31.14900016784668 -169.03100585937497 L -31.191999435424805 -169.00700378417966 L -31.235000610351562 -168.98199462890622 L -31.269222259521484 -168.96000671386716 L -31.277000427246094 -168.95500183105466 L -31.31800079345703 -168.92700195312497 L -31.358999252319336 -168.8970031738281 L -31.398000717163086 -168.8659973144531 L -31.437000274658203 -168.8329925537109 L -31.51300048828125 -168.76300048828122 L -31.56734275817871 -168.70399475097653 L -31.58300018310547 -168.6869964599609 L -31.615999221801758 -168.64799499511716 L -31.64699935913086 -168.6089935302734 L -31.677000045776367 -168.56799316406247 L -31.704999923706055 -168.52699279785153 L -31.73200035095215 -168.48500061035153 L -31.743999481201172 -168.46435546874997 L -31.756999969482422 -168.4420013427734 L -31.7810001373291 -168.39900207519528 L -31.80299949645996 -168.35499572753903 L -31.843000411987305 -168.2649993896484 L -31.860000610351562 -168.2200012207031 L -31.875999450683594 -168.17399597167966 L -31.891000747680664 -168.12800598144528 L -31.90399932861328 -168.08099365234372 L -31.915000915527344 -168.03399658203122 L -31.924999237060547 -167.98699951171872 L -31.933000564575195 -167.94000244140622 L -31.933584213256836 -167.93600463867185 L -31.940000534057617 -167.8919982910156 L -31.945999145507812 -167.84399414062497 L -31.950000762939453 -167.7960052490234 L -31.95199966430664 -167.74800109863278 L -31.952999114990234 -167.69999694824216 L -31.95199966430664 -167.65199279785153 L -31.950000762939453 -167.60400390624997 L -31.945999145507812 -167.55599975585935 L -31.940000534057617 -167.50799560546872 L -31.933000564575195 -167.46099853515622 L -31.926834106445312 -167.42399597167966 L -31.924999237060547 -167.4129943847656 L -31.915000915527344 -167.3659973144531 L -31.90399932861328 -167.3190002441406 L -31.891000747680664 -167.2720031738281 L -31.875999450683594 -167.22599792480466 L -31.860000610351562 -167.17999267578122 L -31.843000411987305 -167.1349945068359 L -31.80299949645996 -167.04499816894528 L -31.7810001373291 -167.0010070800781 L -31.756999969482422 -166.9579925537109 L -31.743999481201172 -166.93563842773435 L -31.73200035095215 -166.91499328613278 L -31.730072021484375 -166.91200256347653 L -31.704999923706055 -166.87300109863278 L -31.677000045776367 -166.83200073242185 L -31.64699935913086 -166.7910003662109 L -31.615999221801758 -166.75199890136716 L -31.58300018310547 -166.7129974365234 L -31.54800033569336 -166.67500305175778 L -31.530027389526367 -166.65600585937497 L -31.51300048828125 -166.63800048828122 L -31.475000381469727 -166.60200500488278 L -31.437000274658203 -166.5670013427734 L -31.398000717163086 -166.53399658203122 L -31.358999252319336 -166.50300598144528 L -31.31800079345703 -166.4730072021484 L -31.277000427246094 -166.44500732421872 L -31.235000610351562 -166.4179992675781 M -31.952999114990234 -174.99800109863278 L -28.947999954223633 -174.99800109863278 L -28.152999877929688 -174.99800109863278 L -16.99799919128418 -174.99800109863278 L -16.99799919128418 -178.00300598144528 L -28.152999877929688 -178.00300598144528 L -28.947999954223633 -178.00300598144528 L -31.952999114990234 -178.00300598144528 L -83.00199890136719 -178.00300598144528 L -83.00199890136719 -174.99800109863278 L -71.84700012207031 -174.99800109863278 L -71.052001953125 -174.99800109863278 L -68.0469970703125 -174.99800109863278 L -31.952999114990234 -174.99800109863278 M -28.947999954223633 -191.00300598144528 L -31.952999114990234 -191.00300598144528 L -83.00199890136719 -191.00300598144528 L -83.00199890136719 -185.99800109863278 L -31.952999114990234 -185.99800109863278 L -28.947999954223633 -185.99800109863278 L -28.152999877929688 -185.99800109863278 L -16.99799919128418 -185.99800109863278 L -16.99799919128418 -191.00300598144528 L -28.152999877929688 -191.00300598144528 L -28.947999954223633 -191.00300598144528 M -90.11199951171875 -172.10299682617185 L -91.85199737548828 -172.10299682617185 L -91.85199737548828 -172.03199768066403 L -91.85199737548828 -169.9839935302734 L -91.85199737548828 -167.93600463867185 L -91.85199737548828 -167.0980072021484 L -90.11199951171875 -167.0980072021484 L -81.91999816894531 -167.0980072021484 L -71.84700012207031 -167.0980072021484 L -71.84700012207031 -172.10299682617185 L -81.91999816894531 -172.10299682617185 L -90.11199951171875 -172.10299682617185 M -69.63200378417969 -166.20011901855466 L -69.5979995727539 -166.19799804687497 L -69.50199890136719 -166.19799804687497 L -69.40599822998047 -166.20399475097653 L -69.35800170898438 -166.21000671386716 L -69.30999755859375 -166.21699523925778 L -69.26300048828125 -166.2250061035156 L -69.21600341796875 -166.23500061035153 L -69.16899871826172 -166.2460021972656 L -69.12200164794922 -166.25900268554685 L -69.12000274658203 -166.25965881347653 L -69.07599639892578 -166.27400207519528 L -69.02999877929688 -166.28999328613278 L -68.98500061035156 -166.30799865722653 L -68.94000244140625 -166.32699584960935 L -68.8949966430664 -166.34700012207028 L -68.85099792480469 -166.3690032958984 L -68.80799865722656 -166.39300537109372 L -68.76499938964844 -166.4179992675781 L -68.7229995727539 -166.44500732421872 L -68.68199920654297 -166.4730072021484 L -68.64099884033203 -166.50300598144528 L -68.60800170898438 -166.52923583984372 L -68.60199737548828 -166.53399658203122 L -68.56300354003906 -166.5670013427734 L -68.5250015258789 -166.60200500488278 L -68.48699951171875 -166.63800048828122 L -68.4520034790039 -166.67500305175778 L -68.41699981689453 -166.7129974365234 L -68.38400268554688 -166.75199890136716 L -68.35299682617188 -166.7910003662109 L -68.322998046875 -166.83200073242185 L -68.29499816894531 -166.87300109863278 L -68.26992797851562 -166.91200256347653 L -68.26799774169922 -166.91499328613278 L -68.24299621582031 -166.9579925537109 L -68.21900177001953 -167.0010070800781 L -68.1969985961914 -167.04499816894528 L -68.15699768066406 -167.1349945068359 L -68.13999938964844 -167.17999267578122 L -68.1240005493164 -167.22599792480466 L -68.10900115966797 -167.2720031738281 L -68.09600067138672 -167.3190002441406 L -68.08499908447266 -167.3659973144531 L -68.07499694824219 -167.4129943847656 L -68.07316589355469 -167.42399597167966 L -68.06700134277344 -167.46099853515622 L -68.05999755859375 -167.50799560546872 L -68.05400085449219 -167.55599975585935 L -68.05000305175781 -167.60400390624997 L -68.0479965209961 -167.65199279785153 L -68.0469970703125 -167.69999694824216 L -68.0479965209961 -167.74800109863278 L -68.05000305175781 -167.7960052490234 L -68.05400085449219 -167.84399414062497 L -68.05999755859375 -167.8919982910156 L -68.06641387939453 -167.93600463867185 L -68.06700134277344 -167.94000244140622 L -68.07499694824219 -167.98699951171872 L -68.08499908447266 -168.03399658203122 L -68.09600067138672 -168.08099365234372 L -68.10900115966797 -168.12800598144528 L -68.1240005493164 -168.17399597167966 L -68.13999938964844 -168.2200012207031 L -68.15699768066406 -168.2649993896484 L -68.1969985961914 -168.35499572753903 L -68.21900177001953 -168.39900207519528 L -68.24299621582031 -168.4420013427734 L -68.24649047851562 -168.44799804687497 L -68.26799774169922 -168.48500061035153 L -68.29499816894531 -168.52699279785153 L -68.322998046875 -168.56799316406247 L -68.35299682617188 -168.6089935302734 L -68.38400268554688 -168.64799499511716 L -68.41699981689453 -168.6869964599609 L -68.48699951171875 -168.76300048828122 L -68.56300354003906 -168.8329925537109 L -68.60199737548828 -168.8659973144531 L -68.60800170898438 -168.87077331542966 L -68.64099884033203 -168.8970031738281 L -68.68199920654297 -168.92700195312497 L -68.7229995727539 -168.95500183105466 L -68.73078155517578 -168.96000671386716 L -68.76499938964844 -168.98199462890622 L -68.80799865722656 -169.00700378417966 L -68.85099792480469 -169.03100585937497 L -68.8949966430664 -169.05299377441403 L -68.98500061035156 -169.0930023193359 L -69.02999877929688 -169.11000061035153 L -69.07599639892578 -169.1260070800781 L -69.12000274658203 -169.14035034179685 L -69.12200164794922 -169.14100646972653 L -69.16899871826172 -169.15400695800778 L -69.21600341796875 -169.16499328613278 L -69.26300048828125 -169.17500305175778 L -69.30999755859375 -169.18400573730466 L -69.40599822998047 -169.19599914550778 L -69.4540023803711 -169.19999694824216 L -69.50199890136719 -169.20199584960935 L -69.55000305175781 -169.20300292968747 L -69.5979995727539 -169.20199584960935 L -69.63200378417969 -169.20057678222653 L -69.64600372314453 -169.19999694824216 L -69.69400024414062 -169.19599914550778 L -69.74199676513672 -169.19000244140622 L -69.78900146484375 -169.18400573730466 L -69.83699798583984 -169.17500305175778 L -69.88400268554688 -169.16499328613278 L -69.93099975585938 -169.15400695800778 L -69.97799682617188 -169.14100646972653 L -70.02400207519531 -169.1260070800781 L -70.06999969482422 -169.11000061035153 L -70.11499786376953 -169.0930023193359 L -70.14399719238281 -169.0801086425781 L -70.20500183105469 -169.05299377441403 L -70.2490005493164 -169.03100585937497 L -70.29199981689453 -169.00700378417966 L -70.33499908447266 -168.98199462890622 L -70.36922454833984 -168.96000671386716 L -70.37699890136719 -168.95500183105466 L -70.41799926757812 -168.92700195312497 L -70.45899963378906 -168.8970031738281 L -70.49800109863281 -168.8659973144531 L -70.53700256347656 -168.8329925537109 L -70.57499694824219 -168.7980041503906 L -70.61199951171875 -168.76300048828122 L -70.64800262451172 -168.7250061035156 L -70.65599822998047 -168.71630859374997 L -70.68299865722656 -168.6869964599609 L -70.71600341796875 -168.64799499511716 L -70.74700164794922 -168.6089935302734 L -70.7770004272461 -168.56799316406247 L -70.80500030517578 -168.52699279785153 L -70.83200073242188 -168.48500061035153 L -70.85350799560547 -168.44799804687497 L -70.85700225830078 -168.4420013427734 L -70.88099670410156 -168.39900207519528 L -70.90299987792969 -168.35499572753903 L -70.9229965209961 -168.30999755859372 L -70.94200134277344 -168.2649993896484 L -70.95999908447266 -168.2200012207031 L -70.97599792480469 -168.17399597167966 L -70.99099731445312 -168.12800598144528 L -71.00399780273438 -168.08099365234372 L -71.01499938964844 -168.03399658203122 L -71.0250015258789 -167.98699951171872 L -71.03299713134766 -167.94000244140622 L -71.03358459472656 -167.93600463867185 L -71.04000091552734 -167.8919982910156 L -71.0459976196289 -167.84399414062497 L -71.052001953125 -167.74800109863278 L -71.052001953125 -167.65199279785153 L -71.0459976196289 -167.55599975585935 L -71.04000091552734 -167.50799560546872 L -71.03299713134766 -167.46099853515622 L -71.0268325805664 -167.42399597167966 L -71.0250015258789 -167.4129943847656 L -71.01499938964844 -167.3659973144531 L -71.00399780273438 -167.3190002441406 L -70.99099731445312 -167.2720031738281 L -70.97599792480469 -167.22599792480466 L -70.95999908447266 -167.17999267578122 L -70.94200134277344 -167.1349945068359 L -70.9229965209961 -167.0899963378906 L -70.90299987792969 -167.04499816894528 L -70.88099670410156 -167.0010070800781 L -70.85700225830078 -166.9579925537109 L -70.83200073242188 -166.91499328613278 L -70.83007049560547 -166.91200256347653 L -70.80500030517578 -166.87300109863278 L -70.7770004272461 -166.83200073242185 L -70.74700164794922 -166.7910003662109 L -70.71600341796875 -166.75199890136716 L -70.68299865722656 -166.7129974365234 L -70.65599822998047 -166.68368530273435 L -70.64800262451172 -166.67500305175778 L -70.61199951171875 -166.63800048828122 L -70.57499694824219 -166.60200500488278 L -70.53700256347656 -166.5670013427734 L -70.49800109863281 -166.53399658203122 L -70.45899963378906 -166.50300598144528 L -70.41799926757812 -166.4730072021484 L -70.37699890136719 -166.44500732421872 L -70.33499908447266 -166.4179992675781 L -70.29199981689453 -166.39300537109372 L -70.2490005493164 -166.3690032958984 L -70.20500183105469 -166.34700012207028 L -70.16000366210938 -166.32699584960935 L -70.14399719238281 -166.32025146484372 L -70.11499786376953 -166.30799865722653 L -70.06999969482422 -166.28999328613278 L -70.02400207519531 -166.27400207519528 L -69.97799682617188 -166.25900268554685 L -69.93099975585938 -166.2460021972656 L -69.88400268554688 -166.23500061035153 L -69.83699798583984 -166.2250061035156 L -69.78900146484375 -166.21699523925778 L -69.74199676513672 -166.21000671386716 L -69.69400024414062 -166.20399475097653 L -69.63200378417969 -166.20011901855466 M -94.99800109863281 -89.6480026245117 L -94.99800109863281 -92.6480026245117 L -95.6520004272461 -92.6480026245117 L -98.00299835205078 -92.6480026245117 L -98.00299835205078 -89.6480026245117 L -98.00299835205078 -87.14700317382811 L -95.6520004272461 -87.14700317382811 L -94.99800109863281 -87.14700317382811 L -94.99800109863281 -89.6480026245117 M -7.497000217437744 -155.50300598144528 L -27.503000259399414 -155.50300598144528 L -27.503000259399414 -145.49699401855466 L -7.497000217437744 -145.49699401855466 L -7.497000217437744 -155.50300598144528 M -92.50299835205078 -155.50300598144528 L -92.50299835205078 -145.49699401855466 L -72.49700164794922 -145.49699401855466 L -72.49700164794922 -155.50300598144528 L -92.50299835205078 -155.50300598144528 M -92.50299835205078 -179.49699401855466 L -86.49700164794922 -179.49699401855466 L -86.49700164794922 -185.50300598144528 L -92.50299835205078 -185.50300598144528 L -92.50299835205078 -179.49699401855466 M -95.6520004272461 -117.15200042724607 L -98.00299835205078 -117.15200042724607 L -98.00299835205078 -112.15200042724607 L -95.6520004272461 -112.15200042724607 L -94.99800109863281 -112.15200042724607 L -94.99800109863281 -117.15200042724607 L -95.6520004272461 -117.15200042724607 M -62.50299835205078 -115.50299835205075 L -62.50299835205078 -110.49999999999997 L -62.50299835205078 -105.49700164794919 L -32.49700164794922 -105.49700164794919 L -32.49700164794922 -110.49999999999997 L -32.49700164794922 -115.50299835205075 L -62.50299835205078 -115.50299835205075 M -95.6520004272461 -107.15100097656247 L -98.00299835205078 -107.15100097656247 L -98.00299835205078 -97.14900207519528 L -95.6520004272461 -97.14900207519528 L -94.99800109863281 -97.14900207519528 L -94.99800109863281 -107.15100097656247 L -95.6520004272461 -107.15100097656247 z" fill="none" stroke="rgb(255,0,0)" stroke-width="0.001mm" />
</svg>