<?xml version="1.0" standalone="no"?>
<!DOCTYPE svg PUBLIC "-//W3C//DTD SVG 1.1//EN"
  "http://www.w3.org/Graphics/SVG/1.1/DTD/svg11.dtd">
<svg width="122mm" height="140.99999999999997mm" viewBox="208 -300.99999999999994 122 140.99999999999997" xmlns="http://www.w3.org/2000/svg" version="1.1">
	<title>svgOutput</title>
	<desc>made with tinkercad</desc>
<path d="M 209 -290.00100708007807 L 212.0019989013672 -293.0029907226562 L 215.9969940185547 -296.9979858398437 L 218.99899291992188 -299.99999999999994 L 228.9969940185547 -299.99999999999994 L 228.9969940185547 -296.9979858398437 L 238.19900512695312 -296.9979858398437 L 249.0019989013672 -296.9979858398437 L 249.0019989013672 -299.99999999999994 L 258.99700927734375 -299.99999999999994 L 258.99700927734375 -296.9979858398437 L 279.00201416015625 -296.9979858398437 L 279.00201416015625 -299.99999999999994 L 288.99700927734375 -299.99999999999994 L 288.99700927734375 -296.9979858398437 L 299.79998779296875 -296.9979858398437 L 309.00201416015625 -296.9979858398437 L 309.00201416015625 -299.99999999999994 L 319 -299.99999999999994 L 322.00201416015625 -296.9979858398437 L 325.99700927734375 -293.0029907226562 L 329 -289.99999999999994 L 329 -281.0029907226562 L 325.99700927734375 -281.0029907226562 L 325.99700927734375 -277.0979919433593 L 325.99700927734375 -264.9979858398437 L 329 -264.9979858398437 L 329 -211.00300598144526 L 325.99700927734375 -211.00300598144526 L 325.99700927734375 -173.02400207519528 L 325.99700927734375 -170.99800109863278 L 328.99700927734375 -170.99800109863278 L 325.99700927734375 -167.99800109863278 L 322.00201416015625 -164.00300598144528 L 318.9989929199219 -160.99999999999997 L 309.00201416015625 -160.99999999999997 L 309.00201416015625 -164.00300598144528 L 306.97698974609375 -164.00300598144528 L 298.99798583984375 -164.00300598144528 L 298.99798583984375 -160.99999999999997 L 239.0030059814453 -160.99999999999997 L 239.0030059814453 -164.00300598144528 L 231.01800537109375 -164.00300598144528 L 228.9969940185547 -164.00300598144528 L 228.9969940185547 -160.99999999999997 L 223.99899291992188 -160.99999999999997 L 221.9980010986328 -160.99999999999997 L 219 -160.99999999999997 L 212.0019989013672 -167.99800109863278 L 209.0019989013672 -170.99800109863278 L 212.0019989013672 -170.99800109863278 L 212.0019989013672 -211.00300598144526 L 209 -211.00300598144526 L 209 -220.99800109863276 L 212.0019989013672 -220.99800109863276 L 212.0019989013672 -231.00300598144526 L 209 -231.00300598144526 L 209 -240.99800109863276 L 212.0019989013672 -240.99800109863276 L 212.0019989013672 -281.0029907226562 L 209 -281.0029907226562 L 209 -290.00100708007807 M 296.81201171875 -286.7900085449218 L 296.8059997558594 -286.7430114746093 L 296.8040771484375 -286.72000122070307 L 296.802001953125 -286.6950073242187 L 296.79998779296875 -286.64700317382807 L 296.79901123046875 -286.59899902343744 L 296.79998779296875 -286.5509948730468 L 296.802001953125 -286.5029907226562 L 296.8059997558594 -286.45498657226557 L 296.8179931640625 -286.35900878906244 L 296.8269958496094 -286.31201171874994 L 296.8370056152344 -286.26501464843744 L 296.8479919433594 -286.2179870605468 L 296.85076904296875 -286.20800781249994 L 296.8609924316406 -286.1709899902343 L 296.8760070800781 -286.12499999999994 L 296.8919982910156 -286.07901000976557 L 296.90899658203125 -286.0339965820312 L 296.9280090332031 -285.98901367187494 L 296.9490051269531 -285.94400024414057 L 296.9599914550781 -285.92248535156244 L 296.97100830078125 -285.90100097656244 L 296.9949951171875 -285.8569946289062 L 297.0199890136719 -285.8150024414062 L 297.0469970703125 -285.7730102539062 L 297.07501220703125 -285.73098754882807 L 297.10125732421875 -285.6960144042968 L 297.1050109863281 -285.6910095214843 L 297.135986328125 -285.65100097656244 L 297.16900634765625 -285.6119995117187 L 297.2030029296875 -285.57400512695307 L 297.239013671875 -285.53698730468744 L 297.2760009765625 -285.50100708007807 L 297.3139953613281 -285.4670104980468 L 297.3529968261719 -285.43399047851557 L 297.3919982910156 -285.4030151367187 L 297.4330139160156 -285.3729858398437 L 297.47198486328125 -285.3463745117187 L 297.4739990234375 -285.34500122070307 L 297.5159912109375 -285.31799316406244 L 297.5589904785156 -285.29299926757807 L 297.60198974609375 -285.2690124511718 L 297.64599609375 -285.2470092773437 L 297.69000244140625 -285.2260131835937 L 297.7349853515625 -285.2070007324218 L 297.781005859375 -285.1900024414062 L 297.82598876953125 -285.1740112304687 L 297.87298583984375 -285.1589965820312 L 297.91900634765625 -285.14599609374994 L 297.96600341796875 -285.13500976562494 L 297.9840087890625 -285.1311645507812 L 298.01300048828125 -285.12499999999994 L 298.0610046386719 -285.1170043945312 L 298.1080017089844 -285.10998535156244 L 298.156005859375 -285.10400390624994 L 298.25201416015625 -285.0979919433593 L 298.29998779296875 -285.0969848632812 L 298.3479919433594 -285.0979919433593 L 298.4440002441406 -285.10400390624994 L 298.4909973144531 -285.10998535156244 L 298.4960021972656 -285.11071777343744 L 298.53900146484375 -285.1170043945312 L 298.58599853515625 -285.12499999999994 L 298.63299560546875 -285.13500976562494 L 298.67999267578125 -285.14599609374994 L 298.72698974609375 -285.1589965820312 L 298.77301025390625 -285.1740112304687 L 298.8190002441406 -285.1900024414062 L 298.864013671875 -285.2070007324218 L 298.90899658203125 -285.2260131835937 L 298.9540100097656 -285.2470092773437 L 298.99700927734375 -285.2690124511718 L 299.00799560546875 -285.2749938964843 L 299.0409851074219 -285.29299926757807 L 299.0830078125 -285.31799316406244 L 299.125 -285.34500122070307 L 299.1669921875 -285.3729858398437 L 299.2070007324219 -285.4030151367187 L 299.24700927734375 -285.43399047851557 L 299.2860107421875 -285.4670104980468 L 299.3240051269531 -285.50100708007807 L 299.3609924316406 -285.53698730468744 L 299.3970031738281 -285.57400512695307 L 299.4309997558594 -285.6119995117187 L 299.4639892578125 -285.65100097656244 L 299.4949951171875 -285.6910095214843 L 299.4987487792969 -285.6960144042968 L 299.5249938964844 -285.73098754882807 L 299.5530090332031 -285.7730102539062 L 299.5799865722656 -285.8150024414062 L 299.5997314453125 -285.84814453124994 L 299.6050109863281 -285.8569946289062 L 299.62799072265625 -285.90100097656244 L 299.6510009765625 -285.94400024414057 L 299.6709899902344 -285.98901367187494 L 299.69000244140625 -286.0339965820312 L 299.7080078125 -286.07901000976557 L 299.7239990234375 -286.12499999999994 L 299.7380065917969 -286.1709899902343 L 299.74822998046875 -286.20800781249994 L 299.7510070800781 -286.2179870605468 L 299.76300048828125 -286.26501464843744 L 299.77301025390625 -286.31201171874994 L 299.781005859375 -286.35900878906244 L 299.7879943847656 -286.40701293945307 L 299.7929992675781 -286.45498657226557 L 299.7969970703125 -286.5029907226562 L 299.79901123046875 -286.5509948730468 L 299.79998779296875 -286.59899902343744 L 299.79901123046875 -286.64700317382807 L 299.7969970703125 -286.6950073242187 L 299.794921875 -286.72000122070307 L 299.7929992675781 -286.7430114746093 L 299.7879943847656 -286.7900085449218 L 299.781005859375 -286.83801269531244 L 299.77301025390625 -286.88598632812494 L 299.76300048828125 -286.93301391601557 L 299.7510070800781 -286.98001098632807 L 299.7380065917969 -287.02600097656244 L 299.7239990234375 -287.0719909667968 L 299.7080078125 -287.1180114746093 L 299.69000244140625 -287.1640014648437 L 299.6709899902344 -287.20901489257807 L 299.6605529785156 -287.2319946289062 L 299.6510009765625 -287.2529907226562 L 299.62799072265625 -287.29699707031244 L 299.6050109863281 -287.33999633789057 L 299.5799865722656 -287.3829956054687 L 299.5530090332031 -287.4249877929687 L 299.5249938964844 -287.4660034179687 L 299.4949951171875 -287.50698852539057 L 299.4639892578125 -287.5459899902343 L 299.4309997558594 -287.58499145507807 L 299.3970031738281 -287.6229858398437 L 299.3609924316406 -287.6600036621093 L 299.3240051269531 -287.6960144042968 L 299.2860107421875 -287.73098754882807 L 299.2701416015625 -287.7439880371093 L 299.24700927734375 -287.7630004882812 L 299.2070007324219 -287.7950134277343 L 299.1669921875 -287.82400512695307 L 299.125 -287.8529968261718 L 299.0409851074219 -287.9049987792968 L 299.00799560546875 -287.92224121093744 L 298.99700927734375 -287.92800903320307 L 298.9540100097656 -287.9500122070312 L 298.90899658203125 -287.9710083007812 L 298.864013671875 -287.98999023437494 L 298.8190002441406 -288.0079956054687 L 298.77301025390625 -288.0239868164062 L 298.72698974609375 -288.03799438476557 L 298.67999267578125 -288.0509948730468 L 298.63299560546875 -288.06298828124994 L 298.58599853515625 -288.07299804687494 L 298.53900146484375 -288.0809936523437 L 298.4960021972656 -288.08728027343744 L 298.4909973144531 -288.08801269531244 L 298.4440002441406 -288.0929870605468 L 298.39599609375 -288.0969848632812 L 298.3479919433594 -288.09899902343744 L 298.29998779296875 -288.10000610351557 L 298.25201416015625 -288.09899902343744 L 298.2040100097656 -288.0969848632812 L 298.156005859375 -288.0929870605468 L 298.1080017089844 -288.08801269531244 L 298.0610046386719 -288.0809936523437 L 298.01300048828125 -288.07299804687494 L 297.9840087890625 -288.0668334960937 L 297.96600341796875 -288.06298828124994 L 297.91900634765625 -288.0509948730468 L 297.87298583984375 -288.03799438476557 L 297.82598876953125 -288.0239868164062 L 297.781005859375 -288.0079956054687 L 297.7349853515625 -287.98999023437494 L 297.69000244140625 -287.9710083007812 L 297.64599609375 -287.9500122070312 L 297.60198974609375 -287.92800903320307 L 297.5589904785156 -287.9049987792968 L 297.5159912109375 -287.8789978027343 L 297.4739990234375 -287.8529968261718 L 297.47198486328125 -287.85159301757807 L 297.3919982910156 -287.7950134277343 L 297.329833984375 -287.7439880371093 L 297.3139953613281 -287.73098754882807 L 297.2760009765625 -287.6960144042968 L 297.239013671875 -287.6600036621093 L 297.2030029296875 -287.6229858398437 L 297.16900634765625 -287.58499145507807 L 297.135986328125 -287.5459899902343 L 297.1050109863281 -287.50698852539057 L 297.07501220703125 -287.4660034179687 L 297.0469970703125 -287.4249877929687 L 297.0199890136719 -287.3829956054687 L 296.9949951171875 -287.33999633789057 L 296.97100830078125 -287.29699707031244 L 296.9599914550781 -287.2749938964843 L 296.9490051269531 -287.2529907226562 L 296.9280090332031 -287.20901489257807 L 296.90899658203125 -287.1640014648437 L 296.8919982910156 -287.1180114746093 L 296.8760070800781 -287.0719909667968 L 296.8609924316406 -287.02600097656244 L 296.8479919433594 -286.98001098632807 L 296.8370056152344 -286.93301391601557 L 296.8269958496094 -286.88598632812494 L 296.8183898925781 -286.84011840820307 L 296.8179931640625 -286.83801269531244 L 296.81201171875 -286.7900085449218 M 223.23399353027344 -277.24999999999994 L 223.48199462890625 -277.1659851074218 L 223.73899841308594 -277.11499023437494 L 223.99899291992188 -277.09805297851557 L 224 -277.0979919433593 L 224.26100158691406 -277.11499023437494 L 224.51800537109375 -277.1659851074218 L 224.76600646972656 -277.24999999999994 L 225.00100708007812 -277.36599731445307 L 225.218994140625 -277.51199340820307 L 225.27999877929688 -277.5652465820312 L 225.41600036621094 -277.68399047851557 L 225.58900451660156 -277.88101196289057 L 225.73399353027344 -278.09899902343744 L 225.85000610351562 -278.33401489257807 L 225.91571044921875 -278.5280151367187 L 225.9340057373047 -278.5820007324218 L 225.98500061035156 -278.83898925781244 L 226.0030059814453 -279.10000610351557 L 225.98500061035156 -279.3619995117187 L 225.9340057373047 -279.6189880371093 L 225.85000610351562 -279.8670043945312 L 225.73399353027344 -280.1010131835937 L 225.58900451660156 -280.31900024414057 L 225.41600036621094 -280.51599121093744 L 225.27999877929688 -280.6354370117187 L 225.218994140625 -280.68899536132807 L 225.00100708007812 -280.83401489257807 L 224.76600646972656 -280.9500122070312 L 224.51800537109375 -281.0350036621093 L 224.26100158691406 -281.0859985351562 L 224 -281.1029968261718 L 223.99899291992188 -281.10293579101557 L 223.73899841308594 -281.0859985351562 L 223.48199462890625 -281.0350036621093 L 223.23399353027344 -280.9500122070312 L 223.23199462890625 -280.94900512695307 L 222.99899291992188 -280.83401489257807 L 222.781005859375 -280.68899536132807 L 222.58399963378906 -280.51599121093744 L 222.41099548339844 -280.31900024414057 L 222.26600646972656 -280.1010131835937 L 222.14999389648438 -279.8670043945312 L 222.0659942626953 -279.6189880371093 L 222.01499938964844 -279.3619995117187 L 221.9980010986328 -279.10000610351557 L 222.01499938964844 -278.83898925781244 L 222.0659942626953 -278.5820007324218 L 222.08428955078125 -278.5280151367187 L 222.14999389648438 -278.33401489257807 L 222.26600646972656 -278.09899902343744 L 222.41099548339844 -277.88101196289057 L 222.58399963378906 -277.68399047851557 L 222.781005859375 -277.51199340820307 L 222.99899291992188 -277.36599731445307 L 223.23199462890625 -277.25097656249994 L 223.23399353027344 -277.24999999999994 M 320.00201416015625 -284.9979858398437 L 320.00201416015625 -290.99999999999994 L 314 -290.99999999999994 L 314 -284.9979858398437 L 316.00299072265625 -284.9979858398437 L 320.00201416015625 -284.9979858398437 M 315.218994140625 -277.51199340820307 L 315.3919982910156 -277.6630554199218 L 315.4159851074219 -277.68399047851557 L 315.5889892578125 -277.88101196289057 L 315.7340087890625 -278.09899902343744 L 315.8500061035156 -278.33401489257807 L 315.91571044921875 -278.5280151367187 L 315.9339904785156 -278.5820007324218 L 315.9849853515625 -278.83898925781244 L 316.00299072265625 -279.10000610351557 L 315.9849853515625 -279.3619995117187 L 315.9339904785156 -279.6189880371093 L 315.8500061035156 -279.8670043945312 L 315.7340087890625 -280.1010131835937 L 315.5889892578125 -280.31900024414057 L 315.4159851074219 -280.51599121093744 L 315.3919982910156 -280.5370788574218 L 315.218994140625 -280.68899536132807 L 315.0010070800781 -280.83401489257807 L 314.7659912109375 -280.9500122070312 L 314.51800537109375 -281.0350036621093 L 314.260986328125 -281.0859985351562 L 314 -281.1029968261718 L 313.739013671875 -281.0859985351562 L 313.48199462890625 -281.0350036621093 L 313.343994140625 -280.98770141601557 L 313.2340087890625 -280.9500122070312 L 312.9989929199219 -280.83401489257807 L 312.781005859375 -280.68899536132807 L 312.5840148925781 -280.51599121093744 L 312.4110107421875 -280.31900024414057 L 312.2659912109375 -280.1010131835937 L 312.1499938964844 -279.8670043945312 L 312.0660095214844 -279.6189880371093 L 312.0150146484375 -279.3619995117187 L 311.99798583984375 -279.10000610351557 L 312.0150146484375 -278.83898925781244 L 312.0660095214844 -278.5820007324218 L 312.08428955078125 -278.5280151367187 L 312.1499938964844 -278.33401489257807 L 312.2659912109375 -278.09899902343744 L 312.4110107421875 -277.88101196289057 L 312.5840148925781 -277.68399047851557 L 312.781005859375 -277.51199340820307 L 312.9989929199219 -277.36599731445307 L 313.2340087890625 -277.24999999999994 L 313.343994140625 -277.2127380371093 L 313.48199462890625 -277.1659851074218 L 313.739013671875 -277.11499023437494 L 314 -277.0979919433593 L 314.260986328125 -277.11499023437494 L 314.51800537109375 -277.1659851074218 L 314.7659912109375 -277.24999999999994 L 315.0010070800781 -277.36599731445307 L 315.218994140625 -277.51199340820307 M 238.5679931640625 -285.6119995117187 L 238.5919952392578 -285.58593749999994 L 238.60299682617188 -285.57400512695307 L 238.63900756835938 -285.53698730468744 L 238.67599487304688 -285.50100708007807 L 238.71400451660156 -285.4670104980468 L 238.7530059814453 -285.43399047851557 L 238.79200744628906 -285.4030151367187 L 238.83299255371094 -285.3729858398437 L 238.87399291992188 -285.34500122070307 L 238.91600036621094 -285.31799316406244 L 238.95899963378906 -285.29299926757807 L 239.0019989013672 -285.2690124511718 L 239.04600524902344 -285.2470092773437 L 239.08999633789062 -285.2260131835937 L 239.10400390625 -285.22009277343744 L 239.13499450683594 -285.2070007324218 L 239.17999267578125 -285.1900024414062 L 239.2259979248047 -285.1740112304687 L 239.27200317382812 -285.1589965820312 L 239.31900024414062 -285.14599609374994 L 239.36599731445312 -285.13500976562494 L 239.41299438476562 -285.12499999999994 L 239.4600067138672 -285.1170043945312 L 239.50799560546875 -285.10998535156244 L 239.55599975585938 -285.10400390624994 L 239.61599731445312 -285.10025024414057 L 239.65199279785156 -285.0979919433593 L 239.6999969482422 -285.0969848632812 L 239.7469940185547 -285.0979919433593 L 239.84300231933594 -285.10400390624994 L 239.89100646972656 -285.10998535156244 L 239.93899536132812 -285.1170043945312 L 239.98599243164062 -285.12499999999994 L 240.0330047607422 -285.13500976562494 L 240.0800018310547 -285.14599609374994 L 240.1269989013672 -285.1589965820312 L 240.1280059814453 -285.15933227539057 L 240.17300415039062 -285.1740112304687 L 240.218994140625 -285.1900024414062 L 240.26400756835938 -285.2070007324218 L 240.3090057373047 -285.2260131835937 L 240.35299682617188 -285.2470092773437 L 240.39700317382812 -285.2690124511718 L 240.44000244140625 -285.29299926757807 L 240.48300170898438 -285.31799316406244 L 240.52499389648438 -285.34500122070307 L 240.5659942626953 -285.3729858398437 L 240.60699462890625 -285.4030151367187 L 240.63999938964844 -285.42922973632807 L 240.64599609375 -285.43399047851557 L 240.68499755859375 -285.4670104980468 L 240.72300720214844 -285.50100708007807 L 240.75999450683594 -285.53698730468744 L 240.79600524902344 -285.57400512695307 L 240.83099365234375 -285.6119995117187 L 240.86300659179688 -285.65100097656244 L 240.89500427246094 -285.6910095214843 L 240.89862060546875 -285.6960144042968 L 240.9239959716797 -285.73098754882807 L 240.9530029296875 -285.7730102539062 L 241.0050048828125 -285.8569946289062 L 241.0279998779297 -285.90100097656244 L 241.0500030517578 -285.94400024414057 L 241.0709991455078 -285.98901367187494 L 241.08999633789062 -286.0339965820312 L 241.10800170898438 -286.07901000976557 L 241.12399291992188 -286.12499999999994 L 241.13800048828125 -286.1709899902343 L 241.1482391357422 -286.20800781249994 L 241.1510009765625 -286.2179870605468 L 241.16299438476562 -286.26501464843744 L 241.18099975585938 -286.35900878906244 L 241.18800354003906 -286.40701293945307 L 241.1929931640625 -286.45498657226557 L 241.19700622558594 -286.5029907226562 L 241.19900512695312 -286.5509948730468 L 241.1999969482422 -286.59899902343744 L 241.19900512695312 -286.64700317382807 L 241.19700622558594 -286.6950073242187 L 241.19491577148438 -286.72000122070307 L 241.1929931640625 -286.7430114746093 L 241.18800354003906 -286.7900085449218 L 241.18099975585938 -286.83801269531244 L 241.1719970703125 -286.88598632812494 L 241.16299438476562 -286.93301391601557 L 241.1510009765625 -286.98001098632807 L 241.13800048828125 -287.02600097656244 L 241.12399291992188 -287.0719909667968 L 241.10800170898438 -287.1180114746093 L 241.08999633789062 -287.1640014648437 L 241.0709991455078 -287.20901489257807 L 241.06002807617188 -287.2319946289062 L 241.0500030517578 -287.2529907226562 L 241.0279998779297 -287.29699707031244 L 241.0050048828125 -287.33999633789057 L 240.97900390625 -287.3829956054687 L 240.9530029296875 -287.4249877929687 L 240.89500427246094 -287.50698852539057 L 240.83099365234375 -287.58499145507807 L 240.79600524902344 -287.6229858398437 L 240.75999450683594 -287.6600036621093 L 240.72300720214844 -287.6960144042968 L 240.68499755859375 -287.73098754882807 L 240.66915893554688 -287.7439880371093 L 240.63999938964844 -287.7679138183593 L 240.60699462890625 -287.7950134277343 L 240.52499389648438 -287.8529968261718 L 240.48300170898438 -287.8789978027343 L 240.44000244140625 -287.9049987792968 L 240.39700317382812 -287.92800903320307 L 240.35299682617188 -287.9500122070312 L 240.3090057373047 -287.9710083007812 L 240.26400756835938 -287.98999023437494 L 240.218994140625 -288.0079956054687 L 240.17300415039062 -288.0239868164062 L 240.1280059814453 -288.0376892089843 L 240.1269989013672 -288.03799438476557 L 240.0800018310547 -288.0509948730468 L 240.0330047607422 -288.06298828124994 L 239.98599243164062 -288.07299804687494 L 239.93899536132812 -288.0809936523437 L 239.89100646972656 -288.08801269531244 L 239.84300231933594 -288.0929870605468 L 239.7949981689453 -288.0969848632812 L 239.7469940185547 -288.09899902343744 L 239.6999969482422 -288.10000610351557 L 239.65199279785156 -288.09899902343744 L 239.61599731445312 -288.0975036621093 L 239.60400390625 -288.0969848632812 L 239.55599975585938 -288.0929870605468 L 239.50799560546875 -288.08801269531244 L 239.4600067138672 -288.0809936523437 L 239.41299438476562 -288.07299804687494 L 239.36599731445312 -288.06298828124994 L 239.31900024414062 -288.0509948730468 L 239.27200317382812 -288.03799438476557 L 239.2259979248047 -288.0239868164062 L 239.17999267578125 -288.0079956054687 L 239.13499450683594 -287.98999023437494 L 239.10400390625 -287.9768981933593 L 239.08999633789062 -287.9710083007812 L 239.04600524902344 -287.9500122070312 L 239.0019989013672 -287.92800903320307 L 238.95899963378906 -287.9049987792968 L 238.91600036621094 -287.8789978027343 L 238.87399291992188 -287.8529968261718 L 238.79200744628906 -287.7950134277343 L 238.72984313964844 -287.7439880371093 L 238.71400451660156 -287.73098754882807 L 238.67599487304688 -287.6960144042968 L 238.63900756835938 -287.6600036621093 L 238.60299682617188 -287.6229858398437 L 238.5919952392578 -287.6110534667968 L 238.5679931640625 -287.58499145507807 L 238.50399780273438 -287.50698852539057 L 238.4459991455078 -287.4249877929687 L 238.4199981689453 -287.3829956054687 L 238.3939971923828 -287.33999633789057 L 238.37100219726562 -287.29699707031244 L 238.3489990234375 -287.2529907226562 L 238.33897399902344 -287.2319946289062 L 238.3280029296875 -287.20901489257807 L 238.3090057373047 -287.1640014648437 L 238.29100036621094 -287.1180114746093 L 238.27499389648438 -287.0719909667968 L 238.26100158691406 -287.02600097656244 L 238.2480010986328 -286.98001098632807 L 238.23599243164062 -286.93301391601557 L 238.2270050048828 -286.88598632812494 L 238.21800231933594 -286.83801269531244 L 238.21099853515625 -286.7900085449218 L 238.20599365234375 -286.7430114746093 L 238.20408630371094 -286.72000122070307 L 238.20199584960938 -286.6950073242187 L 238.1999969482422 -286.64700317382807 L 238.19900512695312 -286.59899902343744 L 238.1999969482422 -286.5509948730468 L 238.20199584960938 -286.5029907226562 L 238.20599365234375 -286.45498657226557 L 238.21099853515625 -286.40701293945307 L 238.21800231933594 -286.35900878906244 L 238.23599243164062 -286.26501464843744 L 238.2480010986328 -286.2179870605468 L 238.25076293945312 -286.20800781249994 L 238.26100158691406 -286.1709899902343 L 238.27499389648438 -286.12499999999994 L 238.29100036621094 -286.07901000976557 L 238.3090057373047 -286.0339965820312 L 238.3280029296875 -285.98901367187494 L 238.3489990234375 -285.94400024414057 L 238.37100219726562 -285.90100097656244 L 238.3939971923828 -285.8569946289062 L 238.4459991455078 -285.7730102539062 L 238.47500610351562 -285.73098754882807 L 238.50038146972656 -285.6960144042968 L 238.50399780273438 -285.6910095214843 L 238.53599548339844 -285.65100097656244 L 238.5679931640625 -285.6119995117187 M 262.7980041503906 -286.64700317382807 L 262.7969970703125 -286.59899902343744 L 262.7980041503906 -286.5509948730468 L 262.79998779296875 -286.5029907226562 L 262.8039855957031 -286.45498657226557 L 262.8089904785156 -286.40701293945307 L 262.8160095214844 -286.35900878906244 L 262.82501220703125 -286.31201171874994 L 262.8349914550781 -286.26501464843744 L 262.84600830078125 -286.2179870605468 L 262.8487548828125 -286.20800781249994 L 262.8590087890625 -286.1709899902343 L 262.8739929199219 -286.12499999999994 L 262.8900146484375 -286.07901000976557 L 262.9070129394531 -286.03298950195307 L 262.9259948730469 -285.9880065917968 L 262.9469909667969 -285.94400024414057 L 262.968994140625 -285.8999938964843 L 262.9930114746094 -285.8569946289062 L 263.01800537109375 -285.81399536132807 L 263.0450134277344 -285.77200317382807 L 263.072998046875 -285.73098754882807 L 263.0986022949219 -285.6960144042968 L 263.1029968261719 -285.6900024414062 L 263.1340026855469 -285.6499938964843 L 263.1669921875 -285.6119995117187 L 263.1679992675781 -285.61083984374994 L 263.20098876953125 -285.57299804687494 L 263.23699951171875 -285.53601074218744 L 263.27398681640625 -285.49999999999994 L 263.31201171875 -285.4660034179687 L 263.35101318359375 -285.43301391601557 L 263.3909912109375 -285.40200805664057 L 263.4320068359375 -285.3720092773437 L 263.4729919433594 -285.34399414062494 L 263.5150146484375 -285.3169860839843 L 263.5580139160156 -285.29199218749994 L 263.60101318359375 -285.2680053710937 L 263.6449890136719 -285.24600219726557 L 263.67999267578125 -285.2293090820312 L 263.6889953613281 -285.22500610351557 L 263.7340087890625 -285.2059936523437 L 263.7799987792969 -285.18899536132807 L 263.82598876953125 -285.17300415039057 L 263.87200927734375 -285.15798950195307 L 263.91900634765625 -285.1449890136718 L 263.9649963378906 -285.1340026855468 L 264.01300048828125 -285.1239929199218 L 264.05999755859375 -285.11499023437494 L 264.1080017089844 -285.1080017089843 L 264.156005859375 -285.1029968261718 L 264.1919860839844 -285.10000610351557 L 264.2040100097656 -285.09899902343744 L 264.25201416015625 -285.0969848632812 L 264.29998779296875 -285.0960083007812 L 264.3479919433594 -285.0969848632812 L 264.39599609375 -285.09899902343744 L 264.4440002441406 -285.1029968261718 L 264.49200439453125 -285.1080017089843 L 264.53900146484375 -285.11499023437494 L 264.5870056152344 -285.1239929199218 L 264.6340026855469 -285.1340026855468 L 264.6809997558594 -285.1449890136718 L 264.7040100097656 -285.15148925781244 L 264.72698974609375 -285.15798950195307 L 264.77398681640625 -285.17300415039057 L 264.82000732421875 -285.18899536132807 L 264.864990234375 -285.2059936523437 L 264.9100036621094 -285.22500610351557 L 264.9549865722656 -285.24600219726557 L 264.99798583984375 -285.2680053710937 L 265.0419921875 -285.29199218749994 L 265.0840148925781 -285.3169860839843 L 265.1260070800781 -285.34399414062494 L 265.1679992675781 -285.3720092773437 L 265.2080078125 -285.40200805664057 L 265.21600341796875 -285.40820312499994 L 265.24798583984375 -285.43301391601557 L 265.2869873046875 -285.4660034179687 L 265.32501220703125 -285.49999999999994 L 265.36199951171875 -285.53601074218744 L 265.39801025390625 -285.57299804687494 L 265.4320068359375 -285.6119995117187 L 265.4649963378906 -285.6499938964843 L 265.49700927734375 -285.6900024414062 L 265.5012512207031 -285.6960144042968 L 265.55499267578125 -285.77200317382807 L 265.58099365234375 -285.81399536132807 L 265.60699462890625 -285.8569946289062 L 265.6300048828125 -285.8999938964843 L 265.6520080566406 -285.94400024414057 L 265.6730041503906 -285.9880065917968 L 265.6919860839844 -286.03298950195307 L 265.7099914550781 -286.07901000976557 L 265.72601318359375 -286.12499999999994 L 265.739990234375 -286.1709899902343 L 265.750244140625 -286.20800781249994 L 265.75299072265625 -286.2179870605468 L 265.7650146484375 -286.26501464843744 L 265.7749938964844 -286.31201171874994 L 265.7829895019531 -286.35900878906244 L 265.7900085449219 -286.40701293945307 L 265.7950134277344 -286.45498657226557 L 265.79901123046875 -286.5029907226562 L 265.8009948730469 -286.5509948730468 L 265.802001953125 -286.59899902343744 L 265.8009948730469 -286.64700317382807 L 265.79901123046875 -286.6950073242187 L 265.7969055175781 -286.72000122070307 L 265.7950134277344 -286.7430114746093 L 265.7900085449219 -286.7909851074218 L 265.7829895019531 -286.83801269531244 L 265.7749938964844 -286.88598632812494 L 265.7650146484375 -286.93301391601557 L 265.75299072265625 -286.98001098632807 L 265.739990234375 -287.02700805664057 L 265.72601318359375 -287.07299804687494 L 265.7099914550781 -287.1189880371093 L 265.6919860839844 -287.1640014648437 L 265.6730041503906 -287.20901489257807 L 265.6622619628906 -287.2319946289062 L 265.6520080566406 -287.2539978027343 L 265.6300048828125 -287.29800415039057 L 265.60699462890625 -287.3410034179687 L 265.58099365234375 -287.3840026855468 L 265.55499267578125 -287.4259948730468 L 265.5260009765625 -287.4670104980468 L 265.49700927734375 -287.50698852539057 L 265.4649963378906 -287.54699707031244 L 265.4320068359375 -287.5859985351562 L 265.39801025390625 -287.6239929199218 L 265.36199951171875 -287.66101074218744 L 265.32501220703125 -287.6969909667968 L 265.2869873046875 -287.7319946289062 L 265.2723693847656 -287.7439880371093 L 265.24798583984375 -287.7640075683593 L 265.21600341796875 -287.7896118164062 L 265.2080078125 -287.7959899902343 L 265.1679992675781 -287.8250122070312 L 265.1260070800781 -287.85400390624994 L 265.0840148925781 -287.88101196289057 L 265.0508728027344 -287.9007263183593 L 265.0419921875 -287.90600585937494 L 264.99798583984375 -287.92898559570307 L 264.9549865722656 -287.9519958496093 L 264.9100036621094 -287.9719848632812 L 264.864990234375 -287.99099731445307 L 264.82000732421875 -288.0090026855468 L 264.77398681640625 -288.0249938964843 L 264.72698974609375 -288.0390014648437 L 264.7040100097656 -288.0455017089843 L 264.6809997558594 -288.05200195312494 L 264.6340026855469 -288.06399536132807 L 264.5870056152344 -288.07400512695307 L 264.53900146484375 -288.0820007324218 L 264.49200439453125 -288.08898925781244 L 264.4440002441406 -288.09399414062494 L 264.39599609375 -288.0979919433593 L 264.3479919433594 -288.1010131835937 L 264.25201416015625 -288.1010131835937 L 264.2040100097656 -288.0979919433593 L 264.1919860839844 -288.0969848632812 L 264.156005859375 -288.09399414062494 L 264.1080017089844 -288.08898925781244 L 264.05999755859375 -288.0820007324218 L 264.01300048828125 -288.07400512695307 L 263.9649963378906 -288.06399536132807 L 263.91900634765625 -288.05200195312494 L 263.87200927734375 -288.0390014648437 L 263.82598876953125 -288.0249938964843 L 263.7799987792969 -288.0090026855468 L 263.7340087890625 -287.99099731445307 L 263.6889953613281 -287.9719848632812 L 263.67999267578125 -287.96789550781244 L 263.6449890136719 -287.9519958496093 L 263.60101318359375 -287.92898559570307 L 263.5580139160156 -287.90600585937494 L 263.5150146484375 -287.88101196289057 L 263.4729919433594 -287.85400390624994 L 263.3909912109375 -287.7959899902343 L 263.35101318359375 -287.7640075683593 L 263.3266296386719 -287.7439880371093 L 263.31201171875 -287.7319946289062 L 263.27398681640625 -287.6969909667968 L 263.23699951171875 -287.66101074218744 L 263.20098876953125 -287.6239929199218 L 263.1679992675781 -287.5871276855468 L 263.1669921875 -287.5859985351562 L 263.1340026855469 -287.54699707031244 L 263.1029968261719 -287.50698852539057 L 263.072998046875 -287.4670104980468 L 263.0450134277344 -287.4259948730468 L 263.01800537109375 -287.3840026855468 L 262.9930114746094 -287.3410034179687 L 262.968994140625 -287.29800415039057 L 262.9469909667969 -287.2539978027343 L 262.9367370605469 -287.2319946289062 L 262.9259948730469 -287.20901489257807 L 262.9070129394531 -287.1640014648437 L 262.8900146484375 -287.1189880371093 L 262.8739929199219 -287.07299804687494 L 262.8590087890625 -287.02700805664057 L 262.84600830078125 -286.98001098632807 L 262.8349914550781 -286.93301391601557 L 262.82501220703125 -286.88598632812494 L 262.8160095214844 -286.83801269531244 L 262.8089904785156 -286.7909851074218 L 262.8039855957031 -286.7430114746093 L 262.8020935058594 -286.72000122070307 L 262.79998779296875 -286.6950073242187 L 262.7980041503906 -286.64700317382807 M 272.3689880371094 -285.8999938964843 L 272.3840026855469 -285.8731384277343 L 272.39300537109375 -285.8569946289062 L 272.4179992675781 -285.81399536132807 L 272.44500732421875 -285.77200317382807 L 272.4729919433594 -285.73098754882807 L 272.49859619140625 -285.6960144042968 L 272.50299072265625 -285.6900024414062 L 272.53399658203125 -285.6499938964843 L 272.5669860839844 -285.6119995117187 L 272.60101318359375 -285.57299804687494 L 272.6369934082031 -285.53601074218744 L 272.67401123046875 -285.49999999999994 L 272.7120056152344 -285.4660034179687 L 272.7510070800781 -285.43301391601557 L 272.7909851074219 -285.40200805664057 L 272.83099365234375 -285.3720092773437 L 272.87298583984375 -285.34399414062494 L 272.89599609375 -285.32922363281244 L 272.9150085449219 -285.3169860839843 L 272.9580078125 -285.29199218749994 L 273.0010070800781 -285.2680053710937 L 273.0450134277344 -285.24600219726557 L 273.0889892578125 -285.22500610351557 L 273.1340026855469 -285.2059936523437 L 273.17999267578125 -285.18899536132807 L 273.2250061035156 -285.17300415039057 L 273.2720031738281 -285.15798950195307 L 273.3179931640625 -285.1449890136718 L 273.364990234375 -285.1340026855468 L 273.4079895019531 -285.12503051757807 L 273.4129943847656 -285.1239929199218 L 273.4599914550781 -285.11499023437494 L 273.50799560546875 -285.1080017089843 L 273.5559997558594 -285.1029968261718 L 273.6029968261719 -285.09899902343744 L 273.6520080566406 -285.0969848632812 L 273.70001220703125 -285.0960083007812 L 273.74798583984375 -285.0969848632812 L 273.7959899902344 -285.09899902343744 L 273.843994140625 -285.1029968261718 L 273.8909912109375 -285.1080017089843 L 273.9200134277344 -285.1122436523437 L 273.9389953613281 -285.11499023437494 L 273.98699951171875 -285.1239929199218 L 274.03399658203125 -285.1340026855468 L 274.08099365234375 -285.1449890136718 L 274.12701416015625 -285.15798950195307 L 274.17401123046875 -285.17300415039057 L 274.218994140625 -285.18899536132807 L 274.2650146484375 -285.2059936523437 L 274.30999755859375 -285.22500610351557 L 274.35400390625 -285.24600219726557 L 274.39801025390625 -285.2680053710937 L 274.4320068359375 -285.2865600585937 L 274.4419860839844 -285.29199218749994 L 274.4840087890625 -285.3169860839843 L 274.5260009765625 -285.34399414062494 L 274.5679931640625 -285.3720092773437 L 274.6080017089844 -285.40200805664057 L 274.64801025390625 -285.43301391601557 L 274.68701171875 -285.4660034179687 L 274.7250061035156 -285.49999999999994 L 274.7619934082031 -285.53601074218744 L 274.7980041503906 -285.57299804687494 L 274.8320007324219 -285.6119995117187 L 274.864990234375 -285.6499938964843 L 274.89599609375 -285.6900024414062 L 274.900390625 -285.6960144042968 L 274.9259948730469 -285.73098754882807 L 274.9549865722656 -285.77200317382807 L 274.9809875488281 -285.81399536132807 L 275.0060119628906 -285.8569946289062 L 275.0299987792969 -285.8999938964843 L 275.052001953125 -285.94400024414057 L 275.072998046875 -285.9880065917968 L 275.0920104980469 -286.03298950195307 L 275.1099853515625 -286.07901000976557 L 275.1260070800781 -286.12499999999994 L 275.1400146484375 -286.1709899902343 L 275.1502380371094 -286.20800781249994 L 275.15301513671875 -286.2179870605468 L 275.1650085449219 -286.26501464843744 L 275.17498779296875 -286.31201171874994 L 275.1830139160156 -286.35900878906244 L 275.19000244140625 -286.40701293945307 L 275.19500732421875 -286.45498657226557 L 275.1990051269531 -286.5029907226562 L 275.20098876953125 -286.5509948730468 L 275.2019958496094 -286.59899902343744 L 275.20098876953125 -286.64700317382807 L 275.1990051269531 -286.6950073242187 L 275.1969299316406 -286.72000122070307 L 275.19500732421875 -286.7430114746093 L 275.19000244140625 -286.7909851074218 L 275.1830139160156 -286.83801269531244 L 275.17498779296875 -286.88598632812494 L 275.1650085449219 -286.93301391601557 L 275.15301513671875 -286.98001098632807 L 275.1400146484375 -287.02700805664057 L 275.1260070800781 -287.07299804687494 L 275.1099853515625 -287.1189880371093 L 275.0920104980469 -287.1640014648437 L 275.072998046875 -287.20901489257807 L 275.062255859375 -287.2319946289062 L 275.052001953125 -287.2539978027343 L 275.0299987792969 -287.29800415039057 L 275.0060119628906 -287.3410034179687 L 274.9809875488281 -287.3840026855468 L 274.9549865722656 -287.4259948730468 L 274.9259948730469 -287.4670104980468 L 274.89599609375 -287.50698852539057 L 274.864990234375 -287.54699707031244 L 274.8320007324219 -287.5859985351562 L 274.7980041503906 -287.6239929199218 L 274.7619934082031 -287.66101074218744 L 274.7250061035156 -287.6969909667968 L 274.68701171875 -287.7319946289062 L 274.67236328125 -287.7439880371093 L 274.64801025390625 -287.7640075683593 L 274.6080017089844 -287.7959899902343 L 274.5679931640625 -287.8250122070312 L 274.5260009765625 -287.85400390624994 L 274.4840087890625 -287.88101196289057 L 274.4419860839844 -287.90600585937494 L 274.4320068359375 -287.9112243652343 L 274.35400390625 -287.9519958496093 L 274.30999755859375 -287.9719848632812 L 274.2650146484375 -287.99099731445307 L 274.218994140625 -288.0090026855468 L 274.17401123046875 -288.0249938964843 L 274.12701416015625 -288.0390014648437 L 274.08099365234375 -288.05200195312494 L 274.03399658203125 -288.06399536132807 L 273.98699951171875 -288.07400512695307 L 273.9389953613281 -288.0820007324218 L 273.9200134277344 -288.0847778320312 L 273.8909912109375 -288.08898925781244 L 273.843994140625 -288.09399414062494 L 273.7959899902344 -288.0979919433593 L 273.74798583984375 -288.1010131835937 L 273.6520080566406 -288.1010131835937 L 273.6029968261719 -288.0979919433593 L 273.5559997558594 -288.09399414062494 L 273.50799560546875 -288.08898925781244 L 273.4599914550781 -288.0820007324218 L 273.4129943847656 -288.07400512695307 L 273.4079895019531 -288.0729675292968 L 273.364990234375 -288.06399536132807 L 273.3179931640625 -288.05200195312494 L 273.2720031738281 -288.0390014648437 L 273.2250061035156 -288.0249938964843 L 273.17999267578125 -288.0090026855468 L 273.1340026855469 -287.99099731445307 L 273.0889892578125 -287.9719848632812 L 273.0450134277344 -287.9519958496093 L 273.0010070800781 -287.92898559570307 L 272.9580078125 -287.90600585937494 L 272.9150085449219 -287.88101196289057 L 272.89599609375 -287.86877441406244 L 272.87298583984375 -287.85400390624994 L 272.83099365234375 -287.8250122070312 L 272.7909851074219 -287.7959899902343 L 272.7510070800781 -287.7640075683593 L 272.72662353515625 -287.7439880371093 L 272.7120056152344 -287.7319946289062 L 272.67401123046875 -287.6969909667968 L 272.6369934082031 -287.66101074218744 L 272.60101318359375 -287.6239929199218 L 272.5669860839844 -287.5859985351562 L 272.53399658203125 -287.54699707031244 L 272.50299072265625 -287.50698852539057 L 272.4729919433594 -287.4670104980468 L 272.44500732421875 -287.4259948730468 L 272.4179992675781 -287.3840026855468 L 272.39300537109375 -287.3410034179687 L 272.3840026855469 -287.3248901367187 L 272.3689880371094 -287.29800415039057 L 272.34698486328125 -287.2539978027343 L 272.32598876953125 -287.20901489257807 L 272.3070068359375 -287.1640014648437 L 272.28900146484375 -287.1189880371093 L 272.27301025390625 -287.07299804687494 L 272.2590026855469 -287.02700805664057 L 272.2460021972656 -286.98001098632807 L 272.2340087890625 -286.93301391601557 L 272.2250061035156 -286.88598632812494 L 272.21600341796875 -286.83801269531244 L 272.2090148925781 -286.7909851074218 L 272.2040100097656 -286.7430114746093 L 272.20208740234375 -286.72000122070307 L 272.20001220703125 -286.6950073242187 L 272.197998046875 -286.64700317382807 L 272.1969909667969 -286.59899902343744 L 272.197998046875 -286.5509948730468 L 272.20001220703125 -286.5029907226562 L 272.2040100097656 -286.45498657226557 L 272.2090148925781 -286.40701293945307 L 272.21600341796875 -286.35900878906244 L 272.2340087890625 -286.26501464843744 L 272.2460021972656 -286.2179870605468 L 272.248779296875 -286.20800781249994 L 272.2590026855469 -286.1709899902343 L 272.27301025390625 -286.12499999999994 L 272.28900146484375 -286.07901000976557 L 272.3070068359375 -286.03298950195307 L 272.32598876953125 -285.9880065917968 L 272.34698486328125 -285.94400024414057 L 272.3689880371094 -285.8999938964843 M 233.27200317382812 -221.17199707031244 L 233.28977966308594 -221.18400573730463 L 233.43499755859375 -221.281997680664 L 233.4720001220703 -221.31425476074213 L 233.58299255371094 -221.41099548339838 L 233.71299743652344 -221.55900573730463 L 233.82200622558594 -221.72200012207026 L 233.90899658203125 -221.89900207519526 L 233.9720001220703 -222.08500671386713 L 234.00999450683594 -222.27799987792963 L 234.0229949951172 -222.47399902343744 L 234.00999450683594 -222.66999816894526 L 233.9720001220703 -222.8619995117187 L 233.90899658203125 -223.04899597167963 L 233.82200622558594 -223.22500610351557 L 233.71299743652344 -223.3880004882812 L 233.58299255371094 -223.53599548339838 L 233.4720001220703 -223.63349914550776 L 233.43499755859375 -223.66600036621088 L 233.27200317382812 -223.77499389648432 L 233.0959930419922 -223.8619995117187 L 232.90899658203125 -223.92500305175776 L 232.7169952392578 -223.96299743652338 L 232.52099609375 -223.97599792480463 L 232.3249969482422 -223.96299743652338 L 232.1320037841797 -223.92500305175776 L 231.9459991455078 -223.8619995117187 L 231.7689971923828 -223.77499389648432 L 231.6060028076172 -223.66600036621088 L 231.45799255371094 -223.53599548339838 L 231.32899475097656 -223.3880004882812 L 231.22372436523438 -223.2319946289062 L 231.218994140625 -223.22500610351557 L 231.1320037841797 -223.04899597167963 L 231.06900024414062 -222.8619995117187 L 231.031005859375 -222.66999816894526 L 231.01800537109375 -222.47399902343744 L 231.031005859375 -222.27799987792963 L 231.06900024414062 -222.08500671386713 L 231.1320037841797 -221.89900207519526 L 231.218994140625 -221.72200012207026 L 231.32899475097656 -221.55900573730463 L 231.45799255371094 -221.41099548339838 L 231.6060028076172 -221.281997680664 L 231.751220703125 -221.18400573730463 L 231.7689971923828 -221.17199707031244 L 231.9459991455078 -221.08500671386713 L 232.1320037841797 -221.02200317382807 L 232.3249969482422 -220.98399353027338 L 232.52099609375 -220.97099304199213 L 232.7169952392578 -220.98399353027338 L 232.90899658203125 -221.02200317382807 L 233.0959930419922 -221.08500671386713 L 233.27200317382812 -221.17199707031244 M 308.2829895019531 -220.98399353027338 L 308.47900390625 -220.97099304199213 L 308.6759948730469 -220.98399353027338 L 308.8680114746094 -221.02200317382807 L 309.0539855957031 -221.08500671386713 L 309.2309875488281 -221.17199707031244 L 309.248779296875 -221.18400573730463 L 309.3940124511719 -221.281997680664 L 309.5419921875 -221.41099548339838 L 309.6709899902344 -221.55900573730463 L 309.781005859375 -221.72200012207026 L 309.8680114746094 -221.89900207519526 L 309.9309997558594 -222.08500671386713 L 309.968994140625 -222.27799987792963 L 309.98199462890625 -222.47399902343744 L 309.968994140625 -222.66999816894526 L 309.9309997558594 -222.8619995117187 L 309.8680114746094 -223.04899597167963 L 309.781005859375 -223.22500610351557 L 309.7762756347656 -223.2319946289062 L 309.6709899902344 -223.3880004882812 L 309.5419921875 -223.53599548339838 L 309.3940124511719 -223.66600036621088 L 309.24798583984375 -223.76362609863276 L 309.2309875488281 -223.77499389648432 L 309.0539855957031 -223.8619995117187 L 308.8680114746094 -223.92500305175776 L 308.6759948730469 -223.96299743652338 L 308.47900390625 -223.97599792480463 L 308.2829895019531 -223.96299743652338 L 308.09100341796875 -223.92500305175776 L 307.90399169921875 -223.8619995117187 L 307.7279968261719 -223.77499389648432 L 307.56500244140625 -223.66600036621088 L 307.4169921875 -223.53599548339838 L 307.2869873046875 -223.3880004882812 L 307.20001220703125 -223.25790405273432 L 307.1780090332031 -223.22500610351557 L 307.09100341796875 -223.04899597167963 L 307.02801513671875 -222.8619995117187 L 306.989990234375 -222.66999816894526 L 306.97698974609375 -222.47399902343744 L 306.989990234375 -222.27799987792963 L 307.02801513671875 -222.08500671386713 L 307.09100341796875 -221.89900207519526 L 307.1780090332031 -221.72200012207026 L 307.20001220703125 -221.6891021728515 L 307.2869873046875 -221.55900573730463 L 307.4169921875 -221.41099548339838 L 307.56500244140625 -221.281997680664 L 307.710205078125 -221.18400573730463 L 307.7279968261719 -221.17199707031244 L 307.90399169921875 -221.08500671386713 L 308.09100341796875 -221.02200317382807 L 308.2829895019531 -220.98399353027338 M 290.99798583984375 -243.50199890136713 L 290.99798583984375 -228.49699401855463 L 306.00299072265625 -228.49699401855463 L 306.00299072265625 -243.50199890136713 L 293.00799560546875 -243.50199890136713 L 290.99798583984375 -243.50199890136713 M 307.1780090332031 -173.77499389648435 L 307.20001220703125 -173.7420959472656 L 307.2869873046875 -173.61199951171872 L 307.4169921875 -173.46400451660153 L 307.56500244140625 -173.33399963378903 L 307.7279968261719 -173.2250061035156 L 307.90399169921875 -173.13800048828122 L 308.09100341796875 -173.07499694824216 L 308.2829895019531 -173.03700256347653 L 308.47900390625 -173.02400207519528 L 308.6759948730469 -173.03700256347653 L 308.8680114746094 -173.07499694824216 L 309.0539855957031 -173.13800048828122 L 309.2309875488281 -173.2250061035156 L 309.24798583984375 -173.23637390136716 L 309.3940124511719 -173.33399963378903 L 309.5419921875 -173.46400451660153 L 309.6709899902344 -173.61199951171872 L 309.781005859375 -173.77499389648435 L 309.8680114746094 -173.95199584960935 L 309.9113464355469 -174.08000183105466 L 309.9309997558594 -174.13800048828122 L 309.968994140625 -174.33000183105466 L 309.98199462890625 -174.52600097656247 L 309.968994140625 -174.7230072021484 L 309.9309997558594 -174.91499328613278 L 309.8680114746094 -175.10099792480466 L 309.781005859375 -175.27799987792966 L 309.6709899902344 -175.44099426269528 L 309.5419921875 -175.58900451660153 L 309.3940124511719 -175.71899414062497 L 309.24798583984375 -175.8166351318359 L 309.2309875488281 -175.82800292968747 L 309.0539855957031 -175.91499328613278 L 308.8680114746094 -175.97799682617185 L 308.6759948730469 -176.01600646972653 L 308.47900390625 -176.02900695800778 L 308.2829895019531 -176.01600646972653 L 308.09100341796875 -175.97799682617185 L 307.90399169921875 -175.91499328613278 L 307.7279968261719 -175.82800292968747 L 307.56500244140625 -175.71899414062497 L 307.4169921875 -175.58900451660153 L 307.2869873046875 -175.44099426269528 L 307.20001220703125 -175.3108978271484 L 307.1780090332031 -175.27799987792966 L 307.09100341796875 -175.10099792480466 L 307.02801513671875 -174.91499328613278 L 306.989990234375 -174.7230072021484 L 306.97698974609375 -174.52600097656247 L 306.989990234375 -174.33000183105466 L 307.02801513671875 -174.13800048828122 L 307.0476379394531 -174.08000183105466 L 307.09100341796875 -173.95199584960935 L 307.1780090332031 -173.77499389648435 M 232.7169952392578 -173.03700256347653 L 232.90899658203125 -173.07499694824216 L 233.0959930419922 -173.13800048828122 L 233.27200317382812 -173.2250061035156 L 233.43499755859375 -173.33399963378903 L 233.4720001220703 -173.36650085449216 L 233.58299255371094 -173.46400451660153 L 233.71299743652344 -173.61199951171872 L 233.82200622558594 -173.77499389648435 L 233.90899658203125 -173.95199584960935 L 233.95236206054688 -174.08000183105466 L 233.9720001220703 -174.13800048828122 L 234.00999450683594 -174.33000183105466 L 234.0229949951172 -174.52600097656247 L 234.00999450683594 -174.7230072021484 L 233.9720001220703 -174.91499328613278 L 233.90899658203125 -175.10099792480466 L 233.82200622558594 -175.27799987792966 L 233.71299743652344 -175.44099426269528 L 233.58299255371094 -175.58900451660153 L 233.4720001220703 -175.68649291992185 L 233.43499755859375 -175.71899414062497 L 233.27200317382812 -175.82800292968747 L 233.0959930419922 -175.91499328613278 L 232.90899658203125 -175.97799682617185 L 232.7169952392578 -176.01600646972653 L 232.52099609375 -176.02900695800778 L 232.3249969482422 -176.01600646972653 L 232.1320037841797 -175.97799682617185 L 231.9459991455078 -175.91499328613278 L 231.7689971923828 -175.82800292968747 L 231.6060028076172 -175.71899414062497 L 231.45799255371094 -175.58900451660153 L 231.4239959716797 -175.54998779296872 L 231.32899475097656 -175.44099426269528 L 231.218994140625 -175.27799987792966 L 231.1320037841797 -175.10099792480466 L 231.06900024414062 -174.91499328613278 L 231.031005859375 -174.7230072021484 L 231.01800537109375 -174.52600097656247 L 231.031005859375 -174.33000183105466 L 231.06900024414062 -174.13800048828122 L 231.08863830566406 -174.08000183105466 L 231.1320037841797 -173.95199584960935 L 231.218994140625 -173.77499389648435 L 231.32899475097656 -173.61199951171872 L 231.4239959716797 -173.50300598144528 L 231.45799255371094 -173.46400451660153 L 231.6060028076172 -173.33399963378903 L 231.7689971923828 -173.2250061035156 L 231.9459991455078 -173.13800048828122 L 232.1320037841797 -173.07499694824216 L 232.3249969482422 -173.03700256347653 L 232.52099609375 -173.02400207519528 L 232.7169952392578 -173.03700256347653 M 250.0540008544922 -200.4819946289062 L 250.25 -200.46899414062494 L 250.4459991455078 -200.4819946289062 L 250.63900756835938 -200.52000427246088 L 250.8249969482422 -200.58299255371088 L 251.00100708007812 -200.66999816894526 L 251.05215454101562 -200.7039947509765 L 251.1649932861328 -200.77900695800776 L 251.31199645996094 -200.9089965820312 L 251.44200134277344 -201.05700683593744 L 251.55099487304688 -201.22000122070307 L 251.63800048828125 -201.39599609374994 L 251.7010040283203 -201.58200073242182 L 251.74000549316406 -201.77499389648432 L 251.7530059814453 -201.97099304199213 L 251.74000549316406 -202.167007446289 L 251.7010040283203 -202.3600006103515 L 251.63800048828125 -202.54600524902338 L 251.55099487304688 -202.72300720214838 L 251.53160095214844 -202.75199890136713 L 251.44200134277344 -202.886001586914 L 251.31199645996094 -203.0339965820312 L 251.1649932861328 -203.16299438476557 L 251.00100708007812 -203.27299499511713 L 250.8249969482422 -203.35899353027338 L 250.63900756835938 -203.42300415039057 L 250.4459991455078 -203.4609985351562 L 250.25 -203.47399902343744 L 250.0540008544922 -203.4609985351562 L 249.86099243164062 -203.42300415039057 L 249.8560028076172 -203.4212799072265 L 249.6750030517578 -203.35899353027338 L 249.49899291992188 -203.27299499511713 L 249.3350067138672 -203.16299438476557 L 249.18800354003906 -203.0339965820312 L 249.05799865722656 -202.886001586914 L 248.96839904785156 -202.75199890136713 L 248.94900512695312 -202.72300720214838 L 248.86199951171875 -202.54600524902338 L 248.7989959716797 -202.3600006103515 L 248.75999450683594 -202.167007446289 L 248.7480010986328 -201.97099304199213 L 248.75999450683594 -201.77499389648432 L 248.7989959716797 -201.58200073242182 L 248.86199951171875 -201.39599609374994 L 248.94900512695312 -201.22000122070307 L 249.05799865722656 -201.05700683593744 L 249.18800354003906 -200.9089965820312 L 249.3350067138672 -200.77900695800776 L 249.44784545898438 -200.7039947509765 L 249.49899291992188 -200.66999816894526 L 249.6750030517578 -200.58299255371088 L 249.86099243164062 -200.52000427246088 L 250.0540008544922 -200.4819946289062 M 261.5539855957031 -200.4819946289062 L 261.75 -200.46899414062494 L 261.9460144042969 -200.4819946289062 L 262.1390075683594 -200.52000427246088 L 262.32501220703125 -200.58299255371088 L 262.5010070800781 -200.66999816894526 L 262.5521545410156 -200.7039947509765 L 262.6650085449219 -200.77900695800776 L 262.81201171875 -200.9089965820312 L 262.9419860839844 -201.05700683593744 L 263.0509948730469 -201.22000122070307 L 263.13800048828125 -201.39599609374994 L 263.20098876953125 -201.58200073242182 L 263.239990234375 -201.77499389648432 L 263.25299072265625 -201.97099304199213 L 263.239990234375 -202.167007446289 L 263.20098876953125 -202.3600006103515 L 263.13800048828125 -202.54600524902338 L 263.0509948730469 -202.72300720214838 L 263.0316162109375 -202.75199890136713 L 262.9419860839844 -202.886001586914 L 262.81201171875 -203.0339965820312 L 262.6650085449219 -203.16299438476557 L 262.5010070800781 -203.27299499511713 L 262.32501220703125 -203.35899353027338 L 262.1440124511719 -203.4212799072265 L 262.1390075683594 -203.42300415039057 L 261.9460144042969 -203.4609985351562 L 261.75 -203.47399902343744 L 261.5539855957031 -203.4609985351562 L 261.3609924316406 -203.42300415039057 L 261.17498779296875 -203.35899353027338 L 260.9989929199219 -203.27299499511713 L 260.8349914550781 -203.16299438476557 L 260.68798828125 -203.0339965820312 L 260.5580139160156 -202.886001586914 L 260.4683837890625 -202.75199890136713 L 260.4490051269531 -202.72300720214838 L 260.36199951171875 -202.54600524902338 L 260.29901123046875 -202.3600006103515 L 260.260009765625 -202.167007446289 L 260.24798583984375 -201.97099304199213 L 260.260009765625 -201.77499389648432 L 260.29901123046875 -201.58200073242182 L 260.36199951171875 -201.39599609374994 L 260.4490051269531 -201.22000122070307 L 260.5580139160156 -201.05700683593744 L 260.68798828125 -200.9089965820312 L 260.8349914550781 -200.77900695800776 L 260.9478454589844 -200.7039947509765 L 260.9989929199219 -200.66999816894526 L 261.17498779296875 -200.58299255371088 L 261.3609924316406 -200.52000427246088 L 261.5539855957031 -200.4819946289062 M 275.4989929199219 -200.66999816894526 L 275.67498779296875 -200.58299255371088 L 275.8609924316406 -200.52000427246088 L 276.0539855957031 -200.4819946289062 L 276.25 -200.46899414062494 L 276.4460144042969 -200.4819946289062 L 276.6390075683594 -200.52000427246088 L 276.82501220703125 -200.58299255371088 L 277.0010070800781 -200.66999816894526 L 277.0521545410156 -200.7039947509765 L 277.1650085449219 -200.77900695800776 L 277.31201171875 -200.9089965820312 L 277.4419860839844 -201.05700683593744 L 277.5509948730469 -201.22000122070307 L 277.63800048828125 -201.39599609374994 L 277.70098876953125 -201.58200073242182 L 277.739990234375 -201.77499389648432 L 277.75299072265625 -201.97099304199213 L 277.739990234375 -202.167007446289 L 277.70098876953125 -202.3600006103515 L 277.63800048828125 -202.54600524902338 L 277.5509948730469 -202.72300720214838 L 277.5316162109375 -202.75199890136713 L 277.4419860839844 -202.886001586914 L 277.31201171875 -203.0339965820312 L 277.1650085449219 -203.16299438476557 L 277.0010070800781 -203.27299499511713 L 276.82501220703125 -203.35899353027338 L 276.6390075683594 -203.42300415039057 L 276.4800109863281 -203.45429992675776 L 276.4460144042969 -203.4609985351562 L 276.25 -203.47399902343744 L 276.0539855957031 -203.4609985351562 L 275.8609924316406 -203.42300415039057 L 275.67498779296875 -203.35899353027338 L 275.4989929199219 -203.27299499511713 L 275.3349914550781 -203.16299438476557 L 275.18798828125 -203.0339965820312 L 275.0580139160156 -202.886001586914 L 274.9683837890625 -202.75199890136713 L 274.9490051269531 -202.72300720214838 L 274.86199951171875 -202.54600524902338 L 274.79901123046875 -202.3600006103515 L 274.760009765625 -202.167007446289 L 274.74798583984375 -201.97099304199213 L 274.760009765625 -201.77499389648432 L 274.79901123046875 -201.58200073242182 L 274.86199951171875 -201.39599609374994 L 274.9490051269531 -201.22000122070307 L 275.0580139160156 -201.05700683593744 L 275.18798828125 -200.9089965820312 L 275.3349914550781 -200.77900695800776 L 275.4478454589844 -200.7039947509765 L 275.4989929199219 -200.66999816894526 M 286.9989929199219 -200.66999816894526 L 287.17498779296875 -200.58299255371088 L 287.3609924316406 -200.52000427246088 L 287.5539855957031 -200.4819946289062 L 287.75 -200.46899414062494 L 287.9460144042969 -200.4819946289062 L 288.1390075683594 -200.52000427246088 L 288.32501220703125 -200.58299255371088 L 288.5010070800781 -200.66999816894526 L 288.5521545410156 -200.7039947509765 L 288.6650085449219 -200.77900695800776 L 288.76800537109375 -200.87008666992182 L 288.81201171875 -200.9089965820312 L 288.9419860839844 -201.05700683593744 L 289.0509948730469 -201.22000122070307 L 289.13800048828125 -201.39599609374994 L 289.20098876953125 -201.58200073242182 L 289.239990234375 -201.77499389648432 L 289.25299072265625 -201.97099304199213 L 289.239990234375 -202.167007446289 L 289.20098876953125 -202.3600006103515 L 289.13800048828125 -202.54600524902338 L 289.0509948730469 -202.72300720214838 L 289.0316162109375 -202.75199890136713 L 288.9419860839844 -202.886001586914 L 288.81201171875 -203.0339965820312 L 288.6650085449219 -203.16299438476557 L 288.5010070800781 -203.27299499511713 L 288.32501220703125 -203.35899353027338 L 288.1390075683594 -203.42300415039057 L 287.9460144042969 -203.4609985351562 L 287.75 -203.47399902343744 L 287.5539855957031 -203.4609985351562 L 287.3609924316406 -203.42300415039057 L 287.17498779296875 -203.35899353027338 L 286.9989929199219 -203.27299499511713 L 286.8349914550781 -203.16299438476557 L 286.7200012207031 -203.06208801269526 L 286.68798828125 -203.0339965820312 L 286.5580139160156 -202.886001586914 L 286.4490051269531 -202.72300720214838 L 286.36199951171875 -202.54600524902338 L 286.29901123046875 -202.3600006103515 L 286.260009765625 -202.167007446289 L 286.24798583984375 -201.97099304199213 L 286.260009765625 -201.77499389648432 L 286.29901123046875 -201.58200073242182 L 286.36199951171875 -201.39599609374994 L 286.4490051269531 -201.22000122070307 L 286.5580139160156 -201.05700683593744 L 286.68798828125 -200.9089965820312 L 286.7200012207031 -200.88070678710932 L 286.8349914550781 -200.77900695800776 L 286.9478454589844 -200.7039947509765 L 286.9989929199219 -200.66999816894526 M 250.0540008544922 -183.0099945068359 L 250.25 -182.99800109863278 L 250.4459991455078 -183.0099945068359 L 250.63900756835938 -183.04899597167966 L 250.8249969482422 -183.11199951171872 L 251.00100708007812 -183.1990051269531 L 251.1649932861328 -183.30799865722653 L 251.31199645996094 -183.43800354003903 L 251.44200134277344 -183.58500671386716 L 251.55099487304688 -183.74899291992185 L 251.63800048828125 -183.92500305175778 L 251.7010040283203 -184.1109924316406 L 251.74000549316406 -184.30400085449216 L 251.74105834960938 -184.32000732421872 L 251.7530059814453 -184.49999999999997 L 251.74000549316406 -184.69599914550778 L 251.7010040283203 -184.88900756835935 L 251.63800048828125 -185.07499694824216 L 251.55099487304688 -185.2510070800781 L 251.44200134277344 -185.41499328613278 L 251.31199645996094 -185.56300354003903 L 251.1649932861328 -185.6920013427734 L 251.00100708007812 -185.80099487304685 L 250.8800048828125 -185.86080932617185 L 250.8249969482422 -185.88800048828122 L 250.63900756835938 -185.95100402832028 L 250.4459991455078 -185.99000549316403 L 250.25 -186.00300598144528 L 250.0540008544922 -185.99000549316403 L 249.86099243164062 -185.95100402832028 L 249.8560028076172 -185.94931030273435 L 249.6750030517578 -185.88800048828122 L 249.49899291992188 -185.80099487304685 L 249.3350067138672 -185.6920013427734 L 249.18800354003906 -185.56300354003903 L 249.05799865722656 -185.41499328613278 L 248.94900512695312 -185.2510070800781 L 248.86199951171875 -185.07499694824216 L 248.7989959716797 -184.88900756835935 L 248.75999450683594 -184.69599914550778 L 248.7480010986328 -184.49999999999997 L 248.75901794433594 -184.32000732421872 L 248.75999450683594 -184.30400085449216 L 248.7989959716797 -184.1109924316406 L 248.86199951171875 -183.92500305175778 L 248.94900512695312 -183.74899291992185 L 249.05799865722656 -183.58500671386716 L 249.18800354003906 -183.43800354003903 L 249.3350067138672 -183.30799865722653 L 249.49899291992188 -183.1990051269531 L 249.6750030517578 -183.11199951171872 L 249.8560028076172 -183.0506896972656 L 249.86099243164062 -183.04899597167966 L 250.0540008544922 -183.0099945068359 M 261.5539855957031 -183.0099945068359 L 261.75 -182.99800109863278 L 261.9460144042969 -183.0099945068359 L 262.1390075683594 -183.04899597167966 L 262.1440124511719 -183.0506896972656 L 262.32501220703125 -183.11199951171872 L 262.5010070800781 -183.1990051269531 L 262.6650085449219 -183.30799865722653 L 262.81201171875 -183.43800354003903 L 262.9419860839844 -183.58500671386716 L 263.0509948730469 -183.74899291992185 L 263.13800048828125 -183.92500305175778 L 263.20098876953125 -184.1109924316406 L 263.239990234375 -184.30400085449216 L 263.2410583496094 -184.32000732421872 L 263.25299072265625 -184.49999999999997 L 263.239990234375 -184.69599914550778 L 263.20098876953125 -184.88900756835935 L 263.13800048828125 -185.07499694824216 L 263.0509948730469 -185.2510070800781 L 262.9419860839844 -185.41499328613278 L 262.81201171875 -185.56300354003903 L 262.6650085449219 -185.6920013427734 L 262.5010070800781 -185.80099487304685 L 262.32501220703125 -185.88800048828122 L 262.1440124511719 -185.94931030273435 L 262.1390075683594 -185.95100402832028 L 261.9460144042969 -185.99000549316403 L 261.75 -186.00300598144528 L 261.5539855957031 -185.99000549316403 L 261.3609924316406 -185.95100402832028 L 261.17498779296875 -185.88800048828122 L 261.1199951171875 -185.86080932617185 L 260.9989929199219 -185.80099487304685 L 260.8349914550781 -185.6920013427734 L 260.68798828125 -185.56300354003903 L 260.5580139160156 -185.41499328613278 L 260.4490051269531 -185.2510070800781 L 260.36199951171875 -185.07499694824216 L 260.29901123046875 -184.88900756835935 L 260.260009765625 -184.69599914550778 L 260.24798583984375 -184.49999999999997 L 260.259033203125 -184.32000732421872 L 260.260009765625 -184.30400085449216 L 260.29901123046875 -184.1109924316406 L 260.36199951171875 -183.92500305175778 L 260.4490051269531 -183.74899291992185 L 260.5580139160156 -183.58500671386716 L 260.68798828125 -183.43800354003903 L 260.8349914550781 -183.30799865722653 L 260.9989929199219 -183.1990051269531 L 261.17498779296875 -183.11199951171872 L 261.3609924316406 -183.04899597167966 L 261.5539855957031 -183.0099945068359 M 276.0539855957031 -183.0099945068359 L 276.25 -182.99800109863278 L 276.4460144042969 -183.0099945068359 L 276.4800109863281 -183.0168762207031 L 276.6390075683594 -183.04899597167966 L 276.82501220703125 -183.11199951171872 L 277.0010070800781 -183.1990051269531 L 277.1650085449219 -183.30799865722653 L 277.31201171875 -183.43800354003903 L 277.4419860839844 -183.58500671386716 L 277.5509948730469 -183.74899291992185 L 277.63800048828125 -183.92500305175778 L 277.70098876953125 -184.1109924316406 L 277.739990234375 -184.30400085449216 L 277.7410583496094 -184.32000732421872 L 277.75299072265625 -184.49999999999997 L 277.739990234375 -184.69599914550778 L 277.70098876953125 -184.88900756835935 L 277.63800048828125 -185.07499694824216 L 277.5509948730469 -185.2510070800781 L 277.4419860839844 -185.41499328613278 L 277.31201171875 -185.56300354003903 L 277.1650085449219 -185.6920013427734 L 277.0010070800781 -185.80099487304685 L 276.82501220703125 -185.88800048828122 L 276.6390075683594 -185.95100402832028 L 276.4800109863281 -185.98312377929685 L 276.4460144042969 -185.99000549316403 L 276.25 -186.00300598144528 L 276.0539855957031 -185.99000549316403 L 275.8609924316406 -185.95100402832028 L 275.67498779296875 -185.88800048828122 L 275.4989929199219 -185.80099487304685 L 275.45599365234375 -185.77241516113278 L 275.3349914550781 -185.6920013427734 L 275.18798828125 -185.56300354003903 L 275.0580139160156 -185.41499328613278 L 274.9490051269531 -185.2510070800781 L 274.86199951171875 -185.07499694824216 L 274.79901123046875 -184.88900756835935 L 274.760009765625 -184.69599914550778 L 274.74798583984375 -184.49999999999997 L 274.759033203125 -184.32000732421872 L 274.760009765625 -184.30400085449216 L 274.79901123046875 -184.1109924316406 L 274.86199951171875 -183.92500305175778 L 274.9490051269531 -183.74899291992185 L 275.0580139160156 -183.58500671386716 L 275.18798828125 -183.43800354003903 L 275.3349914550781 -183.30799865722653 L 275.4989929199219 -183.1990051269531 L 275.67498779296875 -183.11199951171872 L 275.8609924316406 -183.04899597167966 L 276.0539855957031 -183.0099945068359 M 286.68798828125 -183.43800354003903 L 286.7200012207031 -183.4096984863281 L 286.8349914550781 -183.30799865722653 L 286.9989929199219 -183.1990051269531 L 287.17498779296875 -183.11199951171872 L 287.3609924316406 -183.04899597167966 L 287.5539855957031 -183.0099945068359 L 287.75 -182.99800109863278 L 287.9460144042969 -183.0099945068359 L 288.1390075683594 -183.04899597167966 L 288.32501220703125 -183.11199951171872 L 288.5010070800781 -183.1990051269531 L 288.6650085449219 -183.30799865722653 L 288.76800537109375 -183.39909362792966 L 288.81201171875 -183.43800354003903 L 288.9419860839844 -183.58500671386716 L 289.0509948730469 -183.74899291992185 L 289.13800048828125 -183.92500305175778 L 289.20098876953125 -184.1109924316406 L 289.239990234375 -184.30400085449216 L 289.2410583496094 -184.32000732421872 L 289.25299072265625 -184.49999999999997 L 289.239990234375 -184.69599914550778 L 289.20098876953125 -184.88900756835935 L 289.13800048828125 -185.07499694824216 L 289.0509948730469 -185.2510070800781 L 288.9419860839844 -185.41499328613278 L 288.81201171875 -185.56300354003903 L 288.76800537109375 -185.60160827636716 L 288.6650085449219 -185.6920013427734 L 288.5010070800781 -185.80099487304685 L 288.32501220703125 -185.88800048828122 L 288.1390075683594 -185.95100402832028 L 287.9460144042969 -185.99000549316403 L 287.75 -186.00300598144528 L 287.5539855957031 -185.99000549316403 L 287.3609924316406 -185.95100402832028 L 287.17498779296875 -185.88800048828122 L 286.9989929199219 -185.80099487304685 L 286.8349914550781 -185.6920013427734 L 286.7200012207031 -185.59107971191403 L 286.68798828125 -185.56300354003903 L 286.5580139160156 -185.41499328613278 L 286.4490051269531 -185.2510070800781 L 286.36199951171875 -185.07499694824216 L 286.29901123046875 -184.88900756835935 L 286.260009765625 -184.69599914550778 L 286.24798583984375 -184.49999999999997 L 286.259033203125 -184.32000732421872 L 286.260009765625 -184.30400085449216 L 286.29901123046875 -184.1109924316406 L 286.36199951171875 -183.92500305175778 L 286.4490051269531 -183.74899291992185 L 286.5580139160156 -183.58500671386716 L 286.68798828125 -183.43800354003903 M 245.75999450683594 -291.0029907226562 L 245.50399780273438 -291.0029907226562 L 245.50399780273438 -290.99999999999994 L 245.50399780273438 -285.9979858398437 L 245.75999450683594 -285.9979858398437 L 258.5010070800781 -285.9979858398437 L 258.5010070800781 -290.99999999999994 L 258.5010070800781 -291.0029907226562 L 245.75999450683594 -291.0029907226562 M 217.9969940185547 -284.9979858398437 L 221.9980010986328 -284.9979858398437 L 223.99899291992188 -284.9979858398437 L 223.99899291992188 -290.99999999999994 L 217.9969940185547 -290.99999999999994 L 217.9969940185547 -284.9979858398437 M 292.4949951171875 -285.9979858398437 L 292.4949951171875 -290.99999999999994 L 292.4949951171875 -291.0029907226562 L 279.49798583984375 -291.0029907226562 L 279.49798583984375 -290.99999999999994 L 279.49798583984375 -285.9979858398437 L 292.4949951171875 -285.9979858398437 M 294.00201416015625 -282.1029968261718 L 262.7969970703125 -282.1029968261718 L 243.9969940185547 -282.1029968261718 L 243.9969940185547 -277.5979919433593 L 262.7969970703125 -277.5979919433593 L 294.00201416015625 -277.5979919433593 L 294.00201416015625 -282.1029968261718 M 231.9980010986328 -228.49699401855463 L 234.0229949951172 -228.49699401855463 L 247.0030059814453 -228.49699401855463 L 247.0030059814453 -243.50199890136713 L 244.99200439453125 -243.50199890136713 L 234.0229949951172 -243.50199890136713 L 231.9980010986328 -243.50199890136713 L 231.9980010986328 -228.49699401855463 M 238.9949951171875 -247.99699401855463 L 244.99200439453125 -247.99699401855463 L 244.99200439453125 -269.00500488281244 L 238.9949951171875 -269.00500488281244 L 238.9949951171875 -247.99699401855463 z" fill="none" stroke="rgb(255,0,0)" stroke-width="0.001mm" />
</svg>