<?xml version="1.0" standalone="no"?>
<!DOCTYPE svg PUBLIC "-//W3C//DTD SVG 1.1//EN"
  "http://www.w3.org/Graphics/SVG/1.1/DTD/svg11.dtd">
<svg width="244mm" height="151.99999999999997mm" viewBox="85 -91.99999999999999 244 151.99999999999997" xmlns="http://www.w3.org/2000/svg" version="1.1">
	<title>svgOutput</title>
	<desc>made with tinkercad</desc>
<path d="M 86 58.999999999999986 L 86 -23.965000152587887 L 86 -90.99999999999999 L 178.9759979248047 -90.99999999999999 L 206 -90.99999999999999 L 206 58.999999999999986 L 178.9759979248047 58.999999999999986 L 123.99800109863281 58.999999999999986 L 86 58.999999999999986 M 328 58.999999999999986 L 281.99700927734375 58.999999999999986 L 259.0360107421875 58.999999999999986 L 258.99200439453125 58.999999999999986 L 228.9969940185547 58.999999999999986 L 208 58.999999999999986 L 208 -58.00299835205077 L 208 -90.99999999999999 L 328 -90.99999999999999 L 328 -58.00299835205077 L 328 -55.00199890136717 L 328 -31.013565063476555 L 328 55.99900054931639 L 328 58.999999999999986 M 279.00201416015625 -9.501999855041502 L 259.0360107421875 -9.501999855041502 L 258.99200439453125 -9.501999855041502 L 256.99798583984375 -9.501999855041502 L 256.99798583984375 -25.50600051879882 L 253.9969940185547 -25.50600051879882 L 253.9969940185547 -9.501999855041502 L 253.9969940185547 -6.50099992752075 L 258.99200439453125 -6.50099992752075 L 259.0360107421875 -6.50099992752075 L 279.00201416015625 -6.50099992752075 L 281.99700927734375 -6.50099992752075 L 282.00299072265625 -6.50099992752075 L 282.00299072265625 -25.50600051879882 L 281.99700927734375 -25.50600051879882 L 279.00201416015625 -25.50600051879882 L 279.00201416015625 -9.501999855041502 M 231.9980010986328 -0.006000000052153951 L 258.99200439453125 -0.006000000052153951 L 259.0360107421875 -0.006000000052153951 L 281.99700927734375 -0.006000000052153951 L 310.00299072265625 -0.006000000052153951 L 310.00299072265625 -3.006000041961669 L 281.99700927734375 -3.006000041961669 L 279.00201416015625 -3.006000041961669 L 259.0360107421875 -3.006000041961669 L 258.99200439453125 -3.006000041961669 L 253.9969940185547 -3.006000041961669 L 231.9980010986328 -3.006000041961669 L 228.9969940185547 -3.006000041961669 L 228.9969940185547 52.99900054931639 L 228.9969940185547 55.99900054931639 L 258.99200439453125 55.99900054931639 L 259.0360107421875 55.99900054931639 L 281.99700927734375 55.99900054931639 L 310.00299072265625 55.99900054931639 L 310.00299072265625 52.99900054931639 L 281.99700927734375 52.99900054931639 L 259.0360107421875 52.99900054931639 L 258.99200439453125 52.99900054931639 L 231.9980010986328 52.99900054931639 L 231.9980010986328 -0.006000000052153951 M 281.99700927734375 -30.995843887329094 L 282.00299072265625 -30.995845794677727 L 284.99700927734375 -30.99699974060058 L 284.99700927734375 -55.00199890136717 L 284.99700927734375 -58.00299835205077 L 258.99200439453125 -58.00299835205077 L 258.99200439453125 -55.00199890136717 L 281.99700927734375 -55.00199890136717 L 281.99700927734375 -33.998001098632805 L 259.0360107421875 -33.98600006103515 L 259.0360107421875 -30.986999511718743 L 279.00201416015625 -30.994689941406243 L 281.99700927734375 -30.995843887329094 M 178.9759979248047 54.00299835205077 L 178.9759979248047 -23.965000152587887 L 123.99800109863281 -23.965000152587887 L 123.99800109863281 54.00299835205077 L 178.9759979248047 54.00299835205077 z" fill="none" stroke="rgb(255,0,0)" stroke-width="0.001mm" />
</svg>