<?xml version="1.0" standalone="no"?>
<!DOCTYPE svg PUBLIC "-//W3C//DTD SVG 1.1//EN"
  "http://www.w3.org/Graphics/SVG/1.1/DTD/svg11.dtd">
<svg width="244mm" height="151.99999999999997mm" viewBox="85 -91.99999999999999 244 151.99999999999997" xmlns="http://www.w3.org/2000/svg" version="1.1">
	<title>svgOutput</title>
	<desc>made with tinkercad</desc>
<path d="M 278.00299072265625 58.999999999999986 L 278.00299072265625 55.997001647949205 L 257.99798583984375 55.997001647949205 L 257.99798583984375 58.999999999999986 L 257.0270080566406 58.999999999999986 L 250.9980010986328 58.999999999999986 L 248.0030059814453 58.999999999999986 L 248.0030059814453 55.997001647949205 L 227.9980010986328 55.997001647949205 L 227.9980010986328 58.999999999999986 L 218.00100708007812 58.999999999999986 L 214.9980010986328 55.997001647949205 L 211.0030059814453 52.00199890136717 L 208 48.99900054931639 L 208 39.00199890136718 L 211.0030059814453 39.00199890136718 L 211.0030059814453 -0.9980000257492062 L 211.0030059814453 -1.0030000209808345 L 208 -1.0030000209808345 L 208 -10.998000144958494 L 211.0030059814453 -10.998000144958494 L 211.0030059814453 -21.00300025939941 L 208 -21.00300025939941 L 208 -30.997999191284173 L 211.0030059814453 -30.997999191284173 L 211.0030059814453 -36.9990005493164 L 211.0030059814453 -42.998001098632805 L 211.0030059814453 -56.9980010986328 L 211.0030059814453 -71.00299835205077 L 208 -71.00299835205077 L 208 -80.99999999999999 L 211.0030059814453 -84.00299835205077 L 212.9980010986328 -85.9980010986328 L 215.0030059814453 -88.00299835205077 L 218 -90.99999999999999 L 227.9980010986328 -90.99999999999999 L 227.9980010986328 -87.9980010986328 L 248.0030059814453 -87.9980010986328 L 248.0030059814453 -90.99999999999999 L 250.9980010986328 -90.99999999999999 L 252.9980010986328 -90.99999999999999 L 257.99798583984375 -90.99999999999999 L 257.99798583984375 -87.9980010986328 L 278.00299072265625 -87.9980010986328 L 278.00299072265625 -90.99999999999999 L 282.00299072265625 -90.99999999999999 L 283.00299072265625 -90.99999999999999 L 287.99798583984375 -90.99999999999999 L 287.99798583984375 -87.9980010986328 L 308.00299072265625 -87.9980010986328 L 308.00299072265625 -90.99999999999999 L 318.0010070800781 -90.99999999999999 L 318.00299072265625 -90.9980010986328 L 320.99798583984375 -88.00299835205077 L 324.99798583984375 -84.00299835205077 L 328 -81.00099945068358 L 328 -71.00299835205077 L 324.99798583984375 -71.00299835205077 L 324.99798583984375 -59.00299835205077 L 324.99798583984375 -30.997999191284173 L 328 -30.997999191284173 L 328 -21.00300025939941 L 324.99798583984375 -21.00300025939941 L 324.99798583984375 -10.998000144958494 L 328 -10.998000144958494 L 328 -1.0030000209808345 L 324.99798583984375 -1.0030000209808345 L 324.99798583984375 39.00199890136718 L 328 39.00199890136718 L 328 48.999999999999986 L 324.99798583984375 52.00199890136717 L 323.99798583984375 53.00199890136717 L 321.00299072265625 55.997001647949205 L 318 58.999999999999986 L 308.00299072265625 58.999999999999986 L 308.00299072265625 55.997001647949205 L 287.99798583984375 55.997001647949205 L 287.99798583984375 58.999999999999986 L 282.00299072265625 58.999999999999986 L 278.00299072265625 58.999999999999986 M 206 -81.00299835205077 L 202.9969940185547 -81.00299835205077 L 202.9969940185547 -70.9980010986328 L 206 -70.9980010986328 L 206 -31.003000259399407 L 202.9969940185547 -31.003000259399407 L 202.9969940185547 -20.997999191284176 L 206 -20.997999191284176 L 206 -11.003000259399412 L 202.9969940185547 -11.003000259399412 L 202.9969940185547 -0.9969999790191647 L 206 -0.9969999790191647 L 206 38.998001098632805 L 202.9969940185547 38.998001098632805 L 202.9969940185547 49.00299835205077 L 206 49.00299835205077 L 206 58.999999999999986 L 202.9969940185547 58.999999999999986 L 196.0019989013672 58.999999999999986 L 196.0019989013672 55.997001647949205 L 185.9980010986328 55.997001647949205 L 185.9980010986328 58.999999999999986 L 166.0019989013672 58.999999999999986 L 166.0019989013672 55.997001647949205 L 155.9980010986328 55.997001647949205 L 155.9980010986328 58.999999999999986 L 151.0019989013672 58.999999999999986 L 136.0019989013672 58.999999999999986 L 136.0019989013672 55.997001647949205 L 135.5030059814453 55.997001647949205 L 130.4980010986328 55.997001647949205 L 125.99800109863281 55.997001647949205 L 125.99800109863281 58.999999999999986 L 112.00199890136719 58.999999999999986 L 109.83200073242188 58.999999999999986 L 109.15699768066406 58.999999999999986 L 106.20600128173828 58.999999999999986 L 106.00199890136719 58.999999999999986 L 106.00199890136719 55.997001647949205 L 105.99800109863281 55.997001647949205 L 105.90499877929688 55.997001647949205 L 95.99800109863281 55.997001647949205 L 95.99800109863281 58.999999999999986 L 89.00199890136719 58.999999999999986 L 86 58.999999999999986 L 86 49.00299835205077 L 89.00199890136719 49.00299835205077 L 89.00199890136719 38.998001098632805 L 86 38.998001098632805 L 86 -0.9969999790191647 L 89.00199890136719 -0.9969999790191647 L 89.00199890136719 -11.003000259399412 L 86 -11.003000259399412 L 86 -20.997999191284176 L 89.00199890136719 -20.997999191284176 L 89.00199890136719 -31.003000259399407 L 86 -31.003000259399407 L 86 -70.9980010986328 L 89.00199890136719 -70.9980010986328 L 89.00199890136719 -81.00299835205077 L 86 -81.00299835205077 L 86 -90.99999999999999 L 89.00199890136719 -90.99999999999999 L 95.99800109863281 -90.99999999999999 L 95.99800109863281 -87.9980010986328 L 105.90499877929688 -87.9980010986328 L 105.99800109863281 -87.9980010986328 L 106.00199890136719 -87.9980010986328 L 112.00199890136719 -87.9980010986328 L 116.00199890136719 -87.9980010986328 L 116.00199890136719 -90.99999999999999 L 118.16100311279297 -90.99999999999999 L 125.99800109863281 -90.99999999999999 L 130.4980010986328 -90.99999999999999 L 135.5030059814453 -90.99999999999999 L 136.0019989013672 -90.99999999999999 L 140.9980010986328 -90.99999999999999 L 140.9980010986328 -33.99700164794921 L 151.0019989013672 -33.99700164794921 L 151.0019989013672 -90.99999999999999 L 155.9980010986328 -90.99999999999999 L 155.9980010986328 -87.9980010986328 L 166.0019989013672 -87.9980010986328 L 166.0019989013672 -90.99999999999999 L 185.9980010986328 -90.99999999999999 L 185.9980010986328 -87.9980010986328 L 196.0019989013672 -87.9980010986328 L 196.0019989013672 -90.99999999999999 L 202.9969940185547 -90.99999999999999 L 206 -90.99999999999999 L 206 -81.00299835205077 M 279.0220031738281 -25.46699905395507 L 257.0270080566406 -25.46699905395507 L 257.0270080566406 -22.462999343872067 L 279.0220031738281 -22.462999343872067 L 279.0220031738281 -25.46699905395507 M 278.4989929199219 -73.9980010986328 L 282.00299072265625 -73.9980010986328 L 298.8009948730469 -73.9980010986328 L 308.00299072265625 -73.9980010986328 L 308.00299072265625 -78.00299835205077 L 282.00299072265625 -78.00299835205077 L 252.9980010986328 -78.00299835205077 L 250.9980010986328 -78.00299835205077 L 227.9980010986328 -78.00299835205077 L 227.9980010986328 -73.9980010986328 L 237.1999969482422 -73.9980010986328 L 250.9980010986328 -73.9980010986328 L 257.50201416015625 -73.9980010986328 L 261.7980041503906 -73.9980010986328 L 264.8030090332031 -73.9980010986328 L 271.197998046875 -73.9980010986328 L 274.2030029296875 -73.9980010986328 L 278.4989929199219 -73.9980010986328 M 271.8320007324219 -63.37400054931639 L 271.87200927734375 -63.34638214111327 L 271.8739929199219 -63.34500122070311 L 271.9580078125 -63.29299926757811 L 272.00201416015625 -63.27000045776366 L 272.0459899902344 -63.2480010986328 L 272.0899963378906 -63.22700119018553 L 272.135009765625 -63.208000183105455 L 272.17999267578125 -63.18999862670897 L 272.22601318359375 -63.17399978637694 L 272.27301025390625 -63.159999847412095 L 272.3190002441406 -63.146999359130845 L 272.3659973144531 -63.13499832153319 L 272.3840026855469 -63.1311683654785 L 272.4129943847656 -63.124999999999986 L 272.46099853515625 -63.11700057983397 L 272.5090026855469 -63.11000061035155 L 272.5559997558594 -63.104999542236314 L 272.60400390625 -63.10100173950194 L 272.6520080566406 -63.098999023437486 L 272.70001220703125 -63.09799957275389 L 272.74798583984375 -63.098999023437486 L 272.7959899902344 -63.10100173950194 L 272.843994140625 -63.104999542236314 L 272.8919982910156 -63.11000061035155 L 272.89599609375 -63.11058425903319 L 272.94000244140625 -63.11700057983397 L 272.98699951171875 -63.124999999999986 L 273.0350036621094 -63.13499832153319 L 273.08099365234375 -63.146999359130845 L 273.12799072265625 -63.159999847412095 L 273.17401123046875 -63.17399978637694 L 273.2200012207031 -63.18999862670897 L 273.2659912109375 -63.208000183105455 L 273.3110046386719 -63.22700119018553 L 273.3550109863281 -63.2480010986328 L 273.39898681640625 -63.27000045776366 L 273.4079895019531 -63.274814605712876 L 273.4419860839844 -63.29299926757811 L 273.4849853515625 -63.31900024414061 L 273.5270080566406 -63.34500122070311 L 273.6090087890625 -63.40299987792967 L 273.64898681640625 -63.435001373291 L 273.68798828125 -63.46799850463866 L 273.7103576660156 -63.48799896240233 L 273.72601318359375 -63.50199890136717 L 273.76300048828125 -63.537998199462876 L 273.79901123046875 -63.57500076293944 L 273.8330078125 -63.61299896240233 L 273.8659973144531 -63.65200042724608 L 273.8970031738281 -63.69200134277342 L 273.927001953125 -63.7319984436035 L 273.9549865722656 -63.77399826049803 L 273.98199462890625 -63.81600189208983 L 274.0069885253906 -63.85800170898436 L 274.031005859375 -63.90200042724608 L 274.0530090332031 -63.944999694824205 L 274.0740051269531 -63.99000167846678 L 274.0782165527344 -63.999999999999986 L 274.0929870605469 -64.03500366210936 L 274.1099853515625 -64.08000183105467 L 274.1260070800781 -64.12599945068358 L 274.1409912109375 -64.17299652099608 L 274.15399169921875 -64.21900177001952 L 274.1650085449219 -64.26599884033202 L 274.17498779296875 -64.31300354003905 L 274.1839904785156 -64.36100006103514 L 274.1910095214844 -64.40799713134764 L 274.1960144042969 -64.45600128173827 L 274.20001220703125 -64.50399780273436 L 274.2003479003906 -64.51200103759764 L 274.2019958496094 -64.55200195312499 L 274.2030029296875 -64.59999847412108 L 274.2019958496094 -64.6480026245117 L 274.20001220703125 -64.6959991455078 L 274.1960144042969 -64.74400329589842 L 274.1910095214844 -64.79199981689452 L 274.1839904785156 -64.83999633789061 L 274.17498779296875 -64.88700103759764 L 274.1650085449219 -64.93499755859374 L 274.15399169921875 -64.98100280761717 L 274.1421203613281 -65.0240020751953 L 274.1409912109375 -65.02799987792967 L 274.1260070800781 -65.07399749755858 L 274.1099853515625 -65.12000274658202 L 274.0929870605469 -65.16600036621092 L 274.0740051269531 -65.21099853515624 L 274.0530090332031 -65.25499725341795 L 274.031005859375 -65.2990036010742 L 274.0069885253906 -65.34200286865233 L 273.98199462890625 -65.38500213623045 L 273.9549865722656 -65.42700195312499 L 273.927001953125 -65.46800231933592 L 273.8970031738281 -65.50900268554686 L 273.8760681152344 -65.53600311279295 L 273.8659973144531 -65.5490036010742 L 273.8330078125 -65.58799743652342 L 273.79901123046875 -65.62599945068358 L 273.76300048828125 -65.66300201416014 L 273.72601318359375 -65.69899749755858 L 273.68798828125 -65.73300170898436 L 273.64898681640625 -65.76599884033202 L 273.6090087890625 -65.79699707031249 L 273.5679931640625 -65.82700347900389 L 273.5270080566406 -65.85500335693358 L 273.4849853515625 -65.88200378417967 L 273.4419860839844 -65.90699768066405 L 273.4079895019531 -65.9259796142578 L 273.39898681640625 -65.93099975585936 L 273.3550109863281 -65.95300292968749 L 273.3110046386719 -65.97399902343749 L 273.2659912109375 -65.9929962158203 L 273.2200012207031 -66.01000213623045 L 273.17401123046875 -66.02600097656249 L 273.12799072265625 -66.04100036621092 L 273.08099365234375 -66.05400085449217 L 273.0350036621094 -66.06500244140624 L 272.98699951171875 -66.07499694824217 L 272.94000244140625 -66.08399963378905 L 272.89599609375 -66.09041595458983 L 272.8919982910156 -66.09100341796874 L 272.843994140625 -66.0960006713867 L 272.7959899902344 -66.09999847412108 L 272.74798583984375 -66.10199737548827 L 272.70001220703125 -66.10299682617186 L 272.6520080566406 -66.10199737548827 L 272.60400390625 -66.09999847412108 L 272.5559997558594 -66.0960006713867 L 272.5090026855469 -66.09100341796874 L 272.46099853515625 -66.08399963378905 L 272.4129943847656 -66.07499694824217 L 272.3840026855469 -66.06883239746092 L 272.3659973144531 -66.06500244140624 L 272.3190002441406 -66.05400085449217 L 272.27301025390625 -66.04100036621092 L 272.22601318359375 -66.02600097656249 L 272.17999267578125 -66.01000213623045 L 272.135009765625 -65.9929962158203 L 272.0899963378906 -65.97399902343749 L 272.0459899902344 -65.95300292968749 L 272.00201416015625 -65.93099975585936 L 271.9580078125 -65.90699768066405 L 271.9159851074219 -65.88200378417967 L 271.8739929199219 -65.85500335693358 L 271.87200927734375 -65.85366821289061 L 271.8320007324219 -65.82700347900389 L 271.7919921875 -65.79699707031249 L 271.75201416015625 -65.76599884033202 L 271.7130126953125 -65.73300170898436 L 271.67498779296875 -65.69899749755858 L 271.63800048828125 -65.66300201416014 L 271.60198974609375 -65.62599945068358 L 271.5679931640625 -65.58799743652342 L 271.5350036621094 -65.5490036010742 L 271.52459716796875 -65.53600311279295 L 271.50299072265625 -65.50900268554686 L 271.44500732421875 -65.42700195312499 L 271.41900634765625 -65.38500213623045 L 271.39300537109375 -65.34200286865233 L 271.3699951171875 -65.2990036010742 L 271.3599853515625 -65.27899932861327 L 271.3479919433594 -65.25499725341795 L 271.3269958496094 -65.21099853515624 L 271.3080139160156 -65.16600036621092 L 271.2900085449219 -65.12000274658202 L 271.27398681640625 -65.07399749755858 L 271.260009765625 -65.02799987792967 L 271.2588806152344 -65.0240020751953 L 271.24700927734375 -64.98100280761717 L 271.2349853515625 -64.93499755859374 L 271.2250061035156 -64.88700103759764 L 271.2170104980469 -64.83999633789061 L 271.2099914550781 -64.79199981689452 L 271.2049865722656 -64.74400329589842 L 271.20098876953125 -64.6959991455078 L 271.1990051269531 -64.6480026245117 L 271.197998046875 -64.59999847412108 L 271.1990051269531 -64.55200195312499 L 271.2006530761719 -64.51200103759764 L 271.20098876953125 -64.50399780273436 L 271.2049865722656 -64.45600128173827 L 271.2099914550781 -64.40799713134764 L 271.2170104980469 -64.36100006103514 L 271.2250061035156 -64.31300354003905 L 271.2349853515625 -64.26599884033202 L 271.24700927734375 -64.21900177001952 L 271.260009765625 -64.17299652099608 L 271.27398681640625 -64.12599945068358 L 271.2900085449219 -64.08000183105467 L 271.3080139160156 -64.03500366210936 L 271.3269958496094 -63.99000167846678 L 271.3479919433594 -63.944999694824205 L 271.3599853515625 -63.92154693603514 L 271.3699951171875 -63.90200042724608 L 271.39300537109375 -63.85800170898436 L 271.44500732421875 -63.77399826049803 L 271.4739990234375 -63.7319984436035 L 271.50299072265625 -63.69200134277342 L 271.5350036621094 -63.65200042724608 L 271.5679931640625 -63.61299896240233 L 271.60198974609375 -63.57500076293944 L 271.63800048828125 -63.537998199462876 L 271.67498779296875 -63.50199890136717 L 271.6906433105469 -63.48799896240233 L 271.7130126953125 -63.46799850463866 L 271.75201416015625 -63.435001373291 L 271.7919921875 -63.40299987792967 L 271.8320007324219 -63.37400054931639 M 257.50201416015625 -69.00399780273436 L 250.9980010986328 -69.00399780273436 L 245.75999450683594 -69.00399780273436 L 244.5050048828125 -69.00399780273436 L 244.5050048828125 -63.999999999999986 L 245.75999450683594 -63.999999999999986 L 250.9980010986328 -63.999999999999986 L 257.50201416015625 -63.999999999999986 L 257.50201416015625 -69.00399780273436 M 261.79901123046875 -64.6480026245117 L 261.7980041503906 -64.59999847412108 L 261.79901123046875 -64.55200195312499 L 261.8006591796875 -64.51200103759764 L 261.8009948730469 -64.50399780273436 L 261.80499267578125 -64.45600128173827 L 261.80999755859375 -64.40799713134764 L 261.8169860839844 -64.36100006103514 L 261.82501220703125 -64.31300354003905 L 261.8349914550781 -64.26599884033202 L 261.84698486328125 -64.21900177001952 L 261.8599853515625 -64.17299652099608 L 261.8739929199219 -64.12599945068358 L 261.8900146484375 -64.08000183105467 L 261.9079895019531 -64.03500366210936 L 261.92279052734375 -63.999999999999986 L 261.927001953125 -63.99000167846678 L 261.947998046875 -63.944999694824205 L 261.9700012207031 -63.90200042724608 L 261.9939880371094 -63.85800170898436 L 262.0190124511719 -63.81600189208983 L 262.0450134277344 -63.77399826049803 L 262.0740051269531 -63.7319984436035 L 262.10400390625 -63.69200134277342 L 262.135009765625 -63.65200042724608 L 262.1440124511719 -63.64136505126952 L 262.1679992675781 -63.61299896240233 L 262.2019958496094 -63.57500076293944 L 262.2380065917969 -63.537998199462876 L 262.2749938964844 -63.50199890136717 L 262.2906494140625 -63.48799896240233 L 262.31298828125 -63.46799850463866 L 262.35198974609375 -63.435001373291 L 262.3919982910156 -63.40299987792967 L 262.4320068359375 -63.37400054931639 L 262.4739990234375 -63.34500122070311 L 262.5580139160156 -63.29299926757811 L 262.60198974609375 -63.27000045776366 L 262.64599609375 -63.2480010986328 L 262.656005859375 -63.2432289123535 L 262.69000244140625 -63.22700119018553 L 262.7349853515625 -63.208000183105455 L 262.781005859375 -63.18999862670897 L 262.82598876953125 -63.17399978637694 L 262.87298583984375 -63.159999847412095 L 262.91900634765625 -63.146999359130845 L 262.96600341796875 -63.13499832153319 L 263.0140075683594 -63.124999999999986 L 263.0610046386719 -63.11700057983397 L 263.1090087890625 -63.11000061035155 L 263.156005859375 -63.104999542236314 L 263.1679992675781 -63.10400009155272 L 263.2040100097656 -63.10100173950194 L 263.25201416015625 -63.098999023437486 L 263.29998779296875 -63.09799957275389 L 263.3489990234375 -63.098999023437486 L 263.3970031738281 -63.10100173950194 L 263.44500732421875 -63.104999542236314 L 263.49200439453125 -63.11000061035155 L 263.5400085449219 -63.11700057983397 L 263.5870056152344 -63.124999999999986 L 263.635009765625 -63.13499832153319 L 263.67999267578125 -63.14648818969725 L 263.6820068359375 -63.146999359130845 L 263.7279968261719 -63.159999847412095 L 263.7749938964844 -63.17399978637694 L 263.82000732421875 -63.18999862670897 L 263.8659973144531 -63.208000183105455 L 263.9110107421875 -63.22700119018553 L 263.9549865722656 -63.2480010986328 L 263.9989929199219 -63.27000045776366 L 264.0429992675781 -63.29299926757811 L 264.12701416015625 -63.34500122070311 L 264.16900634765625 -63.37400054931639 L 264.1919860839844 -63.39067459106444 L 264.2090148925781 -63.40299987792967 L 264.2489929199219 -63.435001373291 L 264.2879943847656 -63.46799850463866 L 264.31036376953125 -63.48799896240233 L 264.32598876953125 -63.50199890136717 L 264.3630065917969 -63.537998199462876 L 264.39898681640625 -63.57500076293944 L 264.4330139160156 -63.61299896240233 L 264.46600341796875 -63.65200042724608 L 264.49700927734375 -63.69200134277342 L 264.5270080566406 -63.7319984436035 L 264.55499267578125 -63.77399826049803 L 264.5820007324219 -63.81600189208983 L 264.60699462890625 -63.85800170898436 L 264.6310119628906 -63.90200042724608 L 264.65301513671875 -63.944999694824205 L 264.67401123046875 -63.99000167846678 L 264.67822265625 -63.999999999999986 L 264.6929931640625 -64.03500366210936 L 264.71099853515625 -64.08000183105467 L 264.72698974609375 -64.12599945068358 L 264.7409973144531 -64.17299652099608 L 264.7539978027344 -64.21900177001952 L 264.7659912109375 -64.26599884033202 L 264.7749938964844 -64.31300354003905 L 264.78399658203125 -64.36100006103514 L 264.7909851074219 -64.40799713134764 L 264.7959899902344 -64.45600128173827 L 264.79998779296875 -64.50399780273436 L 264.8003234863281 -64.51200103759764 L 264.802001953125 -64.55200195312499 L 264.8030090332031 -64.59999847412108 L 264.802001953125 -64.6480026245117 L 264.79998779296875 -64.6959991455078 L 264.7959899902344 -64.74400329589842 L 264.7909851074219 -64.79199981689452 L 264.78466796875 -64.8355026245117 L 264.78399658203125 -64.83999633789061 L 264.7749938964844 -64.88700103759764 L 264.7659912109375 -64.93499755859374 L 264.7539978027344 -64.98100280761717 L 264.7420959472656 -65.0240020751953 L 264.7409973144531 -65.02799987792967 L 264.72698974609375 -65.07399749755858 L 264.71099853515625 -65.12000274658202 L 264.6929931640625 -65.16600036621092 L 264.67401123046875 -65.21099853515624 L 264.65301513671875 -65.25499725341795 L 264.6310119628906 -65.2990036010742 L 264.60699462890625 -65.34200286865233 L 264.5820007324219 -65.38500213623045 L 264.55499267578125 -65.42700195312499 L 264.5270080566406 -65.46800231933592 L 264.49700927734375 -65.50900268554686 L 264.47607421875 -65.53600311279295 L 264.46600341796875 -65.5490036010742 L 264.4330139160156 -65.58799743652342 L 264.39898681640625 -65.62599945068358 L 264.3630065917969 -65.66300201416014 L 264.32598876953125 -65.69899749755858 L 264.2879943847656 -65.73300170898436 L 264.2489929199219 -65.76599884033202 L 264.2090148925781 -65.79699707031249 L 264.1919860839844 -65.80975341796874 L 264.16900634765625 -65.82700347900389 L 264.12701416015625 -65.85500335693358 L 264.0849914550781 -65.88200378417967 L 264.0429992675781 -65.90699768066405 L 263.9989929199219 -65.93099975585936 L 263.9549865722656 -65.95300292968749 L 263.9110107421875 -65.97399902343749 L 263.8659973144531 -65.9929962158203 L 263.82000732421875 -66.01000213623045 L 263.7749938964844 -66.02600097656249 L 263.7279968261719 -66.04100036621092 L 263.6820068359375 -66.05400085449217 L 263.67999267578125 -66.05446624755858 L 263.635009765625 -66.06500244140624 L 263.5870056152344 -66.07499694824217 L 263.5400085449219 -66.08399963378905 L 263.49200439453125 -66.09100341796874 L 263.44500732421875 -66.0960006713867 L 263.3970031738281 -66.09999847412108 L 263.3489990234375 -66.10199737548827 L 263.29998779296875 -66.10299682617186 L 263.25201416015625 -66.10199737548827 L 263.2040100097656 -66.09999847412108 L 263.1679992675781 -66.0970001220703 L 263.156005859375 -66.0960006713867 L 263.1090087890625 -66.09100341796874 L 263.0610046386719 -66.08399963378905 L 263.0140075683594 -66.07499694824217 L 262.96600341796875 -66.06500244140624 L 262.91900634765625 -66.05400085449217 L 262.87298583984375 -66.04100036621092 L 262.82598876953125 -66.02600097656249 L 262.781005859375 -66.01000213623045 L 262.7349853515625 -65.9929962158203 L 262.69000244140625 -65.97399902343749 L 262.656005859375 -65.95777130126952 L 262.64599609375 -65.95300292968749 L 262.60198974609375 -65.93099975585936 L 262.5580139160156 -65.90699768066405 L 262.5159912109375 -65.88200378417967 L 262.4739990234375 -65.85500335693358 L 262.4320068359375 -65.82700347900389 L 262.3919982910156 -65.79699707031249 L 262.35198974609375 -65.76599884033202 L 262.31298828125 -65.73300170898436 L 262.2749938964844 -65.69899749755858 L 262.2380065917969 -65.66300201416014 L 262.2019958496094 -65.62599945068358 L 262.1679992675781 -65.58799743652342 L 262.1440124511719 -65.55963897705077 L 262.135009765625 -65.5490036010742 L 262.12493896484375 -65.53600311279295 L 262.10400390625 -65.50900268554686 L 262.0740051269531 -65.46800231933592 L 262.0450134277344 -65.42700195312499 L 262.0190124511719 -65.38500213623045 L 261.9939880371094 -65.34200286865233 L 261.9700012207031 -65.2990036010742 L 261.947998046875 -65.25499725341795 L 261.927001953125 -65.21099853515624 L 261.9079895019531 -65.16600036621092 L 261.8900146484375 -65.12000274658202 L 261.8739929199219 -65.07399749755858 L 261.8599853515625 -65.02799987792967 L 261.85888671875 -65.0240020751953 L 261.84698486328125 -64.98100280761717 L 261.8349914550781 -64.93499755859374 L 261.82501220703125 -64.88700103759764 L 261.8169860839844 -64.83999633789061 L 261.80999755859375 -64.79199981689452 L 261.80499267578125 -64.74400329589842 L 261.8009948730469 -64.6959991455078 L 261.79901123046875 -64.6480026245117 M 250.9980010986328 -55.00299835205077 L 250.9980010986328 -52.00199890136717 L 282.00299072265625 -52.00199890136717 L 282.00299072265625 -55.00299835205077 L 278.4989929199219 -55.00299835205077 L 271.197998046875 -55.00299835205077 L 261.7980041503906 -55.00299835205077 L 250.9980010986328 -55.00299835205077 M 255.4980010986328 -86.00299835205077 L 252.9980010986328 -86.00299835205077 L 252.9980010986328 -82.9980010986328 L 255.4980010986328 -82.9980010986328 L 258.4989929199219 -82.9980010986328 L 258.4989929199219 -86.00299835205077 L 255.4980010986328 -86.00299835205077 M 215.0030059814453 -56.9980010986328 L 215.0030059814453 -59.00299835205077 L 212.9980010986328 -59.00299835205077 L 212.9980010986328 -56.9980010986328 L 215.0030059814453 -56.9980010986328 M 237.53599548339844 -63.65299987792967 L 237.5679931640625 -63.61518096923827 L 237.56900024414062 -63.61399841308592 L 237.60400390625 -63.57600021362303 L 237.63900756835938 -63.539001464843736 L 237.67599487304688 -63.50299835205077 L 237.69276428222656 -63.48799896240233 L 237.71400451660156 -63.46900177001952 L 237.7530059814453 -63.436000823974595 L 237.79299926757812 -63.40399932861327 L 237.875 -63.346000671386705 L 237.95899963378906 -63.293998718261705 L 238.0030059814453 -63.27099990844725 L 238.04600524902344 -63.24900054931639 L 238.0800018310547 -63.23313522338866 L 238.09100341796875 -63.228000640869126 L 238.13600158691406 -63.20899963378905 L 238.18099975585938 -63.19100189208983 L 238.2270050048828 -63.17499923706053 L 238.2729949951172 -63.16099929809569 L 238.32000732421875 -63.14799880981444 L 238.36700439453125 -63.13600158691405 L 238.46099853515625 -63.118000030517564 L 238.50900268554688 -63.11100006103514 L 238.55599975585938 -63.10599899291991 L 238.5919952392578 -63.103000640869126 L 238.60400390625 -63.10200119018553 L 238.65199279785156 -63.09999847412108 L 238.6999969482422 -63.098999023437486 L 238.7480010986328 -63.09999847412108 L 238.79600524902344 -63.10200119018553 L 238.843994140625 -63.10599899291991 L 238.89199829101562 -63.11100006103514 L 238.93899536132812 -63.118000030517564 L 238.98699951171875 -63.12699890136717 L 239.03399658203125 -63.13600158691405 L 239.08099365234375 -63.14799880981444 L 239.10400390625 -63.154499053955064 L 239.1269989013672 -63.16099929809569 L 239.1739959716797 -63.17499923706053 L 239.22000122070312 -63.19100189208983 L 239.26499938964844 -63.20899963378905 L 239.30999755859375 -63.228000640869126 L 239.35400390625 -63.24900054931639 L 239.3979949951172 -63.27099990844725 L 239.4409942626953 -63.293998718261705 L 239.48399353027344 -63.319999694824205 L 239.5260009765625 -63.346000671386705 L 239.60800170898438 -63.40399932861327 L 239.61599731445312 -63.41056442260741 L 239.64700317382812 -63.436000823974595 L 239.68600463867188 -63.46900177001952 L 239.7072296142578 -63.48799896240233 L 239.7239990234375 -63.50299835205077 L 239.76100158691406 -63.539001464843736 L 239.7969970703125 -63.57600021362303 L 239.83099365234375 -63.61399841308592 L 239.86399841308594 -63.65299987792967 L 239.89599609375 -63.69200134277342 L 239.95399475097656 -63.77399826049803 L 239.97999572753906 -63.81600189208983 L 240.0050048828125 -63.859001159667955 L 240.0290069580078 -63.90200042724608 L 240.05099487304688 -63.9459991455078 L 240.07200622558594 -63.99000167846678 L 240.0762176513672 -63.999999999999986 L 240.09100341796875 -64.03500366210936 L 240.10800170898438 -64.08100128173827 L 240.12399291992188 -64.12699890136717 L 240.13900756835938 -64.17299652099608 L 240.15199279785156 -64.21900177001952 L 240.16299438476562 -64.26599884033202 L 240.17300415039062 -64.31400299072264 L 240.1820068359375 -64.36100006103514 L 240.18800354003906 -64.40899658203124 L 240.19400024414062 -64.45600128173827 L 240.19424438476562 -64.45899963378905 L 240.197998046875 -64.50399780273436 L 240.19833374023438 -64.51200103759764 L 240.1999969482422 -64.55200195312499 L 240.2010040283203 -64.59999847412108 L 240.1999969482422 -64.6480026245117 L 240.197998046875 -64.6959991455078 L 240.19400024414062 -64.74400329589842 L 240.1820068359375 -64.83999633789061 L 240.17300415039062 -64.88700103759764 L 240.16299438476562 -64.93399810791014 L 240.15199279785156 -64.98100280761717 L 240.14010620117188 -65.0240020751953 L 240.13900756835938 -65.02799987792967 L 240.12399291992188 -65.07399749755858 L 240.10800170898438 -65.12000274658202 L 240.09100341796875 -65.16500091552733 L 240.07200622558594 -65.20999908447264 L 240.05099487304688 -65.25499725341795 L 240.0290069580078 -65.29799652099608 L 240.0050048828125 -65.34200286865233 L 239.97999572753906 -65.38400268554686 L 239.95399475097656 -65.42600250244139 L 239.9250030517578 -65.46800231933592 L 239.89599609375 -65.50800323486327 L 239.87359619140625 -65.53600311279295 L 239.86399841308594 -65.54799652099608 L 239.83099365234375 -65.58699798583983 L 239.7969970703125 -65.62499999999999 L 239.76100158691406 -65.66200256347655 L 239.7239990234375 -65.69799804687499 L 239.68600463867188 -65.73200225830077 L 239.64700317382812 -65.76499938964842 L 239.61599731445312 -65.78964233398436 L 239.60800170898438 -65.79599761962889 L 239.56700134277344 -65.82599639892577 L 239.5260009765625 -65.85399627685545 L 239.48399353027344 -65.88099670410155 L 239.4409942626953 -65.90599822998045 L 239.3979949951172 -65.93000030517577 L 239.35400390625 -65.95200347900389 L 239.30999755859375 -65.97299957275389 L 239.26499938964844 -65.9919967651367 L 239.22000122070312 -66.00900268554686 L 239.1739959716797 -66.02500152587889 L 239.1269989013672 -66.04000091552733 L 239.09869384765625 -66.04799652099608 L 239.08099365234375 -66.05300140380858 L 239.03399658203125 -66.06400299072264 L 238.98699951171875 -66.07399749755858 L 238.93899536132812 -66.08300018310545 L 238.89199829101562 -66.08899688720702 L 238.843994140625 -66.09500122070311 L 238.79600524902344 -66.09899902343749 L 238.7480010986328 -66.10099792480467 L 238.6999969482422 -66.10199737548827 L 238.65199279785156 -66.10099792480467 L 238.60400390625 -66.09899902343749 L 238.5919952392578 -66.09799957275389 L 238.55599975585938 -66.09500122070311 L 238.50900268554688 -66.08899688720702 L 238.46099853515625 -66.08300018310545 L 238.45899963378906 -66.08261871337889 L 238.41400146484375 -66.07399749755858 L 238.36700439453125 -66.06400299072264 L 238.32000732421875 -66.05300140380858 L 238.3019256591797 -66.04799652099608 L 238.2729949951172 -66.04000091552733 L 238.2270050048828 -66.02500152587889 L 238.18099975585938 -66.00900268554686 L 238.13600158691406 -65.9919967651367 L 238.09100341796875 -65.97299957275389 L 238.0800018310547 -65.96786499023436 L 238.04600524902344 -65.95200347900389 L 238.0030059814453 -65.93000030517577 L 237.95899963378906 -65.90599822998045 L 237.91700744628906 -65.88099670410155 L 237.875 -65.85399627685545 L 237.83399963378906 -65.82599639892577 L 237.79299926757812 -65.79599761962889 L 237.7530059814453 -65.76499938964842 L 237.71400451660156 -65.73200225830077 L 237.67599487304688 -65.69799804687499 L 237.63900756835938 -65.66200256347655 L 237.60400390625 -65.62499999999999 L 237.56900024414062 -65.58699798583983 L 237.5679931640625 -65.58581542968749 L 237.53599548339844 -65.54799652099608 L 237.52670288085938 -65.53600311279295 L 237.5050048828125 -65.50800323486327 L 237.47500610351562 -65.46800231933592 L 237.44700622558594 -65.42600250244139 L 237.4199981689453 -65.38400268554686 L 237.39500427246094 -65.34200286865233 L 237.3719940185547 -65.29799652099608 L 237.3489990234375 -65.25499725341795 L 237.34603881835938 -65.24832153320311 L 237.32899475097656 -65.20999908447264 L 237.30999755859375 -65.16500091552733 L 237.29200744628906 -65.12000274658202 L 237.2760009765625 -65.07399749755858 L 237.26199340820312 -65.02799987792967 L 237.26089477539062 -65.0240020751953 L 237.24899291992188 -64.98100280761717 L 237.23699951171875 -64.93399810791014 L 237.2270050048828 -64.88700103759764 L 237.218994140625 -64.83999633789061 L 237.21200561523438 -64.79199981689452 L 237.20700073242188 -64.74400329589842 L 237.2030029296875 -64.6959991455078 L 237.2010040283203 -64.6480026245117 L 237.1999969482422 -64.59999847412108 L 237.2010040283203 -64.55200195312499 L 237.20266723632812 -64.51200103759764 L 237.2030029296875 -64.50399780273436 L 237.20700073242188 -64.45600128173827 L 237.21200561523438 -64.40899658203124 L 237.218994140625 -64.36100006103514 L 237.2270050048828 -64.31400299072264 L 237.23699951171875 -64.26599884033202 L 237.24899291992188 -64.21900177001952 L 237.26199340820312 -64.17299652099608 L 237.2760009765625 -64.12699890136717 L 237.29200744628906 -64.08100128173827 L 237.30999755859375 -64.03500366210936 L 237.3247833251953 -63.999999999999986 L 237.32899475097656 -63.99000167846678 L 237.3489990234375 -63.9459991455078 L 237.3719940185547 -63.90200042724608 L 237.39500427246094 -63.859001159667955 L 237.4199981689453 -63.81600189208983 L 237.44700622558594 -63.77399826049803 L 237.47500610351562 -63.73300170898436 L 237.5050048828125 -63.69200134277342 L 237.53599548339844 -63.65299987792967 M 295.95001220703125 -63.9459991455078 L 295.97198486328125 -63.90200042724608 L 295.9949951171875 -63.859001159667955 L 296.02099609375 -63.81600189208983 L 296.0469970703125 -63.77399826049803 L 296.1050109863281 -63.69200134277342 L 296.16900634765625 -63.61399841308592 L 296.2040100097656 -63.57600021362303 L 296.239990234375 -63.539001464843736 L 296.2770080566406 -63.50299835205077 L 296.29376220703125 -63.48799896240233 L 296.31500244140625 -63.46900177001952 L 296.35400390625 -63.436000823974595 L 296.39300537109375 -63.40399932861327 L 296.447998046875 -63.36509704589842 L 296.4750061035156 -63.346000671386705 L 296.5169982910156 -63.319999694824205 L 296.55999755859375 -63.293998718261705 L 296.6029968261719 -63.27099990844725 L 296.6470031738281 -63.24900054931639 L 296.6910095214844 -63.228000640869126 L 296.7359924316406 -63.20899963378905 L 296.781005859375 -63.19100189208983 L 296.8269958496094 -63.17499923706053 L 296.87298583984375 -63.16099929809569 L 296.9200134277344 -63.14799880981444 L 296.9599914550781 -63.13778686523436 L 296.9670104980469 -63.13600158691405 L 297.0610046386719 -63.118000030517564 L 297.1090087890625 -63.11100006103514 L 297.1570129394531 -63.10599899291991 L 297.2049865722656 -63.10200119018553 L 297.25299072265625 -63.09999847412108 L 297.3009948730469 -63.098999023437486 L 297.3489990234375 -63.09999847412108 L 297.39599609375 -63.10200119018553 L 297.4440002441406 -63.10599899291991 L 297.47198486328125 -63.10891723632811 L 297.49200439453125 -63.11100006103514 L 297.5400085449219 -63.118000030517564 L 297.6340026855469 -63.13600158691405 L 297.6809997558594 -63.14799880981444 L 297.7279968261719 -63.16099929809569 L 297.77398681640625 -63.17499923706053 L 297.82000732421875 -63.19100189208983 L 297.864990234375 -63.20899963378905 L 297.9100036621094 -63.228000640869126 L 297.9540100097656 -63.24900054931639 L 297.9840087890625 -63.26399993896483 L 297.99798583984375 -63.27099990844725 L 298.0419921875 -63.293998718261705 L 298.1260070800781 -63.346000671386705 L 298.2080078125 -63.40399932861327 L 298.24798583984375 -63.436000823974595 L 298.2860107421875 -63.46900177001952 L 298.3072204589844 -63.48799896240233 L 298.3240051269531 -63.50299835205077 L 298.3609924316406 -63.539001464843736 L 298.3970031738281 -63.57600021362303 L 298.4320068359375 -63.61399841308592 L 298.4960021972656 -63.69200134277342 L 298.5539855957031 -63.77399826049803 L 298.5799865722656 -63.81600189208983 L 298.6059875488281 -63.859001159667955 L 298.6289978027344 -63.90200042724608 L 298.6510009765625 -63.9459991455078 L 298.6719970703125 -63.99000167846678 L 298.67620849609375 -63.999999999999986 L 298.6910095214844 -64.03500366210936 L 298.7090148925781 -64.08100128173827 L 298.7250061035156 -64.12699890136717 L 298.739013671875 -64.17299652099608 L 298.75201416015625 -64.21900177001952 L 298.76324462890625 -64.26300048828124 L 298.7640075683594 -64.26599884033202 L 298.77301025390625 -64.31400299072264 L 298.7820129394531 -64.36100006103514 L 298.78900146484375 -64.40899658203124 L 298.79400634765625 -64.45600128173827 L 298.7980041503906 -64.50399780273436 L 298.79833984375 -64.51200103759764 L 298.79998779296875 -64.55200195312499 L 298.8009948730469 -64.59999847412108 L 298.79998779296875 -64.6480026245117 L 298.7980041503906 -64.6959991455078 L 298.79400634765625 -64.74400329589842 L 298.78900146484375 -64.79199981689452 L 298.7820129394531 -64.83999633789061 L 298.7640075683594 -64.93399810791014 L 298.75201416015625 -64.98100280761717 L 298.7401123046875 -65.0240020751953 L 298.739013671875 -65.02799987792967 L 298.7250061035156 -65.07399749755858 L 298.7090148925781 -65.12000274658202 L 298.6910095214844 -65.16500091552733 L 298.6719970703125 -65.20999908447264 L 298.6510009765625 -65.25499725341795 L 298.6289978027344 -65.29799652099608 L 298.6059875488281 -65.34200286865233 L 298.5539855957031 -65.42600250244139 L 298.5249938964844 -65.46800231933592 L 298.4960021972656 -65.50800323486327 L 298.4736022949219 -65.53600311279295 L 298.4639892578125 -65.54799652099608 L 298.4320068359375 -65.58699798583983 L 298.3970031738281 -65.62499999999999 L 298.3609924316406 -65.66200256347655 L 298.3240051269531 -65.69799804687499 L 298.2860107421875 -65.73200225830077 L 298.24798583984375 -65.76499938964842 L 298.2080078125 -65.79599761962889 L 298.1669921875 -65.82599639892577 L 298.1260070800781 -65.85399627685545 L 298.0840148925781 -65.88099670410155 L 298.0419921875 -65.90599822998045 L 297.99798583984375 -65.93000030517577 L 297.9840087890625 -65.93699645996092 L 297.9540100097656 -65.95200347900389 L 297.9100036621094 -65.97299957275389 L 297.864990234375 -65.9919967651367 L 297.82000732421875 -66.00900268554686 L 297.77398681640625 -66.02500152587889 L 297.7279968261719 -66.04000091552733 L 297.6990661621094 -66.04799652099608 L 297.6809997558594 -66.05300140380858 L 297.6340026855469 -66.06400299072264 L 297.5870056152344 -66.07399749755858 L 297.5400085449219 -66.08300018310545 L 297.47198486328125 -66.09149932861327 L 297.4440002441406 -66.09500122070311 L 297.39599609375 -66.09899902343749 L 297.3489990234375 -66.10099792480467 L 297.3009948730469 -66.10199737548827 L 297.25299072265625 -66.10099792480467 L 297.2049865722656 -66.09899902343749 L 297.1570129394531 -66.09500122070311 L 297.0610046386719 -66.08300018310545 L 297.0140075683594 -66.07399749755858 L 296.9670104980469 -66.06400299072264 L 296.9599914550781 -66.06236267089842 L 296.9200134277344 -66.05300140380858 L 296.90191650390625 -66.04799652099608 L 296.87298583984375 -66.04000091552733 L 296.8269958496094 -66.02500152587889 L 296.781005859375 -66.00900268554686 L 296.7359924316406 -65.9919967651367 L 296.6910095214844 -65.97299957275389 L 296.6470031738281 -65.95200347900389 L 296.6029968261719 -65.93000030517577 L 296.55999755859375 -65.90599822998045 L 296.5169982910156 -65.88099670410155 L 296.4750061035156 -65.85399627685545 L 296.447998046875 -65.83556365966795 L 296.4339904785156 -65.82599639892577 L 296.39300537109375 -65.79599761962889 L 296.35400390625 -65.76499938964842 L 296.31500244140625 -65.73200225830077 L 296.2770080566406 -65.69799804687499 L 296.239990234375 -65.66200256347655 L 296.2040100097656 -65.62499999999999 L 296.16900634765625 -65.58699798583983 L 296.1369934082031 -65.54799652099608 L 296.1274108886719 -65.53600311279295 L 296.1050109863281 -65.50800323486327 L 296.07598876953125 -65.46800231933592 L 296.0469970703125 -65.42600250244139 L 295.9949951171875 -65.34200286865233 L 295.97198486328125 -65.29799652099608 L 295.95001220703125 -65.25499725341795 L 295.9360046386719 -65.22499847412108 L 295.9289855957031 -65.20999908447264 L 295.9100036621094 -65.16500091552733 L 295.8919982910156 -65.12000274658202 L 295.8760070800781 -65.07399749755858 L 295.86199951171875 -65.02799987792967 L 295.86090087890625 -65.0240020751953 L 295.8489990234375 -64.98100280761717 L 295.8380126953125 -64.93399810791014 L 295.8280029296875 -64.88700103759764 L 295.8190002441406 -64.83999633789061 L 295.81201171875 -64.79199981689452 L 295.8070068359375 -64.74400329589842 L 295.8030090332031 -64.6959991455078 L 295.8009948730469 -64.6480026245117 L 295.79998779296875 -64.59999847412108 L 295.8009948730469 -64.55200195312499 L 295.80267333984375 -64.51200103759764 L 295.8030090332031 -64.50399780273436 L 295.8070068359375 -64.45600128173827 L 295.81201171875 -64.40899658203124 L 295.8190002441406 -64.36100006103514 L 295.8280029296875 -64.31400299072264 L 295.8380126953125 -64.26599884033202 L 295.8489990234375 -64.21900177001952 L 295.86199951171875 -64.17299652099608 L 295.8760070800781 -64.12699890136717 L 295.8919982910156 -64.08100128173827 L 295.9100036621094 -64.03500366210936 L 295.9289855957031 -63.99000167846678 L 295.9360046386719 -63.975334167480455 L 295.95001220703125 -63.9459991455078 M 298.0060119628906 -53.00199890136717 L 298.0060119628906 -59.00500106811522 L 292.0039978027344 -59.00500106811522 L 292.0039978027344 -53.00199890136717 L 298.0060119628906 -53.00199890136717 M 118.16000366210938 26.60000038146972 L 112.00199890136719 26.60000038146972 L 109.83200073242188 26.60000038146972 L 109.15699768066406 26.60000038146972 L 106.20600128173828 26.60000038146972 L 106.00199890136719 26.60000038146972 L 105.99800109863281 26.60000038146972 L 105.90499877929688 26.60000038146972 L 105.90499877929688 29.04999923706054 L 105.99800109863281 29.04999923706054 L 106.00199890136719 29.04999923706054 L 106.20600128173828 29.04999923706054 L 109.15699768066406 29.04999923706054 L 109.83200073242188 29.04999923706054 L 112.00199890136719 29.04999923706054 L 118.16000366210938 29.04999923706054 L 118.16000366210938 26.60000038146972 M 257.0270080566406 -33.998001098632805 L 279.0220031738281 -33.998001098632805 L 282.00299072265625 -33.998001098632805 L 282.00299072265625 -36.9990005493164 L 250.9980010986328 -36.9990005493164 L 250.9980010986328 -33.998001098632805 L 257.0270080566406 -33.998001098632805 M 221.0030059814453 -31.003000259399407 L 217.9980010986328 -31.003000259399407 L 217.9980010986328 -0.9980000257492062 L 221.0030059814453 -0.9980000257492062 L 221.0030059814453 -31.003000259399407 M 282.00299072265625 -63.999999999999986 L 291.4960021972656 -63.999999999999986 L 291.4960021972656 -69.00399780273436 L 282.00299072265625 -69.00399780273436 L 278.4989929199219 -69.00399780273436 L 278.4989929199219 -63.999999999999986 L 282.00299072265625 -63.999999999999986 M 278.00201416015625 -82.9980010986328 L 282.00299072265625 -82.9980010986328 L 283.00299072265625 -82.9980010986328 L 283.00299072265625 -85.99999999999999 L 283.00299072265625 -86.00299835205077 L 282.00299072265625 -86.00299835205077 L 278.00201416015625 -86.00299835205077 L 278.00201416015625 -82.9980010986328 M 273.0010070800781 -82.9980010986328 L 273.0010070800781 -86.00299835205077 L 262.9989929199219 -86.00299835205077 L 262.9989929199219 -82.9980010986328 L 273.0010070800781 -82.9980010986328 M 212.9980010986328 -45.002998352050774 L 212.9980010986328 -42.998001098632805 L 215.0030059814453 -42.998001098632805 L 215.0030059814453 -45.002998352050774 L 212.9980010986328 -45.002998352050774 M 237.9949951171875 -53.00199890136717 L 243.9969940185547 -53.00199890136717 L 243.9969940185547 -59.00500106811522 L 237.9949951171875 -59.00500106811522 L 237.9949951171875 -53.00199890136717 M 216.9980010986328 -79.9980010986328 L 223 -79.9980010986328 L 223 -85.99999999999999 L 216.9980010986328 -85.99999999999999 L 216.9980010986328 -79.9980010986328 M 314.99798583984375 -3.003000020980834 L 314.99798583984375 53.00199890136717 L 318.00299072265625 53.00199890136717 L 318.00299072265625 -3.003000020980834 L 314.99798583984375 -3.003000020980834 M 313.0010070800781 -85.99999999999999 L 313.0010070800781 -82.9980010986328 L 313.0010070800781 -79.9980010986328 L 318.00299072265625 -79.9980010986328 L 319.00299072265625 -79.9980010986328 L 319.00299072265625 -85.99999999999999 L 318.00299072265625 -85.99999999999999 L 313.0010070800781 -85.99999999999999 M 323.00299072265625 -42.998001098632805 L 323.00299072265625 -45.002998352050774 L 320.99798583984375 -45.002998352050774 L 320.99798583984375 -42.998001098632805 L 323.00299072265625 -42.998001098632805 M 320.99798583984375 -56.9980010986328 L 323.00299072265625 -56.9980010986328 L 323.00299072265625 -59.00299835205077 L 320.99798583984375 -59.00299835205077 L 320.99798583984375 -56.9980010986328 M 130.4980010986328 -87.40299987792967 L 130.4980010986328 -82.3980026245117 L 135.5030059814453 -82.3980026245117 L 135.5030059814453 -87.40299987792967 L 130.4980010986328 -87.40299987792967 M 135.5030059814453 -47.40299987792968 L 130.4980010986328 -47.40299987792968 L 130.4980010986328 -42.397998809814446 L 135.5030059814453 -42.397998809814446 L 135.5030059814453 -47.40299987792968 M 105.99800109863281 4.998000144958495 L 105.99800109863281 7.002999782562254 L 106.00199890136719 7.002999782562254 L 106.20600128173828 7.002999782562254 L 109.15699768066406 7.002999782562254 L 109.83200073242188 7.002999782562254 L 112.00199890136719 7.002999782562254 L 112.00199890136719 4.998000144958495 L 106.00199890136719 4.998000144958495 L 105.99800109863281 4.998000144958495 M 90.697998046875 -52.20299911499022 L 94.00299835205078 -52.20299911499022 L 94.00299835205078 -57.699001312255845 L 90.697998046875 -57.699001312255845 L 90.697998046875 -52.20299911499022 M 94.00299835205078 -47.1969985961914 L 90.697998046875 -47.1969985961914 L 90.697998046875 -41.70100021362304 L 94.00299835205078 -41.70100021362304 L 94.00299835205078 -47.1969985961914 z" fill="none" stroke="rgb(255,0,0)" stroke-width="0.001mm" />
</svg>