<?xml version="1.0" standalone="no"?>
<!DOCTYPE svg PUBLIC "-//W3C//DTD SVG 1.1//EN"
  "http://www.w3.org/Graphics/SVG/1.1/DTD/svg11.dtd">
<svg width="313.76300048828125mm" height="186.09999847412107mm" viewBox="-355.76300048828125 -95.99999999999999 313.76300048828125 186.09999847412107" xmlns="http://www.w3.org/2000/svg" version="1.1">
	<title>svgOutput</title>
	<desc>made with tinkercad</desc>
<path d="M -350 81.99999999999999 L -350 80.99999999999999 L -350 71.99999999999999 L -353 71.99999999999999 L -353 70.99999999999999 L -353 61.999999999999986 L -350 61.999999999999986 L -300 61.999999999999986 L -300 70.99999999999999 L -300 71.99999999999999 L -297 71.99999999999999 L -297 80.99999999999999 L -297 81.99999999999999 L -300 81.99999999999999 L -350 81.99999999999999 M -263.62799072265625 -80.90100097656249 L -263.6253967285156 -80.89600372314452 L -263.6050109863281 -80.85700225830077 L -263.5799865722656 -80.81500244140624 L -263.5530090332031 -80.7730026245117 L -263.5249938964844 -80.73100280761717 L -263.4949951171875 -80.69100189208983 L -263.4639892578125 -80.65100097656249 L -263.4309997558594 -80.61199951171874 L -263.3970031738281 -80.57399749755858 L -263.3609924316406 -80.53700256347655 L -263.3240051269531 -80.50099945068358 L -263.2860107421875 -80.46700286865233 L -263.24700927734375 -80.43399810791014 L -263.2070007324219 -80.40299987792967 L -263.1679992675781 -80.37374877929686 L -263.1669921875 -80.3730010986328 L -263.125 -80.34500122070311 L -263.0830078125 -80.31800079345702 L -263.0409851074219 -80.29299926757811 L -262.99700927734375 -80.2689971923828 L -262.9540100097656 -80.2470016479492 L -262.90899658203125 -80.22599792480467 L -262.864013671875 -80.20700073242186 L -262.8190002441406 -80.19000244140624 L -262.77301025390625 -80.1740036010742 L -262.72698974609375 -80.15899658203124 L -262.67999267578125 -80.14600372314452 L -262.656005859375 -80.14038085937499 L -262.63299560546875 -80.13500213623045 L -262.58599853515625 -80.12499999999999 L -262.53900146484375 -80.1169967651367 L -262.4909973144531 -80.11000061035155 L -262.4440002441406 -80.10399627685545 L -262.3479919433594 -80.09799957275389 L -262.29998779296875 -80.0970001220703 L -262.25201416015625 -80.09799957275389 L -262.156005859375 -80.10399627685545 L -262.1440124511719 -80.10549926757811 L -262.1080017089844 -80.11000061035155 L -262.0610046386719 -80.1169967651367 L -262.01300048828125 -80.12499999999999 L -261.96600341796875 -80.13500213623045 L -261.91900634765625 -80.14600372314452 L -261.87298583984375 -80.15899658203124 L -261.82598876953125 -80.1740036010742 L -261.7799987792969 -80.19000244140624 L -261.7349853515625 -80.20700073242186 L -261.69000244140625 -80.22599792480467 L -261.64599609375 -80.2470016479492 L -261.6319885253906 -80.25399780273436 L -261.60198974609375 -80.2689971923828 L -261.5589904785156 -80.29299926757811 L -261.5159912109375 -80.31800079345702 L -261.4739990234375 -80.34500122070311 L -261.4330139160156 -80.3730010986328 L -261.3919982910156 -80.40299987792967 L -261.3529968261719 -80.43399810791014 L -261.3139953613281 -80.46700286865233 L -261.2760009765625 -80.50099945068358 L -261.239013671875 -80.53700256347655 L -261.2030029296875 -80.57399749755858 L -261.16900634765625 -80.61199951171874 L -261.135986328125 -80.65100097656249 L -261.1199951171875 -80.67164611816405 L -261.1050109863281 -80.69100189208983 L -261.07501220703125 -80.73100280761717 L -261.0469970703125 -80.7730026245117 L -261.0199890136719 -80.81500244140624 L -260.9949951171875 -80.85700225830077 L -260.9737243652344 -80.89600372314452 L -260.97100830078125 -80.90100097656249 L -260.9490051269531 -80.94400024414061 L -260.9280090332031 -80.98899841308592 L -260.90899658203125 -81.03399658203124 L -260.8919982910156 -81.07900238037108 L -260.8760070800781 -81.12499999999999 L -260.8609924316406 -81.17099761962889 L -260.8479919433594 -81.21800231933592 L -260.8370056152344 -81.26499938964842 L -260.8269958496094 -81.31199645996092 L -260.8179931640625 -81.35900115966795 L -260.8118896484375 -81.40799713134764 L -260.8059997558594 -81.45500183105467 L -260.802001953125 -81.50299835205077 L -260.79998779296875 -81.55100250244139 L -260.79901123046875 -81.59899902343749 L -260.79998779296875 -81.64700317382811 L -260.802001953125 -81.6949996948242 L -260.8059997558594 -81.7429962158203 L -260.81201171875 -81.79000091552733 L -260.8179931640625 -81.83799743652342 L -260.8183898925781 -81.84013366699217 L -260.8269958496094 -81.88600158691405 L -260.834228515625 -81.9199981689453 L -260.8370056152344 -81.93299865722655 L -260.8479919433594 -81.98000335693358 L -260.8609924316406 -82.02600097656249 L -260.8760070800781 -82.07199859619139 L -260.8919982910156 -82.1179962158203 L -260.90899658203125 -82.16400146484374 L -260.9280090332031 -82.20899963378905 L -260.9490051269531 -82.25299835205077 L -260.97100830078125 -82.29699707031249 L -260.9949951171875 -82.33999633789061 L -261.0199890136719 -82.38300323486327 L -261.0469970703125 -82.4250030517578 L -261.07501220703125 -82.46600341796874 L -261.1050109863281 -82.50700378417967 L -261.1199951171875 -82.52587127685545 L -261.135986328125 -82.54599761962889 L -261.16900634765625 -82.58499908447264 L -261.2030029296875 -82.6230010986328 L -261.239013671875 -82.66000366210936 L -261.2760009765625 -82.6959991455078 L -261.3139953613281 -82.73100280761717 L -261.3919982910156 -82.7949981689453 L -261.4739990234375 -82.85299682617186 L -261.5159912109375 -82.87899780273436 L -261.5589904785156 -82.90499877929686 L -261.60198974609375 -82.92800140380858 L -261.6340026855469 -82.94400024414061 L -261.64599609375 -82.94999694824217 L -261.69000244140625 -82.9710006713867 L -261.7349853515625 -82.98999786376952 L -261.7799987792969 -83.00800323486327 L -261.82598876953125 -83.0240020751953 L -261.87298583984375 -83.03800201416014 L -261.91900634765625 -83.05100250244139 L -261.96600341796875 -83.06300354003905 L -262.01300048828125 -83.07299804687499 L -262.0610046386719 -83.08100128173827 L -262.1080017089844 -83.08799743652342 L -262.1440124511719 -83.0917510986328 L -262.156005859375 -83.09300231933592 L -262.2040100097656 -83.0970001220703 L -262.25201416015625 -83.09899902343749 L -262.29998779296875 -83.09999847412108 L -262.3479919433594 -83.09899902343749 L -262.39599609375 -83.0970001220703 L -262.4440002441406 -83.09300231933592 L -262.4909973144531 -83.08799743652342 L -262.53900146484375 -83.08100128173827 L -262.58599853515625 -83.07299804687499 L -262.63299560546875 -83.06300354003905 L -262.656005859375 -83.05712890624999 L -262.67999267578125 -83.05100250244139 L -262.72698974609375 -83.03800201416014 L -262.77301025390625 -83.0240020751953 L -262.8190002441406 -83.00800323486327 L -262.864013671875 -82.98999786376952 L -262.90899658203125 -82.9710006713867 L -262.9540100097656 -82.94999694824217 L -262.9657287597656 -82.94400024414061 L -262.99700927734375 -82.92800140380858 L -263.0409851074219 -82.90499877929686 L -263.125 -82.85299682617186 L -263.1669921875 -82.82399749755858 L -263.1679992675781 -82.82327270507811 L -263.2070007324219 -82.7949981689453 L -263.24700927734375 -82.76300048828124 L -263.2860107421875 -82.73100280761717 L -263.3240051269531 -82.6959991455078 L -263.3609924316406 -82.66000366210936 L -263.3970031738281 -82.6230010986328 L -263.4309997558594 -82.58499908447264 L -263.4639892578125 -82.54599761962889 L -263.4949951171875 -82.50700378417967 L -263.5249938964844 -82.46600341796874 L -263.5482177734375 -82.43199920654295 L -263.5530090332031 -82.4250030517578 L -263.5799865722656 -82.38300323486327 L -263.6050109863281 -82.33999633789061 L -263.62799072265625 -82.29699707031249 L -263.6510009765625 -82.25299835205077 L -263.6709899902344 -82.20899963378905 L -263.69000244140625 -82.16400146484374 L -263.7080078125 -82.1179962158203 L -263.7239990234375 -82.07199859619139 L -263.7380065917969 -82.02600097656249 L -263.7510070800781 -81.98000335693358 L -263.76300048828125 -81.93299865722655 L -263.7657775878906 -81.9199981689453 L -263.77301025390625 -81.88600158691405 L -263.781005859375 -81.83799743652342 L -263.7879943847656 -81.79000091552733 L -263.7929992675781 -81.7429962158203 L -263.7969970703125 -81.6949996948242 L -263.79901123046875 -81.64700317382811 L -263.79998779296875 -81.59899902343749 L -263.79901123046875 -81.55100250244139 L -263.7969970703125 -81.50299835205077 L -263.7929992675781 -81.45500183105467 L -263.7881164550781 -81.40799713134764 L -263.7879943847656 -81.40699768066405 L -263.781005859375 -81.35900115966795 L -263.77301025390625 -81.31199645996092 L -263.76300048828125 -81.26499938964842 L -263.7510070800781 -81.21800231933592 L -263.7380065917969 -81.17099761962889 L -263.7239990234375 -81.12499999999999 L -263.7080078125 -81.07900238037108 L -263.69000244140625 -81.03399658203124 L -263.6709899902344 -80.98899841308592 L -263.6510009765625 -80.94400024414061 L -263.62799072265625 -80.90100097656249 M -293 -84.99999999999999 L -292 -85.99999999999999 L -286.00201416015625 -91.9980010986328 L -283 -94.99999999999999 L -273.00201416015625 -94.99999999999999 L -273.00201416015625 -91.9980010986328 L -263.79998779296875 -91.9980010986328 L -252.9969940185547 -91.9980010986328 L -252.9969940185547 -94.99999999999999 L -243.97300720214844 -94.99999999999999 L -243.4980010986328 -94.99999999999999 L -243.0019989013672 -94.99999999999999 L -243.0019989013672 -91.9980010986328 L -239.20199584960938 -91.9980010986328 L -236.19700622558594 -91.9980010986328 L -234 -91.9980010986328 L -231 -91.9980010986328 L -229.802001953125 -91.9980010986328 L -226.7969970703125 -91.9980010986328 L -222.9969940185547 -91.9980010986328 L -222.9969940185547 -94.99999999999999 L -222.50100708007812 -94.99999999999999 L -221.97799682617188 -94.99999999999999 L -221 -94.99999999999999 L -218.13699340820312 -94.99999999999999 L -214.9980010986328 -94.99999999999999 L -213.0019989013672 -94.99999999999999 L -213.0019989013672 -91.9980010986328 L -202.19900512695312 -91.9980010986328 L -192.9969940185547 -91.9980010986328 L -192.9969940185547 -94.99999999999999 L -182.99899291992188 -94.99999999999999 L -179.9969940185547 -91.9980010986328 L -173.99899291992188 -85.99999999999999 L -173 -85.00099945068358 L -173 -80.0970001220703 L -173 -79.9980010986328 L -173 -76.00299835205077 L -176.0030059814453 -76.00299835205077 L -176.0030059814453 -73.59799957275389 L -176.0030059814453 -69.09799957275389 L -176.0030059814453 -65.9980010986328 L -173 -65.9980010986328 L -173 -64.00499725341795 L -173 -42.99700164794921 L -173 -38.50199890136718 L -173 -26.003000259399407 L -176.0019989013672 -26.003000259399407 L -176.0019989013672 -15.998000144958493 L -173 -15.998000144958493 L -173 -15.970999717712399 L -173 -14.463000297546383 L -173 4.998000144958495 L -176.0019989013672 4.998000144958495 L -176.0019989013672 20.00300025939941 L -173 20.00300025939941 L -173 22.002000808715817 L -173 31.975999832153313 L -173 33.99999999999999 L -179.9969940185547 40.99700164794921 L -183 43.99999999999999 L -192.9969940185547 43.99999999999999 L -192.9969940185547 40.99700164794921 L -198.0229949951172 40.99700164794921 L -203.0030059814453 40.99700164794921 L -203.0030059814453 43.99999999999999 L -218.13699340820312 43.99999999999999 L -221 43.99999999999999 L -231 43.99999999999999 L -234 43.99999999999999 L -241.7530059814453 43.99999999999999 L -243.97300720214844 43.99999999999999 L -248.5030059814453 43.99999999999999 L -253.2530059814453 43.99999999999999 L -262.99798583984375 43.99999999999999 L -262.99798583984375 40.99700164794921 L -273.00201416015625 40.99700164794921 L -273.00201416015625 43.99999999999999 L -282.9989929199219 43.99999999999999 L -286.00201416015625 40.99700164794921 L -289.99700927734375 37.00199890136718 L -292.99700927734375 34.00199890136718 L -289.99700927734375 34.00199890136718 L -289.99700927734375 -6.002999782562254 L -293 -6.002999782562254 L -293 -41.9990005493164 L -293 -42.99700164794921 L -293 -59.9980010986328 L -289.99700927734375 -59.9980010986328 L -289.99700927734375 -64.00499725341795 L -289.99700927734375 -73.59799957275389 L -289.99700927734375 -76.00299835205077 L -293 -76.00299835205077 L -293 -77.10299682617186 L -293 -79.9980010986328 L -293 -84.99999999999999 M -299 33.87200164794921 L -301.8630065917969 33.87200164794921 L -301.8630065917969 47.999999999999986 L -302 47.999999999999986 L -323.8609924316406 47.999999999999986 L -328.46600341796875 47.999999999999986 L -329.8659973144531 47.999999999999986 L -331.8840026855469 47.999999999999986 L -351.76300048828125 47.999999999999986 L -351.8630065917969 47.999999999999986 L -351.8630065917969 43.09999847412109 L -354.76300048828125 43.09999847412109 L -354.76300048828125 33.09999847412109 L -351.8630065917969 33.09999847412109 L -351.8630065917969 4.0999999046325675 L -354.76300048828125 4.0999999046325675 L -354.76300048828125 -5.900000095367431 L -351.8630065917969 -5.900000095367431 L -351.8630065917969 -15.89999961853027 L -354.76300048828125 -15.89999961853027 L -354.76300048828125 -25.899999618530266 L -351.8630065917969 -25.899999618530266 L -351.8630065917969 -65.90000152587889 L -354.76300048828125 -65.90000152587889 L -354.76300048828125 -75.90000152587889 L -351.8630065917969 -75.90000152587889 L -351.8630065917969 -80.99999999999999 L -351.76300048828125 -80.99999999999999 L -331.8840026855469 -80.99999999999999 L -328.46600341796875 -80.99999999999999 L -325.260986328125 -80.99999999999999 L -323.8609924316406 -80.99999999999999 L -302 -80.99999999999999 L -301.8630065917969 -80.99999999999999 L -301.8630065917969 -75.99999999999999 L -299 -75.99999999999999 L -299 -59.999999999999986 L -301.8630065917969 -59.999999999999986 L -301.8630065917969 -6.127999782562254 L -299 -6.127999782562254 L -299 33.87200164794921 M -287 80.99999999999999 L -287 70.99999999999999 L -284 70.99999999999999 L -284 61.999999999999986 L -284 60.999999999999986 L -234 60.999999999999986 L -231 60.999999999999986 L -231 70.99999999999999 L -234 70.99999999999999 L -234 80.99999999999999 L -284 80.99999999999999 L -287 80.99999999999999 M -221 64.99999999999999 L -218.13699340820312 64.99999999999999 L -218.13699340820312 59.999999999999986 L -173 59.999999999999986 L -168.13699340820312 59.999999999999986 L -168.13699340820312 74.90000152587889 L -165.23699951171875 74.90000152587889 L -165.23699951171875 84.90000152587889 L -168.13699340820312 84.90000152587889 L -168.13699340820312 84.99999999999999 L -218.13699340820312 84.99999999999999 L -218.13699340820312 80.12799835205077 L -221 80.12799835205077 L -221 64.99999999999999 M -163 -43.998001098632805 L -160.23399353027344 -43.998001098632805 L -160.23399353027344 -59.874999999999986 L -163 -59.874999999999986 L -163 -87.99999999999999 L -160.23399353027344 -87.99999999999999 L -153.0019989013672 -87.99999999999999 L -153.0019989013672 -84.9980010986328 L -152 -84.9980010986328 L -149 -84.9980010986328 L -142.9980010986328 -84.9980010986328 L -142.9980010986328 -87.99999999999999 L -129.9969940185547 -87.99999999999999 L -123.00199890136719 -87.99999999999999 L -123.00199890136719 -84.9980010986328 L -112.99800109863281 -84.9980010986328 L -112.99800109863281 -87.99999999999999 L -108.00199890136719 -87.99999999999999 L -108.00199890136719 -30.99699974060058 L -99.23699951171875 -30.99699974060058 L -99.0999984741211 -30.99699974060058 L -97.99800109863281 -30.99699974060058 L -97.99800109863281 -87.99999999999999 L -96.23699951171875 -87.99999999999999 L -92.50199890136719 -87.99999999999999 L -87.49800109863281 -87.99999999999999 L -76.00299835205078 -87.99999999999999 L -73.00199890136719 -87.99999999999999 L -73.00199890136719 -84.9980010986328 L -63.00199890136719 -84.9980010986328 L -52.99700164794922 -84.9980010986328 L -52.99700164794922 -87.99999999999999 L -46.00199890136719 -87.99999999999999 L -43 -87.99999999999999 L -43 -78.00299835205077 L -46.00199890136719 -78.00299835205077 L -46.00199890136719 -67.9980010986328 L -43 -67.9980010986328 L -43 -28.003000259399407 L -46.00199890136719 -28.003000259399407 L -46.00199890136719 -17.997999191284176 L -43 -17.997999191284176 L -43 -8.001999855041502 L -46.00199890136719 -8.001999855041502 L -46.00199890136719 2.0030000209808345 L -43 2.0030000209808345 L -43 30.997999191284173 L -46.00199890136719 30.997999191284173 L -46.00199890136719 41.002998352050774 L -43 41.002998352050774 L -43 50.999999999999986 L -46.00199890136719 50.999999999999986 L -52.99700164794922 50.999999999999986 L -52.99700164794922 47.99700164794921 L -63.00199890136719 47.99700164794921 L -63.00199890136719 50.999999999999986 L -71.63400268554688 50.999999999999986 L -71.90899658203125 50.999999999999986 L -73.00199890136719 50.999999999999986 L -74.86000061035156 50.999999999999986 L -75.16100311279297 50.999999999999986 L -87.49800109863281 50.999999999999986 L -92.50199890136719 50.999999999999986 L -96.23699951171875 50.999999999999986 L -99.0999984741211 50.999999999999986 L -99.23699951171875 50.999999999999986 L -108.00199890136719 50.999999999999986 L -112.99800109863281 50.999999999999986 L -123.00199890136719 50.999999999999986 L -129.9969940185547 50.999999999999986 L -142.9980010986328 50.999999999999986 L -142.9980010986328 47.99700164794921 L -149 47.99700164794921 L -152 47.99700164794921 L -153.0019989013672 47.99700164794921 L -153.0019989013672 50.999999999999986 L -160.23399353027344 50.999999999999986 L -163 50.999999999999986 L -163 31.90299987792968 L -160.23399353027344 31.90299987792968 L -160.23399353027344 21.898000717163082 L -163 21.898000717163082 L -163 -43.998001098632805 M -96.23699951171875 89.09999847412108 L -99.23699951171875 89.09999847412108 L -149 89.09999847412108 L -149.10000610351562 89.09999847412108 L -149.10000610351562 73.99999999999999 L -152 73.99999999999999 L -152 63.999999999999986 L -149 63.999999999999986 L -149 64.09999847412108 L -99.23699951171875 64.09999847412108 L -99.0999984741211 64.09999847412108 L -99.0999984741211 73.22799682617186 L -96.23699951171875 73.22799682617186 L -96.23699951171875 89.09999847412108 M -212.99200439453125 -86.00299835205077 L -214.9980010986328 -86.00299835205077 L -218.13699340820312 -86.00299835205077 L -221 -86.00299835205077 L -221.97799682617188 -86.00299835205077 L -222.50100708007812 -86.00299835205077 L -222.50100708007812 -80.9980010986328 L -221.97799682617188 -80.9980010986328 L -221 -80.9980010986328 L -218.13699340820312 -80.9980010986328 L -214.9980010986328 -80.9980010986328 L -212.99200439453125 -80.9980010986328 L -209.50399780273438 -80.9980010986328 L -209.50399780273438 -86.00299835205077 L -212.99200439453125 -86.00299835205077 M -238.03399658203125 -80.13400268554686 L -237.98699951171875 -80.12400054931639 L -237.93899536132812 -80.11499786376952 L -237.89100646972656 -80.10800170898436 L -237.843994140625 -80.10299682617186 L -237.79600524902344 -80.09899902343749 L -237.7480010986328 -80.0970001220703 L -237.6999969482422 -80.0960006713867 L -237.6510009765625 -80.0970001220703 L -237.60299682617188 -80.09899902343749 L -237.5679931640625 -80.1019821166992 L -237.55599975585938 -80.10299682617186 L -237.50799560546875 -80.10800170898436 L -237.4600067138672 -80.11499786376952 L -237.41299438476562 -80.12400054931639 L -237.36500549316406 -80.13400268554686 L -237.3179931640625 -80.14499664306639 L -237.27200317382812 -80.15799713134764 L -237.22500610351562 -80.17299652099608 L -237.17999267578125 -80.18900299072264 L -237.13400268554688 -80.20600128173827 L -237.08900451660156 -80.22499847412108 L -237.05599975585938 -80.24075317382811 L -237.0449981689453 -80.24600219726561 L -237.00100708007812 -80.2679977416992 L -236.95700073242188 -80.29199981689452 L -236.9149932861328 -80.31700134277342 L -236.8730010986328 -80.34400177001952 L -236.83200073242188 -80.3720016479492 L -236.79100036621094 -80.40200042724608 L -236.75100708007812 -80.43299865722655 L -236.71200561523438 -80.46600341796874 L -236.6739959716797 -80.49999999999999 L -236.63699340820312 -80.53600311279295 L -236.6009979248047 -80.57299804687499 L -236.56700134277344 -80.61199951171874 L -236.54400634765625 -80.6384811401367 L -236.53399658203125 -80.65000152587889 L -236.5030059814453 -80.69000244140624 L -236.47300720214844 -80.73100280761717 L -236.44500732421875 -80.77200317382811 L -236.41799926757812 -80.81400299072264 L -236.39300537109375 -80.85700225830077 L -236.37123107910156 -80.89600372314452 L -236.36900329589844 -80.90000152587889 L -236.3470001220703 -80.94400024414061 L -236.3260040283203 -80.98799896240233 L -236.3070068359375 -81.03299713134764 L -236.28900146484375 -81.07900238037108 L -236.2729949951172 -81.12499999999999 L -236.25900268554688 -81.17099761962889 L -236.24600219726562 -81.21800231933592 L -236.23399353027344 -81.26499938964842 L -236.21600341796875 -81.35900115966795 L -236.20899963378906 -81.40699768066405 L -236.20889282226562 -81.40799713134764 L -236.20399475097656 -81.45500183105467 L -236.1999969482422 -81.50299835205077 L -236.197998046875 -81.55100250244139 L -236.19700622558594 -81.59899902343749 L -236.197998046875 -81.64700317382811 L -236.1999969482422 -81.6949996948242 L -236.20399475097656 -81.7429962158203 L -236.20899963378906 -81.79100036621092 L -236.21600341796875 -81.83799743652342 L -236.22500610351562 -81.88600158691405 L -236.23150634765625 -81.9199981689453 L -236.23399353027344 -81.93299865722655 L -236.24600219726562 -81.98000335693358 L -236.25900268554688 -82.02700042724608 L -236.2729949951172 -82.07299804687499 L -236.28900146484375 -82.11900329589842 L -236.3070068359375 -82.16400146484374 L -236.3260040283203 -82.20899963378905 L -236.3470001220703 -82.25399780273436 L -236.36900329589844 -82.29799652099608 L -236.39300537109375 -82.34100341796874 L -236.41799926757812 -82.38400268554686 L -236.44500732421875 -82.42600250244139 L -236.4490966796875 -82.43199920654295 L -236.47300720214844 -82.46700286865233 L -236.5030059814453 -82.50700378417967 L -236.53399658203125 -82.54699707031249 L -236.54400634765625 -82.55881500244139 L -236.56700134277344 -82.58599853515624 L -236.6009979248047 -82.62400054931639 L -236.63699340820312 -82.66100311279295 L -236.6739959716797 -82.69699859619139 L -236.71200561523438 -82.73200225830077 L -236.75100708007812 -82.76399993896483 L -236.79100036621094 -82.79599761962889 L -236.8730010986328 -82.85399627685545 L -236.95700073242188 -82.90599822998045 L -237.02969360351562 -82.94400024414061 L -237.0449981689453 -82.95200347900389 L -237.08900451660156 -82.9720001220703 L -237.13400268554688 -82.99099731445311 L -237.17999267578125 -83.00900268554686 L -237.22500610351562 -83.02500152587889 L -237.27200317382812 -83.03900146484374 L -237.3179931640625 -83.05200195312499 L -237.36500549316406 -83.06400299072264 L -237.41299438476562 -83.07399749755858 L -237.4600067138672 -83.08200073242186 L -237.50799560546875 -83.08899688720702 L -237.55599975585938 -83.09400177001952 L -237.5679931640625 -83.0950241088867 L -237.60299682617188 -83.09799957275389 L -237.6510009765625 -83.10099792480467 L -237.7480010986328 -83.10099792480467 L -237.79600524902344 -83.09799957275389 L -237.843994140625 -83.09400177001952 L -237.89100646972656 -83.08899688720702 L -237.93899536132812 -83.08200073242186 L -237.98699951171875 -83.07399749755858 L -238.03399658203125 -83.06400299072264 L -238.0800018310547 -83.05225372314452 L -238.08099365234375 -83.05200195312499 L -238.1269989013672 -83.03900146484374 L -238.1739959716797 -83.02500152587889 L -238.218994140625 -83.00900268554686 L -238.26499938964844 -82.99099731445311 L -238.30999755859375 -82.9720001220703 L -238.35400390625 -82.95200347900389 L -238.3693084716797 -82.94400024414061 L -238.44200134277344 -82.90599822998045 L -238.5260009765625 -82.85399627685545 L -238.5679931640625 -82.82499694824217 L -238.5919952392578 -82.80760192871092 L -238.60800170898438 -82.79599761962889 L -238.6479949951172 -82.76399993896483 L -238.68699645996094 -82.73200225830077 L -238.72500610351562 -82.69699859619139 L -238.76199340820312 -82.66100311279295 L -238.79800415039062 -82.62400054931639 L -238.83200073242188 -82.58599853515624 L -238.86500549316406 -82.54699707031249 L -238.89599609375 -82.50700378417967 L -238.92599487304688 -82.46700286865233 L -238.9507598876953 -82.43199920654295 L -238.9550018310547 -82.42600250244139 L -238.9810028076172 -82.38400268554686 L -239.00599670410156 -82.34100341796874 L -239.02999877929688 -82.29799652099608 L -239.052001953125 -82.25399780273436 L -239.072998046875 -82.20899963378905 L -239.0919952392578 -82.16400146484374 L -239.11000061035156 -82.11900329589842 L -239.12600708007812 -82.07299804687499 L -239.13999938964844 -82.02700042724608 L -239.1529998779297 -81.98000335693358 L -239.1649932861328 -81.93299865722655 L -239.1677703857422 -81.9199981689453 L -239.1750030517578 -81.88600158691405 L -239.18299865722656 -81.83799743652342 L -239.19000244140625 -81.79100036621092 L -239.19500732421875 -81.7429962158203 L -239.19900512695312 -81.6949996948242 L -239.2010040283203 -81.64700317382811 L -239.20199584960938 -81.59899902343749 L -239.2010040283203 -81.55100250244139 L -239.19900512695312 -81.50299835205077 L -239.19500732421875 -81.45500183105467 L -239.1901092529297 -81.40799713134764 L -239.19000244140625 -81.40699768066405 L -239.18299865722656 -81.35900115966795 L -239.1750030517578 -81.31199645996092 L -239.1649932861328 -81.26499938964842 L -239.1529998779297 -81.21800231933592 L -239.13999938964844 -81.17099761962889 L -239.12600708007812 -81.12499999999999 L -239.11000061035156 -81.07900238037108 L -239.0919952392578 -81.03299713134764 L -239.072998046875 -80.98799896240233 L -239.052001953125 -80.94400024414061 L -239.02999877929688 -80.90000152587889 L -239.02777099609375 -80.89600372314452 L -239.00599670410156 -80.85700225830077 L -238.9810028076172 -80.81400299072264 L -238.9550018310547 -80.77200317382811 L -238.92599487304688 -80.73100280761717 L -238.89599609375 -80.69000244140624 L -238.86500549316406 -80.65000152587889 L -238.83200073242188 -80.61199951171874 L -238.79800415039062 -80.57299804687499 L -238.76199340820312 -80.53600311279295 L -238.72500610351562 -80.49999999999999 L -238.68699645996094 -80.46600341796874 L -238.6479949951172 -80.43299865722655 L -238.60800170898438 -80.40200042724608 L -238.5919952392578 -80.38999938964842 L -238.5679931640625 -80.3720016479492 L -238.5260009765625 -80.34400177001952 L -238.48399353027344 -80.31700134277342 L -238.44200134277344 -80.29199981689452 L -238.3979949951172 -80.2679977416992 L -238.35400390625 -80.24600219726561 L -238.30999755859375 -80.22499847412108 L -238.26499938964844 -80.20600128173827 L -238.218994140625 -80.18900299072264 L -238.1739959716797 -80.17299652099608 L -238.1269989013672 -80.15799713134764 L -238.08099365234375 -80.14499664306639 L -238.0800018310547 -80.14476776123045 L -238.03399658203125 -80.13400268554686 M -243.97300720214844 -77.10299682617186 L -251.0030059814453 -77.10299682617186 L -251.0030059814453 -73.59799957275389 L -248.5030059814453 -73.59799957275389 L -243.97300720214844 -73.59799957275389 L -234 -73.59799957275389 L -231 -73.59799957275389 L -221.97799682617188 -73.59799957275389 L -221 -73.59799957275389 L -218.13699340820312 -73.59799957275389 L -217.4969940185547 -73.59799957275389 L -214.9980010986328 -73.59799957275389 L -214.9980010986328 -77.10299682617186 L -218.13699340820312 -77.10299682617186 L -221 -77.10299682617186 L -221.97799682617188 -77.10299682617186 L -231 -77.10299682617186 L -234 -77.10299682617186 L -239.20199584960938 -77.10299682617186 L -243.97300720214844 -77.10299682617186 M -241.75167846679688 20.479999542236325 L -241.7530059814453 20.499999999999996 L -241.74000549316406 20.69599914550781 L -241.7010040283203 20.88899993896484 L -241.66400146484375 20.998237609863278 L -241.63800048828125 21.07500076293945 L -241.55099487304688 21.25099945068359 L -241.44200134277344 21.41500091552734 L -241.31199645996094 21.5620002746582 L -241.1649932861328 21.6919994354248 L -241.00100708007812 21.80100059509277 L -240.8249969482422 21.888000488281246 L -240.63900756835938 21.951000213623043 L -240.4459991455078 21.98999977111816 L -240.25 22.002000808715817 L -240.0540008544922 21.98999977111816 L -239.86099243164062 21.951000213623043 L -239.6750030517578 21.888000488281246 L -239.61599731445312 21.85883522033691 L -239.49899291992188 21.80100059509277 L -239.3350067138672 21.6919994354248 L -239.18800354003906 21.5620002746582 L -239.05799865722656 21.41500091552734 L -238.94900512695312 21.25099945068359 L -238.86199951171875 21.07500076293945 L -238.7989959716797 20.88899993896484 L -238.75999450683594 20.69599914550781 L -238.7480010986328 20.499999999999996 L -238.7492218017578 20.479999542236325 L -238.75999450683594 20.304000854492184 L -238.7989959716797 20.111000061035153 L -238.86199951171875 19.924999237060543 L -238.94900512695312 19.749000549316403 L -239.05799865722656 19.584999084472653 L -239.18800354003906 19.4370002746582 L -239.3350067138672 19.30800056457519 L -239.49899291992188 19.198999404907223 L -239.61599731445312 19.141164779663082 L -239.6750030517578 19.111999511718746 L -239.86099243164062 19.04899978637695 L -240.0540008544922 19.010000228881832 L -240.25 18.996999740600582 L -240.4459991455078 19.010000228881832 L -240.63900756835938 19.04899978637695 L -240.8249969482422 19.111999511718746 L -241.00100708007812 19.198999404907223 L -241.1649932861328 19.30800056457519 L -241.31199645996094 19.4370002746582 L -241.44200134277344 19.584999084472653 L -241.55099487304688 19.749000549316403 L -241.63800048828125 19.924999237060543 L -241.66400146484375 20.001762390136715 L -241.7010040283203 20.111000061035153 L -241.74000549316406 20.304000854492184 L -241.75167846679688 20.479999542236325 M -240.4459991455078 4.518000125885009 L -240.25 4.531000137329101 L -240.0540008544922 4.518000125885009 L -239.86099243164062 4.480000019073485 L -239.6750030517578 4.41699981689453 L -239.49899291992188 4.329999923706054 L -239.3350067138672 4.22100019454956 L -239.1936492919922 4.09600019454956 L -239.18800354003906 4.091000080108642 L -239.05799865722656 3.943000078201293 L -238.94900512695312 3.7799999713897696 L -238.86199951171875 3.6040000915527335 L -238.7989959716797 3.4179999828338614 L -238.75999450683594 3.2249999046325675 L -238.7480010986328 3.0290000438690177 L -238.75999450683594 2.832999944686889 L -238.7989959716797 2.6400001049041744 L -238.86199951171875 2.4539999961853023 L -238.94900512695312 2.276999950408935 L -239.05799865722656 2.1140000820159908 L -239.115966796875 2.04800009727478 L -239.18800354003906 1.9659999608993526 L -239.3350067138672 1.8370000123977657 L -239.49899291992188 1.726999998092651 L -239.61599731445312 1.6698294878005977 L -239.6750030517578 1.6410000324249263 L -239.86099243164062 1.5770000219345088 L -240.0540008544922 1.539000034332275 L -240.25 1.5260000228881831 L -240.4459991455078 1.539000034332275 L -240.63900756835938 1.5770000219345088 L -240.8249969482422 1.6410000324249263 L -241.00100708007812 1.726999998092651 L -241.1649932861328 1.8370000123977657 L -241.31199645996094 1.9659999608993526 L -241.384033203125 2.04800009727478 L -241.44200134277344 2.1140000820159908 L -241.55099487304688 2.276999950408935 L -241.63800048828125 2.4539999961853023 L -241.66400146484375 2.5307619571685787 L -241.7010040283203 2.6400001049041744 L -241.74000549316406 2.832999944686889 L -241.7530059814453 3.0290000438690177 L -241.74000549316406 3.2249999046325675 L -241.7010040283203 3.4179999828338614 L -241.66400146484375 3.527238130569457 L -241.63800048828125 3.6040000915527335 L -241.55099487304688 3.7799999713897696 L -241.44200134277344 3.943000078201293 L -241.31199645996094 4.091000080108642 L -241.3063507080078 4.09600019454956 L -241.1649932861328 4.22100019454956 L -241.00100708007812 4.329999923706054 L -240.8249969482422 4.41699981689453 L -240.63900756835938 4.480000019073485 L -240.4459991455078 4.518000125885009 M -245.75999450683594 -80.9980010986328 L -243.97300720214844 -80.9980010986328 L -243.4980010986328 -80.9980010986328 L -243.4980010986328 -86.00299835205077 L -243.97300720214844 -86.00299835205077 L -245.75999450683594 -86.00299835205077 L -253.95199584960938 -86.00299835205077 L -256.4949951171875 -86.00299835205077 L -256.4949951171875 -80.9980010986328 L -253.95199584960938 -80.9980010986328 L -245.75999450683594 -80.9980010986328 M -253.25167846679688 20.479999542236325 L -253.2530059814453 20.499999999999996 L -253.24000549316406 20.69599914550781 L -253.2010040283203 20.88899993896484 L -253.13800048828125 21.07500076293945 L -253.05099487304688 21.25099945068359 L -252.94200134277344 21.41500091552734 L -252.81199645996094 21.5620002746582 L -252.6649932861328 21.6919994354248 L -252.50100708007812 21.80100059509277 L -252.3249969482422 21.888000488281246 L -252.13900756835938 21.951000213623043 L -251.9459991455078 21.98999977111816 L -251.9040069580078 21.99257087707519 L -251.75 22.002000808715817 L -251.5540008544922 21.98999977111816 L -251.36099243164062 21.951000213623043 L -251.1750030517578 21.888000488281246 L -250.99899291992188 21.80100059509277 L -250.8350067138672 21.6919994354248 L -250.68800354003906 21.5620002746582 L -250.55799865722656 21.41500091552734 L -250.44900512695312 21.25099945068359 L -250.36199951171875 21.07500076293945 L -250.2989959716797 20.88899993896484 L -250.25999450683594 20.69599914550781 L -250.2480010986328 20.499999999999996 L -250.2492218017578 20.479999542236325 L -250.25999450683594 20.304000854492184 L -250.2989959716797 20.111000061035153 L -250.36199951171875 19.924999237060543 L -250.44900512695312 19.749000549316403 L -250.55799865722656 19.584999084472653 L -250.68800354003906 19.4370002746582 L -250.8350067138672 19.30800056457519 L -250.99899291992188 19.198999404907223 L -251.1750030517578 19.111999511718746 L -251.36099243164062 19.04899978637695 L -251.5540008544922 19.010000228881832 L -251.75 18.996999740600582 L -251.9040069580078 19.007213592529293 L -251.9459991455078 19.010000228881832 L -252.13900756835938 19.04899978637695 L -252.3249969482422 19.111999511718746 L -252.50100708007812 19.198999404907223 L -252.6649932861328 19.30800056457519 L -252.81199645996094 19.4370002746582 L -252.94200134277344 19.584999084472653 L -253.05099487304688 19.749000549316403 L -253.13800048828125 19.924999237060543 L -253.2010040283203 20.111000061035153 L -253.24000549316406 20.304000854492184 L -253.25167846679688 20.479999542236325 M -251.9459991455078 4.518000125885009 L -251.75 4.531000137329101 L -251.5540008544922 4.518000125885009 L -251.36099243164062 4.480000019073485 L -251.1750030517578 4.41699981689453 L -250.99899291992188 4.329999923706054 L -250.8350067138672 4.22100019454956 L -250.6936492919922 4.09600019454956 L -250.68800354003906 4.091000080108642 L -250.55799865722656 3.943000078201293 L -250.44900512695312 3.7799999713897696 L -250.36199951171875 3.6040000915527335 L -250.2989959716797 3.4179999828338614 L -250.25999450683594 3.2249999046325675 L -250.2480010986328 3.0290000438690177 L -250.25999450683594 2.832999944686889 L -250.2989959716797 2.6400001049041744 L -250.36199951171875 2.4539999961853023 L -250.44900512695312 2.276999950408935 L -250.55799865722656 2.1140000820159908 L -250.615966796875 2.04800009727478 L -250.68800354003906 1.9659999608993526 L -250.8350067138672 1.8370000123977657 L -250.99899291992188 1.726999998092651 L -251.1750030517578 1.6410000324249263 L -251.36099243164062 1.5770000219345088 L -251.5540008544922 1.539000034332275 L -251.75 1.5260000228881831 L -251.9040069580078 1.5362142324447627 L -251.9459991455078 1.539000034332275 L -252.13900756835938 1.5770000219345088 L -252.3249969482422 1.6410000324249263 L -252.50100708007812 1.726999998092651 L -252.6649932861328 1.8370000123977657 L -252.81199645996094 1.9659999608993526 L -252.884033203125 2.04800009727478 L -252.94200134277344 2.1140000820159908 L -253.05099487304688 2.276999950408935 L -253.13800048828125 2.4539999961853023 L -253.2010040283203 2.6400001049041744 L -253.24000549316406 2.832999944686889 L -253.2530059814453 3.0290000438690177 L -253.24000549316406 3.2249999046325675 L -253.2010040283203 3.4179999828338614 L -253.13800048828125 3.6040000915527335 L -253.05099487304688 3.7799999713897696 L -252.94200134277344 3.943000078201293 L -252.81199645996094 4.091000080108642 L -252.8063507080078 4.09600019454956 L -252.6649932861328 4.22100019454956 L -252.50100708007812 4.329999923706054 L -252.3249969482422 4.41699981689453 L -252.13900756835938 4.480000019073485 L -251.9459991455078 4.518000125885009 M -273.9309997558594 30.861999511718743 L -273.8680114746094 31.048000335693352 L -273.781005859375 31.22500038146972 L -273.6709899902344 31.388000488281243 L -273.5419921875 31.535999298095696 L -273.3940124511719 31.66600036621093 L -273.2309875488281 31.774999618530266 L -273.0539855957031 31.861999511718743 L -272.8680114746094 31.92499923706054 L -272.6759948730469 31.962999343872063 L -272.47900390625 31.975999832153313 L -272.3840026855469 31.969699859619134 L -272.2829895019531 31.962999343872063 L -272.09100341796875 31.92499923706054 L -271.90399169921875 31.861999511718743 L -271.7279968261719 31.774999618530266 L -271.56500244140625 31.66600036621093 L -271.4169921875 31.535999298095696 L -271.2869873046875 31.388000488281243 L -271.1780090332031 31.22500038146972 L -271.09100341796875 31.048000335693352 L -271.02801513671875 30.861999511718743 L -270.9999084472656 30.719999313354485 L -270.989990234375 30.670000076293938 L -270.97698974609375 30.474000930786126 L -270.989990234375 30.277000427246087 L -271.02801513671875 30.08499908447265 L -271.09100341796875 29.899000167846673 L -271.1780090332031 29.722000122070305 L -271.2869873046875 29.559000015258782 L -271.4169921875 29.410999298095696 L -271.56500244140625 29.281000137329094 L -271.7279968261719 29.17200088500976 L -271.90399169921875 29.08499908447265 L -272.09100341796875 29.021999359130852 L -272.2829895019531 28.98399925231933 L -272.3840026855469 28.97730064392089 L -272.47900390625 28.97100067138671 L -272.6759948730469 28.98399925231933 L -272.8680114746094 29.021999359130852 L -273.0539855957031 29.08499908447265 L -273.2309875488281 29.17200088500976 L -273.3940124511719 29.281000137329094 L -273.5419921875 29.410999298095696 L -273.6709899902344 29.559000015258782 L -273.7634582519531 29.695999145507805 L -273.781005859375 29.722000122070305 L -273.8680114746094 29.899000167846673 L -273.9309997558594 30.08499908447265 L -273.968994140625 30.277000427246087 L -273.98199462890625 30.474000930786126 L -273.968994140625 30.670000076293938 L -273.9591064453125 30.719999313354485 L -273.9309997558594 30.861999511718743 M -271.56500244140625 -16.28199958801269 L -271.4479675292969 -16.38400077819824 L -271.4169921875 -16.4109992980957 L -271.2869873046875 -16.559000015258786 L -271.1780090332031 -16.72200012207031 L -271.09100341796875 -16.899000167846676 L -271.02801513671875 -17.084999084472653 L -270.989990234375 -17.27700042724609 L -270.97698974609375 -17.47400093078613 L -270.989990234375 -17.67000007629394 L -271.02801513671875 -17.861999511718746 L -271.09100341796875 -18.04899978637695 L -271.1780090332031 -18.225000381469723 L -271.2869873046875 -18.388000488281246 L -271.3256530761719 -18.431999206542965 L -271.4169921875 -18.5359992980957 L -271.56500244140625 -18.666000366210934 L -271.7279968261719 -18.77499961853027 L -271.90399169921875 -18.861999511718746 L -272.09100341796875 -18.924999237060543 L -272.2829895019531 -18.962999343872067 L -272.3840026855469 -18.969699859619137 L -272.47900390625 -18.975999832153317 L -272.6759948730469 -18.962999343872067 L -272.8680114746094 -18.924999237060543 L -273.0539855957031 -18.861999511718746 L -273.2309875488281 -18.77499961853027 L -273.3940124511719 -18.666000366210934 L -273.5419921875 -18.5359992980957 L -273.6326599121094 -18.431999206542965 L -273.6709899902344 -18.388000488281246 L -273.781005859375 -18.225000381469723 L -273.8680114746094 -18.04899978637695 L -273.9309997558594 -17.861999511718746 L -273.968994140625 -17.67000007629394 L -273.98199462890625 -17.47400093078613 L -273.968994140625 -17.27700042724609 L -273.9309997558594 -17.084999084472653 L -273.8680114746094 -16.899000167846676 L -273.781005859375 -16.72200012207031 L -273.6709899902344 -16.559000015258786 L -273.5419921875 -16.4109992980957 L -273.5110168457031 -16.38400077819824 L -273.3940124511719 -16.28199958801269 L -273.2309875488281 -16.172000885009762 L -273.0539855957031 -16.084999084472653 L -272.8680114746094 -16.021999359130856 L -272.6759948730469 -15.984000205993649 L -272.47900390625 -15.970999717712399 L -272.2829895019531 -15.984000205993649 L -272.09100341796875 -16.021999359130856 L -271.90399169921875 -16.084999084472653 L -271.7279968261719 -16.172000885009762 L -271.56500244140625 -16.28199958801269 M -270.00299072265625 -23.496999740600582 L -254.9980010986328 -23.496999740600582 L -254.9980010986328 -38.50199890136718 L -270.00299072265625 -38.50199890136718 L -270.00299072265625 -23.496999740600582 M -283.218994140625 -69.51200103759764 L -283.0010070800781 -69.36599731445311 L -282.7659912109375 -69.24999999999999 L -282.51800537109375 -69.16600036621092 L -282.260986328125 -69.11499786376952 L -282 -69.09799957275389 L -281.739013671875 -69.11499786376952 L -281.48199462890625 -69.16600036621092 L -281.2340087890625 -69.24999999999999 L -280.9989929199219 -69.36599731445311 L -280.781005859375 -69.51200103759764 L -280.6435546875 -69.63200378417967 L -280.5840148925781 -69.68399810791014 L -280.4110107421875 -69.88099670410155 L -280.2659912109375 -70.09899902343749 L -280.1499938964844 -70.33399963378905 L -280.0660095214844 -70.58200073242186 L -280.0150146484375 -70.83899688720702 L -279.99798583984375 -71.09999847412108 L -280.0150146484375 -71.36199951171874 L -280.0660095214844 -71.61900329589842 L -280.086669921875 -71.68000030517577 L -280.1499938964844 -71.8669967651367 L -280.2659912109375 -72.10099792480467 L -280.4110107421875 -72.31900024414061 L -280.5840148925781 -72.51599884033202 L -280.781005859375 -72.68900299072264 L -280.9989929199219 -72.83399963378905 L -281.2340087890625 -72.94999694824217 L -281.48199462890625 -73.03500366210936 L -281.739013671875 -73.08599853515624 L -282 -73.10299682617186 L -282.260986328125 -73.08599853515624 L -282.51800537109375 -73.03500366210936 L -282.6239929199219 -72.99867248535155 L -282.7659912109375 -72.94999694824217 L -283.0010070800781 -72.83399963378905 L -283.218994140625 -72.68900299072264 L -283.4159851074219 -72.51599884033202 L -283.5889892578125 -72.31900024414061 L -283.7340087890625 -72.10099792480467 L -283.8500061035156 -71.8669967651367 L -283.913330078125 -71.68000030517577 L -283.9339904785156 -71.61900329589842 L -283.9849853515625 -71.36199951171874 L -284.00299072265625 -71.09999847412108 L -283.9849853515625 -70.83899688720702 L -283.9339904785156 -70.58200073242186 L -283.8500061035156 -70.33399963378905 L -283.7340087890625 -70.09899902343749 L -283.5889892578125 -69.88099670410155 L -283.4159851074219 -69.68399810791014 L -283.3564453125 -69.63200378417967 L -283.218994140625 -69.51200103759764 M -328.4649963378906 -10.751000404357908 L -328.46600341796875 -10.699999809265135 L -328.4649963378906 -10.649000167846678 L -328.4620056152344 -10.597999572753904 L -328.4580078125 -10.545999526977537 L -328.4519958496094 -10.49499988555908 L -328.44500732421875 -10.444999694824217 L -328.4360046386719 -10.39400005340576 L -328.4259948730469 -10.343999862670897 L -328.4129943847656 -10.29300022125244 L -328.3999938964844 -10.244000434875487 L -328.3987121582031 -10.239999771118162 L -328.3840026855469 -10.194000244140623 L -328.36700439453125 -10.14500045776367 L -328.3479919433594 -10.09700012207031 L -328.3280029296875 -10.048999786376951 L -328.3059997558594 -10.001999855041502 L -328.2820129394531 -9.954999923706053 L -328.2569885253906 -9.909000396728514 L -328.2300109863281 -9.862999916076658 L -328.2019958496094 -9.817999839782713 L -328.1709899902344 -9.774000167846678 L -328.1400146484375 -9.730999946594237 L -328.1375732421875 -9.727999687194822 L -328.1059875488281 -9.689000129699705 L -328.0710144042969 -9.647000312805174 L -328.03399658203125 -9.605999946594237 L -327.9960021972656 -9.56700038909912 L -327.9570007324219 -9.529000282287596 L -327.9159851074219 -9.491999626159666 L -327.8739929199219 -9.456999778747557 L -327.8320007324219 -9.423000335693358 L -327.78900146484375 -9.392000198364256 L -327.7449951171875 -9.362000465393065 L -327.70001220703125 -9.333000183105467 L -327.67999267578125 -9.321260452270506 L -327.65399169921875 -9.305999755859373 L -327.6080017089844 -9.2810001373291 L -327.5610046386719 -9.25699996948242 L -327.5140075683594 -9.234999656677244 L -327.4684143066406 -9.215999603271483 L -327.46600341796875 -9.215000152587889 L -327.4179992675781 -9.196000099182127 L -327.3689880371094 -9.17899990081787 L -327.3190002441406 -9.163000106811522 L -327.2699890136719 -9.149999618530272 L -327.218994140625 -9.137000083923338 L -327.16900634765625 -9.126999855041502 L -327.1679992675781 -9.126823425292967 L -327.1180114746094 -9.118000030517576 L -327.0679931640625 -9.111000061035154 L -327.0169982910156 -9.104999542236326 L -326.96600341796875 -9.100999832153319 L -326.91400146484375 -9.097999572753904 L -326.8630065917969 -9.09700012207031 L -326.81201171875 -9.097999572753904 L -326.760986328125 -9.100999832153319 L -326.7090148925781 -9.104999542236326 L -326.6579895019531 -9.111000061035154 L -326.656005859375 -9.111280441284178 L -326.6080017089844 -9.118000030517576 L -326.5570068359375 -9.126999855041502 L -326.5069885253906 -9.137000083923338 L -326.45599365234375 -9.149999618530272 L -326.4070129394531 -9.163000106811522 L -326.35699462890625 -9.17899990081787 L -326.3080139160156 -9.196000099182127 L -326.260009765625 -9.215000152587889 L -326.2575988769531 -9.215999603271483 L -326.2120056152344 -9.234999656677244 L -326.1650085449219 -9.25699996948242 L -326.1440124511719 -9.267723083496092 L -326.1180114746094 -9.2810001373291 L -326.0719909667969 -9.305999755859373 L -326.0260009765625 -9.333000183105467 L -325.9809875488281 -9.362000465393065 L -325.93701171875 -9.392000198364256 L -325.8940124511719 -9.423000335693358 L -325.85198974609375 -9.456999778747557 L -325.80999755859375 -9.491999626159666 L -325.7690124511719 -9.529000282287596 L -325.7300109863281 -9.56700038909912 L -325.6919860839844 -9.605999946594237 L -325.6549987792969 -9.647000312805174 L -325.6319885253906 -9.67459964752197 L -325.6199951171875 -9.689000129699705 L -325.58599853515625 -9.730999946594237 L -325.55499267578125 -9.774000167846678 L -325.5249938964844 -9.817999839782713 L -325.4960021972656 -9.862999916076658 L -325.468994140625 -9.909000396728514 L -325.4440002441406 -9.954999923706053 L -325.4200134277344 -10.001999855041502 L -325.39801025390625 -10.048999786376951 L -325.37799072265625 -10.09700012207031 L -325.3590087890625 -10.14500045776367 L -325.3420104980469 -10.194000244140623 L -325.32818603515625 -10.239999771118162 L -325.3269958496094 -10.244000434875487 L -325.31298828125 -10.29300022125244 L -325.29998779296875 -10.343999862670897 L -325.2900085449219 -10.39400005340576 L -325.281005859375 -10.444999694824217 L -325.27398681640625 -10.49499988555908 L -325.26800537109375 -10.545999526977537 L -325.2640075683594 -10.597999572753904 L -325.260986328125 -10.649000167846678 L -325.260986328125 -10.751000404357908 L -325.26104736328125 -10.751999855041502 L -325.2640075683594 -10.802000045776365 L -325.26800537109375 -10.854000091552733 L -325.27398681640625 -10.90499973297119 L -325.281005859375 -10.954999923706053 L -325.2900085449219 -11.00599956512451 L -325.29998779296875 -11.055999755859373 L -325.31298828125 -11.107000350952147 L -325.3269958496094 -11.1560001373291 L -325.3420104980469 -11.206000328063963 L -325.3590087890625 -11.255000114440916 L -325.362548828125 -11.263999938964842 L -325.37799072265625 -11.303000450134276 L -325.39801025390625 -11.350999832153319 L -325.4200134277344 -11.397999763488768 L -325.4440002441406 -11.444999694824217 L -325.468994140625 -11.491000175476072 L -325.4960021972656 -11.536999702453612 L -325.5249938964844 -11.581999778747557 L -325.55499267578125 -11.626000404357908 L -325.58599853515625 -11.668999671936033 L -325.6199951171875 -11.711000442504881 L -325.6319885253906 -11.725399971008299 L -325.6549987792969 -11.753000259399412 L -325.6757507324219 -11.776000022888182 L -325.6919860839844 -11.793999671936033 L -325.7300109863281 -11.833000183105467 L -325.7690124511719 -11.87100028991699 L -325.80999755859375 -11.907999992370604 L -325.85198974609375 -11.942999839782713 L -325.8940124511719 -11.977000236511229 L -325.93701171875 -12.008000373840328 L -325.9809875488281 -12.03800010681152 L -326.0260009765625 -12.067000389099118 L -326.0719909667969 -12.093999862670895 L -326.1180114746094 -12.119000434875485 L -326.1440124511719 -12.132276535034176 L -326.1650085449219 -12.142999649047848 L -326.2120056152344 -12.164999961853024 L -326.260009765625 -12.185000419616696 L -326.3080139160156 -12.204000473022457 L -326.35699462890625 -12.220999717712399 L -326.4070129394531 -12.237000465393063 L -326.45599365234375 -12.249999999999996 L -326.5069885253906 -12.26299953460693 L -326.5570068359375 -12.272999763488766 L -326.6080017089844 -12.281999588012692 L -326.6508483886719 -12.28800010681152 L -326.6579895019531 -12.288999557495114 L -326.7090148925781 -12.295000076293942 L -326.760986328125 -12.29899978637695 L -326.81201171875 -12.302000045776364 L -326.8630065917969 -12.303000450134274 L -326.91400146484375 -12.302000045776364 L -326.96600341796875 -12.29899978637695 L -327.0169982910156 -12.295000076293942 L -327.0679931640625 -12.288999557495114 L -327.07513427734375 -12.28800010681152 L -327.1180114746094 -12.281999588012692 L -327.16900634765625 -12.272999763488766 L -327.218994140625 -12.26299953460693 L -327.2699890136719 -12.249999999999996 L -327.3190002441406 -12.237000465393063 L -327.3689880371094 -12.220999717712399 L -327.4179992675781 -12.204000473022457 L -327.46600341796875 -12.185000419616696 L -327.5140075683594 -12.164999961853024 L -327.5610046386719 -12.142999649047848 L -327.6080017089844 -12.119000434875485 L -327.65399169921875 -12.093999862670895 L -327.67999267578125 -12.078739166259762 L -327.70001220703125 -12.067000389099118 L -327.7449951171875 -12.03800010681152 L -327.78900146484375 -12.008000373840328 L -327.8320007324219 -11.977000236511229 L -327.8739929199219 -11.942999839782713 L -327.9159851074219 -11.907999992370604 L -327.9570007324219 -11.87100028991699 L -327.9960021972656 -11.833000183105467 L -328.03399658203125 -11.793999671936033 L -328.05023193359375 -11.776000022888182 L -328.0710144042969 -11.753000259399412 L -328.1059875488281 -11.711000442504881 L -328.1400146484375 -11.668999671936033 L -328.1709899902344 -11.626000404357908 L -328.2019958496094 -11.581999778747557 L -328.2300109863281 -11.536999702453612 L -328.2569885253906 -11.491000175476072 L -328.2820129394531 -11.444999694824217 L -328.3059997558594 -11.397999763488768 L -328.3280029296875 -11.350999832153319 L -328.3479919433594 -11.303000450134276 L -328.3634338378906 -11.263999938964842 L -328.36700439453125 -11.255000114440916 L -328.3840026855469 -11.206000328063963 L -328.3999938964844 -11.1560001373291 L -328.4129943847656 -11.107000350952147 L -328.4259948730469 -11.055999755859373 L -328.4360046386719 -11.00599956512451 L -328.44500732421875 -10.954999923706053 L -328.4519958496094 -10.90499973297119 L -328.4580078125 -10.854000091552733 L -328.4620056152344 -10.802000045776365 L -328.4649353027344 -10.751999855041502 L -328.4649963378906 -10.751000404357908 M -327.70001220703125 -29.83300018310546 L -327.67999267578125 -29.8212604522705 L -327.65399169921875 -29.805999755859368 L -327.6080017089844 -29.781000137329094 L -327.5610046386719 -29.756999969482415 L -327.5140075683594 -29.735000610351555 L -327.46600341796875 -29.715000152587884 L -327.4179992675781 -29.695999145507805 L -327.3689880371094 -29.67900085449218 L -327.3190002441406 -29.663000106811516 L -327.2699890136719 -29.649999618530266 L -327.218994140625 -29.636999130249016 L -327.16900634765625 -29.627000808715813 L -327.1679992675781 -29.62682342529296 L -327.1180114746094 -29.61800003051757 L -327.0679931640625 -29.61100006103515 L -327.0169982910156 -29.60499954223632 L -326.96600341796875 -29.600999832153313 L -326.91400146484375 -29.5979995727539 L -326.8630065917969 -29.597000122070305 L -326.81201171875 -29.5979995727539 L -326.760986328125 -29.600999832153313 L -326.7090148925781 -29.60499954223632 L -326.6579895019531 -29.61100006103515 L -326.656005859375 -29.611280441284173 L -326.6080017089844 -29.61800003051757 L -326.5570068359375 -29.627000808715813 L -326.5069885253906 -29.636999130249016 L -326.45599365234375 -29.649999618530266 L -326.4070129394531 -29.663000106811516 L -326.35699462890625 -29.67900085449218 L -326.3080139160156 -29.695999145507805 L -326.260009765625 -29.715000152587884 L -326.2120056152344 -29.735000610351555 L -326.1650085449219 -29.756999969482415 L -326.1440124511719 -29.767723083496087 L -326.1180114746094 -29.781000137329094 L -326.0719909667969 -29.805999755859368 L -326.0260009765625 -29.83300018310546 L -325.9809875488281 -29.861999511718743 L -325.93701171875 -29.89200019836425 L -325.8940124511719 -29.923000335693352 L -325.85198974609375 -29.957000732421868 L -325.80999755859375 -29.992000579833977 L -325.7690124511719 -30.028999328613274 L -325.7300109863281 -30.066999435424798 L -325.6919860839844 -30.106000900268548 L -325.6549987792969 -30.146999359130852 L -325.6319885253906 -30.174600601196282 L -325.6199951171875 -30.188999176025384 L -325.58599853515625 -30.231000900268548 L -325.55499267578125 -30.274000167846673 L -325.5249938964844 -30.318000793457024 L -325.4960021972656 -30.36300086975097 L -325.468994140625 -30.40900039672851 L -325.4440002441406 -30.454999923706048 L -325.4200134277344 -30.502000808715813 L -325.39801025390625 -30.548999786376946 L -325.37799072265625 -30.597000122070305 L -325.3590087890625 -30.645000457763665 L -325.3420104980469 -30.694000244140618 L -325.3341979980469 -30.719999313354485 L -325.3269958496094 -30.743999481201165 L -325.31298828125 -30.792999267578118 L -325.29998779296875 -30.84399986267089 L -325.2900085449219 -30.893999099731438 L -325.281005859375 -30.94499969482421 L -325.27398681640625 -30.99500083923339 L -325.26800537109375 -31.045999526977532 L -325.2640075683594 -31.0979995727539 L -325.260986328125 -31.149000167846673 L -325.260986328125 -31.23200035095214 L -325.260986328125 -31.250999450683587 L -325.2640075683594 -31.30200004577636 L -325.26800537109375 -31.354000091552727 L -325.27398681640625 -31.4050006866455 L -325.281005859375 -31.454999923706048 L -325.2900085449219 -31.50600051879882 L -325.29998779296875 -31.555999755859368 L -325.31298828125 -31.60700035095214 L -325.3269958496094 -31.656000137329094 L -325.3420104980469 -31.70599937438964 L -325.3551940917969 -31.743999481201165 L -325.3590087890625 -31.754999160766594 L -325.37799072265625 -31.802999496459954 L -325.39801025390625 -31.850999832153313 L -325.4200134277344 -31.89800071716308 L -325.4440002441406 -31.94499969482421 L -325.468994140625 -31.99099922180175 L -325.4960021972656 -32.03699874877929 L -325.5249938964844 -32.08200073242187 L -325.55499267578125 -32.12599945068359 L -325.58599853515625 -32.16899871826171 L -325.6199951171875 -32.21099853515624 L -325.6319885253906 -32.22539901733398 L -325.6549987792969 -32.252998352050774 L -325.65771484375 -32.25600051879882 L -325.6919860839844 -32.29399871826171 L -325.7300109863281 -32.33300018310546 L -325.7690124511719 -32.37099838256835 L -325.80999755859375 -32.408000946044915 L -325.85198974609375 -32.443000793457024 L -325.8940124511719 -32.47700119018554 L -325.93701171875 -32.50799942016601 L -325.9809875488281 -32.53799819946288 L -326.0260009765625 -32.56700134277343 L -326.0719909667969 -32.594001770019524 L -326.1180114746094 -32.618999481201165 L -326.1440124511719 -32.632278442382805 L -326.1650085449219 -32.64300155639648 L -326.2120056152344 -32.66500091552734 L -326.260009765625 -32.68500137329101 L -326.3080139160156 -32.70399856567382 L -326.35699462890625 -32.72100067138671 L -326.4070129394531 -32.73699951171874 L -326.45599365234375 -32.74999999999999 L -326.5069885253906 -32.76300048828124 L -326.5320129394531 -32.76800155639648 L -326.5570068359375 -32.772998809814446 L -326.6080017089844 -32.78200149536132 L -326.6579895019531 -32.78900146484374 L -326.7090148925781 -32.794998168945305 L -326.760986328125 -32.798999786376946 L -326.81201171875 -32.80199813842773 L -326.8630065917969 -32.80300140380859 L -326.91400146484375 -32.80199813842773 L -326.96600341796875 -32.798999786376946 L -327.0169982910156 -32.794998168945305 L -327.0679931640625 -32.78900146484374 L -327.1180114746094 -32.78200149536132 L -327.16900634765625 -32.772998809814446 L -327.1940002441406 -32.76800155639648 L -327.218994140625 -32.76300048828124 L -327.2699890136719 -32.74999999999999 L -327.3190002441406 -32.73699951171874 L -327.3689880371094 -32.72100067138671 L -327.4179992675781 -32.70399856567382 L -327.46600341796875 -32.68500137329101 L -327.5140075683594 -32.66500091552734 L -327.5610046386719 -32.64300155639648 L -327.6080017089844 -32.618999481201165 L -327.65399169921875 -32.594001770019524 L -327.67999267578125 -32.57873916625976 L -327.70001220703125 -32.56700134277343 L -327.7449951171875 -32.53799819946288 L -327.78900146484375 -32.50799942016601 L -327.8320007324219 -32.47700119018554 L -327.8739929199219 -32.443000793457024 L -327.9159851074219 -32.408000946044915 L -327.9570007324219 -32.37099838256835 L -327.9960021972656 -32.33300018310546 L -328.03399658203125 -32.29399871826171 L -328.06829833984375 -32.25600051879882 L -328.0710144042969 -32.252998352050774 L -328.1059875488281 -32.21099853515624 L -328.1400146484375 -32.16899871826171 L -328.1709899902344 -32.12599945068359 L -328.2019958496094 -32.08200073242187 L -328.2300109863281 -32.03699874877929 L -328.2569885253906 -31.99099922180175 L -328.2820129394531 -31.94499969482421 L -328.3059997558594 -31.89800071716308 L -328.3280029296875 -31.850999832153313 L -328.3479919433594 -31.802999496459954 L -328.36700439453125 -31.754999160766594 L -328.3708190917969 -31.743999481201165 L -328.3840026855469 -31.70599937438964 L -328.3999938964844 -31.656000137329094 L -328.4129943847656 -31.60700035095214 L -328.4259948730469 -31.555999755859368 L -328.4360046386719 -31.50600051879882 L -328.44500732421875 -31.454999923706048 L -328.4519958496094 -31.4050006866455 L -328.4580078125 -31.354000091552727 L -328.4620056152344 -31.30200004577636 L -328.4649963378906 -31.250999450683587 L -328.4653625488281 -31.23200035095214 L -328.46600341796875 -31.200000762939446 L -328.4649963378906 -31.149000167846673 L -328.4620056152344 -31.0979995727539 L -328.4580078125 -31.045999526977532 L -328.4519958496094 -30.99500083923339 L -328.44500732421875 -30.94499969482421 L -328.4360046386719 -30.893999099731438 L -328.4259948730469 -30.84399986267089 L -328.4129943847656 -30.792999267578118 L -328.3999938964844 -30.743999481201165 L -328.392333984375 -30.719999313354485 L -328.3840026855469 -30.694000244140618 L -328.36700439453125 -30.645000457763665 L -328.3479919433594 -30.597000122070305 L -328.3280029296875 -30.548999786376946 L -328.3059997558594 -30.502000808715813 L -328.2820129394531 -30.454999923706048 L -328.2569885253906 -30.40900039672851 L -328.2300109863281 -30.36300086975097 L -328.2019958496094 -30.318000793457024 L -328.1709899902344 -30.274000167846673 L -328.1400146484375 -30.231000900268548 L -328.1213684082031 -30.20800018310546 L -328.1059875488281 -30.188999176025384 L -328.0710144042969 -30.146999359130852 L -328.03399658203125 -30.106000900268548 L -327.9960021972656 -30.066999435424798 L -327.9570007324219 -30.028999328613274 L -327.9159851074219 -29.992000579833977 L -327.8739929199219 -29.957000732421868 L -327.8320007324219 -29.923000335693352 L -327.78900146484375 -29.89200019836425 L -327.7449951171875 -29.861999511718743 L -327.70001220703125 -29.83300018310546 M -229.3979949951172 -80.57299804687499 L -229.37600708007812 -80.55039215087889 L -229.36199951171875 -80.53600311279295 L -229.3249969482422 -80.49999999999999 L -229.28700256347656 -80.46600341796874 L -229.2480010986328 -80.43299865722655 L -229.20799255371094 -80.40200042724608 L -229.16799926757812 -80.3720016479492 L -229.12600708007812 -80.34400177001952 L -229.08399963378906 -80.31700134277342 L -229.04200744628906 -80.29199981689452 L -228.9980010986328 -80.2679977416992 L -228.9550018310547 -80.24600219726561 L -228.91000366210938 -80.22499847412108 L -228.86500549316406 -80.20600128173827 L -228.86399841308594 -80.2056198120117 L -228.82000732421875 -80.18900299072264 L -228.7740020751953 -80.17299652099608 L -228.7270050048828 -80.15799713134764 L -228.68099975585938 -80.14499664306639 L -228.63400268554688 -80.13400268554686 L -228.58700561523438 -80.12400054931639 L -228.53900146484375 -80.11499786376952 L -228.49200439453125 -80.10800170898436 L -228.44400024414062 -80.10299682617186 L -228.39599609375 -80.09899902343749 L -228.3520050048828 -80.09716796874999 L -228.34800720214844 -80.0970001220703 L -228.3000030517578 -80.0960006713867 L -228.2519989013672 -80.0970001220703 L -228.20399475097656 -80.09899902343749 L -228.156005859375 -80.10299682617186 L -228.10800170898438 -80.10800170898436 L -228.05999755859375 -80.11499786376952 L -228.01300048828125 -80.12400054931639 L -227.96499633789062 -80.13400268554686 L -227.91900634765625 -80.14499664306639 L -227.8719940185547 -80.15799713134764 L -227.83999633789062 -80.16843414306639 L -227.8260040283203 -80.17299652099608 L -227.77999877929688 -80.18900299072264 L -227.73399353027344 -80.20600128173827 L -227.68899536132812 -80.22499847412108 L -227.64500427246094 -80.24600219726561 L -227.6009979248047 -80.2679977416992 L -227.55799865722656 -80.29199981689452 L -227.51499938964844 -80.31700134277342 L -227.47300720214844 -80.34400177001952 L -227.4320068359375 -80.3720016479492 L -227.39100646972656 -80.40200042724608 L -227.3509979248047 -80.43299865722655 L -227.3280029296875 -80.45246124267577 L -227.31199645996094 -80.46600341796874 L -227.2740020751953 -80.49999999999999 L -227.23699951171875 -80.53600311279295 L -227.2010040283203 -80.57299804687499 L -227.16700744628906 -80.61199951171874 L -227.13400268554688 -80.65000152587889 L -227.10299682617188 -80.69000244140624 L -227.072998046875 -80.73100280761717 L -227.0449981689453 -80.77200317382811 L -227.01800537109375 -80.81400299072264 L -226.9929962158203 -80.85700225830077 L -226.9712371826172 -80.89600372314452 L -226.968994140625 -80.90000152587889 L -226.94700622558594 -80.94400024414061 L -226.92599487304688 -80.98799896240233 L -226.90699768066406 -81.03299713134764 L -226.88999938964844 -81.07900238037108 L -226.87399291992188 -81.12499999999999 L -226.85899353027344 -81.17099761962889 L -226.8459930419922 -81.21800231933592 L -226.8350067138672 -81.26499938964842 L -226.8249969482422 -81.31199645996092 L -226.8159942626953 -81.35900115966795 L -226.8090057373047 -81.40699768066405 L -226.80889892578125 -81.40799713134764 L -226.8040008544922 -81.45500183105467 L -226.8000030517578 -81.50299835205077 L -226.79800415039062 -81.55100250244139 L -226.7969970703125 -81.59899902343749 L -226.79800415039062 -81.64700317382811 L -226.8000030517578 -81.6949996948242 L -226.8040008544922 -81.7429962158203 L -226.8090057373047 -81.79100036621092 L -226.8159942626953 -81.83799743652342 L -226.8249969482422 -81.88600158691405 L -226.8322296142578 -81.9199981689453 L -226.8350067138672 -81.93299865722655 L -226.8459930419922 -81.98000335693358 L -226.85899353027344 -82.02700042724608 L -226.87399291992188 -82.07299804687499 L -226.88999938964844 -82.11900329589842 L -226.90699768066406 -82.16400146484374 L -226.92599487304688 -82.20899963378905 L -226.94700622558594 -82.25399780273436 L -226.968994140625 -82.29799652099608 L -226.9929962158203 -82.34100341796874 L -227.01800537109375 -82.38400268554686 L -227.0449981689453 -82.42600250244139 L -227.04910278320312 -82.43199920654295 L -227.072998046875 -82.46700286865233 L -227.10299682617188 -82.50700378417967 L -227.13400268554688 -82.54699707031249 L -227.16700744628906 -82.58599853515624 L -227.2010040283203 -82.62400054931639 L -227.23699951171875 -82.66100311279295 L -227.2740020751953 -82.69699859619139 L -227.31199645996094 -82.73200225830077 L -227.3280029296875 -82.74512481689452 L -227.3509979248047 -82.76399993896483 L -227.39100646972656 -82.79599761962889 L -227.47300720214844 -82.85399627685545 L -227.51499938964844 -82.87999725341795 L -227.55799865722656 -82.90599822998045 L -227.6009979248047 -82.92900085449217 L -227.62969970703125 -82.94400024414061 L -227.64500427246094 -82.95200347900389 L -227.68899536132812 -82.9720001220703 L -227.73399353027344 -82.99099731445311 L -227.77999877929688 -83.00900268554686 L -227.8260040283203 -83.02500152587889 L -227.8719940185547 -83.03900146484374 L -227.91900634765625 -83.05200195312499 L -227.96499633789062 -83.06400299072264 L -228.01300048828125 -83.07399749755858 L -228.05999755859375 -83.08200073242186 L -228.10800170898438 -83.08899688720702 L -228.156005859375 -83.09400177001952 L -228.20399475097656 -83.09799957275389 L -228.2519989013672 -83.10099792480467 L -228.34800720214844 -83.10099792480467 L -228.3520050048828 -83.10075378417967 L -228.39599609375 -83.09799957275389 L -228.44400024414062 -83.09400177001952 L -228.49200439453125 -83.08899688720702 L -228.53900146484375 -83.08200073242186 L -228.58700561523438 -83.07399749755858 L -228.63400268554688 -83.06400299072264 L -228.68099975585938 -83.05200195312499 L -228.7270050048828 -83.03900146484374 L -228.7740020751953 -83.02500152587889 L -228.82000732421875 -83.00900268554686 L -228.86500549316406 -82.99099731445311 L -228.91000366210938 -82.9720001220703 L -228.9550018310547 -82.95200347900389 L -228.96995544433594 -82.94400024414061 L -228.9980010986328 -82.92900085449217 L -229.04200744628906 -82.90599822998045 L -229.04835510253906 -82.90206909179686 L -229.12600708007812 -82.85399627685545 L -229.16799926757812 -82.82499694824217 L -229.20799255371094 -82.79599761962889 L -229.2480010986328 -82.76399993896483 L -229.28700256347656 -82.73200225830077 L -229.3249969482422 -82.69699859619139 L -229.36199951171875 -82.66100311279295 L -229.37600708007812 -82.64661407470702 L -229.3979949951172 -82.62400054931639 L -229.4320068359375 -82.58599853515624 L -229.46499633789062 -82.54699707031249 L -229.4969940185547 -82.50700378417967 L -229.5260009765625 -82.46700286865233 L -229.55075073242188 -82.43199920654295 L -229.55499267578125 -82.42600250244139 L -229.58099365234375 -82.38400268554686 L -229.60699462890625 -82.34100341796874 L -229.6300048828125 -82.29799652099608 L -229.65199279785156 -82.25399780273436 L -229.67300415039062 -82.20899963378905 L -229.69200134277344 -82.16400146484374 L -229.7100067138672 -82.11900329589842 L -229.7259979248047 -82.07299804687499 L -229.74000549316406 -82.02700042724608 L -229.7530059814453 -81.98000335693358 L -229.76499938964844 -81.93299865722655 L -229.76776123046875 -81.9199981689453 L -229.77499389648438 -81.88600158691405 L -229.7830047607422 -81.83799743652342 L -229.7899932861328 -81.79100036621092 L -229.7949981689453 -81.7429962158203 L -229.7989959716797 -81.6949996948242 L -229.80099487304688 -81.64700317382811 L -229.802001953125 -81.59899902343749 L -229.80099487304688 -81.55100250244139 L -229.7989959716797 -81.50299835205077 L -229.7949981689453 -81.45500183105467 L -229.79010009765625 -81.40799713134764 L -229.7899932861328 -81.40699768066405 L -229.7830047607422 -81.35900115966795 L -229.77499389648438 -81.31199645996092 L -229.76499938964844 -81.26499938964842 L -229.7530059814453 -81.21800231933592 L -229.74000549316406 -81.17099761962889 L -229.7259979248047 -81.12499999999999 L -229.7100067138672 -81.07900238037108 L -229.69200134277344 -81.03299713134764 L -229.67300415039062 -80.98799896240233 L -229.65199279785156 -80.94400024414061 L -229.6300048828125 -80.90000152587889 L -229.6278533935547 -80.89600372314452 L -229.60699462890625 -80.85700225830077 L -229.58099365234375 -80.81400299072264 L -229.55499267578125 -80.77200317382811 L -229.4969940185547 -80.69000244140624 L -229.46499633789062 -80.65000152587889 L -229.4320068359375 -80.61199951171874 L -229.3979949951172 -80.57299804687499 M -226.3249969482422 21.888000488281246 L -226.3040008544922 21.895112991333004 L -226.13900756835938 21.951000213623043 L -225.9459991455078 21.98999977111816 L -225.75 22.002000808715817 L -225.5540008544922 21.98999977111816 L -225.36099243164062 21.951000213623043 L -225.27999877929688 21.92356491088867 L -225.1750030517578 21.888000488281246 L -224.99899291992188 21.80100059509277 L -224.8350067138672 21.6919994354248 L -224.68800354003906 21.5620002746582 L -224.55799865722656 21.41500091552734 L -224.44900512695312 21.25099945068359 L -224.36199951171875 21.07500076293945 L -224.2989959716797 20.88899993896484 L -224.25999450683594 20.69599914550781 L -224.2480010986328 20.499999999999996 L -224.2492218017578 20.479999542236325 L -224.25999450683594 20.304000854492184 L -224.2989959716797 20.111000061035153 L -224.36199951171875 19.924999237060543 L -224.44900512695312 19.749000549316403 L -224.55799865722656 19.584999084472653 L -224.68800354003906 19.4370002746582 L -224.8350067138672 19.30800056457519 L -224.99899291992188 19.198999404907223 L -225.1750030517578 19.111999511718746 L -225.27999877929688 19.076435089111325 L -225.36099243164062 19.04899978637695 L -225.5540008544922 19.010000228881832 L -225.75 18.996999740600582 L -225.9459991455078 19.010000228881832 L -226.13900756835938 19.04899978637695 L -226.3040008544922 19.10488700866699 L -226.3249969482422 19.111999511718746 L -226.50100708007812 19.198999404907223 L -226.6649932861328 19.30800056457519 L -226.81199645996094 19.4370002746582 L -226.94200134277344 19.584999084472653 L -227.05099487304688 19.749000549316403 L -227.13800048828125 19.924999237060543 L -227.2010040283203 20.111000061035153 L -227.24000549316406 20.304000854492184 L -227.25167846679688 20.479999542236325 L -227.2530059814453 20.499999999999996 L -227.24000549316406 20.69599914550781 L -227.2010040283203 20.88899993896484 L -227.13800048828125 21.07500076293945 L -227.05099487304688 21.25099945068359 L -226.94200134277344 21.41500091552734 L -226.81199645996094 21.5620002746582 L -226.6649932861328 21.6919994354248 L -226.50100708007812 21.80100059509277 L -226.3249969482422 21.888000488281246 M -225.5540008544922 4.518000125885009 L -225.36099243164062 4.480000019073485 L -225.1750030517578 4.41699981689453 L -224.99899291992188 4.329999923706054 L -224.8350067138672 4.22100019454956 L -224.6936492919922 4.09600019454956 L -224.68800354003906 4.091000080108642 L -224.55799865722656 3.943000078201293 L -224.44900512695312 3.7799999713897696 L -224.36199951171875 3.6040000915527335 L -224.2989959716797 3.4179999828338614 L -224.25999450683594 3.2249999046325675 L -224.2480010986328 3.0290000438690177 L -224.25999450683594 2.832999944686889 L -224.2989959716797 2.6400001049041744 L -224.36199951171875 2.4539999961853023 L -224.44900512695312 2.276999950408935 L -224.55799865722656 2.1140000820159908 L -224.615966796875 2.04800009727478 L -224.68800354003906 1.9659999608993526 L -224.8350067138672 1.8370000123977657 L -224.99899291992188 1.726999998092651 L -225.1750030517578 1.6410000324249263 L -225.27999877929688 1.6048709154129024 L -225.36099243164062 1.5770000219345088 L -225.5540008544922 1.539000034332275 L -225.75 1.5260000228881831 L -225.9459991455078 1.539000034332275 L -226.13900756835938 1.5770000219345088 L -226.3249969482422 1.6410000324249263 L -226.50100708007812 1.726999998092651 L -226.6649932861328 1.8370000123977657 L -226.81199645996094 1.9659999608993526 L -226.884033203125 2.04800009727478 L -226.94200134277344 2.1140000820159908 L -227.05099487304688 2.276999950408935 L -227.13800048828125 2.4539999961853023 L -227.2010040283203 2.6400001049041744 L -227.24000549316406 2.832999944686889 L -227.2530059814453 3.0290000438690177 L -227.24000549316406 3.2249999046325675 L -227.2010040283203 3.4179999828338614 L -227.13800048828125 3.6040000915527335 L -227.05099487304688 3.7799999713897696 L -226.94200134277344 3.943000078201293 L -226.81199645996094 4.091000080108642 L -226.8063507080078 4.09600019454956 L -226.6649932861328 4.22100019454956 L -226.50100708007812 4.329999923706054 L -226.3249969482422 4.41699981689453 L -226.13900756835938 4.480000019073485 L -225.9459991455078 4.518000125885009 L -225.75 4.531000137329101 L -225.5540008544922 4.518000125885009 M -55.99700164794922 -41.69800186157226 L -55.99700164794922 -61.70299911499022 L -63.00199890136719 -61.70299911499022 L -73.00199890136719 -61.70299911499022 L -76.00299835205078 -61.70299911499022 L -76.00299835205078 -41.69800186157226 L -75.16100311279297 -41.69800186157226 L -74.86000061035156 -41.69800186157226 L -73.00199890136719 -41.69800186157226 L -71.90899658203125 -41.69800186157226 L -71.63400268554688 -41.69800186157226 L -69.00199890136719 -41.69800186157226 L -63.00199890136719 -41.69800186157226 L -62.99700164794922 -41.69800186157226 L -62.90599822998047 -41.69800186157226 L -62.904998779296875 -41.69800186157226 L -55.99700164794922 -41.69800186157226 M -62.99700164794922 7.998000144958494 L -63.00199890136719 7.998000144958494 L -69.00199890136719 7.998000144958494 L -69.00199890136719 10.003000259399412 L -63.00199890136719 10.003000259399412 L -62.99700164794922 10.003000259399412 L -62.99700164794922 7.998000144958494 M -87.49800109863281 -44.40299987792968 L -92.50199890136719 -44.40299987792968 L -92.50199890136719 -39.397998809814446 L -87.49800109863281 -39.397998809814446 L -87.49800109863281 -41.69800186157226 L -87.49800109863281 -44.40299987792968 M -129.9969940185547 -61.70299911499022 L -142.9980010986328 -61.70299911499022 L -149 -61.70299911499022 L -150.0019989013672 -61.70299911499022 L -150.0019989013672 -41.69800186157226 L -149 -41.69800186157226 L -142.9980010986328 -41.69800186157226 L -129.9969940185547 -41.69800186157226 L -129.9969940185547 -61.70299911499022 M -204.9530029296875 -82.4250030517578 L -204.97900390625 -82.38300323486327 L -205.0050048828125 -82.33999633789061 L -205.0279998779297 -82.29699707031249 L -205.0500030517578 -82.25299835205077 L -205.0709991455078 -82.20899963378905 L -205.08999633789062 -82.16400146484374 L -205.10800170898438 -82.1179962158203 L -205.12399291992188 -82.07199859619139 L -205.13800048828125 -82.02600097656249 L -205.1510009765625 -81.98000335693358 L -205.16299438476562 -81.93299865722655 L -205.16549682617188 -81.9199981689453 L -205.1719970703125 -81.88600158691405 L -205.18099975585938 -81.83799743652342 L -205.18800354003906 -81.79000091552733 L -205.1929931640625 -81.7429962158203 L -205.19700622558594 -81.6949996948242 L -205.19900512695312 -81.64700317382811 L -205.1999969482422 -81.59899902343749 L -205.19900512695312 -81.55100250244139 L -205.19700622558594 -81.50299835205077 L -205.1929931640625 -81.45500183105467 L -205.1881103515625 -81.40799713134764 L -205.18800354003906 -81.40699768066405 L -205.18099975585938 -81.35900115966795 L -205.16299438476562 -81.26499938964842 L -205.1510009765625 -81.21800231933592 L -205.13800048828125 -81.17099761962889 L -205.12399291992188 -81.12499999999999 L -205.10800170898438 -81.07900238037108 L -205.08999633789062 -81.03399658203124 L -205.0709991455078 -80.98899841308592 L -205.0500030517578 -80.94400024414061 L -205.0279998779297 -80.90100097656249 L -205.025390625 -80.89600372314452 L -205.0050048828125 -80.85700225830077 L -204.9530029296875 -80.7730026245117 L -204.9239959716797 -80.73100280761717 L -204.89500427246094 -80.69100189208983 L -204.86300659179688 -80.65100097656249 L -204.83099365234375 -80.61199951171874 L -204.8000030517578 -80.57834625244139 L -204.79600524902344 -80.57399749755858 L -204.75999450683594 -80.53700256347655 L -204.72300720214844 -80.50099945068358 L -204.68499755859375 -80.46700286865233 L -204.64599609375 -80.43399810791014 L -204.60699462890625 -80.40299987792967 L -204.5659942626953 -80.3730010986328 L -204.52499389648438 -80.34500122070311 L -204.48300170898438 -80.31800079345702 L -204.44000244140625 -80.29299926757811 L -204.39700317382812 -80.2689971923828 L -204.35299682617188 -80.2470016479492 L -204.3090057373047 -80.22599792480467 L -204.28799438476562 -80.21713256835936 L -204.26400756835938 -80.20700073242186 L -204.218994140625 -80.19000244140624 L -204.17300415039062 -80.1740036010742 L -204.1269989013672 -80.15899658203124 L -204.0800018310547 -80.14600372314452 L -204.0330047607422 -80.13500213623045 L -203.98599243164062 -80.12499999999999 L -203.93899536132812 -80.1169967651367 L -203.89100646972656 -80.11000061035155 L -203.84300231933594 -80.10399627685545 L -203.7760009765625 -80.09981536865233 L -203.7469940185547 -80.09799957275389 L -203.6999969482422 -80.0970001220703 L -203.65199279785156 -80.09799957275389 L -203.55599975585938 -80.10399627685545 L -203.50799560546875 -80.11000061035155 L -203.4600067138672 -80.1169967651367 L -203.41299438476562 -80.12499999999999 L -203.36599731445312 -80.13500213623045 L -203.31900024414062 -80.14600372314452 L -203.27200317382812 -80.15899658203124 L -203.26400756835938 -80.16160583496092 L -203.2259979248047 -80.1740036010742 L -203.17999267578125 -80.19000244140624 L -203.13499450683594 -80.20700073242186 L -203.08999633789062 -80.22599792480467 L -203.04600524902344 -80.2470016479492 L -203.0019989013672 -80.2689971923828 L -202.95899963378906 -80.29299926757811 L -202.91600036621094 -80.31800079345702 L -202.87399291992188 -80.34500122070311 L -202.83299255371094 -80.3730010986328 L -202.79200744628906 -80.40299987792967 L -202.7530059814453 -80.43399810791014 L -202.7519989013672 -80.43484497070311 L -202.71400451660156 -80.46700286865233 L -202.67599487304688 -80.50099945068358 L -202.63900756835938 -80.53700256347655 L -202.60299682617188 -80.57399749755858 L -202.5679931640625 -80.61199951171874 L -202.53599548339844 -80.65100097656249 L -202.50399780273438 -80.69100189208983 L -202.47500610351562 -80.73100280761717 L -202.4459991455078 -80.7730026245117 L -202.3939971923828 -80.85700225830077 L -202.3736114501953 -80.89600372314452 L -202.37100219726562 -80.90100097656249 L -202.3489990234375 -80.94400024414061 L -202.3280029296875 -80.98899841308592 L -202.3090057373047 -81.03399658203124 L -202.29100036621094 -81.07900238037108 L -202.27499389648438 -81.12499999999999 L -202.26100158691406 -81.17099761962889 L -202.2480010986328 -81.21800231933592 L -202.23599243164062 -81.26499938964842 L -202.21800231933594 -81.35900115966795 L -202.21099853515625 -81.40699768066405 L -202.2108917236328 -81.40799713134764 L -202.20599365234375 -81.45500183105467 L -202.20199584960938 -81.50299835205077 L -202.1999969482422 -81.55100250244139 L -202.19900512695312 -81.59899902343749 L -202.1999969482422 -81.64700317382811 L -202.20199584960938 -81.6949996948242 L -202.20599365234375 -81.7429962158203 L -202.21099853515625 -81.79000091552733 L -202.21800231933594 -81.83799743652342 L -202.2270050048828 -81.88600158691405 L -202.23350524902344 -81.9199981689453 L -202.23599243164062 -81.93299865722655 L -202.2480010986328 -81.98000335693358 L -202.26100158691406 -82.02600097656249 L -202.27499389648438 -82.07199859619139 L -202.29100036621094 -82.1179962158203 L -202.3090057373047 -82.16400146484374 L -202.3280029296875 -82.20899963378905 L -202.3489990234375 -82.25299835205077 L -202.37100219726562 -82.29699707031249 L -202.3939971923828 -82.33999633789061 L -202.4199981689453 -82.38300323486327 L -202.4459991455078 -82.4250030517578 L -202.45095825195312 -82.43199920654295 L -202.50399780273438 -82.50700378417967 L -202.5679931640625 -82.58499908447264 L -202.60299682617188 -82.6230010986328 L -202.63900756835938 -82.66000366210936 L -202.67599487304688 -82.6959991455078 L -202.71400451660156 -82.73100280761717 L -202.7519989013672 -82.76217651367186 L -202.79200744628906 -82.7949981689453 L -202.87399291992188 -82.85299682617186 L -202.91600036621094 -82.87899780273436 L -202.95899963378906 -82.90499877929686 L -203.0019989013672 -82.92800140380858 L -203.03399658203125 -82.94400024414061 L -203.04600524902344 -82.94999694824217 L -203.08999633789062 -82.9710006713867 L -203.13499450683594 -82.98999786376952 L -203.17999267578125 -83.00800323486327 L -203.2259979248047 -83.0240020751953 L -203.26400756835938 -83.03556823730467 L -203.27200317382812 -83.03800201416014 L -203.31900024414062 -83.05100250244139 L -203.36599731445312 -83.06300354003905 L -203.41299438476562 -83.07299804687499 L -203.4600067138672 -83.08100128173827 L -203.50799560546875 -83.08799743652342 L -203.55599975585938 -83.09300231933592 L -203.60400390625 -83.0970001220703 L -203.65199279785156 -83.09899902343749 L -203.6999969482422 -83.09999847412108 L -203.7469940185547 -83.09899902343749 L -203.7760009765625 -83.09779357910155 L -203.7949981689453 -83.0970001220703 L -203.84300231933594 -83.09300231933592 L -203.89100646972656 -83.08799743652342 L -203.93899536132812 -83.08100128173827 L -203.98599243164062 -83.07299804687499 L -204.0330047607422 -83.06300354003905 L -204.0800018310547 -83.05100250244139 L -204.1269989013672 -83.03800201416014 L -204.17300415039062 -83.0240020751953 L -204.218994140625 -83.00800323486327 L -204.26400756835938 -82.98999786376952 L -204.3090057373047 -82.9710006713867 L -204.35299682617188 -82.94999694824217 L -204.36500549316406 -82.94400024414061 L -204.39700317382812 -82.92800140380858 L -204.44000244140625 -82.90499877929686 L -204.48300170898438 -82.87899780273436 L -204.52499389648438 -82.85299682617186 L -204.60699462890625 -82.7949981689453 L -204.68499755859375 -82.73100280761717 L -204.72300720214844 -82.6959991455078 L -204.75999450683594 -82.66000366210936 L -204.79600524902344 -82.6230010986328 L -204.8000030517578 -82.61865997314452 L -204.83099365234375 -82.58499908447264 L -204.89500427246094 -82.50700378417967 L -204.9480438232422 -82.43199920654295 L -204.9530029296875 -82.4250030517578 M -196.3249969482422 -15.984000205993649 L -196.1320037841797 -16.021999359130856 L -195.9980010986328 -16.067386627197262 L -195.9459991455078 -16.084999084472653 L -195.7689971923828 -16.172000885009762 L -195.6060028076172 -16.28199958801269 L -195.48898315429688 -16.38400077819824 L -195.45799255371094 -16.4109992980957 L -195.32899475097656 -16.559000015258786 L -195.218994140625 -16.72200012207031 L -195.1320037841797 -16.899000167846676 L -195.06900024414062 -17.084999084472653 L -195.031005859375 -17.27700042724609 L -195.01800537109375 -17.47400093078613 L -195.031005859375 -17.67000007629394 L -195.06900024414062 -17.861999511718746 L -195.1320037841797 -18.04899978637695 L -195.218994140625 -18.225000381469723 L -195.32899475097656 -18.388000488281246 L -195.3673553466797 -18.431999206542965 L -195.45799255371094 -18.5359992980957 L -195.6060028076172 -18.666000366210934 L -195.7689971923828 -18.77499961853027 L -195.9459991455078 -18.861999511718746 L -195.9980010986328 -18.879611968994137 L -196.1320037841797 -18.924999237060543 L -196.3249969482422 -18.962999343872067 L -196.52099609375 -18.975999832153317 L -196.60800170898438 -18.97023010253906 L -196.7169952392578 -18.962999343872067 L -196.90899658203125 -18.924999237060543 L -197.0959930419922 -18.861999511718746 L -197.27200317382812 -18.77499961853027 L -197.43499755859375 -18.666000366210934 L -197.58299255371094 -18.5359992980957 L -197.67434692382812 -18.431999206542965 L -197.71299743652344 -18.388000488281246 L -197.82200622558594 -18.225000381469723 L -197.90899658203125 -18.04899978637695 L -197.9720001220703 -17.861999511718746 L -198.00999450683594 -17.67000007629394 L -198.0229949951172 -17.47400093078613 L -198.00999450683594 -17.27700042724609 L -197.9720001220703 -17.084999084472653 L -197.90899658203125 -16.899000167846676 L -197.82200622558594 -16.72200012207031 L -197.71299743652344 -16.559000015258786 L -197.58299255371094 -16.4109992980957 L -197.55201721191406 -16.38400077819824 L -197.43499755859375 -16.28199958801269 L -197.27200317382812 -16.172000885009762 L -197.0959930419922 -16.084999084472653 L -196.90899658203125 -16.021999359130856 L -196.7169952392578 -15.984000205993649 L -196.52099609375 -15.970999717712399 L -196.3249969482422 -15.984000205993649 M -184.26100158691406 -69.11499786376952 L -184 -69.09799957275389 L -183.73899841308594 -69.11499786376952 L -183.48199462890625 -69.16600036621092 L -183.23399353027344 -69.24999999999999 L -182.99899291992188 -69.36599731445311 L -182.781005859375 -69.51200103759764 L -182.6435546875 -69.63200378417967 L -182.58399963378906 -69.68399810791014 L -182.41099548339844 -69.88099670410155 L -182.26600646972656 -70.09899902343749 L -182.14999389648438 -70.33399963378905 L -182.0659942626953 -70.58200073242186 L -182.01499938964844 -70.83899688720702 L -181.9980010986328 -71.09999847412108 L -182.01499938964844 -71.36199951171874 L -182.0659942626953 -71.61900329589842 L -182.08665466308594 -71.68000030517577 L -182.14999389648438 -71.8669967651367 L -182.26600646972656 -72.10099792480467 L -182.41099548339844 -72.31900024414061 L -182.58399963378906 -72.51599884033202 L -182.781005859375 -72.68900299072264 L -182.99899291992188 -72.83399963378905 L -183.23399353027344 -72.94999694824217 L -183.48199462890625 -73.03500366210936 L -183.73899841308594 -73.08599853515624 L -184 -73.10299682617186 L -184.26100158691406 -73.08599853515624 L -184.32000732421875 -73.0742950439453 L -184.51800537109375 -73.03500366210936 L -184.76600646972656 -72.94999694824217 L -185.00100708007812 -72.83399963378905 L -185.218994140625 -72.68900299072264 L -185.41600036621094 -72.51599884033202 L -185.58900451660156 -72.31900024414061 L -185.73399353027344 -72.10099792480467 L -185.85000610351562 -71.8669967651367 L -185.91334533691406 -71.68000030517577 L -185.9340057373047 -71.61900329589842 L -185.98500061035156 -71.36199951171874 L -186.0030059814453 -71.09999847412108 L -185.98500061035156 -70.83899688720702 L -185.9340057373047 -70.58200073242186 L -185.85000610351562 -70.33399963378905 L -185.73399353027344 -70.09899902343749 L -185.58900451660156 -69.88099670410155 L -185.41600036621094 -69.68399810791014 L -185.3564453125 -69.63200378417967 L -185.218994140625 -69.51200103759764 L -185.00100708007812 -69.36599731445311 L -184.76600646972656 -69.24999999999999 L -184.51800537109375 -69.16600036621092 L -184.26100158691406 -69.11499786376952 M -215.1649932861328 21.6919994354248 L -215.0399932861328 21.775079727172848 L -215.00100708007812 21.80100059509277 L -214.8249969482422 21.888000488281246 L -214.63900756835938 21.951000213623043 L -214.4459991455078 21.98999977111816 L -214.25 22.002000808715817 L -214.0540008544922 21.98999977111816 L -213.86099243164062 21.951000213623043 L -213.6750030517578 21.888000488281246 L -213.49899291992188 21.80100059509277 L -213.3350067138672 21.6919994354248 L -213.18800354003906 21.5620002746582 L -213.05799865722656 21.41500091552734 L -212.99200439453125 21.31569671630859 L -212.94900512695312 21.25099945068359 L -212.86199951171875 21.07500076293945 L -212.7989959716797 20.88899993896484 L -212.75999450683594 20.69599914550781 L -212.7480010986328 20.499999999999996 L -212.7492218017578 20.479999542236325 L -212.75999450683594 20.304000854492184 L -212.7989959716797 20.111000061035153 L -212.86199951171875 19.924999237060543 L -212.94900512695312 19.749000549316403 L -212.99200439453125 19.684303283691403 L -213.05799865722656 19.584999084472653 L -213.18800354003906 19.4370002746582 L -213.3350067138672 19.30800056457519 L -213.49899291992188 19.198999404907223 L -213.6750030517578 19.111999511718746 L -213.86099243164062 19.04899978637695 L -214.0540008544922 19.010000228881832 L -214.25 18.996999740600582 L -214.4459991455078 19.010000228881832 L -214.63900756835938 19.04899978637695 L -214.8249969482422 19.111999511718746 L -215.00100708007812 19.198999404907223 L -215.0399932861328 19.224920272827145 L -215.1649932861328 19.30800056457519 L -215.31199645996094 19.4370002746582 L -215.44200134277344 19.584999084472653 L -215.55099487304688 19.749000549316403 L -215.63800048828125 19.924999237060543 L -215.7010040283203 20.111000061035153 L -215.74000549316406 20.304000854492184 L -215.75167846679688 20.479999542236325 L -215.7530059814453 20.499999999999996 L -215.74000549316406 20.69599914550781 L -215.7010040283203 20.88899993896484 L -215.63800048828125 21.07500076293945 L -215.55099487304688 21.25099945068359 L -215.44200134277344 21.41500091552734 L -215.31199645996094 21.5620002746582 L -215.1649932861328 21.6919994354248 M -214.0540008544922 4.518000125885009 L -213.86099243164062 4.480000019073485 L -213.6750030517578 4.41699981689453 L -213.49899291992188 4.329999923706054 L -213.3350067138672 4.22100019454956 L -213.1936492919922 4.09600019454956 L -213.18800354003906 4.091000080108642 L -213.05799865722656 3.943000078201293 L -212.99200439453125 3.8443026542663565 L -212.94900512695312 3.7799999713897696 L -212.86199951171875 3.6040000915527335 L -212.7989959716797 3.4179999828338614 L -212.75999450683594 3.2249999046325675 L -212.7480010986328 3.0290000438690177 L -212.75999450683594 2.832999944686889 L -212.7989959716797 2.6400001049041744 L -212.86199951171875 2.4539999961853023 L -212.94900512695312 2.276999950408935 L -212.99200439453125 2.212697267532348 L -213.05799865722656 2.1140000820159908 L -213.115966796875 2.04800009727478 L -213.18800354003906 1.9659999608993526 L -213.3350067138672 1.8370000123977657 L -213.49899291992188 1.726999998092651 L -213.6750030517578 1.6410000324249263 L -213.86099243164062 1.5770000219345088 L -214.0540008544922 1.539000034332275 L -214.25 1.5260000228881831 L -214.4459991455078 1.539000034332275 L -214.63900756835938 1.5770000219345088 L -214.8249969482422 1.6410000324249263 L -215.00100708007812 1.726999998092651 L -215.0399932861328 1.753158569335937 L -215.1649932861328 1.8370000123977657 L -215.31199645996094 1.9659999608993526 L -215.384033203125 2.04800009727478 L -215.44200134277344 2.1140000820159908 L -215.55099487304688 2.276999950408935 L -215.63800048828125 2.4539999961853023 L -215.7010040283203 2.6400001049041744 L -215.74000549316406 2.832999944686889 L -215.7530059814453 3.0290000438690177 L -215.74000549316406 3.2249999046325675 L -215.7010040283203 3.4179999828338614 L -215.63800048828125 3.6040000915527335 L -215.55099487304688 3.7799999713897696 L -215.44200134277344 3.943000078201293 L -215.31199645996094 4.091000080108642 L -215.3063507080078 4.09600019454956 L -215.1649932861328 4.22100019454956 L -215.00100708007812 4.329999923706054 L -214.8249969482422 4.41699981689453 L -214.63900756835938 4.480000019073485 L -214.4459991455078 4.518000125885009 L -214.25 4.531000137329101 L -214.0540008544922 4.518000125885009 M -196.60800170898438 31.970230102539055 L -196.52099609375 31.975999832153313 L -196.3249969482422 31.962999343872063 L -196.1320037841797 31.92499923706054 L -195.9459991455078 31.861999511718743 L -195.7689971923828 31.774999618530266 L -195.6060028076172 31.66600036621093 L -195.45799255371094 31.535999298095696 L -195.32899475097656 31.388000488281243 L -195.218994140625 31.22500038146972 L -195.1320037841797 31.048000335693352 L -195.06900024414062 30.861999511718743 L -195.0408935546875 30.719999313354485 L -195.031005859375 30.670000076293938 L -195.01800537109375 30.474000930786126 L -195.031005859375 30.277000427246087 L -195.06900024414062 30.08499908447265 L -195.1320037841797 29.899000167846673 L -195.218994140625 29.722000122070305 L -195.23654174804688 29.695999145507805 L -195.32899475097656 29.559000015258782 L -195.45799255371094 29.410999298095696 L -195.6060028076172 29.281000137329094 L -195.7689971923828 29.17200088500976 L -195.9459991455078 29.08499908447265 L -196.1320037841797 29.021999359130852 L -196.3249969482422 28.98399925231933 L -196.52099609375 28.97100067138671 L -196.60800170898438 28.97677040100097 L -196.7169952392578 28.98399925231933 L -196.90899658203125 29.021999359130852 L -197.0959930419922 29.08499908447265 L -197.27200317382812 29.17200088500976 L -197.43499755859375 29.281000137329094 L -197.58299255371094 29.410999298095696 L -197.71299743652344 29.559000015258782 L -197.82200622558594 29.722000122070305 L -197.90899658203125 29.899000167846673 L -197.9720001220703 30.08499908447265 L -198.00999450683594 30.277000427246087 L -198.0229949951172 30.474000930786126 L -198.00999450683594 30.670000076293938 L -198.00010681152344 30.719999313354485 L -197.9720001220703 30.861999511718743 L -197.90899658203125 31.048000335693352 L -197.82200622558594 31.22500038146972 L -197.71299743652344 31.388000488281243 L -197.58299255371094 31.535999298095696 L -197.43499755859375 31.66600036621093 L -197.27200317382812 31.774999618530266 L -197.0959930419922 31.861999511718743 L -196.90899658203125 31.92499923706054 L -196.7169952392578 31.962999343872063 L -196.60800170898438 31.970230102539055 M -234 -38.998001098632805 L -231 -38.998001098632805 L -221.97799682617188 -38.998001098632805 L -221 -38.998001098632805 L -218.13699340820312 -38.998001098632805 L -217.4969940185547 -38.998001098632805 L -217.4969940185547 -41.9990005493164 L -218.13699340820312 -41.9990005493164 L -221 -41.9990005493164 L -221.97799682617188 -41.9990005493164 L -231 -41.9990005493164 L -234 -41.9990005493164 L -243.97300720214844 -41.9990005493164 L -248.5030059814453 -41.9990005493164 L -248.5030059814453 -38.998001098632805 L -243.97300720214844 -38.998001098632805 L -234 -38.998001098632805 M -234 -17.466999053955075 L -243.97300720214844 -17.466999053955075 L -243.97300720214844 -14.463000297546383 L -241.7530059814453 -14.463000297546383 L -238.7480010986328 -14.463000297546383 L -234 -14.463000297546383 L -231 -14.463000297546383 L -227.2530059814453 -14.463000297546383 L -224.2480010986328 -14.463000297546383 L -221.97799682617188 -14.463000297546383 L -221.97799682617188 -17.466999053955075 L -231 -17.466999053955075 L -234 -17.466999053955075 M -234 -60.00299835205077 L -243.97300720214844 -60.00299835205077 L -248.5030059814453 -60.00299835205077 L -248.5030059814453 -57.00199890136717 L -243.97300720214844 -57.00199890136717 L -234 -57.00199890136717 L -231 -57.00199890136717 L -221.97799682617188 -57.00199890136717 L -221 -57.00199890136717 L -218.13699340820312 -57.00199890136717 L -217.4969940185547 -57.00199890136717 L -217.4969940185547 -60.00299835205077 L -218.13699340820312 -60.00299835205077 L -221 -60.00299835205077 L -221.97799682617188 -60.00299835205077 L -231 -60.00299835205077 L -234 -60.00299835205077 M -284.00201416015625 -79.9980010986328 L -278 -79.9980010986328 L -278 -85.99999999999999 L -284.00201416015625 -85.99999999999999 L -284.00201416015625 -79.9980010986328 M -257.00799560546875 -42.99700164794921 L -257.00799560546875 -64.00499725341795 L -263.0050048828125 -64.00499725341795 L -263.0050048828125 -42.99700164794921 L -257.00799560546875 -42.99700164794921 M -328.46600341796875 -15.44799995422363 L -325.260986328125 -15.44799995422363 L -323.8609924316406 -15.44799995422363 L -323.8609924316406 -26.452999114990227 L -328.46600341796875 -26.452999114990227 L -329.8659973144531 -26.452999114990227 L -329.8659973144531 -15.44799995422363 L -328.46600341796875 -15.44799995422363 M -323.8609924316406 9.003000259399412 L -321.8789978027344 9.003000259399412 L -321.8789978027344 -1.001999974250793 L -323.8609924316406 -1.001999974250793 L -328.46600341796875 -1.001999974250793 L -329.8659973144531 -1.001999974250793 L -331.8840026855469 -1.001999974250793 L -331.8840026855469 9.003000259399412 L -329.8659973144531 9.003000259399412 L -328.46600341796875 9.003000259399412 L -323.8609924316406 9.003000259399412 M -328.46600341796875 -50.90299987792967 L -331.8840026855469 -50.90299987792967 L -331.8840026855469 -40.897998809814446 L -328.46600341796875 -40.897998809814446 L -325.260986328125 -40.897998809814446 L -323.8609924316406 -40.897998809814446 L -321.8789978027344 -40.897998809814446 L -321.8789978027344 -50.90299987792967 L -323.8609924316406 -50.90299987792967 L -325.260986328125 -50.90299987792967 L -328.46600341796875 -50.90299987792967 M -62.90599822998047 29.60000038146972 L -63.00199890136719 29.60000038146972 L -71.63400268554688 29.60000038146972 L -71.90899658203125 29.60000038146972 L -73.00199890136719 29.60000038146972 L -74.86000061035156 29.60000038146972 L -75.16000366210938 29.60000038146972 L -75.16000366210938 32.04999923706054 L -74.86000061035156 32.04999923706054 L -73.00199890136719 32.04999923706054 L -71.90899658203125 32.04999923706054 L -71.63400268554688 32.04999923706054 L -63.00199890136719 32.04999923706054 L -62.90599822998047 32.04999923706054 L -62.904998779296875 32.04999923706054 L -62.904998779296875 29.60000038146972 L -62.90599822998047 29.60000038146972 M -87.49800109863281 -84.40299987792967 L -92.50199890136719 -84.40299987792967 L -92.50199890136719 -79.3980026245117 L -87.49800109863281 -79.3980026245117 L -87.49800109863281 -84.40299987792967 M -149 15.696999549865719 L -150.0019989013672 15.696999549865719 L -150.0019989013672 35.70199966430663 L -149 35.70199966430663 L -142.9980010986328 35.70199966430663 L -129.9969940185547 35.70199966430663 L -129.9969940185547 15.696999549865719 L -142.9980010986328 15.696999549865719 L -149 15.696999549865719 M -181.9969940185547 -85.99999999999999 L -187.99899291992188 -85.99999999999999 L -187.99899291992188 -80.0970001220703 L -187.99899291992188 -79.9980010986328 L -181.9969940185547 -79.9980010986328 L -181.9969940185547 -80.0970001220703 L -181.9969940185547 -85.99999999999999 M -202.9949951171875 -64.00499725341795 L -208.99200439453125 -64.00499725341795 L -208.99200439453125 -42.99700164794921 L -202.9949951171875 -42.99700164794921 L -202.9949951171875 -64.00499725341795 M -195.9980010986328 -23.496999740600582 L -195.9980010986328 -38.50199890136718 L -208.99200439453125 -38.50199890136718 L -211.0030059814453 -38.50199890136718 L -211.0030059814453 -23.496999740600582 L -208.99200439453125 -23.496999740600582 L -198.0229949951172 -23.496999740600582 L -195.9980010986328 -23.496999740600582 z" fill="none" stroke="rgb(255,0,0)" stroke-width="0.001mm" />
</svg>