<?xml version="1.0" standalone="no"?>
<!DOCTYPE svg PUBLIC "-//W3C//DTD SVG 1.1//EN"
  "http://www.w3.org/Graphics/SVG/1.1/DTD/svg11.dtd">
<svg width="223mm" height="140.99999999999997mm" viewBox="-157 -88.99999999999999 223 140.99999999999997" xmlns="http://www.w3.org/2000/svg" version="1.1">
	<title>svgOutput</title>
	<desc>made with tinkercad</desc>
<path d="M 65 -24.999999999999993 L 65 -18.997999191284176 L 65 18.00300025939941 L 65 20.999999999999996 L 58.481998443603516 20.999999999999996 L -22.518999099731445 20.999999999999996 L -25.516000747680664 20.999999999999996 L -25.516000747680664 -24.999999999999993 L -22.518999099731445 -24.999999999999993 L -19.51300048828125 -24.999999999999993 L 58.481998443603516 -24.999999999999993 L 61.48699951171875 -24.999999999999993 L 65 -24.999999999999993 M -36 -78.00299835205077 L -39.00199890136719 -78.00299835205077 L -39.00199890136719 -67.9980010986328 L -36 -67.9980010986328 L -36 -65.62799835205077 L -36 -61.70299911499022 L -36 -57.29899978637694 L -36 -56.62400054931639 L -36 -53.673000335693345 L -36 -53.3730010986328 L -36 -53.372001647949205 L -36 -28.003000259399407 L -39.00199890136719 -28.003000259399407 L -39.00199890136719 -17.997999191284176 L -36 -17.997999191284176 L -36 -8.001999855041502 L -39.00199890136719 -8.001999855041502 L -39.00199890136719 2.0030000209808345 L -36 2.0030000209808345 L -36 20.999999999999996 L -36 30.997999191284173 L -39.00199890136719 30.997999191284173 L -39.00199890136719 41.002998352050774 L -36 41.002998352050774 L -36 50.999999999999986 L -39.00199890136719 50.999999999999986 L -45.99700164794922 50.999999999999986 L -45.99700164794922 47.99700164794921 L -56.00199890136719 47.99700164794921 L -56.00199890136719 50.999999999999986 L -64.63400268554688 50.999999999999986 L -64.90899658203125 50.999999999999986 L -67.86000061035156 50.999999999999986 L -68.16100311279297 50.999999999999986 L -90.50199890136719 50.999999999999986 L -93.3030014038086 50.999999999999986 L -101.00199890136719 50.999999999999986 L -105.99800109863281 50.999999999999986 L -116.00199890136719 50.999999999999986 L -122.99700164794922 50.999999999999986 L -135.9980010986328 50.999999999999986 L -135.9980010986328 47.99700164794921 L -146.0019989013672 47.99700164794921 L -146.0019989013672 50.999999999999986 L -153.23399353027344 50.999999999999986 L -156 50.999999999999986 L -156 31.90299987792968 L -153.23399353027344 31.90299987792968 L -153.23399353027344 21.898000717163082 L -156 21.898000717163082 L -156 -43.998001098632805 L -153.23399353027344 -43.998001098632805 L -153.23399353027344 -59.874999999999986 L -156 -59.874999999999986 L -156 -87.99999999999999 L -153.23399353027344 -87.99999999999999 L -146.0019989013672 -87.99999999999999 L -146.0019989013672 -84.9980010986328 L -135.9980010986328 -84.9980010986328 L -135.9980010986328 -87.99999999999999 L -122.99700164794922 -87.99999999999999 L -116.00199890136719 -87.99999999999999 L -116.00199890136719 -84.9980010986328 L -105.99800109863281 -84.9980010986328 L -105.99800109863281 -87.99999999999999 L -101.00199890136719 -87.99999999999999 L -101.00199890136719 -30.99699974060058 L -93.3030014038086 -30.99699974060058 L -90.99800109863281 -30.99699974060058 L -90.99800109863281 -57.29899978637694 L -90.99800109863281 -87.99999999999999 L -90.50199890136719 -87.99999999999999 L -66.00199890136719 -87.99999999999999 L -66.00199890136719 -84.9980010986328 L -45.99700164794922 -84.9980010986328 L -45.99700164794922 -87.99999999999999 L -39.00199890136719 -87.99999999999999 L -36 -87.99999999999999 L -36 -78.00299835205077 M 60.18000030517578 -19.010000228881832 L 60.37300109863281 -19.04899978637695 L 60.41600036621094 -19.063564300537106 L 60.558998107910156 -19.111999511718746 L 60.73500061035156 -19.198999404907223 L 60.89899826049805 -19.30800056457519 L 61.04600143432617 -19.437999725341793 L 61.17599868774414 -19.584999084472653 L 61.28499984741211 -19.749000549316403 L 61.37200164794922 -19.924999237060543 L 61.435001373291016 -20.111000061035153 L 61.439998626708984 -20.13574409484863 L 61.4739990234375 -20.304000854492184 L 61.48567199707031 -20.479999542236325 L 61.48699951171875 -20.499999999999996 L 61.4739990234375 -20.69599914550781 L 61.439998626708984 -20.864255905151364 L 61.435001373291016 -20.88899993896484 L 61.37200164794922 -21.07500076293945 L 61.28499984741211 -21.25099945068359 L 61.17599868774414 -21.41500091552734 L 61.04600143432617 -21.5620002746582 L 60.89899826049805 -21.6919994354248 L 60.73500061035156 -21.80100059509277 L 60.558998107910156 -21.888000488281246 L 60.41600036621094 -21.936435699462887 L 60.37300109863281 -21.951000213623043 L 60.18000030517578 -21.98999977111816 L 59.98400115966797 -22.00300025939941 L 59.78799819946289 -21.98999977111816 L 59.595001220703125 -21.951000213623043 L 59.409000396728516 -21.888000488281246 L 59.391998291015625 -21.879596710205075 L 59.233001708984375 -21.80100059509277 L 59.069000244140625 -21.6919994354248 L 58.922000885009766 -21.5620002746582 L 58.79199981689453 -21.41500091552734 L 58.68299865722656 -21.25099945068359 L 58.59600067138672 -21.07500076293945 L 58.53300094604492 -20.88899993896484 L 58.49399948120117 -20.69599914550781 L 58.481998443603516 -20.499999999999996 L 58.48322296142578 -20.479999542236325 L 58.49399948120117 -20.304000854492184 L 58.53300094604492 -20.111000061035153 L 58.59600067138672 -19.924999237060543 L 58.68299865722656 -19.749000549316403 L 58.79199981689453 -19.584999084472653 L 58.922000885009766 -19.437999725341793 L 59.069000244140625 -19.30800056457519 L 59.233001708984375 -19.198999404907223 L 59.391998291015625 -19.12040328979492 L 59.409000396728516 -19.111999511718746 L 59.595001220703125 -19.04899978637695 L 59.78799819946289 -19.010000228881832 L 59.98400115966797 -18.997999191284176 L 60.18000030517578 -19.010000228881832 M 58.48910140991211 16.38400077819824 L 58.481998443603516 16.499999999999996 L 58.49399948120117 16.69599914550781 L 58.53300094604492 16.88899993896484 L 58.59600067138672 17.07500076293945 L 58.68299865722656 17.25099945068359 L 58.79199981689453 17.41500091552734 L 58.922000885009766 17.5620002746582 L 59.069000244140625 17.6919994354248 L 59.233001708984375 17.80100059509277 L 59.391998291015625 17.879596710205075 L 59.409000396728516 17.888000488281246 L 59.595001220703125 17.951000213623043 L 59.78799819946289 17.98999977111816 L 59.98400115966797 18.00300025939941 L 60.18000030517578 17.98999977111816 L 60.37300109863281 17.951000213623043 L 60.41600036621094 17.936435699462887 L 60.558998107910156 17.888000488281246 L 60.73500061035156 17.80100059509277 L 60.89899826049805 17.6919994354248 L 61.04600143432617 17.5620002746582 L 61.17599868774414 17.41500091552734 L 61.28499984741211 17.25099945068359 L 61.37200164794922 17.07500076293945 L 61.435001373291016 16.88899993896484 L 61.439998626708984 16.864255905151364 L 61.4739990234375 16.69599914550781 L 61.48699951171875 16.499999999999996 L 61.479305267333984 16.38400077819824 L 61.4739990234375 16.304000854492184 L 61.439998626708984 16.13574409484863 L 61.435001373291016 16.111000061035153 L 61.37200164794922 15.92500019073486 L 61.28499984741211 15.748999595642086 L 61.17599868774414 15.585000038146969 L 61.04600143432617 15.437999725341793 L 60.89899826049805 15.307999610900875 L 60.73500061035156 15.19900035858154 L 60.558998107910156 15.112000465393063 L 60.41600036621094 15.063564300537106 L 60.37300109863281 15.04899978637695 L 60.18000030517578 15.010000228881832 L 59.98400115966797 14.998000144958493 L 59.78799819946289 15.010000228881832 L 59.595001220703125 15.04899978637695 L 59.409000396728516 15.112000465393063 L 59.391998291015625 15.120403289794918 L 59.233001708984375 15.19900035858154 L 59.069000244140625 15.307999610900875 L 58.922000885009766 15.437999725341793 L 58.79199981689453 15.585000038146969 L 58.68299865722656 15.748999595642086 L 58.59600067138672 15.92500019073486 L 58.53300094604492 16.111000061035153 L 58.49399948120117 16.304000854492184 L 58.48910140991211 16.38400077819824 M -21.590999603271484 17.888000488281246 L -21.503999710083008 17.917467117309567 L -21.405000686645508 17.951000213623043 L -21.211999893188477 17.98999977111816 L -21.016000747680664 18.00300025939941 L -20.81999969482422 17.98999977111816 L -20.62700080871582 17.951000213623043 L -20.479999542236328 17.901208877563473 L -20.44099998474121 17.888000488281246 L -20.264999389648438 17.80100059509277 L -20.10099983215332 17.6919994354248 L -19.95400047302246 17.5620002746582 L -19.823999404907227 17.41500091552734 L -19.71500015258789 17.25099945068359 L -19.628000259399414 17.07500076293945 L -19.565000534057617 16.88899993896484 L -19.525999069213867 16.69599914550781 L -19.51300048828125 16.499999999999996 L -19.520694732666016 16.38400077819824 L -19.525999069213867 16.304000854492184 L -19.565000534057617 16.111000061035153 L -19.628000259399414 15.92500019073486 L -19.71500015258789 15.748999595642086 L -19.823999404907227 15.585000038146969 L -19.95400047302246 15.437999725341793 L -20.10099983215332 15.307999610900875 L -20.264999389648438 15.19900035858154 L -20.44099998474121 15.112000465393063 L -20.479999542236328 15.098790168762203 L -20.62700080871582 15.04899978637695 L -20.81999969482422 15.010000228881832 L -21.016000747680664 14.998000144958493 L -21.211999893188477 15.010000228881832 L -21.405000686645508 15.04899978637695 L -21.503999710083008 15.08253192901611 L -21.590999603271484 15.112000465393063 L -21.767000198364258 15.19900035858154 L -21.930999755859375 15.307999610900875 L -22.077999114990234 15.437999725341793 L -22.20800018310547 15.585000038146969 L -22.316999435424805 15.748999595642086 L -22.40399932861328 15.92500019073486 L -22.466999053955078 16.111000061035153 L -22.506000518798828 16.304000854492184 L -22.511306762695312 16.38400077819824 L -22.518999099731445 16.499999999999996 L -22.506000518798828 16.69599914550781 L -22.466999053955078 16.88899993896484 L -22.40399932861328 17.07500076293945 L -22.316999435424805 17.25099945068359 L -22.20800018310547 17.41500091552734 L -22.077999114990234 17.5620002746582 L -21.930999755859375 17.6919994354248 L -21.767000198364258 17.80100059509277 L -21.590999603271484 17.888000488281246 M -21.590999603271484 -19.111999511718746 L -21.503999710083008 -19.082532882690426 L -21.405000686645508 -19.04899978637695 L -21.211999893188477 -19.010000228881832 L -21.016000747680664 -18.997999191284176 L -20.81999969482422 -19.010000228881832 L -20.62700080871582 -19.04899978637695 L -20.479999542236328 -19.09879112243652 L -20.44099998474121 -19.111999511718746 L -20.264999389648438 -19.198999404907223 L -20.10099983215332 -19.30800056457519 L -19.95400047302246 -19.437999725341793 L -19.823999404907227 -19.584999084472653 L -19.71500015258789 -19.749000549316403 L -19.628000259399414 -19.924999237060543 L -19.565000534057617 -20.111000061035153 L -19.525999069213867 -20.304000854492184 L -19.514326095581055 -20.479999542236325 L -19.51300048828125 -20.499999999999996 L -19.525999069213867 -20.69599914550781 L -19.565000534057617 -20.88899993896484 L -19.628000259399414 -21.07500076293945 L -19.71500015258789 -21.25099945068359 L -19.823999404907227 -21.41500091552734 L -19.95400047302246 -21.5620002746582 L -20.10099983215332 -21.6919994354248 L -20.264999389648438 -21.80100059509277 L -20.44099998474121 -21.888000488281246 L -20.479999542236328 -21.901208877563473 L -20.62700080871582 -21.951000213623043 L -20.81999969482422 -21.98999977111816 L -21.016000747680664 -22.00300025939941 L -21.211999893188477 -21.98999977111816 L -21.405000686645508 -21.951000213623043 L -21.503999710083008 -21.917467117309567 L -21.590999603271484 -21.888000488281246 L -21.767000198364258 -21.80100059509277 L -21.930999755859375 -21.6919994354248 L -22.077999114990234 -21.5620002746582 L -22.20800018310547 -21.41500091552734 L -22.316999435424805 -21.25099945068359 L -22.40399932861328 -21.07500076293945 L -22.466999053955078 -20.88899993896484 L -22.506000518798828 -20.69599914550781 L -22.518999099731445 -20.499999999999996 L -22.51767349243164 -20.479999542236325 L -22.506000518798828 -20.304000854492184 L -22.466999053955078 -20.111000061035153 L -22.40399932861328 -19.924999237060543 L -22.316999435424805 -19.749000549316403 L -22.20800018310547 -19.584999084472653 L -22.077999114990234 -19.437999725341793 L -21.930999755859375 -19.30800056457519 L -21.767000198364258 -19.198999404907223 L -21.590999603271484 -19.111999511718746 M -80.3499984741211 -65.62699890136717 L -80.3499984741211 -57.29899978637694 L -80.3499984741211 -56.62400054931639 L -80.3499984741211 -53.673000335693345 L -80.3499984741211 -53.3730010986328 L -80.3499984741211 -53.372001647949205 L -77.9000015258789 -53.372001647949205 L -77.9000015258789 -53.3730010986328 L -77.9000015258789 -53.673000335693345 L -77.9000015258789 -56.62400054931639 L -77.9000015258789 -57.29899978637694 L -77.9000015258789 -65.62699890136717 L -80.3499984741211 -65.62699890136717 M -48.99700164794922 -41.69800186157226 L -48.99700164794922 -53.372001647949205 L -48.99700164794922 -53.3730010986328 L -48.99700164794922 -53.673000335693345 L -48.99700164794922 -56.62400054931639 L -48.99700164794922 -57.29899978637694 L -48.99700164794922 -61.70299911499022 L -61.99800109863281 -61.70299911499022 L -69.00299835205078 -61.70299911499022 L -69.00299835205078 -57.29899978637694 L -69.00299835205078 -56.62400054931639 L -69.00299835205078 -53.673000335693345 L -69.00299835205078 -53.3730010986328 L -69.00299835205078 -53.372001647949205 L -69.00299835205078 -41.69800186157226 L -68.16100311279297 -41.69800186157226 L -67.86000061035156 -41.69800186157226 L -64.90899658203125 -41.69800186157226 L -64.63400268554688 -41.69800186157226 L -62.00199890136719 -41.69800186157226 L -57.2599983215332 -41.69800186157226 L -56.00199890136719 -41.69800186157226 L -55.99700164794922 -41.69800186157226 L -55.90599822998047 -41.69800186157226 L -55.904998779296875 -41.69800186157226 L -54.255001068115234 -41.69800186157226 L -48.99700164794922 -41.69800186157226 M -55.95399856567383 1.4900000095367432 L -55.90599822998047 1.492938756942749 L -55.904998779296875 1.4930000305175781 L -55.757999420166016 1.501999974250793 L -55.5620002746582 1.4900000095367432 L -55.36899948120117 1.4509999752044678 L -55.29600143432617 1.4262741804122925 L -55.18299865722656 1.3880000114440918 L -55.00699996948242 1.3009999990463257 L -54.84299850463867 1.1920000314712524 L -54.69499969482422 1.062000036239624 L -54.566001892089844 0.915000021457672 L -54.457000732421875 0.7509999871253966 L -54.369998931884766 0.574999988079071 L -54.30699920654297 0.3889999985694885 L -54.268001556396484 0.1959999948740006 L -54.255001068115234 1.0981007634225032e-13 L -54.268001556396484 -0.19599999487400038 L -54.30699920654297 -0.3889999985694883 L -54.369998931884766 -0.5749999880790708 L -54.457000732421875 -0.7509999871253964 L -54.566001892089844 -0.9150000214576718 L -54.69499969482422 -1.0620000362396236 L -54.84299850463867 -1.192000031471252 L -55.00699996948242 -1.3009999990463252 L -55.18299865722656 -1.3880000114440914 L -55.29600143432617 -1.426274180412292 L -55.36899948120117 -1.4509999752044673 L -55.5620002746582 -1.4900000095367427 L -55.757999420166016 -1.5030000209808345 L -55.904998779296875 -1.4932500123977657 L -55.90599822998047 -1.4931837320327754 L -55.95399856567383 -1.4900000095367427 L -55.99700164794922 -1.4813108444213863 L -56.00199890136719 -1.4803005456924434 L -56.14699935913086 -1.4509999752044673 L -56.31999969482422 -1.3924032449722286 L -56.33300018310547 -1.3880000114440914 L -56.50899887084961 -1.3009999990463252 L -56.672000885009766 -1.192000031471252 L -56.81999969482422 -1.0620000362396236 L -56.95000076293945 -0.9150000214576718 L -57.058998107910156 -0.7509999871253964 L -57.145999908447266 -0.5749999880790708 L -57.20899963378906 -0.3889999985694883 L -57.24700164794922 -0.19599999487400038 L -57.2599983215332 -1.0958803173732529e-13 L -57.24700164794922 0.1959999948740006 L -57.20899963378906 0.3889999985694885 L -57.145999908447266 0.574999988079071 L -57.058998107910156 0.7509999871253966 L -56.95000076293945 0.915000021457672 L -56.81999969482422 1.062000036239624 L -56.672000885009766 1.1920000314712524 L -56.50899887084961 1.3009999990463257 L -56.33300018310547 1.3880000114440918 L -56.31999969482422 1.392403244972229 L -56.14699935913086 1.4509999752044678 L -56.00199890136719 1.4803005456924438 L -55.99700164794922 1.4813108444213867 L -55.95399856567383 1.4900000095367432 M -55.95399856567383 -35.509998321533196 L -55.90599822998047 -35.507061004638665 L -55.904998779296875 -35.506999969482415 L -55.757999420166016 -35.498001098632805 L -55.5620002746582 -35.509998321533196 L -55.36899948120117 -35.548999786376946 L -55.29600143432617 -35.57372665405273 L -55.18299865722656 -35.61199951171874 L -55.00699996948242 -35.69900131225585 L -54.84299850463867 -35.807998657226555 L -54.69499969482422 -35.93799972534179 L -54.566001892089844 -36.08499908447265 L -54.457000732421875 -36.2490005493164 L -54.369998931884766 -36.42499923706054 L -54.30699920654297 -36.61100006103515 L -54.268001556396484 -36.80400085449218 L -54.26401901245117 -36.86399841308593 L -54.255001068115234 -36.99999999999999 L -54.268001556396484 -37.195999145507805 L -54.30699920654297 -37.38899993896484 L -54.369998931884766 -37.575000762939446 L -54.457000732421875 -37.75099945068359 L -54.566001892089844 -37.91500091552734 L -54.69499969482422 -38.062000274658196 L -54.84299850463867 -38.19200134277343 L -55.00699996948242 -38.30099868774413 L -55.18299865722656 -38.38800048828124 L -55.29600143432617 -38.42627334594726 L -55.36899948120117 -38.45100021362304 L -55.5620002746582 -38.49000167846679 L -55.757999420166016 -38.502998352050774 L -55.904998779296875 -38.4932518005371 L -55.90599822998047 -38.49318313598632 L -55.95399856567383 -38.49000167846679 L -55.99700164794922 -38.481311798095696 L -56.00199890136719 -38.480300903320305 L -56.14699935913086 -38.45100021362304 L -56.31999969482422 -38.392402648925774 L -56.33300018310547 -38.38800048828124 L -56.50899887084961 -38.30099868774413 L -56.672000885009766 -38.19200134277343 L -56.81999969482422 -38.062000274658196 L -56.95000076293945 -37.91500091552734 L -57.058998107910156 -37.75099945068359 L -57.145999908447266 -37.575000762939446 L -57.20899963378906 -37.38899993896484 L -57.24700164794922 -37.195999145507805 L -57.2599983215332 -36.99999999999999 L -57.250980377197266 -36.86399841308593 L -57.24700164794922 -36.80400085449218 L -57.20899963378906 -36.61100006103515 L -57.145999908447266 -36.42499923706054 L -57.058998107910156 -36.2490005493164 L -56.95000076293945 -36.08499908447265 L -56.81999969482422 -35.93799972534179 L -56.672000885009766 -35.807998657226555 L -56.50899887084961 -35.69900131225585 L -56.33300018310547 -35.61199951171874 L -56.14699935913086 -35.548999786376946 L -56.00199890136719 -35.51969909667968 L -55.99700164794922 -35.51868820190429 L -55.95399856567383 -35.509998321533196 M -137.33299255371094 -35.61199951171874 L -137.21600341796875 -35.57237243652343 L -137.14700317382812 -35.548999786376946 L -136.95399475097656 -35.509998321533196 L -136.75799560546875 -35.498001098632805 L -136.56199645996094 -35.509998321533196 L -136.36900329589844 -35.548999786376946 L -136.18299865722656 -35.61199951171874 L -136.0070037841797 -35.69900131225585 L -135.9980010986328 -35.70498275756835 L -135.84300231933594 -35.807998657226555 L -135.69500732421875 -35.93799972534179 L -135.5659942626953 -36.08499908447265 L -135.45700073242188 -36.2490005493164 L -135.3699951171875 -36.42499923706054 L -135.3070068359375 -36.61100006103515 L -135.26800537109375 -36.80400085449218 L -135.26402282714844 -36.86399841308593 L -135.2550048828125 -36.99999999999999 L -135.26800537109375 -37.195999145507805 L -135.3070068359375 -37.38899993896484 L -135.3699951171875 -37.575000762939446 L -135.45700073242188 -37.75099945068359 L -135.5659942626953 -37.91500091552734 L -135.69500732421875 -38.062000274658196 L -135.84300231933594 -38.19200134277343 L -135.9980010986328 -38.29501724243163 L -136.0070037841797 -38.30099868774413 L -136.18299865722656 -38.38800048828124 L -136.19200134277344 -38.39104843139648 L -136.36900329589844 -38.45100021362304 L -136.56199645996094 -38.49000167846679 L -136.75799560546875 -38.502998352050774 L -136.95399475097656 -38.49000167846679 L -137.14700317382812 -38.45100021362304 L -137.21600341796875 -38.427627563476555 L -137.33299255371094 -38.38800048828124 L -137.50900268554688 -38.30099868774413 L -137.6719970703125 -38.19200134277343 L -137.82000732421875 -38.062000274658196 L -137.9499969482422 -37.91500091552734 L -138.0590057373047 -37.75099945068359 L -138.14599609375 -37.575000762939446 L -138.20899963378906 -37.38899993896484 L -138.2469940185547 -37.195999145507805 L -138.25999450683594 -36.99999999999999 L -138.2509765625 -36.86399841308593 L -138.2469940185547 -36.80400085449218 L -138.20899963378906 -36.61100006103515 L -138.14599609375 -36.42499923706054 L -138.0590057373047 -36.2490005493164 L -137.9499969482422 -36.08499908447265 L -137.82000732421875 -35.93799972534179 L -137.6719970703125 -35.807998657226555 L -137.50900268554688 -35.69900131225585 L -137.33299255371094 -35.61199951171874 M -135.9980010986328 -41.69800186157226 L -135.2550048828125 -41.69800186157226 L -122.99700164794922 -41.69800186157226 L -122.99700164794922 -61.70299911499022 L -135.9980010986328 -61.70299911499022 L -143.0019989013672 -61.70299911499022 L -143.0019989013672 -41.69800186157226 L -138.25999450683594 -41.69800186157226 L -135.9980010986328 -41.69800186157226 M -137.33299255371094 1.3880000114440918 L -137.21600341796875 1.427628993988037 L -137.14700317382812 1.4509999752044678 L -136.95399475097656 1.4900000095367432 L -136.75799560546875 1.501999974250793 L -136.56199645996094 1.4900000095367432 L -136.36900329589844 1.4509999752044678 L -136.19200134277344 1.3910484313964844 L -136.18299865722656 1.3880000114440918 L -136.0070037841797 1.3009999990463257 L -135.9980010986328 1.2950183153152466 L -135.84300231933594 1.1920000314712524 L -135.69500732421875 1.062000036239624 L -135.5659942626953 0.915000021457672 L -135.45700073242188 0.7509999871253966 L -135.3699951171875 0.574999988079071 L -135.3070068359375 0.3889999985694885 L -135.26800537109375 0.1959999948740006 L -135.2550048828125 1.1102230246251565e-16 L -135.26800537109375 -0.19599999487400038 L -135.3070068359375 -0.3889999985694883 L -135.3699951171875 -0.5749999880790708 L -135.45700073242188 -0.7509999871253964 L -135.5659942626953 -0.9150000214576718 L -135.69500732421875 -1.0620000362396236 L -135.84300231933594 -1.192000031471252 L -135.9980010986328 -1.2950183153152461 L -136.0070037841797 -1.3009999990463252 L -136.18299865722656 -1.3880000114440914 L -136.19200134277344 -1.391048431396484 L -136.36900329589844 -1.4509999752044673 L -136.56199645996094 -1.4900000095367427 L -136.75799560546875 -1.5030000209808345 L -136.95399475097656 -1.4900000095367427 L -137.14700317382812 -1.4509999752044673 L -137.21600341796875 -1.4276289939880367 L -137.33299255371094 -1.3880000114440914 L -137.50900268554688 -1.3009999990463252 L -137.6719970703125 -1.192000031471252 L -137.82000732421875 -1.0620000362396236 L -137.9499969482422 -0.9150000214576718 L -138.0590057373047 -0.7509999871253964 L -138.14599609375 -0.5749999880790708 L -138.20899963378906 -0.3889999985694883 L -138.2469940185547 -0.19599999487400038 L -138.25999450683594 1.1102230246251565e-16 L -138.2469940185547 0.1959999948740006 L -138.20899963378906 0.3889999985694885 L -138.14599609375 0.574999988079071 L -138.0590057373047 0.7509999871253966 L -137.9499969482422 0.915000021457672 L -137.82000732421875 1.062000036239624 L -137.6719970703125 1.1920000314712524 L -137.50900268554688 1.3009999990463257 L -137.33299255371094 1.3880000114440918 M -55.90599822998047 29.60000038146972 L -56.00199890136719 29.60000038146972 L -64.63400268554688 29.60000038146972 L -64.90899658203125 29.60000038146972 L -67.86000061035156 29.60000038146972 L -68.16000366210938 29.60000038146972 L -68.16000366210938 32.04999923706054 L -67.86000061035156 32.04999923706054 L -64.90899658203125 32.04999923706054 L -64.63400268554688 32.04999923706054 L -56.00199890136719 32.04999923706054 L -55.90599822998047 32.04999923706054 L -55.904998779296875 32.04999923706054 L -55.904998779296875 29.60000038146972 L -55.90599822998047 29.60000038146972 M -56.00199890136719 7.998000144958494 L -57.2599983215332 7.998000144958494 L -62.00199890136719 7.998000144958494 L -62.00199890136719 10.003000259399412 L -56.00199890136719 10.003000259399412 L -55.99700164794922 10.003000259399412 L -55.99700164794922 7.998000144958494 L -56.00199890136719 7.998000144958494 M -143.0019989013672 35.70199966430663 L -135.9980010986328 35.70199966430663 L -122.99700164794922 35.70199966430663 L -122.99700164794922 15.696999549865719 L -135.9980010986328 15.696999549865719 L -138.25999450683594 15.696999549865719 L -143.0019989013672 15.696999549865719 L -143.0019989013672 35.70199966430663 M -136.08200073242188 -1.5030000209808345 L -135.9980010986328 -1.3281486034393306 L -135.9980010986328 -1.407279014587402 L -136.08200073242188 -1.5030000209808345 z" fill="none" stroke="rgb(255,0,0)" stroke-width="0.001mm" />
</svg>