<?xml version="1.0" standalone="no"?>
<!DOCTYPE svg PUBLIC "-//W3C//DTD SVG 1.1//EN"
  "http://www.w3.org/Graphics/SVG/1.1/DTD/svg11.dtd">
<svg width="122mm" height="151.99999999999994mm" viewBox="207 -243.99999999999994 122 151.99999999999994" xmlns="http://www.w3.org/2000/svg" version="1.1">
	<title>svgOutput</title>
	<desc>made with tinkercad</desc>
<path d="M 278.00299072265625 -92.99999999999999 L 278.00299072265625 -96.00299835205075 L 257.99798583984375 -96.00299835205075 L 257.99798583984375 -92.99999999999999 L 257.0270080566406 -92.99999999999999 L 250.9980010986328 -92.99999999999999 L 248.0030059814453 -92.99999999999999 L 248.0030059814453 -96.00299835205075 L 227.9980010986328 -96.00299835205075 L 227.9980010986328 -92.99999999999999 L 218.00100708007812 -92.99999999999999 L 214.9980010986328 -96.00299835205075 L 211.0030059814453 -99.99800109863278 L 208 -103.00099945068357 L 208 -112.99800109863278 L 211.0030059814453 -112.99800109863278 L 211.0030059814453 -152.99800109863278 L 211.0030059814453 -153.00300598144528 L 208 -153.00300598144528 L 208 -162.99800109863278 L 211.0030059814453 -162.99800109863278 L 211.0030059814453 -173.00300598144528 L 208 -173.00300598144528 L 208 -182.99800109863278 L 211.0030059814453 -182.99800109863278 L 211.0030059814453 -188.99899291992185 L 211.0030059814453 -205.00199890136713 L 211.0030059814453 -211.00500488281244 L 211.0030059814453 -223.00300598144526 L 208 -223.00300598144526 L 208 -232.99999999999994 L 211.0030059814453 -236.00300598144526 L 213 -237.99999999999994 L 214.9980010986328 -239.99800109863276 L 218 -242.99999999999994 L 227.9980010986328 -242.99999999999994 L 227.9980010986328 -239.99800109863276 L 248.0030059814453 -239.99800109863276 L 248.0030059814453 -242.99999999999994 L 250.9980010986328 -242.99999999999994 L 257.99798583984375 -242.99999999999994 L 257.99798583984375 -239.99800109863276 L 278.00299072265625 -239.99800109863276 L 278.00299072265625 -242.99999999999994 L 282.00299072265625 -242.99999999999994 L 287.99798583984375 -242.99999999999994 L 287.99798583984375 -239.99800109863276 L 308.00299072265625 -239.99800109863276 L 308.00299072265625 -242.99999999999994 L 318.0010070800781 -242.99999999999994 L 318.00299072265625 -242.99800109863276 L 323.0010070800781 -237.99999999999994 L 328 -233.00100708007807 L 328 -231.99800109863276 L 328 -223.00300598144526 L 324.99798583984375 -223.00300598144526 L 324.99798583984375 -182.99800109863278 L 328 -182.99800109863278 L 328 -173.00300598144528 L 324.99798583984375 -173.00300598144528 L 324.99798583984375 -162.99800109863278 L 328 -162.99800109863278 L 328 -153.00300598144528 L 324.99798583984375 -153.00300598144528 L 324.99798583984375 -112.99800109863278 L 328 -112.99800109863278 L 328 -102.99999999999997 L 324.99798583984375 -99.99800109863278 L 323.99798583984375 -98.99800109863278 L 321.00299072265625 -96.00299835205075 L 318 -92.99999999999999 L 308.00299072265625 -92.99999999999999 L 308.00299072265625 -96.00299835205075 L 287.99798583984375 -96.00299835205075 L 287.99798583984375 -92.99999999999999 L 282.00299072265625 -92.99999999999999 L 278.00299072265625 -92.99999999999999 M 279.0220031738281 -177.46699523925778 L 257.0270080566406 -177.46699523925778 L 257.0270080566406 -174.4629974365234 L 279.0220031738281 -174.4629974365234 L 279.0220031738281 -177.46699523925778 M 231.80599975585938 -155.51100158691403 L 232.0019989013672 -155.49800109863278 L 232.197998046875 -155.51100158691403 L 232.38999938964844 -155.54899597167966 L 232.5760040283203 -155.61199951171872 L 232.64883422851562 -155.64799499511716 L 232.7519989013672 -155.6990051269531 L 232.9149932861328 -155.80799865722653 L 233.06300354003906 -155.9369964599609 L 233.19200134277344 -156.08500671386716 L 233.30099487304688 -156.24800109863278 L 233.38800048828125 -156.42399597167966 L 233.4510040283203 -156.61000061035153 L 233.4720001220703 -156.71337890624997 L 233.49000549316406 -156.80200195312497 L 233.5030059814453 -156.99800109863278 L 233.49000549316406 -157.1940002441406 L 233.4720001220703 -157.28260803222653 L 233.4510040283203 -157.38600158691403 L 233.38800048828125 -157.5720062255859 L 233.3267059326172 -157.69599914550778 L 233.30099487304688 -157.74800109863278 L 233.19200134277344 -157.9109954833984 L 233.06300354003906 -158.05900573730466 L 232.9149932861328 -158.18800354003903 L 232.7519989013672 -158.29699707031247 L 232.5760040283203 -158.38400268554685 L 232.38999938964844 -158.4470062255859 L 232.197998046875 -158.48500061035153 L 232.0019989013672 -158.49800109863278 L 231.80599975585938 -158.48500061035153 L 231.61300659179688 -158.4470062255859 L 231.42799377441406 -158.38400268554685 L 231.4239959716797 -158.38201904296872 L 231.2519989013672 -158.29699707031247 L 231.08799743652344 -158.18800354003903 L 230.9409942626953 -158.05900573730466 L 230.81100463867188 -157.9109954833984 L 230.70199584960938 -157.74800109863278 L 230.67630004882812 -157.69599914550778 L 230.61500549316406 -157.5720062255859 L 230.552001953125 -157.38600158691403 L 230.51400756835938 -157.1940002441406 L 230.50100708007812 -156.99800109863278 L 230.51400756835938 -156.80200195312497 L 230.552001953125 -156.61000061035153 L 230.61500549316406 -156.42399597167966 L 230.70199584960938 -156.24800109863278 L 230.81100463867188 -156.08500671386716 L 230.9409942626953 -155.9369964599609 L 231.08799743652344 -155.80799865722653 L 231.2519989013672 -155.6990051269531 L 231.3551788330078 -155.64799499511716 L 231.42799377441406 -155.61199951171872 L 231.61300659179688 -155.54899597167966 L 231.80599975585938 -155.51100158691403 M 231.2519989013672 -177.70300292968747 L 231.4239959716797 -177.61798095703122 L 231.42799377441406 -177.6159973144531 L 231.61300659179688 -177.55299377441403 L 231.80599975585938 -177.5149993896484 L 232.0019989013672 -177.50199890136716 L 232.197998046875 -177.5149993896484 L 232.38999938964844 -177.55299377441403 L 232.5760040283203 -177.6159973144531 L 232.7519989013672 -177.70300292968747 L 232.9149932861328 -177.8119964599609 L 233.06300354003906 -177.9420013427734 L 233.19200134277344 -178.08900451660153 L 233.25018310546875 -178.17599487304685 L 233.30099487304688 -178.25199890136716 L 233.38800048828125 -178.42799377441403 L 233.4510040283203 -178.6139984130859 L 233.4720001220703 -178.7179260253906 L 233.49000549316406 -178.80700683593747 L 233.5030059814453 -179.00199890136716 L 233.49000549316406 -179.19799804687497 L 233.4720001220703 -179.28707885742185 L 233.4510040283203 -179.39100646972653 L 233.38800048828125 -179.57699584960935 L 233.30099487304688 -179.75300598144528 L 233.19200134277344 -179.9160003662109 L 233.06300354003906 -180.06300354003903 L 232.9149932861328 -180.19299316406247 L 232.86863708496094 -180.22399902343747 L 232.7519989013672 -180.30200195312497 L 232.5760040283203 -180.38800048828122 L 232.38999938964844 -180.45199584960935 L 232.197998046875 -180.49000549316403 L 232.0019989013672 -180.50300598144528 L 231.80599975585938 -180.49000549316403 L 231.61300659179688 -180.45199584960935 L 231.42799377441406 -180.38800048828122 L 231.2519989013672 -180.30200195312497 L 231.1346435546875 -180.22399902343747 L 231.08799743652344 -180.19299316406247 L 230.9409942626953 -180.06300354003903 L 230.81100463867188 -179.9160003662109 L 230.70199584960938 -179.75300598144528 L 230.61500549316406 -179.57699584960935 L 230.552001953125 -179.39100646972653 L 230.51400756835938 -179.19799804687497 L 230.50100708007812 -179.00199890136716 L 230.51400756835938 -178.80700683593747 L 230.552001953125 -178.6139984130859 L 230.61500549316406 -178.42799377441403 L 230.70199584960938 -178.25199890136716 L 230.75282287597656 -178.17599487304685 L 230.81100463867188 -178.08900451660153 L 230.9409942626953 -177.9420013427734 L 231.08799743652344 -177.8119964599609 L 231.2519989013672 -177.70300292968747 M 222.802001953125 -155.51100158691403 L 222.9980010986328 -155.49800109863278 L 223.19400024414062 -155.51100158691403 L 223.23199462890625 -155.51847839355466 L 223.38699340820312 -155.54899597167966 L 223.57200622558594 -155.61199951171872 L 223.6448211669922 -155.64799499511716 L 223.7480010986328 -155.6990051269531 L 223.91200256347656 -155.80799865722653 L 224.0590057373047 -155.9369964599609 L 224.18899536132812 -156.08500671386716 L 224.29800415039062 -156.24800109863278 L 224.38499450683594 -156.42399597167966 L 224.447998046875 -156.61000061035153 L 224.48599243164062 -156.80200195312497 L 224.49899291992188 -156.99800109863278 L 224.48599243164062 -157.1940002441406 L 224.447998046875 -157.38600158691403 L 224.38499450683594 -157.5720062255859 L 224.32369995117188 -157.69599914550778 L 224.29800415039062 -157.74800109863278 L 224.18899536132812 -157.9109954833984 L 224.0590057373047 -158.05900573730466 L 223.91200256347656 -158.18800354003903 L 223.7480010986328 -158.29699707031247 L 223.57200622558594 -158.38400268554685 L 223.38699340820312 -158.4470062255859 L 223.23199462890625 -158.4775238037109 L 223.19400024414062 -158.48500061035153 L 222.9980010986328 -158.49800109863278 L 222.802001953125 -158.48500061035153 L 222.61000061035156 -158.4470062255859 L 222.4239959716797 -158.38400268554685 L 222.2480010986328 -158.29699707031247 L 222.0850067138672 -158.18800354003903 L 221.93699645996094 -158.05900573730466 L 221.80799865722656 -157.9109954833984 L 221.69900512695312 -157.74800109863278 L 221.6732940673828 -157.69599914550778 L 221.61199951171875 -157.5720062255859 L 221.5489959716797 -157.38600158691403 L 221.50999450683594 -157.1940002441406 L 221.4980010986328 -156.99800109863278 L 221.50999450683594 -156.80200195312497 L 221.5489959716797 -156.61000061035153 L 221.61199951171875 -156.42399597167966 L 221.69900512695312 -156.24800109863278 L 221.80799865722656 -156.08500671386716 L 221.93699645996094 -155.9369964599609 L 222.0850067138672 -155.80799865722653 L 222.2480010986328 -155.6990051269531 L 222.35116577148438 -155.64799499511716 L 222.4239959716797 -155.61199951171872 L 222.61000061035156 -155.54899597167966 L 222.802001953125 -155.51100158691403 M 222.802001953125 -177.5149993896484 L 222.9980010986328 -177.50199890136716 L 223.19400024414062 -177.5149993896484 L 223.23199462890625 -177.52247619628903 L 223.38699340820312 -177.55299377441403 L 223.57200622558594 -177.6159973144531 L 223.7480010986328 -177.70300292968747 L 223.91200256347656 -177.8119964599609 L 224.0590057373047 -177.9420013427734 L 224.18899536132812 -178.08900451660153 L 224.24717712402344 -178.17599487304685 L 224.29800415039062 -178.25199890136716 L 224.38499450683594 -178.42799377441403 L 224.447998046875 -178.6139984130859 L 224.48599243164062 -178.80700683593747 L 224.49899291992188 -179.00199890136716 L 224.48599243164062 -179.19799804687497 L 224.447998046875 -179.39100646972653 L 224.38499450683594 -179.57699584960935 L 224.29800415039062 -179.75300598144528 L 224.18899536132812 -179.9160003662109 L 224.0590057373047 -180.06300354003903 L 223.91200256347656 -180.19299316406247 L 223.8653564453125 -180.22399902343747 L 223.7480010986328 -180.30200195312497 L 223.57200622558594 -180.38800048828122 L 223.38699340820312 -180.45199584960935 L 223.19400024414062 -180.49000549316403 L 222.9980010986328 -180.50300598144528 L 222.802001953125 -180.49000549316403 L 222.61000061035156 -180.45199584960935 L 222.4239959716797 -180.38800048828122 L 222.2480010986328 -180.30200195312497 L 222.13136291503906 -180.22399902343747 L 222.0850067138672 -180.19299316406247 L 221.93699645996094 -180.06300354003903 L 221.80799865722656 -179.9160003662109 L 221.69900512695312 -179.75300598144528 L 221.61199951171875 -179.57699584960935 L 221.5489959716797 -179.39100646972653 L 221.50999450683594 -179.19799804687497 L 221.4980010986328 -179.00199890136716 L 221.50999450683594 -178.80700683593747 L 221.5489959716797 -178.6139984130859 L 221.61199951171875 -178.42799377441403 L 221.69900512695312 -178.25199890136716 L 221.74981689453125 -178.17599487304685 L 221.80799865722656 -178.08900451660153 L 221.93699645996094 -177.9420013427734 L 222.0850067138672 -177.8119964599609 L 222.2480010986328 -177.70300292968747 L 222.4239959716797 -177.6159973144531 L 222.61000061035156 -177.55299377441403 L 222.802001953125 -177.5149993896484 M 278.4989929199219 -225.99800109863276 L 282.00299072265625 -225.99800109863276 L 298.8009948730469 -225.99800109863276 L 302.99798583984375 -225.99800109863276 L 306.00299072265625 -225.99800109863276 L 308.00299072265625 -225.99800109863276 L 308.00299072265625 -230.00300598144526 L 282.00299072265625 -230.00300598144526 L 250.9980010986328 -230.00300598144526 L 227.9980010986328 -230.00300598144526 L 227.9980010986328 -225.99800109863276 L 237.1999969482422 -225.99800109863276 L 250.9980010986328 -225.99800109863276 L 257.50201416015625 -225.99800109863276 L 261.7980041503906 -225.99800109863276 L 264.8030090332031 -225.99800109863276 L 271.197998046875 -225.99800109863276 L 274.2030029296875 -225.99800109863276 L 278.4989929199219 -225.99800109863276 M 271.3479919433594 -215.9450073242187 L 271.3599853515625 -215.92153930664057 L 271.3699951171875 -215.9019927978515 L 271.39300537109375 -215.85800170898432 L 271.44500732421875 -215.77400207519526 L 271.4739990234375 -215.7319946289062 L 271.50299072265625 -215.69200134277338 L 271.5350036621094 -215.6519927978515 L 271.5679931640625 -215.61300659179682 L 271.60198974609375 -215.57499694824213 L 271.6243896484375 -215.55200195312494 L 271.63800048828125 -215.53799438476557 L 271.67498779296875 -215.50199890136713 L 271.7130126953125 -215.46800231933588 L 271.75201416015625 -215.4349975585937 L 271.7919921875 -215.40299987792963 L 271.8320007324219 -215.37399291992182 L 271.87200927734375 -215.3463745117187 L 271.8739929199219 -215.34500122070307 L 271.9580078125 -215.29299926757807 L 272.00201416015625 -215.27000427246088 L 272.0459899902344 -215.24800109863276 L 272.0899963378906 -215.22700500488276 L 272.135009765625 -215.20799255371088 L 272.17999267578125 -215.1900024414062 L 272.22601318359375 -215.17399597167963 L 272.27301025390625 -215.16000366210932 L 272.3190002441406 -215.14700317382807 L 272.3659973144531 -215.13499450683588 L 272.3840026855469 -215.1311645507812 L 272.4129943847656 -215.12499999999994 L 272.46099853515625 -215.1170043945312 L 272.5090026855469 -215.1100006103515 L 272.5559997558594 -215.104995727539 L 272.60400390625 -215.10099792480463 L 272.6520080566406 -215.09899902343744 L 272.70001220703125 -215.09800720214838 L 272.74798583984375 -215.09899902343744 L 272.7959899902344 -215.10099792480463 L 272.843994140625 -215.104995727539 L 272.8919982910156 -215.1100006103515 L 272.89599609375 -215.11058044433588 L 272.94000244140625 -215.1170043945312 L 272.98699951171875 -215.12499999999994 L 273.0350036621094 -215.13499450683588 L 273.08099365234375 -215.14700317382807 L 273.12799072265625 -215.16000366210932 L 273.17401123046875 -215.17399597167963 L 273.2200012207031 -215.1900024414062 L 273.2659912109375 -215.20799255371088 L 273.3110046386719 -215.22700500488276 L 273.3550109863281 -215.24800109863276 L 273.39898681640625 -215.27000427246088 L 273.4079895019531 -215.27481079101557 L 273.4419860839844 -215.29299926757807 L 273.4849853515625 -215.31900024414057 L 273.5270080566406 -215.34500122070307 L 273.6090087890625 -215.40299987792963 L 273.64898681640625 -215.4349975585937 L 273.68798828125 -215.46800231933588 L 273.72601318359375 -215.50199890136713 L 273.76300048828125 -215.53799438476557 L 273.776611328125 -215.55200195312494 L 273.79901123046875 -215.57499694824213 L 273.8330078125 -215.61300659179682 L 273.8659973144531 -215.6519927978515 L 273.8970031738281 -215.69200134277338 L 273.927001953125 -215.7319946289062 L 273.9549865722656 -215.77400207519526 L 273.98199462890625 -215.81599426269526 L 274.0069885253906 -215.85800170898432 L 274.031005859375 -215.9019927978515 L 274.0530090332031 -215.9450073242187 L 274.0740051269531 -215.990005493164 L 274.0929870605469 -216.03500366210932 L 274.10394287109375 -216.06399536132807 L 274.1099853515625 -216.08000183105463 L 274.1260070800781 -216.12600708007807 L 274.1409912109375 -216.17300415039057 L 274.15399169921875 -216.21899414062494 L 274.1650085449219 -216.2660064697265 L 274.17498779296875 -216.313003540039 L 274.1839904785156 -216.36099243164057 L 274.1910095214844 -216.40800476074213 L 274.1960144042969 -216.4559936523437 L 274.20001220703125 -216.50399780273432 L 274.2019958496094 -216.55200195312494 L 274.2025146484375 -216.57600402832026 L 274.2030029296875 -216.60000610351557 L 274.2019958496094 -216.64799499511713 L 274.20001220703125 -216.69599914550776 L 274.1960144042969 -216.74400329589838 L 274.1910095214844 -216.792007446289 L 274.1839904785156 -216.83999633789057 L 274.17498779296875 -216.88699340820307 L 274.1650085449219 -216.9349975585937 L 274.15399169921875 -216.98100280761713 L 274.1409912109375 -217.02799987792963 L 274.1260070800781 -217.07400512695307 L 274.1211242675781 -217.08799743652338 L 274.1099853515625 -217.11999511718744 L 274.0929870605469 -217.16600036621088 L 274.0740051269531 -217.2109985351562 L 274.0530090332031 -217.25500488281244 L 274.031005859375 -217.29899597167963 L 274.0069885253906 -217.34199523925776 L 273.98199462890625 -217.38499450683588 L 273.9549865722656 -217.42700195312494 L 273.927001953125 -217.46800231933588 L 273.8970031738281 -217.50900268554682 L 273.8659973144531 -217.54899597167963 L 273.8330078125 -217.58799743652338 L 273.822265625 -217.60000610351557 L 273.79901123046875 -217.62600708007807 L 273.76300048828125 -217.66299438476557 L 273.72601318359375 -217.69900512695307 L 273.68798828125 -217.73300170898432 L 273.64898681640625 -217.7660064697265 L 273.6090087890625 -217.79699707031244 L 273.5679931640625 -217.82699584960932 L 273.5270080566406 -217.854995727539 L 273.4849853515625 -217.88200378417963 L 273.4419860839844 -217.906997680664 L 273.4079895019531 -217.92597961425776 L 273.39898681640625 -217.93099975585932 L 273.3550109863281 -217.95300292968744 L 273.3110046386719 -217.97399902343744 L 273.2659912109375 -217.99299621582026 L 273.2200012207031 -218.00999450683588 L 273.17401123046875 -218.02600097656244 L 273.12799072265625 -218.04100036621088 L 273.08099365234375 -218.05400085449213 L 273.0350036621094 -218.0650024414062 L 272.98699951171875 -218.07499694824213 L 272.94000244140625 -218.083999633789 L 272.89599609375 -218.09042358398432 L 272.8919982910156 -218.0910034179687 L 272.843994140625 -218.09599304199213 L 272.7959899902344 -218.10000610351557 L 272.74798583984375 -218.10200500488276 L 272.70001220703125 -218.10299682617182 L 272.6520080566406 -218.10200500488276 L 272.60400390625 -218.10000610351557 L 272.5559997558594 -218.09599304199213 L 272.5090026855469 -218.0910034179687 L 272.46099853515625 -218.083999633789 L 272.4129943847656 -218.07499694824213 L 272.3840026855469 -218.06883239746088 L 272.3659973144531 -218.0650024414062 L 272.3190002441406 -218.05400085449213 L 272.27301025390625 -218.04100036621088 L 272.22601318359375 -218.02600097656244 L 272.17999267578125 -218.00999450683588 L 272.135009765625 -217.99299621582026 L 272.0899963378906 -217.97399902343744 L 272.0459899902344 -217.95300292968744 L 272.00201416015625 -217.93099975585932 L 271.9580078125 -217.906997680664 L 271.9159851074219 -217.88200378417963 L 271.8739929199219 -217.854995727539 L 271.87200927734375 -217.85366821289057 L 271.8320007324219 -217.82699584960932 L 271.7919921875 -217.79699707031244 L 271.75201416015625 -217.7660064697265 L 271.7130126953125 -217.73300170898432 L 271.67498779296875 -217.69900512695307 L 271.63800048828125 -217.66299438476557 L 271.60198974609375 -217.62600708007807 L 271.5787353515625 -217.60000610351557 L 271.5679931640625 -217.58799743652338 L 271.5350036621094 -217.54899597167963 L 271.50299072265625 -217.50900268554682 L 271.44500732421875 -217.42700195312494 L 271.41900634765625 -217.38499450683588 L 271.39300537109375 -217.34199523925776 L 271.3699951171875 -217.29899597167963 L 271.3599853515625 -217.27900695800776 L 271.3479919433594 -217.25500488281244 L 271.3269958496094 -217.2109985351562 L 271.3080139160156 -217.16600036621088 L 271.2900085449219 -217.11999511718744 L 271.27886962890625 -217.08799743652338 L 271.27398681640625 -217.07400512695307 L 271.260009765625 -217.02799987792963 L 271.24700927734375 -216.98100280761713 L 271.2349853515625 -216.9349975585937 L 271.2250061035156 -216.88699340820307 L 271.2170104980469 -216.83999633789057 L 271.2099914550781 -216.792007446289 L 271.2049865722656 -216.74400329589838 L 271.20098876953125 -216.69599914550776 L 271.1990051269531 -216.64799499511713 L 271.197998046875 -216.60000610351557 L 271.198486328125 -216.57600402832026 L 271.1990051269531 -216.55200195312494 L 271.20098876953125 -216.50399780273432 L 271.2049865722656 -216.4559936523437 L 271.2099914550781 -216.40800476074213 L 271.2170104980469 -216.36099243164057 L 271.2250061035156 -216.313003540039 L 271.2349853515625 -216.2660064697265 L 271.24700927734375 -216.21899414062494 L 271.260009765625 -216.17300415039057 L 271.27398681640625 -216.12600708007807 L 271.2900085449219 -216.08000183105463 L 271.29638671875 -216.06399536132807 L 271.3080139160156 -216.03500366210932 L 271.3269958496094 -215.990005493164 L 271.3479919433594 -215.9450073242187 M 257.50201416015625 -221.00399780273432 L 250.9980010986328 -221.00399780273432 L 245.75999450683594 -221.00399780273432 L 244.5050048828125 -221.00399780273432 L 244.5050048828125 -215.99999999999994 L 245.75999450683594 -215.99999999999994 L 250.9980010986328 -215.99999999999994 L 257.50201416015625 -215.99999999999994 L 257.50201416015625 -221.00399780273432 M 261.7984924316406 -216.57600402832026 L 261.79901123046875 -216.55200195312494 L 261.8009948730469 -216.50399780273432 L 261.80499267578125 -216.4559936523437 L 261.80999755859375 -216.40800476074213 L 261.8169860839844 -216.36099243164057 L 261.82501220703125 -216.313003540039 L 261.8349914550781 -216.2660064697265 L 261.84698486328125 -216.21899414062494 L 261.8599853515625 -216.17300415039057 L 261.8739929199219 -216.12600708007807 L 261.8900146484375 -216.08000183105463 L 261.8963928222656 -216.06399536132807 L 261.9079895019531 -216.03500366210932 L 261.927001953125 -215.990005493164 L 261.947998046875 -215.9450073242187 L 261.9700012207031 -215.9019927978515 L 261.9939880371094 -215.85800170898432 L 262.0190124511719 -215.81599426269526 L 262.0450134277344 -215.77400207519526 L 262.0740051269531 -215.7319946289062 L 262.10400390625 -215.69200134277338 L 262.135009765625 -215.6519927978515 L 262.1440124511719 -215.64135742187494 L 262.1679992675781 -215.61300659179682 L 262.2019958496094 -215.57499694824213 L 262.2380065917969 -215.53799438476557 L 262.2749938964844 -215.50199890136713 L 262.31298828125 -215.46800231933588 L 262.35198974609375 -215.4349975585937 L 262.3919982910156 -215.40299987792963 L 262.4320068359375 -215.37399291992182 L 262.4739990234375 -215.34500122070307 L 262.5580139160156 -215.29299926757807 L 262.60198974609375 -215.27000427246088 L 262.64599609375 -215.24800109863276 L 262.656005859375 -215.2432250976562 L 262.69000244140625 -215.22700500488276 L 262.7349853515625 -215.20799255371088 L 262.781005859375 -215.1900024414062 L 262.82598876953125 -215.17399597167963 L 262.87298583984375 -215.16000366210932 L 262.91900634765625 -215.14700317382807 L 262.96600341796875 -215.13499450683588 L 263.0140075683594 -215.12499999999994 L 263.0610046386719 -215.1170043945312 L 263.1090087890625 -215.1100006103515 L 263.156005859375 -215.104995727539 L 263.1679992675781 -215.10400390624994 L 263.2040100097656 -215.10099792480463 L 263.25201416015625 -215.09899902343744 L 263.29998779296875 -215.09800720214838 L 263.3489990234375 -215.09899902343744 L 263.3970031738281 -215.10099792480463 L 263.44500732421875 -215.104995727539 L 263.49200439453125 -215.1100006103515 L 263.5400085449219 -215.1170043945312 L 263.5870056152344 -215.12499999999994 L 263.635009765625 -215.13499450683588 L 263.67999267578125 -215.14648437499994 L 263.6820068359375 -215.14700317382807 L 263.7279968261719 -215.16000366210932 L 263.7749938964844 -215.17399597167963 L 263.82000732421875 -215.1900024414062 L 263.8659973144531 -215.20799255371088 L 263.9110107421875 -215.22700500488276 L 263.9549865722656 -215.24800109863276 L 263.9989929199219 -215.27000427246088 L 264.0429992675781 -215.29299926757807 L 264.12701416015625 -215.34500122070307 L 264.16900634765625 -215.37399291992182 L 264.1919860839844 -215.39067077636713 L 264.2090148925781 -215.40299987792963 L 264.2489929199219 -215.4349975585937 L 264.2879943847656 -215.46800231933588 L 264.32598876953125 -215.50199890136713 L 264.3630065917969 -215.53799438476557 L 264.3766174316406 -215.55200195312494 L 264.39898681640625 -215.57499694824213 L 264.4330139160156 -215.61300659179682 L 264.46600341796875 -215.6519927978515 L 264.49700927734375 -215.69200134277338 L 264.5270080566406 -215.7319946289062 L 264.55499267578125 -215.77400207519526 L 264.5820007324219 -215.81599426269526 L 264.60699462890625 -215.85800170898432 L 264.6310119628906 -215.9019927978515 L 264.65301513671875 -215.9450073242187 L 264.67401123046875 -215.990005493164 L 264.6929931640625 -216.03500366210932 L 264.70458984375 -216.06399536132807 L 264.71099853515625 -216.08000183105463 L 264.72698974609375 -216.12600708007807 L 264.7409973144531 -216.17300415039057 L 264.7539978027344 -216.21899414062494 L 264.7659912109375 -216.2660064697265 L 264.7749938964844 -216.313003540039 L 264.78399658203125 -216.36099243164057 L 264.7909851074219 -216.40800476074213 L 264.7959899902344 -216.4559936523437 L 264.79998779296875 -216.50399780273432 L 264.802001953125 -216.55200195312494 L 264.802490234375 -216.57600402832026 L 264.8030090332031 -216.60000610351557 L 264.802001953125 -216.64799499511713 L 264.79998779296875 -216.69599914550776 L 264.7959899902344 -216.74400329589838 L 264.7909851074219 -216.792007446289 L 264.78466796875 -216.83549499511713 L 264.78399658203125 -216.83999633789057 L 264.7749938964844 -216.88699340820307 L 264.7659912109375 -216.9349975585937 L 264.7539978027344 -216.98100280761713 L 264.7409973144531 -217.02799987792963 L 264.72698974609375 -217.07400512695307 L 264.7221374511719 -217.08799743652338 L 264.71099853515625 -217.11999511718744 L 264.6929931640625 -217.16600036621088 L 264.67401123046875 -217.2109985351562 L 264.65301513671875 -217.25500488281244 L 264.6310119628906 -217.29899597167963 L 264.60699462890625 -217.34199523925776 L 264.5820007324219 -217.38499450683588 L 264.55499267578125 -217.42700195312494 L 264.5270080566406 -217.46800231933588 L 264.49700927734375 -217.50900268554682 L 264.46600341796875 -217.54899597167963 L 264.4330139160156 -217.58799743652338 L 264.4222717285156 -217.60000610351557 L 264.39898681640625 -217.62600708007807 L 264.3630065917969 -217.66299438476557 L 264.32598876953125 -217.69900512695307 L 264.2879943847656 -217.73300170898432 L 264.2489929199219 -217.7660064697265 L 264.2090148925781 -217.79699707031244 L 264.1919860839844 -217.8097534179687 L 264.16900634765625 -217.82699584960932 L 264.12701416015625 -217.854995727539 L 264.0849914550781 -217.88200378417963 L 264.0429992675781 -217.906997680664 L 263.9989929199219 -217.93099975585932 L 263.9549865722656 -217.95300292968744 L 263.9110107421875 -217.97399902343744 L 263.8659973144531 -217.99299621582026 L 263.82000732421875 -218.00999450683588 L 263.7749938964844 -218.02600097656244 L 263.7279968261719 -218.04100036621088 L 263.6820068359375 -218.05400085449213 L 263.67999267578125 -218.05447387695307 L 263.635009765625 -218.0650024414062 L 263.5870056152344 -218.07499694824213 L 263.5400085449219 -218.083999633789 L 263.49200439453125 -218.0910034179687 L 263.44500732421875 -218.09599304199213 L 263.3970031738281 -218.10000610351557 L 263.3489990234375 -218.10200500488276 L 263.29998779296875 -218.10299682617182 L 263.25201416015625 -218.10200500488276 L 263.2040100097656 -218.10000610351557 L 263.1679992675781 -218.09700012207026 L 263.156005859375 -218.09599304199213 L 263.1090087890625 -218.0910034179687 L 263.0610046386719 -218.083999633789 L 263.0140075683594 -218.07499694824213 L 262.96600341796875 -218.0650024414062 L 262.91900634765625 -218.05400085449213 L 262.87298583984375 -218.04100036621088 L 262.82598876953125 -218.02600097656244 L 262.781005859375 -218.00999450683588 L 262.7349853515625 -217.99299621582026 L 262.69000244140625 -217.97399902343744 L 262.656005859375 -217.957778930664 L 262.64599609375 -217.95300292968744 L 262.60198974609375 -217.93099975585932 L 262.5580139160156 -217.906997680664 L 262.5159912109375 -217.88200378417963 L 262.4739990234375 -217.854995727539 L 262.4320068359375 -217.82699584960932 L 262.3919982910156 -217.79699707031244 L 262.35198974609375 -217.7660064697265 L 262.31298828125 -217.73300170898432 L 262.2749938964844 -217.69900512695307 L 262.2380065917969 -217.66299438476557 L 262.2019958496094 -217.62600708007807 L 262.1679992675781 -217.58799743652338 L 262.1440124511719 -217.5596313476562 L 262.135009765625 -217.54899597167963 L 262.10400390625 -217.50900268554682 L 262.0740051269531 -217.46800231933588 L 262.0450134277344 -217.42700195312494 L 262.0190124511719 -217.38499450683588 L 261.9939880371094 -217.34199523925776 L 261.9700012207031 -217.29899597167963 L 261.947998046875 -217.25500488281244 L 261.927001953125 -217.2109985351562 L 261.9079895019531 -217.16600036621088 L 261.8900146484375 -217.11999511718744 L 261.8788757324219 -217.08799743652338 L 261.8739929199219 -217.07400512695307 L 261.8599853515625 -217.02799987792963 L 261.84698486328125 -216.98100280761713 L 261.8349914550781 -216.9349975585937 L 261.82501220703125 -216.88699340820307 L 261.8169860839844 -216.83999633789057 L 261.80999755859375 -216.792007446289 L 261.80499267578125 -216.74400329589838 L 261.8009948730469 -216.69599914550776 L 261.79901123046875 -216.64799499511713 L 261.7980041503906 -216.60000610351557 L 261.7984924316406 -216.57600402832026 M 250.9980010986328 -207.00300598144526 L 250.9980010986328 -204.00199890136713 L 282.00299072265625 -204.00199890136713 L 282.00299072265625 -207.00300598144526 L 278.4989929199219 -207.00300598144526 L 271.197998046875 -207.00300598144526 L 261.7980041503906 -207.00300598144526 L 250.9980010986328 -207.00300598144526 M 237.53599548339844 -215.65299987792963 L 237.5679931640625 -215.61518859863276 L 237.56900024414062 -215.61399841308588 L 237.60400390625 -215.57600402832026 L 237.63900756835938 -215.5390014648437 L 237.67599487304688 -215.50300598144526 L 237.71400451660156 -215.46899414062494 L 237.7530059814453 -215.43600463867182 L 237.79299926757812 -215.40400695800776 L 237.875 -215.34599304199213 L 237.95899963378906 -215.2940063476562 L 238.0030059814453 -215.27099609374994 L 238.04600524902344 -215.24899291992182 L 238.0800018310547 -215.23313903808588 L 238.09100341796875 -215.22799682617182 L 238.13600158691406 -215.208999633789 L 238.18099975585938 -215.19099426269526 L 238.2270050048828 -215.17500305175776 L 238.2729949951172 -215.16099548339838 L 238.32000732421875 -215.14799499511713 L 238.36700439453125 -215.136001586914 L 238.46099853515625 -215.11799621582026 L 238.50900268554688 -215.11099243164057 L 238.55599975585938 -215.10600280761713 L 238.5919952392578 -215.10299682617182 L 238.60400390625 -215.10200500488276 L 238.65199279785156 -215.10000610351557 L 238.6999969482422 -215.09899902343744 L 238.7480010986328 -215.10000610351557 L 238.79600524902344 -215.10200500488276 L 238.843994140625 -215.10600280761713 L 238.89199829101562 -215.11099243164057 L 238.93899536132812 -215.11799621582026 L 238.98699951171875 -215.12699890136713 L 239.03399658203125 -215.136001586914 L 239.08099365234375 -215.14799499511713 L 239.10400390625 -215.15449523925776 L 239.1269989013672 -215.16099548339838 L 239.1739959716797 -215.17500305175776 L 239.22000122070312 -215.19099426269526 L 239.26499938964844 -215.208999633789 L 239.30999755859375 -215.22799682617182 L 239.35400390625 -215.24899291992182 L 239.3979949951172 -215.27099609374994 L 239.4409942626953 -215.2940063476562 L 239.48399353027344 -215.3200073242187 L 239.5260009765625 -215.34599304199213 L 239.60800170898438 -215.40400695800776 L 239.61599731445312 -215.41056823730463 L 239.64700317382812 -215.43600463867182 L 239.68600463867188 -215.46899414062494 L 239.7239990234375 -215.50300598144526 L 239.76100158691406 -215.5390014648437 L 239.77365112304688 -215.55200195312494 L 239.7969970703125 -215.57600402832026 L 239.83099365234375 -215.61399841308588 L 239.86399841308594 -215.65299987792963 L 239.89599609375 -215.69200134277338 L 239.95399475097656 -215.77400207519526 L 239.97999572753906 -215.81599426269526 L 240.0050048828125 -215.85899353027338 L 240.0290069580078 -215.9019927978515 L 240.05099487304688 -215.94599914550776 L 240.07200622558594 -215.990005493164 L 240.09100341796875 -216.03500366210932 L 240.10171508789062 -216.06399536132807 L 240.10800170898438 -216.0809936523437 L 240.12399291992188 -216.12699890136713 L 240.13900756835938 -216.17300415039057 L 240.15199279785156 -216.21899414062494 L 240.16299438476562 -216.2660064697265 L 240.17300415039062 -216.31399536132807 L 240.1820068359375 -216.36099243164057 L 240.18800354003906 -216.4089965820312 L 240.19400024414062 -216.4559936523437 L 240.19424438476562 -216.458999633789 L 240.197998046875 -216.50399780273432 L 240.1999969482422 -216.55200195312494 L 240.20050048828125 -216.57600402832026 L 240.2010040283203 -216.60000610351557 L 240.1999969482422 -216.64799499511713 L 240.197998046875 -216.69599914550776 L 240.19400024414062 -216.74400329589838 L 240.1820068359375 -216.83999633789057 L 240.17300415039062 -216.88699340820307 L 240.16299438476562 -216.93400573730463 L 240.15199279785156 -216.98100280761713 L 240.13900756835938 -217.02799987792963 L 240.12399291992188 -217.07400512695307 L 240.11912536621094 -217.08799743652338 L 240.10800170898438 -217.11999511718744 L 240.09100341796875 -217.16499328613276 L 240.07200622558594 -217.21000671386713 L 240.05099487304688 -217.25500488281244 L 240.0290069580078 -217.29899597167963 L 240.0050048828125 -217.34199523925776 L 239.97999572753906 -217.38400268554682 L 239.95399475097656 -217.42599487304682 L 239.9250030517578 -217.46800231933588 L 239.89599609375 -217.5079956054687 L 239.86399841308594 -217.54800415039057 L 239.83099365234375 -217.58700561523432 L 239.81936645507812 -217.60000610351557 L 239.7969970703125 -217.62499999999994 L 239.76100158691406 -217.6620025634765 L 239.7239990234375 -217.69799804687494 L 239.68600463867188 -217.7319946289062 L 239.64700317382812 -217.76499938964838 L 239.61599731445312 -217.78964233398432 L 239.60800170898438 -217.79600524902338 L 239.56700134277344 -217.82600402832026 L 239.5260009765625 -217.85400390624994 L 239.48399353027344 -217.8809967041015 L 239.4409942626953 -217.90600585937494 L 239.3979949951172 -217.9299926757812 L 239.35400390625 -217.95199584960932 L 239.30999755859375 -217.97300720214838 L 239.26499938964844 -217.9920043945312 L 239.22000122070312 -218.00900268554682 L 239.1739959716797 -218.02499389648432 L 239.1269989013672 -218.03999328613276 L 239.10400390625 -218.04649353027338 L 239.08099365234375 -218.052993774414 L 239.03399658203125 -218.06399536132807 L 238.98699951171875 -218.07400512695307 L 238.93899536132812 -218.08299255371088 L 238.89199829101562 -218.0890045166015 L 238.843994140625 -218.09500122070307 L 238.79600524902344 -218.09899902343744 L 238.7480010986328 -218.10099792480463 L 238.6999969482422 -218.10200500488276 L 238.65199279785156 -218.10099792480463 L 238.60400390625 -218.09899902343744 L 238.5919952392578 -218.09800720214838 L 238.55599975585938 -218.09500122070307 L 238.50900268554688 -218.0890045166015 L 238.46099853515625 -218.08299255371088 L 238.45899963378906 -218.08261108398432 L 238.41400146484375 -218.07400512695307 L 238.36700439453125 -218.06399536132807 L 238.32000732421875 -218.052993774414 L 238.2729949951172 -218.03999328613276 L 238.2270050048828 -218.02499389648432 L 238.18099975585938 -218.00900268554682 L 238.13600158691406 -217.9920043945312 L 238.09100341796875 -217.97300720214838 L 238.0800018310547 -217.96786499023432 L 238.04600524902344 -217.95199584960932 L 238.0030059814453 -217.9299926757812 L 237.95899963378906 -217.90600585937494 L 237.91700744628906 -217.8809967041015 L 237.875 -217.85400390624994 L 237.83399963378906 -217.82600402832026 L 237.79299926757812 -217.79600524902338 L 237.7530059814453 -217.76499938964838 L 237.71400451660156 -217.7319946289062 L 237.67599487304688 -217.69799804687494 L 237.63900756835938 -217.6620025634765 L 237.60400390625 -217.62499999999994 L 237.5809783935547 -217.60000610351557 L 237.56900024414062 -217.58700561523432 L 237.5679931640625 -217.58581542968744 L 237.53599548339844 -217.54800415039057 L 237.5050048828125 -217.5079956054687 L 237.47500610351562 -217.46800231933588 L 237.44700622558594 -217.42599487304682 L 237.4199981689453 -217.38400268554682 L 237.39500427246094 -217.34199523925776 L 237.3719940185547 -217.29899597167963 L 237.3489990234375 -217.25500488281244 L 237.32899475097656 -217.21000671386713 L 237.30999755859375 -217.16499328613276 L 237.29200744628906 -217.11999511718744 L 237.28086853027344 -217.08799743652338 L 237.2760009765625 -217.07400512695307 L 237.26199340820312 -217.02799987792963 L 237.24899291992188 -216.98100280761713 L 237.23699951171875 -216.93400573730463 L 237.2270050048828 -216.88699340820307 L 237.218994140625 -216.83999633789057 L 237.21200561523438 -216.792007446289 L 237.20700073242188 -216.74400329589838 L 237.2030029296875 -216.69599914550776 L 237.2010040283203 -216.64799499511713 L 237.1999969482422 -216.60000610351557 L 237.20050048828125 -216.57600402832026 L 237.2010040283203 -216.55200195312494 L 237.2030029296875 -216.50399780273432 L 237.20700073242188 -216.4559936523437 L 237.21200561523438 -216.4089965820312 L 237.218994140625 -216.36099243164057 L 237.2270050048828 -216.31399536132807 L 237.23699951171875 -216.2660064697265 L 237.24899291992188 -216.21899414062494 L 237.26199340820312 -216.17300415039057 L 237.2760009765625 -216.12699890136713 L 237.29200744628906 -216.0809936523437 L 237.29864501953125 -216.06399536132807 L 237.30999755859375 -216.03500366210932 L 237.32899475097656 -215.990005493164 L 237.3489990234375 -215.94599914550776 L 237.3719940185547 -215.9019927978515 L 237.39500427246094 -215.85899353027338 L 237.4199981689453 -215.81599426269526 L 237.44700622558594 -215.77400207519526 L 237.47500610351562 -215.73300170898432 L 237.5050048828125 -215.69200134277338 L 237.53599548339844 -215.65299987792963 M 297.25299072265625 -215.10000610351557 L 297.3009948730469 -215.09899902343744 L 297.3489990234375 -215.10000610351557 L 297.39599609375 -215.10200500488276 L 297.4440002441406 -215.10600280761713 L 297.47198486328125 -215.10891723632807 L 297.49200439453125 -215.11099243164057 L 297.5400085449219 -215.11799621582026 L 297.6340026855469 -215.136001586914 L 297.6809997558594 -215.14799499511713 L 297.7279968261719 -215.16099548339838 L 297.77398681640625 -215.17500305175776 L 297.82000732421875 -215.19099426269526 L 297.864990234375 -215.208999633789 L 297.9100036621094 -215.22799682617182 L 297.9540100097656 -215.24899291992182 L 297.9840087890625 -215.26400756835932 L 297.99798583984375 -215.27099609374994 L 298.0419921875 -215.2940063476562 L 298.1260070800781 -215.34599304199213 L 298.2080078125 -215.40400695800776 L 298.24798583984375 -215.43600463867182 L 298.2860107421875 -215.46899414062494 L 298.3240051269531 -215.50300598144526 L 298.3609924316406 -215.5390014648437 L 298.3736572265625 -215.55200195312494 L 298.3970031738281 -215.57600402832026 L 298.4320068359375 -215.61399841308588 L 298.4960021972656 -215.69200134277338 L 298.5539855957031 -215.77400207519526 L 298.5799865722656 -215.81599426269526 L 298.6059875488281 -215.85899353027338 L 298.6289978027344 -215.9019927978515 L 298.6510009765625 -215.94599914550776 L 298.6719970703125 -215.990005493164 L 298.6910095214844 -216.03500366210932 L 298.7023620605469 -216.06399536132807 L 298.7090148925781 -216.0809936523437 L 298.7250061035156 -216.12699890136713 L 298.739013671875 -216.17300415039057 L 298.75201416015625 -216.21899414062494 L 298.76324462890625 -216.2630004882812 L 298.7640075683594 -216.2660064697265 L 298.77301025390625 -216.31399536132807 L 298.7820129394531 -216.36099243164057 L 298.78900146484375 -216.4089965820312 L 298.79400634765625 -216.4559936523437 L 298.7980041503906 -216.50399780273432 L 298.79998779296875 -216.55200195312494 L 298.8005065917969 -216.57600402832026 L 298.8009948730469 -216.60000610351557 L 298.79998779296875 -216.64799499511713 L 298.7980041503906 -216.69599914550776 L 298.79400634765625 -216.74400329589838 L 298.78900146484375 -216.792007446289 L 298.7820129394531 -216.83999633789057 L 298.7640075683594 -216.93400573730463 L 298.75201416015625 -216.98100280761713 L 298.739013671875 -217.02799987792963 L 298.7250061035156 -217.07400512695307 L 298.7201232910156 -217.08799743652338 L 298.7090148925781 -217.11999511718744 L 298.6910095214844 -217.16499328613276 L 298.6719970703125 -217.21000671386713 L 298.6510009765625 -217.25500488281244 L 298.6289978027344 -217.29899597167963 L 298.6059875488281 -217.34199523925776 L 298.5539855957031 -217.42599487304682 L 298.5249938964844 -217.46800231933588 L 298.4960021972656 -217.5079956054687 L 298.4639892578125 -217.54800415039057 L 298.4320068359375 -217.58700561523432 L 298.4200134277344 -217.60000610351557 L 298.3970031738281 -217.62499999999994 L 298.3609924316406 -217.6620025634765 L 298.3240051269531 -217.69799804687494 L 298.2860107421875 -217.7319946289062 L 298.24798583984375 -217.76499938964838 L 298.2080078125 -217.79600524902338 L 298.1669921875 -217.82600402832026 L 298.1260070800781 -217.85400390624994 L 298.0840148925781 -217.8809967041015 L 298.0419921875 -217.90600585937494 L 297.99798583984375 -217.9299926757812 L 297.9840087890625 -217.93699645996088 L 297.9540100097656 -217.95199584960932 L 297.9100036621094 -217.97300720214838 L 297.864990234375 -217.9920043945312 L 297.82000732421875 -218.00900268554682 L 297.77398681640625 -218.02499389648432 L 297.7279968261719 -218.03999328613276 L 297.6809997558594 -218.052993774414 L 297.6340026855469 -218.06399536132807 L 297.5870056152344 -218.07400512695307 L 297.5400085449219 -218.08299255371088 L 297.47198486328125 -218.09150695800776 L 297.4440002441406 -218.09500122070307 L 297.39599609375 -218.09899902343744 L 297.3489990234375 -218.10099792480463 L 297.3009948730469 -218.10200500488276 L 297.25299072265625 -218.10099792480463 L 297.2049865722656 -218.09899902343744 L 297.1570129394531 -218.09500122070307 L 297.0610046386719 -218.08299255371088 L 297.0140075683594 -218.07400512695307 L 296.9670104980469 -218.06399536132807 L 296.9599914550781 -218.06236267089838 L 296.9200134277344 -218.052993774414 L 296.87298583984375 -218.03999328613276 L 296.8269958496094 -218.02499389648432 L 296.781005859375 -218.00900268554682 L 296.7359924316406 -217.9920043945312 L 296.6910095214844 -217.97300720214838 L 296.6470031738281 -217.95199584960932 L 296.6029968261719 -217.9299926757812 L 296.55999755859375 -217.90600585937494 L 296.5169982910156 -217.8809967041015 L 296.4750061035156 -217.85400390624994 L 296.447998046875 -217.83555603027338 L 296.4339904785156 -217.82600402832026 L 296.39300537109375 -217.79600524902338 L 296.35400390625 -217.76499938964838 L 296.31500244140625 -217.7319946289062 L 296.2770080566406 -217.69799804687494 L 296.239990234375 -217.6620025634765 L 296.2040100097656 -217.62499999999994 L 296.18096923828125 -217.60000610351557 L 296.16900634765625 -217.58700561523432 L 296.1369934082031 -217.54800415039057 L 296.1050109863281 -217.5079956054687 L 296.07598876953125 -217.46800231933588 L 296.0469970703125 -217.42599487304682 L 295.9949951171875 -217.34199523925776 L 295.97198486328125 -217.29899597167963 L 295.95001220703125 -217.25500488281244 L 295.9360046386719 -217.22500610351557 L 295.9289855957031 -217.21000671386713 L 295.9100036621094 -217.16499328613276 L 295.8919982910156 -217.11999511718744 L 295.880859375 -217.08799743652338 L 295.8760070800781 -217.07400512695307 L 295.86199951171875 -217.02799987792963 L 295.8489990234375 -216.98100280761713 L 295.8380126953125 -216.93400573730463 L 295.8280029296875 -216.88699340820307 L 295.8190002441406 -216.83999633789057 L 295.81201171875 -216.792007446289 L 295.8070068359375 -216.74400329589838 L 295.8030090332031 -216.69599914550776 L 295.8009948730469 -216.64799499511713 L 295.79998779296875 -216.60000610351557 L 295.8005065917969 -216.57600402832026 L 295.8009948730469 -216.55200195312494 L 295.8030090332031 -216.50399780273432 L 295.8070068359375 -216.4559936523437 L 295.81201171875 -216.4089965820312 L 295.8190002441406 -216.36099243164057 L 295.8280029296875 -216.31399536132807 L 295.8380126953125 -216.2660064697265 L 295.8489990234375 -216.21899414062494 L 295.86199951171875 -216.17300415039057 L 295.8760070800781 -216.12699890136713 L 295.8919982910156 -216.0809936523437 L 295.8986511230469 -216.06399536132807 L 295.9100036621094 -216.03500366210932 L 295.9289855957031 -215.990005493164 L 295.9360046386719 -215.97532653808588 L 295.95001220703125 -215.94599914550776 L 295.97198486328125 -215.9019927978515 L 295.9949951171875 -215.85899353027338 L 296.02099609375 -215.81599426269526 L 296.0469970703125 -215.77400207519526 L 296.1050109863281 -215.69200134277338 L 296.16900634765625 -215.61399841308588 L 296.2040100097656 -215.57600402832026 L 296.22735595703125 -215.55200195312494 L 296.239990234375 -215.5390014648437 L 296.2770080566406 -215.50300598144526 L 296.31500244140625 -215.46899414062494 L 296.35400390625 -215.43600463867182 L 296.39300537109375 -215.40400695800776 L 296.447998046875 -215.36509704589838 L 296.4750061035156 -215.34599304199213 L 296.5169982910156 -215.3200073242187 L 296.55999755859375 -215.2940063476562 L 296.6029968261719 -215.27099609374994 L 296.6470031738281 -215.24899291992182 L 296.6910095214844 -215.22799682617182 L 296.7359924316406 -215.208999633789 L 296.781005859375 -215.19099426269526 L 296.8269958496094 -215.17500305175776 L 296.87298583984375 -215.16099548339838 L 296.9200134277344 -215.14799499511713 L 296.9599914550781 -215.13778686523432 L 296.9670104980469 -215.136001586914 L 297.0610046386719 -215.11799621582026 L 297.1090087890625 -215.11099243164057 L 297.1570129394531 -215.10600280761713 L 297.2049865722656 -215.10200500488276 L 297.25299072265625 -215.10000610351557 M 306.00299072265625 -205.00199890136713 L 306.00299072265625 -211.00500488281244 L 306.00299072265625 -215.09899902343744 L 306.00299072265625 -217.50300598144526 L 302.99798583984375 -217.50300598144526 L 302.99798583984375 -215.09899902343744 L 302.99798583984375 -211.00500488281244 L 302.99798583984375 -205.00199890136713 L 302.99798583984375 -188.49800109863278 L 305.5 -188.49800109863278 L 306.00299072265625 -188.49800109863278 L 306.00299072265625 -205.00199890136713 M 303.0849914550781 -158.18800354003903 L 302.99798583984375 -158.11164855957028 L 302.93798828125 -158.05900573730466 L 302.8080139160156 -157.9109954833984 L 302.6990051269531 -157.74800109863278 L 302.673583984375 -157.69599914550778 L 302.6130065917969 -157.5720062255859 L 302.54901123046875 -157.38600158691403 L 302.510986328125 -157.1940002441406 L 302.49798583984375 -156.99800109863278 L 302.510986328125 -156.80200195312497 L 302.54901123046875 -156.61000061035153 L 302.6130065917969 -156.42399597167966 L 302.6990051269531 -156.24800109863278 L 302.8080139160156 -156.08500671386716 L 302.93798828125 -155.9369964599609 L 302.99798583984375 -155.88435363769528 L 303.0849914550781 -155.80799865722653 L 303.10400390625 -155.79536437988278 L 303.2489929199219 -155.6990051269531 L 303.3521728515625 -155.64799499511716 L 303.42498779296875 -155.61199951171872 L 303.6109924316406 -155.54899597167966 L 303.8030090332031 -155.51100158691403 L 303.9989929199219 -155.49800109863278 L 304.19500732421875 -155.51100158691403 L 304.3869934082031 -155.54899597167966 L 304.572998046875 -155.61199951171872 L 304.64581298828125 -155.64799499511716 L 304.7489929199219 -155.6990051269531 L 304.9119873046875 -155.80799865722653 L 305.05999755859375 -155.9369964599609 L 305.1520080566406 -156.04255676269528 L 305.1889953613281 -156.08500671386716 L 305.29901123046875 -156.24800109863278 L 305.385009765625 -156.42399597167966 L 305.447998046875 -156.61000061035153 L 305.48699951171875 -156.80200195312497 L 305.5 -156.99800109863278 L 305.48699951171875 -157.1940002441406 L 305.447998046875 -157.38600158691403 L 305.385009765625 -157.5720062255859 L 305.32440185546875 -157.69599914550778 L 305.29901123046875 -157.74800109863278 L 305.1889953613281 -157.9109954833984 L 305.05999755859375 -158.05900573730466 L 304.9119873046875 -158.18800354003903 L 304.7489929199219 -158.29699707031247 L 304.572998046875 -158.38400268554685 L 304.3869934082031 -158.4470062255859 L 304.19500732421875 -158.48500061035153 L 303.9989929199219 -158.49800109863278 L 303.8030090332031 -158.48500061035153 L 303.6109924316406 -158.4470062255859 L 303.42498779296875 -158.38400268554685 L 303.2489929199219 -158.29699707031247 L 303.10400390625 -158.20062255859372 L 303.0849914550781 -158.18800354003903 M 303.0849914550781 -180.19299316406247 L 302.99798583984375 -180.11605834960935 L 302.93798828125 -180.06300354003903 L 302.8080139160156 -179.9160003662109 L 302.6990051269531 -179.75300598144528 L 302.6130065917969 -179.57699584960935 L 302.54901123046875 -179.39100646972653 L 302.510986328125 -179.19799804687497 L 302.49798583984375 -179.00199890136716 L 302.510986328125 -178.80700683593747 L 302.54901123046875 -178.6139984130859 L 302.6130065917969 -178.42799377441403 L 302.6990051269531 -178.25199890136716 L 302.74981689453125 -178.17599487304685 L 302.8080139160156 -178.08900451660153 L 302.93798828125 -177.9420013427734 L 302.99798583984375 -177.88893127441403 L 303.0849914550781 -177.8119964599609 L 303.10400390625 -177.79937744140622 L 303.2489929199219 -177.70300292968747 L 303.42498779296875 -177.6159973144531 L 303.6109924316406 -177.55299377441403 L 303.8030090332031 -177.5149993896484 L 303.9989929199219 -177.50199890136716 L 304.19500732421875 -177.5149993896484 L 304.3869934082031 -177.55299377441403 L 304.572998046875 -177.6159973144531 L 304.7489929199219 -177.70300292968747 L 304.9119873046875 -177.8119964599609 L 305.05999755859375 -177.9420013427734 L 305.1889953613281 -178.08900451660153 L 305.2477111816406 -178.17599487304685 L 305.29901123046875 -178.25199890136716 L 305.385009765625 -178.42799377441403 L 305.447998046875 -178.6139984130859 L 305.48699951171875 -178.80700683593747 L 305.5 -179.00199890136716 L 305.48699951171875 -179.19799804687497 L 305.447998046875 -179.39100646972653 L 305.385009765625 -179.57699584960935 L 305.29901123046875 -179.75300598144528 L 305.1889953613281 -179.9160003662109 L 305.05999755859375 -180.06300354003903 L 304.9119873046875 -180.19299316406247 L 304.8656311035156 -180.22399902343747 L 304.7489929199219 -180.30200195312497 L 304.572998046875 -180.38800048828122 L 304.3869934082031 -180.45199584960935 L 304.19500732421875 -180.49000549316403 L 303.9989929199219 -180.50300598144528 L 303.8030090332031 -180.49000549316403 L 303.6109924316406 -180.45199584960935 L 303.42498779296875 -180.38800048828122 L 303.2489929199219 -180.30200195312497 L 303.13165283203125 -180.22399902343747 L 303.10400390625 -180.20562744140622 L 303.0849914550781 -180.19299316406247 M 312.4280090332031 -155.61199951171872 L 312.614013671875 -155.54899597167966 L 312.8070068359375 -155.51100158691403 L 313.00299072265625 -155.49800109863278 L 313.1990051269531 -155.51100158691403 L 313.343994140625 -155.5397033691406 L 313.3909912109375 -155.54899597167966 L 313.5769958496094 -155.61199951171872 L 313.64984130859375 -155.64799499511716 L 313.75299072265625 -155.6990051269531 L 313.9159851074219 -155.80799865722653 L 314.0639953613281 -155.9369964599609 L 314.1929931640625 -156.08500671386716 L 314.302001953125 -156.24800109863278 L 314.3890075683594 -156.42399597167966 L 314.4519958496094 -156.61000061035153 L 314.489990234375 -156.80200195312497 L 314.50299072265625 -156.99800109863278 L 314.489990234375 -157.1940002441406 L 314.4519958496094 -157.38600158691403 L 314.3890075683594 -157.5720062255859 L 314.32769775390625 -157.69599914550778 L 314.302001953125 -157.74800109863278 L 314.1929931640625 -157.9109954833984 L 314.0639953613281 -158.05900573730466 L 313.9159851074219 -158.18800354003903 L 313.75299072265625 -158.29699707031247 L 313.5769958496094 -158.38400268554685 L 313.3909912109375 -158.4470062255859 L 313.343994140625 -158.45629882812497 L 313.1990051269531 -158.48500061035153 L 313.00299072265625 -158.49800109863278 L 312.8070068359375 -158.48500061035153 L 312.614013671875 -158.4470062255859 L 312.4280090332031 -158.38400268554685 L 312.25201416015625 -158.29699707031247 L 312.0889892578125 -158.18800354003903 L 311.9419860839844 -158.05900573730466 L 311.81201171875 -157.9109954833984 L 311.7030029296875 -157.74800109863278 L 311.67730712890625 -157.69599914550778 L 311.6159973144531 -157.5720062255859 L 311.5530090332031 -157.38600158691403 L 311.5150146484375 -157.1940002441406 L 311.50201416015625 -156.99800109863278 L 311.5150146484375 -156.80200195312497 L 311.5530090332031 -156.61000061035153 L 311.6159973144531 -156.42399597167966 L 311.7030029296875 -156.24800109863278 L 311.81201171875 -156.08500671386716 L 311.9419860839844 -155.9369964599609 L 312.0889892578125 -155.80799865722653 L 312.25201416015625 -155.6990051269531 L 312.35516357421875 -155.64799499511716 L 312.4280090332031 -155.61199951171872 M 311.81201171875 -178.08900451660153 L 311.9419860839844 -177.9420013427734 L 312.0889892578125 -177.8119964599609 L 312.25201416015625 -177.70300292968747 L 312.4280090332031 -177.6159973144531 L 312.614013671875 -177.55299377441403 L 312.8070068359375 -177.5149993896484 L 313.00299072265625 -177.50199890136716 L 313.1990051269531 -177.5149993896484 L 313.343994140625 -177.54370117187497 L 313.3909912109375 -177.55299377441403 L 313.5769958496094 -177.6159973144531 L 313.75299072265625 -177.70300292968747 L 313.9159851074219 -177.8119964599609 L 314.0639953613281 -177.9420013427734 L 314.1929931640625 -178.08900451660153 L 314.2511901855469 -178.17599487304685 L 314.302001953125 -178.25199890136716 L 314.3890075683594 -178.42799377441403 L 314.4519958496094 -178.6139984130859 L 314.489990234375 -178.80700683593747 L 314.50299072265625 -179.00199890136716 L 314.489990234375 -179.19799804687497 L 314.4519958496094 -179.39100646972653 L 314.3890075683594 -179.57699584960935 L 314.302001953125 -179.75300598144528 L 314.1929931640625 -179.9160003662109 L 314.0639953613281 -180.06300354003903 L 313.9159851074219 -180.19299316406247 L 313.86962890625 -180.22399902343747 L 313.75299072265625 -180.30200195312497 L 313.5769958496094 -180.38800048828122 L 313.3909912109375 -180.45199584960935 L 313.1990051269531 -180.49000549316403 L 313.00299072265625 -180.50300598144528 L 312.8070068359375 -180.49000549316403 L 312.614013671875 -180.45199584960935 L 312.4280090332031 -180.38800048828122 L 312.25201416015625 -180.30200195312497 L 312.1353454589844 -180.22399902343747 L 312.0889892578125 -180.19299316406247 L 311.9419860839844 -180.06300354003903 L 311.81201171875 -179.9160003662109 L 311.7030029296875 -179.75300598144528 L 311.6159973144531 -179.57699584960935 L 311.5530090332031 -179.39100646972653 L 311.5150146484375 -179.19799804687497 L 311.50201416015625 -179.00199890136716 L 311.5150146484375 -178.80700683593747 L 311.5530090332031 -178.6139984130859 L 311.6159973144531 -178.42799377441403 L 311.7030029296875 -178.25199890136716 L 311.7538146972656 -178.17599487304685 L 311.81201171875 -178.08900451660153 M 257.0270080566406 -185.99800109863278 L 279.0220031738281 -185.99800109863278 L 282.00299072265625 -185.99800109863278 L 282.00299072265625 -188.99899291992185 L 250.9980010986328 -188.99899291992185 L 250.9980010986328 -185.99800109863278 L 257.0270080566406 -185.99800109863278 M 218.0030059814453 -152.99800109863278 L 218.0030059814453 -183.00300598144528 L 214.9980010986328 -183.00300598144528 L 214.9980010986328 -152.99800109863278 L 218.0030059814453 -152.99800109863278 M 282.00299072265625 -215.99999999999994 L 291.4960021972656 -215.99999999999994 L 291.4960021972656 -221.00399780273432 L 282.00299072265625 -221.00399780273432 L 278.4989929199219 -221.00399780273432 L 278.4989929199219 -215.99999999999994 L 282.00299072265625 -215.99999999999994 M 237.9949951171875 -205.00199890136713 L 243.9969940185547 -205.00199890136713 L 243.9969940185547 -211.00500488281244 L 237.9949951171875 -211.00500488281244 L 237.9949951171875 -205.00199890136713 M 216.9980010986328 -231.99800109863276 L 223 -231.99800109863276 L 223 -237.99999999999994 L 216.9980010986328 -237.99999999999994 L 216.9980010986328 -231.99800109863276 M 314.99798583984375 -155.00300598144528 L 314.99798583984375 -98.99800109863278 L 318.00299072265625 -98.99800109863278 L 318.00299072265625 -155.00300598144528 L 317.99798583984375 -155.00300598144528 L 314.99798583984375 -155.00300598144528 M 298.0060119628906 -205.00199890136713 L 298.0060119628906 -211.00500488281244 L 292.0039978027344 -211.00500488281244 L 292.0039978027344 -205.00199890136713 L 298.0060119628906 -205.00199890136713 M 317.99798583984375 -217.50300598144526 L 317.99798583984375 -188.49800109863278 L 318.00299072265625 -188.49800109863278 L 321.00299072265625 -188.49800109863278 L 321.00299072265625 -217.50300598144526 L 318.00299072265625 -217.50300598144526 L 317.99798583984375 -217.50300598144526 M 318.00299072265625 -230.00300598144526 L 313.0010070800781 -231.99800109863276 L 311.50201416015625 -230.00300598144526 L 313.00299072265625 -180.50300598144528 L 314.50299072265625 -180.50300598144528 L 314.50299072265625 -230.00300598144526 M 303.10400390625 -155.49800109863278 L 303.10400390625 -155.5573577880859 L 303.10400390625 -155.64799499511716 L 302.99798583984375 -155.64799499511716 L 302.99798583984375 -155.49800109863278 L 303.10400390625 -155.49800109863278 M 303.10400390625 -158.35363769531247 L 302.99798583984375 -158.19512939453122 L 303.10400390625 -158.35363769531247 M 303.06549072265625 -158.49800109863278 L 303.9989929199219 -158.49800109863278 L 305.5 -177.50199890136716 L 303.9989929199219 -177.50199890136716 L 303.10400390625 -177.50199890136716 L 302.99798583984375 -158.49800109863278 L 303.06549072265625 -158.49800109863278 z" fill="none" stroke="rgb(255,0,0)" stroke-width="0.001mm" />
</svg>