<?xml version="1.0" standalone="no"?>
<!DOCTYPE svg PUBLIC "-//W3C//DTD SVG 1.1//EN"
  "http://www.w3.org/Graphics/SVG/1.1/DTD/svg11.dtd">
<svg width="144mm" height="140.99999999999997mm" viewBox="-41 152.99999999999997 144 140.99999999999997" xmlns="http://www.w3.org/2000/svg" version="1.1">
	<title>svgOutput</title>
	<desc>made with tinkercad</desc>
<path d="M 2.003000020980835 292.99999999999994 L 2.003000020980835 289.9970092773437 L -8.001999855041504 289.9970092773437 L -8.001999855041504 292.99999999999994 L -18 292.99999999999994 L -18 277.7019958496093 L -18 273.9030151367187 L -15.234000205993652 273.9030151367187 L -15.234000205993652 263.8980102539062 L -18 263.8980102539062 L -18 257.6969909667968 L -18 198.00300598144526 L -15.234000205993652 198.00300598144526 L -15.234000205993652 182.12499999999997 L -18 182.12499999999997 L -18 156.99999999999997 L -18 153.99999999999997 L -8.001999855041504 153.99999999999997 L -8.001999855041504 156.99999999999997 L -8.001999855041504 157.00300598144528 L 11.003000259399414 157.00300598144528 L 11.99899959564209 157.00300598144528 L 11.99899959564209 156.99999999999997 L 11.99899959564209 153.99999999999997 L 36.99800109863281 153.99999999999997 L 36.99800109863281 156.99999999999997 L 36.99800109863281 184.00300598144528 L 47.00299835205078 184.00300598144528 L 47.00299835205078 156.99999999999997 L 47.00299835205078 153.99999999999997 L 52.000999450683594 153.99999999999997 L 52.000999450683594 156.99999999999997 L 52.000999450683594 157.00300598144528 L 62.000999450683594 157.00300598144528 L 62.000999450683594 156.99999999999997 L 62.000999450683594 153.99999999999997 L 82.00199890136719 153.99999999999997 L 82.00199890136719 156.99999999999997 L 82.00199890136719 157.00300598144528 L 88.00299835205078 157.00300598144528 L 92.00299835205078 157.00300598144528 L 92.00299835205078 156.99999999999997 L 92.00299835205078 153.99999999999997 L 102 153.99999999999997 L 102 156.99999999999997 L 102 163.99800109863278 L 98.99800109863281 163.99800109863278 L 98.99800109863281 174.00300598144528 L 102 174.00300598144528 L 102 202.99800109863276 L 98.99800109863281 202.99800109863276 L 98.99800109863281 213.00300598144526 L 102 213.00300598144526 L 102 222.99800109863276 L 98.99800109863281 222.99800109863276 L 98.99800109863281 233.00300598144526 L 102 233.00300598144526 L 102 272.9979858398437 L 98.99800109863281 272.9979858398437 L 98.99800109863281 283.0029907226562 L 102 283.0029907226562 L 102 292.99999999999994 L 98.99800109863281 292.99999999999994 L 92.00299835205078 292.99999999999994 L 92.00299835205078 289.9970092773437 L 88.00299835205078 289.9970092773437 L 83.49800109863281 289.9970092773437 L 82.00199890136719 289.9970092773437 L 81.99800109863281 289.9970092773437 L 81.99800109863281 292.99999999999994 L 72.99800109863281 292.99999999999994 L 72.52400207519531 292.99999999999994 L 72.2490005493164 292.99999999999994 L 69.2979965209961 292.99999999999994 L 68.99800109863281 292.99999999999994 L 64.49700164794922 292.99999999999994 L 62.000999450683594 292.99999999999994 L 60.50199890136719 292.99999999999994 L 52.000999450683594 292.99999999999994 L 36.99800109863281 292.99999999999994 L 16.49799919128418 292.99999999999994 L 11.99899959564209 292.99999999999994 L 11.003000259399414 292.99999999999994 L 2.003000020980835 292.99999999999994 M -20 292.99999999999994 L -30 292.99999999999994 L -30 289.99999999999994 L -40 289.99999999999994 L -40 239.99999999999994 L -40 236.99999999999994 L -30 236.99999999999994 L -30 239.99999999999994 L -20 239.99999999999994 L -20 289.99999999999994 L -20 292.99999999999994 M -30 209.99999999999994 L -40 209.99999999999994 L -40 206.99999999999994 L -40 156.99999999999997 L -30 156.99999999999997 L -30 153.99999999999997 L -20 153.99999999999997 L -20 156.99999999999997 L -20 206.99999999999994 L -30 206.99999999999994 L -30 209.99999999999994 M 60.94200134277344 213.05900573730463 L 61.0890007019043 213.188003540039 L 61.25199890136719 213.29699707031244 L 61.428001403808594 213.38400268554682 L 61.61399841308594 213.44700622558588 L 61.80699920654297 213.4850006103515 L 62.000999450683594 213.4978637695312 L 62.00299835205078 213.49800109863276 L 62.198001861572266 213.4850006103515 L 62.39099884033203 213.44700622558588 L 62.57699966430664 213.38400268554682 L 62.75299835205078 213.29699707031244 L 62.91600036621094 213.188003540039 L 63.0629997253418 213.05900573730463 L 63.12185287475586 212.9920043945312 L 63.19300079345703 212.91099548339838 L 63.301998138427734 212.74800109863276 L 63.38800048828125 212.57200622558588 L 63.45199966430664 212.386001586914 L 63.4900016784668 212.19400024414057 L 63.50299835205078 211.99800109863276 L 63.4900016784668 211.80200195312494 L 63.45199966430664 211.60899353027338 L 63.38800048828125 211.42399597167963 L 63.301998138427734 211.24800109863276 L 63.19300079345703 211.083999633789 L 63.069190979003906 210.94400024414057 L 63.0629997253418 210.93699645996088 L 62.91600036621094 210.80700683593744 L 62.75299835205078 210.69799804687494 L 62.57699966430664 210.6119995117187 L 62.39099884033203 210.54899597167963 L 62.198001861572266 210.50999450683588 L 62.00299835205078 210.49699401855463 L 62.000999450683594 210.4971313476562 L 61.80699920654297 210.50999450683588 L 61.61399841308594 210.54899597167963 L 61.439998626708984 210.60794067382807 L 61.428001403808594 210.6119995117187 L 61.25199890136719 210.69799804687494 L 61.0890007019043 210.80700683593744 L 60.94200134277344 210.93699645996088 L 60.93581008911133 210.94400024414057 L 60.8120002746582 211.083999633789 L 60.702999114990234 211.24800109863276 L 60.617000579833984 211.42399597167963 L 60.553001403808594 211.60899353027338 L 60.51499938964844 211.80200195312494 L 60.50199890136719 211.99800109863276 L 60.51499938964844 212.19400024414057 L 60.553001403808594 212.386001586914 L 60.617000579833984 212.57200622558588 L 60.702999114990234 212.74800109863276 L 60.8120002746582 212.91099548339838 L 60.883148193359375 212.9920043945312 L 60.94200134277344 213.05900573730463 M 60.51499938964844 234.80599975585932 L 60.50199890136719 235.00199890136713 L 60.51499938964844 235.19799804687494 L 60.553001403808594 235.38999938964838 L 60.59773254394531 235.52000427246088 L 60.617000579833984 235.57600402832026 L 60.702999114990234 235.75199890136713 L 60.8120002746582 235.91499328613276 L 60.94200134277344 236.063003540039 L 61.0890007019043 236.19200134277338 L 61.25199890136719 236.30099487304682 L 61.428001403808594 236.3880004882812 L 61.439998626708984 236.39205932617182 L 61.61399841308594 236.45100402832026 L 61.80699920654297 236.490005493164 L 62.000999450683594 236.50187683105463 L 62.00299835205078 236.50199890136713 L 62.198001861572266 236.490005493164 L 62.39099884033203 236.45100402832026 L 62.57699966430664 236.3880004882812 L 62.75299835205078 236.30099487304682 L 62.91600036621094 236.19200134277338 L 63.0629997253418 236.063003540039 L 63.19300079345703 235.91499328613276 L 63.301998138427734 235.75199890136713 L 63.38800048828125 235.57600402832026 L 63.40726852416992 235.52000427246088 L 63.45199966430664 235.38999938964838 L 63.487998962402344 235.20809936523432 L 63.4900016784668 235.19799804687494 L 63.50299835205078 235.00199890136713 L 63.4900016784668 234.80599975585932 L 63.487998962402344 234.79589843749994 L 63.45199966430664 234.61399841308588 L 63.38800048828125 234.427993774414 L 63.301998138427734 234.25199890136713 L 63.19300079345703 234.0890045166015 L 63.0629997253418 233.94099426269526 L 62.91600036621094 233.81199645996088 L 62.75299835205078 233.70300292968744 L 62.57699966430664 233.61599731445307 L 62.4640007019043 233.57772827148432 L 62.39099884033203 233.552993774414 L 62.198001861572266 233.51499938964838 L 62.00299835205078 233.50199890136713 L 62.000999450683594 233.5021362304687 L 61.80699920654297 233.51499938964838 L 61.61399841308594 233.552993774414 L 61.439998626708984 233.61193847656244 L 61.428001403808594 233.61599731445307 L 61.25199890136719 233.70300292968744 L 61.0890007019043 233.81199645996088 L 60.94200134277344 233.94099426269526 L 60.8120002746582 234.0890045166015 L 60.702999114990234 234.25199890136713 L 60.617000579833984 234.427993774414 L 60.553001403808594 234.61399841308588 L 60.51499938964844 234.80599975585932 M 17.611000061035156 188.45100402832028 L 17.804000854492188 188.49000549316403 L 18 188.50300598144528 L 18.195999145507812 188.49000549316403 L 18.388999938964844 188.45100402832028 L 18.492332458496094 188.4160003662109 L 18.575000762939453 188.38800048828122 L 18.750999450683594 188.30099487304685 L 18.915000915527344 188.1920013427734 L 19.062000274658203 188.0619964599609 L 19.191999435424805 187.91499328613278 L 19.301000595092773 187.7510070800781 L 19.38800048828125 187.57499694824216 L 19.451000213623047 187.38900756835935 L 19.489999771118164 187.19599914550778 L 19.503000259399414 186.99999999999997 L 19.489999771118164 186.80400085449216 L 19.451000213623047 186.6109924316406 L 19.38800048828125 186.42500305175778 L 19.35982322692871 186.36799621582028 L 19.301000595092773 186.24899291992185 L 19.191999435424805 186.08500671386716 L 19.062000274658203 185.93800354003903 L 18.915000915527344 185.80799865722653 L 18.750999450683594 185.6990051269531 L 18.575000762939453 185.61199951171872 L 18.43199920654297 185.56356811523435 L 18.388999938964844 185.54899597167966 L 18.195999145507812 185.5099945068359 L 18 185.49800109863278 L 17.804000854492188 185.5099945068359 L 17.611000061035156 185.54899597167966 L 17.424999237060547 185.61199951171872 L 17.249000549316406 185.6990051269531 L 17.084999084472656 185.80799865722653 L 16.937999725341797 185.93800354003903 L 16.808000564575195 186.08500671386716 L 16.698999404907227 186.24899291992185 L 16.64017677307129 186.36799621582028 L 16.61199951171875 186.42500305175778 L 16.548999786376953 186.6109924316406 L 16.510000228881836 186.80400085449216 L 16.49799919128418 186.99999999999997 L 16.510000228881836 187.19599914550778 L 16.548999786376953 187.38900756835935 L 16.61199951171875 187.57499694824216 L 16.698999404907227 187.7510070800781 L 16.808000564575195 187.91499328613278 L 16.937999725341797 188.0619964599609 L 17.084999084472656 188.1920013427734 L 17.249000549316406 188.30099487304685 L 17.424999237060547 188.38800048828122 L 17.507667541503906 188.4160003662109 L 17.611000061035156 188.45100402832028 M 16.698999404907227 284.75100708007807 L 16.808000564575195 284.9150085449218 L 16.937999725341797 285.06201171874994 L 17.084999084472656 285.1919860839843 L 17.249000549316406 285.3009948730468 L 17.424999237060547 285.3880004882812 L 17.611000061035156 285.4509887695312 L 17.804000854492188 285.48999023437494 L 18 285.5029907226562 L 18.195999145507812 285.48999023437494 L 18.388999938964844 285.4509887695312 L 18.43199920654297 285.43643188476557 L 18.575000762939453 285.3880004882812 L 18.750999450683594 285.3009948730468 L 18.915000915527344 285.1919860839843 L 19.062000274658203 285.06201171874994 L 19.191999435424805 284.9150085449218 L 19.301000595092773 284.75100708007807 L 19.340051651000977 284.67199707031244 L 19.38800048828125 284.5750122070312 L 19.451000213623047 284.3890075683593 L 19.489999771118164 284.1960144042968 L 19.503000259399414 283.99999999999994 L 19.489999771118164 283.80398559570307 L 19.451000213623047 283.61099243164057 L 19.38800048828125 283.4249877929687 L 19.301000595092773 283.2489929199218 L 19.191999435424805 283.08499145507807 L 19.062000274658203 282.93798828124994 L 18.915000915527344 282.80801391601557 L 18.750999450683594 282.69900512695307 L 18.599275588989258 282.6239929199218 L 18.575000762939453 282.6119995117187 L 18.388999938964844 282.5490112304687 L 18.195999145507812 282.51000976562494 L 18 282.4979858398437 L 17.804000854492188 282.51000976562494 L 17.611000061035156 282.5490112304687 L 17.424999237060547 282.6119995117187 L 17.400724411010742 282.6239929199218 L 17.249000549316406 282.69900512695307 L 17.084999084472656 282.80801391601557 L 16.937999725341797 282.93798828124994 L 16.808000564575195 283.08499145507807 L 16.698999404907227 283.2489929199218 L 16.61199951171875 283.4249877929687 L 16.548999786376953 283.61099243164057 L 16.510000228881836 283.80398559570307 L 16.49799919128418 283.99999999999994 L 16.510000228881836 284.1960144042968 L 16.548999786376953 284.3890075683593 L 16.61199951171875 284.5750122070312 L 16.659948348999023 284.67199707031244 L 16.698999404907227 284.75100708007807 M 20.61199951171875 235.57600402832026 L 20.698999404907227 235.75199890136713 L 20.808000564575195 235.91499328613276 L 20.937000274658203 236.063003540039 L 21.084999084472656 236.19200134277338 L 21.24799919128418 236.30099487304682 L 21.423999786376953 236.3880004882812 L 21.610000610351562 236.45100402832026 L 21.802000045776367 236.490005493164 L 21.99799919128418 236.50199890136713 L 22.194000244140625 236.490005493164 L 22.38599967956543 236.45100402832026 L 22.527999877929688 236.40290832519526 L 22.57200050354004 236.3880004882812 L 22.74799919128418 236.30099487304682 L 22.910999298095703 236.19200134277338 L 23.05900001525879 236.063003540039 L 23.187999725341797 235.91499328613276 L 23.297000885009766 235.75199890136713 L 23.384000778198242 235.57600402832026 L 23.40296745300293 235.52000427246088 L 23.44700050354004 235.38999938964838 L 23.485000610351562 235.19799804687494 L 23.49799919128418 235.00199890136713 L 23.485000610351562 234.80599975585932 L 23.44700050354004 234.61399841308588 L 23.384000778198242 234.427993774414 L 23.297000885009766 234.25199890136713 L 23.187999725341797 234.0890045166015 L 23.05900001525879 233.94099426269526 L 22.910999298095703 233.81199645996088 L 22.74799919128418 233.70300292968744 L 22.57200050354004 233.61599731445307 L 22.527999877929688 233.601089477539 L 22.38599967956543 233.552993774414 L 22.194000244140625 233.51499938964838 L 21.99799919128418 233.50199890136713 L 21.802000045776367 233.51499938964838 L 21.610000610351562 233.552993774414 L 21.503999710083008 233.58889770507807 L 21.423999786376953 233.61599731445307 L 21.24799919128418 233.70300292968744 L 21.084999084472656 233.81199645996088 L 20.937000274658203 233.94099426269526 L 20.808000564575195 234.0890045166015 L 20.698999404907227 234.25199890136713 L 20.61199951171875 234.427993774414 L 20.548999786376953 234.61399841308588 L 20.51099967956543 234.80599975585932 L 20.49799919128418 235.00199890136713 L 20.51099967956543 235.19799804687494 L 20.548999786376953 235.38999938964838 L 20.593032836914062 235.52000427246088 L 20.61199951171875 235.57600402832026 M 22.194000244140625 213.4850006103515 L 22.38599967956543 213.44700622558588 L 22.57200050354004 213.38400268554682 L 22.74799919128418 213.29699707031244 L 22.910999298095703 213.188003540039 L 23.05900001525879 213.05900573730463 L 23.117399215698242 212.9920043945312 L 23.187999725341797 212.91099548339838 L 23.297000885009766 212.74800109863276 L 23.384000778198242 212.57200622558588 L 23.44700050354004 212.386001586914 L 23.485000610351562 212.19400024414057 L 23.49799919128418 211.99800109863276 L 23.485000610351562 211.80200195312494 L 23.44700050354004 211.60899353027338 L 23.384000778198242 211.42399597167963 L 23.297000885009766 211.24800109863276 L 23.187999725341797 211.083999633789 L 23.065143585205078 210.94400024414057 L 23.05900001525879 210.93699645996088 L 22.910999298095703 210.80700683593744 L 22.74799919128418 210.69799804687494 L 22.57200050354004 210.6119995117187 L 22.527999877929688 210.59709167480463 L 22.38599967956543 210.54899597167963 L 22.194000244140625 210.50999450683588 L 21.99799919128418 210.49699401855463 L 21.802000045776367 210.50999450683588 L 21.610000610351562 210.54899597167963 L 21.423999786376953 210.6119995117187 L 21.24799919128418 210.69799804687494 L 21.084999084472656 210.80700683593744 L 20.937000274658203 210.93699645996088 L 20.930856704711914 210.94400024414057 L 20.808000564575195 211.083999633789 L 20.698999404907227 211.24800109863276 L 20.61199951171875 211.42399597167963 L 20.548999786376953 211.60899353027338 L 20.51099967956543 211.80200195312494 L 20.49799919128418 211.99800109863276 L 20.51099967956543 212.19400024414057 L 20.548999786376953 212.386001586914 L 20.61199951171875 212.57200622558588 L 20.698999404907227 212.74800109863276 L 20.808000564575195 212.91099548339838 L 20.87860107421875 212.9920043945312 L 20.937000274658203 213.05900573730463 L 21.084999084472656 213.188003540039 L 21.24799919128418 213.29699707031244 L 21.423999786376953 213.38400268554682 L 21.610000610351562 213.44700622558588 L 21.802000045776367 213.4850006103515 L 21.99799919128418 213.49800109863276 L 22.194000244140625 213.4850006103515 M 85.19599914550781 205.990005493164 L 85.38899993896484 205.95100402832026 L 85.57499694824219 205.8880004882812 L 85.7509994506836 205.80099487304682 L 85.91500091552734 205.69200134277338 L 86.01599884033203 205.603286743164 L 86.06300354003906 205.56199645996088 L 86.19200134277344 205.41499328613276 L 86.3010025024414 205.25100708007807 L 86.38800048828125 205.07499694824213 L 86.45099639892578 204.88900756835932 L 86.46898651123047 204.80000305175776 L 86.48999786376953 204.69599914550776 L 86.50299835205078 204.49999999999994 L 86.48999786376953 204.30400085449213 L 86.45099639892578 204.11099243164057 L 86.38800048828125 203.92500305175776 L 86.3010025024414 203.74899291992182 L 86.19200134277344 203.58500671386713 L 86.06300354003906 203.438003540039 L 86.01599884033203 203.39671325683588 L 85.91500091552734 203.3079986572265 L 85.7509994506836 203.19900512695307 L 85.57499694824219 203.1119995117187 L 85.38899993896484 203.04899597167963 L 85.19599914550781 203.00999450683588 L 85 202.99699401855463 L 84.80400085449219 203.00999450683588 L 84.61100006103516 203.04899597167963 L 84.42500305175781 203.1119995117187 L 84.2490005493164 203.19900512695307 L 84.08599853515625 203.3079986572265 L 83.96800231933594 203.41165161132807 L 83.93800354003906 203.438003540039 L 83.80799865722656 203.58500671386713 L 83.6989974975586 203.74899291992182 L 83.61199951171875 203.92500305175776 L 83.54900360107422 204.11099243164057 L 83.51100158691406 204.30400085449213 L 83.49800109863281 204.49999999999994 L 83.51100158691406 204.69599914550776 L 83.53147888183594 204.80000305175776 L 83.54900360107422 204.88900756835932 L 83.61199951171875 205.07499694824213 L 83.6989974975586 205.25100708007807 L 83.80799865722656 205.41499328613276 L 83.93800354003906 205.56199645996088 L 83.96800231933594 205.58834838867182 L 84.08599853515625 205.69200134277338 L 84.2490005493164 205.80099487304682 L 84.42500305175781 205.8880004882812 L 84.61100006103516 205.95100402832026 L 84.80400085449219 205.990005493164 L 85 206.00199890136713 L 85.19599914550781 205.990005493164 M 83.50940704345703 227.32800292968744 L 83.49800109863281 227.49999999999994 L 83.51100158691406 227.69599914550776 L 83.54900360107422 227.88900756835932 L 83.61199951171875 228.07499694824213 L 83.6989974975586 228.25100708007807 L 83.80799865722656 228.41499328613276 L 83.93800354003906 228.56199645996088 L 83.96800231933594 228.58834838867182 L 84.08599853515625 228.69200134277338 L 84.2490005493164 228.80099487304682 L 84.42500305175781 228.8880004882812 L 84.61100006103516 228.95100402832026 L 84.80400085449219 228.990005493164 L 85 229.00199890136713 L 85.19599914550781 228.990005493164 L 85.38899993896484 228.95100402832026 L 85.57499694824219 228.8880004882812 L 85.7509994506836 228.80099487304682 L 85.91500091552734 228.69200134277338 L 86.01599884033203 228.603286743164 L 86.06300354003906 228.56199645996088 L 86.19200134277344 228.41499328613276 L 86.3010025024414 228.25100708007807 L 86.38800048828125 228.07499694824213 L 86.45099639892578 227.88900756835932 L 86.48999786376953 227.69599914550776 L 86.50299835205078 227.49999999999994 L 86.49159240722656 227.32800292968744 L 86.48999786376953 227.30400085449213 L 86.45099639892578 227.11099243164057 L 86.38800048828125 226.92500305175776 L 86.3010025024414 226.74899291992182 L 86.19200134277344 226.58500671386713 L 86.06300354003906 226.438003540039 L 86.01599884033203 226.39671325683588 L 85.91500091552734 226.3079986572265 L 85.7509994506836 226.19900512695307 L 85.57499694824219 226.1119995117187 L 85.38899993896484 226.04899597167963 L 85.19599914550781 226.00999450683588 L 85 225.99699401855463 L 84.80400085449219 226.00999450683588 L 84.61100006103516 226.04899597167963 L 84.42500305175781 226.1119995117187 L 84.2490005493164 226.19900512695307 L 84.08599853515625 226.3079986572265 L 83.96800231933594 226.41165161132807 L 83.93800354003906 226.438003540039 L 83.80799865722656 226.58500671386713 L 83.6989974975586 226.74899291992182 L 83.61199951171875 226.92500305175776 L 83.54900360107422 227.11099243164057 L 83.51100158691406 227.30400085449213 L 83.50940704345703 227.32800292968744 M 81.99800109863281 183.87800598144528 L 82.00199890136719 183.87800598144528 L 83.49800109863281 183.87800598144528 L 86.50299835205078 183.87800598144528 L 88.00299835205078 183.87800598144528 L 88.00299835205078 168.87300109863278 L 82.00199890136719 168.87300109863278 L 72.99800109863281 168.87300109863278 L 72.99800109863281 183.87800598144528 L 81.25299835205078 183.87800598144528 L 81.99800109863281 183.87800598144528 M 81.25299835205078 242.14799499511713 L 72.99800109863281 242.14799499511713 L 72.52400207519531 242.14799499511713 L 72.2490005493164 242.14799499511713 L 69.2979965209961 242.14799499511713 L 68.99800109863281 242.14799499511713 L 68.62300109863281 242.14799499511713 L 68.62300109863281 257.1530151367187 L 68.99800109863281 257.1530151367187 L 69.2979965209961 257.1530151367187 L 72.2490005493164 257.1530151367187 L 72.52400207519531 257.1530151367187 L 72.99800109863281 257.1530151367187 L 81.25299835205078 257.1530151367187 L 81.99800109863281 257.1530151367187 L 82.00199890136719 257.1530151367187 L 83.49800109863281 257.1530151367187 L 83.62799835205078 257.1530151367187 L 83.62799835205078 242.14799499511713 L 83.49800109863281 242.14799499511713 L 82.00199890136719 242.14799499511713 L 81.99800109863281 242.14799499511713 L 81.25299835205078 242.14799499511713 M 65.42500305175781 188.38800048828122 L 65.5076675415039 188.4160003662109 L 65.53600311279297 188.42559814453122 L 65.61100006103516 188.45100402832028 L 65.80400085449219 188.49000549316403 L 66 188.50300598144528 L 66.19599914550781 188.49000549316403 L 66.38899993896484 188.45100402832028 L 66.4923324584961 188.4160003662109 L 66.57499694824219 188.38800048828122 L 66.7509994506836 188.30099487304685 L 66.91500091552734 188.1920013427734 L 67.06199645996094 188.0619964599609 L 67.19200134277344 187.91499328613278 L 67.3010025024414 187.7510070800781 L 67.38800048828125 187.57499694824216 L 67.45099639892578 187.38900756835935 L 67.48999786376953 187.19599914550778 L 67.50299835205078 186.99999999999997 L 67.48999786376953 186.80400085449216 L 67.45099639892578 186.6109924316406 L 67.38800048828125 186.42500305175778 L 67.35982513427734 186.36799621582028 L 67.3010025024414 186.24899291992185 L 67.19200134277344 186.08500671386716 L 67.06199645996094 185.93800354003903 L 66.91500091552734 185.80799865722653 L 66.7509994506836 185.6990051269531 L 66.57499694824219 185.61199951171872 L 66.38899993896484 185.54899597167966 L 66.19599914550781 185.5099945068359 L 66 185.49800109863278 L 65.80400085449219 185.5099945068359 L 65.61100006103516 185.54899597167966 L 65.53600311279297 185.57440185546872 L 65.42500305175781 185.61199951171872 L 65.2490005493164 185.6990051269531 L 65.08499908447266 185.80799865722653 L 64.93800354003906 185.93800354003903 L 64.80799865722656 186.08500671386716 L 64.6989974975586 186.24899291992185 L 64.64017486572266 186.36799621582028 L 64.61199951171875 186.42500305175778 L 64.54900360107422 186.6109924316406 L 64.51000213623047 186.80400085449216 L 64.49700164794922 186.99999999999997 L 64.51000213623047 187.19599914550778 L 64.54900360107422 187.38900756835935 L 64.61199951171875 187.57499694824216 L 64.6989974975586 187.7510070800781 L 64.80799865722656 187.91499328613278 L 64.93800354003906 188.0619964599609 L 65.08499908447266 188.1920013427734 L 65.2490005493164 188.30099487304685 L 65.42500305175781 188.38800048828122 M 65.42500305175781 285.3880004882812 L 65.53600311279297 285.4255981445312 L 65.61100006103516 285.4509887695312 L 65.80400085449219 285.48999023437494 L 66 285.5029907226562 L 66.19599914550781 285.48999023437494 L 66.38899993896484 285.4509887695312 L 66.57499694824219 285.3880004882812 L 66.7509994506836 285.3009948730468 L 66.91500091552734 285.1919860839843 L 67.06199645996094 285.06201171874994 L 67.19200134277344 284.9150085449218 L 67.3010025024414 284.75100708007807 L 67.34004974365234 284.67199707031244 L 67.38800048828125 284.5750122070312 L 67.45099639892578 284.3890075683593 L 67.48999786376953 284.1960144042968 L 67.50299835205078 283.99999999999994 L 67.48999786376953 283.80398559570307 L 67.45099639892578 283.61099243164057 L 67.38800048828125 283.4249877929687 L 67.3010025024414 283.2489929199218 L 67.19200134277344 283.08499145507807 L 67.06199645996094 282.93798828124994 L 66.91500091552734 282.80801391601557 L 66.7509994506836 282.69900512695307 L 66.59927368164062 282.6239929199218 L 66.57499694824219 282.6119995117187 L 66.38899993896484 282.5490112304687 L 66.19599914550781 282.51000976562494 L 66 282.4979858398437 L 65.80400085449219 282.51000976562494 L 65.61100006103516 282.5490112304687 L 65.53600311279297 282.5744018554687 L 65.42500305175781 282.6119995117187 L 65.40072631835938 282.6239929199218 L 65.2490005493164 282.69900512695307 L 65.08499908447266 282.80801391601557 L 64.93800354003906 282.93798828124994 L 64.80799865722656 283.08499145507807 L 64.6989974975586 283.2489929199218 L 64.61199951171875 283.4249877929687 L 64.54900360107422 283.61099243164057 L 64.51000213623047 283.80398559570307 L 64.49700164794922 283.99999999999994 L 64.51000213623047 284.1960144042968 L 64.54900360107422 284.3890075683593 L 64.61199951171875 284.5750122070312 L 64.65995025634766 284.67199707031244 L 64.6989974975586 284.75100708007807 L 64.80799865722656 284.9150085449218 L 64.93800354003906 285.06201171874994 L 65.08499908447266 285.1919860839843 L 65.2490005493164 285.3009948730468 L 65.42500305175781 285.3880004882812 M 57.099998474121094 170.24800109863278 L 54.650001525878906 170.24800109863278 L 54.650001525878906 178.57600402832028 L 54.650001525878906 179.2510070800781 L 54.650001525878906 182.20199584960935 L 54.650001525878906 182.50300598144528 L 57.099998474121094 182.50300598144528 L 57.099998474121094 182.20199584960935 L 57.099998474121094 179.2510070800781 L 57.099998474121094 178.57600402832028 L 57.099998474121094 170.24800109863278 M 11.003000259399414 277.7019958496093 L 11.003000259399414 257.6969909667968 L -8.001999855041504 257.6969909667968 L -9.001999855041504 257.6969909667968 L -9.001999855041504 277.7019958496093 L -8.001999855041504 277.7019958496093 L 2.003000020980835 277.7019958496093 L 11.003000259399414 277.7019958496093 M 11.003000259399414 180.29699707031247 L -8.001999855041504 180.29699707031247 L -9.001999855041504 180.29699707031247 L -9.001999855041504 200.30200195312494 L -8.001999855041504 200.30200195312494 L 11.003000259399414 200.30200195312494 L 11.003000259399414 180.29699707031247 M 72.99800109863281 273.0499877929687 L 72.52400207519531 273.0499877929687 L 72.2490005493164 273.0499877929687 L 69.2979965209961 273.0499877929687 L 68.99800109863281 273.0499877929687 L 68.99800109863281 275.49999999999994 L 69.2979965209961 275.49999999999994 L 72.2490005493164 275.49999999999994 L 72.52400207519531 275.49999999999994 L 72.99800109863281 275.49999999999994 L 81.25299835205078 275.49999999999994 L 81.25299835205078 273.0499877929687 L 72.99800109863281 273.0499877929687 z" fill="none" stroke="rgb(255,0,0)" stroke-width="0.001mm" />
</svg>