; NON-PLATED HOLES START AT T1
; THROUGH (PLATED) HOLES START AT T100
M48
INCH
T100C0.015748
T101C0.042520
T102C0.035000
T103C0.038583
T104C0.039370
T105C0.036000
T106C0.038000
%
T100
X044697Y029300
X042335Y025363
X009264Y032450
X003753Y049773
X023438Y025757
X017926Y039930
X035249Y015127
X040760Y025363
X013989Y039537
X038398Y037568
X023438Y024970
X006902Y015127
X027768Y025757
X041154Y032056
X034068Y042292
X029343Y027332
X004540Y033237
X026587Y024970
X041942Y023789
X015957Y041505
X036823Y015127
X007690Y035600
X008477Y049379
X041942Y020245
X008477Y034812
X042729Y023001
X024619Y011584
X041942Y017096
X003753Y021033
X037611Y015127
X012414Y041505
X030131Y028907
X005327Y021033
X023438Y024182
X006902Y011190
X006902Y032450
X006902Y036387
X005721Y035600
X041548Y038355
X007690Y030481
X032493Y041505
X039973Y037568
X034068Y041505
X032493Y042292
X046272Y029300
X036036Y015127
X003753Y035600
X044697Y032056
X023438Y026544
X042335Y024576
X043910Y023001
X012414Y039537
X028556Y026544
X039579Y038355
X025012Y024182
X005327Y049773
X017926Y037962
X023438Y027332
X007690Y028907
X030131Y030875
X008477Y032450
X009264Y034812
X040760Y026151
X005327Y034025
X045485Y023789
X003753Y034025
X005721Y033237
X042335Y026151
X041942Y021426
T101
X015157Y028119
X012013Y028119
X023825Y010009
X011214Y028119
X024608Y010009
X019881Y028119
X017517Y028119
X026193Y010009
X013578Y028119
X012794Y028119
X018301Y028119
X014377Y028119
X025398Y010009
X019100Y028119
X016736Y028119
X015938Y028119
X022261Y010009
X023053Y010009
T102
X034461Y043867
X017138Y040718
X016927Y043474
X026194Y009222
X043910Y016308
X001784Y029694
X004540Y050560
X031072Y021033
X001934Y047411
X028312Y043474
X019107Y034812
X017926Y033631
X029343Y007647
X024619Y056859
X043910Y011190
X043123Y046623
X028162Y009222
X026587Y007647
X000596Y030483
X013201Y034812
X019107Y040718
X005327Y049773
X003756Y042904
X023831Y010009
X007690Y043474
X041548Y041111
X020288Y004104
X025406Y007253
X022804Y058434
X027375Y043474
X003902Y041899
X034855Y040718
X012020Y034812
X023438Y004103
X023438Y057253
X043516Y042929
X022257Y003316
X015957Y043474
X043516Y041899
X021863Y058434
X015957Y035993
T103
X043910Y026939
X043910Y025365
X037723Y026939
X037723Y025365
X036363Y031998
X036363Y032784
X043910Y027725
X043910Y026151
X037723Y026151
X037723Y027725
T104
X020170Y034812
X015170Y034812
X016170Y034812
X021170Y040812
X021170Y034812
X016170Y040812
X015170Y040812
X020170Y040812
X017170Y034812
X017170Y040812
X013170Y034812
X012170Y040812
X012170Y034812
X013170Y040812
X011170Y040812
X019170Y040812
X014170Y040812
X010170Y034812
X018170Y040812
X018170Y034812
X010170Y040812
X019170Y034812
X014170Y034812
X011170Y034812
T105
X029187Y003222
X027187Y003222
X028187Y009222
X024187Y003222
X020187Y003222
X022187Y009222
X026187Y009222
X021187Y003222
X031187Y003222
X019187Y009222
X018187Y003222
X023187Y009222
X025187Y009222
X030187Y003222
X032187Y009222
X021187Y009222
X026187Y003222
X020187Y009222
X022187Y003222
X028187Y003222
X024187Y009222
X029187Y009222
X027187Y009222
X030187Y009222
X032187Y003222
X023187Y003222
X025187Y003222
X018187Y009222
X019187Y003222
X031187Y009222
T106
X018926Y043474
X013627Y058434
X003359Y019308
X039430Y039537
X043910Y014308
X026949Y053710
X038823Y058434
X037823Y058434
X038792Y053710
X046666Y027332
X026343Y043474
X037792Y053710
X043910Y016308
X001784Y010434
X023831Y058434
X001784Y048592
X035823Y058434
X036823Y058434
X037430Y039537
X043910Y018308
X027343Y043474
X043910Y015308
X032337Y039537
X028343Y043474
X031343Y043474
X018319Y053710
X024831Y058434
X003753Y040899
X019319Y053710
X008627Y058434
X001784Y009434
X016926Y043474
X000603Y029481
X000603Y030481
X034337Y039537
X043516Y040899
X008477Y053710
X043910Y017308
X021831Y058434
X012627Y058434
X046666Y026332
X010477Y053710
X033337Y039537
X036792Y053710
X001784Y049592
X010627Y058434
X000603Y027481
X026831Y058434
X019926Y043474
X020319Y053710
X014926Y043474
X032343Y043474
X000603Y028481
X001784Y008434
X003753Y039899
X035337Y039537
X033823Y058434
X003753Y042899
X003359Y017308
X046666Y032844
X043516Y039899
X022831Y058434
X017926Y043474
X025831Y058434
X029343Y043474
X043516Y042899
X000603Y031481
X003359Y018308
X030343Y043474
X034823Y058434
X003359Y015308
X001784Y050592
X020831Y058434
X003359Y016308
X038430Y039537
X020926Y043474
X003753Y041899
X043516Y043899
X027949Y053710
X046666Y031844
X003753Y044899
X003359Y014308
X009627Y058434
X036430Y039537
X028949Y053710
X000603Y032481
X015926Y043474
X043516Y044899
X043516Y041899
X003753Y043899
X009477Y053710
X011627Y058434
X043910Y019308
T00
M30
