<?xml version="1.0" encoding="UTF-8" standalone="no"?>
<!-- Created with Inkscape (http://www.inkscape.org/) -->

<svg
   width="120mm"
   height="150mm"
   viewBox="0 0 120 150"
   version="1.1"
   id="svg1"
   xmlns="http://www.w3.org/2000/svg"
   xmlns:svg="http://www.w3.org/2000/svg">
  <defs
     id="defs1" />
  <g
     id="layer1">
    <g
       id="board">
      <path
         id="boardoutline"
         style="fill:#008000;stroke-width:0.159992"
         d="M 10.079906,0.08 0.08,10.079906 v 9.999907 H 3.0798169 V 65.080167 H 0.08 V 85.07998 h 2.9998169 v 44.99984 H 0.08 v 10.00042 l 9.999906,9.99991 H 110.08 l 9.99991,-9.99991 v -10.00042 h -2.99982 V 85.07998 h 2.99982 V 65.080167 h -2.99982 V 20.079813 h 2.99982 V 10.079906 L 110.08,0.08 Z m 9.999907,8.0000285 H 100.0801 V 12.079784 H 20.079813 Z M 3.0798169,13.08024 h 2.0003947 v 2.000395 H 3.0798169 Z m 111.9998831,0 h 2.00039 v 2.000395 h -2.00039 z m -77.999891,8.999968 h 16.000057 v 15.99954 H 37.079809 Z m 30.000236,0 h 16.000057 v 15.99954 H 67.080045 Z M 5.0802116,34.58022 h 1.9998779 v 1.999878 H 5.0802116 Z m 107.9996084,0 h 1.99988 v 1.999878 h -1.99988 z M 5.0802116,48.579882 H 7.0800895 V 50.57976 H 5.0802116 Z m 107.9996084,0 h 1.99988 v 1.999878 h -1.99988 z M 5.0802116,99.580387 h 1.9998779 v 1.999873 H 5.0802116 Z m 107.9996084,0 h 1.99988 v 1.999873 h -1.99988 z M 5.0802116,113.58005 h 1.9998779 v 1.99988 H 5.0802116 Z m 107.9996084,0 h 1.99988 v 1.99988 h -1.99988 z M 3.0798169,135.07951 h 2.0003947 v 2.0004 H 3.0798169 Z m 111.9998831,0 h 2.00039 v 2.0004 h -2.00039 z" />
    </g>
	<g
       id="silkscreen">
      <path
         id="silkscreenpcb"
         style="fill:none;stroke-width:0.2032;stroke:#ffffff;stroke-opacity:1;stroke-dasharray:none"
         d="M 9.9999065,0 0,9.9999055 V 19.999812 H 2.999817 V 65.000167 H 0 V 84.999983 H 2.999817 V 129.99982 H 0 v 10.00042 l 9.9999065,9.99991 H 110 l 9.99991,-9.99991 v -10.00042 h -2.99982 V 84.999983 h 2.99982 V 65.000167 h -2.99982 V 19.999812 h 2.99982 V 9.9999055 L 110,0 Z M 19.999813,8.0000279 H 100.0001 V 11.999784 H 19.999813 Z M 2.999817,13.00024 h 2.000395 v 2.000395 H 2.999817 Z m 111.999883,0 h 2.00039 v 2.000395 h -2.00039 z m -77.99989,8.999967 h 16.000057 v 15.99954 H 36.99981 Z m 30.000235,0 h 16.000058 v 15.99954 H 67.000045 Z M 5.000212,34.500219 h 1.999877 v 1.999879 H 5.000212 Z m 107.999608,0 h 1.99988 v 1.999879 h -1.99988 z M 5.000212,48.499881 H 7.000089 V 50.49976 H 5.000212 Z m 107.999608,0 h 1.99988 v 1.999879 h -1.99988 z M 5.000212,99.500388 h 1.999877 v 1.999872 H 5.000212 Z m 107.999608,0 h 1.99988 v 1.999872 h -1.99988 z M 5.000212,113.50005 h 1.999877 v 1.99988 H 5.000212 Z m 107.999608,0 h 1.99988 v 1.99988 h -1.99988 z M 2.999817,134.99951 h 2.000395 v 2.0004 H 2.999817 Z m 111.999883,0 h 2.00039 v 2.0004 h -2.00039 z" />
    </g>
  </g>
</svg>
