<?xml version="1.0" encoding="UTF-8" standalone="no"?>
<!-- Created with Inkscape (http://www.inkscape.org/) -->

<svg
   width="120mm"
   height="150mm"
   viewBox="0 0 120 150"
   version="1.1"
   id="svg1"
   inkscape:version="1.4.2 (f4327f4, 2025-05-13)"
   sodipodi:docname="NovaBase.svg"
   xmlns:inkscape="http://www.inkscape.org/namespaces/inkscape"
   xmlns:sodipodi="http://sodipodi.sourceforge.net/DTD/sodipodi-0.dtd"
   xmlns="http://www.w3.org/2000/svg"
   xmlns:svg="http://www.w3.org/2000/svg">
  <sodipodi:namedview
     id="namedview1"
     pagecolor="#505050"
     bordercolor="#eeeeee"
     borderopacity="1"
     inkscape:showpageshadow="0"
     inkscape:pageopacity="0"
     inkscape:pagecheckerboard="0"
     inkscape:deskcolor="#505050"
     inkscape:document-units="mm"
     inkscape:zoom="2.712142"
     inkscape:cx="21.200955"
     inkscape:cy="83.513326"
     inkscape:window-width="1920"
     inkscape:window-height="1009"
     inkscape:window-x="-8"
     inkscape:window-y="-8"
     inkscape:window-maximized="1"
     inkscape:current-layer="silkscreen"
     showgrid="true">
    <inkscape:grid
       id="grid5"
       units="mm"
       originx="0"
       originy="0"
       spacingx="1"
       spacingy="1"
       empcolor="#0099e5"
       empopacity="0.30196078"
       color="#0099e5"
       opacity="0.14901961"
       empspacing="5"
       enabled="true"
       visible="true" />
  </sodipodi:namedview>
  <defs
     id="defs1" />
  <g
     inkscape:groupmode="layer"
     id="layer1"
     inkscape:label="Camada 3">
    <g
       inkscape:groupmode="layer"
       id="silkscreen"
       inkscape:label="silkscreen"
       style="font-variation-settings:normal;opacity:1;vector-effect:none;fill:none;fill-opacity:1;stroke:#ffffff;stroke-width:0.806333;stroke-linecap:butt;stroke-linejoin:miter;stroke-miterlimit:4;stroke-dasharray:none;stroke-dashoffset:0;stroke-opacity:1;-inkscape-stroke:none;stop-color:#000000;stop-opacity:1">
      <path
         id="silkscreenpcb"
         style="fill:#008000;fill-opacity:1;stroke:none;stroke-width:0.806;stroke-dasharray:none;stroke-opacity:1"
         d="M 9.9999065,0 0,9.9999055 V 19.999812 H 2.999817 V 65.000167 H 0 V 84.999983 H 2.999817 V 129.99982 H 0 v 10.00042 l 9.9999065,9.99991 H 110 l 9.99991,-9.99991 v -10.00042 h -2.99982 V 84.999983 h 2.99982 V 65.000167 h -2.99982 V 19.999812 h 2.99982 V 9.9999055 L 110,0 Z M 19.999813,8.0000279 H 100.0001 V 11.999784 H 19.999813 Z M 2.999817,13.00024 h 2.000395 v 2.000395 H 2.999817 Z m 111.999883,0 h 2.00039 v 2.000395 h -2.00039 z m -77.99989,8.999967 h 16.000057 v 15.99954 H 36.99981 Z m 30.000235,0 h 16.000058 v 15.99954 H 67.000045 Z M 5.000212,34.500219 h 1.999877 v 1.999879 H 5.000212 Z m 107.999608,0 h 1.99988 v 1.999879 h -1.99988 z M 5.000212,48.499881 H 7.000089 V 50.49976 H 5.000212 Z m 107.999608,0 h 1.99988 v 1.999879 h -1.99988 z M 5.000212,99.500388 h 1.999877 v 1.999872 H 5.000212 Z m 107.999608,0 h 1.99988 v 1.999872 h -1.99988 z M 5.000212,113.50005 h 1.999877 v 1.99988 H 5.000212 Z m 107.999608,0 h 1.99988 v 1.99988 h -1.99988 z M 2.999817,134.99951 h 2.000395 v 2.0004 H 2.999817 Z m 111.999883,0 h 2.00039 v 2.0004 h -2.00039 z" />
    </g>
    <g
       inkscape:label="board"
       inkscape:groupmode="layer"
       id="board">
      <path
         id="boardoutline"
         style="fill:none;fill-opacity:1;stroke:#ffffff;stroke-width:0.16;stroke-dasharray:none;stroke-opacity:1"
         d="M 10.079906,0.08 0.08,10.079906 v 9.999907 H 3.0798169 V 65.080167 H 0.08 V 85.07998 h 2.9998169 v 44.99984 H 0.08 v 10.00042 l 9.999906,9.99991 H 110.08 l 9.99991,-9.99991 v -10.00042 h -2.99982 V 85.07998 h 2.99982 V 65.080167 h -2.99982 V 20.079813 h 2.99982 V 10.079906 L 110.08,0.08 Z m 9.999907,8.0000285 H 100.0801 V 12.079784 H 20.079813 Z M 3.0798169,13.08024 h 2.0003947 v 2.000395 H 3.0798169 Z m 111.9998831,0 h 2.00039 v 2.000395 h -2.00039 z m -77.999891,8.999968 h 16.000057 v 15.99954 H 37.079809 Z m 30.000236,0 h 16.000057 v 15.99954 H 67.080045 Z M 5.0802116,34.58022 h 1.9998779 v 1.999878 H 5.0802116 Z m 107.9996084,0 h 1.99988 v 1.999878 h -1.99988 z M 5.0802116,48.579882 H 7.0800895 V 50.57976 H 5.0802116 Z m 107.9996084,0 h 1.99988 v 1.999878 h -1.99988 z M 5.0802116,99.580387 h 1.9998779 v 1.999873 H 5.0802116 Z m 107.9996084,0 h 1.99988 v 1.999873 h -1.99988 z M 5.0802116,113.58005 h 1.9998779 v 1.99988 H 5.0802116 Z m 107.9996084,0 h 1.99988 v 1.99988 h -1.99988 z M 3.0798169,135.07951 h 2.0003947 v 2.0004 H 3.0798169 Z m 111.9998831,0 h 2.00039 v 2.0004 h -2.00039 z" />
    </g>
  </g>
</svg>
