G04 MADE WITH FRITZING*
G04 WWW.FRITZING.ORG*
G04 DOUBLE SIDED*
G04 HOLES PLATED*
G04 CONTOUR ON CENTER OF CONTOUR VECTOR*
%ASAXBY*%
%FSLAX23Y23*%
%MOIN*%
%OFA0B0*%
%SFA1.0B1.0*%
%ADD10C,0.039370*%
%ADD11C,0.075000*%
%ADD12C,0.054331*%
%ADD13C,0.050394*%
%ADD14C,0.078000*%
%ADD15C,0.066000*%
%ADD16C,0.070000*%
%ADD17R,0.000109X0.000109*%
%ADD18R,0.078000X0.078000*%
%ADD19R,0.070000X0.069972*%
%ADD20C,0.012000*%
%ADD21C,0.032000*%
%ADD22C,0.024000*%
%ADD23C,0.016000*%
%LNCOPPER1*%
G90*
G70*
G54D10*
X4470Y3206D03*
X4115Y3206D03*
G54D11*
X1202Y3481D03*
X2659Y765D03*
X2226Y332D03*
X4352Y4293D03*
G54D10*
X848Y4938D03*
G54D11*
X178Y2969D03*
X1793Y3363D03*
X60Y3048D03*
X1911Y3481D03*
X454Y5056D03*
X1596Y4347D03*
X533Y4977D03*
X1693Y4347D03*
G54D10*
X3761Y1513D03*
X3682Y1513D03*
X3604Y1513D03*
X3525Y1513D03*
G54D11*
X390Y4190D03*
X2344Y410D03*
X193Y4741D03*
X2029Y410D03*
X2831Y4347D03*
X4155Y4111D03*
X2738Y4347D03*
X4312Y4662D03*
X3107Y2103D03*
X2280Y5843D03*
X454Y5056D03*
X2186Y5843D03*
G54D10*
X1399Y3954D03*
X1241Y3954D03*
X1596Y4151D03*
X1241Y4151D03*
G54D11*
X1714Y4072D03*
X3446Y4387D03*
X1596Y3599D03*
X3486Y4072D03*
X769Y4347D03*
X2344Y5725D03*
X1911Y4072D03*
X2462Y5686D03*
G54D10*
X1793Y3796D03*
X1793Y3993D03*
X2462Y1158D03*
G54D11*
X2541Y725D03*
X1320Y3481D03*
X2383Y1001D03*
X2619Y922D03*
G54D10*
X3407Y4229D03*
X3407Y4151D03*
X3249Y4229D03*
X3249Y4151D03*
X3013Y3088D03*
X3013Y2891D03*
X926Y3481D03*
X926Y3245D03*
X848Y3481D03*
X848Y3245D03*
X690Y3639D03*
X690Y3245D03*
X2344Y2418D03*
X2501Y2418D03*
X2659Y2497D03*
X2344Y2497D03*
X2777Y2576D03*
X2856Y2654D03*
X2934Y2733D03*
X2344Y2733D03*
X2344Y2654D03*
X2344Y2576D03*
X375Y2103D03*
X533Y2103D03*
X4549Y2379D03*
X4194Y2379D03*
X4194Y2025D03*
X4194Y2143D03*
X3997Y3757D03*
X3840Y3757D03*
X4155Y3836D03*
X3958Y3836D03*
X572Y3324D03*
X454Y3324D03*
X4391Y2300D03*
X4273Y2300D03*
X4234Y2458D03*
X4076Y2615D03*
X4234Y2615D03*
X4234Y2536D03*
X4076Y2536D03*
X375Y3560D03*
X572Y3560D03*
X769Y3560D03*
X769Y3048D03*
X769Y2891D03*
X375Y3403D03*
X533Y3403D03*
G54D12*
X4391Y2537D03*
X4391Y2615D03*
X4391Y2694D03*
X4391Y2773D03*
X3772Y2537D03*
X3772Y2615D03*
X3772Y2694D03*
X3772Y2773D03*
X3636Y3200D03*
X3636Y3278D03*
G54D13*
X1121Y2812D03*
X1201Y2812D03*
X1279Y2812D03*
X2619Y1001D03*
X2540Y1001D03*
X2461Y1001D03*
X2383Y1001D03*
X2305Y1001D03*
X2226Y1001D03*
X1358Y2812D03*
X1438Y2812D03*
X1516Y2812D03*
X1594Y2812D03*
X1674Y2812D03*
X1752Y2812D03*
X1830Y2812D03*
X1910Y2812D03*
X1988Y2812D03*
G54D14*
X3943Y3954D03*
X3843Y3954D03*
X3743Y3954D03*
X3643Y3954D03*
X3943Y3954D03*
X3843Y3954D03*
X3743Y3954D03*
X3643Y3954D03*
X3234Y3954D03*
X3334Y3954D03*
X3434Y3954D03*
X3534Y3954D03*
G54D10*
X4627Y2930D03*
X4470Y2930D03*
G54D14*
X178Y1043D03*
X178Y943D03*
X178Y843D03*
X178Y5059D03*
X178Y4959D03*
X178Y4859D03*
G54D10*
X375Y4977D03*
X533Y4977D03*
G54D14*
X4667Y3184D03*
X4667Y3284D03*
X4667Y2633D03*
X4667Y2733D03*
X336Y1931D03*
X336Y1831D03*
X336Y1731D03*
X336Y1631D03*
X336Y1531D03*
X336Y1431D03*
X375Y4490D03*
X375Y4390D03*
X375Y4290D03*
X375Y4190D03*
X375Y4090D03*
X375Y3990D03*
X4391Y1931D03*
X4391Y1831D03*
X4391Y1731D03*
X4391Y1631D03*
X4391Y1531D03*
X4391Y1431D03*
X4352Y4490D03*
X4352Y4390D03*
X4352Y4290D03*
X4352Y4190D03*
X4352Y4090D03*
X4352Y3990D03*
G54D15*
X2117Y4081D03*
X2017Y4081D03*
X1917Y4081D03*
X1817Y4081D03*
X1717Y4081D03*
X1617Y4081D03*
X1517Y4081D03*
X1417Y4081D03*
X1317Y4081D03*
X1217Y4081D03*
X1117Y4081D03*
X1017Y4081D03*
X1017Y3481D03*
X1117Y3481D03*
X1217Y3481D03*
X1317Y3481D03*
X1417Y3481D03*
X1517Y3481D03*
X1617Y3481D03*
X1717Y3481D03*
X1817Y3481D03*
X1917Y3481D03*
X2017Y3481D03*
X2117Y3481D03*
G54D16*
X1819Y322D03*
X1919Y322D03*
X2019Y322D03*
X2119Y322D03*
X2219Y322D03*
X2319Y322D03*
X2419Y322D03*
X2519Y322D03*
X2619Y322D03*
X2719Y322D03*
X2819Y322D03*
X2919Y322D03*
X3019Y322D03*
X3119Y322D03*
X3219Y322D03*
X1819Y922D03*
X1919Y922D03*
X2019Y922D03*
X2119Y922D03*
X2219Y922D03*
X2319Y922D03*
X2419Y922D03*
X2519Y922D03*
X2619Y922D03*
X2719Y922D03*
X2819Y922D03*
X2919Y922D03*
X3019Y922D03*
X3119Y922D03*
X3219Y922D03*
G54D14*
X1493Y4347D03*
X1593Y4347D03*
X1693Y4347D03*
X1793Y4347D03*
X1893Y4347D03*
X1993Y4347D03*
X2093Y4347D03*
X2083Y5843D03*
X2183Y5843D03*
X2283Y5843D03*
X2383Y5843D03*
X2483Y5843D03*
X2583Y5843D03*
X2683Y5843D03*
X2634Y4347D03*
X2734Y4347D03*
X2834Y4347D03*
X2934Y4347D03*
X3034Y4347D03*
X3134Y4347D03*
X3234Y4347D03*
X60Y2748D03*
X60Y2848D03*
X60Y2948D03*
X60Y3048D03*
X60Y3148D03*
X60Y3248D03*
X3382Y5843D03*
X3482Y5843D03*
X3582Y5843D03*
X3682Y5843D03*
X3782Y5843D03*
X3882Y5843D03*
X863Y5843D03*
X963Y5843D03*
X1063Y5843D03*
X1163Y5843D03*
X1263Y5843D03*
X1363Y5843D03*
X1048Y5371D03*
X948Y5371D03*
X848Y5371D03*
X2032Y5371D03*
X1932Y5371D03*
X1832Y5371D03*
X2695Y5371D03*
X2795Y5371D03*
X2895Y5371D03*
X3679Y5371D03*
X3779Y5371D03*
X3879Y5371D03*
G54D17*
X4390Y2615D03*
X3638Y3201D03*
G54D18*
X178Y1043D03*
X178Y5059D03*
X4667Y3184D03*
X4667Y2633D03*
G54D19*
X1819Y322D03*
G54D20*
X1616Y4062D02*
X1597Y3617D01*
G54D21*
D02*
X4470Y3206D02*
X4648Y3186D01*
D02*
X4462Y3206D02*
X4123Y3206D01*
D02*
X2834Y4347D02*
X2831Y4347D01*
G54D22*
D02*
X1202Y3481D02*
X1217Y3481D01*
D02*
X2226Y332D02*
X2219Y322D01*
D02*
X4352Y4293D02*
X4352Y4290D01*
D02*
X847Y4939D02*
X847Y4939D01*
D02*
X79Y2952D02*
X161Y2966D01*
D02*
X1813Y3462D02*
X1796Y3380D01*
D02*
X60Y3048D02*
X60Y3048D01*
D02*
X1911Y3481D02*
X1917Y3481D01*
G54D21*
D02*
X3998Y4623D02*
X3998Y5646D01*
D02*
X3998Y5646D02*
X3801Y5646D01*
D02*
X3801Y5646D02*
X3784Y5825D01*
D02*
X4295Y4660D02*
X3998Y4623D01*
D02*
X447Y3321D02*
X78Y3156D01*
G54D20*
D02*
X219Y3364D02*
X76Y3259D01*
D02*
X3761Y410D02*
X3761Y1505D01*
D02*
X3131Y410D02*
X3761Y410D01*
D02*
X3121Y340D02*
X3131Y410D01*
G54D21*
D02*
X455Y5725D02*
X1242Y5725D01*
D02*
X1242Y5725D02*
X1260Y5825D01*
D02*
X454Y5074D02*
X455Y5725D01*
G54D20*
D02*
X532Y5647D02*
X1360Y5647D01*
D02*
X1360Y5647D02*
X1362Y5824D01*
D02*
X533Y4985D02*
X532Y5647D01*
G54D22*
D02*
X533Y4977D02*
X533Y4977D01*
D02*
X1693Y4347D02*
X1693Y4347D01*
D02*
X454Y5056D02*
X454Y5056D01*
D02*
X1596Y4347D02*
X1593Y4347D01*
D02*
X2324Y340D02*
X2339Y394D01*
G54D20*
D02*
X2697Y608D02*
X3525Y608D01*
D02*
X3525Y608D02*
X3525Y1505D01*
D02*
X2624Y340D02*
X2697Y608D01*
D02*
X2933Y490D02*
X3602Y490D01*
D02*
X3602Y490D02*
X3604Y1505D01*
D02*
X2920Y340D02*
X2933Y490D01*
D02*
X3683Y450D02*
X3682Y1505D01*
D02*
X3054Y450D02*
X3683Y450D01*
D02*
X3024Y340D02*
X3054Y450D01*
G54D22*
D02*
X181Y4840D02*
X191Y4758D01*
G54D20*
D02*
X296Y410D02*
X1911Y414D01*
D02*
X295Y685D02*
X296Y410D01*
D02*
X175Y685D02*
X295Y685D01*
D02*
X1911Y414D02*
X1917Y340D01*
D02*
X178Y824D02*
X175Y685D01*
G54D21*
D02*
X4195Y4465D02*
X4303Y4647D01*
D02*
X4077Y4465D02*
X4195Y4465D01*
D02*
X4087Y4346D02*
X4077Y4465D01*
G54D22*
D02*
X2738Y4347D02*
X2734Y4347D01*
G54D20*
D02*
X3146Y2115D02*
X3124Y2108D01*
D02*
X4155Y4094D02*
X4155Y3843D01*
D02*
X4172Y4109D02*
X4333Y4092D01*
G54D22*
D02*
X454Y5057D02*
X454Y5057D01*
D02*
X2280Y5843D02*
X2283Y5843D01*
D02*
X2186Y5843D02*
X2183Y5843D01*
G54D20*
D02*
X1249Y4151D02*
X1588Y4151D01*
D02*
X1249Y3954D02*
X1391Y3954D01*
D02*
X1045Y4151D02*
X1085Y4270D01*
D02*
X1792Y4270D02*
X1792Y4328D01*
D02*
X1085Y4270D02*
X1792Y4270D01*
D02*
X1024Y4100D02*
X1045Y4151D01*
D02*
X1871Y4230D02*
X1889Y4329D01*
D02*
X1124Y4230D02*
X1871Y4230D01*
D02*
X1124Y4151D02*
X1124Y4230D01*
D02*
X1119Y4101D02*
X1124Y4151D01*
D02*
X1793Y3804D02*
X1793Y3985D01*
D02*
X2383Y1001D02*
X2383Y1001D01*
D02*
X2619Y922D02*
X2619Y922D01*
D02*
X2461Y1022D02*
X2462Y1151D01*
D02*
X2220Y940D02*
X2224Y980D01*
D02*
X2316Y940D02*
X2309Y980D01*
D02*
X3881Y4152D02*
X3879Y5352D01*
D02*
X3415Y4151D02*
X3881Y4152D01*
D02*
X3013Y2732D02*
X3013Y2883D01*
D02*
X2942Y2733D02*
X3013Y2732D01*
D02*
X3013Y4152D02*
X3241Y4151D01*
D02*
X3013Y3095D02*
X3013Y4152D01*
G54D21*
D02*
X3093Y2655D02*
X3093Y3008D01*
D02*
X3093Y3008D02*
X2855Y3008D01*
D02*
X2855Y3008D02*
X2855Y4229D01*
D02*
X2855Y4229D02*
X3241Y4229D01*
D02*
X2864Y2655D02*
X3093Y2655D01*
D02*
X3763Y4232D02*
X3415Y4229D01*
D02*
X3779Y5352D02*
X3763Y4232D01*
G54D20*
D02*
X2346Y2891D02*
X2346Y5370D01*
D02*
X1516Y2891D02*
X2346Y2891D01*
D02*
X2346Y5370D02*
X2051Y5371D01*
D02*
X1516Y2833D02*
X1516Y2891D01*
D02*
X689Y5372D02*
X829Y5371D01*
D02*
X690Y3647D02*
X689Y5372D01*
D02*
X689Y2813D02*
X690Y3237D01*
D02*
X1100Y2812D02*
X689Y2813D01*
D02*
X847Y2930D02*
X1203Y2930D01*
D02*
X1203Y2930D02*
X1202Y2833D01*
D02*
X848Y3237D02*
X847Y2930D01*
G54D21*
D02*
X847Y5292D02*
X964Y5292D01*
D02*
X964Y5292D02*
X952Y5352D01*
D02*
X847Y4939D02*
X847Y5292D01*
D02*
X848Y3489D02*
X847Y4939D01*
G54D20*
D02*
X925Y2969D02*
X1281Y2969D01*
D02*
X1281Y2969D02*
X1280Y2833D01*
D02*
X926Y3237D02*
X925Y2969D01*
G54D23*
D02*
X925Y5252D02*
X1044Y5252D01*
D02*
X1044Y5252D02*
X1047Y5352D01*
D02*
X928Y5158D02*
X925Y5252D01*
D02*
X926Y3489D02*
X928Y5158D01*
G54D20*
D02*
X1990Y2733D02*
X2336Y2733D01*
D02*
X1989Y2791D02*
X1990Y2733D01*
D02*
X1910Y2655D02*
X2336Y2655D01*
D02*
X1910Y2791D02*
X1910Y2655D01*
D02*
X1832Y2575D02*
X2336Y2576D01*
D02*
X1830Y2791D02*
X1832Y2575D01*
D02*
X1752Y2498D02*
X2336Y2497D01*
D02*
X1752Y2791D02*
X1752Y2498D01*
D02*
X1674Y2419D02*
X2336Y2418D01*
D02*
X1674Y2791D02*
X1674Y2419D01*
D02*
X2423Y2339D02*
X2421Y5369D01*
D02*
X1596Y2339D02*
X2423Y2339D01*
D02*
X2421Y5369D02*
X2676Y5371D01*
D02*
X1594Y2791D02*
X1596Y2339D01*
D02*
X2186Y3047D02*
X2186Y5216D01*
D02*
X1441Y3047D02*
X2186Y3047D01*
D02*
X2186Y5216D02*
X1912Y5216D01*
D02*
X1912Y5216D02*
X1841Y5354D01*
D02*
X1365Y2832D02*
X1441Y3047D01*
G54D21*
D02*
X2264Y2969D02*
X2264Y5293D01*
D02*
X1477Y2969D02*
X2264Y2969D01*
D02*
X2264Y5293D02*
X1948Y5293D01*
D02*
X1948Y5293D02*
X1936Y5352D01*
D02*
X1443Y2833D02*
X1477Y2969D01*
G54D20*
D02*
X3132Y2577D02*
X3132Y4070D01*
D02*
X3132Y4070D02*
X3327Y4074D01*
D02*
X3327Y4074D02*
X3327Y5370D01*
D02*
X3327Y5370D02*
X3660Y5371D01*
D02*
X2785Y2576D02*
X3132Y2577D01*
D02*
X2580Y4269D02*
X2582Y2891D01*
D02*
X2541Y4308D02*
X2580Y4269D01*
D02*
X2541Y4387D02*
X2541Y4308D01*
D02*
X2580Y4426D02*
X2541Y4387D01*
D02*
X2659Y2495D02*
X2659Y2495D01*
D02*
X2659Y2891D02*
X2659Y2495D01*
D02*
X2582Y2891D02*
X2659Y2891D01*
D02*
X2582Y5134D02*
X2580Y4426D01*
D02*
X2896Y5134D02*
X2582Y5134D01*
D02*
X2895Y5352D02*
X2896Y5134D01*
G54D21*
D02*
X2580Y2814D02*
X2580Y2421D01*
D02*
X2503Y2814D02*
X2580Y2814D01*
D02*
X2580Y2421D02*
X2509Y2419D01*
D02*
X2503Y5252D02*
X2503Y2814D01*
D02*
X2779Y5252D02*
X2503Y5252D01*
D02*
X2792Y5352D02*
X2779Y5252D01*
G54D20*
D02*
X143Y2100D02*
X367Y2103D01*
D02*
X525Y2119D02*
X529Y2110D01*
D02*
X143Y2100D02*
X140Y1827D01*
D02*
X140Y1827D02*
X317Y1830D01*
G54D21*
D02*
X456Y4113D02*
X394Y4095D01*
D02*
X4195Y2222D02*
X4194Y2371D01*
G54D20*
D02*
X4115Y1552D02*
X4372Y1532D01*
D02*
X4114Y2095D02*
X4115Y1552D01*
G54D21*
D02*
X4193Y1829D02*
X4194Y2017D01*
D02*
X4372Y1831D02*
X4193Y1829D01*
D02*
X4194Y2151D02*
X4195Y2222D01*
D02*
X4548Y2621D02*
X4549Y2387D01*
D02*
X455Y1553D02*
X355Y1534D01*
G54D20*
D02*
X1006Y3401D02*
X1014Y3462D01*
D02*
X541Y3403D02*
X1006Y3401D01*
D02*
X3958Y3837D02*
X3958Y3837D01*
G54D21*
D02*
X3840Y3758D02*
X3840Y3758D01*
D02*
X4076Y3758D02*
X4087Y4346D01*
D02*
X4087Y4346D02*
X4333Y4387D01*
D02*
X4005Y3757D02*
X4076Y3758D01*
D02*
X453Y3323D02*
X453Y3323D01*
G54D22*
D02*
X1084Y3323D02*
X580Y3324D01*
D02*
X1113Y3462D02*
X1084Y3323D01*
G54D20*
D02*
X4314Y2771D02*
X4314Y2419D01*
D02*
X4314Y2419D02*
X4389Y2419D01*
D02*
X4389Y2419D02*
X4391Y2308D01*
D02*
X4372Y2772D02*
X4314Y2771D01*
D02*
X4235Y2450D02*
X4271Y2308D01*
D02*
X4084Y2615D02*
X4226Y2615D01*
D02*
X769Y2899D02*
X769Y3040D01*
D02*
X580Y3560D02*
X761Y3560D01*
D02*
X375Y3568D02*
X375Y3971D01*
D02*
X4084Y2536D02*
X4226Y2536D01*
D02*
X532Y3401D02*
X532Y3401D01*
D02*
X368Y3401D02*
X219Y3364D01*
D02*
X179Y3757D02*
X178Y4388D01*
D02*
X219Y3364D02*
X179Y3757D01*
D02*
X178Y4388D02*
X356Y4390D01*
D02*
X3656Y3279D02*
X4648Y3284D01*
G54D21*
D02*
X2541Y1278D02*
X2540Y1022D01*
D02*
X1949Y1278D02*
X2541Y1278D01*
D02*
X1920Y940D02*
X1949Y1278D01*
G54D20*
D02*
X4114Y2095D02*
X4486Y2091D01*
D02*
X3146Y2115D02*
X4114Y2095D01*
D02*
X4486Y2091D02*
X4470Y2922D01*
D02*
X3119Y940D02*
X3146Y2115D01*
D02*
X4628Y2733D02*
X4627Y2922D01*
D02*
X4648Y2733D02*
X4628Y2733D01*
G54D21*
D02*
X4549Y3009D02*
X3407Y3009D01*
D02*
X4548Y2621D02*
X4549Y3009D01*
D02*
X3407Y3009D02*
X3405Y3756D01*
D02*
X3405Y3756D02*
X3840Y3758D01*
D02*
X3840Y3758D02*
X3843Y3935D01*
D02*
X4648Y2631D02*
X4548Y2621D01*
G54D20*
D02*
X3958Y3837D02*
X3945Y3935D01*
D02*
X3920Y3678D02*
X3958Y3837D01*
D02*
X3487Y3678D02*
X3920Y3678D01*
D02*
X3487Y3047D02*
X3487Y3678D01*
D02*
X4668Y3047D02*
X3487Y3047D01*
D02*
X4667Y2752D02*
X4668Y3047D01*
D02*
X295Y961D02*
X197Y946D01*
D02*
X1635Y843D02*
X1635Y961D01*
D02*
X1635Y961D02*
X295Y961D01*
D02*
X3133Y843D02*
X1635Y843D01*
D02*
X3122Y905D02*
X3133Y843D01*
D02*
X532Y3678D02*
X533Y4969D01*
D02*
X493Y3639D02*
X532Y3678D01*
D02*
X493Y3520D02*
X493Y3639D01*
D02*
X532Y3401D02*
X493Y3520D01*
D02*
X493Y3284D02*
X532Y3401D01*
D02*
X525Y2119D02*
X493Y3284D01*
D02*
X2578Y2087D02*
X525Y2119D01*
D02*
X3146Y2115D02*
X2578Y2087D01*
G54D23*
D02*
X258Y4976D02*
X197Y4963D01*
D02*
X367Y4977D02*
X258Y4976D01*
G54D21*
D02*
X1870Y1119D02*
X1714Y1119D01*
D02*
X1714Y1119D02*
X1714Y1041D01*
D02*
X1714Y1041D02*
X452Y1039D01*
D02*
X452Y1039D02*
X197Y1043D01*
D02*
X453Y3323D02*
X456Y4113D01*
D02*
X452Y1039D02*
X455Y1553D01*
D02*
X455Y1553D02*
X453Y3323D01*
D02*
X456Y4113D02*
X454Y5057D01*
D02*
X454Y5057D02*
X197Y5059D01*
D02*
X1949Y1278D02*
X1870Y1119D01*
G54D20*
D02*
X3053Y1081D02*
X2659Y1080D01*
D02*
X2659Y1080D02*
X2629Y1020D01*
D02*
X3112Y939D02*
X3053Y1081D01*
G04 End of Copper1*
M02*