G04 MADE WITH FRITZING*
G04 WWW.FRITZING.ORG*
G04 DOUBLE SIDED*
G04 HOLES PLATED*
G04 CONTOUR ON CENTER OF CONTOUR VECTOR*
%ASAXBY*%
%FSLAX23Y23*%
%MOIN*%
%OFA0B0*%
%SFA1.0B1.0*%
%ADD10C,0.039370*%
%ADD11C,0.075000*%
%ADD12C,0.054331*%
%ADD13C,0.050394*%
%ADD14C,0.078000*%
%ADD15C,0.066000*%
%ADD16C,0.070000*%
%ADD17R,0.078000X0.078000*%
%ADD18R,0.070000X0.069972*%
%ADD19C,0.032000*%
%ADD20C,0.016000*%
%ADD21C,0.024000*%
%ADD22C,0.012000*%
%ADD23R,0.001000X0.001000*%
%LNCOPPER0*%
G90*
G70*
G54D10*
X4470Y3206D03*
X4115Y3206D03*
G54D11*
X1202Y3481D03*
X2659Y765D03*
X2226Y332D03*
X4352Y4293D03*
G54D10*
X848Y4938D03*
G54D11*
X178Y2969D03*
X1793Y3363D03*
X60Y3048D03*
X1911Y3481D03*
X454Y5056D03*
X1596Y4347D03*
X533Y4977D03*
X1693Y4347D03*
G54D10*
X3761Y1513D03*
X3682Y1513D03*
X3604Y1513D03*
X3525Y1513D03*
G54D11*
X390Y4190D03*
X2344Y410D03*
X193Y4741D03*
X2029Y410D03*
X2831Y4347D03*
X4155Y4111D03*
X2738Y4347D03*
X4312Y4662D03*
X3107Y2103D03*
X2280Y5843D03*
X454Y5056D03*
X2186Y5843D03*
G54D10*
X1399Y3954D03*
X1241Y3954D03*
X1596Y4151D03*
X1241Y4151D03*
G54D11*
X1714Y4072D03*
X3446Y4387D03*
X1596Y3599D03*
X3486Y4072D03*
X769Y4347D03*
X2344Y5725D03*
X1911Y4072D03*
X2462Y5686D03*
G54D10*
X1793Y3796D03*
X1793Y3993D03*
X2462Y1158D03*
G54D11*
X2541Y725D03*
X1320Y3481D03*
X2383Y1001D03*
X2619Y922D03*
G54D10*
X3407Y4229D03*
X3407Y4151D03*
X3249Y4229D03*
X3249Y4151D03*
X3013Y3088D03*
X3013Y2891D03*
X926Y3481D03*
X926Y3245D03*
X848Y3481D03*
X848Y3245D03*
X690Y3639D03*
X690Y3245D03*
X2344Y2418D03*
X2501Y2418D03*
X2659Y2497D03*
X2344Y2497D03*
X2777Y2576D03*
X2856Y2654D03*
X2934Y2733D03*
X2344Y2733D03*
X2344Y2654D03*
X2344Y2576D03*
X375Y2103D03*
X533Y2103D03*
X4549Y2379D03*
X4194Y2379D03*
X4194Y2025D03*
X4194Y2143D03*
X3997Y3757D03*
X3840Y3757D03*
X4155Y3836D03*
X3958Y3836D03*
X572Y3324D03*
X454Y3324D03*
X4391Y2300D03*
X4273Y2300D03*
X4234Y2458D03*
X4076Y2615D03*
X4234Y2615D03*
X4234Y2536D03*
X4076Y2536D03*
X375Y3560D03*
X572Y3560D03*
X769Y3560D03*
X769Y3048D03*
X769Y2891D03*
X375Y3403D03*
X533Y3403D03*
G54D12*
X4391Y2537D03*
X4391Y2615D03*
X4391Y2694D03*
X4391Y2773D03*
X3772Y2537D03*
X3772Y2615D03*
X3772Y2694D03*
X3772Y2773D03*
X3636Y3200D03*
X3636Y3278D03*
G54D13*
X1121Y2812D03*
X1201Y2812D03*
X1279Y2812D03*
X2619Y1001D03*
X2540Y1001D03*
X2461Y1001D03*
X2383Y1001D03*
X2305Y1001D03*
X2226Y1001D03*
X1358Y2812D03*
X1438Y2812D03*
X1516Y2812D03*
X1594Y2812D03*
X1674Y2812D03*
X1752Y2812D03*
X1830Y2812D03*
X1910Y2812D03*
X1988Y2812D03*
G54D14*
X3943Y3954D03*
X3843Y3954D03*
X3743Y3954D03*
X3643Y3954D03*
X3943Y3954D03*
X3843Y3954D03*
X3743Y3954D03*
X3643Y3954D03*
X3234Y3954D03*
X3334Y3954D03*
X3434Y3954D03*
X3534Y3954D03*
G54D10*
X4627Y2930D03*
X4470Y2930D03*
G54D14*
X178Y1043D03*
X178Y943D03*
X178Y843D03*
X178Y5059D03*
X178Y4959D03*
X178Y4859D03*
G54D10*
X375Y4977D03*
X533Y4977D03*
G54D14*
X4667Y3184D03*
X4667Y3284D03*
X4667Y2633D03*
X4667Y2733D03*
X336Y1931D03*
X336Y1831D03*
X336Y1731D03*
X336Y1631D03*
X336Y1531D03*
X336Y1431D03*
X375Y4490D03*
X375Y4390D03*
X375Y4290D03*
X375Y4190D03*
X375Y4090D03*
X375Y3990D03*
X4391Y1931D03*
X4391Y1831D03*
X4391Y1731D03*
X4391Y1631D03*
X4391Y1531D03*
X4391Y1431D03*
X4352Y4490D03*
X4352Y4390D03*
X4352Y4290D03*
X4352Y4190D03*
X4352Y4090D03*
X4352Y3990D03*
G54D15*
X2117Y4081D03*
X2017Y4081D03*
X1917Y4081D03*
X1817Y4081D03*
X1717Y4081D03*
X1617Y4081D03*
X1517Y4081D03*
X1417Y4081D03*
X1317Y4081D03*
X1217Y4081D03*
X1117Y4081D03*
X1017Y4081D03*
X1017Y3481D03*
X1117Y3481D03*
X1217Y3481D03*
X1317Y3481D03*
X1417Y3481D03*
X1517Y3481D03*
X1617Y3481D03*
X1717Y3481D03*
X1817Y3481D03*
X1917Y3481D03*
X2017Y3481D03*
X2117Y3481D03*
G54D16*
X1819Y322D03*
X1919Y322D03*
X2019Y322D03*
X2119Y322D03*
X2219Y322D03*
X2319Y322D03*
X2419Y322D03*
X2519Y322D03*
X2619Y322D03*
X2719Y322D03*
X2819Y322D03*
X2919Y322D03*
X3019Y322D03*
X3119Y322D03*
X3219Y322D03*
X1819Y922D03*
X1919Y922D03*
X2019Y922D03*
X2119Y922D03*
X2219Y922D03*
X2319Y922D03*
X2419Y922D03*
X2519Y922D03*
X2619Y922D03*
X2719Y922D03*
X2819Y922D03*
X2919Y922D03*
X3019Y922D03*
X3119Y922D03*
X3219Y922D03*
G54D14*
X1493Y4347D03*
X1593Y4347D03*
X1693Y4347D03*
X1793Y4347D03*
X1893Y4347D03*
X1993Y4347D03*
X2093Y4347D03*
X2083Y5843D03*
X2183Y5843D03*
X2283Y5843D03*
X2383Y5843D03*
X2483Y5843D03*
X2583Y5843D03*
X2683Y5843D03*
X2634Y4347D03*
X2734Y4347D03*
X2834Y4347D03*
X2934Y4347D03*
X3034Y4347D03*
X3134Y4347D03*
X3234Y4347D03*
X60Y2748D03*
X60Y2848D03*
X60Y2948D03*
X60Y3048D03*
X60Y3148D03*
X60Y3248D03*
X3382Y5843D03*
X3482Y5843D03*
X3582Y5843D03*
X3682Y5843D03*
X3782Y5843D03*
X3882Y5843D03*
X863Y5843D03*
X963Y5843D03*
X1063Y5843D03*
X1163Y5843D03*
X1263Y5843D03*
X1363Y5843D03*
X1048Y5371D03*
X948Y5371D03*
X848Y5371D03*
X2032Y5371D03*
X1932Y5371D03*
X1832Y5371D03*
X2695Y5371D03*
X2795Y5371D03*
X2895Y5371D03*
X3679Y5371D03*
X3779Y5371D03*
X3879Y5371D03*
G54D17*
X178Y1043D03*
X178Y5059D03*
X4667Y3184D03*
X4667Y2633D03*
G54D18*
X1819Y322D03*
G54D19*
X3658Y3201D02*
X4108Y3206D01*
G54D20*
D02*
X1556Y4229D02*
X1590Y4331D01*
D02*
X2738Y4229D02*
X1556Y4229D01*
D02*
X2735Y4328D02*
X2738Y4229D01*
G54D21*
D02*
X2531Y740D02*
X2428Y907D01*
D02*
X2531Y909D02*
X2647Y778D01*
G54D22*
D02*
X1822Y340D02*
X1833Y409D01*
D02*
X1833Y409D02*
X2011Y410D01*
D02*
X4154Y5844D02*
X3901Y5844D01*
D02*
X4155Y4129D02*
X4154Y5844D01*
D02*
X3761Y1521D02*
X3772Y2517D01*
D02*
X3683Y2614D02*
X3753Y2615D01*
D02*
X3682Y1521D02*
X3683Y2614D01*
D02*
X3602Y2694D02*
X3753Y2694D01*
D02*
X3525Y2772D02*
X3753Y2772D01*
D02*
X3525Y1521D02*
X3525Y2772D01*
G54D21*
D02*
X390Y4190D02*
X375Y4190D01*
G54D22*
D02*
X2856Y3874D02*
X3028Y4330D01*
D02*
X1321Y3874D02*
X2856Y3874D01*
D02*
X1317Y4062D02*
X1321Y3874D01*
D02*
X2815Y3953D02*
X2929Y4329D01*
D02*
X1635Y3953D02*
X1714Y3914D01*
D02*
X1714Y3914D02*
X1833Y3914D01*
D02*
X1833Y3914D02*
X1911Y3953D01*
D02*
X1911Y3953D02*
X2815Y3953D01*
D02*
X1407Y3954D02*
X1635Y3953D01*
D02*
X1221Y4062D02*
X1240Y3961D01*
D02*
X1398Y5294D02*
X688Y5294D01*
D02*
X688Y5294D02*
X688Y5684D01*
D02*
X688Y5684D02*
X1161Y5684D01*
D02*
X1161Y5684D02*
X1163Y5824D01*
D02*
X1417Y4101D02*
X1398Y5294D01*
D02*
X1241Y4158D02*
X1240Y5215D01*
D02*
X1240Y5215D02*
X610Y5215D01*
D02*
X610Y5215D02*
X610Y5763D01*
D02*
X610Y5763D02*
X1045Y5763D01*
D02*
X1045Y5763D02*
X1059Y5825D01*
D02*
X1532Y4094D02*
X1590Y4145D01*
D02*
X4075Y5766D02*
X3683Y5764D01*
D02*
X3683Y5764D02*
X3683Y5824D01*
D02*
X4076Y4073D02*
X4075Y5766D01*
D02*
X3503Y4072D02*
X4076Y4073D01*
G54D21*
D02*
X1714Y4072D02*
X1717Y4081D01*
G54D22*
D02*
X3998Y5647D02*
X3605Y5646D01*
D02*
X3605Y5646D02*
X3585Y5825D01*
D02*
X3999Y4386D02*
X3998Y5647D01*
D02*
X3464Y4387D02*
X3999Y4386D01*
D02*
X2481Y5825D02*
X2464Y5703D01*
G54D21*
D02*
X1911Y4072D02*
X1917Y4081D01*
G54D22*
D02*
X769Y3796D02*
X769Y4330D01*
D02*
X1785Y3796D02*
X769Y3796D01*
D02*
X1812Y4062D02*
X1795Y4001D01*
D02*
X2349Y5742D02*
X2377Y5825D01*
G54D21*
D02*
X1317Y3481D02*
X1320Y3481D01*
D02*
X3724Y3483D02*
X3742Y3935D01*
D02*
X2137Y3481D02*
X3724Y3483D01*
D02*
X2027Y3558D02*
X3605Y3558D01*
D02*
X3605Y3558D02*
X3641Y3935D01*
D02*
X2020Y3501D02*
X2027Y3558D01*
G54D22*
D02*
X2698Y1159D02*
X2717Y940D01*
D02*
X2470Y1158D02*
X2698Y1159D01*
G54D19*
D02*
X3257Y4229D02*
X3399Y4229D01*
G54D22*
D02*
X3257Y4151D02*
X3399Y4151D01*
D02*
X3013Y2899D02*
X3013Y3080D01*
D02*
X926Y3253D02*
X926Y3473D01*
D02*
X848Y3253D02*
X848Y3473D01*
D02*
X690Y3253D02*
X690Y3631D01*
D02*
X2352Y2733D02*
X2926Y2733D01*
D02*
X2352Y2654D02*
X2848Y2654D01*
D02*
X2352Y2576D02*
X2769Y2576D01*
D02*
X2352Y2497D02*
X2651Y2497D01*
D02*
X2352Y2418D02*
X2493Y2418D01*
D02*
X383Y2103D02*
X525Y2103D01*
G54D19*
D02*
X4541Y2379D02*
X4202Y2379D01*
D02*
X4194Y2032D02*
X4194Y2135D01*
D02*
X3848Y3757D02*
X3989Y3757D01*
G54D22*
D02*
X3966Y3836D02*
X4147Y3836D01*
G54D19*
D02*
X462Y3324D02*
X564Y3324D01*
G54D22*
D02*
X4391Y2292D02*
X4391Y1950D01*
D02*
X4271Y1433D02*
X4372Y1431D01*
D02*
X4273Y2292D02*
X4271Y1433D01*
D02*
X4155Y2458D02*
X4155Y2693D01*
D02*
X4155Y2693D02*
X4372Y2694D01*
D02*
X4226Y2458D02*
X4155Y2458D01*
D02*
X4234Y2850D02*
X4234Y4505D01*
D02*
X4392Y2850D02*
X4234Y2850D01*
D02*
X4234Y4505D02*
X4333Y4492D01*
D02*
X4391Y2792D02*
X4392Y2850D01*
D02*
X4352Y2931D02*
X4352Y3971D01*
D02*
X4470Y2850D02*
X4352Y2931D01*
D02*
X4470Y2695D02*
X4470Y2850D01*
D02*
X4410Y2694D02*
X4470Y2695D01*
D02*
X3722Y2851D02*
X3801Y2851D01*
D02*
X3801Y2851D02*
X3840Y2812D01*
D02*
X3722Y2812D02*
X3722Y2851D01*
D02*
X3840Y2812D02*
X4076Y2812D01*
D02*
X2068Y2813D02*
X3722Y2812D01*
D02*
X4076Y2812D02*
X4076Y2623D01*
D02*
X2068Y2971D02*
X2068Y2813D01*
D02*
X611Y2970D02*
X2068Y2971D01*
D02*
X651Y3284D02*
X611Y2970D01*
D02*
X612Y4467D02*
X651Y3284D01*
D02*
X394Y4488D02*
X612Y4467D01*
D02*
X612Y2065D02*
X353Y1939D01*
D02*
X611Y2970D02*
X612Y2065D01*
D02*
X4371Y2615D02*
X4241Y2615D01*
D02*
X4241Y2536D02*
X4372Y2537D01*
D02*
X801Y1444D02*
X3880Y1435D01*
D02*
X3880Y1435D02*
X3880Y2537D01*
D02*
X3880Y2537D02*
X4068Y2536D01*
D02*
X355Y1431D02*
X801Y1444D01*
D02*
X383Y3560D02*
X564Y3560D01*
D02*
X769Y3056D02*
X769Y3552D01*
D02*
X801Y1444D02*
X769Y2883D01*
D02*
X525Y3403D02*
X383Y3403D01*
D02*
X4478Y2930D02*
X4619Y2930D01*
G54D20*
D02*
X383Y4977D02*
X525Y4977D01*
G54D23*
X3601Y2701D02*
X3604Y2701D01*
X3599Y2700D02*
X3606Y2700D01*
X3598Y2699D02*
X3607Y2699D01*
X3598Y2698D02*
X3607Y2698D01*
X3597Y2697D02*
X3608Y2697D01*
X3597Y2696D02*
X3608Y2696D01*
X3597Y2695D02*
X3608Y2695D01*
X3597Y2694D02*
X3608Y2694D01*
X3597Y2693D02*
X3608Y2693D01*
X3597Y2692D02*
X3608Y2692D01*
X3597Y2691D02*
X3608Y2691D01*
X3597Y2690D02*
X3608Y2690D01*
X3597Y2689D02*
X3608Y2689D01*
X3597Y2688D02*
X3608Y2688D01*
X3597Y2687D02*
X3608Y2687D01*
X3597Y2686D02*
X3608Y2686D01*
X3597Y2685D02*
X3608Y2685D01*
X3597Y2684D02*
X3608Y2684D01*
X3597Y2683D02*
X3608Y2683D01*
X3597Y2682D02*
X3608Y2682D01*
X3597Y2681D02*
X3608Y2681D01*
X3597Y2680D02*
X3608Y2680D01*
X3597Y2679D02*
X3608Y2679D01*
X3597Y2678D02*
X3608Y2678D01*
X3597Y2677D02*
X3608Y2677D01*
X3597Y2676D02*
X3608Y2676D01*
X3597Y2675D02*
X3608Y2675D01*
X3597Y2674D02*
X3608Y2674D01*
X3597Y2673D02*
X3608Y2673D01*
X3597Y2672D02*
X3608Y2672D01*
X3597Y2671D02*
X3608Y2671D01*
X3597Y2670D02*
X3608Y2670D01*
X3597Y2669D02*
X3608Y2669D01*
X3597Y2668D02*
X3608Y2668D01*
X3597Y2667D02*
X3608Y2667D01*
X3597Y2666D02*
X3608Y2666D01*
X3597Y2665D02*
X3608Y2665D01*
X3597Y2664D02*
X3608Y2664D01*
X3597Y2663D02*
X3608Y2663D01*
X3597Y2662D02*
X3608Y2662D01*
X3597Y2661D02*
X3608Y2661D01*
X3597Y2660D02*
X3608Y2660D01*
X3597Y2659D02*
X3608Y2659D01*
X3597Y2658D02*
X3608Y2658D01*
X3597Y2657D02*
X3608Y2657D01*
X3597Y2656D02*
X3608Y2656D01*
X3597Y2655D02*
X3608Y2655D01*
X3597Y2654D02*
X3608Y2654D01*
X3597Y2653D02*
X3608Y2653D01*
X3597Y2652D02*
X3608Y2652D01*
X3597Y2651D02*
X3608Y2651D01*
X3597Y2650D02*
X3608Y2650D01*
X3597Y2649D02*
X3608Y2649D01*
X3597Y2648D02*
X3608Y2648D01*
X3597Y2647D02*
X3608Y2647D01*
X3597Y2646D02*
X3608Y2646D01*
X3597Y2645D02*
X3608Y2645D01*
X3597Y2644D02*
X3608Y2644D01*
X3597Y2643D02*
X3608Y2643D01*
X3597Y2642D02*
X3608Y2642D01*
X3597Y2641D02*
X3608Y2641D01*
X3597Y2640D02*
X3608Y2640D01*
X3597Y2639D02*
X3608Y2639D01*
X3597Y2638D02*
X3608Y2638D01*
X3597Y2637D02*
X3608Y2637D01*
X3597Y2636D02*
X3608Y2636D01*
X3597Y2635D02*
X3608Y2635D01*
X3597Y2634D02*
X3608Y2634D01*
X3597Y2633D02*
X3608Y2633D01*
X3597Y2632D02*
X3608Y2632D01*
X3597Y2631D02*
X3608Y2631D01*
X3597Y2630D02*
X3608Y2630D01*
X3597Y2629D02*
X3608Y2629D01*
X3597Y2628D02*
X3608Y2628D01*
X3597Y2627D02*
X3608Y2627D01*
X3597Y2626D02*
X3608Y2626D01*
X3597Y2625D02*
X3608Y2625D01*
X3597Y2624D02*
X3608Y2624D01*
X3597Y2623D02*
X3608Y2623D01*
X3597Y2622D02*
X3608Y2622D01*
X3597Y2621D02*
X3608Y2621D01*
X3597Y2620D02*
X3608Y2620D01*
X3597Y2619D02*
X3608Y2619D01*
X3597Y2618D02*
X3608Y2618D01*
X3597Y2617D02*
X3608Y2617D01*
X3597Y2616D02*
X3608Y2616D01*
X3597Y2615D02*
X3608Y2615D01*
X3597Y2614D02*
X3608Y2614D01*
X3597Y2613D02*
X3608Y2613D01*
X3597Y2612D02*
X3608Y2612D01*
X3597Y2611D02*
X3608Y2611D01*
X3597Y2610D02*
X3608Y2610D01*
X3597Y2609D02*
X3608Y2609D01*
X3597Y2608D02*
X3608Y2608D01*
X3597Y2607D02*
X3608Y2607D01*
X3597Y2606D02*
X3608Y2606D01*
X3597Y2605D02*
X3608Y2605D01*
X3597Y2604D02*
X3608Y2604D01*
X3597Y2603D02*
X3608Y2603D01*
X3597Y2602D02*
X3608Y2602D01*
X3597Y2601D02*
X3608Y2601D01*
X3597Y2600D02*
X3608Y2600D01*
X3597Y2599D02*
X3608Y2599D01*
X3597Y2598D02*
X3608Y2598D01*
X3597Y2597D02*
X3608Y2597D01*
X3597Y2596D02*
X3608Y2596D01*
X3597Y2595D02*
X3608Y2595D01*
X3597Y2594D02*
X3608Y2594D01*
X3597Y2593D02*
X3608Y2593D01*
X3597Y2592D02*
X3608Y2592D01*
X3597Y2591D02*
X3608Y2591D01*
X3597Y2590D02*
X3608Y2590D01*
X3597Y2589D02*
X3608Y2589D01*
X3597Y2588D02*
X3608Y2588D01*
X3597Y2587D02*
X3608Y2587D01*
X3597Y2586D02*
X3608Y2586D01*
X3597Y2585D02*
X3608Y2585D01*
X3597Y2584D02*
X3608Y2584D01*
X3597Y2583D02*
X3608Y2583D01*
X3597Y2582D02*
X3608Y2582D01*
X3597Y2581D02*
X3608Y2581D01*
X3597Y2580D02*
X3608Y2580D01*
X3597Y2579D02*
X3608Y2579D01*
X3597Y2578D02*
X3608Y2578D01*
X3597Y2577D02*
X3608Y2577D01*
X3597Y2576D02*
X3608Y2576D01*
X3597Y2575D02*
X3608Y2575D01*
X3597Y2574D02*
X3608Y2574D01*
X3597Y2573D02*
X3608Y2573D01*
X3597Y2572D02*
X3608Y2572D01*
X3597Y2571D02*
X3608Y2571D01*
X3597Y2570D02*
X3608Y2570D01*
X3597Y2569D02*
X3608Y2569D01*
X3597Y2568D02*
X3608Y2568D01*
X3597Y2567D02*
X3608Y2567D01*
X3597Y2566D02*
X3608Y2566D01*
X3597Y2565D02*
X3608Y2565D01*
X3597Y2564D02*
X3608Y2564D01*
X3597Y2563D02*
X3608Y2563D01*
X3597Y2562D02*
X3608Y2562D01*
X3597Y2561D02*
X3608Y2561D01*
X3597Y2560D02*
X3608Y2560D01*
X3597Y2559D02*
X3608Y2559D01*
X3597Y2558D02*
X3608Y2558D01*
X3597Y2557D02*
X3608Y2557D01*
X3597Y2556D02*
X3608Y2556D01*
X3597Y2555D02*
X3608Y2555D01*
X3597Y2554D02*
X3608Y2554D01*
X3597Y2553D02*
X3608Y2553D01*
X3597Y2552D02*
X3608Y2552D01*
X3597Y2551D02*
X3608Y2551D01*
X3597Y2550D02*
X3608Y2550D01*
X3597Y2549D02*
X3608Y2549D01*
X3597Y2548D02*
X3608Y2548D01*
X3597Y2547D02*
X3608Y2547D01*
X3597Y2546D02*
X3608Y2546D01*
X3597Y2545D02*
X3608Y2545D01*
X3597Y2544D02*
X3608Y2544D01*
X3597Y2543D02*
X3608Y2543D01*
X3597Y2542D02*
X3608Y2542D01*
X3597Y2541D02*
X3608Y2541D01*
X3597Y2540D02*
X3608Y2540D01*
X3597Y2539D02*
X3608Y2539D01*
X3597Y2538D02*
X3608Y2538D01*
X3597Y2537D02*
X3608Y2537D01*
X3597Y2536D02*
X3608Y2536D01*
X3597Y2535D02*
X3608Y2535D01*
X3597Y2534D02*
X3608Y2534D01*
X3597Y2533D02*
X3608Y2533D01*
X3597Y2532D02*
X3608Y2532D01*
X3597Y2531D02*
X3608Y2531D01*
X3597Y2530D02*
X3608Y2530D01*
X3597Y2529D02*
X3608Y2529D01*
X3597Y2528D02*
X3608Y2528D01*
X3597Y2527D02*
X3608Y2527D01*
X3597Y2526D02*
X3608Y2526D01*
X3597Y2525D02*
X3608Y2525D01*
X3597Y2524D02*
X3608Y2524D01*
X3597Y2523D02*
X3608Y2523D01*
X3597Y2522D02*
X3608Y2522D01*
X3597Y2521D02*
X3608Y2521D01*
X3597Y2520D02*
X3608Y2520D01*
X3597Y2519D02*
X3608Y2519D01*
X3597Y2518D02*
X3608Y2518D01*
X3597Y2517D02*
X3608Y2517D01*
X3597Y2516D02*
X3608Y2516D01*
X3597Y2515D02*
X3608Y2515D01*
X3597Y2514D02*
X3608Y2514D01*
X3597Y2513D02*
X3608Y2513D01*
X3597Y2512D02*
X3608Y2512D01*
X3597Y2511D02*
X3608Y2511D01*
X3597Y2510D02*
X3608Y2510D01*
X3597Y2509D02*
X3608Y2509D01*
X3597Y2508D02*
X3608Y2508D01*
X3597Y2507D02*
X3608Y2507D01*
X3597Y2506D02*
X3608Y2506D01*
X3597Y2505D02*
X3608Y2505D01*
X3597Y2504D02*
X3608Y2504D01*
X3597Y2503D02*
X3608Y2503D01*
X3597Y2502D02*
X3608Y2502D01*
X3597Y2501D02*
X3608Y2501D01*
X3597Y2500D02*
X3608Y2500D01*
X3597Y2499D02*
X3608Y2499D01*
X3597Y2498D02*
X3608Y2498D01*
X3597Y2497D02*
X3608Y2497D01*
X3597Y2496D02*
X3608Y2496D01*
X3597Y2495D02*
X3608Y2495D01*
X3597Y2494D02*
X3608Y2494D01*
X3597Y2493D02*
X3608Y2493D01*
X3597Y2492D02*
X3608Y2492D01*
X3597Y2491D02*
X3608Y2491D01*
X3597Y2490D02*
X3608Y2490D01*
X3597Y2489D02*
X3608Y2489D01*
X3597Y2488D02*
X3608Y2488D01*
X3597Y2487D02*
X3608Y2487D01*
X3597Y2486D02*
X3608Y2486D01*
X3597Y2485D02*
X3608Y2485D01*
X3597Y2484D02*
X3608Y2484D01*
X3597Y2483D02*
X3608Y2483D01*
X3597Y2482D02*
X3608Y2482D01*
X3597Y2481D02*
X3608Y2481D01*
X3597Y2480D02*
X3608Y2480D01*
X3597Y2479D02*
X3608Y2479D01*
X3597Y2478D02*
X3608Y2478D01*
X3597Y2477D02*
X3608Y2477D01*
X3597Y2476D02*
X3608Y2476D01*
X3597Y2475D02*
X3608Y2475D01*
X3597Y2474D02*
X3608Y2474D01*
X3597Y2473D02*
X3608Y2473D01*
X3597Y2472D02*
X3608Y2472D01*
X3597Y2471D02*
X3608Y2471D01*
X3597Y2470D02*
X3608Y2470D01*
X3597Y2469D02*
X3608Y2469D01*
X3597Y2468D02*
X3608Y2468D01*
X3597Y2467D02*
X3608Y2467D01*
X3597Y2466D02*
X3608Y2466D01*
X3597Y2465D02*
X3608Y2465D01*
X3597Y2464D02*
X3608Y2464D01*
X3597Y2463D02*
X3608Y2463D01*
X3597Y2462D02*
X3608Y2462D01*
X3597Y2461D02*
X3608Y2461D01*
X3597Y2460D02*
X3608Y2460D01*
X3597Y2459D02*
X3608Y2459D01*
X3597Y2458D02*
X3608Y2458D01*
X3597Y2457D02*
X3608Y2457D01*
X3597Y2456D02*
X3608Y2456D01*
X3597Y2455D02*
X3608Y2455D01*
X3597Y2454D02*
X3608Y2454D01*
X3597Y2453D02*
X3608Y2453D01*
X3597Y2452D02*
X3608Y2452D01*
X3597Y2451D02*
X3608Y2451D01*
X3597Y2450D02*
X3608Y2450D01*
X3597Y2449D02*
X3608Y2449D01*
X3597Y2448D02*
X3608Y2448D01*
X3597Y2447D02*
X3608Y2447D01*
X3597Y2446D02*
X3608Y2446D01*
X3597Y2445D02*
X3608Y2445D01*
X3597Y2444D02*
X3608Y2444D01*
X3597Y2443D02*
X3608Y2443D01*
X3597Y2442D02*
X3608Y2442D01*
X3597Y2441D02*
X3608Y2441D01*
X3597Y2440D02*
X3608Y2440D01*
X3597Y2439D02*
X3608Y2439D01*
X3597Y2438D02*
X3608Y2438D01*
X3597Y2437D02*
X3608Y2437D01*
X3597Y2436D02*
X3608Y2436D01*
X3597Y2435D02*
X3608Y2435D01*
X3597Y2434D02*
X3608Y2434D01*
X3597Y2433D02*
X3608Y2433D01*
X3597Y2432D02*
X3608Y2432D01*
X3597Y2431D02*
X3608Y2431D01*
X3597Y2430D02*
X3608Y2430D01*
X3597Y2429D02*
X3608Y2429D01*
X3597Y2428D02*
X3608Y2428D01*
X3597Y2427D02*
X3608Y2427D01*
X3597Y2426D02*
X3608Y2426D01*
X3597Y2425D02*
X3608Y2425D01*
X3597Y2424D02*
X3608Y2424D01*
X3597Y2423D02*
X3608Y2423D01*
X3597Y2422D02*
X3608Y2422D01*
X3597Y2421D02*
X3608Y2421D01*
X3597Y2420D02*
X3608Y2420D01*
X3597Y2419D02*
X3608Y2419D01*
X3597Y2418D02*
X3608Y2418D01*
X3597Y2417D02*
X3608Y2417D01*
X3597Y2416D02*
X3608Y2416D01*
X3597Y2415D02*
X3608Y2415D01*
X3597Y2414D02*
X3608Y2414D01*
X3597Y2413D02*
X3608Y2413D01*
X3597Y2412D02*
X3608Y2412D01*
X3597Y2411D02*
X3608Y2411D01*
X3597Y2410D02*
X3608Y2410D01*
X3597Y2409D02*
X3608Y2409D01*
X3597Y2408D02*
X3608Y2408D01*
X3597Y2407D02*
X3608Y2407D01*
X3597Y2406D02*
X3608Y2406D01*
X3597Y2405D02*
X3608Y2405D01*
X3597Y2404D02*
X3608Y2404D01*
X3597Y2403D02*
X3608Y2403D01*
X3597Y2402D02*
X3608Y2402D01*
X3597Y2401D02*
X3608Y2401D01*
X3597Y2400D02*
X3608Y2400D01*
X3597Y2399D02*
X3608Y2399D01*
X3597Y2398D02*
X3608Y2398D01*
X3597Y2397D02*
X3608Y2397D01*
X3597Y2396D02*
X3608Y2396D01*
X3597Y2395D02*
X3608Y2395D01*
X3597Y2394D02*
X3608Y2394D01*
X3597Y2393D02*
X3608Y2393D01*
X3597Y2392D02*
X3608Y2392D01*
X3597Y2391D02*
X3608Y2391D01*
X3597Y2390D02*
X3608Y2390D01*
X3597Y2389D02*
X3608Y2389D01*
X3597Y2388D02*
X3608Y2388D01*
X3597Y2387D02*
X3608Y2387D01*
X3597Y2386D02*
X3608Y2386D01*
X3597Y2385D02*
X3608Y2385D01*
X3597Y2384D02*
X3608Y2384D01*
X3597Y2383D02*
X3608Y2383D01*
X3597Y2382D02*
X3608Y2382D01*
X3597Y2381D02*
X3608Y2381D01*
X3597Y2380D02*
X3608Y2380D01*
X3597Y2379D02*
X3608Y2379D01*
X3597Y2378D02*
X3608Y2378D01*
X3597Y2377D02*
X3608Y2377D01*
X3597Y2376D02*
X3608Y2376D01*
X3597Y2375D02*
X3608Y2375D01*
X3597Y2374D02*
X3608Y2374D01*
X3597Y2373D02*
X3608Y2373D01*
X3597Y2372D02*
X3608Y2372D01*
X3597Y2371D02*
X3608Y2371D01*
X3597Y2370D02*
X3609Y2370D01*
X3597Y2369D02*
X3609Y2369D01*
X3597Y2368D02*
X3609Y2368D01*
X3597Y2367D02*
X3609Y2367D01*
X3597Y2366D02*
X3609Y2366D01*
X3598Y2365D02*
X3609Y2365D01*
X3598Y2364D02*
X3609Y2364D01*
X3598Y2363D02*
X3609Y2363D01*
X3598Y2362D02*
X3609Y2362D01*
X3598Y2361D02*
X3609Y2361D01*
X3598Y2360D02*
X3609Y2360D01*
X3598Y2359D02*
X3609Y2359D01*
X3598Y2358D02*
X3609Y2358D01*
X3598Y2357D02*
X3609Y2357D01*
X3598Y2356D02*
X3609Y2356D01*
X3598Y2355D02*
X3609Y2355D01*
X3598Y2354D02*
X3609Y2354D01*
X3598Y2353D02*
X3609Y2353D01*
X3598Y2352D02*
X3609Y2352D01*
X3598Y2351D02*
X3609Y2351D01*
X3598Y2350D02*
X3609Y2350D01*
X3598Y2349D02*
X3609Y2349D01*
X3598Y2348D02*
X3609Y2348D01*
X3598Y2347D02*
X3609Y2347D01*
X3598Y2346D02*
X3609Y2346D01*
X3598Y2345D02*
X3609Y2345D01*
X3598Y2344D02*
X3609Y2344D01*
X3598Y2343D02*
X3609Y2343D01*
X3598Y2342D02*
X3609Y2342D01*
X3598Y2341D02*
X3609Y2341D01*
X3598Y2340D02*
X3609Y2340D01*
X3598Y2339D02*
X3609Y2339D01*
X3598Y2338D02*
X3609Y2338D01*
X3598Y2337D02*
X3609Y2337D01*
X3598Y2336D02*
X3609Y2336D01*
X3598Y2335D02*
X3609Y2335D01*
X3598Y2334D02*
X3609Y2334D01*
X3598Y2333D02*
X3609Y2333D01*
X3598Y2332D02*
X3609Y2332D01*
X3598Y2331D02*
X3609Y2331D01*
X3598Y2330D02*
X3609Y2330D01*
X3598Y2329D02*
X3609Y2329D01*
X3598Y2328D02*
X3609Y2328D01*
X3598Y2327D02*
X3609Y2327D01*
X3598Y2326D02*
X3609Y2326D01*
X3598Y2325D02*
X3609Y2325D01*
X3598Y2324D02*
X3609Y2324D01*
X3598Y2323D02*
X3609Y2323D01*
X3598Y2322D02*
X3609Y2322D01*
X3598Y2321D02*
X3609Y2321D01*
X3598Y2320D02*
X3609Y2320D01*
X3598Y2319D02*
X3609Y2319D01*
X3598Y2318D02*
X3609Y2318D01*
X3598Y2317D02*
X3609Y2317D01*
X3598Y2316D02*
X3609Y2316D01*
X3598Y2315D02*
X3609Y2315D01*
X3598Y2314D02*
X3609Y2314D01*
X3598Y2313D02*
X3609Y2313D01*
X3598Y2312D02*
X3609Y2312D01*
X3598Y2311D02*
X3609Y2311D01*
X3598Y2310D02*
X3609Y2310D01*
X3598Y2309D02*
X3609Y2309D01*
X3598Y2308D02*
X3609Y2308D01*
X3598Y2307D02*
X3609Y2307D01*
X3598Y2306D02*
X3609Y2306D01*
X3598Y2305D02*
X3609Y2305D01*
X3598Y2304D02*
X3609Y2304D01*
X3598Y2303D02*
X3609Y2303D01*
X3598Y2302D02*
X3609Y2302D01*
X3598Y2301D02*
X3609Y2301D01*
X3598Y2300D02*
X3609Y2300D01*
X3598Y2299D02*
X3609Y2299D01*
X3598Y2298D02*
X3609Y2298D01*
X3598Y2297D02*
X3609Y2297D01*
X3598Y2296D02*
X3609Y2296D01*
X3598Y2295D02*
X3609Y2295D01*
X3598Y2294D02*
X3609Y2294D01*
X3598Y2293D02*
X3609Y2293D01*
X3598Y2292D02*
X3609Y2292D01*
X3598Y2291D02*
X3609Y2291D01*
X3598Y2290D02*
X3609Y2290D01*
X3598Y2289D02*
X3609Y2289D01*
X3598Y2288D02*
X3609Y2288D01*
X3598Y2287D02*
X3609Y2287D01*
X3598Y2286D02*
X3609Y2286D01*
X3598Y2285D02*
X3609Y2285D01*
X3598Y2284D02*
X3609Y2284D01*
X3598Y2283D02*
X3609Y2283D01*
X3598Y2282D02*
X3609Y2282D01*
X3598Y2281D02*
X3609Y2281D01*
X3598Y2280D02*
X3609Y2280D01*
X3598Y2279D02*
X3609Y2279D01*
X3598Y2278D02*
X3609Y2278D01*
X3598Y2277D02*
X3609Y2277D01*
X3598Y2276D02*
X3609Y2276D01*
X3598Y2275D02*
X3609Y2275D01*
X3598Y2274D02*
X3609Y2274D01*
X3598Y2273D02*
X3609Y2273D01*
X3598Y2272D02*
X3609Y2272D01*
X3598Y2271D02*
X3609Y2271D01*
X3598Y2270D02*
X3609Y2270D01*
X3598Y2269D02*
X3609Y2269D01*
X3598Y2268D02*
X3609Y2268D01*
X3598Y2267D02*
X3609Y2267D01*
X3598Y2266D02*
X3609Y2266D01*
X3598Y2265D02*
X3609Y2265D01*
X3598Y2264D02*
X3609Y2264D01*
X3598Y2263D02*
X3609Y2263D01*
X3598Y2262D02*
X3609Y2262D01*
X3598Y2261D02*
X3609Y2261D01*
X3598Y2260D02*
X3609Y2260D01*
X3598Y2259D02*
X3609Y2259D01*
X3598Y2258D02*
X3609Y2258D01*
X3598Y2257D02*
X3609Y2257D01*
X3598Y2256D02*
X3609Y2256D01*
X3598Y2255D02*
X3609Y2255D01*
X3598Y2254D02*
X3609Y2254D01*
X3598Y2253D02*
X3609Y2253D01*
X3598Y2252D02*
X3609Y2252D01*
X3598Y2251D02*
X3609Y2251D01*
X3598Y2250D02*
X3609Y2250D01*
X3598Y2249D02*
X3609Y2249D01*
X3598Y2248D02*
X3609Y2248D01*
X3598Y2247D02*
X3609Y2247D01*
X3598Y2246D02*
X3609Y2246D01*
X3598Y2245D02*
X3609Y2245D01*
X3598Y2244D02*
X3609Y2244D01*
X3598Y2243D02*
X3609Y2243D01*
X3598Y2242D02*
X3609Y2242D01*
X3598Y2241D02*
X3609Y2241D01*
X3598Y2240D02*
X3609Y2240D01*
X3598Y2239D02*
X3609Y2239D01*
X3598Y2238D02*
X3609Y2238D01*
X3598Y2237D02*
X3609Y2237D01*
X3598Y2236D02*
X3609Y2236D01*
X3598Y2235D02*
X3609Y2235D01*
X3598Y2234D02*
X3609Y2234D01*
X3598Y2233D02*
X3609Y2233D01*
X3598Y2232D02*
X3609Y2232D01*
X3598Y2231D02*
X3609Y2231D01*
X3598Y2230D02*
X3609Y2230D01*
X3598Y2229D02*
X3609Y2229D01*
X3598Y2228D02*
X3609Y2228D01*
X3598Y2227D02*
X3609Y2227D01*
X3598Y2226D02*
X3609Y2226D01*
X3598Y2225D02*
X3609Y2225D01*
X3598Y2224D02*
X3609Y2224D01*
X3598Y2223D02*
X3609Y2223D01*
X3598Y2222D02*
X3609Y2222D01*
X3598Y2221D02*
X3609Y2221D01*
X3598Y2220D02*
X3609Y2220D01*
X3598Y2219D02*
X3609Y2219D01*
X3598Y2218D02*
X3609Y2218D01*
X3598Y2217D02*
X3609Y2217D01*
X3598Y2216D02*
X3609Y2216D01*
X3598Y2215D02*
X3609Y2215D01*
X3598Y2214D02*
X3609Y2214D01*
X3598Y2213D02*
X3609Y2213D01*
X3598Y2212D02*
X3609Y2212D01*
X3598Y2211D02*
X3609Y2211D01*
X3598Y2210D02*
X3609Y2210D01*
X3598Y2209D02*
X3609Y2209D01*
X3598Y2208D02*
X3609Y2208D01*
X3598Y2207D02*
X3609Y2207D01*
X3598Y2206D02*
X3609Y2206D01*
X3598Y2205D02*
X3609Y2205D01*
X3598Y2204D02*
X3609Y2204D01*
X3598Y2203D02*
X3609Y2203D01*
X3598Y2202D02*
X3609Y2202D01*
X3598Y2201D02*
X3609Y2201D01*
X3598Y2200D02*
X3609Y2200D01*
X3598Y2199D02*
X3609Y2199D01*
X3598Y2198D02*
X3609Y2198D01*
X3598Y2197D02*
X3609Y2197D01*
X3598Y2196D02*
X3609Y2196D01*
X3598Y2195D02*
X3609Y2195D01*
X3598Y2194D02*
X3609Y2194D01*
X3598Y2193D02*
X3609Y2193D01*
X3598Y2192D02*
X3609Y2192D01*
X3598Y2191D02*
X3609Y2191D01*
X3598Y2190D02*
X3609Y2190D01*
X3598Y2189D02*
X3609Y2189D01*
X3598Y2188D02*
X3609Y2188D01*
X3598Y2187D02*
X3609Y2187D01*
X3598Y2186D02*
X3609Y2186D01*
X3598Y2185D02*
X3609Y2185D01*
X3598Y2184D02*
X3609Y2184D01*
X3598Y2183D02*
X3609Y2183D01*
X3598Y2182D02*
X3609Y2182D01*
X3598Y2181D02*
X3609Y2181D01*
X3598Y2180D02*
X3609Y2180D01*
X3598Y2179D02*
X3609Y2179D01*
X3598Y2178D02*
X3609Y2178D01*
X3598Y2177D02*
X3609Y2177D01*
X3598Y2176D02*
X3609Y2176D01*
X3598Y2175D02*
X3609Y2175D01*
X3598Y2174D02*
X3609Y2174D01*
X3598Y2173D02*
X3609Y2173D01*
X3598Y2172D02*
X3609Y2172D01*
X3598Y2171D02*
X3609Y2171D01*
X3598Y2170D02*
X3609Y2170D01*
X3598Y2169D02*
X3609Y2169D01*
X3598Y2168D02*
X3609Y2168D01*
X3598Y2167D02*
X3609Y2167D01*
X3598Y2166D02*
X3609Y2166D01*
X3598Y2165D02*
X3609Y2165D01*
X3598Y2164D02*
X3609Y2164D01*
X3598Y2163D02*
X3609Y2163D01*
X3598Y2162D02*
X3609Y2162D01*
X3598Y2161D02*
X3609Y2161D01*
X3598Y2160D02*
X3609Y2160D01*
X3598Y2159D02*
X3609Y2159D01*
X3598Y2158D02*
X3609Y2158D01*
X3598Y2157D02*
X3609Y2157D01*
X3598Y2156D02*
X3609Y2156D01*
X3598Y2155D02*
X3609Y2155D01*
X3598Y2154D02*
X3609Y2154D01*
X3598Y2153D02*
X3609Y2153D01*
X3598Y2152D02*
X3609Y2152D01*
X3598Y2151D02*
X3609Y2151D01*
X3598Y2150D02*
X3609Y2150D01*
X3598Y2149D02*
X3609Y2149D01*
X3598Y2148D02*
X3609Y2148D01*
X3598Y2147D02*
X3609Y2147D01*
X3598Y2146D02*
X3609Y2146D01*
X3598Y2145D02*
X3609Y2145D01*
X3598Y2144D02*
X3609Y2144D01*
X3598Y2143D02*
X3609Y2143D01*
X3598Y2142D02*
X3609Y2142D01*
X3598Y2141D02*
X3609Y2141D01*
X3598Y2140D02*
X3609Y2140D01*
X3598Y2139D02*
X3609Y2139D01*
X3598Y2138D02*
X3609Y2138D01*
X3598Y2137D02*
X3609Y2137D01*
X3598Y2136D02*
X3609Y2136D01*
X3598Y2135D02*
X3609Y2135D01*
X3598Y2134D02*
X3609Y2134D01*
X3598Y2133D02*
X3609Y2133D01*
X3598Y2132D02*
X3609Y2132D01*
X3598Y2131D02*
X3609Y2131D01*
X3598Y2130D02*
X3609Y2130D01*
X3598Y2129D02*
X3609Y2129D01*
X3598Y2128D02*
X3609Y2128D01*
X3598Y2127D02*
X3609Y2127D01*
X3598Y2126D02*
X3609Y2126D01*
X3598Y2125D02*
X3609Y2125D01*
X3598Y2124D02*
X3609Y2124D01*
X3598Y2123D02*
X3609Y2123D01*
X3598Y2122D02*
X3609Y2122D01*
X3598Y2121D02*
X3609Y2121D01*
X3598Y2120D02*
X3609Y2120D01*
X3598Y2119D02*
X3609Y2119D01*
X3598Y2118D02*
X3609Y2118D01*
X3598Y2117D02*
X3609Y2117D01*
X3598Y2116D02*
X3609Y2116D01*
X3598Y2115D02*
X3609Y2115D01*
X3598Y2114D02*
X3609Y2114D01*
X3598Y2113D02*
X3609Y2113D01*
X3598Y2112D02*
X3609Y2112D01*
X3598Y2111D02*
X3609Y2111D01*
X3598Y2110D02*
X3609Y2110D01*
X3598Y2109D02*
X3609Y2109D01*
X3598Y2108D02*
X3609Y2108D01*
X3598Y2107D02*
X3609Y2107D01*
X3598Y2106D02*
X3609Y2106D01*
X3598Y2105D02*
X3609Y2105D01*
X3598Y2104D02*
X3609Y2104D01*
X3598Y2103D02*
X3609Y2103D01*
X3598Y2102D02*
X3609Y2102D01*
X3598Y2101D02*
X3609Y2101D01*
X3598Y2100D02*
X3609Y2100D01*
X3598Y2099D02*
X3609Y2099D01*
X3598Y2098D02*
X3609Y2098D01*
X3598Y2097D02*
X3609Y2097D01*
X3598Y2096D02*
X3609Y2096D01*
X3598Y2095D02*
X3609Y2095D01*
X3598Y2094D02*
X3609Y2094D01*
X3598Y2093D02*
X3609Y2093D01*
X3598Y2092D02*
X3609Y2092D01*
X3598Y2091D02*
X3609Y2091D01*
X3598Y2090D02*
X3609Y2090D01*
X3598Y2089D02*
X3609Y2089D01*
X3598Y2088D02*
X3609Y2088D01*
X3598Y2087D02*
X3609Y2087D01*
X3598Y2086D02*
X3609Y2086D01*
X3598Y2085D02*
X3609Y2085D01*
X3598Y2084D02*
X3609Y2084D01*
X3598Y2083D02*
X3609Y2083D01*
X3598Y2082D02*
X3609Y2082D01*
X3598Y2081D02*
X3609Y2081D01*
X3598Y2080D02*
X3609Y2080D01*
X3598Y2079D02*
X3609Y2079D01*
X3598Y2078D02*
X3609Y2078D01*
X3598Y2077D02*
X3609Y2077D01*
X3598Y2076D02*
X3609Y2076D01*
X3598Y2075D02*
X3609Y2075D01*
X3598Y2074D02*
X3609Y2074D01*
X3598Y2073D02*
X3609Y2073D01*
X3598Y2072D02*
X3609Y2072D01*
X3598Y2071D02*
X3609Y2071D01*
X3598Y2070D02*
X3609Y2070D01*
X3598Y2069D02*
X3609Y2069D01*
X3598Y2068D02*
X3609Y2068D01*
X3598Y2067D02*
X3609Y2067D01*
X3598Y2066D02*
X3609Y2066D01*
X3598Y2065D02*
X3609Y2065D01*
X3598Y2064D02*
X3609Y2064D01*
X3598Y2063D02*
X3609Y2063D01*
X3598Y2062D02*
X3609Y2062D01*
X3598Y2061D02*
X3609Y2061D01*
X3598Y2060D02*
X3609Y2060D01*
X3598Y2059D02*
X3609Y2059D01*
X3598Y2058D02*
X3609Y2058D01*
X3598Y2057D02*
X3609Y2057D01*
X3598Y2056D02*
X3609Y2056D01*
X3598Y2055D02*
X3609Y2055D01*
X3598Y2054D02*
X3609Y2054D01*
X3598Y2053D02*
X3609Y2053D01*
X3598Y2052D02*
X3609Y2052D01*
X3598Y2051D02*
X3609Y2051D01*
X3598Y2050D02*
X3609Y2050D01*
X3598Y2049D02*
X3609Y2049D01*
X3598Y2048D02*
X3609Y2048D01*
X3598Y2047D02*
X3609Y2047D01*
X3598Y2046D02*
X3609Y2046D01*
X3598Y2045D02*
X3609Y2045D01*
X3598Y2044D02*
X3609Y2044D01*
X3598Y2043D02*
X3609Y2043D01*
X3598Y2042D02*
X3609Y2042D01*
X3598Y2041D02*
X3609Y2041D01*
X3598Y2040D02*
X3609Y2040D01*
X3598Y2039D02*
X3609Y2039D01*
X3598Y2038D02*
X3609Y2038D01*
X3598Y2037D02*
X3609Y2037D01*
X3598Y2036D02*
X3609Y2036D01*
X3598Y2035D02*
X3609Y2035D01*
X3598Y2034D02*
X3609Y2034D01*
X3598Y2033D02*
X3609Y2033D01*
X3598Y2032D02*
X3609Y2032D01*
X3598Y2031D02*
X3609Y2031D01*
X3598Y2030D02*
X3609Y2030D01*
X3598Y2029D02*
X3609Y2029D01*
X3598Y2028D02*
X3609Y2028D01*
X3598Y2027D02*
X3609Y2027D01*
X3598Y2026D02*
X3609Y2026D01*
X3598Y2025D02*
X3609Y2025D01*
X3598Y2024D02*
X3609Y2024D01*
X3598Y2023D02*
X3609Y2023D01*
X3598Y2022D02*
X3609Y2022D01*
X3598Y2021D02*
X3609Y2021D01*
X3598Y2020D02*
X3609Y2020D01*
X3598Y2019D02*
X3609Y2019D01*
X3598Y2018D02*
X3609Y2018D01*
X3598Y2017D02*
X3609Y2017D01*
X3598Y2016D02*
X3609Y2016D01*
X3598Y2015D02*
X3609Y2015D01*
X3598Y2014D02*
X3609Y2014D01*
X3598Y2013D02*
X3609Y2013D01*
X3598Y2012D02*
X3609Y2012D01*
X3598Y2011D02*
X3609Y2011D01*
X3598Y2010D02*
X3609Y2010D01*
X3598Y2009D02*
X3609Y2009D01*
X3598Y2008D02*
X3609Y2008D01*
X3598Y2007D02*
X3609Y2007D01*
X3598Y2006D02*
X3609Y2006D01*
X3598Y2005D02*
X3609Y2005D01*
X3598Y2004D02*
X3609Y2004D01*
X3598Y2003D02*
X3609Y2003D01*
X3598Y2002D02*
X3609Y2002D01*
X3598Y2001D02*
X3609Y2001D01*
X3598Y2000D02*
X3609Y2000D01*
X3598Y1999D02*
X3609Y1999D01*
X3598Y1998D02*
X3609Y1998D01*
X3598Y1997D02*
X3609Y1997D01*
X3598Y1996D02*
X3609Y1996D01*
X3598Y1995D02*
X3609Y1995D01*
X3598Y1994D02*
X3609Y1994D01*
X3598Y1993D02*
X3609Y1993D01*
X3598Y1992D02*
X3609Y1992D01*
X3598Y1991D02*
X3609Y1991D01*
X3598Y1990D02*
X3609Y1990D01*
X3598Y1989D02*
X3609Y1989D01*
X3598Y1988D02*
X3609Y1988D01*
X3598Y1987D02*
X3609Y1987D01*
X3598Y1986D02*
X3609Y1986D01*
X3598Y1985D02*
X3609Y1985D01*
X3598Y1984D02*
X3609Y1984D01*
X3598Y1983D02*
X3609Y1983D01*
X3598Y1982D02*
X3609Y1982D01*
X3598Y1981D02*
X3609Y1981D01*
X3598Y1980D02*
X3609Y1980D01*
X3598Y1979D02*
X3609Y1979D01*
X3598Y1978D02*
X3609Y1978D01*
X3598Y1977D02*
X3609Y1977D01*
X3598Y1976D02*
X3609Y1976D01*
X3598Y1975D02*
X3609Y1975D01*
X3598Y1974D02*
X3609Y1974D01*
X3598Y1973D02*
X3609Y1973D01*
X3598Y1972D02*
X3609Y1972D01*
X3598Y1971D02*
X3609Y1971D01*
X3598Y1970D02*
X3609Y1970D01*
X3598Y1969D02*
X3609Y1969D01*
X3598Y1968D02*
X3609Y1968D01*
X3598Y1967D02*
X3609Y1967D01*
X3598Y1966D02*
X3609Y1966D01*
X3598Y1965D02*
X3609Y1965D01*
X3598Y1964D02*
X3609Y1964D01*
X3598Y1963D02*
X3609Y1963D01*
X3598Y1962D02*
X3609Y1962D01*
X3598Y1961D02*
X3609Y1961D01*
X3598Y1960D02*
X3609Y1960D01*
X3598Y1959D02*
X3609Y1959D01*
X3598Y1958D02*
X3609Y1958D01*
X3598Y1957D02*
X3609Y1957D01*
X3598Y1956D02*
X3609Y1956D01*
X3598Y1955D02*
X3609Y1955D01*
X3598Y1954D02*
X3609Y1954D01*
X3598Y1953D02*
X3609Y1953D01*
X3598Y1952D02*
X3609Y1952D01*
X3598Y1951D02*
X3609Y1951D01*
X3598Y1950D02*
X3609Y1950D01*
X3598Y1949D02*
X3609Y1949D01*
X3598Y1948D02*
X3609Y1948D01*
X3598Y1947D02*
X3609Y1947D01*
X3598Y1946D02*
X3609Y1946D01*
X3598Y1945D02*
X3609Y1945D01*
X3598Y1944D02*
X3609Y1944D01*
X3598Y1943D02*
X3609Y1943D01*
X3598Y1942D02*
X3609Y1942D01*
X3598Y1941D02*
X3609Y1941D01*
X3598Y1940D02*
X3609Y1940D01*
X3598Y1939D02*
X3609Y1939D01*
X3598Y1938D02*
X3609Y1938D01*
X3598Y1937D02*
X3609Y1937D01*
X3598Y1936D02*
X3609Y1936D01*
X3598Y1935D02*
X3609Y1935D01*
X3598Y1934D02*
X3609Y1934D01*
X3598Y1933D02*
X3609Y1933D01*
X3598Y1932D02*
X3609Y1932D01*
X3598Y1931D02*
X3609Y1931D01*
X3598Y1930D02*
X3609Y1930D01*
X3598Y1929D02*
X3609Y1929D01*
X3598Y1928D02*
X3609Y1928D01*
X3598Y1927D02*
X3609Y1927D01*
X3598Y1926D02*
X3609Y1926D01*
X3598Y1925D02*
X3609Y1925D01*
X3598Y1924D02*
X3609Y1924D01*
X3598Y1923D02*
X3609Y1923D01*
X3598Y1922D02*
X3609Y1922D01*
X3598Y1921D02*
X3609Y1921D01*
X3598Y1920D02*
X3609Y1920D01*
X3598Y1919D02*
X3609Y1919D01*
X3598Y1918D02*
X3609Y1918D01*
X3598Y1917D02*
X3609Y1917D01*
X3598Y1916D02*
X3609Y1916D01*
X3598Y1915D02*
X3609Y1915D01*
X3598Y1914D02*
X3609Y1914D01*
X3598Y1913D02*
X3609Y1913D01*
X3598Y1912D02*
X3609Y1912D01*
X3598Y1911D02*
X3609Y1911D01*
X3598Y1910D02*
X3609Y1910D01*
X3598Y1909D02*
X3609Y1909D01*
X3598Y1908D02*
X3609Y1908D01*
X3598Y1907D02*
X3609Y1907D01*
X3598Y1906D02*
X3609Y1906D01*
X3598Y1905D02*
X3609Y1905D01*
X3598Y1904D02*
X3609Y1904D01*
X3598Y1903D02*
X3609Y1903D01*
X3598Y1902D02*
X3609Y1902D01*
X3598Y1901D02*
X3609Y1901D01*
X3598Y1900D02*
X3609Y1900D01*
X3598Y1899D02*
X3609Y1899D01*
X3598Y1898D02*
X3609Y1898D01*
X3598Y1897D02*
X3609Y1897D01*
X3598Y1896D02*
X3609Y1896D01*
X3598Y1895D02*
X3609Y1895D01*
X3598Y1894D02*
X3609Y1894D01*
X3598Y1893D02*
X3609Y1893D01*
X3598Y1892D02*
X3609Y1892D01*
X3598Y1891D02*
X3609Y1891D01*
X3598Y1890D02*
X3609Y1890D01*
X3598Y1889D02*
X3609Y1889D01*
X3598Y1888D02*
X3609Y1888D01*
X3598Y1887D02*
X3609Y1887D01*
X3598Y1886D02*
X3609Y1886D01*
X3598Y1885D02*
X3609Y1885D01*
X3598Y1884D02*
X3609Y1884D01*
X3598Y1883D02*
X3609Y1883D01*
X3598Y1882D02*
X3609Y1882D01*
X3598Y1881D02*
X3609Y1881D01*
X3598Y1880D02*
X3609Y1880D01*
X3598Y1879D02*
X3609Y1879D01*
X3598Y1878D02*
X3609Y1878D01*
X3598Y1877D02*
X3609Y1877D01*
X3598Y1876D02*
X3609Y1876D01*
X3598Y1875D02*
X3609Y1875D01*
X3598Y1874D02*
X3609Y1874D01*
X3598Y1873D02*
X3609Y1873D01*
X3598Y1872D02*
X3609Y1872D01*
X3598Y1871D02*
X3609Y1871D01*
X3598Y1870D02*
X3609Y1870D01*
X3598Y1869D02*
X3609Y1869D01*
X3598Y1868D02*
X3609Y1868D01*
X3598Y1867D02*
X3609Y1867D01*
X3598Y1866D02*
X3609Y1866D01*
X3598Y1865D02*
X3609Y1865D01*
X3598Y1864D02*
X3609Y1864D01*
X3598Y1863D02*
X3609Y1863D01*
X3598Y1862D02*
X3609Y1862D01*
X3598Y1861D02*
X3609Y1861D01*
X3598Y1860D02*
X3609Y1860D01*
X3598Y1859D02*
X3609Y1859D01*
X3598Y1858D02*
X3609Y1858D01*
X3598Y1857D02*
X3609Y1857D01*
X3598Y1856D02*
X3609Y1856D01*
X3598Y1855D02*
X3609Y1855D01*
X3598Y1854D02*
X3609Y1854D01*
X3598Y1853D02*
X3609Y1853D01*
X3598Y1852D02*
X3609Y1852D01*
X3598Y1851D02*
X3609Y1851D01*
X3598Y1850D02*
X3609Y1850D01*
X3598Y1849D02*
X3609Y1849D01*
X3598Y1848D02*
X3609Y1848D01*
X3598Y1847D02*
X3609Y1847D01*
X3598Y1846D02*
X3609Y1846D01*
X3598Y1845D02*
X3609Y1845D01*
X3598Y1844D02*
X3609Y1844D01*
X3598Y1843D02*
X3609Y1843D01*
X3598Y1842D02*
X3609Y1842D01*
X3598Y1841D02*
X3609Y1841D01*
X3598Y1840D02*
X3609Y1840D01*
X3598Y1839D02*
X3609Y1839D01*
X3598Y1838D02*
X3609Y1838D01*
X3598Y1837D02*
X3609Y1837D01*
X3598Y1836D02*
X3609Y1836D01*
X3598Y1835D02*
X3609Y1835D01*
X3598Y1834D02*
X3609Y1834D01*
X3598Y1833D02*
X3609Y1833D01*
X3598Y1832D02*
X3609Y1832D01*
X3598Y1831D02*
X3609Y1831D01*
X3598Y1830D02*
X3609Y1830D01*
X3598Y1829D02*
X3609Y1829D01*
X3598Y1828D02*
X3609Y1828D01*
X3598Y1827D02*
X3609Y1827D01*
X3598Y1826D02*
X3609Y1826D01*
X3598Y1825D02*
X3609Y1825D01*
X3598Y1824D02*
X3609Y1824D01*
X3598Y1823D02*
X3609Y1823D01*
X3598Y1822D02*
X3609Y1822D01*
X3598Y1821D02*
X3609Y1821D01*
X3598Y1820D02*
X3609Y1820D01*
X3598Y1819D02*
X3609Y1819D01*
X3598Y1818D02*
X3609Y1818D01*
X3598Y1817D02*
X3609Y1817D01*
X3598Y1816D02*
X3609Y1816D01*
X3598Y1815D02*
X3609Y1815D01*
X3598Y1814D02*
X3609Y1814D01*
X3598Y1813D02*
X3609Y1813D01*
X3598Y1812D02*
X3609Y1812D01*
X3598Y1811D02*
X3609Y1811D01*
X3598Y1810D02*
X3609Y1810D01*
X3598Y1809D02*
X3609Y1809D01*
X3598Y1808D02*
X3609Y1808D01*
X3598Y1807D02*
X3609Y1807D01*
X3598Y1806D02*
X3609Y1806D01*
X3598Y1805D02*
X3609Y1805D01*
X3598Y1804D02*
X3609Y1804D01*
X3598Y1803D02*
X3609Y1803D01*
X3598Y1802D02*
X3609Y1802D01*
X3598Y1801D02*
X3609Y1801D01*
X3598Y1800D02*
X3609Y1800D01*
X3598Y1799D02*
X3609Y1799D01*
X3598Y1798D02*
X3609Y1798D01*
X3598Y1797D02*
X3609Y1797D01*
X3598Y1796D02*
X3609Y1796D01*
X3598Y1795D02*
X3609Y1795D01*
X3598Y1794D02*
X3609Y1794D01*
X3598Y1793D02*
X3609Y1793D01*
X3598Y1792D02*
X3609Y1792D01*
X3598Y1791D02*
X3609Y1791D01*
X3598Y1790D02*
X3609Y1790D01*
X3598Y1789D02*
X3609Y1789D01*
X3598Y1788D02*
X3609Y1788D01*
X3598Y1787D02*
X3609Y1787D01*
X3598Y1786D02*
X3609Y1786D01*
X3598Y1785D02*
X3609Y1785D01*
X3598Y1784D02*
X3609Y1784D01*
X3598Y1783D02*
X3609Y1783D01*
X3598Y1782D02*
X3609Y1782D01*
X3598Y1781D02*
X3609Y1781D01*
X3598Y1780D02*
X3609Y1780D01*
X3598Y1779D02*
X3609Y1779D01*
X3598Y1778D02*
X3609Y1778D01*
X3598Y1777D02*
X3609Y1777D01*
X3598Y1776D02*
X3609Y1776D01*
X3598Y1775D02*
X3609Y1775D01*
X3598Y1774D02*
X3609Y1774D01*
X3598Y1773D02*
X3609Y1773D01*
X3598Y1772D02*
X3609Y1772D01*
X3598Y1771D02*
X3609Y1771D01*
X3598Y1770D02*
X3609Y1770D01*
X3598Y1769D02*
X3609Y1769D01*
X3598Y1768D02*
X3609Y1768D01*
X3598Y1767D02*
X3609Y1767D01*
X3598Y1766D02*
X3609Y1766D01*
X3598Y1765D02*
X3609Y1765D01*
X3598Y1764D02*
X3609Y1764D01*
X3598Y1763D02*
X3609Y1763D01*
X3598Y1762D02*
X3609Y1762D01*
X3598Y1761D02*
X3609Y1761D01*
X3598Y1760D02*
X3609Y1760D01*
X3598Y1759D02*
X3609Y1759D01*
X3598Y1758D02*
X3609Y1758D01*
X3598Y1757D02*
X3609Y1757D01*
X3598Y1756D02*
X3609Y1756D01*
X3598Y1755D02*
X3609Y1755D01*
X3598Y1754D02*
X3609Y1754D01*
X3598Y1753D02*
X3609Y1753D01*
X3598Y1752D02*
X3609Y1752D01*
X3598Y1751D02*
X3609Y1751D01*
X3598Y1750D02*
X3609Y1750D01*
X3598Y1749D02*
X3609Y1749D01*
X3598Y1748D02*
X3609Y1748D01*
X3598Y1747D02*
X3609Y1747D01*
X3598Y1746D02*
X3609Y1746D01*
X3598Y1745D02*
X3609Y1745D01*
X3598Y1744D02*
X3609Y1744D01*
X3598Y1743D02*
X3609Y1743D01*
X3598Y1742D02*
X3609Y1742D01*
X3598Y1741D02*
X3609Y1741D01*
X3598Y1740D02*
X3609Y1740D01*
X3598Y1739D02*
X3609Y1739D01*
X3598Y1738D02*
X3609Y1738D01*
X3598Y1737D02*
X3609Y1737D01*
X3598Y1736D02*
X3609Y1736D01*
X3598Y1735D02*
X3609Y1735D01*
X3598Y1734D02*
X3609Y1734D01*
X3598Y1733D02*
X3609Y1733D01*
X3598Y1732D02*
X3609Y1732D01*
X3598Y1731D02*
X3609Y1731D01*
X3598Y1730D02*
X3609Y1730D01*
X3598Y1729D02*
X3609Y1729D01*
X3598Y1728D02*
X3609Y1728D01*
X3598Y1727D02*
X3609Y1727D01*
X3598Y1726D02*
X3609Y1726D01*
X3598Y1725D02*
X3609Y1725D01*
X3598Y1724D02*
X3609Y1724D01*
X3598Y1723D02*
X3609Y1723D01*
X3598Y1722D02*
X3609Y1722D01*
X3598Y1721D02*
X3609Y1721D01*
X3598Y1720D02*
X3609Y1720D01*
X3598Y1719D02*
X3609Y1719D01*
X3598Y1718D02*
X3609Y1718D01*
X3598Y1717D02*
X3609Y1717D01*
X3598Y1716D02*
X3609Y1716D01*
X3598Y1715D02*
X3609Y1715D01*
X3598Y1714D02*
X3609Y1714D01*
X3598Y1713D02*
X3609Y1713D01*
X3598Y1712D02*
X3609Y1712D01*
X3598Y1711D02*
X3609Y1711D01*
X3598Y1710D02*
X3609Y1710D01*
X3598Y1709D02*
X3609Y1709D01*
X3598Y1708D02*
X3609Y1708D01*
X3598Y1707D02*
X3609Y1707D01*
X3598Y1706D02*
X3609Y1706D01*
X3598Y1705D02*
X3609Y1705D01*
X3598Y1704D02*
X3609Y1704D01*
X3598Y1703D02*
X3609Y1703D01*
X3598Y1702D02*
X3609Y1702D01*
X3598Y1701D02*
X3609Y1701D01*
X3598Y1700D02*
X3609Y1700D01*
X3598Y1699D02*
X3609Y1699D01*
X3598Y1698D02*
X3609Y1698D01*
X3598Y1697D02*
X3609Y1697D01*
X3598Y1696D02*
X3609Y1696D01*
X3598Y1695D02*
X3609Y1695D01*
X3598Y1694D02*
X3609Y1694D01*
X3598Y1693D02*
X3609Y1693D01*
X3598Y1692D02*
X3609Y1692D01*
X3598Y1691D02*
X3609Y1691D01*
X3598Y1690D02*
X3609Y1690D01*
X3598Y1689D02*
X3609Y1689D01*
X3598Y1688D02*
X3609Y1688D01*
X3598Y1687D02*
X3609Y1687D01*
X3598Y1686D02*
X3609Y1686D01*
X3598Y1685D02*
X3609Y1685D01*
X3598Y1684D02*
X3609Y1684D01*
X3598Y1683D02*
X3609Y1683D01*
X3598Y1682D02*
X3609Y1682D01*
X3598Y1681D02*
X3609Y1681D01*
X3598Y1680D02*
X3609Y1680D01*
X3598Y1679D02*
X3609Y1679D01*
X3598Y1678D02*
X3609Y1678D01*
X3598Y1677D02*
X3609Y1677D01*
X3598Y1676D02*
X3609Y1676D01*
X3598Y1675D02*
X3609Y1675D01*
X3598Y1674D02*
X3609Y1674D01*
X3598Y1673D02*
X3609Y1673D01*
X3598Y1672D02*
X3609Y1672D01*
X3598Y1671D02*
X3609Y1671D01*
X3598Y1670D02*
X3609Y1670D01*
X3598Y1669D02*
X3609Y1669D01*
X3598Y1668D02*
X3609Y1668D01*
X3598Y1667D02*
X3609Y1667D01*
X3598Y1666D02*
X3609Y1666D01*
X3598Y1665D02*
X3609Y1665D01*
X3598Y1664D02*
X3609Y1664D01*
X3598Y1663D02*
X3609Y1663D01*
X3598Y1662D02*
X3609Y1662D01*
X3598Y1661D02*
X3609Y1661D01*
X3598Y1660D02*
X3609Y1660D01*
X3598Y1659D02*
X3609Y1659D01*
X3598Y1658D02*
X3609Y1658D01*
X3598Y1657D02*
X3609Y1657D01*
X3598Y1656D02*
X3609Y1656D01*
X3598Y1655D02*
X3609Y1655D01*
X3598Y1654D02*
X3609Y1654D01*
X3598Y1653D02*
X3609Y1653D01*
X3598Y1652D02*
X3609Y1652D01*
X3598Y1651D02*
X3609Y1651D01*
X3598Y1650D02*
X3609Y1650D01*
X3598Y1649D02*
X3609Y1649D01*
X3598Y1648D02*
X3609Y1648D01*
X3598Y1647D02*
X3609Y1647D01*
X3598Y1646D02*
X3609Y1646D01*
X3598Y1645D02*
X3609Y1645D01*
X3598Y1644D02*
X3609Y1644D01*
X3598Y1643D02*
X3609Y1643D01*
X3598Y1642D02*
X3609Y1642D01*
X3598Y1641D02*
X3609Y1641D01*
X3598Y1640D02*
X3609Y1640D01*
X3598Y1639D02*
X3609Y1639D01*
X3598Y1638D02*
X3609Y1638D01*
X3598Y1637D02*
X3609Y1637D01*
X3598Y1636D02*
X3609Y1636D01*
X3598Y1635D02*
X3609Y1635D01*
X3598Y1634D02*
X3609Y1634D01*
X3598Y1633D02*
X3609Y1633D01*
X3598Y1632D02*
X3609Y1632D01*
X3598Y1631D02*
X3609Y1631D01*
X3598Y1630D02*
X3609Y1630D01*
X3598Y1629D02*
X3609Y1629D01*
X3598Y1628D02*
X3609Y1628D01*
X3598Y1627D02*
X3609Y1627D01*
X3598Y1626D02*
X3609Y1626D01*
X3598Y1625D02*
X3609Y1625D01*
X3598Y1624D02*
X3609Y1624D01*
X3598Y1623D02*
X3609Y1623D01*
X3598Y1622D02*
X3609Y1622D01*
X3598Y1621D02*
X3609Y1621D01*
X3598Y1620D02*
X3609Y1620D01*
X3598Y1619D02*
X3609Y1619D01*
X3598Y1618D02*
X3609Y1618D01*
X3598Y1617D02*
X3609Y1617D01*
X3598Y1616D02*
X3609Y1616D01*
X3598Y1615D02*
X3609Y1615D01*
X3598Y1614D02*
X3609Y1614D01*
X3598Y1613D02*
X3609Y1613D01*
X3598Y1612D02*
X3609Y1612D01*
X3598Y1611D02*
X3609Y1611D01*
X3598Y1610D02*
X3609Y1610D01*
X3598Y1609D02*
X3609Y1609D01*
X3598Y1608D02*
X3609Y1608D01*
X3598Y1607D02*
X3609Y1607D01*
X3598Y1606D02*
X3609Y1606D01*
X3598Y1605D02*
X3609Y1605D01*
X3598Y1604D02*
X3609Y1604D01*
X3598Y1603D02*
X3609Y1603D01*
X3598Y1602D02*
X3609Y1602D01*
X3598Y1601D02*
X3609Y1601D01*
X3598Y1600D02*
X3609Y1600D01*
X3598Y1599D02*
X3609Y1599D01*
X3598Y1598D02*
X3609Y1598D01*
X3598Y1597D02*
X3609Y1597D01*
X3598Y1596D02*
X3609Y1596D01*
X3598Y1595D02*
X3609Y1595D01*
X3598Y1594D02*
X3609Y1594D01*
X3598Y1593D02*
X3609Y1593D01*
X3598Y1592D02*
X3609Y1592D01*
X3598Y1591D02*
X3609Y1591D01*
X3598Y1590D02*
X3609Y1590D01*
X3598Y1589D02*
X3609Y1589D01*
X3598Y1588D02*
X3609Y1588D01*
X3598Y1587D02*
X3609Y1587D01*
X3598Y1586D02*
X3609Y1586D01*
X3598Y1585D02*
X3609Y1585D01*
X3598Y1584D02*
X3609Y1584D01*
X3598Y1583D02*
X3609Y1583D01*
X3598Y1582D02*
X3609Y1582D01*
X3598Y1581D02*
X3609Y1581D01*
X3598Y1580D02*
X3609Y1580D01*
X3598Y1579D02*
X3609Y1579D01*
X3598Y1578D02*
X3609Y1578D01*
X3598Y1577D02*
X3609Y1577D01*
X3598Y1576D02*
X3609Y1576D01*
X3598Y1575D02*
X3609Y1575D01*
X3598Y1574D02*
X3609Y1574D01*
X3598Y1573D02*
X3609Y1573D01*
X3598Y1572D02*
X3609Y1572D01*
X3598Y1571D02*
X3609Y1571D01*
X3598Y1570D02*
X3609Y1570D01*
X3598Y1569D02*
X3609Y1569D01*
X3598Y1568D02*
X3609Y1568D01*
X3598Y1567D02*
X3609Y1567D01*
X3598Y1566D02*
X3609Y1566D01*
X3598Y1565D02*
X3609Y1565D01*
X3598Y1564D02*
X3609Y1564D01*
X3598Y1563D02*
X3609Y1563D01*
X3598Y1562D02*
X3609Y1562D01*
X3598Y1561D02*
X3609Y1561D01*
X3598Y1560D02*
X3609Y1560D01*
X3598Y1559D02*
X3609Y1559D01*
X3598Y1558D02*
X3609Y1558D01*
X3598Y1557D02*
X3609Y1557D01*
X3598Y1556D02*
X3609Y1556D01*
X3598Y1555D02*
X3609Y1555D01*
X3598Y1554D02*
X3609Y1554D01*
X3598Y1553D02*
X3609Y1553D01*
X3598Y1552D02*
X3609Y1552D01*
X3598Y1551D02*
X3609Y1551D01*
X3598Y1550D02*
X3609Y1550D01*
X3598Y1549D02*
X3609Y1549D01*
X3598Y1548D02*
X3609Y1548D01*
X3598Y1547D02*
X3609Y1547D01*
X3598Y1546D02*
X3609Y1546D01*
X3598Y1545D02*
X3609Y1545D01*
X3598Y1544D02*
X3609Y1544D01*
X3598Y1543D02*
X3609Y1543D01*
X3598Y1542D02*
X3609Y1542D01*
X3598Y1541D02*
X3609Y1541D01*
X3598Y1540D02*
X3609Y1540D01*
X3598Y1539D02*
X3609Y1539D01*
X3598Y1538D02*
X3609Y1538D01*
X3598Y1537D02*
X3609Y1537D01*
X3598Y1536D02*
X3609Y1536D01*
X3598Y1535D02*
X3609Y1535D01*
X3598Y1534D02*
X3609Y1534D01*
X3598Y1533D02*
X3609Y1533D01*
X3598Y1532D02*
X3609Y1532D01*
X3598Y1531D02*
X3609Y1531D01*
X3598Y1530D02*
X3609Y1530D01*
X3598Y1529D02*
X3609Y1529D01*
X3598Y1528D02*
X3609Y1528D01*
X3598Y1527D02*
X3609Y1527D01*
X3598Y1526D02*
X3609Y1526D01*
X3598Y1525D02*
X3609Y1525D01*
X3598Y1524D02*
X3609Y1524D01*
X3598Y1523D02*
X3609Y1523D01*
X3598Y1522D02*
X3609Y1522D01*
X3598Y1521D02*
X3609Y1521D01*
X3598Y1520D02*
X3609Y1520D01*
X3598Y1519D02*
X3609Y1519D01*
X3598Y1518D02*
X3609Y1518D01*
X3598Y1517D02*
X3609Y1517D01*
X3598Y1516D02*
X3609Y1516D01*
X3598Y1515D02*
X3609Y1515D01*
X3598Y1514D02*
X3609Y1514D01*
X3598Y1513D02*
X3609Y1513D01*
X3598Y1512D02*
X3609Y1512D01*
X3599Y1511D02*
X3609Y1511D01*
X3599Y1510D02*
X3608Y1510D01*
X3600Y1509D02*
X3608Y1509D01*
X3601Y1508D02*
X3606Y1508D01*
D02*
G04 End of Copper0*
M02*