; NON-PLATED HOLES START AT T1
; THROUGH (PLATED) HOLES START AT T100
M48
INCH
T100C0.015748
T101C0.035000
T102C0.038000
T103C0.039370
T104C0.042520
T105C0.036000
T106C0.038583
%
T100
X032493Y041505
X029343Y027332
X012414Y041505
X005721Y033237
X023438Y027332
X042729Y023001
X045485Y023789
X005327Y049773
X042335Y026151
X009264Y034812
X017926Y037962
X023438Y024970
X015957Y041505
X007690Y028907
X039579Y038355
X030131Y028907
X041548Y038355
X028556Y026544
X041154Y032056
X012414Y039537
X034068Y042292
X026587Y024970
X042335Y025363
X034068Y041505
X004540Y033237
X025012Y024182
X003753Y049773
X005721Y035600
X006902Y032450
X036823Y015127
X040760Y025363
X009264Y032450
X023438Y024182
X005327Y034025
X005327Y021033
X017926Y039930
X030131Y030875
X008477Y034812
X046272Y029300
X003753Y035600
X042335Y024576
X044697Y029300
X008477Y032450
X024619Y011584
X032493Y042292
X027768Y025757
X023438Y026544
X041942Y020245
X006902Y036387
X003753Y021033
X003753Y034025
X043910Y023001
X013989Y039537
X039973Y037568
X037611Y015127
X036036Y015127
X007690Y030481
X040760Y026151
X041942Y023789
X023438Y025757
X007690Y035600
X041942Y021426
X035249Y015127
X038398Y037568
X008477Y049379
X044697Y032056
T101
X017138Y040718
X020288Y004104
X025406Y007253
X043123Y046623
X031072Y021033
X022804Y058434
X005327Y049773
X019107Y034812
X022257Y003316
X024619Y056859
X015957Y043474
X001934Y047411
X043516Y042929
X007690Y043474
X026587Y007647
X028312Y043474
X000596Y030483
X021863Y058434
X013201Y034812
X004540Y050560
X001784Y029694
X034461Y043867
X003902Y041899
X016927Y043474
X012020Y034812
X041548Y041111
X026194Y009222
X027375Y043474
X015957Y035993
X019107Y040718
X017926Y033631
X023438Y004103
X034855Y040718
X023438Y057253
X023831Y010009
T102
X033823Y058434
X024831Y058434
X001784Y009434
X038792Y053710
X032343Y043474
X034823Y058434
X043910Y016308
X029343Y043474
X003359Y016308
X003753Y040899
X025831Y058434
X043910Y017308
X003359Y017308
X036430Y039537
X003753Y042899
X043516Y041899
X003753Y044899
X043516Y043899
X003753Y039899
X035823Y058434
X020926Y043474
X038823Y058434
X019926Y043474
X022831Y058434
X027949Y053710
X031343Y043474
X043910Y019308
X003359Y019308
X046666Y031844
X028343Y043474
X046666Y027332
X008477Y053710
X030343Y043474
X010627Y058434
X000603Y029481
X046666Y026332
X012627Y058434
X001784Y050592
X009477Y053710
X016926Y043474
X033337Y039537
X017926Y043474
X034337Y039537
X020831Y058434
X019319Y053710
X003359Y014308
X043910Y014308
X043516Y039899
X003753Y043899
X026831Y058434
X043516Y044899
X043516Y042899
X003753Y041899
X020319Y053710
X001784Y010434
X000603Y028481
X043516Y040899
X014926Y043474
X000603Y031481
X000603Y030481
X021831Y058434
X001784Y048592
X018319Y053710
X026949Y053710
X035337Y039537
X000603Y032481
X037430Y039537
X009627Y058434
X023831Y058434
X003359Y015308
X036792Y053710
X043910Y015308
X036823Y058434
X043910Y018308
X003359Y018308
X001784Y008434
X000603Y027481
X038430Y039537
X011627Y058434
X026343Y043474
X037792Y053710
X015926Y043474
X027343Y043474
X018926Y043474
X013627Y058434
X039430Y039537
X001784Y049592
X010477Y053710
X032337Y039537
X008627Y058434
X046666Y032844
X037823Y058434
X028949Y053710
T103
X014170Y040812
X021170Y034812
X013170Y040812
X019170Y040812
X017170Y034812
X015170Y040812
X016170Y040812
X020170Y040812
X012170Y034812
X019170Y034812
X014170Y034812
X013170Y034812
X021170Y040812
X017170Y040812
X016170Y034812
X015170Y034812
X020170Y034812
X012170Y040812
X010170Y034812
X018170Y034812
X011170Y040812
X010170Y040812
X018170Y040812
X011170Y034812
T104
X026193Y010009
X019881Y028119
X011214Y028119
X019100Y028119
X015938Y028119
X023053Y010009
X016736Y028119
X023825Y010009
X018301Y028119
X022261Y010009
X015157Y028119
X013578Y028119
X025398Y010009
X017517Y028119
X012013Y028119
X024608Y010009
X014377Y028119
X012794Y028119
T105
X025187Y009222
X019187Y003222
X024187Y009222
X032187Y003222
X022187Y009222
X027187Y003222
X028187Y003222
X023187Y009222
X021187Y003222
X026187Y003222
X029187Y009222
X020187Y003222
X031187Y009222
X030187Y009222
X018187Y009222
X028187Y009222
X023187Y003222
X022187Y003222
X027187Y009222
X019187Y009222
X025187Y003222
X024187Y003222
X032187Y009222
X030187Y003222
X018187Y003222
X031187Y003222
X020187Y009222
X021187Y009222
X026187Y009222
X029187Y003222
T106
X036363Y031998
X043910Y026939
X043910Y027725
X037723Y026939
X036363Y032784
X043910Y025365
X043910Y026151
X037723Y026151
X037723Y027725
X037723Y025365
T00
M30
